<svg width="781" height="295" viewBox="0 0 781 295" fill="none" xmlns="http://www.w3.org/2000/svg">
<path d="M682.871 181.883V80.9724L618.538 181.883H682.871ZM677.985 295V242.103H541.175V185.952L669.842 2.03448H747.612V181.883H781V242.103H747.612V295H677.985Z" fill="white"/>
<path d="M334.598 10.9862C349.799 3.66207 367.715 0 388.345 0C408.975 0 426.755 3.66207 441.685 10.9862C456.886 18.3104 468.829 28.754 477.516 42.3172C486.202 55.8804 492.581 71.3425 496.653 88.7034C500.725 105.793 502.761 125.188 502.761 146.89C502.761 168.591 500.725 188.122 496.653 205.483C492.581 222.572 486.202 237.899 477.516 251.462C468.829 265.025 456.886 275.469 441.685 282.793C426.755 290.117 408.975 293.779 388.345 293.779C367.715 293.779 349.799 290.117 334.598 282.793C319.668 275.469 307.86 265.025 299.174 251.462C290.487 237.899 284.108 222.572 280.037 205.483C275.965 188.122 273.929 168.591 273.929 146.89C273.929 125.188 275.965 105.793 280.037 88.7034C284.108 71.3425 290.487 55.8804 299.174 42.3172C307.86 28.754 319.668 18.3104 334.598 10.9862ZM408.704 69.9862C403.003 66.731 396.217 65.1035 388.345 65.1035C380.473 65.1035 373.551 66.731 367.579 69.9862C361.879 72.9701 357.4 76.7678 354.142 81.3793C351.156 85.9908 348.713 92.0943 346.813 99.6897C344.913 107.285 343.691 114.609 343.149 121.662C342.606 128.715 342.334 137.124 342.334 146.89C342.334 156.655 342.606 165.064 343.149 172.117C343.691 179.17 344.913 186.494 346.813 194.09C348.713 201.685 351.156 207.789 354.142 212.4C357.4 217.012 361.879 220.945 367.579 224.2C373.551 227.184 380.473 228.676 388.345 228.676C396.217 228.676 403.003 227.184 408.704 224.2C414.675 220.945 419.154 217.012 422.14 212.4C425.398 207.789 427.976 201.685 429.877 194.09C431.777 186.494 432.998 179.17 433.541 172.117C434.084 165.064 434.355 156.655 434.355 146.89C434.355 137.124 434.084 128.715 433.541 121.662C432.998 114.609 431.777 107.285 429.877 99.6897C427.976 92.0943 425.398 85.9908 422.14 81.3793C419.154 76.7678 414.675 72.9701 408.704 69.9862Z" fill="white"/>
<path d="M141.696 181.883V80.9724L77.363 181.883H141.696ZM136.81 295V242.103H0V185.952L128.667 2.03448H206.437V181.883H239.825V242.103H206.437V295H136.81Z" fill="white"/>
</svg>
