<svg width="28" height="20" viewBox="0 0 28 20" fill="none" xmlns="http://www.w3.org/2000/svg">
<path d="M13.2859 3.48235C13.2527 3.48235 13.2527 3.41719 13.2195 3.28688C13.1862 3.15656 13.153 2.96109 13.0866 2.73303C13.0866 2.70045 13.0534 2.66787 13.0534 2.60272C13.0534 2.57014 13.0202 2.50498 13.0202 2.4724C12.987 2.37466 12.9537 2.3095 12.8873 2.21176C12.8873 2.14661 12.8541 2.11403 12.7877 2.08145C12.7544 2.04887 12.7212 2.01629 12.7212 1.91855C12.7212 1.88597 12.688 1.85339 12.688 1.85339C12.688 1.82081 12.6548 1.78824 12.6216 1.78824C12.5884 1.75566 12.5552 1.6905 12.4887 1.65792C12.4555 1.62534 12.4223 1.56018 12.3891 1.49502C12.3559 1.42986 12.3227 1.39728 12.2562 1.36471C12.1898 1.33213 12.1566 1.29955 12.1234 1.23439C12.0902 1.16923 12.0569 1.10407 11.9573 1.10407C11.8244 1.03891 11.7248 0.941177 11.5919 0.876018C11.4923 0.745701 11.3262 0.713122 11.1601 0.680543C11.0273 0.550226 10.8612 0.517647 10.6951 0.550226C10.5623 0.41991 10.363 0.38733 10.1969 0.485068C10.0308 0.485068 9.83155 0.452489 9.66548 0.517647C9.49941 0.550226 9.30012 0.615385 9.13404 0.647964C8.96797 0.778281 8.8019 0.843439 8.60261 0.876018C8.46975 1.03891 8.30368 1.10407 8.10439 1.20181C8.07117 1.23439 8.00474 1.26697 7.97153 1.29955C7.93832 1.33213 7.9051 1.36471 7.87189 1.42986C7.80546 1.5276 7.73903 1.59276 7.6726 1.65792C7.53974 1.82081 7.44009 2.01629 7.34045 2.17919C7.20759 2.34208 7.10795 2.53756 7.10795 2.76561C7.07473 2.99367 7.07473 3.18914 7.0083 3.41719C7.04152 3.51493 7.07473 3.64525 7.04152 3.77557C7.04152 3.90588 7.0083 4.00362 7.0083 4.13394C7.0083 4.36199 6.97509 4.62262 7.0083 4.88326C7.0083 5.14389 7.04152 5.37195 7.0083 5.63258C6.97509 5.89321 6.94187 6.12127 7.0083 6.3819C7.07473 6.64253 6.97509 6.87059 7.0083 7.13122C6.94187 7.35928 7.04152 7.61991 7.0083 7.84796C7.0083 8.07602 6.97509 8.33665 7.0083 8.56471C7.0083 8.79276 7.04152 9.02081 7.0083 9.24887C7.14116 9.47692 6.97509 9.70498 7.0083 9.93303C6.94187 10.1611 7.0083 10.3891 7.0083 10.5846C7.04152 10.8127 6.94187 11.0081 7.0083 11.2362C7.0083 11.4317 7.04152 11.6597 7.0083 11.8552C7.07473 12.0507 6.94187 12.2462 7.0083 12.4416C7.0083 12.6371 7.0083 12.8326 7.0083 12.9955C6.90866 13.191 6.97509 13.3538 7.0083 13.5493C7.0083 13.7122 7.07473 13.9077 7.0083 14.0706C7.0083 14.2335 6.94187 14.3964 7.0083 14.5593C7.0083 14.7222 6.87544 14.8851 7.0083 15.0154C7.04152 15.1783 6.90866 15.3086 7.0083 15.4389C7.07473 15.5692 7.0083 15.6995 7.0083 15.8299C7.0083 15.9602 7.0083 16.0905 7.0083 16.1882C6.97509 17.2633 6.90866 17.8498 6.87544 17.8498C6.80902 17.8498 6.7758 17.1005 6.70937 15.7973C6.70937 15.667 6.64294 15.5367 6.70937 15.4063C6.70937 15.276 6.64294 15.1131 6.70937 14.9828C6.60973 14.8199 6.67616 14.6896 6.70937 14.5267C6.70937 14.3638 6.74259 14.2009 6.70937 14.038C6.64294 13.8751 6.74259 13.7122 6.70937 13.5167C6.7758 13.3538 6.74259 13.1584 6.70937 12.9629C6.7758 12.7674 6.70937 12.5719 6.70937 12.409C6.80902 12.2136 6.74259 12.0181 6.70937 11.8226C6.67616 11.6271 6.70937 11.4317 6.70937 11.2036C6.70937 11.0081 6.67616 10.7801 6.70937 10.552C6.67616 10.324 6.64294 10.1285 6.70937 9.90045C6.67616 9.6724 6.70937 9.44434 6.70937 9.21629C6.67616 8.98824 6.70937 8.76018 6.70937 8.53213C6.67616 8.30407 6.80902 8.07602 6.70937 7.81539C6.70937 7.58733 6.70937 7.3267 6.70937 7.09864C6.70937 6.87059 6.74259 6.60996 6.70937 6.34932C6.80902 6.08869 6.74259 5.86063 6.70937 5.6C6.67616 5.33937 6.70937 5.11131 6.70937 4.85068C6.70937 4.59005 6.70937 4.36199 6.70937 4.10136C6.70937 3.97104 6.70937 3.8733 6.70937 3.74299C6.70937 3.61267 6.70937 3.51493 6.70937 3.38462C6.70937 3.2543 6.70937 3.12398 6.74259 2.99367C6.74259 2.92851 6.7758 2.86335 6.7758 2.79819C6.7758 2.73303 6.80902 2.66787 6.80902 2.60272C6.84223 2.34208 6.94187 2.11403 7.07473 1.91855C7.10795 1.85339 7.14116 1.82081 7.17438 1.75566C7.20759 1.6905 7.24081 1.65792 7.27402 1.62534C7.34045 1.5276 7.40688 1.42986 7.47331 1.33213C7.27402 1.20181 7.30724 1.07149 7.40688 0.973756C7.44009 0.941177 7.47331 0.876018 7.53974 0.843439C7.57295 0.81086 7.63938 0.778281 7.70581 0.778281C7.73903 0.745701 7.80546 0.713122 7.83867 0.680543C7.87189 0.647964 7.93832 0.615385 8.00475 0.582805C8.07117 0.550226 8.10439 0.517647 8.17082 0.485068C8.23725 0.452489 8.27046 0.41991 8.30368 0.38733C8.37011 0.38733 8.43654 0.354751 8.46975 0.354751C8.53618 0.322172 8.5694 0.322172 8.63582 0.289593C8.66904 0.257014 8.73547 0.224434 8.76868 0.224434C8.83511 0.191855 8.86833 0.191855 8.93476 0.159276C9.16726 0.0941176 9.36655 0.0941176 9.56584 0.0289593C9.76512 -0.0361991 9.99763 0.0289593 10.1969 0.0289593C10.2633 0.0289593 10.2966 0.0289593 10.363 0.0289593C10.4294 0.0289593 10.4626 0.0615385 10.4958 0.0615385C10.5291 0.0615385 10.5955 0.0941177 10.6287 0.0941177C10.6619 0.0941177 10.7284 0.0941177 10.7616 0.0941177C10.9609 0.159276 11.1269 0.191855 11.293 0.257014C11.3594 0.257014 11.3926 0.257014 11.4259 0.257014C11.4591 0.257014 11.5255 0.289593 11.5587 0.322172C11.5919 0.354751 11.6251 0.38733 11.6584 0.419909C11.6916 0.452489 11.7248 0.485068 11.758 0.517647C11.7912 0.550226 11.8244 0.550226 11.8577 0.582805C11.8909 0.615385 11.9573 0.615385 11.9905 0.647964C12.0237 0.680543 12.0569 0.680543 12.0902 0.713122C12.1234 0.745701 12.1566 0.778281 12.1566 0.81086C12.3559 0.843439 12.4223 1.00633 12.4887 1.13665C12.5219 1.20181 12.5884 1.23439 12.6216 1.29955C12.688 1.36471 12.7212 1.39729 12.7544 1.46244C12.8209 1.49502 12.8541 1.56018 12.8873 1.62534C12.8873 1.65792 12.9205 1.6905 12.9205 1.72308C12.9205 1.75566 12.9537 1.78824 12.9537 1.82081C12.987 1.95113 13.0534 2.04887 13.0866 2.14661C13.153 2.24434 13.1862 2.34208 13.1862 2.43982C13.1862 2.4724 13.2195 2.53756 13.2195 2.57014C13.2195 2.60272 13.2527 2.66787 13.2527 2.70045C13.2859 2.96109 13.2859 3.15656 13.2859 3.28688C13.3191 3.41719 13.2859 3.48235 13.2859 3.48235Z" fill="#73523F"/>
<path d="M24.6121 3.48235C24.5789 3.48235 24.5789 3.41719 24.5457 3.28688C24.5125 3.15656 24.4792 2.96109 24.4128 2.73303C24.3796 2.66787 24.3464 2.57014 24.3132 2.50498C24.28 2.40724 24.2467 2.34208 24.1803 2.24434C24.1803 2.17919 24.1471 2.14661 24.0807 2.11403C24.0474 2.08145 24.0142 2.04887 24.0142 1.95113C23.981 1.85339 23.8814 1.75566 23.8149 1.65792C23.7153 1.56018 23.6821 1.42986 23.5492 1.36471C23.4828 1.33213 23.4496 1.29955 23.4164 1.23439C23.3832 1.16923 23.3499 1.10407 23.2503 1.10407C23.1174 1.03891 23.0178 0.941177 22.8849 0.876018C22.7853 0.745701 22.6192 0.713122 22.4531 0.680543C22.3203 0.550226 22.1542 0.517647 21.9881 0.550226C21.8553 0.38733 21.656 0.38733 21.4899 0.485068C21.3238 0.485068 21.1246 0.452489 20.9585 0.517647C20.7924 0.550226 20.5931 0.615385 20.427 0.647964C20.261 0.778281 20.0949 0.843439 19.8956 0.876018C19.7628 1.03891 19.5967 1.10407 19.3974 1.20181C19.2977 1.23439 19.2313 1.33213 19.1649 1.39729C19.0985 1.49502 19.032 1.56018 18.9656 1.62534C18.8327 1.78824 18.7331 1.98371 18.6335 2.14661C18.5006 2.3095 18.4009 2.50498 18.4009 2.73303C18.3677 2.96109 18.3677 3.15656 18.3013 3.38462C18.3345 3.48235 18.3677 3.61267 18.3345 3.74299C18.3345 3.8733 18.3013 3.97104 18.3013 4.10136C18.3013 4.32941 18.2681 4.59005 18.3013 4.85068C18.3013 5.11131 18.3345 5.33937 18.3013 5.6C18.2681 5.86063 18.2349 6.08869 18.3013 6.34932C18.3677 6.60996 18.2681 6.83801 18.3013 7.09864C18.2349 7.3267 18.3345 7.58733 18.3013 7.81539C18.3013 8.04344 18.2681 8.30407 18.3013 8.53213C18.3013 8.76018 18.3345 8.98824 18.3013 9.21629C18.4342 9.44434 18.2681 9.6724 18.3013 9.90045C18.2349 10.1285 18.3013 10.3566 18.3013 10.552C18.3345 10.7801 18.2349 10.9756 18.3013 11.2036C18.3013 11.3991 18.3345 11.6271 18.3013 11.8226C18.3677 12.0181 18.2349 12.2136 18.3013 12.409C18.3013 12.6045 18.3013 12.8 18.3013 12.9629C18.2017 13.1584 18.2681 13.3213 18.3013 13.5167C18.3013 13.6796 18.3677 13.8751 18.3013 14.038C18.3013 14.2009 18.2349 14.3638 18.3013 14.5267C18.3013 14.6896 18.1684 14.8525 18.3013 14.9828C18.3345 15.1457 18.2017 15.276 18.3013 15.4063C18.3677 15.5367 18.3013 15.667 18.3013 15.7973C18.3013 15.9276 18.3013 16.0579 18.3013 16.1557C18.2681 17.2308 18.2017 17.8172 18.1684 17.8172C18.102 17.8172 18.0688 17.0679 18.0024 15.7647C18.0024 15.6344 17.9359 15.5041 18.0024 15.3738C18.0024 15.2434 17.9359 15.0805 18.0024 14.9502C17.9027 14.7873 17.9692 14.657 18.0024 14.4941C18.0024 14.3312 18.0356 14.1683 18.0024 14.0054C17.9359 13.8425 18.0356 13.6796 18.0024 13.4842C18.0688 13.3213 18.0356 13.1258 18.0024 12.9303C18.0688 12.7348 18.0024 12.5394 18.0024 12.3765C18.102 12.181 18.0356 11.9855 18.0024 11.79C17.9692 11.5946 18.0024 11.3991 18.0024 11.171C18.0024 10.9756 17.9692 10.7475 18.0024 10.5195C17.9692 10.2914 17.9359 10.0959 18.0024 9.86787C17.9692 9.63982 18.0024 9.41177 18.0024 9.18371C17.9692 8.95566 18.0024 8.7276 18.0024 8.49955C17.9692 8.27149 18.102 8.04344 18.0024 7.78281C18.0024 7.55475 18.0024 7.29412 18.0024 7.06606C18.0024 6.83801 18.0356 6.57738 18.0024 6.31674C18.102 6.05611 18.0356 5.82805 18.0024 5.56742C17.9692 5.30679 18.0024 5.07873 18.0024 4.8181C18.0024 4.55747 18.0024 4.32941 18.0024 4.06878C18.0024 3.93846 18.0024 3.84072 18.0024 3.71041C18.0024 3.58009 18.0024 3.48235 18.0024 3.35204C18.0024 3.22172 18.0024 3.0914 18.0356 2.96109C18.0688 2.83077 18.102 2.70045 18.102 2.60272C18.1352 2.34208 18.2349 2.11403 18.3677 1.91855C18.4342 1.82081 18.5006 1.72308 18.567 1.62534C18.6335 1.5276 18.6999 1.42986 18.7663 1.33213C18.6002 1.20181 18.6667 1.07149 18.7331 0.973756C18.7995 0.876018 18.8992 0.81086 19.032 0.778281C19.0985 0.680543 19.2313 0.647964 19.331 0.582805C19.4306 0.517647 19.5302 0.485068 19.6299 0.38733C19.7628 0.38733 19.8624 0.322172 19.962 0.289593C20.0617 0.224434 20.1613 0.191855 20.261 0.159276C20.4935 0.0941176 20.6928 0.0941176 20.8921 0.0289593C21.0913 -0.0361991 21.3238 0.0289593 21.5231 0.0289593C21.6228 -0.00361991 21.7224 0.0289593 21.8221 0.0615385C21.9217 0.0941176 22.0214 0.126697 22.121 0.126697C22.3203 0.191855 22.4864 0.224434 22.6524 0.289593C22.7521 0.257014 22.8517 0.289593 22.9181 0.354751C22.9846 0.41991 23.051 0.485068 23.1174 0.517647C23.1839 0.582805 23.2503 0.615385 23.3499 0.647964C23.4164 0.680543 23.4828 0.745701 23.516 0.81086C23.7153 0.843439 23.7817 1.00633 23.8482 1.13665C23.9146 1.26697 24.0807 1.33213 24.1139 1.46244C24.2467 1.5276 24.2467 1.6905 24.3132 1.78824C24.3464 1.91855 24.4128 2.01629 24.446 2.11403C24.5125 2.21176 24.5457 2.3095 24.5457 2.40724C24.5789 2.50498 24.6121 2.60272 24.6121 2.70045C24.6453 2.96109 24.6453 3.15656 24.6453 3.28688C24.6453 3.41719 24.6453 3.48235 24.6121 3.48235Z" fill="#73523F"/>
<path d="M6.67616 7.1638C6.70937 7.1638 6.74259 7.45701 6.7758 8.01086C6.7758 8.1086 6.7758 8.20634 6.7758 8.30407C6.7758 8.40181 6.80902 8.53213 6.7758 8.62986C6.74259 8.76018 6.87544 8.85792 6.7758 8.98824V9.05339C6.7758 9.08597 6.7758 9.08597 6.7758 9.11855C6.7758 9.15113 6.7758 9.18371 6.80902 9.21629C6.80902 9.21629 6.80902 9.21629 6.84223 9.21629C6.94187 9.21629 6.97509 9.24887 7.14116 9.21629C7.30724 9.11855 7.44009 9.31403 7.60617 9.21629C7.77224 9.18371 7.93832 9.18371 8.1376 9.21629C8.30368 9.28145 8.50297 9.21629 8.66904 9.21629C8.86833 9.31403 9.0344 9.24887 9.23369 9.21629C9.43298 9.31403 9.63227 9.31403 9.83155 9.21629C10.0308 9.21629 10.2633 9.24887 10.4626 9.21629C10.6619 9.21629 10.8944 9.18371 11.1269 9.21629C11.3594 9.15113 11.5919 9.15113 11.8244 9.21629C12.0569 9.15113 12.2894 9.18371 12.5219 9.21629C12.7544 9.24887 13.0202 9.15113 13.2527 9.21629C13.4852 9.21629 13.7509 9.18371 14.0166 9.21629C14.2823 9.24887 14.5148 9.28145 14.7805 9.21629C15.0463 9.18371 15.312 9.18371 15.5777 9.21629C15.8434 9.11855 16.1091 9.18371 16.3749 9.21629C16.6406 9.21629 16.9063 9.24887 17.2052 9.21629C17.3381 9.21629 17.4709 9.21629 17.6038 9.21629H17.6702C17.7034 9.21629 17.7034 9.21629 17.7034 9.21629C17.7034 9.21629 17.7034 9.21629 17.7367 9.21629C17.7367 9.21629 17.7367 9.21629 17.7699 9.18371C17.7699 9.18371 17.7699 9.18371 17.7699 9.15113V9.05339C17.7699 8.92308 17.7699 8.79276 17.7367 8.66244C17.6702 8.40181 17.7699 8.14118 17.7367 7.84796C17.7367 7.78281 17.7699 7.75023 17.7699 7.68507C17.7699 7.65249 17.7699 7.61991 17.7699 7.61991V7.58733C17.7699 7.55475 17.7367 7.55475 17.7367 7.55475H17.637C17.5706 7.55475 17.5042 7.55475 17.4377 7.55475C17.3049 7.55475 17.172 7.55475 17.0391 7.55475C16.7734 7.55475 16.5409 7.58733 16.2752 7.55475C16.0095 7.68507 15.777 7.52217 15.5113 7.55475C15.2788 7.48959 15.013 7.55475 14.7805 7.55475C14.548 7.58733 14.3155 7.48959 14.083 7.55475C13.8505 7.55475 13.618 7.58733 13.3855 7.55475C13.153 7.61991 12.9537 7.48959 12.7212 7.55475C12.5219 7.55475 12.2894 7.55475 12.0902 7.55475C11.8909 7.45701 11.6916 7.52217 11.4923 7.55475C11.293 7.55475 11.0937 7.61991 10.9276 7.55475C10.7284 7.55475 10.5623 7.48959 10.3962 7.55475C10.2301 7.55475 10.0641 7.42444 9.89798 7.55475C9.73191 7.58733 9.56584 7.45701 9.39976 7.55475C9.23369 7.61991 9.10083 7.55475 8.96797 7.55475C8.83511 7.55475 8.70225 7.55475 8.5694 7.55475C7.34045 7.26154 6.67616 7.22896 6.67616 7.1638C6.67616 7.09864 7.50652 7.03348 8.93476 7.00091C9.06762 7.00091 9.23369 6.93575 9.36655 7.00091C9.53262 7.00091 9.6987 6.93575 9.86477 7.00091C10.0308 6.90317 10.1969 6.96833 10.363 7.00091C10.5291 7.00091 10.7284 7.03348 10.8944 7.00091C11.0937 6.93575 11.2598 7.03348 11.4591 7.00091C11.6584 7.06606 11.8577 7.03348 12.0569 7.00091C12.2562 7.06606 12.4887 7.00091 12.688 7.00091C12.8873 7.09864 13.1198 7.03348 13.3523 7.00091C13.5848 6.96833 13.8173 7.00091 14.0498 7.00091C14.2823 7.00091 14.5148 6.96833 14.7473 7.00091C14.9798 6.96833 15.2456 6.93575 15.4781 7.00091C15.7106 6.96833 15.9763 7.00091 16.242 7.00091C16.5077 6.96833 16.7402 7.00091 17.0059 7.00091C17.1388 7.00091 17.2716 7.00091 17.4045 7.03348C17.4709 7.03348 17.5374 7.03348 17.6038 7.03348H17.7034C17.7699 7.03348 17.8363 7.03348 17.9027 7.00091C18.0356 7.00091 18.1684 7.00091 18.3013 7.00091C18.3013 7.19638 18.3013 7.35928 18.3013 7.55475V7.71765C18.3013 7.75023 18.3013 7.81539 18.3013 7.88054C18.3013 8.14118 18.2681 8.40181 18.3013 8.69502C18.2681 8.69502 18.2681 8.82534 18.2681 8.95566C18.2681 9.18371 18.3013 9.41177 18.3013 9.63982C18.1684 9.63982 18.0356 9.63982 17.9027 9.63982H17.6038C17.4709 9.63982 17.3381 9.63982 17.2052 9.63982C16.9395 9.63982 16.6738 9.63982 16.3749 9.63982C16.1091 9.6724 15.8434 9.60724 15.5777 9.63982C15.312 9.6724 15.0463 9.60724 14.7805 9.63982C14.5148 9.6724 14.2823 9.6724 14.0166 9.63982C13.7509 9.63982 13.5184 9.54208 13.2527 9.63982C13.0202 9.6724 12.7544 9.77014 12.5219 9.63982C12.2894 9.6724 12.0569 9.57466 11.8244 9.63982C11.5919 9.54208 11.3594 9.63982 11.1269 9.63982C10.8944 9.60724 10.6951 9.60724 10.4626 9.63982C10.2633 9.6724 10.0308 9.60724 9.83155 9.63982C9.63227 9.70498 9.43298 9.57466 9.23369 9.63982C9.0344 9.63982 8.83511 9.63982 8.66904 9.63982C8.46975 9.77014 8.30368 9.63982 8.1376 9.63982C7.97153 9.60724 7.80546 9.73756 7.60617 9.63982C7.44009 9.73756 7.27402 9.63982 7.14116 9.63982C7.10795 9.63982 7.07473 9.63982 7.04152 9.63982C6.97509 9.63982 6.94187 9.63982 6.87544 9.63982C6.7758 9.63982 6.64294 9.63982 6.5433 9.63982C6.51008 9.63982 6.51008 9.63982 6.47687 9.63982C6.44365 9.47692 6.51008 9.21629 6.51008 9.08597C6.5433 8.95566 6.51008 8.82534 6.51008 8.7276C6.51008 8.59729 6.51008 8.49955 6.51008 8.40181C6.51008 8.30407 6.51008 8.20634 6.51008 8.1086C6.60973 7.45701 6.64294 7.1638 6.67616 7.1638Z" fill="#73523F"/>
<path d="M6.67616 11.562C6.64294 11.562 6.60973 11.2688 6.57651 10.7149C6.57651 10.6172 6.57651 10.5195 6.57651 10.4217C6.57651 10.324 6.5433 10.1937 6.57651 10.0959C6.60973 9.96561 6.47687 9.86787 6.57651 9.73756V9.70498C6.57651 9.6724 6.57651 9.6724 6.57651 9.63982C6.57651 9.60724 6.57651 9.54208 6.57651 9.5095C6.57651 9.41177 6.57651 9.31403 6.5433 9.21629H6.57651C6.7758 9.21629 7.04152 9.24887 7.17438 9.21629C7.34045 9.11855 7.47331 9.31403 7.63938 9.21629C7.80546 9.18371 7.97153 9.18371 8.17082 9.21629C8.33689 9.28145 8.53618 9.21629 8.70225 9.21629C8.90154 9.31403 9.06762 9.24887 9.2669 9.21629C9.46619 9.31403 9.66548 9.31403 9.86477 9.21629C10.0641 9.21629 10.2966 9.24887 10.4958 9.21629C10.6951 9.21629 10.9276 9.18371 11.1601 9.21629C11.3926 9.15113 11.6251 9.15113 11.8577 9.21629C12.0902 9.15113 12.3227 9.18371 12.5552 9.21629C12.7877 9.24887 13.0534 9.15113 13.2859 9.21629C13.5184 9.21629 13.7841 9.18371 14.0498 9.21629C14.3155 9.24887 14.548 9.28145 14.8138 9.21629C15.0795 9.18371 15.3452 9.18371 15.6109 9.21629C15.8766 9.11855 16.1423 9.18371 16.4081 9.21629C16.6738 9.21629 16.9395 9.24887 17.2384 9.21629C17.3713 9.21629 17.5042 9.21629 17.637 9.21629H17.7034H17.9692C18.102 9.21629 18.2349 9.21629 18.3345 9.21629C18.3345 9.34661 18.3345 9.47692 18.3013 9.60724C18.3013 9.70498 18.3013 9.80272 18.3013 9.90045C18.3013 10.0308 18.3013 10.1611 18.3345 10.2914C18.4009 10.552 18.3013 10.8127 18.3345 11.1059C18.3345 11.1385 18.3013 11.2036 18.3013 11.2362C18.3013 11.2688 18.3013 11.3014 18.3013 11.3014V11.3991C18.3013 11.562 18.3345 11.7575 18.3345 11.9529C18.2017 11.9529 18.0688 11.9529 17.9692 11.9529C17.9027 11.9529 17.8363 11.9529 17.8031 11.9529H17.7034C17.637 11.9529 17.5706 11.9529 17.5042 11.9529C17.3713 11.9529 17.2384 11.9529 17.1056 11.9529C16.8399 11.9529 16.6074 11.9855 16.3416 11.9529C16.0759 12.0833 15.8434 11.9204 15.5777 11.9529C15.3452 11.8878 15.0795 11.9529 14.847 11.9529C14.6145 11.9855 14.382 11.8878 14.1495 11.9529C13.917 11.9529 13.6845 11.9855 13.452 11.9529C13.2195 12.0181 13.0202 11.8878 12.7877 11.9529C12.5884 11.9529 12.3559 11.9529 12.1566 11.9529C11.9573 11.8552 11.758 11.9204 11.5587 11.9529C11.3594 11.9529 11.1601 12.0181 10.9941 11.9529C10.7948 11.9529 10.6287 11.8878 10.4626 11.9529C10.2966 11.9529 10.1305 11.8226 9.96441 11.9529C9.79834 11.9855 9.63227 11.8552 9.46619 11.9529C9.30012 12.0181 9.16726 11.9529 9.0344 11.9529C8.90154 11.9529 8.76868 11.9529 8.63582 11.9529C7.34045 11.6597 6.67616 11.5946 6.67616 11.562C6.67616 11.4968 7.50652 11.4317 8.93476 11.3991C9.06762 11.3991 9.23369 11.3339 9.36655 11.3991C9.53262 11.3991 9.6987 11.3339 9.86477 11.3991C10.0308 11.3014 10.1969 11.3665 10.363 11.3991C10.5291 11.3991 10.7284 11.4317 10.8944 11.3991C11.0937 11.3339 11.2598 11.4317 11.4591 11.3991C11.6584 11.4643 11.8577 11.4317 12.0569 11.3991C12.2562 11.4643 12.4887 11.3991 12.688 11.3991C12.8873 11.4968 13.1198 11.4317 13.3523 11.3991C13.5848 11.3665 13.8173 11.3991 14.0498 11.3991C14.2823 11.3991 14.5148 11.3665 14.7473 11.3991C14.9798 11.3665 15.2123 11.3339 15.4781 11.3991C15.7106 11.3665 15.9763 11.3991 16.242 11.3991C16.5077 11.3665 16.7402 11.3991 17.0059 11.3991C17.1388 11.3991 17.2716 11.3991 17.4045 11.4317C17.4709 11.4317 17.5374 11.4317 17.6038 11.4317H17.6702C17.6702 11.4317 17.6702 11.4317 17.6702 11.3991C17.6702 11.3991 17.6702 11.3991 17.7034 11.3991V11.2688C17.7034 11.2362 17.7034 11.171 17.7034 11.1385C17.7034 10.8778 17.7367 10.6172 17.7034 10.324C17.7367 10.1937 17.7699 10.0633 17.7367 9.93303V9.83529C17.7367 9.83529 17.7367 9.83529 17.7367 9.80272H17.6038C17.4709 9.80272 17.3381 9.80272 17.2052 9.80272C16.9395 9.80272 16.6738 9.80272 16.3749 9.80272C16.1091 9.83529 15.8434 9.77014 15.5777 9.80272C15.312 9.83529 15.0463 9.77014 14.7805 9.80272C14.5148 9.83529 14.2823 9.83529 14.0166 9.80272C13.7509 9.80272 13.5184 9.70498 13.2527 9.80272C13.0202 9.83529 12.7544 9.93303 12.5219 9.80272C12.2894 9.83529 12.0569 9.73756 11.8244 9.80272C11.5919 9.70498 11.3594 9.80272 11.1269 9.80272C10.8944 9.77014 10.6951 9.77014 10.4626 9.80272C10.2633 9.83529 10.0308 9.77014 9.83155 9.80272C9.63227 9.86787 9.43298 9.73756 9.23369 9.80272C9.0344 9.80272 8.83511 9.80272 8.66904 9.80272C8.46975 9.93303 8.30368 9.80272 8.1376 9.80272C7.97153 9.77014 7.80546 9.90045 7.60617 9.80272C7.4401 9.90045 7.27402 9.80272 7.14116 9.80272C7.10795 9.80272 7.07473 9.80272 7.04152 9.80272H6.97509C6.94187 9.80272 6.90866 9.80272 6.87544 9.80272C6.90866 9.90045 6.84223 9.86787 6.84223 9.99819C6.80902 10.1285 6.84223 10.2588 6.84223 10.3566C6.84223 10.4869 6.84223 10.5846 6.84223 10.6824C6.84223 10.7801 6.84223 10.8778 6.84223 10.9756C6.74259 11.2688 6.70937 11.562 6.67616 11.562Z" fill="#73523F"/>
<path d="M6.67616 11.562C6.70937 11.562 6.74259 11.8552 6.7758 12.409C6.7758 12.5068 6.7758 12.6045 6.7758 12.7023C6.7758 12.8 6.80902 12.9303 6.7758 13.0281C6.74259 13.1584 6.87544 13.2561 6.7758 13.3864V13.4516C6.7758 13.4842 6.7758 13.4842 6.7758 13.5167C6.7758 13.5493 6.7758 13.5819 6.80902 13.6145C6.80902 13.6145 6.80902 13.6145 6.84223 13.6145C6.94187 13.6145 6.97509 13.6471 7.14116 13.6145C7.30724 13.5167 7.44009 13.7122 7.60617 13.6145C7.77224 13.5819 7.93832 13.5819 8.1376 13.6145C8.30368 13.6796 8.50297 13.6145 8.66904 13.6145C8.86833 13.7122 9.0344 13.6471 9.23369 13.6145C9.43298 13.7122 9.63227 13.7122 9.83155 13.6145C10.0308 13.6145 10.2633 13.6471 10.4626 13.6145C10.6619 13.6145 10.8944 13.5819 11.1269 13.6145C11.3594 13.5493 11.5919 13.5493 11.8244 13.6145C12.0569 13.5493 12.2894 13.5819 12.5219 13.6145C12.7544 13.6471 13.0202 13.5493 13.2527 13.6145C13.4852 13.6145 13.7509 13.5819 14.0166 13.6145C14.2823 13.6471 14.5148 13.6796 14.7805 13.6145C15.0463 13.5819 15.312 13.5819 15.5777 13.6145C15.8434 13.5167 16.1091 13.5819 16.3749 13.6145C16.6406 13.6145 16.9063 13.6471 17.2052 13.6145C17.3381 13.6145 17.4709 13.6145 17.6038 13.6145H17.6702C17.7034 13.6145 17.7034 13.6145 17.7034 13.6145C17.7034 13.6145 17.7034 13.6145 17.7367 13.6145C17.7367 13.6145 17.7367 13.6145 17.7699 13.5819C17.7699 13.5819 17.7699 13.5819 17.7699 13.5493V13.4516C17.7699 13.3213 17.7699 13.1909 17.7367 13.0606C17.6702 12.8 17.7699 12.5394 17.7367 12.2462C17.7367 12.2136 17.7699 12.1484 17.7699 12.1158C17.7699 12.0833 17.7699 12.0833 17.7699 12.0507V12.0181C17.7699 11.9855 17.7367 11.9855 17.7367 11.9855H17.637C17.5706 11.9855 17.5042 11.9855 17.4377 11.9855C17.3049 11.9855 17.172 11.9855 17.0391 11.9855C16.7734 11.9855 16.5409 12.0181 16.2752 11.9855C16.0095 12.1158 15.777 11.9529 15.5113 11.9855C15.2788 11.9204 15.013 11.9855 14.7805 11.9855C14.548 12.0181 14.3155 11.9204 14.083 11.9855C13.8505 11.9855 13.618 12.0181 13.3855 11.9855C13.153 12.0507 12.9537 11.9204 12.7212 11.9855C12.5219 11.9855 12.2894 11.9855 12.0902 11.9855C11.8909 11.8878 11.6916 11.9529 11.4923 11.9855C11.293 11.9855 11.0937 12.0507 10.9276 11.9855C10.7284 11.9855 10.5623 11.9204 10.3962 11.9855C10.2301 11.9855 10.0641 11.8552 9.89798 11.9855C9.73191 12.0181 9.56584 11.8878 9.39976 11.9855C9.23369 12.0507 9.10083 11.9855 8.96797 11.9855C8.83511 11.9855 8.70225 11.9855 8.5694 11.9855C7.34045 11.6597 6.67616 11.5946 6.67616 11.562C6.67616 11.4968 7.50652 11.4317 8.93476 11.3991C9.06762 11.3991 9.23369 11.3339 9.36655 11.3991C9.53262 11.3991 9.6987 11.3339 9.86477 11.3991C10.0308 11.3014 10.1969 11.3665 10.363 11.3991C10.5291 11.3991 10.7284 11.4317 10.8944 11.3991C11.0937 11.3339 11.2598 11.4317 11.4591 11.3991C11.6584 11.4643 11.8577 11.4317 12.0569 11.3991C12.2562 11.4643 12.4887 11.3991 12.688 11.3991C12.8873 11.4968 13.1198 11.4317 13.3523 11.3991C13.5848 11.3665 13.8173 11.3991 14.0498 11.3991C14.2823 11.3991 14.5148 11.3665 14.7473 11.3991C14.9798 11.3665 15.2123 11.3339 15.4781 11.3991C15.7106 11.3665 15.9763 11.3991 16.242 11.3991C16.5077 11.3665 16.7402 11.3991 17.0059 11.3991C17.1388 11.3991 17.2716 11.3991 17.4045 11.4317C17.4709 11.4317 17.5374 11.4317 17.6038 11.4317H17.6702L17.7034 11.4317C17.7699 11.4317 17.8363 11.4317 17.9027 11.3991C18.0356 11.3991 18.1684 11.3991 18.3013 11.3991C18.3013 11.5946 18.3013 11.7575 18.3013 11.9529V12.1158C18.3013 12.1484 18.3013 12.2136 18.3013 12.2462C18.3013 12.5068 18.2681 12.7674 18.3013 13.0606C18.2681 13.0932 18.2681 13.2235 18.2681 13.3538C18.2681 13.5819 18.3013 13.81 18.3013 14.038C18.1684 14.038 18.0356 14.038 17.9027 14.038H17.5706C17.4377 14.038 17.3049 14.038 17.172 14.038C16.9063 14.038 16.6406 14.038 16.3416 14.038C16.0759 14.0706 15.8102 14.0054 15.5445 14.038C15.2788 14.0706 15.013 14.0054 14.7473 14.038C14.4816 14.0706 14.2491 14.0706 13.9834 14.038C13.7177 14.038 13.4852 13.9403 13.2195 14.038C12.987 14.0706 12.7212 14.1683 12.4887 14.038C12.2562 14.0706 12.0237 13.9728 11.7912 14.038C11.5587 13.9403 11.3262 14.038 11.0937 14.038C10.8612 14.0054 10.6619 13.9728 10.4294 14.038C10.2301 14.0706 9.99763 14.0054 9.79834 14.038C9.59905 14.1032 9.39976 13.9728 9.20047 14.038C9.00119 14.038 8.8019 14.038 8.63582 14.038C8.43654 14.1683 8.27046 14.038 8.10439 14.038C7.93832 14.0054 7.77224 14.1357 7.57295 14.038C7.40688 14.1357 7.24081 14.038 7.10795 14.038C7.07473 14.038 7.04152 14.038 7.0083 14.038C6.94187 14.038 6.90866 14.038 6.84223 14.038C6.74259 14.038 6.60973 14.038 6.51008 14.038C6.47687 14.038 6.47687 14.038 6.44365 14.038C6.41044 13.8751 6.47687 13.6145 6.47687 13.4842C6.51008 13.3538 6.47687 13.2235 6.47687 13.1258C6.47687 12.9955 6.47687 12.8977 6.47687 12.8C6.47687 12.7023 6.47687 12.6045 6.47687 12.5068C6.60973 11.8552 6.64294 11.562 6.67616 11.562Z" fill="#73523F"/>
<path d="M6.67616 15.9602C6.64294 15.9602 6.60973 15.667 6.57651 15.1131C6.57651 15.0154 6.57651 14.9176 6.57651 14.8199C6.57651 14.7222 6.5433 14.5919 6.57651 14.4941C6.60973 14.3638 6.47687 14.2661 6.57651 14.1357V14.1032C6.57651 14.0706 6.57651 14.0706 6.57651 14.038C6.57651 14.0054 6.57651 13.9403 6.57651 13.9077C6.57651 13.81 6.57651 13.7122 6.5433 13.6145H6.57651C6.7758 13.6145 7.04152 13.6471 7.17438 13.6145C7.34045 13.5167 7.47331 13.7122 7.63938 13.6145C7.80546 13.5819 7.97153 13.5819 8.17082 13.6145C8.33689 13.6796 8.53618 13.6145 8.70225 13.6145C8.90154 13.7122 9.06762 13.6471 9.2669 13.6145C9.46619 13.7122 9.66548 13.7122 9.86477 13.6145C10.0641 13.6145 10.2966 13.6471 10.4958 13.6145C10.6951 13.6145 10.9276 13.5819 11.1601 13.6145C11.3926 13.5493 11.6251 13.5493 11.8577 13.6145C12.0902 13.5493 12.3227 13.5819 12.5552 13.6145C12.7877 13.6471 13.0534 13.5493 13.2859 13.6145C13.5184 13.6145 13.7841 13.5819 14.0498 13.6145C14.3155 13.6471 14.548 13.6796 14.8138 13.6145C15.0795 13.5819 15.3452 13.5819 15.6109 13.6145C15.8766 13.5167 16.1423 13.5819 16.4081 13.6145C16.6738 13.6145 16.9395 13.6471 17.2384 13.6145C17.3713 13.6145 17.5042 13.6145 17.637 13.6145H17.7034H17.9692C18.102 13.6145 18.2349 13.6145 18.3345 13.6145C18.3345 13.7448 18.3345 13.8751 18.3013 14.0054C18.3013 14.1032 18.3013 14.2009 18.3013 14.2986C18.3013 14.429 18.3013 14.5593 18.3345 14.6896C18.4009 14.9502 18.3013 15.2109 18.3345 15.5041C18.3345 15.5692 18.3013 15.6018 18.3013 15.667C18.3013 15.6995 18.3013 15.6995 18.3013 15.7321V15.8299C18.3013 15.9928 18.3345 16.1882 18.3345 16.3837C18.2017 16.3837 18.0688 16.3837 17.9692 16.3837C17.9027 16.3837 17.8363 16.3837 17.8031 16.3837H17.7034C17.637 16.3837 17.5706 16.3837 17.5042 16.3837C17.3713 16.3837 17.2384 16.3837 17.1056 16.3837C16.8399 16.3837 16.6074 16.4163 16.3416 16.3837C16.0759 16.514 15.8434 16.3511 15.5777 16.3837C15.3452 16.3186 15.0795 16.3837 14.847 16.3837C14.6145 16.4163 14.382 16.3186 14.1495 16.3837C13.917 16.3837 13.6845 16.4163 13.452 16.3837C13.2195 16.4489 13.0202 16.3186 12.7877 16.3837C12.5884 16.3837 12.3559 16.3837 12.1566 16.3837C11.9573 16.286 11.758 16.3837 11.5587 16.3837C11.3594 16.3837 11.1601 16.4489 10.9941 16.3837C10.7948 16.3837 10.6287 16.3186 10.4626 16.3837C10.2966 16.3837 10.1305 16.2534 9.96441 16.3837C9.79834 16.4163 9.63227 16.286 9.46619 16.3837C9.30012 16.4489 9.16726 16.3837 9.0344 16.3837C8.90154 16.3837 8.76868 16.3837 8.63582 16.3837C7.34045 16.0579 6.67616 15.9928 6.67616 15.9602C6.67616 15.895 7.50652 15.8299 8.93476 15.7973C9.06762 15.7973 9.23369 15.7321 9.36655 15.7973C9.53262 15.7973 9.6987 15.7321 9.86477 15.7973C10.0308 15.6995 10.1969 15.7647 10.363 15.7973C10.5291 15.7973 10.7284 15.8299 10.8944 15.7973C11.0937 15.7321 11.2598 15.8299 11.4591 15.7973C11.6584 15.8624 11.8577 15.8299 12.0569 15.7973C12.2562 15.8624 12.4887 15.7973 12.688 15.7973C12.8873 15.895 13.1198 15.8299 13.3523 15.7973C13.5848 15.7647 13.8173 15.7973 14.0498 15.7973C14.2823 15.7973 14.5148 15.7647 14.7473 15.7973C14.9798 15.7647 15.2456 15.7321 15.4781 15.7973C15.7106 15.7647 15.9763 15.7973 16.242 15.7973C16.5077 15.7647 16.7402 15.7973 17.0059 15.7973C17.1388 15.7973 17.2716 15.7973 17.4045 15.8299C17.4709 15.8299 17.5374 15.8299 17.6038 15.8299H17.6702C17.6702 15.8299 17.6702 15.8299 17.6702 15.7973C17.6702 15.7973 17.6702 15.7973 17.7034 15.7973V15.667C17.7034 15.6018 17.7034 15.5692 17.7034 15.5041C17.7034 15.2434 17.7367 14.9828 17.7034 14.6896C17.7367 14.5593 17.7699 14.429 17.7367 14.2986V14.2009C17.7367 14.2009 17.7367 14.2009 17.7367 14.1683H17.5706C17.4377 14.1683 17.3049 14.1683 17.172 14.1683C16.9063 14.1683 16.6406 14.1683 16.3416 14.1683C16.0759 14.2009 15.8102 14.1357 15.5445 14.1683C15.2788 14.2009 15.013 14.1357 14.7473 14.1683C14.4816 14.2009 14.2491 14.2009 13.9834 14.1683C13.7177 14.1683 13.4852 14.0706 13.2195 14.1683C12.987 14.2009 12.7212 14.2986 12.4887 14.1683C12.2562 14.2009 12.0237 14.1032 11.7912 14.1683C11.5587 14.0706 11.3262 14.1683 11.0937 14.1683C10.8612 14.1357 10.6619 14.1032 10.4294 14.1683C10.2301 14.2009 9.99763 14.1357 9.79834 14.1683C9.59905 14.2335 9.39976 14.1032 9.20047 14.1683C9.00119 14.1683 8.8019 14.1683 8.63582 14.1683C8.43654 14.2986 8.27046 14.1683 8.10439 14.1683C7.93832 14.1357 7.77224 14.2661 7.57295 14.1683C7.40688 14.2661 7.24081 14.1683 7.10795 14.1683C7.07473 14.1683 7.04152 14.1683 7.0083 14.1683H6.94187C6.90866 14.1683 6.87545 14.1683 6.84223 14.1683C6.87545 14.2661 6.80902 14.2335 6.80902 14.3638C6.7758 14.4941 6.80902 14.6244 6.80902 14.7222C6.80902 14.8525 6.80902 14.9502 6.80902 15.048C6.80902 15.1457 6.80902 15.2434 6.80902 15.3412C6.74259 15.667 6.70937 15.9602 6.67616 15.9602Z" fill="#73523F"/>
<path d="M24.7117 16.8398C24.7117 16.8398 24.7117 16.8724 24.745 16.905C24.745 16.9376 24.745 17.0027 24.7117 17.0679C24.6785 17.133 24.6453 17.2308 24.5457 17.2959C24.4792 17.3611 24.3464 17.4262 24.2135 17.4914C24.1139 17.524 24.0474 17.5566 23.9478 17.5891C23.8482 17.6217 23.7485 17.6543 23.6157 17.6543C23.4828 17.6217 23.3832 17.7846 23.2503 17.7195C23.1174 17.7195 22.9846 17.752 22.8517 17.752C22.7189 17.7846 22.586 17.752 22.4199 17.7846C22.2871 17.8824 22.121 17.7195 21.9549 17.8172C21.7888 17.8498 21.6228 17.8498 21.4567 17.8824C21.2906 17.8172 21.1246 17.9149 20.9253 17.9475C20.726 17.8824 20.5599 17.9149 20.3606 17.9801C20.1613 17.8824 19.962 17.9149 19.796 18.0127C19.5967 18.0127 19.3974 17.9801 19.1981 18.0452C18.9988 18.0452 18.7663 18.0778 18.567 18.0452C18.4674 18.0778 18.3345 18.1104 18.2349 18.1104C18.1352 18.1104 18.0024 18.0778 17.9027 18.0452C17.8031 18.0778 17.6702 18.0778 17.5706 18.0778C17.4709 18.0778 17.3381 18.0452 17.2384 18.0127C17.1388 17.9801 17.0059 17.9801 16.8731 17.9801C16.7402 17.9801 16.6406 17.9801 16.5077 17.9149C16.3749 17.8824 16.2752 17.8824 16.1423 17.8498C16.0759 17.8498 16.0095 17.8172 15.9763 17.8172L15.9431 17.7846C15.9098 17.7846 15.8766 17.7846 15.8766 17.752C15.6773 17.6869 15.4448 17.6543 15.2123 17.7195C14.9798 17.752 14.7473 17.8172 14.5148 17.8172C14.2823 17.9475 14.0498 17.9801 13.7841 17.9801C13.5184 18.0452 13.2527 18.0452 12.987 18.1104C12.8541 18.1104 12.7212 18.143 12.5884 18.143C12.5219 18.143 12.4555 18.143 12.3891 18.143C12.3227 18.143 12.2562 18.143 12.1898 18.1104C11.8909 18.0452 11.6251 17.9801 11.3262 17.8824C11.2598 17.8498 11.1934 17.8498 11.1269 17.7846C11.0937 17.752 11.0605 17.752 11.0273 17.7195C10.9941 17.6869 10.9609 17.6869 10.9276 17.6543L10.7948 17.524C10.7616 17.4914 10.6951 17.4588 10.6619 17.4262C10.5955 17.3285 10.4626 17.2959 10.363 17.2959C10.2633 17.2633 10.1305 17.2633 10.0308 17.2308C9.79834 17.1982 9.56584 17.133 9.33333 17.1982C9.10083 17.2308 8.86833 17.2633 8.63582 17.2959C8.53618 17.3937 8.43654 17.3937 8.30368 17.3937C8.20403 17.3937 8.07117 17.3937 7.97153 17.4588C7.73903 17.4914 7.53974 17.6217 7.34045 17.6869C7.30724 17.7195 7.24081 17.752 7.20759 17.752C7.17438 17.752 7.17438 17.7846 7.14116 17.7846L7.04152 17.9149C6.90866 17.9475 6.80902 17.9801 6.67616 18.0452C6.44365 18.1104 6.21115 18.1756 5.97865 18.143C5.879 18.1756 5.74614 18.1756 5.6465 18.143C5.54686 18.143 5.44721 18.1104 5.31435 18.1104C5.11507 18.1104 4.88256 18.0778 4.68327 18.0452C4.48399 17.9149 4.2847 17.9801 4.11862 17.9475C3.91934 17.9149 3.72005 17.9149 3.58719 17.8172C3.42112 17.752 3.25504 17.6869 3.08897 17.6869C2.92289 17.6543 2.82325 17.4588 2.62396 17.524C2.45789 17.4914 2.35824 17.3285 2.19217 17.3611C2.0261 17.3937 1.92645 17.2633 1.79359 17.1982C1.66074 17.133 1.56109 17.1005 1.42823 17.0353C0.930012 16.8072 0.531435 16.5792 0.298932 16.3837C0.166074 16.286 0.0996441 16.1882 0.0664294 16.1231C0 16.0579 0 16.0253 0 16.0253C0 16.0253 0.0332147 16.0579 0.0996441 16.1231C0.166074 16.1882 0.265718 16.2534 0.431791 16.3511C0.730724 16.514 1.22894 16.7421 1.86002 16.9701C1.99288 17.0027 2.12574 17.0027 2.2586 17.1005C2.39146 17.133 2.55753 17.133 2.69039 17.2308C2.85647 17.1982 2.98932 17.2959 3.1554 17.3611C3.32147 17.3937 3.48754 17.4588 3.65362 17.4914C3.81969 17.4914 3.98577 17.5891 4.18505 17.5891C4.35113 17.6869 4.55042 17.6869 4.7497 17.6869C4.94899 17.752 5.14828 17.7195 5.34757 17.752C5.54686 17.8498 5.74614 17.7846 5.94543 17.752C6.14472 17.7195 6.34401 17.7195 6.5433 17.6543C6.64294 17.6217 6.74259 17.5891 6.80902 17.5566C6.84223 17.524 6.90866 17.4914 6.94187 17.4914C7.0083 17.4588 7.04152 17.4262 7.10795 17.4262C7.30724 17.2959 7.53974 17.1982 7.77224 17.1656C8.00474 17.0679 8.23725 17.0027 8.50297 16.9701C8.73547 16.8724 9.00119 16.8724 9.2669 16.8724C9.39976 16.8724 9.53262 16.8724 9.66548 16.905C9.79834 16.9376 9.9312 16.9376 10.0641 16.905C10.1969 16.905 10.3298 16.9701 10.4626 17.0027C10.5955 17.0353 10.7284 17.1005 10.8612 17.1656C10.9276 17.1982 10.9941 17.2308 11.0605 17.2959L11.1601 17.3611L11.2266 17.4262C11.2598 17.4588 11.2598 17.4588 11.293 17.4588L11.3594 17.4914C11.3926 17.524 11.4591 17.524 11.5255 17.5566C11.5587 17.5891 11.6251 17.6217 11.6584 17.6543C11.7248 17.6869 11.758 17.6869 11.8244 17.7195C11.8909 17.7195 11.9241 17.752 11.9905 17.752C12.0569 17.752 12.1234 17.752 12.1566 17.752C12.3891 17.752 12.6216 17.752 12.8873 17.752C13.1198 17.7195 13.3855 17.6869 13.618 17.6217C13.8505 17.5566 14.1163 17.5566 14.382 17.4588C14.6145 17.3611 14.8802 17.3937 15.1459 17.3611C15.4116 17.3285 15.6773 17.2959 15.9431 17.3937C15.9763 17.3937 16.0095 17.3937 16.0427 17.4262C16.0759 17.4262 16.1091 17.4588 16.1091 17.4588C16.1756 17.4914 16.2088 17.4914 16.2752 17.524C16.3749 17.5566 16.5077 17.5891 16.6074 17.5566C16.707 17.5566 16.8399 17.5566 16.9395 17.5566C17.0391 17.5566 17.172 17.5891 17.2716 17.6543C17.3713 17.6543 17.5042 17.6869 17.6038 17.6869C17.7034 17.7195 17.8363 17.7195 17.9359 17.6869C18.0356 17.752 18.1352 17.752 18.2681 17.752C18.3677 17.752 18.4674 17.7195 18.6002 17.7195C18.7995 17.752 19.032 17.7846 19.2313 17.7195C19.4306 17.6869 19.6299 17.7195 19.8292 17.7195C20.0285 17.6543 20.2278 17.7846 20.3938 17.6869C20.5931 17.6869 20.7592 17.6543 20.9253 17.6543C21.0913 17.524 21.2574 17.6217 21.4567 17.6217C21.6228 17.6217 21.7888 17.524 21.9549 17.5891C22.121 17.4914 22.2539 17.5566 22.4199 17.5566C22.5528 17.5891 22.7189 17.4914 22.8517 17.5566C22.9846 17.4914 23.1174 17.5566 23.2503 17.524C23.3832 17.5566 23.4828 17.4914 23.5824 17.4914C23.6821 17.4588 23.7817 17.4588 23.8814 17.4588C23.981 17.4262 24.0474 17.4262 24.1471 17.3937C24.28 17.3611 24.3796 17.3285 24.446 17.2633C24.5125 17.2308 24.5789 17.1656 24.6121 17.1005C24.6785 16.905 24.6785 16.8398 24.7117 16.8398Z" fill="#73523F"/>
<path d="M24.7117 18.6643C24.7117 18.6643 24.7117 18.6968 24.745 18.7294C24.745 18.762 24.745 18.8272 24.7117 18.8923C24.6785 18.9575 24.6453 19.0552 24.5457 19.1204C24.4792 19.1855 24.3464 19.2507 24.2135 19.3158C24.1139 19.3484 24.0474 19.381 23.9478 19.4136C23.8482 19.4462 23.7485 19.4787 23.6157 19.4787C23.4828 19.4462 23.3832 19.6091 23.2503 19.5439C23.1174 19.5439 22.9846 19.5765 22.8517 19.5765C22.7189 19.609 22.586 19.5765 22.4199 19.6091C22.2871 19.7068 22.121 19.5439 21.9549 19.6416C21.7888 19.6742 21.6228 19.6742 21.4567 19.7068C21.2906 19.6416 21.1246 19.7394 20.9253 19.7719C20.726 19.7068 20.5599 19.7394 20.3606 19.8045C20.1613 19.7068 19.962 19.7394 19.796 19.8371C19.5967 19.8371 19.3974 19.8045 19.1981 19.8697C18.9988 19.8697 18.7663 19.9023 18.567 19.8697C18.4674 19.9023 18.3345 19.9348 18.2349 19.9348C18.1352 19.9348 18.0024 19.9023 17.9027 19.8697C17.8031 19.9023 17.6702 19.9023 17.5706 19.9023C17.4709 19.9023 17.3381 19.8697 17.2384 19.8371C17.1388 19.8045 17.0059 19.8045 16.8731 19.8045C16.7402 19.8045 16.6406 19.8045 16.5077 19.7394C16.3749 19.7068 16.2752 19.7068 16.1423 19.6742C16.0759 19.6742 16.0095 19.6416 15.9763 19.6416H15.9431C15.9098 19.6416 15.8766 19.6416 15.8766 19.6091C15.6773 19.5439 15.4448 19.5113 15.2123 19.5765C14.9798 19.609 14.7473 19.6742 14.5148 19.6742C14.2823 19.8045 14.0498 19.8371 13.7841 19.8371C13.5184 19.9023 13.2527 19.9023 12.987 19.9674C12.8541 19.9674 12.7212 20 12.5552 20C12.4887 20 12.4223 20 12.3559 20C12.2894 20 12.223 20 12.1566 19.9674C11.8577 19.9023 11.5919 19.8371 11.293 19.7394C11.2266 19.7068 11.1601 19.7068 11.0937 19.6416C11.0605 19.609 11.0273 19.609 10.9941 19.5765C10.9609 19.5439 10.9276 19.5439 10.8944 19.5113L10.7616 19.381C10.7284 19.3484 10.6619 19.3158 10.6287 19.2833C10.5623 19.1855 10.4294 19.1529 10.3298 19.1529C10.2301 19.1204 10.0973 19.1204 9.99763 19.0878C9.76512 19.0552 9.53262 18.99 9.30012 19.0552C9.06762 19.0878 8.83511 19.1204 8.60261 19.1529C8.50296 19.2507 8.40332 19.2507 8.27046 19.2507C8.17082 19.2507 8.03796 19.2507 7.93832 19.3158C7.70581 19.3484 7.50652 19.4787 7.30724 19.5439C7.27402 19.5765 7.20759 19.6091 7.17438 19.6091C7.14116 19.6091 7.14116 19.6416 7.10795 19.6416L7.0083 19.6742C6.87544 19.7068 6.7758 19.7394 6.64294 19.8045C6.41044 19.8697 6.17794 19.9348 5.94543 19.9023C5.84579 19.9348 5.71293 19.9348 5.61329 19.9023C5.51364 19.8697 5.414 19.8697 5.28114 19.8697C5.08185 19.8697 4.84935 19.8371 4.65006 19.8045C4.45077 19.6742 4.25148 19.7394 4.08541 19.7068C3.88612 19.6742 3.68683 19.6742 3.55397 19.5765C3.3879 19.5113 3.22183 19.4462 3.05575 19.4462C2.88968 19.4136 2.79004 19.2181 2.59075 19.2833C2.42467 19.2507 2.32503 19.0878 2.15896 19.1204C1.99288 19.1529 1.89324 19.0226 1.76038 18.9575C1.66074 18.99 1.52788 18.9575 1.42823 18.8923C0.930012 18.6643 0.531435 18.4362 0.298932 18.2407C0.166074 18.143 0.0996441 18.0452 0.0664294 17.9801C0 17.8824 0 17.8498 0 17.8498C0 17.8498 0.0332147 17.8824 0.0996441 17.9475C0.166074 18.0127 0.265718 18.0778 0.431791 18.1756C0.730724 18.3385 1.22894 18.5665 1.86002 18.7946C1.99288 18.8272 2.12574 18.8271 2.2586 18.9249C2.39146 18.9575 2.55753 18.9575 2.69039 19.0552C2.85647 19.0226 2.98932 19.1204 3.1554 19.1855C3.32147 19.2181 3.48754 19.2833 3.65362 19.3158C3.81969 19.3158 3.98577 19.4136 4.18505 19.4136C4.35113 19.5113 4.55042 19.5113 4.7497 19.5113C4.94899 19.5765 5.14828 19.5439 5.34757 19.5765C5.54686 19.6742 5.74614 19.609 5.94543 19.5765C6.14472 19.5439 6.34401 19.5439 6.5433 19.4787C6.64294 19.4462 6.74259 19.4136 6.80902 19.381C6.84223 19.3484 6.90866 19.3158 6.94187 19.3158C7.0083 19.2833 7.04152 19.2507 7.10795 19.2507C7.30724 19.1204 7.53974 19.0226 7.77224 18.99C8.00474 18.8923 8.23725 18.8272 8.50297 18.7946C8.73547 18.6968 9.00119 18.6968 9.2669 18.6968C9.39976 18.6968 9.53262 18.6968 9.66548 18.7294C9.79834 18.762 9.9312 18.762 10.0641 18.7294C10.1969 18.7294 10.3298 18.762 10.4626 18.8271C10.5955 18.8597 10.7284 18.9249 10.8612 18.99C10.9276 19.0226 10.9941 19.0552 11.0605 19.1204L11.1601 19.1855L11.2266 19.2507C11.2598 19.2833 11.2598 19.2833 11.293 19.3158L11.3594 19.3484C11.3926 19.381 11.4591 19.381 11.5255 19.4136C11.5587 19.4462 11.6251 19.4787 11.6584 19.5113C11.7248 19.5439 11.758 19.5439 11.8244 19.5765C11.8909 19.5765 11.9573 19.6091 11.9905 19.6091C12.0569 19.6091 12.1234 19.6091 12.1566 19.6091C12.3891 19.6091 12.6216 19.6091 12.8873 19.6091C13.1198 19.5765 13.3855 19.5439 13.618 19.4787C13.8505 19.4136 14.1163 19.4136 14.382 19.3158C14.6145 19.2181 14.8802 19.2507 15.1459 19.2181C15.4116 19.1855 15.6773 19.1529 15.9431 19.2507C15.9763 19.2507 16.0095 19.2507 16.0427 19.2833C16.0759 19.2833 16.1091 19.3158 16.1091 19.3158C16.1756 19.3484 16.2088 19.3484 16.2752 19.381C16.3749 19.4136 16.5077 19.4462 16.6074 19.4136C16.707 19.4136 16.8399 19.4136 16.9395 19.4136C17.0391 19.4136 17.172 19.4462 17.2716 19.5113C17.3713 19.5113 17.5042 19.5439 17.6038 19.5439C17.7034 19.5765 17.8363 19.5765 17.9359 19.5439C18.0356 19.6091 18.1352 19.6091 18.2681 19.6091C18.3677 19.6091 18.4674 19.5765 18.6002 19.5765C18.7995 19.609 19.032 19.6416 19.2313 19.5765C19.4306 19.5439 19.6299 19.5765 19.8292 19.5765C20.0285 19.5113 20.2278 19.6416 20.3938 19.5439C20.5931 19.5439 20.7592 19.5113 20.9253 19.5113C21.0913 19.381 21.2574 19.4787 21.4567 19.4787C21.6228 19.4787 21.7888 19.381 21.9549 19.4462C22.121 19.3484 22.2539 19.4136 22.4199 19.4136C22.5528 19.4462 22.7189 19.3484 22.8517 19.4136C22.9846 19.3484 23.1174 19.4136 23.2503 19.381C23.3832 19.4136 23.4828 19.3484 23.5824 19.3484C23.6821 19.3158 23.7817 19.3158 23.8814 19.3158C23.981 19.2833 24.0474 19.2833 24.1471 19.2507C24.28 19.2181 24.3796 19.1855 24.446 19.1204C24.5125 19.0878 24.5789 19.0226 24.6121 18.9575C24.6785 18.7294 24.6785 18.6643 24.7117 18.6643Z" fill="#73523F"/>
<path d="M28 4.29683C28 4.32941 27.7343 4.36199 27.2361 4.39457C27.1364 4.39457 27.07 4.39457 26.9703 4.39457C26.8707 4.39457 26.7711 4.42715 26.6714 4.39457C26.5718 4.36199 26.4389 4.49231 26.3393 4.39457C26.2064 4.36199 26.1068 4.39457 25.9739 4.39457C25.841 4.39457 25.7082 4.36199 25.5753 4.39457C25.4425 4.49231 25.2764 4.29683 25.1435 4.39457C24.9775 4.42715 24.8446 4.42715 24.6785 4.39457C24.5125 4.32941 24.3464 4.39457 24.1803 4.39457C24.0142 4.29683 23.8482 4.36199 23.6489 4.39457C23.4828 4.29683 23.2835 4.29683 23.0842 4.39457C22.8849 4.39457 22.7189 4.36199 22.5196 4.39457C22.3203 4.39457 22.121 4.42715 21.9217 4.39457C21.7224 4.45973 21.5231 4.45973 21.2906 4.39457C21.0913 4.45973 20.8588 4.42715 20.6595 4.39457C20.427 4.36199 20.2278 4.45973 19.9953 4.39457C19.7628 4.39457 19.5302 4.42715 19.2977 4.39457C19.0652 4.36199 18.8327 4.32941 18.6002 4.39457C18.3677 4.42715 18.1352 4.42715 17.8695 4.39457C17.637 4.49231 17.3713 4.42715 17.1388 4.39457C16.9063 4.39457 16.6406 4.36199 16.4081 4.39457C16.1423 4.39457 15.9098 4.42715 15.6441 4.39457C15.3784 4.36199 15.1459 4.32941 14.8802 4.39457C14.6145 4.45973 14.382 4.36199 14.1495 4.39457C13.917 4.32941 13.6512 4.42715 13.4187 4.39457C13.1862 4.39457 12.9537 4.36199 12.688 4.39457C12.4555 4.39457 12.223 4.42715 11.9905 4.39457C11.758 4.52489 11.5255 4.36199 11.293 4.39457C11.0605 4.32941 10.8612 4.39457 10.6287 4.39457C10.3962 4.42715 10.1969 4.32941 9.99763 4.39457C9.79834 4.39457 9.56584 4.42715 9.36655 4.39457C9.16726 4.45973 8.96797 4.32941 8.76868 4.39457C8.56939 4.39457 8.37011 4.39457 8.20403 4.39457C8.00475 4.29683 7.83867 4.36199 7.63938 4.39457C7.47331 4.39457 7.27402 4.45973 7.10795 4.39457C6.94187 4.39457 6.7758 4.32941 6.60973 4.39457C6.44365 4.39457 6.27758 4.26425 6.14472 4.39457C5.97865 4.42715 5.84579 4.29683 5.71293 4.39457C5.58007 4.45973 5.44721 4.39457 5.31435 4.39457C5.18149 4.39457 5.04864 4.39457 4.94899 4.39457C3.88612 4.36199 3.25504 4.29683 3.25504 4.26425C3.25504 4.1991 4.01898 4.16652 5.31435 4.10136C5.44721 4.10136 5.58007 4.0362 5.71293 4.10136C5.84579 4.10136 6.01186 4.0362 6.14472 4.10136C6.31079 4.00362 6.44365 4.10136 6.60973 4.10136C6.7758 4.10136 6.94187 4.13394 7.10795 4.10136C7.27402 4.0362 7.44009 4.13394 7.63938 4.10136C7.80546 4.16652 8.00475 4.13394 8.20403 4.10136C8.40332 4.16652 8.56939 4.10136 8.76868 4.10136C8.96797 4.1991 9.16726 4.13394 9.36655 4.10136C9.56584 4.06878 9.76512 4.10136 9.99763 4.10136C10.1969 4.10136 10.4294 4.06878 10.6287 4.10136C10.8612 4.06878 11.0605 4.0362 11.293 4.10136C11.5255 4.06878 11.758 4.10136 11.9905 4.10136C12.223 4.06878 12.4555 4.10136 12.688 4.10136C12.9205 4.06878 13.153 4.1991 13.4187 4.10136C13.6512 4.10136 13.917 4.10136 14.1495 4.10136C14.382 4.10136 14.6477 4.13394 14.8802 4.10136C15.1459 4.1991 15.3784 4.13394 15.6441 4.10136C15.9098 4.06878 16.1423 4.10136 16.4081 4.10136C16.6738 4.10136 16.9063 4.10136 17.1388 4.10136C17.3713 4.06878 17.637 4.13394 17.8695 4.10136C18.102 4.06878 18.3345 4.13394 18.6002 4.10136C18.8327 4.06878 19.0652 4.06878 19.2977 4.10136C19.5302 4.10136 19.7628 4.1991 19.9953 4.10136C20.2278 4.06878 20.427 3.97104 20.6595 4.10136C20.8921 4.06878 21.0913 4.16652 21.2906 4.10136C21.4899 4.1991 21.7224 4.10136 21.9217 4.10136C22.121 4.13394 22.3203 4.16652 22.5196 4.10136C22.7189 4.06878 22.9181 4.13394 23.0842 4.10136C23.2835 4.0362 23.4496 4.16652 23.6489 4.10136C23.8149 4.10136 24.0142 4.10136 24.1803 4.10136C24.3464 3.97104 24.5125 4.10136 24.6785 4.10136C24.8446 4.13394 25.0107 4.00362 25.1435 4.10136C25.3096 4.00362 25.4425 4.10136 25.5753 4.10136C25.7082 4.13394 25.841 4.06878 25.9739 4.10136C26.1068 4.0362 26.2396 4.13394 26.3393 4.10136C26.4721 4.13394 26.5718 4.10136 26.6714 4.10136C26.7711 4.10136 26.8707 4.10136 26.9703 4.10136C27.07 4.10136 27.1696 4.10136 27.2361 4.10136C27.7343 4.23167 28 4.26425 28 4.29683Z" fill="#73523F"/>
</svg>
