<svg width="31" height="20" viewBox="0 0 31 20" fill="none" xmlns="http://www.w3.org/2000/svg">
<path d="M12.0483 11.983C12.0483 12.0169 11.7628 12.0508 11.2631 12.1525C11.1917 12.1865 11.0846 12.1865 11.0132 12.2204C10.9776 12.2543 10.9062 12.2543 10.8705 12.2882C10.8348 12.3221 10.7634 12.3221 10.7277 12.3221C10.6563 12.3221 10.6207 12.356 10.585 12.3899C10.5493 12.4239 10.4779 12.4578 10.4422 12.4578C10.3708 12.4578 10.3351 12.4917 10.2637 12.5256C10.1924 12.5595 10.1567 12.5934 10.121 12.6273C10.0853 12.6613 10.0139 12.6952 9.94253 12.7291C9.87115 12.763 9.83546 12.7969 9.79977 12.8647C9.76408 12.9326 9.6927 12.9665 9.62132 13.0004C9.54993 13.0343 9.47855 13.0682 9.47855 13.1361C9.40717 13.2378 9.26441 13.3395 9.15734 13.4752C8.97888 13.543 8.94319 13.7126 8.87181 13.8482C8.69336 13.95 8.62198 14.1196 8.62198 14.2891C8.44352 14.3909 8.37214 14.5604 8.44352 14.7639C8.40783 14.9335 8.30076 15.1031 8.33645 15.2726C8.30076 15.4422 8.30076 15.6457 8.30076 15.8153C8.37214 16.0187 8.37214 16.1883 8.33645 16.3918C8.44352 16.5614 8.47921 16.7649 8.47921 16.9683C8.47921 17.0362 8.51491 17.0701 8.51491 17.104C8.5506 17.1379 8.5506 17.2057 8.58629 17.2397C8.65767 17.3414 8.69336 17.4092 8.72905 17.511C8.83612 17.6805 8.94319 17.8501 9.08596 18.0197C9.19303 18.2232 9.3001 18.3927 9.54993 18.4945C9.72839 18.6301 9.94253 18.7319 10.0853 18.9014C10.3351 18.9354 10.5136 19.071 10.692 19.2067C10.9062 19.2745 11.1203 19.4102 11.3702 19.4102C11.62 19.478 11.8341 19.4441 12.084 19.478C12.3338 19.5119 12.5836 19.5119 12.7978 19.4102C12.9049 19.3423 13.0119 19.3423 13.1547 19.3084C13.2261 19.3084 13.2618 19.2745 13.3331 19.2745C13.4045 19.2745 13.4402 19.2406 13.5116 19.2067C13.583 19.2067 13.6187 19.2067 13.69 19.1728C13.7614 19.1388 13.7971 19.1388 13.8328 19.1049C13.8685 19.071 13.9399 19.0371 13.9756 19.0032C14.0113 18.9693 14.0826 18.9354 14.1183 18.9354C14.2968 18.7997 14.5109 18.7319 14.6537 18.5284C14.7965 18.3588 14.9392 18.1892 15.1177 18.0536C15.1177 17.9179 15.1891 17.8501 15.2604 17.7823C15.2961 17.7484 15.3318 17.7145 15.3675 17.6805C15.4032 17.6466 15.4389 17.6127 15.4389 17.5449C15.5816 17.3753 15.6173 17.1718 15.6887 17.0023C15.6887 16.9005 15.7601 16.7988 15.7958 16.7309C15.8315 16.697 15.8315 16.6292 15.8315 16.5953C15.8315 16.5614 15.8315 16.4935 15.8315 16.4596C15.8672 16.2561 15.8315 16.0866 15.8672 15.8831C15.8315 15.7814 15.8315 15.7135 15.8315 15.6796C15.8315 15.6457 15.8315 15.5779 15.8315 15.544C15.8315 15.51 15.8315 15.4422 15.8315 15.4083C15.8315 15.3744 15.8315 15.3066 15.7958 15.2726C15.7601 15.1031 15.7244 14.9335 15.6887 14.7639C15.6887 14.73 15.6887 14.6622 15.6887 14.6283C15.6887 14.5944 15.653 14.5604 15.653 14.4926C15.6173 14.4587 15.6173 14.4248 15.5816 14.3909C15.546 14.357 15.546 14.323 15.5103 14.2891C15.4389 14.1196 15.2961 14.0178 15.2604 13.8482C15.1891 13.7126 15.1177 13.543 14.9749 13.4752C14.9035 13.4074 14.9035 13.3395 14.8678 13.2717C14.8321 13.2039 14.7608 13.1361 14.6894 13.1361C14.618 13.1021 14.5823 13.0343 14.5466 12.9665C14.5109 12.8987 14.4396 12.8647 14.3682 12.8647C14.2968 12.8647 14.2254 12.8308 14.1897 12.763C14.154 12.7291 14.1183 12.6613 14.047 12.6273C13.9756 12.5934 13.9399 12.5595 13.8685 12.5256C13.8328 12.4917 13.7614 12.4578 13.7257 12.4578C13.4759 12.356 13.2618 12.2543 13.0476 12.1865C12.8335 12.1186 12.655 12.0847 12.5123 12.0508C12.3695 12.0169 12.2624 12.0169 12.191 11.983C12.084 12.0169 12.0483 12.0169 12.0483 11.983C12.0483 11.9491 12.2624 11.9151 12.6193 11.9151C12.7978 11.9151 13.0476 11.9491 13.2975 12.0169C13.5473 12.0847 13.8685 12.1865 14.154 12.356C14.2254 12.3899 14.2968 12.3899 14.3682 12.4239C14.4396 12.4578 14.5109 12.4917 14.5466 12.5595C14.6537 12.6273 14.8321 12.6952 14.9392 12.8308C15.1177 12.8647 15.1891 13.0343 15.2961 13.17C15.4032 13.3056 15.5103 13.4413 15.653 13.5769C15.7244 13.6448 15.7601 13.7126 15.7958 13.8143C15.8315 13.8822 15.8672 13.9839 15.9386 14.0517C15.9742 14.2552 16.0456 14.4248 16.1884 14.5944C16.1884 14.7978 16.3312 14.9674 16.3668 15.1709C16.2955 15.3744 16.4025 15.5779 16.4382 15.7814C16.4739 15.9848 16.4025 16.2222 16.4025 16.4257C16.3668 16.6292 16.3312 16.8666 16.2598 17.104C16.2241 17.3414 16.1527 17.5788 15.9742 17.7484C15.9029 17.9858 15.7244 18.1553 15.5816 18.3588C15.4389 18.5623 15.2604 18.7319 15.0463 18.9014C14.9392 19.0032 14.8321 19.071 14.7251 19.1049C14.6537 19.1388 14.618 19.1728 14.5466 19.2067C14.5109 19.2406 14.4395 19.2745 14.4039 19.3423C14.1897 19.478 13.9399 19.5797 13.69 19.6815C13.4402 19.7832 13.1547 19.8171 12.9049 19.9189C12.6193 19.885 12.3695 19.9528 12.084 19.9867C11.7984 20.0206 11.5129 19.9867 11.2631 19.9189C10.9776 19.885 10.7277 19.7832 10.4779 19.6815C10.1924 19.6136 10.0139 19.4441 9.76408 19.3423C9.62132 19.3084 9.54993 19.2067 9.44286 19.1388C9.33579 19.0371 9.26441 18.9693 9.15734 18.9014C8.94319 18.7658 8.76474 18.5623 8.62198 18.3588C8.5506 18.2571 8.47921 18.1553 8.44352 18.0536C8.40783 17.9858 8.37214 17.9519 8.33645 17.884C8.30076 17.8501 8.26507 17.7823 8.22938 17.7484C8.158 17.6466 8.08662 17.5449 8.01524 17.4431C7.97955 17.3753 7.94386 17.3414 7.94386 17.2736C7.94386 17.2057 7.94386 17.1379 7.94386 17.104C7.90816 17.0023 7.87247 16.9005 7.87247 16.7649C7.87247 16.697 7.87247 16.6631 7.83678 16.5953C7.83678 16.5275 7.80109 16.4935 7.80109 16.4257C7.83678 16.3579 7.83678 16.324 7.83678 16.2561C7.83678 16.1883 7.83678 16.1544 7.83678 16.0866C7.83678 16.0187 7.80109 15.9848 7.80109 15.917C7.80109 15.8492 7.80109 15.8153 7.80109 15.7474C7.83678 15.544 7.87247 15.3405 7.87247 15.137C7.87247 14.9335 7.97955 14.73 8.05093 14.5604C8.05093 14.5265 8.05093 14.4587 8.08662 14.4248C8.12231 14.3909 8.12231 14.323 8.158 14.2891C8.19369 14.2552 8.22938 14.2213 8.22938 14.1535C8.26507 14.1196 8.26507 14.0517 8.26507 14.0178C8.37214 13.8482 8.44352 13.6787 8.5506 13.543C8.5506 13.4413 8.58629 13.3735 8.65767 13.3056C8.72905 13.2378 8.80043 13.2039 8.87181 13.1361C9.01457 13.0343 9.05027 12.8308 9.22872 12.7969C9.26441 12.6952 9.3001 12.6613 9.37148 12.6273C9.44286 12.5934 9.51424 12.5595 9.58562 12.5256C9.65701 12.4917 9.72839 12.4578 9.76408 12.3899C9.83546 12.356 9.87115 12.3221 9.94253 12.2882C9.97822 12.2204 10.0496 12.1865 10.121 12.1865C10.1924 12.1865 10.2637 12.1525 10.2994 12.1186C10.4422 12.1186 10.5136 12.0169 10.6563 12.0169C10.692 11.983 10.7634 11.983 10.7991 11.9491C10.8348 11.9491 10.9062 11.9151 10.9419 11.9151C11.0489 11.8812 11.1203 11.8812 11.2274 11.8812C11.7628 11.9151 12.0483 11.983 12.0483 11.983Z" fill="#73523F"/>
<path d="M21.8989 11.983C21.8989 12.0169 21.6134 12.0508 21.1137 12.1525C21.0423 12.1865 20.9352 12.1865 20.8639 12.2204C20.8282 12.2543 20.7568 12.2543 20.7211 12.2882C20.6854 12.3221 20.614 12.3221 20.5783 12.3221C20.507 12.3221 20.4713 12.356 20.4356 12.3899C20.3999 12.4239 20.3285 12.4578 20.2928 12.4578C20.2214 12.4578 20.1857 12.4917 20.1144 12.5256C20.043 12.5595 20.0073 12.5934 19.9716 12.6273C19.9359 12.6613 19.8645 12.6952 19.7931 12.7291C19.7218 12.763 19.6861 12.7969 19.6504 12.8647C19.6147 12.9326 19.5433 12.9665 19.4719 13.0004C19.4005 13.0343 19.3292 13.0682 19.3292 13.1361C19.2221 13.2378 19.115 13.3395 19.0079 13.4752C18.8295 13.543 18.7938 13.7126 18.7224 13.8482C18.544 13.9161 18.5083 14.0856 18.4726 14.2891C18.2941 14.3909 18.2228 14.5604 18.2941 14.7639C18.2584 14.9335 18.1514 15.1031 18.1871 15.2726C18.1514 15.4422 18.1514 15.6457 18.1514 15.8153C18.2228 16.0187 18.2228 16.1883 18.1871 16.3918C18.2941 16.5614 18.3298 16.7649 18.3298 16.9683C18.3298 17.0362 18.3655 17.0701 18.3655 17.104C18.4012 17.1379 18.4012 17.2057 18.4369 17.2397C18.5083 17.3414 18.544 17.4092 18.5797 17.511C18.6867 17.6805 18.7938 17.8501 18.9366 18.0197C19.0436 18.2232 19.1507 18.3927 19.4005 18.4945C19.579 18.6301 19.7931 18.7319 19.9359 18.9014C20.1857 18.9354 20.3642 19.071 20.5426 19.2067C20.7568 19.2745 20.9709 19.4102 21.2208 19.4102C21.4706 19.478 21.6847 19.4441 21.9346 19.478C22.1844 19.5119 22.4342 19.5119 22.6484 19.4102C22.7555 19.3423 22.8625 19.3423 23.0053 19.3084C23.0767 19.3084 23.1124 19.2745 23.1838 19.2745C23.2551 19.2745 23.2908 19.2406 23.3622 19.2067C23.4336 19.2067 23.4693 19.2067 23.5407 19.1728C23.612 19.1388 23.6477 19.1388 23.6834 19.1049C23.7191 19.071 23.7905 19.0371 23.8262 19.0032C23.8619 18.9693 23.9333 18.9354 23.9689 18.9354C24.1474 18.7997 24.3615 18.7319 24.5043 18.5284C24.6471 18.3588 24.7898 18.1892 24.9683 18.0536C24.9683 17.9179 25.0397 17.8501 25.111 17.7823C25.1467 17.7484 25.1824 17.7145 25.2181 17.6805C25.2538 17.6466 25.2895 17.6127 25.2895 17.5449C25.4323 17.3753 25.468 17.1718 25.5393 17.0023C25.5393 16.9005 25.6107 16.7988 25.6464 16.7309C25.6821 16.697 25.6821 16.6292 25.6821 16.5953C25.6821 16.5614 25.6821 16.4935 25.6821 16.4596C25.7178 16.2561 25.6821 16.0866 25.7178 15.8831C25.6821 15.8492 25.6821 15.7813 25.6821 15.7474C25.6821 15.7135 25.6821 15.6457 25.6821 15.6118C25.6821 15.5779 25.6821 15.51 25.6821 15.4761C25.6821 15.4422 25.6821 15.3744 25.6464 15.3405C25.6107 15.1709 25.575 15.0013 25.5393 14.8318C25.5393 14.7978 25.5393 14.73 25.5393 14.6961C25.5393 14.6622 25.5036 14.6283 25.5036 14.5604C25.468 14.5265 25.468 14.4926 25.4323 14.4587C25.3966 14.4248 25.3966 14.3909 25.3609 14.357C25.2895 14.1874 25.1467 14.0856 25.111 13.9161C25.0397 13.7804 24.9683 13.6108 24.8255 13.543C24.7541 13.4752 24.7541 13.4074 24.7185 13.3395C24.6828 13.2717 24.6114 13.2039 24.54 13.2039C24.4686 13.17 24.4329 13.1021 24.3972 13.0343C24.3615 12.9665 24.2902 12.9326 24.2188 12.9326C24.1474 12.9326 24.076 12.8987 24.0403 12.8308C24.0046 12.7969 23.9689 12.7291 23.8976 12.6952C23.8262 12.6613 23.7905 12.6273 23.7191 12.5934C23.6477 12.5595 23.612 12.5256 23.5763 12.5256C23.3265 12.4239 23.1124 12.3221 22.8982 12.2543C22.6841 12.1865 22.5056 12.1525 22.3629 12.1186C22.2201 12.0847 22.113 12.0847 22.0417 12.0508C21.9346 12.0169 21.8989 12.0169 21.8989 11.983C21.8989 11.9491 22.113 11.9151 22.4699 11.9151C22.6484 11.9151 22.8982 11.9491 23.1481 12.0169C23.3979 12.0847 23.7191 12.1865 24.0046 12.356C24.076 12.3899 24.1474 12.3899 24.2188 12.4239C24.2902 12.4578 24.3615 12.4917 24.3972 12.5595C24.5043 12.6273 24.6828 12.6952 24.7898 12.8308C24.9683 12.8647 25.0397 13.0343 25.1467 13.17C25.2538 13.3056 25.3609 13.4413 25.5036 13.5769C25.575 13.6448 25.6107 13.7126 25.6464 13.8143C25.6821 13.8822 25.7178 13.9839 25.7892 14.0517C25.8249 14.2552 25.8962 14.4248 26.039 14.5944C26.039 14.7978 26.1818 14.9674 26.2175 15.1709C26.1461 15.3744 26.2531 15.5779 26.2888 15.7814C26.3245 15.9848 26.2531 16.2222 26.2531 16.4257C26.2175 16.6292 26.1818 16.8666 26.1104 17.104C26.0747 17.3414 26.0033 17.5788 25.8249 17.7484C25.7535 17.9858 25.575 18.1553 25.4323 18.3588C25.2895 18.5623 25.111 18.7319 24.8969 18.9014C24.7898 19.0032 24.6828 19.071 24.5757 19.1049C24.4686 19.1728 24.3615 19.2406 24.2545 19.3423C24.0403 19.478 23.7905 19.5797 23.5407 19.6815C23.2908 19.7493 23.0053 19.8171 22.7555 19.9189C22.4699 19.885 22.2201 19.9528 21.9346 19.9867C21.6491 20.0206 21.3635 19.9867 21.1137 19.9189C20.8282 19.885 20.5783 19.7832 20.3285 19.6815C20.043 19.6136 19.8645 19.4441 19.6147 19.3423C19.4719 19.3084 19.4005 19.2067 19.2935 19.1388C19.1864 19.0371 19.115 18.9693 19.0079 18.9014C18.7938 18.7658 18.6154 18.5623 18.4726 18.3588C18.4012 18.2571 18.3298 18.1553 18.2941 18.0536C18.2584 17.9858 18.2228 17.9519 18.1871 17.884C18.1514 17.8501 18.1157 17.7823 18.08 17.7484C18.0086 17.6466 17.9372 17.5449 17.8658 17.4431C17.8302 17.3753 17.7945 17.3414 17.7945 17.2736C17.7945 17.2057 17.7945 17.1379 17.7945 17.104C17.7588 17.0023 17.7231 16.9005 17.7231 16.7649C17.7231 16.697 17.7231 16.6631 17.6874 16.5953C17.6874 16.5275 17.6517 16.4935 17.6517 16.4257C17.6874 16.3579 17.6874 16.324 17.6874 16.2561C17.6874 16.1883 17.6874 16.1544 17.6874 16.0866C17.6874 16.0187 17.6517 15.9848 17.6517 15.917C17.6517 15.8492 17.6517 15.8153 17.6517 15.7474C17.6874 15.544 17.7231 15.3405 17.7231 15.137C17.7231 14.9335 17.8302 14.73 17.9015 14.5604C17.9015 14.4926 17.9015 14.4587 17.9372 14.4248C17.9729 14.3909 17.9729 14.323 18.0086 14.2891C18.0443 14.2552 18.08 14.2213 18.08 14.1535C18.1157 14.1196 18.1157 14.0517 18.1157 14.0178C18.2228 13.8482 18.2941 13.6787 18.4012 13.543C18.4012 13.4413 18.4369 13.3735 18.5083 13.3056C18.5797 13.2378 18.651 13.2039 18.7224 13.1361C18.8652 13.0343 18.9009 12.8308 19.0793 12.7969C19.115 12.6952 19.1507 12.6613 19.2221 12.6273C19.2935 12.5934 19.3649 12.5595 19.4362 12.5256C19.5076 12.4917 19.5433 12.4578 19.6147 12.3899C19.6861 12.356 19.7218 12.3221 19.7931 12.2882C19.8288 12.2204 19.9002 12.1865 19.9716 12.1865C20.043 12.1865 20.1144 12.1525 20.15 12.1186C20.2928 12.1186 20.3642 12.0169 20.507 12.0169C20.5426 11.983 20.614 11.983 20.6497 11.9491C20.6854 11.9491 20.7568 11.9151 20.7925 11.9151C20.8996 11.8812 20.9709 11.8812 21.078 11.8812C21.6134 11.9151 21.8989 11.983 21.8989 11.983Z" fill="#73523F"/>
<path d="M12.0483 13.8143C12.0483 13.8482 12.0126 13.8482 11.9412 13.8822C11.9055 13.8822 11.8698 13.9161 11.7984 13.9161C11.7628 13.9161 11.6914 13.95 11.62 13.95C11.5843 13.95 11.5486 13.9839 11.4772 13.9839C11.4415 13.9839 11.4415 14.0178 11.4058 14.0178C11.3702 14.0178 11.3702 14.0517 11.3345 14.0517C11.2631 14.0178 11.2631 14.1874 11.1917 14.1196C11.1203 14.1196 11.0846 14.1535 11.0132 14.2213C10.9776 14.2552 10.8705 14.2552 10.8348 14.323C10.8348 14.3909 10.7991 14.3909 10.7634 14.3909C10.7277 14.3909 10.692 14.3909 10.692 14.4587C10.692 14.4926 10.6563 14.5265 10.6207 14.5604C10.585 14.5944 10.5493 14.6283 10.5493 14.6283C10.4779 14.6283 10.4779 14.6622 10.4422 14.6961C10.4422 14.73 10.4065 14.7639 10.4065 14.7978C10.2994 14.8318 10.2637 14.8996 10.2994 15.0013C10.2281 15.0013 10.1567 15.0352 10.1567 15.0692C10.1567 15.1031 10.1567 15.1709 10.1924 15.2387C10.1924 15.2726 10.1567 15.3066 10.1567 15.3744C10.1567 15.4083 10.1567 15.4083 10.121 15.4422C10.121 15.4761 10.121 15.4761 10.121 15.51C10.121 15.544 10.121 15.6118 10.121 15.6457C10.121 15.6796 10.121 15.7474 10.121 15.7814C10.1567 15.8153 10.1924 15.8831 10.1924 15.917C10.1924 15.9509 10.1924 15.9509 10.1924 15.9848C10.1924 16.0187 10.1924 16.0187 10.1567 16.0527C10.2637 16.1205 10.2637 16.2222 10.2281 16.324C10.2281 16.3918 10.2637 16.4257 10.2994 16.4596C10.3351 16.4935 10.3708 16.5275 10.3708 16.5953V16.6292C10.3708 16.6292 10.3708 16.6631 10.4065 16.6631L10.4422 16.7309C10.4779 16.7649 10.5136 16.7988 10.5493 16.8666C10.5493 16.9005 10.5493 16.9344 10.585 16.9344C10.585 16.9683 10.6207 16.9683 10.6207 17.0023C10.6207 17.0362 10.6563 17.0362 10.692 17.0701C10.7277 17.0701 10.7634 17.104 10.7991 17.104C10.8348 17.1379 10.9062 17.1718 10.9419 17.1718C10.9776 17.2057 11.0132 17.2397 11.0489 17.2736C11.1917 17.2397 11.2631 17.3414 11.3702 17.4092C11.4415 17.4092 11.4772 17.4431 11.5129 17.4771C11.5843 17.511 11.62 17.511 11.6914 17.511C11.7628 17.511 11.7984 17.511 11.8698 17.511C11.9412 17.511 11.9769 17.511 12.0483 17.5449C12.1197 17.5449 12.1554 17.5788 12.2267 17.5788C12.2981 17.5788 12.3338 17.5449 12.4052 17.511C12.4409 17.4771 12.5123 17.4771 12.5836 17.4431C12.655 17.4431 12.6907 17.4431 12.7621 17.4092C12.7978 17.4092 12.8335 17.4092 12.8692 17.4092C12.9049 17.4092 12.9049 17.3753 12.9405 17.3753L13.0119 17.3075C13.0476 17.2736 13.0476 17.2736 13.0833 17.2736C13.119 17.2397 13.1904 17.2057 13.2261 17.2057C13.2618 17.1718 13.3331 17.1379 13.3331 17.104C13.3331 17.0701 13.3688 17.0701 13.3688 17.0362C13.3688 17.0023 13.4045 17.0023 13.4045 16.9683C13.4045 16.9344 13.4402 16.9344 13.4759 16.9005C13.5116 16.8666 13.5116 16.8666 13.5473 16.8666C13.5116 16.7988 13.5473 16.7649 13.6187 16.7309C13.6544 16.697 13.7257 16.6631 13.7257 16.6292C13.7614 16.5953 13.7971 16.5614 13.7971 16.4935C13.7971 16.4596 13.7971 16.3918 13.8328 16.3579C13.8328 16.324 13.8685 16.2561 13.9042 16.2222C13.9399 16.1883 13.9399 16.1205 13.9399 16.0866C13.9399 16.0527 13.9399 16.0527 13.9399 16.0187C13.9399 15.9848 13.9399 15.9848 13.9399 15.9509C13.9399 15.917 13.9399 15.8492 13.9756 15.8153C13.9399 15.7814 13.9399 15.7135 13.9756 15.6796C13.9756 15.6457 14.0113 15.5779 13.9756 15.544C13.9756 15.51 13.9756 15.51 13.9756 15.4761C13.9756 15.4422 13.9756 15.4422 13.9756 15.4083C13.9756 15.3744 13.9756 15.3066 13.9399 15.2726C13.9756 15.2048 13.9756 15.1709 13.9399 15.137C13.9042 15.1031 13.8685 15.0692 13.8328 15.0352C13.7971 14.9674 13.69 14.9335 13.7257 14.8318C13.69 14.7978 13.69 14.7639 13.69 14.73C13.6544 14.6961 13.6544 14.6622 13.6187 14.6622C13.583 14.6283 13.583 14.5944 13.583 14.5265C13.583 14.4926 13.5473 14.4587 13.4759 14.4926C13.4402 14.4926 13.4402 14.4248 13.4045 14.3909C13.4045 14.357 13.3688 14.323 13.2975 14.357C13.1904 14.3909 13.1904 14.2891 13.119 14.2552C13.0833 14.2213 13.0119 14.1874 12.9405 14.1535C12.6907 14.0178 12.4766 13.95 12.3338 13.9161C12.1197 13.8822 12.0483 13.8482 12.0483 13.8143C12.0483 13.8143 12.084 13.7804 12.1197 13.7804C12.1553 13.7804 12.191 13.7804 12.2267 13.7465C12.2624 13.7465 12.2624 13.7465 12.2981 13.7465C12.3338 13.7465 12.3338 13.7465 12.3695 13.7465C12.5836 13.7465 12.8692 13.7804 13.2261 13.95C13.2975 13.9839 13.4045 13.95 13.4402 14.0517C13.4759 14.0856 13.5116 14.0856 13.5473 14.1196C13.583 14.1535 13.6187 14.1535 13.6544 14.2213C13.7257 14.2213 13.7614 14.2552 13.7971 14.2891C13.8328 14.323 13.8328 14.3909 13.8685 14.4248C13.9042 14.4587 13.9399 14.4926 13.9399 14.5265C13.9756 14.5604 14.0113 14.5944 14.047 14.6283C14.154 14.6961 14.1183 14.7978 14.2254 14.8996C14.2254 14.9674 14.2254 15.0013 14.2611 15.0692C14.2968 15.1031 14.3325 15.1709 14.3682 15.2048C14.3682 15.2726 14.3682 15.3066 14.4039 15.3744C14.4039 15.4083 14.4395 15.4422 14.4395 15.4422C14.4395 15.4761 14.4752 15.51 14.4752 15.51C14.4396 15.5779 14.4395 15.6457 14.4395 15.6796C14.4395 15.7474 14.4752 15.7813 14.5109 15.8492C14.5466 15.917 14.5109 15.9848 14.5109 16.0187C14.5109 16.0527 14.5109 16.0866 14.5109 16.1205C14.5109 16.1544 14.5109 16.1883 14.5109 16.2222C14.4752 16.3579 14.4752 16.4596 14.4395 16.5953C14.4395 16.6631 14.4395 16.7309 14.4039 16.7988C14.3682 16.8666 14.3325 16.9344 14.2968 16.9683C14.2968 17.0362 14.2254 17.104 14.1897 17.1379C14.154 17.2057 14.1183 17.2397 14.047 17.3075C14.047 17.3414 14.0113 17.3753 13.9756 17.4092C13.9399 17.4431 13.9399 17.4771 13.9042 17.4771L13.8328 17.5449C13.7971 17.5788 13.7614 17.5788 13.7614 17.6127C13.7257 17.6805 13.6544 17.7145 13.583 17.7145C13.5116 17.7484 13.4402 17.7823 13.4045 17.8501C13.2975 17.9519 13.119 17.9858 13.0119 18.0536C12.9405 18.0875 12.8692 18.0875 12.7978 18.1214C12.7264 18.1214 12.655 18.1553 12.5836 18.1892C12.5123 18.1553 12.4052 18.1553 12.3338 18.1553C12.2624 18.1553 12.191 18.1892 12.084 18.2232C12.0126 18.2232 11.9412 18.2232 11.8341 18.2232C11.7628 18.2232 11.6914 18.1892 11.5843 18.1892C11.5129 18.1892 11.4415 18.1553 11.3702 18.1553C11.2988 18.1214 11.2274 18.0875 11.156 18.0875C11.1203 18.0875 11.0846 18.0536 11.0489 18.0536C11.0132 18.0197 10.9776 18.0197 10.9419 17.9858C10.8705 17.9519 10.8348 17.884 10.7277 17.884C10.6563 17.8501 10.585 17.8162 10.5493 17.7484C10.4779 17.7145 10.4422 17.6466 10.3708 17.6127C10.3351 17.5788 10.2994 17.5788 10.2637 17.5449C10.2281 17.511 10.1924 17.511 10.1924 17.4771C10.1567 17.4431 10.1567 17.4092 10.121 17.4092C10.0853 17.3753 10.0853 17.3414 10.0853 17.3075C10.0496 17.2397 10.0139 17.1718 9.97822 17.1379C9.97822 17.104 9.94253 17.0701 9.94253 17.0362L9.87115 16.9683C9.83546 16.9005 9.76408 16.8666 9.72839 16.7988C9.6927 16.7309 9.65701 16.6631 9.72839 16.5953C9.6927 16.5275 9.6927 16.4596 9.6927 16.3918C9.6927 16.324 9.6927 16.2561 9.65701 16.2222C9.6927 16.1883 9.6927 16.1544 9.6927 16.1205C9.6927 16.0866 9.6927 16.0527 9.6927 16.0187C9.6927 15.9509 9.65701 15.8831 9.65701 15.8492C9.65701 15.7813 9.6927 15.7474 9.6927 15.6796C9.6927 15.6118 9.72839 15.5779 9.6927 15.51C9.6927 15.4761 9.6927 15.4422 9.6927 15.4083C9.6927 15.3744 9.72839 15.3405 9.72839 15.3405C9.76408 15.2726 9.76408 15.2387 9.79977 15.1709C9.79977 15.1031 9.83546 15.0692 9.87115 15.0352C9.90684 15.0013 9.94253 14.9674 9.94253 14.8996C10.0139 14.7978 10.0496 14.73 10.121 14.6283C10.0853 14.5604 10.121 14.4926 10.1567 14.4926C10.1924 14.4587 10.2637 14.4587 10.2994 14.4248C10.3351 14.3909 10.3708 14.357 10.3708 14.323C10.4065 14.2891 10.4422 14.2552 10.5136 14.2552C10.5136 14.1874 10.5493 14.1535 10.585 14.1535C10.6207 14.1535 10.692 14.1196 10.7277 14.1196C10.7991 14.0856 10.8348 13.9839 10.9419 14.0178C10.9419 13.9839 10.9776 13.95 11.0489 13.95C11.0846 13.95 11.1203 13.95 11.156 13.9161C11.2274 13.9161 11.2988 13.8822 11.3345 13.8482C11.3702 13.8143 11.4058 13.8143 11.4058 13.8143C11.4415 13.8143 11.4772 13.8143 11.5129 13.8143C11.5843 13.8143 11.62 13.8143 11.6557 13.7804C11.7271 13.7804 11.7984 13.7804 11.8341 13.7804C11.9055 13.7804 11.9412 13.7804 11.9769 13.8143C12.0126 13.7804 12.0483 13.7804 12.0483 13.8143Z" fill="#73523F"/>
<path d="M21.8989 13.8143C21.8989 13.8482 21.8632 13.8482 21.7918 13.8822C21.7561 13.8822 21.7204 13.9161 21.6491 13.9161C21.6134 13.9161 21.542 13.95 21.4706 13.95C21.4349 13.95 21.3992 13.9839 21.3278 13.9839C21.2921 13.9839 21.2921 14.0178 21.2565 14.0178C21.2208 14.0178 21.2208 14.0517 21.1851 14.0517C21.1137 14.0178 21.1137 14.1874 21.0423 14.1196C20.9709 14.1196 20.9352 14.1535 20.8639 14.2213C20.8282 14.2552 20.7211 14.2552 20.6854 14.323C20.6854 14.3909 20.6497 14.3909 20.614 14.3909C20.5783 14.3909 20.5426 14.3909 20.5426 14.4587C20.507 14.4926 20.507 14.5265 20.4713 14.5604C20.4713 14.6283 20.4713 14.6283 20.4356 14.6622C20.3642 14.6622 20.3642 14.6961 20.3285 14.73C20.3285 14.7639 20.2928 14.7978 20.2928 14.8318C20.1857 14.8657 20.15 14.9335 20.1857 15.0352C20.1144 15.0352 20.043 15.0692 20.043 15.1031C20.043 15.137 20.043 15.2048 20.0787 15.2726C20.0787 15.3066 20.043 15.3405 20.043 15.4083C20.043 15.4422 20.043 15.4422 20.043 15.4761C20.043 15.51 20.043 15.51 20.043 15.544C20.043 15.5779 20.043 15.6457 20.043 15.6796C20.043 15.7135 20.043 15.7814 20.043 15.8153C20.0787 15.8492 20.1144 15.917 20.1144 15.9509C20.1144 15.9848 20.1144 15.9848 20.1144 16.0187C20.1144 16.0527 20.1144 16.0527 20.0787 16.0866C20.1857 16.1544 20.1857 16.2561 20.15 16.3579C20.15 16.4257 20.1857 16.4596 20.2214 16.4935C20.2571 16.5275 20.2928 16.5614 20.2928 16.6292V16.6631C20.2928 16.6631 20.2928 16.697 20.3285 16.697L20.3642 16.7649C20.3999 16.7988 20.4356 16.8327 20.4713 16.9005C20.4713 16.9344 20.4713 16.9683 20.507 16.9683C20.507 17.0023 20.5426 17.0023 20.5426 17.0362C20.5426 17.0701 20.5783 17.0701 20.614 17.104C20.6497 17.104 20.6854 17.1379 20.7211 17.1379C20.7568 17.1718 20.8282 17.2057 20.8639 17.2057C20.8996 17.2397 20.9352 17.2736 20.9709 17.3075C21.1137 17.2736 21.1851 17.3753 21.2921 17.4431C21.3635 17.4431 21.3992 17.4771 21.4349 17.511C21.5063 17.5449 21.542 17.5449 21.6134 17.5449C21.6847 17.5449 21.7204 17.5449 21.7918 17.5449C21.8632 17.5449 21.8989 17.5449 21.9703 17.5788C22.0417 17.5788 22.0773 17.6127 22.1487 17.6127C22.2201 17.6127 22.2558 17.5788 22.3272 17.5449C22.3629 17.511 22.4342 17.511 22.5056 17.4771C22.577 17.4771 22.6127 17.4771 22.6841 17.4431C22.7198 17.4431 22.7555 17.4431 22.7912 17.4431C22.8268 17.4431 22.8268 17.4092 22.8625 17.4092L22.9339 17.3414C22.9696 17.3075 22.9696 17.3075 23.0053 17.3075C23.041 17.2736 23.1124 17.2397 23.1481 17.2397C23.1838 17.2057 23.2551 17.1718 23.2551 17.1379C23.2551 17.104 23.2908 17.104 23.2908 17.0701C23.2908 17.0362 23.3265 17.0362 23.3265 17.0023C23.3265 16.9683 23.3622 16.9683 23.3979 16.9344C23.4336 16.9005 23.4336 16.9005 23.4693 16.9005C23.4336 16.8327 23.4693 16.7988 23.5407 16.7649C23.5763 16.7309 23.6477 16.697 23.6477 16.6631C23.6834 16.6292 23.7191 16.5953 23.7191 16.5275C23.7191 16.4935 23.7191 16.4257 23.7548 16.3918C23.7548 16.3579 23.7905 16.2901 23.8262 16.2561V16.1883C23.8262 16.1544 23.8262 16.1544 23.8262 16.1205C23.8262 16.0866 23.8262 16.0866 23.8262 16.0527C23.8262 16.0187 23.8262 16.0187 23.8262 15.9848C23.8262 15.9509 23.8262 15.8831 23.8619 15.8492C23.8262 15.8153 23.8262 15.7474 23.8619 15.7135C23.8619 15.6796 23.8976 15.6118 23.8619 15.5779C23.8619 15.544 23.8619 15.544 23.8619 15.51C23.8619 15.4761 23.8619 15.4761 23.8619 15.4422C23.8619 15.4083 23.8619 15.3405 23.8262 15.3066C23.8619 15.2387 23.8619 15.2048 23.8262 15.1709C23.7905 15.137 23.7548 15.1031 23.7191 15.0692C23.6834 15.0013 23.5764 14.9674 23.612 14.8657C23.5764 14.8318 23.5763 14.7978 23.5763 14.7639C23.5407 14.73 23.5407 14.6961 23.505 14.6961C23.3265 14.6283 23.3265 14.5944 23.3265 14.5604C23.3265 14.5265 23.2908 14.4926 23.2194 14.5265C23.1838 14.5265 23.1838 14.4587 23.1481 14.4248C23.1481 14.3909 23.1124 14.357 23.041 14.3909C22.9339 14.4248 22.9339 14.323 22.8625 14.2891C22.8268 14.2552 22.7555 14.2213 22.6841 14.1874C22.4342 14.0517 22.2201 13.9839 22.0773 13.95C21.9703 13.8822 21.8989 13.8482 21.8989 13.8143C21.8989 13.8143 21.9346 13.7804 21.9703 13.7804C22.006 13.7804 22.0417 13.7804 22.0773 13.7465C22.113 13.7465 22.113 13.7465 22.1487 13.7465C22.1844 13.7465 22.1844 13.7465 22.2201 13.7465C22.4342 13.7465 22.7198 13.7804 23.0767 13.95C23.1481 13.9839 23.2551 13.95 23.2908 14.0517C23.3265 14.0856 23.3622 14.0856 23.3979 14.1196C23.4336 14.1535 23.4693 14.1535 23.505 14.2213C23.5763 14.2213 23.612 14.2552 23.6477 14.2891C23.6834 14.323 23.6834 14.3909 23.7191 14.4248C23.7548 14.4587 23.7905 14.4926 23.7905 14.5265C23.8262 14.5604 23.8619 14.5944 23.8976 14.6283C24.0046 14.6961 23.9689 14.7978 24.076 14.8996C24.076 14.9674 24.076 15.0013 24.1117 15.0692C24.1474 15.1031 24.1831 15.1709 24.2188 15.2048C24.2188 15.2726 24.2188 15.3066 24.2545 15.3744C24.2545 15.4083 24.2902 15.4422 24.2902 15.4422C24.2902 15.4761 24.3259 15.51 24.3259 15.51C24.2902 15.5779 24.2902 15.6457 24.2902 15.6796C24.2902 15.7474 24.3259 15.7813 24.3615 15.8492C24.3972 15.917 24.3615 15.9848 24.3615 16.0187C24.3615 16.0527 24.3615 16.0866 24.3615 16.1205C24.3615 16.1544 24.3615 16.1883 24.3615 16.2222C24.3259 16.3579 24.3259 16.4596 24.2902 16.5953C24.2902 16.6631 24.2902 16.7309 24.2545 16.7988C24.2188 16.8666 24.1831 16.9344 24.1474 16.9683C24.1474 17.0362 24.076 17.104 24.0403 17.1379C24.0046 17.2057 23.9689 17.2397 23.8976 17.3075C23.8976 17.3414 23.8619 17.3753 23.8262 17.4092C23.7905 17.4431 23.7905 17.4771 23.7548 17.4771L23.6834 17.5449C23.6477 17.5788 23.612 17.5788 23.612 17.6127C23.5764 17.6805 23.505 17.7145 23.4336 17.7145C23.3622 17.7484 23.2908 17.7823 23.2551 17.8501C23.1481 17.9519 22.9696 17.9858 22.8625 18.0536C22.7912 18.0875 22.7198 18.0875 22.6484 18.1214C22.577 18.1214 22.5056 18.1553 22.4342 18.1892C22.3629 18.1553 22.2558 18.1553 22.1844 18.1553C22.113 18.1553 22.0417 18.1892 21.9346 18.2232C21.8632 18.2232 21.7918 18.2232 21.6847 18.2232C21.6134 18.2232 21.542 18.1892 21.4349 18.1892C21.3635 18.1892 21.2921 18.1553 21.2208 18.1553C21.1494 18.1214 21.078 18.0875 21.0066 18.0875C20.9709 18.0875 20.9352 18.0536 20.8996 18.0536C20.8639 18.0197 20.8282 18.0197 20.7925 17.9858C20.7211 17.9519 20.6854 17.884 20.5783 17.884C20.507 17.8501 20.4356 17.8162 20.3999 17.7484C20.3285 17.7145 20.2928 17.6466 20.2214 17.6127C20.1857 17.5788 20.15 17.5788 20.1144 17.5449C20.0787 17.511 20.043 17.511 20.043 17.4771C20.0073 17.4431 20.0073 17.4092 19.9716 17.4092C19.9359 17.3753 19.9359 17.3414 19.9359 17.3075C19.9002 17.2397 19.8645 17.1718 19.8288 17.1379C19.8288 17.104 19.7931 17.0701 19.7931 17.0362L19.7218 16.9683C19.6861 16.9005 19.6147 16.8666 19.579 16.7988C19.5433 16.7309 19.5076 16.6631 19.579 16.5953C19.5433 16.5275 19.5433 16.4596 19.5433 16.3918C19.5433 16.324 19.5433 16.2561 19.5076 16.2222C19.5433 16.1883 19.5433 16.1544 19.5433 16.1205C19.5433 16.0866 19.5433 16.0527 19.5433 16.0187C19.5433 15.9509 19.5076 15.8831 19.5076 15.8492C19.5076 15.7813 19.5433 15.7474 19.5433 15.6796C19.5433 15.6118 19.579 15.5779 19.5433 15.51C19.5433 15.4761 19.5433 15.4422 19.5433 15.4083C19.5433 15.3744 19.579 15.3405 19.579 15.3405C19.6147 15.2726 19.6147 15.2387 19.6504 15.1709C19.6504 15.1031 19.6861 15.0692 19.7218 15.0352C19.7575 15.0013 19.7931 14.9674 19.7931 14.8996C19.8645 14.7978 19.9002 14.73 19.9716 14.6283C19.9359 14.5604 19.9716 14.4926 20.0073 14.4926C20.043 14.4587 20.1144 14.4587 20.15 14.4248C20.1857 14.3909 20.2214 14.357 20.2214 14.323C20.2571 14.2891 20.2928 14.2552 20.3642 14.2552C20.3642 14.1874 20.3999 14.1535 20.4356 14.1535C20.4713 14.1535 20.5426 14.1196 20.5783 14.1196C20.6497 14.0856 20.6854 13.9839 20.7925 14.0178C20.7925 13.9839 20.8282 13.95 20.8996 13.95C20.9352 13.95 20.9709 13.95 21.0066 13.9161C21.078 13.9161 21.1494 13.8822 21.1851 13.8482C21.2208 13.8143 21.2565 13.8143 21.2565 13.8143C21.2921 13.8143 21.3278 13.8143 21.3635 13.8143C21.4349 13.8143 21.4706 13.8143 21.5063 13.7804C21.5777 13.7804 21.6491 13.7804 21.6847 13.7804C21.7561 13.7804 21.7918 13.7804 21.8275 13.8143C21.8632 13.7804 21.8989 13.7804 21.8989 13.8143Z" fill="#73523F"/>
<path d="M28.2161 19.7493C28.2161 19.7832 27.9306 19.8171 27.3952 19.851C27.3239 19.851 27.2168 19.851 27.1097 19.851C27.0026 19.851 26.8956 19.885 26.7885 19.851C26.6814 19.8171 26.5744 19.9528 26.4316 19.851C26.3245 19.8171 26.1818 19.851 26.039 19.851C25.8962 19.851 25.7535 19.8171 25.6107 19.851C25.468 19.9528 25.3252 19.7493 25.1467 19.851C25.004 19.885 24.8255 19.885 24.6471 19.851C24.4686 19.7832 24.2902 19.851 24.1117 19.851C23.9333 19.7493 23.7548 19.8171 23.5763 19.851C23.3979 19.7154 23.1838 19.7493 23.0053 19.851C22.7912 19.851 22.6127 19.8171 22.3986 19.851C22.1844 19.851 21.9703 19.885 21.7561 19.851C21.542 19.9189 21.3278 19.9189 21.1137 19.851C20.8996 19.9528 20.6854 19.9189 20.4356 19.851C20.2214 19.8171 19.9716 19.9189 19.7575 19.851C19.5076 19.851 19.2935 19.885 19.0436 19.851C18.7938 19.8171 18.544 19.7832 18.3298 19.851C18.08 19.885 17.8302 19.9189 17.5803 19.851C17.3305 19.9528 17.0807 19.9189 16.8308 19.851C16.581 19.851 16.3312 19.7832 16.0456 19.851C15.7958 19.851 15.5103 19.885 15.2604 19.851C15.0106 19.8171 14.7251 19.7832 14.4752 19.851C14.2254 19.9189 13.9399 19.8171 13.69 19.851C13.4402 19.7493 13.1904 19.885 12.9405 19.851C12.6907 19.851 12.4409 19.8171 12.191 19.851C11.9412 19.851 11.6914 19.885 11.4772 19.851C11.2274 19.9867 11.0132 19.8171 10.7634 19.851C10.5136 19.7832 10.2994 19.851 10.0853 19.851C9.87115 19.885 9.62132 19.7832 9.40717 19.851C9.19303 19.851 8.97888 19.885 8.76474 19.851C8.5506 19.9189 8.33645 19.7832 8.12231 19.851C7.90816 19.851 7.72971 19.851 7.51557 19.851C7.30142 19.7493 7.12297 19.8171 6.94452 19.851C6.76607 19.851 6.58761 19.9189 6.40916 19.851C6.23071 19.851 6.05225 19.7832 5.8738 19.851C5.69535 19.851 5.55258 19.6815 5.37413 19.851C5.23137 19.885 5.05292 19.7493 4.91015 19.851C4.76739 19.9528 4.62463 19.851 4.48186 19.851C4.3391 19.851 4.19634 19.851 4.08927 19.851C2.94717 19.8171 2.30474 19.7493 2.30474 19.6815C2.30474 19.6136 3.08993 19.5458 4.48186 19.5119C4.62463 19.5119 4.76739 19.4441 4.91015 19.5119C5.05292 19.5119 5.19568 19.4441 5.37413 19.5119C5.51689 19.4102 5.69535 19.478 5.8738 19.5119C6.05225 19.5119 6.23071 19.5458 6.40916 19.5119C6.58761 19.4441 6.76607 19.5458 6.94452 19.5119C7.12297 19.5797 7.33712 19.5458 7.51557 19.5119C7.72971 19.5797 7.90816 19.5119 8.12231 19.5119C8.33645 19.6136 8.5506 19.5458 8.76474 19.5119C8.97888 19.478 9.19303 19.5119 9.40717 19.5119C9.62132 19.5458 9.83546 19.478 10.0853 19.5119C10.2994 19.478 10.5493 19.4441 10.7634 19.5119C11.0132 19.478 11.2274 19.5119 11.4772 19.5119C11.7271 19.478 11.9769 19.5119 12.191 19.5119C12.4409 19.478 12.6907 19.6136 12.9405 19.5119C13.1904 19.5119 13.4402 19.5119 13.69 19.5119C13.9399 19.5119 14.1897 19.5458 14.4752 19.5119C14.7251 19.6136 15.0106 19.5458 15.2604 19.5119C15.5103 19.478 15.7958 19.5119 16.0456 19.5119C16.2955 19.5119 16.581 19.5119 16.8308 19.5119C17.0807 19.478 17.3305 19.5458 17.5803 19.5119C17.8302 19.478 18.08 19.5458 18.3298 19.5119C18.5797 19.478 18.8295 19.478 19.0436 19.5119C19.2935 19.5119 19.5076 19.6136 19.7575 19.5119C20.0073 19.478 20.2214 19.3762 20.4356 19.5119C20.6497 19.478 20.8996 19.5797 21.1137 19.5119C21.3278 19.6136 21.542 19.5119 21.7561 19.5119C21.9703 19.5458 22.1844 19.5797 22.3986 19.5119C22.6127 19.478 22.7912 19.5458 23.0053 19.5119C23.2194 19.4441 23.3979 19.5797 23.5763 19.5119C23.7548 19.5119 23.9333 19.5119 24.1117 19.5119C24.2902 19.3762 24.4686 19.5119 24.6471 19.5119C24.8255 19.5458 24.9683 19.4102 25.1467 19.5119C25.2895 19.4102 25.468 19.5119 25.6107 19.5119C25.7535 19.5458 25.8962 19.478 26.039 19.5119C26.1818 19.4441 26.3245 19.5458 26.4316 19.5119C26.5744 19.5458 26.6814 19.5119 26.7885 19.5119C26.8956 19.5119 27.0026 19.5119 27.1097 19.5119C27.2168 19.5119 27.2882 19.5119 27.3952 19.5119C27.9306 19.6476 28.2161 19.6815 28.2161 19.7493Z" fill="#73523F"/>
<path d="M25.9676 1.4357C25.9676 1.46961 25.9319 1.50352 25.8605 1.53744H25.8249C25.8249 1.53744 25.7892 1.57135 25.7892 1.53744C25.7892 1.50352 25.7535 1.63918 25.7535 1.53744C25.7535 1.50352 25.7178 1.53744 25.7178 1.53744C25.7178 1.57135 25.6821 1.50352 25.6464 1.53744C25.6107 1.63918 25.6107 1.4357 25.575 1.53744C25.5393 1.57135 25.5393 1.57135 25.5036 1.53744C25.468 1.46961 25.468 1.53744 25.4323 1.53744C25.3966 1.4357 25.3966 1.50352 25.3609 1.53744C25.3252 1.40178 25.3252 1.4357 25.2895 1.53744C25.2538 1.53744 25.2538 1.50352 25.2181 1.53744C25.1824 1.53744 25.1467 1.57135 25.1467 1.53744C25.111 1.60527 25.0754 1.60527 25.0754 1.53744C25.0397 1.63918 25.004 1.60527 25.004 1.53744C24.9683 1.50352 24.9326 1.60527 24.8969 1.53744C24.8255 1.74092 24.7898 1.74092 24.7541 1.74092C24.7184 1.70701 24.6828 1.67309 24.6471 1.74092C24.6114 1.77484 24.5757 1.80875 24.54 1.74092C24.5043 1.84266 24.4686 1.80875 24.4329 1.74092C24.3972 1.74092 24.3615 1.70701 24.3259 1.74092C24.2902 1.74092 24.2545 1.77484 24.2188 1.74092C24.1831 1.70701 24.1474 1.67309 24.1117 1.74092C24.076 1.80875 24.0403 1.70701 24.0046 1.74092C23.9689 1.63918 23.9333 1.77484 23.8976 1.74092C23.8619 1.74092 23.8262 1.70701 23.7905 1.74092C23.7548 1.74092 23.7191 1.77484 23.6834 1.74092C23.6477 1.87658 23.612 1.70701 23.5763 1.74092C23.5407 1.67309 23.505 1.74092 23.4693 1.74092C23.4336 1.77484 23.3979 1.67309 23.3979 1.74092C23.3622 1.74092 23.3265 1.77484 23.3265 1.74092C23.2908 1.80875 23.2551 1.67309 23.2551 1.74092C23.2194 1.74092 23.2194 1.74092 23.1838 1.74092C23.1481 1.63918 23.1481 1.70701 23.1124 1.74092C23.0767 1.74092 23.0767 1.80875 23.041 1.74092C23.0053 1.74092 23.0053 1.67309 22.9696 1.74092C22.9339 1.74092 22.9339 1.57135 22.8982 1.74092C22.8625 1.77484 22.8625 1.63918 22.8268 1.74092C22.7912 1.84266 22.7912 1.74092 22.7555 1.74092C22.7198 1.74092 22.7198 1.74092 22.7198 1.74092C22.577 1.70701 22.4699 1.63918 22.4699 1.57135C22.4699 1.50352 22.577 1.4357 22.7555 1.40178C22.7912 1.40178 22.7912 1.33395 22.8268 1.40178C22.8625 1.40178 22.8625 1.33395 22.8982 1.40178C22.9339 1.30004 22.9339 1.36787 22.9696 1.40178C23.0053 1.40178 23.0053 1.4357 23.041 1.40178C23.0767 1.33395 23.0767 1.4357 23.1124 1.40178C23.1481 1.46961 23.1481 1.4357 23.1838 1.40178C23.2194 1.46961 23.2194 1.40178 23.2551 1.40178C23.2908 1.50352 23.3265 1.4357 23.3265 1.40178C23.3622 1.36787 23.3979 1.40178 23.3979 1.40178C23.4336 1.4357 23.4693 1.36787 23.4693 1.40178C23.505 1.36787 23.5407 1.33395 23.5763 1.40178C23.612 1.36787 23.6477 1.40178 23.6834 1.40178C23.7191 1.36787 23.7548 1.40178 23.7905 1.40178C23.8262 1.36787 23.8619 1.50352 23.8976 1.40178C23.9333 1.40178 23.9689 1.40178 24.0046 1.40178C24.0403 1.40178 24.076 1.4357 24.1117 1.40178C24.1474 1.50352 24.1831 1.4357 24.2188 1.40178C24.2545 1.36787 24.2902 1.40178 24.3259 1.40178C24.3615 1.40178 24.3972 1.40178 24.4329 1.40178C24.4686 1.36787 24.5043 1.4357 24.54 1.40178C24.5757 1.36787 24.6114 1.4357 24.6471 1.40178C24.6828 1.36787 24.7184 1.36787 24.7541 1.40178C24.7898 1.40178 24.8255 1.50352 24.8612 1.40178C24.8969 1.36787 24.9326 1.26613 24.9683 1.40178C25.004 1.36787 25.0397 1.46961 25.0397 1.40178C25.0754 1.50352 25.111 1.40178 25.111 1.40178C25.1467 1.4357 25.1824 1.46961 25.1824 1.40178C25.2181 1.36787 25.2181 1.4357 25.2538 1.40178C25.2895 1.33395 25.2895 1.46961 25.3252 1.40178C25.3609 1.40178 25.3609 1.40178 25.3966 1.40178C25.4323 1.26613 25.4323 1.40178 25.468 1.40178C25.5036 1.4357 25.5036 1.30004 25.5393 1.40178C25.575 1.30004 25.575 1.40178 25.6107 1.40178C25.6464 1.4357 25.6464 1.36787 25.6821 1.40178C25.7178 1.33395 25.7178 1.4357 25.7178 1.40178C25.7178 1.4357 25.7535 1.40178 25.7535 1.40178H25.8249C25.8962 1.36787 25.9676 1.40178 25.9676 1.4357Z" fill="#73523F"/>
<path d="M24.9326 10.1516C24.9326 10.1855 24.8255 10.2194 24.6828 10.2534C24.6471 10.2534 24.6114 10.2534 24.5757 10.2534C24.54 10.2534 24.5043 10.2873 24.4686 10.2534C24.4329 10.2194 24.3972 10.3551 24.3615 10.2534C24.3259 10.2194 24.2902 10.2534 24.2188 10.2534C24.1831 10.2873 24.1117 10.2194 24.076 10.2534C24.0403 10.3551 23.9689 10.1516 23.9333 10.2534C23.8976 10.2873 23.8262 10.2873 23.7548 10.2534C23.6834 10.1855 23.6477 10.2534 23.5763 10.2534C23.505 10.1516 23.4693 10.2194 23.3979 10.2534C23.3265 10.1177 23.2908 10.1516 23.2194 10.2534C23.1481 10.2534 23.0767 10.2194 23.0053 10.2534C22.9339 10.2534 22.8625 10.2873 22.7912 10.2534C22.7198 10.3212 22.6484 10.3212 22.577 10.2534C22.5056 10.3551 22.4342 10.3212 22.3629 10.2534C22.2915 10.2194 22.2201 10.3212 22.1487 10.2534C22.0773 10.2534 22.006 10.2873 21.8989 10.2534C21.8275 10.2194 21.7561 10.1855 21.6491 10.2534C21.5777 10.2873 21.4706 10.3212 21.3992 10.2534C21.3278 10.3551 21.2208 10.3212 21.1494 10.2534C21.078 10.2534 20.9709 10.2194 20.8996 10.2534C20.8282 10.2534 20.7211 10.2873 20.6497 10.2534C20.5783 10.2194 20.4713 10.1855 20.3999 10.2534C20.3285 10.3212 20.2214 10.2194 20.15 10.2534C20.0787 10.1516 19.9716 10.2873 19.9002 10.2534C19.8288 10.2534 19.7218 10.2194 19.6504 10.2534C19.579 10.2534 19.4719 10.2873 19.4005 10.2534C19.3292 10.389 19.2578 10.2194 19.1507 10.2534C19.0793 10.1855 19.0079 10.2534 18.9366 10.2534C18.8652 10.2873 18.7938 10.1855 18.7224 10.2534C18.651 10.2534 18.5797 10.2873 18.5083 10.2534C18.4369 10.3212 18.3655 10.1855 18.2941 10.2534C18.2228 10.2534 18.1514 10.2534 18.08 10.2534C18.0086 10.1516 17.9372 10.2194 17.9015 10.2534C17.8302 10.2534 17.7945 10.3212 17.7231 10.2534C17.6517 10.2534 17.616 10.1855 17.5446 10.2534C17.4733 10.2534 17.4376 10.0838 17.3662 10.2534C17.3305 10.2873 17.2591 10.1516 17.2234 10.2534C17.1877 10.3551 17.1163 10.2534 17.0807 10.2534C17.045 10.2534 17.0093 10.2534 16.9379 10.2534C16.581 10.2194 16.3668 10.1516 16.3668 10.0838C16.3668 10.016 16.6167 9.94813 17.0807 9.91421C17.1163 9.91421 17.1877 9.84639 17.2234 9.91421C17.2591 9.91421 17.3305 9.84639 17.3662 9.91421C17.4019 9.81247 17.4733 9.8803 17.5446 9.91421C17.616 9.91421 17.6517 9.94813 17.7231 9.91421C17.7945 9.84639 17.8302 9.94813 17.9015 9.91421C17.9729 9.98204 18.0086 9.94813 18.08 9.91421C18.1514 9.98204 18.2228 9.91421 18.2941 9.91421C18.3655 10.016 18.4369 9.94813 18.5083 9.91421C18.5797 9.8803 18.651 9.91421 18.7224 9.91421C18.7938 9.94813 18.8652 9.8803 18.9366 9.91421C19.0079 9.8803 19.0793 9.84639 19.1507 9.91421C19.2221 9.8803 19.2935 9.91421 19.4005 9.91421C19.4719 9.8803 19.5433 9.91421 19.6504 9.91421C19.7218 9.8803 19.8288 10.016 19.9002 9.91421C19.9716 9.91421 20.0787 9.91421 20.15 9.91421C20.2214 9.91421 20.3285 9.94813 20.3999 9.91421C20.4713 10.016 20.5783 9.94813 20.6497 9.91421C20.7211 9.8803 20.8282 9.91421 20.8996 9.91421C20.9709 9.91421 21.078 9.91421 21.1494 9.91421C21.2208 9.8803 21.3278 9.94813 21.3992 9.91421C21.4706 9.8803 21.5777 9.94813 21.6491 9.91421C21.7204 9.8803 21.7918 9.8803 21.8989 9.91421C21.9703 9.91421 22.0417 10.016 22.1487 9.91421C22.2201 9.8803 22.2915 9.77856 22.3629 9.91421C22.4342 9.8803 22.5056 9.98204 22.577 9.91421C22.6484 10.016 22.7198 9.91421 22.7912 9.91421C22.8625 9.94813 22.9339 9.98204 23.0053 9.91421C23.0767 9.8803 23.1481 9.94813 23.2194 9.91421C23.2908 9.84639 23.3622 9.98204 23.3979 9.91421C23.4693 9.91421 23.505 9.91421 23.5763 9.91421C23.6477 9.77856 23.6834 9.91421 23.7548 9.91421C23.8262 9.94813 23.8619 9.81247 23.9333 9.91421C23.9689 9.81247 24.0403 9.91421 24.076 9.91421C24.1117 9.94813 24.1831 9.8803 24.2188 9.91421C24.2545 9.84639 24.2902 9.94813 24.3615 9.91421C24.3972 9.94813 24.4329 9.91421 24.4686 9.91421C24.5043 9.91421 24.54 9.91421 24.5757 9.91421C24.6114 9.91421 24.6471 9.91421 24.6828 9.91421C24.8612 10.0838 24.9326 10.1177 24.9326 10.1516Z" fill="#73523F"/>
<path d="M10.2281 5.5393C10.2281 5.57321 10.1924 5.60713 10.0853 5.64104H10.0496C10.0139 5.64104 10.0139 5.67495 9.97822 5.64104C9.94253 5.60713 9.94253 5.74278 9.90684 5.64104C9.87115 5.60713 9.87115 5.64104 9.83546 5.64104C9.79977 5.67495 9.79977 5.60713 9.76408 5.64104C9.72839 5.74278 9.6927 5.5393 9.6927 5.64104C9.65701 5.67495 9.62132 5.67495 9.58562 5.64104C9.54993 5.57321 9.51424 5.64104 9.47855 5.64104C9.44286 5.5393 9.40717 5.60713 9.37148 5.64104C9.33579 5.50538 9.3001 5.5393 9.26441 5.64104C9.22872 5.64104 9.19303 5.60713 9.15734 5.64104C9.12165 5.64104 9.08596 5.67495 9.05027 5.64104C9.01457 5.70887 8.97888 5.70887 8.94319 5.64104C8.9075 5.74278 8.87181 5.70887 8.80043 5.64104C8.76474 5.60713 8.72905 5.70887 8.65767 5.64104C8.62198 5.64104 8.58629 5.67495 8.51491 5.64104C8.47921 5.60713 8.40783 5.57321 8.37214 5.64104C8.33645 5.67495 8.26507 5.70887 8.22938 5.64104C8.19369 5.74278 8.12231 5.70887 8.08662 5.64104C8.05093 5.64104 7.97955 5.57321 7.94386 5.64104C7.90816 5.64104 7.83678 5.67495 7.80109 5.64104C7.7654 5.60713 7.69402 5.57321 7.65833 5.64104C7.62264 5.70887 7.55126 5.60713 7.51557 5.64104C7.47988 5.5393 7.4085 5.67495 7.37281 5.64104C7.33711 5.64104 7.26573 5.60713 7.23004 5.64104C7.19435 5.64104 7.12297 5.67495 7.08728 5.64104C7.05159 5.7767 6.98021 5.60713 6.94452 5.64104C6.90883 5.57321 6.87314 5.64104 6.80176 5.64104C6.76607 5.67495 6.73037 5.57321 6.65899 5.64104C6.6233 5.64104 6.58761 5.67495 6.55192 5.64104C6.51623 5.70887 6.48054 5.57321 6.44485 5.64104C6.40916 5.64104 6.37347 5.64104 6.33778 5.64104C6.30209 5.5393 6.2664 5.60713 6.23071 5.64104C6.19501 5.64104 6.15932 5.70887 6.12363 5.64104C6.08794 5.64104 6.05225 5.57321 6.01656 5.64104C5.98087 5.64104 5.94518 5.50538 5.90949 5.64104C5.8738 5.67495 5.83811 5.5393 5.83811 5.64104C5.80242 5.74278 5.76673 5.64104 5.76673 5.64104C5.73104 5.64104 5.73104 5.64104 5.69535 5.64104C5.4812 5.60713 5.37413 5.5393 5.37413 5.47147C5.37413 5.40364 5.51689 5.33581 5.76673 5.3019C5.80242 5.3019 5.80242 5.23407 5.83811 5.3019C5.8738 5.3019 5.90949 5.23407 5.90949 5.3019C5.94518 5.20016 5.98087 5.26799 6.01656 5.3019C6.05225 5.3019 6.08794 5.33581 6.12363 5.3019C6.15932 5.23407 6.19501 5.33581 6.23071 5.3019C6.2664 5.36973 6.30209 5.33581 6.33778 5.3019C6.37347 5.36973 6.40916 5.3019 6.44485 5.3019C6.48054 5.40364 6.51623 5.33581 6.55192 5.3019C6.58761 5.26799 6.6233 5.3019 6.65899 5.3019C6.69468 5.3019 6.73037 5.26799 6.80176 5.3019C6.83745 5.26799 6.87314 5.23407 6.94452 5.3019C6.98021 5.26799 7.0159 5.3019 7.08728 5.3019C7.12297 5.26799 7.19435 5.3019 7.23004 5.3019C7.26573 5.26799 7.33711 5.40364 7.37281 5.3019C7.4085 5.3019 7.47988 5.3019 7.51557 5.3019C7.55126 5.3019 7.62264 5.33581 7.65833 5.3019C7.69402 5.40364 7.7654 5.33581 7.80109 5.3019C7.83678 5.26799 7.90816 5.3019 7.94386 5.3019C7.97955 5.3019 8.05093 5.3019 8.08662 5.3019C8.12231 5.26799 8.19369 5.33581 8.22938 5.3019C8.26507 5.26799 8.33645 5.33581 8.37214 5.3019C8.40783 5.26799 8.47921 5.26799 8.51491 5.3019C8.5506 5.3019 8.62198 5.40364 8.65767 5.3019C8.69336 5.26799 8.72905 5.16624 8.80043 5.3019C8.83612 5.26799 8.87181 5.36973 8.94319 5.3019C8.97888 5.40364 9.01457 5.3019 9.05027 5.3019C9.08596 5.33581 9.12165 5.36973 9.15734 5.3019C9.19303 5.26799 9.22872 5.33581 9.26441 5.3019C9.3001 5.23407 9.33579 5.36973 9.37148 5.3019C9.40717 5.3019 9.44286 5.3019 9.47855 5.3019C9.51424 5.16624 9.54993 5.3019 9.58562 5.3019C9.62132 5.33581 9.65701 5.20016 9.6927 5.3019C9.72839 5.20016 9.76408 5.3019 9.76408 5.3019C9.79977 5.33581 9.83546 5.26799 9.83546 5.3019C9.87115 5.23407 9.87115 5.33581 9.90684 5.3019C9.94253 5.33581 9.94253 5.3019 9.97822 5.3019C10.0139 5.3019 10.0139 5.3019 10.0496 5.3019C10.0853 5.3019 10.0853 5.3019 10.0853 5.3019C10.1924 5.47147 10.2281 5.50538 10.2281 5.5393Z" fill="#73523F"/>
<path d="M12.1553 8.45591C12.191 8.45591 12.2267 8.99853 12.2624 9.98204C12.2624 10.1516 12.2624 10.3212 12.2624 10.5247C12.2624 10.7282 12.2981 10.8977 12.2624 11.1351C12.2267 11.2369 12.2624 11.3386 12.2981 11.4743C12.2981 11.5421 12.3338 11.576 12.3338 11.6438C12.3338 11.6777 12.3338 11.7117 12.3338 11.7117C12.3338 11.7117 12.3338 11.7456 12.2981 11.7456C12.2981 11.7795 12.2981 11.8134 12.2981 11.8473V11.8812C12.3338 11.8812 12.3338 11.8812 12.3695 11.8812C12.4052 11.8812 12.4409 11.8812 12.5123 11.8812H12.5836C12.6193 11.8812 12.655 11.8812 12.6907 11.8812C12.7621 11.8812 12.8335 11.9151 12.9049 11.9151C12.9762 11.9491 13.0476 11.9491 13.119 11.983C13.1547 11.983 13.1904 12.0169 13.2261 12.0169C13.2618 12.0169 13.2974 12.0508 13.3331 12.0508C13.4045 12.0847 13.4759 12.0847 13.5473 12.1186C13.583 12.1186 13.6187 12.1186 13.6544 12.1186C13.69 12.1186 13.7257 12.1525 13.7614 12.1525C13.8328 12.1865 13.9042 12.2204 13.9756 12.2882C14.047 12.3221 14.1183 12.3899 14.154 12.4239C14.1897 12.4578 14.2254 12.4578 14.2611 12.4578C14.2968 12.4578 14.3325 12.4917 14.3682 12.4917C14.4395 12.5256 14.5109 12.5595 14.5823 12.6273C14.6537 12.6613 14.7251 12.7291 14.7965 12.763C14.8321 12.7969 14.8678 12.8308 14.9035 12.8308C14.9392 12.8647 14.9749 12.8987 15.0106 12.9326C15.082 13.0004 15.1177 13.0343 15.1891 13.1021C15.2604 13.2378 15.4032 13.3735 15.5103 13.5091C15.6173 13.6448 15.7244 13.7804 15.8315 13.9161C15.8672 14.0856 15.9386 14.2552 16.0099 14.4248C16.0813 14.5944 16.1527 14.7639 16.2598 14.9335C16.2241 14.9674 16.2241 15.0352 16.2241 15.1031V15.137H16.2598C16.2955 15.137 16.2955 15.137 16.3312 15.137H16.4382C16.4739 15.137 16.5453 15.137 16.581 15.1031C16.6881 15.1031 16.7594 15.0692 16.8665 15.0352C17.045 15.0352 17.2591 15.0352 17.4733 15.0352H17.5803C17.616 15.0352 17.616 15.0352 17.616 15.0352C17.6517 15.0692 17.6517 14.9674 17.6517 14.9335V14.7978L17.6874 14.73C17.6874 14.6961 17.7231 14.6283 17.7231 14.5944L17.7945 14.4587C17.8302 14.357 17.8658 14.2552 17.9015 14.1535C17.9372 14.0517 18.0086 13.95 18.0443 13.8822C18.1871 13.4752 18.4726 13.1021 18.8652 12.8308C19.1507 12.4578 19.579 12.2204 20.043 12.0508C20.1144 12.0169 20.15 12.0169 20.2214 11.983C20.2928 11.9491 20.3285 11.9491 20.3999 11.9151C20.507 11.8812 20.614 11.8134 20.7568 11.7795C20.8639 11.7456 21.0066 11.7117 21.1137 11.6777C21.2208 11.6438 21.3635 11.6438 21.4706 11.6438C21.9703 11.6099 22.4699 11.6099 22.9696 11.7456C23.0767 11.7795 23.2194 11.8134 23.3265 11.8812C23.3979 11.9151 23.4336 11.9151 23.505 11.9491L23.6834 12.0169C23.7548 12.0508 23.7905 12.0508 23.8619 12.0847C23.9333 12.1186 23.9689 12.1525 24.0403 12.1525C24.1117 12.1865 24.1474 12.1865 24.2188 12.2204C24.2902 12.2543 24.3259 12.2882 24.3972 12.2882C24.8255 12.5595 25.2538 12.8987 25.5393 13.3395C25.575 13.3735 25.575 13.3735 25.6107 13.4074C25.6464 13.4413 25.6464 13.4413 25.6821 13.4752C25.7178 13.5091 25.7535 13.5769 25.7892 13.6448C25.8249 13.6787 25.8249 13.7126 25.8605 13.7126L25.8962 13.8143C25.9319 13.8822 25.9676 13.9161 26.0033 13.9839C26.039 14.0517 26.039 14.1196 26.0747 14.1535C26.1104 14.2213 26.1104 14.2891 26.1461 14.357C26.1818 14.4248 26.1818 14.4926 26.1818 14.5604L26.2175 14.7639V14.8318C26.2175 14.8657 26.2175 14.8657 26.2175 14.8996H26.2531C26.503 14.8996 26.7528 14.8996 27.0383 14.8996C27.2882 14.8996 27.538 14.8996 27.8235 14.8996C27.9663 14.8996 28.0734 14.8996 28.2161 14.8996C28.3589 14.8996 28.5017 14.8996 28.573 14.8996C28.7872 14.8996 29.037 14.8657 29.2512 14.7978C29.4653 14.73 29.6438 14.5944 29.7865 14.4248C29.9293 14.2552 30.072 14.0856 30.1791 13.9161C30.2862 13.7465 30.3576 13.543 30.3933 13.3395V13.2717C30.3933 13.2378 30.3933 13.2039 30.3933 13.2039C30.3933 13.17 30.3933 13.1361 30.3933 13.1361V13.0343C30.3933 12.8987 30.3933 12.7969 30.3933 12.6613C30.3933 12.4239 30.3576 12.1865 30.3576 11.9491C30.3576 11.8473 30.3576 11.7117 30.3576 11.6099V11.4403C30.3576 11.3725 30.3576 11.3386 30.3576 11.2708C30.3576 11.169 30.3576 11.0673 30.3219 10.9656C30.3219 10.8977 30.2862 10.8638 30.2862 10.796C30.2862 10.7621 30.2505 10.6942 30.2148 10.6603C30.1434 10.4568 30.072 10.2873 29.965 10.0838C29.9293 10.0499 29.8936 9.98204 29.8936 9.94813L29.8579 9.8803C29.8579 9.84639 29.8222 9.84639 29.8222 9.81247C29.7865 9.77856 29.7508 9.74464 29.7151 9.67682C29.7151 9.6429 29.6794 9.6429 29.6794 9.60899L29.6438 9.54116C29.6081 9.50725 29.5367 9.47333 29.501 9.43942C29.4653 9.4055 29.4296 9.37159 29.3582 9.33768C29.3225 9.30376 29.2868 9.26985 29.2512 9.23593C29.2155 9.20202 29.1798 9.1681 29.1441 9.13419L29.0727 9.06636C29.037 9.06636 29.037 9.03245 29.0013 9.03245C28.9656 8.99853 28.9299 8.96462 28.8586 8.93071L28.7872 8.86288L28.7158 8.82896C28.6801 8.79505 28.6087 8.79505 28.573 8.76114C28.5373 8.72722 28.466 8.72722 28.4303 8.69331L28.466 8.86288C28.4303 8.86288 28.4303 8.82896 28.3946 8.82896C28.3589 8.82896 28.2875 8.79505 28.2518 8.79505L28.1804 8.76114C28.1447 8.76114 28.1448 8.76114 28.1091 8.76114C28.002 8.76114 27.8949 8.72722 27.7878 8.72722C27.6808 8.72722 27.5737 8.72722 27.4666 8.72722C27.0026 8.76114 26.5744 8.65939 26.1461 8.72722C25.7178 8.72722 25.2895 8.76114 24.8612 8.72722C24.4329 8.79505 24.0403 8.65939 23.612 8.72722C23.2194 8.72722 22.8268 8.72722 22.4342 8.72722C22.0417 8.62548 21.6491 8.69331 21.2921 8.72722C20.9352 8.72722 20.5426 8.79505 20.2214 8.72722C19.8645 8.72722 19.5433 8.65939 19.1864 8.72722C18.8652 8.72722 18.544 8.55765 18.2228 8.72722C17.9015 8.76114 17.616 8.62548 17.3305 8.72722C17.045 8.82896 16.7594 8.72722 16.4739 8.72722C16.1884 8.72722 15.9386 8.72722 15.6887 8.72722C14.5823 8.69331 13.69 8.69331 13.119 8.65939C12.4766 8.48982 12.1553 8.45591 12.1553 8.45591C12.1553 8.422 12.5479 8.38808 13.2974 8.35417C14.0113 8.32025 15.082 8.28634 16.4382 8.28634C16.7237 8.28634 16.9736 8.21851 17.2948 8.28634C17.5803 8.28634 17.9015 8.21851 18.1871 8.28634C18.5083 8.1846 18.8295 8.25242 19.1507 8.28634C19.4719 8.28634 19.8288 8.32025 20.1857 8.28634C20.5426 8.21851 20.8996 8.32025 21.2565 8.28634C21.6134 8.35417 22.006 8.32025 22.3986 8.28634C22.7912 8.35417 23.1838 8.28634 23.5763 8.28634C23.9689 8.38808 24.3972 8.32025 24.8255 8.28634C25.2538 8.25242 25.6821 8.28634 26.1104 8.28634C26.5387 8.32025 27.0026 8.25242 27.4309 8.28634H27.7522C27.8949 8.28634 28.002 8.28634 28.1447 8.32025C28.1804 8.32025 28.2161 8.32025 28.2518 8.32025L28.3589 8.35417C28.4303 8.35417 28.466 8.38808 28.5373 8.38808C28.573 8.38808 28.6087 8.422 28.6444 8.422L28.7158 8.45591C28.7872 8.48982 28.8229 8.52374 28.8943 8.52374C29.3939 8.69331 29.7865 8.99853 30.1434 9.37159L30.2148 9.43942C30.2505 9.47333 30.2505 9.47333 30.2862 9.50725C30.3219 9.54116 30.3576 9.60899 30.3933 9.6429C30.4289 9.67682 30.4289 9.67682 30.4646 9.71073L30.5003 9.77856C30.536 9.84639 30.5717 9.8803 30.6074 9.94813C30.7145 10.1855 30.8215 10.4229 30.8929 10.6603C30.9286 10.7282 30.9286 10.796 30.9286 10.8299C30.9286 10.8977 30.9286 10.9656 30.9643 11.0334C31 11.169 30.9643 11.3047 30.9643 11.4064C30.9643 11.4743 30.9643 11.5421 30.9643 11.576C30.9643 11.6438 30.9643 11.6777 30.9643 11.7456C30.9643 11.8473 30.9643 11.983 31 12.0847C31 12.3221 31 12.5595 31 12.7969C31 12.9326 31 13.0343 31 13.17V13.6108C30.9643 13.8822 30.8572 14.1535 30.7145 14.3909C30.5717 14.6283 30.3933 14.8657 30.2148 15.0692C29.965 15.2387 29.7151 15.3744 29.4653 15.4761C29.2155 15.5779 28.9299 15.6796 28.6087 15.7135C28.466 15.7474 28.3232 15.7474 28.1804 15.7474C28.0377 15.7474 27.9306 15.7474 27.7878 15.7474C27.538 15.7474 27.2525 15.7474 27.0027 15.7474C26.7528 15.7474 26.503 15.7474 26.2175 15.7474C26.1104 15.7474 26.0033 15.7474 25.8962 15.7474H25.7178C25.6464 15.7474 25.575 15.7813 25.575 15.6796C25.5393 15.5779 25.5393 15.4761 25.5036 15.3744L25.468 15.2387V15.1031C25.4323 15.0352 25.4323 15.0013 25.3966 14.9335C25.3609 14.8657 25.3609 14.8318 25.3609 14.7639L25.2895 14.5944C25.2538 14.5265 25.2538 14.4926 25.2181 14.4248L25.111 14.2213C25.111 14.1874 25.0754 14.1874 25.0754 14.1535C25.0397 14.1196 25.004 14.0517 24.9683 14.0178L24.9326 13.95L24.8612 13.8822C24.8255 13.8482 24.7898 13.8143 24.7541 13.7465C24.7541 13.7126 24.7185 13.7126 24.7185 13.6787L24.7541 13.5769C24.6828 13.5091 24.6114 13.4074 24.54 13.3395C24.4686 13.2717 24.3972 13.17 24.2902 13.1021C24.2188 13.0343 24.1117 12.9665 24.0046 12.9326C23.612 12.7291 23.2194 12.5595 22.7912 12.4239C22.6841 12.3899 22.577 12.356 22.4699 12.356L22.2915 12.3221C22.2558 12.3221 22.2201 12.3221 22.2201 12.3221H22.1487C22.0773 12.3221 22.0417 12.3221 21.9703 12.3221C21.8989 12.3221 21.8632 12.3221 21.7918 12.3221C21.6847 12.3221 21.5777 12.356 21.4706 12.356C21.3635 12.3899 21.2565 12.3899 21.1494 12.4239C21.0423 12.4578 20.9352 12.4917 20.8639 12.5256C20.7568 12.5595 20.6854 12.5934 20.5783 12.6273C20.5426 12.5934 20.507 12.5934 20.4713 12.5934C20.4356 12.5934 20.3642 12.6273 20.3285 12.6273L20.1857 12.6952C20.15 12.7291 20.0787 12.7291 20.043 12.763C19.9359 12.7969 19.8645 12.8647 19.7575 12.8987C19.7218 12.9326 19.6504 12.9326 19.6147 12.9665C19.579 13.0004 19.5433 13.0343 19.5076 13.0682C19.4719 13.1021 19.4362 13.1361 19.4005 13.17C19.3649 13.2039 19.3292 13.2378 19.2935 13.2717C19.2578 13.3056 19.2221 13.3395 19.1507 13.3395C19.115 13.3735 19.0793 13.4074 19.0436 13.4413C18.9723 13.5091 18.9009 13.5769 18.8652 13.6787L18.7581 13.8822C18.7581 13.9161 18.7224 13.9161 18.7224 13.95C18.6867 14.0517 18.6154 14.1196 18.5797 14.1874C18.544 14.2552 18.4726 14.357 18.4369 14.4248C18.4012 14.4926 18.3655 14.5944 18.3298 14.6622C18.3298 14.6961 18.2941 14.6961 18.2941 14.73L18.2584 14.7978C18.2584 14.8318 18.2228 14.8996 18.2228 14.9335V15.0692C18.2228 15.137 18.1871 15.2048 18.1871 15.3066C18.1871 15.3744 18.1514 15.4761 18.1514 15.544V15.6118H17.9729C17.8658 15.6118 17.7945 15.6118 17.6874 15.6118H17.5089C17.2948 15.6118 17.1163 15.5779 16.9022 15.6118C16.7951 15.6118 16.7237 15.6118 16.6167 15.6118C16.581 15.6118 16.5096 15.6118 16.4739 15.6118H16.2598C16.1884 15.6118 16.117 15.6118 16.0456 15.6118H15.9386V15.51C15.8315 15.3066 15.8315 15.2048 15.7958 15.0692C15.7244 14.73 15.5816 14.4587 15.4389 14.1535C15.2961 14.0517 15.2247 13.9161 15.1177 13.7804C15.0463 13.6448 14.9749 13.5091 14.8678 13.3735C14.8321 13.3056 14.7608 13.2717 14.6894 13.2039L14.5823 13.1361C14.5466 13.1021 14.5109 13.1021 14.4752 13.0682C14.4039 13.0343 14.3682 13.0004 14.2968 12.9326C14.2254 12.8987 14.1897 12.8308 14.154 12.763C14.1183 12.763 14.0826 12.7291 14.047 12.7291C14.0113 12.7291 13.9756 12.6952 13.9399 12.6952C13.8685 12.6613 13.7971 12.6273 13.7614 12.5934C13.69 12.5595 13.6544 12.5256 13.583 12.4917C13.5473 12.4578 13.5116 12.4578 13.5116 12.4239C13.4759 12.3899 13.4402 12.3899 13.4045 12.3899C13.3331 12.356 13.2618 12.3221 13.2261 12.3221C13.1904 12.3221 13.1547 12.2882 13.119 12.2882C13.0833 12.2882 13.0476 12.2882 13.0119 12.2543C12.9405 12.2543 12.8692 12.2204 12.8335 12.2204C12.7621 12.2204 12.6907 12.1865 12.655 12.1525C12.6193 12.1525 12.5836 12.1525 12.5479 12.1525C12.5123 12.1525 12.4766 12.1525 12.4409 12.1525C12.3338 12.1525 12.2624 12.1186 12.1553 12.1186C12.1197 12.1186 12.084 12.1186 12.0126 12.0847H11.9769V11.983C11.9769 11.8812 11.9769 11.8134 11.9769 11.7117C11.9769 11.6777 11.9769 11.6099 11.9769 11.576C11.9769 11.5421 11.9769 11.5082 11.9769 11.4743C11.9769 11.4064 11.9769 11.3725 11.9769 11.3047C11.9769 11.203 11.9769 11.0673 11.9769 10.9656C11.9769 10.7621 11.9769 10.5586 11.9769 10.3551C11.9769 10.1516 11.9769 9.98204 11.9769 9.81247C12.084 8.99853 12.1197 8.45591 12.1553 8.45591Z" fill="#73523F"/>
<path d="M15.5103 6.69238C15.546 6.69238 15.5816 6.82803 15.6173 7.06543C15.6173 7.09935 15.6173 7.16717 15.6173 7.20109C15.6173 7.235 15.653 7.30283 15.6173 7.33674C15.5816 7.40457 15.7244 7.43849 15.6173 7.50632C15.5816 7.57414 15.6173 7.64197 15.6173 7.67589C15.653 7.74371 15.5816 7.81154 15.6173 7.87937C15.653 7.91328 15.653 7.9472 15.6173 7.98111C15.6173 8.01503 15.5816 8.01503 15.5816 8.04894C15.5816 8.04894 15.5816 8.08285 15.6173 8.08285C15.653 8.11677 15.653 8.15068 15.6173 8.1846C15.5816 8.21851 15.5816 8.21851 15.5816 8.25243C15.6173 8.25243 15.6887 8.21851 15.6887 8.21851C15.6887 8.25243 15.7244 8.28634 15.7244 8.28634C15.7244 8.28634 15.7244 8.28634 15.7601 8.28634C15.7958 8.28634 15.7958 8.25243 15.8315 8.25243C15.9386 8.38808 16.0099 8.35417 16.117 8.25243C16.2241 8.25243 16.3312 8.28634 16.4025 8.25243C16.5096 8.25243 16.6167 8.21851 16.7237 8.25243C16.8308 8.1846 16.9379 8.1846 17.045 8.25243C17.152 8.15068 17.2591 8.1846 17.3662 8.25243C17.4733 8.28634 17.5803 8.1846 17.7231 8.25243C17.8302 8.25243 17.9729 8.21851 18.08 8.25243C18.1871 8.28634 18.3298 8.32025 18.4369 8.25243C18.544 8.21851 18.6867 8.1846 18.7938 8.25243C18.9366 8.15068 19.0436 8.1846 19.1864 8.25243C19.3292 8.25243 19.4362 8.32025 19.579 8.25243C19.6504 8.25243 19.6147 8.21851 19.6504 8.25243H19.6861C19.6861 8.25243 19.6861 8.25243 19.6861 8.21851C19.6861 8.21851 19.6861 8.21851 19.6861 8.1846C19.6147 8.04894 19.7218 7.9472 19.6861 7.81154C19.7931 7.67589 19.6504 7.57414 19.6861 7.43849C19.6861 7.37066 19.6861 7.30283 19.6861 7.26892C19.6861 7.235 19.6861 7.20109 19.6861 7.16717C19.6861 7.16717 19.6861 7.16717 19.6861 7.13326C19.6861 7.13326 19.6504 7.13326 19.6861 7.09935C19.6147 7.16717 19.6504 7.16717 19.6504 7.13326V7.09935H19.6147C19.5076 7.03152 19.3649 7.09935 19.2578 7.09935C19.1507 7.13326 19.0436 7.03152 18.9366 7.09935C18.8295 7.09935 18.7224 7.13326 18.6154 7.09935C18.5083 7.16717 18.4012 7.03152 18.2941 7.09935C18.1871 7.09935 18.08 7.09935 18.0086 7.09935C17.9015 6.9976 17.8302 7.06543 17.7231 7.09935C17.616 7.09935 17.5446 7.16717 17.4376 7.09935C17.3662 7.09935 17.2591 7.03152 17.1877 7.09935C17.1163 7.09935 17.0093 6.96369 16.9379 7.09935C16.8665 7.13326 16.7951 6.9976 16.7237 7.09935C16.6524 7.20109 16.581 7.09935 16.5096 7.09935C16.4382 7.09935 16.3668 7.09935 16.3312 7.09935C15.8315 6.79412 15.5103 6.76021 15.5103 6.69238C15.5103 6.62455 15.9029 6.55672 16.581 6.52281C16.6524 6.52281 16.7237 6.45498 16.7951 6.52281C16.8665 6.52281 16.9379 6.45498 17.0093 6.52281C17.0807 6.42106 17.1877 6.48889 17.2591 6.52281C17.3305 6.52281 17.4376 6.55672 17.5089 6.52281C17.5803 6.45498 17.6874 6.55672 17.7945 6.52281C17.9015 6.59064 17.9729 6.55672 18.08 6.52281C18.1871 6.59064 18.2941 6.52281 18.3655 6.52281C18.4726 6.62455 18.5797 6.55672 18.6867 6.52281C18.7938 6.48889 18.9009 6.52281 19.0079 6.52281C19.115 6.55672 19.2221 6.48889 19.3292 6.52281C19.4362 6.48889 19.5433 6.45498 19.6861 6.52281H19.7218C19.7575 6.52281 19.7575 6.52281 19.7931 6.52281C19.8645 6.52281 19.9002 6.52281 19.9716 6.52281C20.0787 6.52281 20.1857 6.52281 20.2928 6.52281C20.3285 6.52281 20.3642 6.52281 20.4356 6.52281C20.4356 6.59064 20.4356 6.69238 20.4356 6.79412C20.4356 6.89586 20.4356 6.96369 20.4356 7.06543C20.4356 7.09935 20.4356 7.13326 20.4356 7.13326V7.20109C20.4356 7.235 20.4356 7.26892 20.3999 7.30283C20.3999 7.37066 20.3642 7.43849 20.4356 7.4724C20.4356 7.60806 20.4356 7.7098 20.4356 7.84546C20.4356 7.98111 20.3999 8.08285 20.4356 8.21851C20.3285 8.422 20.3999 8.62548 20.4356 8.89679C20.3285 8.89679 20.1857 8.93071 20.0787 8.89679C20.0073 8.89679 19.9359 8.89679 19.9002 8.89679H19.7218C19.579 8.89679 19.4719 8.89679 19.3292 8.89679C19.1864 8.93071 19.0793 8.86288 18.9366 8.89679C18.7938 8.93071 18.6867 8.86288 18.5797 8.89679C18.4726 8.93071 18.3298 8.93071 18.2228 8.89679C18.1157 8.89679 17.9729 8.79505 17.8658 8.89679C17.7588 8.93071 17.616 9.03245 17.5089 8.89679C17.4019 8.93071 17.2948 8.82896 17.1877 8.89679C17.0807 8.79505 16.9736 8.89679 16.8665 8.89679C16.7594 8.86288 16.6524 8.82896 16.5453 8.89679C16.4382 8.93071 16.3312 8.86288 16.2598 8.89679C16.1527 8.96462 16.0813 8.82896 15.9742 8.89679C15.9029 8.89679 15.7244 8.89679 15.5816 8.89679C15.5103 8.93071 15.4389 8.96462 15.3675 8.96462C15.2961 8.96462 15.2604 8.93071 15.2247 8.93071C15.2247 8.86288 15.2604 8.82896 15.2604 8.79505C15.2604 8.72722 15.2604 8.69331 15.2247 8.62548C15.2247 8.55765 15.2247 8.48982 15.2604 8.422L15.2247 8.38808C15.2247 8.38808 15.2247 8.38808 15.2247 8.35417C15.2247 8.35417 15.2247 8.35417 15.2247 8.32025C15.2247 8.28634 15.2247 8.28634 15.2247 8.25243C15.2247 8.21851 15.2604 8.1846 15.2961 8.15068C15.3318 8.08285 15.2604 8.01503 15.2961 7.9472C15.2247 7.87937 15.3318 7.81154 15.2961 7.77763C15.3318 7.7098 15.2961 7.67589 15.2961 7.60806C15.2961 7.54023 15.2961 7.50631 15.2961 7.4724C15.2961 7.43849 15.2961 7.37066 15.2961 7.33674C15.4389 6.82803 15.4746 6.69238 15.5103 6.69238Z" fill="#73523F"/>
<path d="M3.76805 6.42106C3.80374 6.42106 3.83943 6.82803 3.87512 7.57414C3.87512 7.7098 3.87512 7.84546 3.87512 7.98111C3.87512 8.11677 3.91081 8.28634 3.87512 8.422C3.83943 8.59157 3.9822 8.76114 3.87512 8.93071C3.83943 9.10028 3.87512 9.30376 3.87512 9.50725C3.91081 9.71073 3.83943 9.91421 3.87512 10.1177C3.9822 10.3212 3.76805 10.5586 3.87512 10.7621C3.91081 10.9995 3.91081 11.2369 3.87512 11.4743C3.80374 11.7117 3.87512 11.9491 3.87512 12.2204C3.76805 12.4917 3.83943 12.7291 3.87512 13.0004C3.73236 13.2717 3.76805 13.543 3.87512 13.8143C3.87512 14.0856 3.83943 14.3909 3.87512 14.6622C3.87512 14.9674 3.91081 15.2387 3.87512 15.544C3.94651 15.8492 3.94651 16.1544 3.87512 16.4596C3.91081 16.6292 3.94651 16.7649 3.94651 16.9344C3.94651 16.9683 3.94651 17.0023 3.94651 17.0701V17.1718C3.94651 17.1718 3.91081 17.2057 3.91081 17.2397V17.2736C3.91081 17.2736 3.94651 17.2736 3.9822 17.2736H4.12496C4.26772 17.2736 4.44617 17.2397 4.58894 17.2736C4.94584 17.2736 5.30275 17.2397 5.65966 17.2736C6.01656 17.3075 6.37347 17.3414 6.76607 17.2736C6.94452 17.2736 7.12297 17.2397 7.33712 17.2397C7.44419 17.2397 7.51557 17.2397 7.62264 17.2397H7.7654C7.7654 17.2057 7.7654 17.2057 7.72971 17.1718V17.1379C7.72971 17.0701 7.69402 17.0023 7.69402 16.9344C7.62264 16.7309 7.62264 16.5614 7.58695 16.3579C7.58695 16.1544 7.55126 15.9509 7.55126 15.7474C7.55126 15.544 7.58695 15.3405 7.58695 15.137C7.62264 14.9335 7.65833 14.73 7.7654 14.5604C7.94386 14.1874 8.158 13.8482 8.33645 13.4752C8.44352 13.3056 8.58629 13.1361 8.72905 13.0004C8.87181 12.8647 9.05026 12.7291 9.19303 12.5934C9.37148 12.4917 9.54993 12.3899 9.72839 12.2882C9.90684 12.1865 10.0853 12.0847 10.2637 12.0169C10.4422 11.9491 10.6563 11.8812 10.8348 11.8473C11.0489 11.8134 11.2274 11.7795 11.4058 11.7456C11.4415 11.7456 11.5129 11.7456 11.5486 11.7117H11.6914V11.6777C11.6914 11.6777 11.6914 11.6777 11.6914 11.6438C11.6914 11.6099 11.6914 11.576 11.6914 11.5082C11.5486 11.169 11.7271 10.8299 11.6914 10.4908C11.7628 10.1516 11.6914 9.81247 11.6914 9.50725C11.6557 9.1681 11.7628 8.86288 11.6914 8.55765C11.6914 8.25243 11.6557 7.9472 11.6914 7.64197C11.6557 7.50631 11.6557 7.33674 11.6914 7.20109C11.6914 7.13326 11.7271 7.06543 11.7271 6.96369C11.7271 6.92978 11.7271 6.89586 11.7271 6.86195C11.7271 6.82803 11.7271 6.82803 11.7271 6.79412C11.7271 6.79412 11.7271 6.79412 11.7271 6.76021C11.7271 6.72629 11.7271 6.69238 11.7271 6.65846C11.6914 6.65846 11.6557 6.65846 11.6557 6.65846H11.5486C11.5129 6.65846 11.4415 6.65846 11.4058 6.65846C11.1203 6.55672 10.8348 6.62455 10.5493 6.65846C10.2637 6.65846 9.97822 6.72629 9.72839 6.65846C9.44286 6.65846 9.19303 6.59064 8.94319 6.65846C8.69336 6.65846 8.44352 6.48889 8.19369 6.65846C7.94386 6.69238 7.72971 6.55672 7.51557 6.65846C7.30142 6.76021 7.08728 6.65846 6.87314 6.65846C6.65899 6.65846 6.48054 6.65846 6.2664 6.65846C4.76739 6.52281 3.80374 6.48889 3.76805 6.42106C3.76805 6.35324 4.98153 6.28541 7.0159 6.25149C7.23004 6.25149 7.44419 6.18367 7.65833 6.25149C7.87247 6.25149 8.12231 6.18367 8.33645 6.25149C8.58629 6.14975 8.83612 6.21758 9.08596 6.25149C9.33579 6.25149 9.58562 6.28541 9.87115 6.25149C10.1567 6.18367 10.4065 6.28541 10.692 6.25149C10.9776 6.31932 11.2631 6.28541 11.5486 6.25149C11.5843 6.25149 11.6557 6.25149 11.6914 6.28541C11.7271 6.28541 11.7271 6.28541 11.7628 6.28541H11.9055C12.084 6.28541 12.2267 6.28541 12.4052 6.25149C12.4052 6.42106 12.4052 6.59063 12.4052 6.76021C12.4052 6.79412 12.4052 6.82803 12.4052 6.86195C12.4052 6.89586 12.4052 6.89586 12.4052 6.92978C12.4052 6.96369 12.4052 6.9976 12.4052 7.03152C12.4052 7.09935 12.4052 7.16717 12.4052 7.26892C12.4052 7.40457 12.4409 7.57414 12.4766 7.7098C12.5123 8.01503 12.4766 8.32025 12.4766 8.62548C12.4409 8.93071 12.5123 9.26985 12.4766 9.57507C12.5123 9.91421 12.5479 10.2194 12.4766 10.5586C12.5123 10.8977 12.4766 11.2369 12.4766 11.576C12.4766 11.6099 12.4766 11.6438 12.4766 11.6777V11.9151C12.4766 12.0508 12.4766 12.2204 12.4766 12.356C12.2981 12.356 12.084 12.356 11.9055 12.356C11.8698 12.356 11.8698 12.356 11.8341 12.356H11.7271C11.6914 12.356 11.62 12.356 11.5843 12.356C11.4058 12.3899 11.2274 12.3899 11.0846 12.4239C10.9062 12.4578 10.7277 12.4917 10.585 12.6273C10.2637 12.763 9.94253 12.8987 9.6927 13.1361C9.40717 13.3395 9.15734 13.5769 8.97888 13.8822C8.83612 13.9839 8.72905 14.1535 8.65767 14.2891C8.58629 14.4587 8.5506 14.6283 8.51491 14.7978C8.47921 14.9674 8.44352 15.137 8.40783 15.3066C8.37214 15.4761 8.33645 15.6457 8.33645 15.8153C8.33645 15.9848 8.33645 16.1544 8.37214 16.324C8.40783 16.4935 8.40783 16.6631 8.47921 16.8327C8.5149 16.9005 8.51491 16.9344 8.5506 17.0023V17.0701C8.5506 17.104 8.58629 17.1379 8.58629 17.1379L8.62198 17.2057C8.65767 17.3075 8.72905 17.4092 8.76474 17.5449C8.80043 17.6466 8.87181 17.7484 8.9075 17.8501C8.80043 17.8501 8.69336 17.8501 8.58629 17.8501C8.47922 17.8501 8.37214 17.8501 8.26507 17.8501C8.19369 17.8501 8.08662 17.8501 8.01524 17.8501H7.83678C7.72971 17.8501 7.65833 17.8501 7.55126 17.8501C7.37281 17.8501 7.19435 17.8162 6.98021 17.8501C6.6233 17.884 6.23071 17.884 5.8738 17.8501C5.51689 17.8501 5.15999 17.7484 4.80308 17.8501C4.62463 17.8501 4.48186 17.884 4.3391 17.9179H4.19634C4.12496 17.9179 4.05358 17.9179 3.94651 17.9179C3.80374 17.9179 3.62529 17.9179 3.51822 17.884C3.51822 17.8162 3.55391 17.7484 3.55391 17.7145C3.55391 17.5788 3.55391 17.4092 3.55391 17.2736V17.0023C3.55391 16.8327 3.5896 16.697 3.55391 16.5275C3.66098 16.2222 3.55391 15.917 3.55391 15.6118C3.5896 15.3066 3.62529 15.0013 3.55391 14.73C3.51822 14.4248 3.5896 14.1535 3.55391 13.8822C3.48253 13.6108 3.62529 13.3395 3.55391 13.0682C3.55391 12.7969 3.55391 12.5256 3.55391 12.2882C3.41115 12.0169 3.55391 11.7795 3.55391 11.5421C3.5896 11.3047 3.44684 11.0673 3.55391 10.8299C3.44684 10.5925 3.55391 10.389 3.55391 10.1855C3.5896 9.98204 3.51822 9.77856 3.55391 9.57507C3.48253 9.37159 3.5896 9.20202 3.55391 8.99853C3.5896 8.82896 3.55391 8.65939 3.55391 8.48982C3.55391 8.32025 3.55391 8.1846 3.55391 8.04894C3.55391 7.91328 3.55391 7.77763 3.55391 7.64197C3.69667 6.82803 3.73236 6.42106 3.76805 6.42106Z" fill="#73523F"/>
<path d="M2.0549 4.5897C2.09059 4.5897 2.12628 4.86102 2.16197 5.40364C2.16197 5.50538 2.16197 5.57321 2.16197 5.67496C2.16197 5.7767 2.19766 5.87844 2.16197 5.98018C2.12628 6.04801 2.16197 6.11584 2.19766 6.11584C2.23336 6.14975 2.26905 6.14975 2.19766 6.21758C2.19766 6.25149 2.19766 6.25149 2.19766 6.28541C2.26905 6.28541 2.34043 6.28541 2.37612 6.25149H2.4475C2.48319 6.25149 2.51888 6.25149 2.55457 6.25149C2.62595 6.25149 2.69733 6.25149 2.76871 6.21758C2.91148 6.11584 3.08993 6.31932 3.23269 6.21758C3.41115 6.18367 3.55391 6.18367 3.73236 6.21758C3.91082 6.28541 4.08927 6.21758 4.26772 6.21758C4.44617 6.31932 4.66032 6.28541 4.83877 6.21758C5.01722 6.35324 5.23137 6.31932 5.44551 6.21758C5.65966 6.21758 5.8738 6.25149 6.08794 6.21758C6.30209 6.21758 6.51623 6.18367 6.73037 6.21758C6.94452 6.14975 7.19435 6.14975 7.4085 6.21758C7.62264 6.11584 7.87247 6.14975 8.12231 6.21758C8.37214 6.25149 8.58629 6.14975 8.83612 6.21758C9.08595 6.21758 9.33579 6.18367 9.58562 6.21758C9.83546 6.25149 10.0853 6.28541 10.3351 6.21758C10.585 6.18367 10.8348 6.14975 11.1203 6.21758C11.3702 6.11584 11.6557 6.14975 11.9055 6.21758C12.1553 6.21758 12.4409 6.28541 12.7264 6.21758C12.8692 6.21758 13.0119 6.21758 13.119 6.21758H13.1547C13.1547 6.21758 13.1547 6.21758 13.1904 6.21758C13.1904 6.21758 13.1904 6.21758 13.2261 6.18367C13.2261 6.18367 13.2261 6.18367 13.2261 6.14975V6.11584C13.2261 5.98018 13.2261 5.84453 13.1904 5.74278C13.1547 5.60713 13.1547 5.47147 13.1904 5.36973C13.1904 5.3019 13.1904 5.23407 13.1904 5.16624C13.1904 5.13233 13.1904 5.09842 13.1904 5.0645V5.03059C13.2261 4.99667 13.2261 4.96276 13.2261 4.96276C13.1904 4.96276 13.1904 4.99667 13.1547 4.99667C13.1547 4.99667 13.1547 4.99667 13.119 4.99667H13.0833C13.0476 4.99667 13.0476 4.99667 13.0119 4.99667C12.7621 4.99667 12.4766 4.92885 12.2267 4.99667C11.9769 4.99667 11.7271 5.03059 11.4772 4.99667C11.2274 5.13233 10.9776 4.96276 10.7277 4.99667C10.4779 4.92885 10.2281 4.99667 10.0139 4.99667C9.76408 5.03059 9.54993 4.92885 9.3001 4.99667C9.08596 4.99667 8.83612 5.03059 8.62198 4.99667C8.40783 5.0645 8.19369 4.92885 7.97955 4.99667C7.7654 4.99667 7.55126 4.99667 7.33712 4.99667C7.12297 4.89493 6.94452 4.96276 6.73037 4.99667C6.55192 4.99667 6.33778 5.0645 6.15932 4.99667C5.98087 4.99667 5.80242 4.92885 5.62396 4.99667C5.44551 4.99667 5.26706 4.8271 5.1243 4.99667C4.94584 5.03059 4.80308 4.89493 4.66032 4.99667C4.51756 5.09842 4.37479 4.99667 4.23203 4.99667C4.08927 4.99667 3.94651 4.99667 3.83943 4.99667C2.73302 4.69145 2.0549 4.62362 2.0549 4.5897C2.0549 4.52188 2.87579 4.45405 4.30341 4.42013C4.44617 4.42013 4.58894 4.35231 4.7317 4.42013C4.87446 4.42013 5.05292 4.35231 5.19568 4.42013C5.37413 4.31839 5.51689 4.38622 5.69535 4.42013C5.8738 4.42013 6.05225 4.45405 6.23071 4.42013C6.40916 4.35231 6.6233 4.45405 6.80176 4.42013C6.98021 4.48796 7.19435 4.45405 7.4085 4.42013C7.62264 4.48796 7.83678 4.42013 8.05093 4.42013C8.26507 4.52188 8.47921 4.45405 8.69336 4.42013C8.9075 4.38622 9.15734 4.42013 9.37148 4.42013C9.58562 4.42013 9.83546 4.38622 10.0853 4.42013C10.3351 4.38622 10.5493 4.35231 10.7991 4.42013C11.0489 4.38622 11.2988 4.42013 11.5486 4.42013C11.7984 4.38622 12.0483 4.42013 12.2981 4.42013C12.5479 4.38622 12.7978 4.52188 13.0833 4.42013H13.2261C13.2975 4.42013 13.3688 4.42013 13.4402 4.42013C13.583 4.42013 13.7257 4.42013 13.8685 4.42013C13.8685 4.62362 13.8685 4.79319 13.8685 4.99667V5.23407C13.8685 5.3019 13.8685 5.36973 13.8685 5.43756C13.8685 5.57321 13.8685 5.70887 13.8685 5.81061C13.8328 5.94627 13.7971 6.08192 13.8328 6.18367C13.8328 6.21758 13.8328 6.28541 13.8328 6.31932C13.8328 6.38715 13.8328 6.42106 13.8328 6.48889C13.8328 6.62455 13.8685 6.76021 13.8685 6.86195C13.7614 6.86195 13.6187 6.86195 13.4759 6.86195H13.0833C12.9405 6.86195 12.7978 6.86195 12.6907 6.86195C12.4052 6.86195 12.1554 6.86195 11.8698 6.86195C11.62 6.89586 11.3345 6.82803 11.0846 6.86195C10.8348 6.89586 10.5493 6.82803 10.2994 6.86195C10.0496 6.89586 9.79977 6.89586 9.54993 6.86195C9.3001 6.86195 9.05026 6.76021 8.80043 6.86195C8.5506 6.89586 8.30076 6.9976 8.08662 6.86195C7.83678 6.89586 7.62264 6.79412 7.37281 6.86195C7.15866 6.76021 6.90883 6.86195 6.69468 6.86195C6.48054 6.82803 6.2664 6.79412 6.05225 6.86195C5.83811 6.89586 5.62397 6.82803 5.40982 6.86195C5.19568 6.92978 5.01722 6.79412 4.80308 6.86195C4.62463 6.86195 4.41048 6.86195 4.23203 6.86195C4.05358 6.9976 3.87512 6.86195 3.69667 6.86195C3.51822 6.82803 3.33977 6.96369 3.197 6.86195C3.01855 6.96369 2.87579 6.86195 2.73302 6.86195C2.66164 6.86195 2.59026 6.86195 2.51888 6.86195C2.48319 6.86195 2.4475 6.86195 2.41181 6.86195H2.34043C2.30474 6.86195 2.26905 6.86195 2.26905 6.86195C2.19766 6.89586 2.09059 6.89586 2.01921 6.89586C1.94783 6.89586 1.87645 6.86195 1.84076 6.86195C1.84076 6.79412 1.84076 6.76021 1.84076 6.69238C1.91214 6.31932 1.91214 6.25149 1.91214 6.18367C1.91214 6.14975 1.91214 6.11584 1.91214 6.08192C1.91214 6.04801 1.91214 6.0141 1.91214 6.0141C1.91214 5.91235 1.91214 5.81061 1.91214 5.70887C1.91214 5.60713 1.91214 5.50538 1.91214 5.43756C1.98352 4.86102 2.01921 4.5897 2.0549 4.5897Z" fill="#73523F"/>
<path d="M22.6484 2.52095C22.6841 2.52095 22.7198 2.72443 22.7555 3.06357C22.7555 3.1314 22.7555 3.19923 22.7555 3.26706C22.7555 3.33488 22.7912 3.40271 22.7555 3.47054C22.7198 3.53837 22.8625 3.64011 22.7555 3.70794C22.7198 3.80968 22.7555 3.87751 22.7555 3.97925C22.7912 4.08099 22.7198 4.18274 22.7555 4.28448C22.8625 4.38622 22.6484 4.48796 22.7555 4.5897C22.7912 4.69145 22.7912 4.79319 22.7555 4.92885C22.6841 5.03059 22.7555 5.16624 22.7555 5.26799C22.6484 5.40364 22.7198 5.50538 22.7555 5.64104C22.6127 5.7767 22.6484 5.91235 22.7555 6.04801C22.7555 6.18367 22.7198 6.31932 22.7555 6.45498C22.7555 6.59063 22.7912 6.72629 22.7555 6.89586C22.8268 7.03152 22.8268 7.20109 22.7555 7.33674C22.8625 7.4724 22.8268 7.64197 22.7555 7.81154C22.7198 7.87937 22.7555 7.98111 22.7555 8.04894V8.11677C22.7555 8.11677 22.7555 8.11677 22.7198 8.15068V8.1846C22.7555 8.1846 22.7555 8.1846 22.7912 8.1846H22.8625C22.8982 8.1846 22.9339 8.1846 23.0053 8.1846C23.0767 8.1846 23.1838 8.1846 23.2551 8.15068C23.4336 8.11677 23.612 8.08285 23.7905 8.15068C23.9689 8.04894 24.1474 8.08285 24.3259 8.15068C24.5043 8.15068 24.6828 8.21851 24.8969 8.15068C24.9326 8.15068 25.004 8.15068 25.0397 8.15068H25.0754C25.0754 8.15068 25.0754 8.15068 25.111 8.15068C25.111 8.15068 25.1467 8.15068 25.1467 8.11677V8.08285C25.1467 8.04894 25.1467 7.98111 25.111 7.9472C25.0397 7.77763 25.1467 7.60806 25.111 7.40457C25.2181 7.235 25.0754 7.06543 25.111 6.89586C25.111 6.72629 25.1467 6.55672 25.111 6.38715C25.111 6.21758 25.0754 6.04801 25.111 5.87844C24.9683 5.70887 25.1467 5.5393 25.111 5.40364C25.1824 5.23407 25.111 5.09842 25.111 4.92885C25.0754 4.75927 25.1824 4.62362 25.111 4.45405C25.111 4.31839 25.0754 4.14882 25.111 4.01317C25.0397 3.87751 25.1824 3.70794 25.111 3.57228C25.111 3.43663 25.111 3.30097 25.111 3.16531C25.1824 3.09749 25.1824 3.02966 25.1467 2.96183V2.86009C25.1467 2.82617 25.1467 2.82617 25.111 2.79226C25.468 2.75834 25.468 2.75834 25.468 2.72443C25.4323 2.72443 25.4323 2.69052 25.3966 2.69052C25.3966 2.69052 25.3609 2.69052 25.3252 2.69052C25.2895 2.69052 25.2538 2.69052 25.2181 2.72443C25.111 2.72443 24.9683 2.55486 24.8612 2.72443C24.7541 2.75834 24.6471 2.62269 24.54 2.72443C24.4329 2.82617 24.3259 2.72443 24.2188 2.72443C24.1117 2.72443 24.0403 2.72443 23.9333 2.72443C23.1481 2.62269 22.6841 2.55486 22.6484 2.52095C22.6484 2.45312 23.2194 2.38529 24.2188 2.35138C24.3259 2.35138 24.4329 2.28355 24.54 2.35138C24.6471 2.35138 24.7541 2.28355 24.8612 2.35138C24.9683 2.24963 25.0754 2.31746 25.2181 2.35138C25.2538 2.35138 25.2895 2.35138 25.3252 2.35138C25.3609 2.35138 25.3609 2.35138 25.4323 2.35138C25.5393 2.35138 25.6464 2.35138 25.7535 2.31746C25.8605 2.28355 25.9319 2.28355 26.039 2.28355C26.039 2.4192 26.0033 2.55486 26.039 2.69052C26.039 2.75834 26.0033 2.79226 26.0033 2.86009C26.0033 2.894 26.0033 2.894 26.0033 2.92792V2.96183C26.0033 3.02966 26.039 3.09749 26.039 3.16531C25.9676 3.30097 26.039 3.43663 26.039 3.57228C25.9319 3.70794 26.0033 3.8436 26.039 4.01317C26.0747 4.14882 26.039 4.31839 26.039 4.45405C26.0033 4.5897 26.0747 4.75927 26.039 4.92885C26.0747 5.09842 26.1104 5.23407 26.039 5.40364C26.0747 5.57321 26.039 5.74278 26.039 5.87844C26.0747 6.04801 26.039 6.21758 26.039 6.38715C26.0747 6.55672 25.9319 6.72629 26.039 6.89586C26.039 7.06543 26.039 7.235 26.039 7.40457C26.039 7.57414 26.0033 7.74371 26.039 7.9472C26.0033 7.98111 26.0033 8.04894 26.0033 8.08285V8.15068C26.0033 8.1846 26.0033 8.21851 26.0033 8.25243C26.0033 8.422 26.039 8.59157 26.0747 8.76114C25.8962 8.76114 25.7178 8.79505 25.5393 8.76114H25.1824C25.004 8.76114 24.8255 8.76114 24.6114 8.76114C24.4329 8.79505 24.2545 8.72722 24.076 8.76114C23.8976 8.79505 23.7191 8.72722 23.5407 8.76114C23.4693 8.76114 23.3622 8.79505 23.2908 8.79505C23.2551 8.79505 23.2194 8.79505 23.1481 8.79505C23.1124 8.79505 23.1124 8.79505 23.0767 8.79505C23.0767 8.79505 23.0767 8.79505 23.041 8.79505C23.0053 8.79505 23.0053 8.79505 22.9696 8.79505C22.8625 8.79505 22.7555 8.79505 22.6841 8.76114C22.577 8.76114 22.5056 8.72722 22.3986 8.72722C22.3986 8.62548 22.3986 8.52374 22.3629 8.45591C22.3629 8.38808 22.3629 8.32025 22.3272 8.25243C22.3272 8.21851 22.3272 8.1846 22.3272 8.15068C22.3272 8.11677 22.3272 8.11677 22.3272 8.08285C22.3272 8.01503 22.3272 7.91328 22.3986 7.84546C22.3629 7.67589 22.4699 7.54023 22.3986 7.37066C22.5056 7.235 22.3986 7.06543 22.3986 6.92978C22.4342 6.79412 22.4699 6.62455 22.3986 6.48889C22.3629 6.35324 22.4342 6.21758 22.3986 6.08192C22.3272 5.94627 22.4699 5.81061 22.3986 5.67496C22.3986 5.5393 22.3986 5.43756 22.3986 5.3019C22.2558 5.16624 22.3986 5.0645 22.3986 4.96276C22.4342 4.86102 22.2915 4.72536 22.3986 4.62362C22.2915 4.52188 22.3986 4.42013 22.3986 4.31839C22.4342 4.21665 22.3629 4.11491 22.3986 4.01317C22.3272 3.91142 22.4342 3.8436 22.3986 3.74185C22.4342 3.64011 22.3986 3.57228 22.3986 3.50445C22.3986 3.43663 22.3986 3.3688 22.3986 3.30097C22.3986 3.23314 22.3986 3.16531 22.3986 3.09749C22.577 2.69052 22.6127 2.52095 22.6484 2.52095Z" fill="#73523F"/>
<path d="M27.1454 0.38436C27.1811 0.38436 27.2168 0.55393 27.2525 0.859157C27.2525 0.926985 27.2525 0.960899 27.2525 1.02873C27.2525 1.09656 27.2882 1.16438 27.2525 1.23221C27.2168 1.30004 27.3596 1.36787 27.2525 1.4357C27.2168 1.50352 27.2525 1.57135 27.2525 1.67309C27.2882 1.74092 27.2168 1.84266 27.2525 1.91049C27.2882 1.94441 27.2882 2.01224 27.2525 2.04615C27.2525 2.08006 27.2168 2.08006 27.2168 2.11398V2.14789C27.2168 2.14789 27.2168 2.18181 27.2525 2.21572C27.2882 2.35138 27.2882 2.52095 27.2525 2.69052V2.72443C27.1454 2.69052 27.1097 2.69052 27.0383 2.72443C26.967 2.72443 26.8956 2.75834 26.8242 2.75834C26.7885 2.72443 26.7171 2.72443 26.6814 2.72443C26.6457 2.72443 26.6101 2.72443 26.6101 2.72443C26.5387 2.72443 26.503 2.75834 26.4316 2.79226C26.3245 2.6566 26.1818 2.69052 26.0747 2.79226C25.9676 2.79226 25.8249 2.75834 25.6821 2.79226C25.5393 2.79226 25.4323 2.82617 25.2895 2.79226C25.1467 2.86009 25.004 2.86009 24.8969 2.79226C24.7541 2.894 24.6114 2.86009 24.4686 2.79226C24.3259 2.75834 24.1831 2.86009 24.0403 2.79226C23.8976 2.79226 23.7548 2.82617 23.612 2.79226C23.4693 2.75834 23.3265 2.72443 23.1481 2.79226C23.0053 2.82617 22.8268 2.86009 22.6841 2.79226C22.5413 2.894 22.3629 2.86009 22.2201 2.79226C22.0773 2.79226 21.8989 2.75834 21.7204 2.79226C21.6847 2.79226 21.6491 2.79226 21.6134 2.79226C21.542 2.79226 21.4706 2.79226 21.3992 2.79226C21.2565 2.79226 21.078 2.79226 20.9352 2.79226C20.9352 2.62269 20.9709 2.48703 20.9709 2.35138C20.9709 2.28355 20.9709 2.21572 20.9709 2.14789C20.9709 2.11398 20.9709 2.08006 20.9352 2.04615C20.8639 1.87658 20.9709 1.74092 20.9352 1.57135C21.0423 1.4357 20.8996 1.26613 20.9352 1.13047C20.9352 1.06264 20.9352 0.994813 20.9352 0.893071C20.9352 0.859157 20.9352 0.825243 20.9352 0.791328C20.9352 0.757414 20.9352 0.757414 20.9352 0.7235C20.9352 0.689586 20.9352 0.655672 20.9352 0.621758C20.9352 0.452188 20.8996 0.248703 20.9352 0.0452188C21.0423 0.0452188 21.1137 0.0452188 21.2208 0.0791328C21.3635 0.0452188 21.542 0.0452188 21.6847 0.0452188C21.7204 0.0452188 21.7204 0.0452188 21.7204 0.0452188H21.7561C21.7918 0.0452188 21.7918 0.0452188 21.8275 0.0452188C21.8632 0.0452188 21.8989 0.0452188 21.9346 0.0452188C22.0773 0.113047 22.2201 0.0452188 22.3629 0.0452188C22.5056 0.0113047 22.6484 0.113047 22.7912 0.0452188C22.9339 0.0452188 23.0767 0.0113047 23.1838 0.0452188C23.3265 -0.0226094 23.4336 0.113047 23.5763 0.0452188C23.7191 0.0452188 23.8262 0.0452188 23.9689 0.0452188C24.076 0.146961 24.2188 0.0791328 24.3259 0.0452188C24.4329 0.0452188 24.54 -0.0226094 24.6828 0.0452188C24.7898 0.0452188 24.8969 0.113047 25.004 0.0452188C25.111 0.0452188 25.2181 0.214789 25.3252 0.0452188C25.4323 0.0113047 25.5036 0.146961 25.6107 0.0452188C25.7178 -0.0565235 25.7892 0.0452188 25.8605 0.0452188C25.9319 0.0452188 26.039 0.0452188 26.1104 0.0452188C26.7528 0.282617 27.1811 0.350445 27.1454 0.38436C27.1454 0.452188 26.6457 0.520016 25.7892 0.55393C25.7178 0.55393 25.6107 0.621758 25.5393 0.55393C25.4323 0.55393 25.3609 0.621758 25.2538 0.55393C25.1467 0.655672 25.0397 0.587844 24.9326 0.55393C24.8255 0.55393 24.7184 0.520016 24.6114 0.55393C24.5043 0.621758 24.3972 0.520016 24.2545 0.55393C24.1474 0.486102 24.0046 0.520016 23.8976 0.55393C23.7905 0.486102 23.6477 0.55393 23.505 0.55393C23.3622 0.452188 23.2551 0.520016 23.1124 0.55393C22.9696 0.587844 22.8268 0.55393 22.7198 0.55393C22.577 0.520016 22.4342 0.587844 22.2915 0.55393C22.1844 0.7235 22.0417 0.7235 21.8989 0.689586C21.8632 0.689586 21.8275 0.689586 21.7918 0.689586C21.7561 0.689586 21.7561 0.689586 21.7204 0.689586H21.6134C21.6134 0.689586 21.6134 0.689586 21.6134 0.7235C21.6134 0.757414 21.6134 0.757414 21.6134 0.791328C21.6134 0.825243 21.6134 0.859157 21.5777 0.893071C21.5777 0.960899 21.542 1.02873 21.6134 1.13047C21.6134 1.26613 21.6134 1.4357 21.6134 1.57135C21.6134 1.70701 21.5777 1.87658 21.6134 2.04615C21.5777 2.08006 21.5777 2.11398 21.5777 2.14789V2.18181C21.5777 2.21572 21.6134 2.21572 21.6491 2.18181C21.6847 2.18181 21.6847 2.14789 21.6847 2.18181H21.7918C21.9703 2.18181 22.113 2.18181 22.2915 2.18181C22.4342 2.14789 22.6127 2.21572 22.7555 2.18181C22.8982 2.14789 23.0767 2.21572 23.2194 2.18181C23.3622 2.14789 23.5407 2.14789 23.6834 2.18181C23.8262 2.18181 23.9689 2.28355 24.1117 2.18181C24.2545 2.14789 24.3972 2.04615 24.54 2.18181C24.6828 2.14789 24.8255 2.24963 24.9683 2.18181C25.111 2.28355 25.2538 2.18181 25.3609 2.18181C25.5036 2.21572 25.6107 2.24963 25.7535 2.18181C25.8962 2.14789 26.0033 2.21572 26.1461 2.18181C26.2531 2.11398 26.3959 2.24963 26.503 2.18181C26.5744 2.18181 26.6101 2.18181 26.6814 2.18181C26.7171 2.18181 26.7528 2.18181 26.7528 2.18181C26.7528 2.11398 26.7528 2.11398 26.7885 2.11398C26.7885 2.11398 26.8599 2.14789 26.8956 2.18181C26.8956 2.18181 26.8956 2.14789 26.8599 2.11398C26.8599 2.08006 26.8599 2.08006 26.8956 2.08006H26.8599V2.04615C26.8599 2.01224 26.8599 2.01223 26.8599 1.97832C26.8599 1.94441 26.8956 1.87658 26.9313 1.84266C26.967 1.74092 26.8956 1.67309 26.9313 1.60527C26.8599 1.53744 26.967 1.4357 26.9313 1.36787C26.967 1.30004 26.9313 1.23221 26.9313 1.16438C26.9313 1.09656 26.9313 1.02873 26.9313 0.960899C26.9313 0.893071 26.9313 0.859157 26.9313 0.791328C27.074 0.55393 27.1097 0.38436 27.1454 0.38436Z" fill="#73523F"/>
<path d="M3.76805 13.0682C3.80374 13.0682 3.83943 13.2039 3.87512 13.4752C3.87512 13.5091 3.87512 13.5769 3.87512 13.6108C3.87512 13.6448 3.91081 13.7126 3.87512 13.7804C3.83943 13.8482 3.9822 13.8822 3.87512 13.95C3.83943 14.0178 3.87512 14.0856 3.87512 14.1535C3.91081 14.2213 3.83943 14.2891 3.87512 14.357C3.9822 14.4248 3.76805 14.4926 3.87512 14.5944C3.91081 14.6622 3.91081 14.7639 3.87512 14.8318C3.80374 14.8996 3.87512 15.0013 3.87512 15.0692C3.76805 15.1709 3.83943 15.2387 3.87512 15.3405C3.73236 15.4422 3.76805 15.51 3.87512 15.6118C3.87512 15.7135 3.83943 15.8153 3.87512 15.917C3.87512 16.0187 3.87512 16.0866 3.87512 16.1883C3.87512 16.2901 3.87512 16.3579 3.87512 16.4596C3.87512 16.4935 3.91081 16.5275 3.91081 16.5614C3.80374 16.5953 3.55391 16.5953 3.37546 16.5275C3.33976 16.5614 3.26838 16.5614 3.23269 16.5614C3.197 16.5614 3.16131 16.5614 3.16131 16.5614C3.08993 16.5614 3.05424 16.5275 2.98286 16.5275C2.87579 16.4935 2.73302 16.5953 2.62595 16.5275C2.51888 16.5275 2.37612 16.5614 2.26905 16.5275C2.16197 16.4935 2.01921 16.4596 1.91214 16.5275C1.76938 16.5614 1.66231 16.5953 1.51954 16.5275C1.37678 16.6292 1.26971 16.5953 1.12695 16.5275C0.984184 16.5275 0.877112 16.4935 0.734349 16.5275H0.662968C0.627277 16.5275 0.591587 16.5275 0.555896 16.5275C0.484515 16.5275 0.413134 16.5275 0.377443 16.5275C0.234681 16.5275 0.127609 16.5275 0.0205369 16.5275C0.0205369 16.3918 0.0562275 16.2561 0.0562275 16.1544C0.0562275 16.0866 0.0562275 16.0527 0.0562275 15.9848C0.0562275 15.9509 0.0562275 15.917 0.0562275 15.917V15.8831C0.0562275 15.8831 0.0562275 15.8831 0.0562275 15.8492C-0.0151537 15.7135 0.0919181 15.6118 0.0562275 15.4761C0.163299 15.3405 0.0205369 15.2387 0.0562275 15.1031C0.0562275 14.9674 0.0919181 14.8657 0.0562275 14.73C0.0562275 14.5944 0.0205369 14.4926 0.0562275 14.3909C-0.086535 14.2891 0.0919181 14.1535 0.0562275 14.0517C0.127609 13.95 0.0562275 13.8143 0.0562275 13.7126C0.0562275 13.6448 0.0562275 13.6108 0.0562275 13.543C0.0562275 13.5091 0.0562275 13.4752 0.0562275 13.4752C0.0562275 13.4752 0.0562275 13.4752 0.0562275 13.4413V13.4074C0.0562275 13.3735 0.0562275 13.3735 0.0562275 13.3395C0.0562275 13.2378 0.0562275 13.17 0.0562275 13.0682C0.0562275 12.9665 0.0562275 12.8647 0.0562275 12.7969H0.0919181C0.163299 12.763 0.270371 12.763 0.377443 12.7969C0.484515 12.7969 0.555896 12.8308 0.662968 12.7969C0.734349 12.7969 0.77004 12.7969 0.841421 12.7969C0.877112 12.7969 0.948493 12.7969 0.984184 12.7969C1.09126 12.8987 1.19833 12.8308 1.26971 12.7969C1.37678 12.7969 1.44816 12.7291 1.55523 12.7969C1.66231 12.7969 1.73369 12.8647 1.80507 12.7969C1.87645 12.7969 1.98352 12.9665 2.0549 12.7969C2.12628 12.763 2.19766 12.8987 2.30474 12.7969C2.37612 12.6952 2.4475 12.7969 2.51888 12.7969C2.59026 12.7969 2.66164 12.7969 2.73302 12.7969C3.44684 12.9665 3.80374 13.0343 3.76805 13.0682C3.76805 13.1361 3.37546 13.2039 2.66164 13.2378C2.59026 13.2378 2.51888 13.3056 2.4475 13.2378C2.37612 13.2378 2.30474 13.3056 2.19766 13.2378C2.12628 13.3395 2.01921 13.2717 1.94783 13.2378C1.87645 13.2378 1.76938 13.2039 1.698 13.2378C1.59092 13.3056 1.51954 13.2039 1.41247 13.2378C1.3054 13.17 1.23402 13.2039 1.12695 13.2378C1.09126 13.2039 1.01987 13.2039 0.984184 13.2378C0.948493 13.2378 0.948493 13.2378 0.912802 13.2717H0.877112C0.841421 13.2378 0.841421 13.2039 0.805731 13.2378C0.805731 13.2378 0.805731 13.2717 0.805731 13.3056C0.805731 13.3395 0.805731 13.3395 0.805731 13.3395V13.4074C0.805731 13.4413 0.805731 13.4752 0.805731 13.4752C0.805731 13.543 0.805731 13.5769 0.805731 13.6448C0.841421 13.7465 0.877112 13.8822 0.805731 13.9839C0.841421 14.0856 0.805731 14.2213 0.805731 14.323C0.841421 14.4248 0.805731 14.5604 0.805731 14.6622C0.841421 14.7978 0.698659 14.8996 0.805731 15.0352C0.805731 15.1709 0.805731 15.2726 0.805731 15.4083C0.805731 15.544 0.77004 15.6457 0.805731 15.7813C0.805731 15.7813 0.805731 15.7813 0.805731 15.8153V15.8492C0.805731 15.8492 0.841421 15.8492 0.877112 15.8492C0.912802 15.8492 0.912802 15.8153 0.912802 15.8492H0.948493C1.09126 15.8492 1.19833 15.8492 1.34109 15.8492C1.48385 15.8153 1.59092 15.8831 1.73369 15.8492C1.87645 15.8153 1.98352 15.8831 2.12628 15.8492C2.26905 15.8153 2.37612 15.8153 2.48319 15.8492C2.59026 15.8492 2.73302 15.9509 2.8401 15.8492C2.94717 15.8153 3.08993 15.7135 3.197 15.8492C3.26838 15.8153 3.30407 15.8492 3.37546 15.8492C3.41115 15.8492 3.44684 15.8492 3.44684 15.8492C3.44684 15.8492 3.44684 15.8492 3.44684 15.8153C3.48253 15.8492 3.48253 15.8492 3.51822 15.8492V15.8153C3.51822 15.8153 3.55391 15.8153 3.55391 15.7813C3.55391 15.7813 3.55391 15.7474 3.51822 15.7474C3.48253 15.6457 3.55391 15.544 3.51822 15.4422C3.44684 15.3405 3.5896 15.2387 3.51822 15.1709C3.51822 15.0692 3.51822 15.0013 3.51822 14.8996C3.37546 14.7978 3.51822 14.73 3.51822 14.6622C3.55391 14.5944 3.41115 14.4926 3.51822 14.4248C3.41115 14.357 3.51822 14.2891 3.51822 14.1874C3.55391 14.1196 3.48253 14.0517 3.51822 13.9839C3.44684 13.9161 3.55391 13.8482 3.51822 13.7804C3.55391 13.7126 3.51822 13.6787 3.51822 13.6108C3.51822 13.543 3.51822 13.5091 3.51822 13.4413C3.51822 13.4074 3.51822 13.3395 3.51822 13.3056C3.69667 13.2378 3.73236 13.0682 3.76805 13.0682Z" fill="#73523F"/>
<path d="M0.520206 17.1379C0.484515 17.1379 0.448824 17.0701 0.413134 16.9683C0.413134 16.9344 0.413134 16.9344 0.413134 16.9005C0.413134 16.8666 0.377443 16.8666 0.413134 16.8327C0.448824 16.7988 0.306062 16.7988 0.413134 16.7649C0.448824 16.7309 0.413134 16.697 0.413134 16.697C0.377443 16.6631 0.448824 16.6292 0.413134 16.5953C0.306062 16.5614 0.520206 16.5275 0.413134 16.4935C0.377443 16.4596 0.377443 16.4257 0.413134 16.3918C0.484515 16.3579 0.413134 16.324 0.413134 16.2901C0.520206 16.2561 0.448824 16.2222 0.413134 16.1883C0.555896 16.1544 0.520206 16.1205 0.413134 16.0866C0.413134 16.0527 0.448824 16.0187 0.413134 15.9509C0.413134 15.917 0.377443 15.8831 0.413134 15.8153C0.341753 15.7814 0.341753 15.7135 0.413134 15.6796C0.306062 15.6457 0.341753 15.5779 0.413134 15.544C0.448824 15.51 0.341753 15.4422 0.413134 15.4083C0.413134 15.3744 0.377443 15.3066 0.413134 15.2726C0.448824 15.2387 0.484515 15.1709 0.413134 15.137C0.377443 15.1031 0.377443 15.0352 0.413134 14.9674C0.306062 14.8996 0.341753 14.8657 0.413134 14.7978C0.413134 14.73 0.448824 14.6961 0.413134 14.6283C0.413134 14.5604 0.377443 14.5265 0.413134 14.4587C0.448824 14.3909 0.484515 14.357 0.413134 14.2891C0.341753 14.2213 0.448824 14.1874 0.413134 14.1196C0.520206 14.0517 0.377443 14.0178 0.413134 13.95C0.413134 13.8822 0.448824 13.8482 0.413134 13.8143C0.413134 13.7804 0.377443 13.7126 0.413134 13.6787C0.270371 13.6448 0.448824 13.5769 0.413134 13.543C0.484515 13.5091 0.413134 13.4413 0.413134 13.4074C0.377443 13.3735 0.484515 13.3056 0.413134 13.2717C0.413134 13.2378 0.377443 13.17 0.413134 13.1361C0.341753 13.1021 0.484515 13.0343 0.413134 13.0004C0.413134 12.9665 0.413134 12.9326 0.413134 12.8647C0.520206 12.8308 0.448824 12.7969 0.413134 12.763C0.413134 12.7291 0.341753 12.6952 0.413134 12.6613C0.413134 12.6273 0.484515 12.5934 0.413134 12.5595C0.413134 12.5256 0.591587 12.4917 0.413134 12.4578C0.377443 12.4239 0.520206 12.3899 0.413134 12.356C0.306062 12.3221 0.413134 12.2882 0.413134 12.2543C0.413134 12.2204 0.413134 12.1865 0.413134 12.1865C0.448824 11.9491 0.520206 11.8134 0.591587 11.8134C0.662968 11.8134 0.734349 11.983 0.77004 12.2543C0.77004 12.2882 0.841421 12.3221 0.77004 12.356C0.77004 12.3899 0.841421 12.4239 0.77004 12.4578C0.877112 12.4917 0.805731 12.5256 0.77004 12.5595C0.77004 12.5934 0.734349 12.6273 0.77004 12.6613C0.841421 12.6952 0.734349 12.7291 0.77004 12.763C0.698659 12.7969 0.734349 12.8308 0.77004 12.8647C0.698659 12.8987 0.77004 12.9326 0.77004 13.0004C0.662968 13.0343 0.734349 13.0682 0.77004 13.1361C0.805731 13.17 0.77004 13.2378 0.77004 13.2717C0.734349 13.3056 0.805731 13.3735 0.77004 13.4074C0.805731 13.4413 0.841421 13.5091 0.77004 13.543C0.805731 13.5769 0.77004 13.6448 0.77004 13.6787C0.805731 13.7126 0.77004 13.7804 0.77004 13.8143C0.805731 13.8482 0.662968 13.9161 0.77004 13.95C0.77004 14.0178 0.77004 14.0517 0.77004 14.1196C0.77004 14.1874 0.734349 14.2213 0.77004 14.2891C0.662968 14.357 0.734349 14.3909 0.77004 14.4587C0.805731 14.5265 0.77004 14.5604 0.77004 14.6283C0.77004 14.6961 0.77004 14.73 0.77004 14.7978C0.805731 14.8657 0.734349 14.8996 0.77004 14.9674C0.805731 15.0352 0.734349 15.0692 0.77004 15.137C0.805731 15.1709 0.805731 15.2387 0.77004 15.2726C0.77004 15.3066 0.662968 15.3744 0.77004 15.4083C0.805731 15.4422 0.912803 15.51 0.77004 15.544C0.805731 15.5779 0.698659 15.6457 0.77004 15.6796C0.662968 15.7135 0.77004 15.7814 0.77004 15.8153C0.734349 15.8492 0.698659 15.917 0.77004 15.9509C0.805731 15.9848 0.734349 16.0187 0.77004 16.0866C0.841421 16.1205 0.698659 16.1544 0.77004 16.1883C0.77004 16.2222 0.77004 16.2561 0.77004 16.2901C0.912803 16.324 0.77004 16.3579 0.77004 16.3918C0.734349 16.4257 0.877112 16.4596 0.77004 16.4935C0.877112 16.5275 0.77004 16.5614 0.77004 16.5953C0.734349 16.6292 0.805731 16.6631 0.77004 16.697C0.841421 16.7309 0.734349 16.7649 0.77004 16.7649C0.734349 16.7988 0.77004 16.7988 0.77004 16.8327C0.77004 16.8666 0.77004 16.8666 0.77004 16.9005C0.77004 16.9344 0.77004 16.9344 0.77004 16.9683C0.591587 17.0701 0.555896 17.1379 0.520206 17.1379Z" fill="#73523F"/>
</svg>
