<svg width="24" height="20" viewBox="0 0 24 20" fill="none" xmlns="http://www.w3.org/2000/svg">
<path d="M0.033195 6.52773C0.06639 6.52773 0.06639 6.69405 0.0995851 7.05994C0.0995851 7.22626 0.13278 7.42584 0.13278 7.69194C0.13278 7.82499 0.165975 7.95805 0.165975 8.0911C0.165975 8.15762 0.165975 8.22415 0.19917 8.32394C0.19917 8.39047 0.232365 8.49025 0.232365 8.55678C0.232365 8.65657 0.26556 8.78962 0.26556 8.88941C0.298755 8.9892 0.298755 9.12225 0.33195 9.25531C0.33195 9.32183 0.365145 9.38836 0.365145 9.45489C0.365145 9.52141 0.39834 9.58794 0.39834 9.65446C0.431535 9.78752 0.431535 9.92057 0.46473 10.0536C0.46473 10.1867 0.53112 10.3197 0.564315 10.486C0.59751 10.6191 0.6639 10.7854 0.6639 10.9185C0.697095 11.0848 0.73029 11.2178 0.763485 11.3841C0.796681 11.5505 0.863071 11.6835 0.929461 11.8498C0.995851 12.0161 1.02905 12.1825 1.09544 12.3488C1.12863 12.5151 1.19502 12.6814 1.29461 12.8477C1.29461 12.9142 1.3278 12.9808 1.361 13.0806C1.39419 13.1804 1.42739 13.2469 1.42739 13.3467C1.49378 13.513 1.52697 13.7126 1.65975 13.8789C1.75934 14.0452 1.85892 14.2115 1.92531 14.4111C1.95851 14.5109 2.0249 14.5774 2.05809 14.6772C2.09129 14.777 2.15768 14.8435 2.19087 14.9433C2.32365 15.3425 2.62241 15.6751 2.88797 16.0077C3.08714 16.4069 3.38589 16.7395 3.75104 17.0389C3.9834 17.4713 4.34855 17.7707 4.78008 18.0035C5.14523 18.3029 5.51037 18.6355 5.9751 18.8683C6.07469 18.9349 6.20747 19.0014 6.30705 19.0679C6.37344 19.1012 6.40664 19.1344 6.47303 19.1677L6.57261 19.201H6.73859C6.80498 19.201 6.87137 19.201 6.93776 19.201C7.07054 19.201 7.20332 19.201 7.3361 19.201C7.86722 19.1344 8.39834 19.1344 8.96266 19.201C9.52697 19.1012 10.0581 19.1344 10.6556 19.201C11.2199 19.2342 11.8174 19.1344 12.3817 19.201C12.9793 19.201 13.5436 19.1677 14.1743 19.201C14.7718 19.2342 15.3693 19.2675 16 19.201C16.2988 19.201 16.6307 19.1677 16.9295 19.1677H17.029L17.195 19.0679C17.3278 19.0014 17.4606 18.9349 17.5934 18.8351C18.0581 18.4359 18.556 18.1033 19.0539 17.7041C19.5187 17.2717 19.9834 16.8726 20.3485 16.3403C20.7469 15.8414 21.0788 15.2759 21.4108 14.7437C21.7427 14.1782 22.0415 13.6128 22.2407 13.014C22.4066 12.4153 22.6722 11.8166 22.805 11.1846C23.0373 10.5858 23.0373 9.95383 23.1701 9.3551C23.2365 8.75636 23.3693 8.12436 23.3361 7.52563C23.3361 7.35931 23.3361 7.22626 23.3361 7.05994V6.8271C23.3361 6.8271 23.3361 6.8271 23.3029 6.8271C23.1369 6.8271 23.0041 6.8271 22.8382 6.79384C22.2407 6.92689 21.6432 6.76057 21.0456 6.79384C20.4481 6.72731 19.8838 6.79384 19.3195 6.79384C18.7552 6.8271 18.1909 6.72731 17.6266 6.79384C17.0622 6.79384 16.5311 6.8271 16 6.79384C15.4689 6.86036 14.9378 6.72731 14.4398 6.79384C13.9419 6.79384 13.4108 6.79384 12.9461 6.79384C12.4481 6.69405 11.9834 6.76057 11.5187 6.79384C11.0539 6.79384 10.5892 6.86036 10.1577 6.79384C9.72614 6.79384 9.29461 6.72731 8.86307 6.79384C8.43153 6.79384 8.03319 6.66079 7.63485 6.79384C7.23651 6.8271 6.87137 6.69405 6.47303 6.79384C6.10788 6.89363 5.74274 6.79384 5.41079 6.79384C5.07884 6.79384 4.74689 6.79384 4.44813 6.79384C3.05394 6.76057 1.95851 6.76057 1.19502 6.72731C0.431535 6.59426 0.033195 6.561 0.033195 6.52773C0.033195 6.49447 0.53112 6.46121 1.46058 6.42794C2.39004 6.39468 3.71784 6.36142 5.44398 6.36142C5.77593 6.36142 6.14108 6.29489 6.50622 6.36142C6.87137 6.36142 7.26971 6.29489 7.66805 6.36142C8.06639 6.26163 8.46473 6.32815 8.89627 6.36142C9.3278 6.36142 9.75934 6.39468 10.1909 6.36142C10.6224 6.29489 11.0871 6.39468 11.5519 6.36142C12.0166 6.42794 12.5145 6.39468 12.9793 6.36142C13.4772 6.42794 13.9751 6.36142 14.473 6.36142C14.971 6.46121 15.5021 6.39468 16.0332 6.36142C16.5643 6.32815 17.0954 6.36142 17.6597 6.36142C18.2241 6.39468 18.7552 6.32815 19.3527 6.36142C19.917 6.32815 20.5145 6.29489 21.0788 6.36142C21.6763 6.32815 22.2407 6.36142 22.8714 6.36142C23.0373 6.36142 23.1701 6.36142 23.3361 6.36142C23.4689 6.36142 23.6017 6.36142 23.7344 6.36142H24V6.52773C24 6.76057 24 6.99342 24 7.22626C24 7.39257 24 7.52563 23.9668 7.69194C23.9668 8.32394 23.8008 8.92268 23.8008 9.58794C23.7344 10.2199 23.5685 10.8519 23.4357 11.4839C23.2697 12.1159 23.0705 12.7479 22.8382 13.3799C22.5062 13.9787 22.2739 14.5774 21.9751 15.2094C21.6763 15.8081 21.278 16.3736 20.8465 16.8726C20.4481 17.4048 19.9834 17.8704 19.4855 18.3361C19.4191 18.4027 19.3527 18.4359 19.3195 18.5024C19.2531 18.569 19.1867 18.6022 19.1203 18.6688C18.9876 18.7685 18.8548 18.8683 18.722 18.9681C18.5892 19.0679 18.4564 19.1677 18.3237 19.2342C18.1909 19.334 18.0581 19.4338 17.9253 19.5003C17.7925 19.6001 17.6598 19.6999 17.527 19.7664L17.2614 19.8995L17.2282 19.9328C17.195 19.9328 17.195 19.9328 17.1618 19.9328H16.9295C16.6307 19.9328 16.2988 19.8995 16 19.9328C15.3693 19.966 14.7718 19.966 14.1743 19.9328C13.5768 19.9328 12.9793 19.833 12.3817 19.9328C11.7842 19.966 11.2199 20.0658 10.6556 19.9328C10.0913 19.966 9.52697 19.8662 8.96266 19.9328C8.39834 19.833 7.86722 19.9328 7.3361 19.9328C7.20332 19.9328 7.07054 19.9328 6.93776 19.9328C6.87137 19.9328 6.80498 19.9328 6.73859 19.9328H6.47303C6.40664 19.8995 6.34025 19.833 6.24066 19.7997C6.17427 19.7664 6.14108 19.7332 6.07469 19.6999C5.9751 19.6334 5.84232 19.5669 5.74274 19.5003C5.27801 19.2675 4.91286 18.9016 4.51452 18.569C4.41494 18.5024 4.31535 18.4027 4.21577 18.3361C4.18257 18.3029 4.11618 18.2363 4.08299 18.2031C4.04979 18.1698 4.0166 18.1033 3.95021 18.07C3.78423 17.9037 3.61826 17.7041 3.45228 17.5378C3.15353 17.1719 2.82158 16.8393 2.58921 16.4401C2.48963 16.3736 2.42324 16.2738 2.35685 16.2073C2.29046 15.9079 2.25726 15.8081 2.19087 15.7416C2.12448 15.6418 2.09129 15.542 2.05809 15.4422C2.0249 15.3425 1.95851 15.2427 1.92531 15.1429C1.89212 15.0431 1.82573 14.9433 1.75934 14.8768C1.69295 14.777 1.65975 14.7105 1.59336 14.6107C1.49378 14.4443 1.39419 14.2448 1.361 14.0452C1.22822 13.8789 1.16183 13.7126 1.09544 13.513C1.06224 13.4132 1.02905 13.3134 1.02905 13.2469C0.995851 13.1471 0.962656 13.0473 0.962656 12.9808C0.929461 12.8145 0.829876 12.6481 0.763485 12.4486C0.697095 12.2822 0.630705 12.1159 0.630705 11.9496C0.564315 11.7833 0.497925 11.617 0.497925 11.4507C0.46473 11.2844 0.46473 11.118 0.39834 10.985C0.39834 10.8187 0.365145 10.6856 0.33195 10.5193C0.298755 10.3863 0.26556 10.2199 0.232365 10.0869C0.19917 9.95383 0.165975 9.82078 0.165975 9.68773C0.165975 9.6212 0.13278 9.55467 0.13278 9.48815C0.13278 9.42162 0.13278 9.3551 0.13278 9.28857C0.13278 9.15552 0.0995851 9.05573 0.0995851 8.92268C0.0995851 8.78962 0.06639 8.68983 0.06639 8.59004C0.06639 8.52352 0.06639 8.42373 0.033195 8.3572C0.033195 8.29068 0.033195 8.19089 0.033195 8.12436C0.033195 7.99131 0.033195 7.85826 0.033195 7.7252C0.033195 7.4591 0.033195 7.25952 0.033195 7.0932C0 6.72731 0 6.52773 0.033195 6.52773Z" fill="#73523F"/>
<path d="M0.033195 6.52773C0.06639 6.52773 0.06639 6.66079 0.0995851 6.96015C0.0995851 7.02668 0.0995851 7.0932 0.0995851 7.19299C0.0995851 7.29278 0.0995851 7.35931 0.13278 7.4591C0.13278 7.55889 0.165975 7.65868 0.165975 7.79173C0.165975 7.89152 0.19917 8.02457 0.19917 8.15762C0.232365 8.32394 0.232365 8.52352 0.26556 8.7231C0.26556 8.85615 0.298755 8.88941 0.298755 8.95594V8.9892H0.33195C0.365145 8.9892 0.39834 8.9892 0.431535 8.9892C0.46473 8.9892 0.46473 8.9892 0.497925 8.9892C0.53112 8.9892 0.564315 8.9892 0.59751 8.9892C0.6639 8.9892 0.73029 8.9892 0.763485 8.95594C0.896266 8.92268 0.995851 8.92268 1.12863 8.95594C1.39419 8.9892 1.65975 8.95594 1.92531 8.95594C2.19087 8.92268 2.48963 8.9892 2.78838 8.95594C3.08714 8.85615 3.38589 9.05573 3.71784 8.95594C4.04979 8.92268 4.38174 8.92268 4.71369 8.95594C5.04564 9.02246 5.41079 8.95594 5.77593 8.95594C6.14108 9.05573 6.50622 8.9892 6.87137 8.95594C7.23651 9.08899 7.63485 9.05573 8.03319 8.95594C8.43153 8.95594 8.82987 8.9892 9.26141 8.95594C9.65975 8.95594 10.0913 8.92268 10.5228 8.95594C10.9544 8.88941 11.3859 8.88941 11.8506 8.95594C12.2822 8.85615 12.7469 8.88941 13.2116 8.95594C13.6763 8.9892 14.1411 8.88941 14.6058 8.95594C15.0705 8.95594 15.5685 8.92268 16.0332 8.95594C16.5311 8.9892 16.9958 9.02246 17.4938 8.95594C17.9917 8.92268 18.4896 8.92268 18.9876 8.95594C19.4855 8.85615 20.0166 8.88941 20.5145 8.95594C21.0456 8.95594 21.5436 8.9892 22.0747 8.95594C22.3402 8.95594 22.6058 8.95594 22.8714 8.95594H23.2033C23.2033 8.95594 23.2033 8.95594 23.2365 8.95594V8.92268L23.2697 8.7231C23.3029 8.59004 23.3029 8.45699 23.3029 8.32394C23.3029 8.19089 23.3361 8.05783 23.3361 7.92478C23.3361 7.79173 23.3361 7.65868 23.3361 7.52563C23.3361 7.4591 23.3361 7.39257 23.3361 7.32605C23.3361 7.25952 23.3361 7.19299 23.3361 7.12647V6.96015C23.3361 6.96015 23.3361 6.96015 23.3029 6.96015H23.1701C23.1037 6.96015 23.0373 6.96015 22.971 6.96015C22.4398 6.86036 21.9419 6.99342 21.444 6.96015C20.9461 6.96015 20.4481 6.92689 19.9502 6.96015C19.4523 6.96015 18.9544 6.99342 18.4896 6.96015C17.9917 7.09321 17.527 6.92689 17.0622 6.96015C16.5975 6.89363 16.1328 6.96015 15.668 6.96015C15.2033 6.99342 14.7718 6.89363 14.3071 6.96015C13.8755 6.96015 13.4108 6.99342 12.9793 6.96015C12.5477 7.02668 12.1162 6.89363 11.7178 6.96015C11.3195 6.96015 10.888 6.96015 10.4896 6.96015C10.0913 6.86036 9.69295 6.92689 9.3278 6.96015C8.96266 6.96015 8.56431 7.02668 8.23236 6.96015C7.86722 6.96015 7.53527 6.89363 7.17012 6.96015C6.83817 6.96015 6.50622 6.8271 6.17427 6.96015C5.84232 6.99342 5.54357 6.86036 5.24481 6.96015C4.94606 7.05994 4.6473 6.96015 4.38174 6.96015C4.11618 6.96015 3.85062 6.96015 3.58506 6.96015C2.45643 6.92689 1.56017 6.92689 0.962656 6.89363C0.365145 6.59426 0.033195 6.561 0.033195 6.52773C0.033195 6.49447 0.431535 6.46121 1.19502 6.42794C1.92531 6.39468 3.02075 6.36142 4.41494 6.36142C4.6805 6.36142 4.97925 6.29489 5.27801 6.36142C5.57676 6.36142 5.87552 6.29489 6.20747 6.36142C6.53942 6.26163 6.87137 6.32815 7.20332 6.36142C7.53527 6.36142 7.90041 6.39468 8.26556 6.36142C8.6307 6.29489 8.99585 6.39468 9.361 6.36142C9.72614 6.42794 10.1245 6.39468 10.5228 6.36142C10.9212 6.42794 11.3195 6.36142 11.751 6.36142C12.1494 6.46121 12.5809 6.39468 13.0124 6.36142C13.444 6.32815 13.8755 6.36142 14.3402 6.36142C14.7718 6.39468 15.2365 6.32815 15.7012 6.36142C16.166 6.32815 16.6307 6.29489 17.0954 6.36142C17.5602 6.32815 18.0581 6.36142 18.5228 6.36142C19.0207 6.32815 19.4855 6.36142 19.9834 6.36142C20.4813 6.32815 20.9793 6.46121 21.4772 6.36142C21.9751 6.36142 22.5062 6.36142 23.0041 6.36142C23.1369 6.36142 23.2697 6.36142 23.4357 6.36142C23.5685 6.36142 23.6681 6.36142 23.8008 6.36142H24V6.49447C24 6.62752 24 6.72731 24 6.86036V7.52563C23.9668 7.65868 23.9336 7.79173 23.9336 7.92478C23.9336 8.05783 23.9004 8.19089 23.9004 8.32394C23.9004 8.45699 23.9004 8.59004 23.9004 8.7231V9.58794C23.9004 9.6212 23.8672 9.58794 23.8672 9.58794H23.834C23.7012 9.58794 23.5685 9.58794 23.4689 9.58794H23.0041C22.7386 9.58794 22.473 9.58794 22.2075 9.58794C21.6763 9.58794 21.1452 9.58794 20.6473 9.58794C20.1162 9.6212 19.6183 9.55467 19.1203 9.58794C18.6224 9.6212 18.1245 9.55467 17.6266 9.58794C17.1286 9.6212 16.6307 9.6212 16.166 9.58794C15.668 9.58794 15.2033 9.48815 14.7386 9.58794C14.2739 9.6212 13.8091 9.72099 13.3444 9.58794C12.8797 9.6212 12.4481 9.52141 11.9834 9.58794C11.5519 9.48815 11.0871 9.58794 10.6556 9.58794C10.2241 9.55467 9.79253 9.52141 9.39419 9.58794C8.99585 9.6212 8.56431 9.55467 8.16597 9.58794C7.76763 9.65446 7.36929 9.52141 7.00415 9.58794C6.639 9.58794 6.24066 9.58794 5.90871 9.58794C5.54357 9.72099 5.21162 9.58794 4.84647 9.58794C4.51452 9.55467 4.18257 9.68773 3.85062 9.58794C3.51867 9.68773 3.21992 9.58794 2.92116 9.58794C2.62241 9.55467 2.32365 9.6212 2.05809 9.58794C1.79253 9.65446 1.52697 9.55467 1.26141 9.58794C1.12863 9.55467 1.02905 9.55467 0.896266 9.55467C0.829875 9.55467 0.763485 9.55467 0.73029 9.55467C0.697095 9.55467 0.6639 9.55467 0.630705 9.55467H0.497925C0.431535 9.55467 0.33195 9.55467 0.26556 9.55467H0.06639C0.06639 9.52141 0.06639 9.48815 0.06639 9.42162C0.06639 9.25531 0.033195 9.08899 0.033195 9.02246C0 8.82289 0 8.62331 0 8.45699C0 8.32394 0 8.19089 0 8.0911C0 7.95805 0 7.85826 0 7.75847C0 7.65868 0 7.55889 0 7.49236C0 7.39257 0 7.32605 0 7.25952C0 6.69405 0 6.52773 0.033195 6.52773Z" fill="#73523F"/>
<path d="M11.8506 5.23047C11.8174 5.26374 11.751 5.23047 11.6846 5.16395L11.6183 5.09742C11.6515 5.06416 11.5187 5.09742 11.5851 5.06416C11.5851 5.03089 11.5851 5.03089 11.5519 4.99763C11.5187 4.99763 11.5519 4.9311 11.5187 4.9311C11.4191 4.9311 11.6183 4.86458 11.4855 4.86458C11.4523 4.83132 11.4523 4.83132 11.4523 4.79805C11.5187 4.76479 11.4523 4.73153 11.4191 4.73153C11.4855 4.69826 11.4523 4.665 11.3859 4.63174C11.4855 4.59847 11.4855 4.56521 11.3527 4.53195C11.3527 4.49868 11.3859 4.46542 11.3195 4.43216C11.3195 4.3989 11.2863 4.36563 11.3195 4.33237C11.2531 4.29911 11.2531 4.26584 11.3195 4.23258C11.2531 4.19932 11.2863 4.16605 11.3195 4.13279C11.3859 4.09953 11.2531 4.033 11.3195 3.99974C11.3195 3.96648 11.3195 3.89995 11.3527 3.86669C11.3859 3.83342 11.4523 3.80016 11.3859 3.73363C11.3859 3.70037 11.3527 3.63384 11.4191 3.60058C11.3527 3.53406 11.4191 3.50079 11.4523 3.46753C11.4523 3.43427 11.5519 3.401 11.5187 3.33448C11.5187 3.33448 11.5519 3.30121 11.5519 3.26795C11.5519 3.26795 11.5519 3.26795 11.5519 3.23469C11.5519 3.23469 11.5519 3.23469 11.5851 3.23469C11.6183 3.23469 11.6515 3.20142 11.6183 3.1349C11.6183 3.10164 11.7178 3.10163 11.6846 3.06837C11.7842 3.06837 11.6846 3.00185 11.7178 2.96858C11.7178 2.93532 11.7842 2.93532 11.751 2.86879C11.751 2.83553 11.751 2.80227 11.7842 2.769C11.6515 2.769 11.8174 2.769 11.8174 2.73574C11.8838 2.70248 11.8174 2.66921 11.8174 2.63595C11.7842 2.60269 11.8838 2.56943 11.8174 2.53616C11.8174 2.5029 11.7842 2.46964 11.8174 2.43637C11.751 2.40311 11.8838 2.36985 11.8174 2.36985C11.8174 2.33658 11.8174 2.30332 11.8174 2.30332C11.917 2.27006 11.8174 2.23679 11.8174 2.23679C11.8174 2.20353 11.751 2.20353 11.8174 2.17027C11.8174 2.13701 11.8506 2.10374 11.8174 2.10374C11.7842 2.07048 11.9502 2.03722 11.8174 2.03722C11.7842 2.03722 11.917 1.97069 11.8174 1.97069C11.7178 1.97069 11.8174 1.93743 11.8174 1.90416C11.8174 1.8709 11.8174 1.8709 11.8174 1.83764C11.8174 1.67132 11.8174 1.57153 11.8506 1.53827C11.917 1.50501 12.0166 1.57153 12.1494 1.77111C12.1494 1.80437 12.249 1.80437 12.1826 1.83764C12.1826 1.8709 12.249 1.8709 12.2158 1.90416C12.3154 1.90416 12.249 1.93743 12.249 1.97069C12.249 2.00395 12.249 2.03722 12.2822 2.03722C12.3154 2.10374 12.249 2.13701 12.2822 2.17027C12.249 2.20353 12.249 2.23679 12.3154 2.23679C12.249 2.27006 12.3485 2.30332 12.3485 2.33658C12.249 2.36985 12.3154 2.40311 12.3485 2.43637C12.3817 2.46964 12.3485 2.5029 12.3485 2.53616C12.3154 2.56943 12.3817 2.60269 12.3485 2.63595C12.3817 2.66921 12.4149 2.73574 12.3485 2.769C12.3817 2.80227 12.3485 2.83553 12.3485 2.90206C12.3817 2.93532 12.3154 2.96858 12.3154 3.03511C12.3154 3.06837 12.2158 3.10163 12.2822 3.16816C12.2822 3.20142 12.249 3.23469 12.249 3.30121C12.2158 3.33448 12.1826 3.36774 12.1826 3.43427C12.083 3.43427 12.1162 3.50079 12.1162 3.56732V3.60058L12.083 3.63384C12.083 3.66711 12.0498 3.70037 12.0498 3.73363C12.0498 3.7669 11.9834 3.7669 12.0166 3.83342C12.0498 3.86669 11.9502 3.86669 11.9834 3.93321C12.0166 3.96648 12.0166 3.99974 11.9502 4.033C11.9502 4.06626 11.8506 4.06626 11.917 4.13279C11.917 4.16605 12.0498 4.19932 11.8838 4.23258C11.917 4.26584 11.8174 4.29911 11.8838 4.29911C11.7842 4.33237 11.8838 4.36563 11.8838 4.36563C11.8506 4.3989 11.8174 4.43216 11.8838 4.43216C11.917 4.46542 11.8506 4.49868 11.8838 4.49868C11.9502 4.53195 11.8174 4.56521 11.8838 4.56521C11.8838 4.59847 11.917 4.59847 11.8838 4.63174C12.0166 4.63174 11.8838 4.665 11.8838 4.69826C11.8838 4.73153 11.9834 4.73153 11.8838 4.76479C11.9834 4.76479 11.917 4.79805 11.8838 4.83132C11.8506 4.86458 11.9502 4.86458 11.8838 4.89784C11.9502 4.89784 11.8506 4.93111 11.8838 4.96437C11.8506 4.99763 11.8838 4.99763 11.8838 5.03089C11.917 5.03089 11.917 5.06416 11.8838 5.06416V5.09742C11.8838 5.16395 11.8838 5.19721 11.8506 5.23047Z" fill="#73523F"/>
<path d="M9.06224 3.80016C9.02905 3.83342 8.96266 3.80016 8.89627 3.73363L8.82987 3.66711C8.86307 3.63384 8.73029 3.66711 8.79668 3.63384C8.79668 3.60058 8.79668 3.60058 8.76348 3.56732C8.73029 3.56732 8.76348 3.50079 8.73029 3.50079C8.6307 3.50079 8.82987 3.43427 8.69709 3.43427C8.6639 3.401 8.6639 3.401 8.6639 3.36774C8.73029 3.33448 8.6639 3.30121 8.6307 3.30121C8.69709 3.26795 8.6639 3.23469 8.59751 3.20142C8.73029 3.1349 8.69709 3.10163 8.56431 3.10163C8.56431 3.06837 8.59751 3.03511 8.53112 3.00185C8.53112 2.96858 8.49792 2.93532 8.53112 2.90206C8.46473 2.86879 8.46473 2.83553 8.53112 2.80227C8.43153 2.769 8.49792 2.73574 8.53112 2.70248C8.59751 2.66921 8.46473 2.60269 8.53112 2.56943C8.53112 2.53616 8.53112 2.46964 8.56431 2.43637C8.59751 2.40311 8.6639 2.36985 8.59751 2.30332C8.59751 2.27006 8.56431 2.20353 8.6307 2.17027C8.56431 2.10374 8.6307 2.07048 8.6639 2.03722C8.6639 2.00395 8.76348 1.97069 8.73029 1.90416C8.73029 1.90416 8.76348 1.8709 8.76348 1.83764C8.76348 1.83764 8.76348 1.83764 8.76348 1.80437C8.76348 1.80437 8.76348 1.80437 8.79668 1.80437C8.82987 1.80437 8.86307 1.77111 8.82987 1.70459C8.79668 1.63806 8.86307 1.67132 8.86307 1.6048C8.96266 1.6048 8.86307 1.53827 8.89627 1.50501C8.89627 1.47174 8.96266 1.47174 8.92946 1.40522C8.92946 1.37195 8.92946 1.33869 8.96266 1.30543C8.82987 1.2389 8.99585 1.2389 8.99585 1.20564C9.06224 1.17238 8.99585 1.13911 8.99585 1.10585C8.96266 1.07259 9.06224 1.03932 8.99585 1.00606C8.99585 0.972797 8.96266 0.939534 8.99585 0.906271C8.92946 0.873008 9.06224 0.839745 8.99585 0.839745C8.99585 0.806482 8.99585 0.773219 8.99585 0.773219C9.09544 0.739956 8.99585 0.706693 8.99585 0.706693C8.99585 0.67343 8.92946 0.67343 8.99585 0.640167C8.99585 0.606903 9.02905 0.57364 8.99585 0.57364C8.96266 0.540377 9.12863 0.507114 8.99585 0.507114C8.96266 0.507114 9.09544 0.440588 8.99585 0.440588C8.89627 0.440588 8.99585 0.407325 8.99585 0.374062C8.99585 0.340799 8.99585 0.340799 8.99585 0.307536C8.99585 0.14122 8.99585 0.0414309 9.02905 0.00816786C9.09544 -0.0250952 9.19502 0.0414309 9.3278 0.241009C9.3278 0.274273 9.42739 0.274273 9.361 0.307536C9.361 0.340799 9.42739 0.340799 9.39419 0.374062C9.49378 0.374062 9.42739 0.407325 9.42739 0.440588C9.42739 0.473851 9.42739 0.507114 9.46058 0.507114C9.52697 0.540377 9.46058 0.57364 9.49378 0.606903C9.42739 0.640167 9.46058 0.67343 9.52697 0.706693C9.46058 0.739956 9.56017 0.773219 9.56017 0.806482C9.46058 0.839745 9.52697 0.873008 9.56017 0.906271C9.59336 0.939534 9.56017 0.972797 9.56017 1.00606C9.52697 1.03932 9.59336 1.07259 9.56017 1.10585C9.59336 1.13911 9.62656 1.20564 9.56017 1.2389C9.59336 1.27217 9.56017 1.30543 9.56017 1.37195C9.59336 1.40522 9.52697 1.43848 9.52697 1.50501C9.52697 1.53827 9.42739 1.57153 9.49378 1.63806C9.49378 1.67132 9.46058 1.70459 9.46058 1.77111C9.42739 1.80437 9.39419 1.83764 9.39419 1.90416C9.29461 1.90416 9.3278 1.97069 9.3278 2.03722V2.07048L9.29461 2.10374C9.29461 2.13701 9.26141 2.17027 9.26141 2.20353C9.26141 2.23679 9.19502 2.23679 9.22822 2.30332C9.22822 2.43637 9.12863 2.43637 9.16183 2.46964C9.19502 2.5029 9.19502 2.53616 9.12863 2.56943C9.12863 2.60269 9.02905 2.60269 9.09544 2.66921C9.09544 2.70248 9.22822 2.73574 9.06224 2.769C9.09544 2.80227 8.99585 2.83553 9.06224 2.83553C8.96266 2.86879 9.06224 2.90206 9.06224 2.90206C9.02905 2.93532 8.99585 2.96858 9.06224 2.96858C9.09544 3.00185 9.02905 3.03511 9.06224 3.03511C9.12863 3.06837 8.99585 3.10163 9.06224 3.10163C9.06224 3.1349 9.06224 3.1349 9.06224 3.16816C9.19502 3.16816 9.06224 3.20142 9.06224 3.23469C9.06224 3.26795 9.16183 3.26795 9.06224 3.30121C9.16183 3.30121 9.09544 3.33448 9.06224 3.36774C9.02905 3.401 9.12863 3.401 9.06224 3.43427C9.12863 3.43427 9.02905 3.46753 9.06224 3.50079C9.02905 3.53405 9.06224 3.53405 9.06224 3.56732C9.09544 3.56732 9.09544 3.60058 9.06224 3.60058V3.63384C9.09544 3.70037 9.09544 3.7669 9.06224 3.80016Z" fill="#73523F"/>
<path d="M14.639 3.80016C14.6058 3.83342 14.5394 3.80016 14.473 3.73363L14.4066 3.66711C14.4398 3.63384 14.3071 3.66711 14.3734 3.63384C14.3734 3.60058 14.3734 3.60058 14.3402 3.56732C14.3071 3.56732 14.3402 3.50079 14.3071 3.50079C14.2075 3.50079 14.4066 3.43427 14.2739 3.43427C14.2407 3.401 14.2739 3.36774 14.2407 3.33448C14.3071 3.30121 14.2407 3.26795 14.2075 3.26795C14.2739 3.23469 14.2407 3.20142 14.1743 3.16816C14.3071 3.1349 14.3071 3.10163 14.1743 3.10163C14.1743 3.06837 14.2075 3.03511 14.1411 3.00185C14.1411 2.96858 14.1079 2.93532 14.1411 2.90206C14.0747 2.86879 14.0747 2.83553 14.1411 2.80227C14.0747 2.769 14.1079 2.73574 14.1411 2.70248C14.2075 2.66921 14.0747 2.60269 14.1411 2.56943C14.1411 2.53616 14.1411 2.46964 14.1743 2.43637C14.2075 2.40311 14.2739 2.36985 14.2075 2.30332C14.2075 2.27006 14.1743 2.20353 14.2407 2.17027C14.1743 2.10374 14.2407 2.07048 14.2739 2.03722C14.2739 2.00395 14.3734 1.97069 14.3402 1.90416C14.3402 1.90416 14.3734 1.8709 14.3734 1.83764C14.3734 1.83764 14.3734 1.83764 14.3734 1.80437C14.3734 1.80437 14.3734 1.80437 14.4066 1.80437C14.4398 1.80437 14.473 1.77111 14.4398 1.70459C14.4066 1.63806 14.473 1.67132 14.473 1.6048C14.5726 1.6048 14.473 1.53827 14.5062 1.50501C14.5062 1.47174 14.5726 1.47174 14.5394 1.40522C14.5394 1.37195 14.5394 1.33869 14.5726 1.30543C14.4398 1.2389 14.6058 1.2389 14.6058 1.20564C14.6722 1.17238 14.6058 1.13911 14.6058 1.10585C14.5726 1.07259 14.6722 1.03932 14.6058 1.00606C14.6058 0.972797 14.5726 0.939534 14.6058 0.906271C14.5394 0.873008 14.6722 0.839745 14.6058 0.839745C14.6058 0.806482 14.6058 0.773219 14.6058 0.773219C14.7054 0.739956 14.6058 0.706693 14.6058 0.706693C14.6058 0.67343 14.5394 0.67343 14.6058 0.640167C14.6058 0.606903 14.639 0.57364 14.6058 0.57364C14.5726 0.540377 14.7386 0.507114 14.6058 0.507114C14.5726 0.507114 14.7054 0.440588 14.6058 0.440588C14.5062 0.440588 14.6058 0.407325 14.6058 0.374062C14.6058 0.340799 14.6058 0.340799 14.6058 0.307536C14.6058 0.14122 14.6058 0.0414309 14.639 0.00816786C14.7054 -0.0250952 14.805 0.0414309 14.9378 0.241009C14.9378 0.274273 15.0373 0.274273 14.971 0.307536C14.971 0.340799 15.0373 0.340799 15.0041 0.374062C15.1037 0.374062 15.0373 0.407325 15.0373 0.440588C15.0373 0.473851 15.0373 0.507114 15.0705 0.507114C15.1369 0.540377 15.0705 0.57364 15.1037 0.606903C15.0373 0.640167 15.0705 0.67343 15.1369 0.706693C15.0705 0.739956 15.1701 0.773219 15.1701 0.806482C15.0705 0.839745 15.1369 0.873008 15.1701 0.906271C15.2033 0.939534 15.1701 0.972797 15.1701 1.00606C15.1369 1.03932 15.2033 1.07259 15.1701 1.10585C15.2033 1.13911 15.2365 1.20564 15.1701 1.2389C15.2033 1.27217 15.1701 1.30543 15.1701 1.37195C15.2033 1.40522 15.1369 1.43848 15.1369 1.50501C15.1369 1.53827 15.0373 1.57153 15.1037 1.63806C15.1037 1.67132 15.0705 1.70459 15.0705 1.77111C15.0373 1.80437 15.0041 1.83764 15.0041 1.90416C14.9046 1.90416 14.9378 1.97069 14.9378 2.03722V2.07048L14.9046 2.10374C14.9046 2.13701 14.8714 2.17027 14.8714 2.20353C14.8714 2.23679 14.805 2.23679 14.8382 2.30332C14.8382 2.43637 14.7386 2.43637 14.7718 2.46964C14.805 2.5029 14.805 2.53616 14.7386 2.56943C14.7386 2.60269 14.639 2.60269 14.7054 2.66921C14.7054 2.70248 14.8382 2.73574 14.6722 2.769C14.7054 2.80227 14.6058 2.83553 14.6722 2.83553C14.5726 2.86879 14.6722 2.90206 14.6722 2.90206C14.639 2.93532 14.6058 2.96858 14.6722 2.96858C14.7054 3.00185 14.639 3.03511 14.6722 3.03511C14.7054 3.06837 14.5726 3.10163 14.639 3.10163C14.639 3.1349 14.639 3.1349 14.639 3.16816C14.7718 3.16816 14.639 3.20142 14.639 3.23469C14.639 3.26795 14.7386 3.26795 14.639 3.30121C14.7386 3.30121 14.6722 3.33448 14.639 3.36774C14.6058 3.401 14.7054 3.401 14.639 3.43427C14.7054 3.43427 14.6058 3.46753 14.639 3.50079C14.6058 3.53405 14.639 3.53405 14.639 3.56732C14.6722 3.56732 14.6722 3.60058 14.639 3.60058V3.63384C14.7054 3.70037 14.6722 3.7669 14.639 3.80016Z" fill="#73523F"/>
</svg>
