<svg width="31" height="20" viewBox="0 0 31 20" fill="none" xmlns="http://www.w3.org/2000/svg">
<path d="M6.88076 13.9704C6.84416 13.9704 6.84416 13.8626 6.84416 13.7549C6.84416 13.719 6.84416 13.719 6.84416 13.6831C6.84416 13.6471 6.84416 13.6112 6.88076 13.6112C6.95395 13.6112 6.80756 13.5035 6.91736 13.5035C6.95396 13.4676 6.95396 13.4317 6.95396 13.3957C6.95396 13.3598 7.02715 13.3598 6.99056 13.288C6.91736 13.2162 7.13695 13.288 7.02715 13.1803C7.02715 13.1443 7.06375 13.1084 7.06375 13.0725C7.17355 13.0725 7.10035 13.0007 7.13695 12.9648C7.24675 12.9648 7.24675 12.893 7.21015 12.8211C7.35655 12.857 7.35655 12.7852 7.28335 12.6775C7.31995 12.6416 7.39315 12.6056 7.35655 12.5338C7.39315 12.4979 7.39315 12.4261 7.42975 12.3902C7.39315 12.2824 7.42975 12.2465 7.50295 12.2465C7.46635 12.1388 7.53955 12.1029 7.61275 12.1029C7.68595 12.1029 7.61275 11.9592 7.72255 11.9592C7.75915 11.9233 7.79575 11.8515 7.83235 11.8155C7.90555 11.7796 7.97875 11.7796 7.94215 11.6719C7.97875 11.6001 7.97875 11.5282 8.08855 11.5282C8.05195 11.4205 8.12515 11.3846 8.23495 11.3846C8.27155 11.3128 8.38135 11.3128 8.38135 11.2409C8.45455 11.205 8.45455 11.0973 8.52775 11.0973C8.60094 11.0614 8.67414 11.0614 8.67414 10.9536C8.67414 10.8459 8.78394 10.8818 8.82054 10.81C8.93034 10.8459 8.89374 10.7022 9.00354 10.7022C9.04014 10.6663 9.14994 10.6663 9.14994 10.5945C9.18654 10.5586 9.22314 10.4867 9.33294 10.4867C9.29634 10.3431 9.44274 10.4508 9.47934 10.379C9.55254 10.379 9.58914 10.3072 9.62574 10.3072C9.66234 10.2713 9.77214 10.3072 9.77214 10.2354C9.84534 10.1994 9.84534 10.1276 9.91854 10.1635C9.91854 10.0917 10.0649 10.1635 10.0649 10.0917C10.1015 10.0558 10.1747 10.0558 10.2113 10.0199C10.3211 10.0917 10.3211 9.98396 10.3577 9.98396C10.3943 9.98396 10.4309 9.87622 10.5041 9.94804C10.5407 9.94804 10.6139 9.94804 10.6505 9.91213C10.6871 9.87622 10.7969 10.0199 10.7603 9.87622C10.7969 9.8403 10.8701 9.94804 10.8701 9.8403C10.8701 9.73256 10.9433 9.8403 10.9799 9.80439C11.0165 9.80439 11.0531 9.80439 11.0897 9.76848C11.3825 9.73256 11.5655 9.73256 11.5655 9.80439C11.5655 9.8403 11.5289 9.87622 11.4557 9.94804C11.4191 9.98396 11.3825 10.0199 11.3093 10.0558C11.2727 10.0558 11.2361 10.0917 11.1995 10.0917C11.1629 10.1276 11.1263 10.1276 11.0897 10.1635C11.0531 10.1635 11.0531 10.2713 10.9799 10.1994C10.9433 10.1994 10.9433 10.2713 10.8701 10.2354C10.8701 10.3431 10.7969 10.2713 10.7603 10.3072C10.7237 10.3431 10.6871 10.3072 10.6505 10.379C10.6505 10.4508 10.5407 10.379 10.5407 10.4508C10.4675 10.4149 10.4309 10.4508 10.4309 10.5227C10.3577 10.4867 10.3577 10.5945 10.3211 10.5945C10.2845 10.4149 10.2479 10.5227 10.2479 10.5586C10.2113 10.5945 10.1381 10.5945 10.1015 10.6304C10.0283 10.6304 10.0283 10.7022 9.95514 10.7022C9.91854 10.7741 9.88194 10.81 9.80874 10.81C9.77214 10.8818 9.69894 10.8818 9.66234 10.9177C9.62574 10.9895 9.55254 10.9895 9.51594 11.0255C9.47934 11.0614 9.36954 11.0254 9.36954 11.1332C9.33294 11.1691 9.25974 11.205 9.22314 11.2409C9.14994 11.2768 9.11334 11.3128 9.07674 11.3487C8.96694 11.3128 8.96694 11.3846 8.93034 11.4564C8.89374 11.5282 8.85714 11.5642 8.78394 11.6001C8.74734 11.636 8.71074 11.6719 8.63754 11.7437C8.60094 11.8155 8.52775 11.8155 8.52775 11.8874C8.52775 11.9592 8.41795 11.9592 8.41795 12.031C8.41795 12.1029 8.38135 12.1388 8.30815 12.1747C8.27155 12.2106 8.16175 12.2106 8.19835 12.3183C8.16175 12.3902 8.23495 12.4979 8.08855 12.462C8.08855 12.5338 7.97875 12.4979 7.97875 12.6056C7.86895 12.6056 7.90555 12.6775 7.86895 12.7134C7.83235 12.7493 7.75915 12.7852 7.75915 12.8211C7.75915 12.893 7.68595 12.893 7.68595 12.9289C7.72255 13.0007 7.57615 12.9648 7.61275 13.0366C7.57615 13.0725 7.57615 13.1084 7.53955 13.1443C7.64935 13.2521 7.50295 13.2162 7.46635 13.2521C7.42975 13.288 7.50295 13.3598 7.39315 13.3598C7.46635 13.4317 7.35655 13.4317 7.31995 13.4676C7.28335 13.5035 7.31995 13.5394 7.24675 13.5394C7.28335 13.6112 7.17355 13.5753 7.17355 13.6112C7.10035 13.6112 7.13695 13.6831 7.13695 13.6831C7.13695 13.719 7.13695 13.7549 7.10035 13.7549C7.10035 13.7908 7.06375 13.7908 7.06375 13.8267C6.95395 13.9344 6.91736 13.9704 6.88076 13.9704Z" fill="#73523F"/>
<path d="M17.3117 7.57775C17.3117 7.54184 17.4947 7.54184 17.7875 7.57775C17.9339 7.57775 18.1535 7.61367 18.3731 7.64958C18.4829 7.68549 18.5927 7.68549 18.7391 7.72141C18.8855 7.75732 18.9953 7.79323 19.1417 7.82915C19.2515 7.86506 19.3247 7.86506 19.4345 7.90097C19.5443 7.93689 19.6541 7.9728 19.7639 8.00871C19.9835 8.08054 20.2397 8.15237 20.4593 8.26011C20.5325 8.29602 20.5691 8.33194 20.6423 8.33194C20.7155 8.36785 20.7887 8.36785 20.8253 8.40376C20.9717 8.43968 21.0815 8.47559 21.1913 8.58333C21.3011 8.65516 21.4475 8.72698 21.5939 8.79881C21.7403 8.87064 21.8867 8.94247 21.9965 9.01429C22.1429 9.08612 22.2527 9.19386 22.3991 9.26569C22.5455 9.37343 22.6553 9.44526 22.8383 9.553C22.9115 9.58891 22.9847 9.62482 23.0579 9.69665C23.0945 9.73256 23.1311 9.76848 23.1677 9.76848C23.2043 9.80439 23.2409 9.8403 23.2409 9.87622C23.3506 10.0199 23.497 10.1276 23.68 10.1994C23.7532 10.2713 23.8264 10.3072 23.8996 10.379C23.9728 10.4508 24.046 10.5227 24.1192 10.5586C24.2656 10.7022 24.3754 10.8459 24.5218 10.9895C24.5584 11.0614 24.6316 11.1691 24.7048 11.2409C24.778 11.3128 24.8512 11.3846 24.8878 11.4564C24.961 11.5282 25.0342 11.6001 25.1074 11.6719C25.1806 11.7437 25.2538 11.8155 25.327 11.8874C25.3636 11.9951 25.4002 12.0669 25.4734 12.1747C25.51 12.2465 25.5832 12.3542 25.6564 12.4261C25.7662 12.6056 25.9126 12.7493 26.059 12.9289C26.1688 13.3598 26.3884 13.7549 26.6812 14.114C26.7178 14.1499 26.7178 14.2218 26.7544 14.2577C26.791 14.2936 26.791 14.3654 26.8276 14.4013C26.8642 14.5091 26.9008 14.6168 26.9374 14.7245C27.0106 14.94 27.0838 15.1555 27.1936 15.371C27.2668 15.5865 27.34 15.8379 27.3766 16.0533C27.4132 16.1611 27.4132 16.3047 27.4498 16.4125C27.4498 16.4843 27.4864 16.5202 27.4864 16.592C27.4864 16.6639 27.4864 16.6998 27.523 16.7716C27.5596 16.8794 27.5962 16.9871 27.5962 17.0948C27.5962 17.1667 27.6328 17.2026 27.6328 17.2744V17.3821L27.5596 17.454C27.5596 17.5976 27.5596 17.7413 27.5596 17.8131C27.5596 17.849 27.5596 17.849 27.5596 17.849V17.8849C27.523 17.9568 27.523 18.0645 27.4864 18.1363H27.4498C27.34 18.1363 27.2302 18.1722 27.1204 18.1722H26.8276C26.7178 18.1722 26.5714 18.1722 26.4616 18.1722C26.2054 18.1722 25.9492 18.1363 25.693 18.1363C25.1806 18.1004 24.6316 18.2082 24.1192 18.1363C23.5702 18.1363 23.0213 18.1722 22.4723 18.1363C21.9233 18.1004 21.3743 18.0645 20.7887 18.1363C20.2397 18.1722 19.6541 18.2082 19.0685 18.1363C18.4829 18.2441 17.8973 18.2082 17.3117 18.1363C16.7261 18.1363 16.1405 18.1004 15.5183 18.1363C14.9327 18.1363 14.3105 18.1722 13.7249 18.1363C13.1027 18.1004 12.5171 18.0645 11.9315 18.1363C11.3459 18.2082 10.7237 18.1004 10.1381 18.1363C9.55254 18.0286 8.96694 18.1722 8.38135 18.1363C7.79575 18.1363 7.24675 18.1004 6.66116 18.1363C6.11216 18.1363 5.52656 18.1722 4.97757 18.1363C4.46517 18.28 3.98937 18.1363 3.51358 18.1363L3.44038 17.5976C3.47698 17.5617 3.40378 17.5976 3.40378 17.5976C3.40378 17.5258 3.44038 17.454 3.44038 17.3821C3.44038 17.3103 3.44038 17.2385 3.47698 17.1667V16.9512C3.47698 16.8075 3.51358 16.6998 3.51358 16.5561C3.55018 16.4125 3.55018 16.3047 3.58678 16.1611C3.65998 15.6224 3.91617 15.1555 4.02597 14.6527C4.20897 14.1858 4.35537 13.6831 4.64817 13.288C4.72137 13.0725 4.86777 12.857 5.01417 12.6416C5.08737 12.5338 5.16057 12.4261 5.23377 12.3543C5.30697 12.2465 5.38017 12.1388 5.41677 12.0669C5.70956 11.6719 5.96576 11.3128 6.29516 10.9895C6.40496 10.9177 6.47816 10.8459 6.55136 10.7741C6.58796 10.7381 6.62456 10.7022 6.66116 10.6663C6.69776 10.6304 6.73436 10.5945 6.77096 10.5586C6.84416 10.4867 6.91736 10.379 6.99056 10.3072C7.06375 10.2354 7.13695 10.1635 7.21015 10.0917C7.28335 10.0199 7.35655 9.94804 7.46635 9.87622C7.53955 9.80439 7.61275 9.73256 7.72255 9.66074C7.79575 9.58891 7.90555 9.51708 7.97875 9.48117C8.01535 9.44526 8.05195 9.40934 8.12515 9.40934C8.16175 9.37343 8.23495 9.37343 8.27155 9.33751C8.34475 9.26569 8.45455 9.22977 8.52775 9.15795C8.60094 9.12203 8.71074 9.05021 8.78394 9.01429C8.96694 8.90655 9.14994 8.83473 9.29634 8.69107C9.47934 8.58333 9.66234 8.54742 9.84534 8.47559C10.0283 8.40376 10.2113 8.33194 10.3577 8.2242C10.4309 8.18828 10.5407 8.15237 10.6139 8.11646C10.6505 8.11646 10.6871 8.08054 10.7603 8.08054C10.7969 8.08054 10.8335 8.04463 10.9067 8.04463C11.0897 8.00871 11.2361 7.93689 11.3825 7.86506C11.5289 7.75732 11.7119 7.72141 11.8583 7.68549C12.0413 7.64958 12.1877 7.64958 12.3341 7.61367C12.6269 7.54184 12.9563 7.50593 13.2491 7.47001C13.3223 7.47001 13.3955 7.47001 13.5053 7.4341C13.5419 7.4341 13.5785 7.4341 13.6151 7.4341H13.7615C13.9079 7.4341 14.0543 7.4341 14.2007 7.4341C14.4935 7.4341 14.7497 7.4341 15.0059 7.47001C15.5183 7.47001 15.9209 7.50593 16.2869 7.50593C16.9457 7.54184 17.3117 7.54184 17.3117 7.57775C17.3117 7.61367 16.8725 7.64958 15.9941 7.68549C15.5549 7.68549 15.0425 7.72141 14.4203 7.72141C14.2739 7.72141 14.0909 7.72141 13.9445 7.72141C13.8713 7.72141 13.7615 7.72141 13.6883 7.72141C13.6517 7.72141 13.6517 7.72141 13.6517 7.72141H13.5785C13.5419 7.72141 13.5053 7.72141 13.4687 7.75732C13.3955 7.75732 13.2857 7.79323 13.2125 7.79323C13.1393 7.79323 13.0295 7.82915 12.9563 7.82915C12.8831 7.82915 12.7733 7.86506 12.7001 7.86506C12.6269 7.90097 12.5171 7.90097 12.4073 7.93689C12.2609 7.9728 12.1145 8.04463 11.9681 8.08054C11.8217 8.11646 11.6753 8.18828 11.4923 8.18828C11.1629 8.29602 10.8701 8.47559 10.5407 8.54742C10.3943 8.65516 10.2479 8.72698 10.0649 8.79881C9.88194 8.87064 9.73554 8.94247 9.55254 9.01429C9.40614 9.12203 9.22314 9.19386 9.04014 9.3016C8.96694 9.33751 8.85714 9.40934 8.78394 9.44526C8.71074 9.51708 8.63754 9.553 8.56434 9.62482C8.52775 9.66074 8.49115 9.69665 8.45455 9.73256C8.41795 9.76848 8.38135 9.80439 8.34475 9.8403C8.27155 9.91213 8.19835 9.94804 8.08855 10.0199C8.01535 10.0917 7.90555 10.1276 7.83235 10.1994C7.75915 10.2713 7.68595 10.3431 7.61275 10.4149C7.53955 10.4867 7.42975 10.5227 7.35655 10.5945C7.28335 10.6663 7.21015 10.7381 7.13695 10.81C7.10035 10.8459 7.06375 10.8818 7.02715 10.9177C6.99056 10.9536 6.95396 10.9895 6.91736 11.0255C6.84416 11.0973 6.77096 11.205 6.73436 11.2768C6.40496 11.5642 6.18536 11.9592 5.89256 12.3183C5.56316 12.6416 5.38017 13.0725 5.19717 13.5035C5.01417 13.9344 4.75797 14.3654 4.61157 14.8323C4.42857 15.2992 4.35537 15.766 4.20897 16.2688C4.20897 16.3766 4.17237 16.5202 4.17237 16.628C4.17237 16.7357 4.13577 16.8794 4.13577 16.9871V17.2026C4.13577 17.2744 4.13577 17.3103 4.09917 17.3821C4.09917 17.454 4.06257 17.5258 4.06257 17.5617V17.6335C4.06257 17.6695 4.06257 17.6695 4.02597 17.7054C4.02597 17.7413 4.02597 17.7413 3.98937 17.7772C3.95277 17.849 3.91617 17.8849 3.84298 17.9568C3.76978 18.0286 3.65998 18.1004 3.51358 18.1004C3.51358 17.8849 3.47698 17.6695 3.47698 17.454C3.95277 17.4181 4.46517 17.454 4.94097 17.454C5.48996 17.4181 6.03896 17.454 6.62456 17.454C7.17355 17.4181 7.75915 17.5617 8.34475 17.454C8.93034 17.454 9.51594 17.454 10.1015 17.454C10.6871 17.454 11.2727 17.4899 11.8949 17.454C12.4805 17.5617 13.1027 17.4899 13.6883 17.454C14.3105 17.4181 14.8961 17.454 15.4817 17.454C16.0673 17.454 16.6895 17.454 17.2751 17.454C17.8607 17.4181 18.4463 17.4899 19.0319 17.454C19.6175 17.4181 20.1665 17.4899 20.7521 17.454C21.3011 17.4181 21.8867 17.4181 22.4357 17.454C22.9847 17.454 23.5336 17.5617 24.0826 17.454C24.6316 17.4181 25.144 17.3103 25.6564 17.454C25.9126 17.4181 26.1688 17.454 26.425 17.454C26.5714 17.454 26.6812 17.454 26.791 17.454H26.9008C26.9008 17.454 26.9008 17.454 26.9374 17.454H26.974C26.974 17.5976 27.0472 17.5976 27.0838 17.5976C27.0838 17.5976 27.0472 17.5976 27.0472 17.5617C27.0472 17.5258 27.0472 17.4899 27.0106 17.4899V17.3821C27.0106 17.3462 27.0106 17.2744 26.974 17.2385C26.9374 17.1307 26.9374 17.023 26.9374 16.9153C26.9374 16.8434 26.9374 16.8075 26.9374 16.7357C26.9374 16.6639 26.9374 16.628 26.9008 16.5561C26.9008 16.4484 26.8642 16.3407 26.8642 16.197C26.8276 15.9815 26.7544 15.766 26.6812 15.5506C26.608 15.3351 26.5348 15.1196 26.4616 14.9041C26.425 14.7964 26.3884 14.6886 26.3518 14.5809C26.3518 14.545 26.3152 14.4731 26.2786 14.4372C26.242 14.4013 26.242 14.3295 26.2054 14.2936C26.1322 14.1858 26.0956 14.114 26.059 14.0063C26.0224 13.8985 25.9858 13.8267 25.9492 13.719C25.9126 13.6112 25.876 13.5394 25.8028 13.4317C25.7662 13.3239 25.693 13.2521 25.6198 13.1803C25.51 13.0007 25.4002 12.8211 25.2904 12.6416C25.2172 12.5697 25.1806 12.462 25.1074 12.3902C25.0342 12.3183 24.9976 12.2106 24.9244 12.1388C24.8512 12.0669 24.778 12.031 24.7048 11.9592C24.6316 11.8874 24.595 11.8155 24.5218 11.7437C24.4486 11.6719 24.412 11.6001 24.3754 11.4923C24.3388 11.4205 24.2656 11.3487 24.1924 11.2768C24.0826 11.1332 23.9362 11.0254 23.7898 10.9177C23.7166 10.8459 23.6434 10.81 23.6068 10.7381C23.5336 10.6663 23.497 10.5945 23.4238 10.5227C23.0945 10.379 22.8749 10.0917 22.6187 9.87622C22.5089 9.76848 22.3625 9.69665 22.2161 9.58891C22.0697 9.51708 21.9599 9.44526 21.8135 9.33751C21.6671 9.3016 21.5207 9.19386 21.4109 9.12203C21.3011 9.05021 21.1547 8.94247 21.0449 8.90655C20.9351 8.83473 20.7887 8.7629 20.6789 8.72698C20.6057 8.69107 20.5691 8.69107 20.4959 8.65516C20.4227 8.61924 20.3861 8.61924 20.3129 8.58333C20.0567 8.5115 19.8371 8.40376 19.6541 8.33194C19.5443 8.29602 19.4345 8.26011 19.3247 8.2242C19.2149 8.18828 19.1417 8.15237 19.0319 8.11646C17.9705 7.68549 17.3117 7.64958 17.3117 7.57775Z" fill="#73523F"/>
<path d="M13.6883 7.57775C13.6883 7.54184 13.7249 7.54184 13.7249 7.50593C13.7615 7.47001 13.7981 7.4341 13.7981 7.36227V7.32636C13.7981 7.32636 13.7981 7.32636 13.7981 7.29044C13.7981 7.25453 13.7615 7.21862 13.7981 7.1827C13.8713 7.14679 13.7249 7.07496 13.7981 7.03905C13.8347 7.00314 13.8347 6.93131 13.7981 6.8954C13.7981 6.82357 13.8713 6.78766 13.8347 6.71583C13.7981 6.67991 13.8347 6.644 13.8713 6.644C13.9079 6.60809 13.9445 6.60809 13.9079 6.53626C13.9079 6.46443 13.9445 6.39261 13.9811 6.35669C14.0909 6.35669 14.0543 6.24895 14.0909 6.17713C14.2007 6.17713 14.2373 6.1053 14.2373 5.99756C14.3837 6.03347 14.4203 5.99756 14.4203 5.81799C14.4935 5.78208 14.5667 5.78208 14.6399 5.67434C14.7131 5.63842 14.7863 5.5666 14.8961 5.5666C14.9693 5.45885 15.0425 5.42294 15.1523 5.49477C15.2255 5.38703 15.3353 5.42294 15.4451 5.45885C15.4817 5.49477 15.5549 5.45885 15.5915 5.45885C15.6281 5.45885 15.7013 5.42294 15.7379 5.45885C15.8477 5.45885 15.9575 5.45885 16.0307 5.49477C16.1405 5.5666 16.2137 5.63842 16.3235 5.60251C16.4333 5.63842 16.5431 5.63842 16.6163 5.74616C16.7627 5.74616 16.8359 5.8539 16.8725 5.96164C16.9823 6.03347 16.9823 6.17712 17.0921 6.21304C17.1287 6.32078 17.2385 6.39261 17.2751 6.50035C17.3117 6.60809 17.3117 6.71583 17.3849 6.82357C17.4215 6.85948 17.4215 6.93131 17.4215 6.96722C17.4215 7.00314 17.4215 7.03905 17.4215 7.03905V7.07496C17.4215 7.11088 17.4215 7.11088 17.4215 7.14679V7.1827C17.4215 7.1827 17.4215 7.1827 17.3849 7.1827C17.3483 7.1827 17.3117 7.21862 17.3117 7.21862C17.3117 7.25453 17.3117 7.29044 17.3117 7.32636C17.3117 7.39818 17.3483 7.47001 17.3483 7.47001C17.3483 7.50593 17.3483 7.50593 17.3483 7.50593C17.3483 7.50593 17.3849 7.47001 17.3483 7.54184C17.3483 7.57775 17.3483 7.64958 17.3117 7.68549C17.3117 7.72141 17.3117 7.75732 17.2751 7.79323C17.2385 7.86506 17.1653 7.86506 17.0555 7.82915C16.9457 7.90097 16.8359 7.86506 16.7627 7.90097C16.7261 7.90097 16.7261 7.90097 16.6895 7.90097C16.6529 7.90097 16.6529 7.90097 16.6529 7.90097C16.6163 7.90097 16.6163 7.90097 16.5797 7.90097C16.5431 7.90097 16.5065 7.93689 16.4699 7.90097C16.3967 7.93689 16.3235 7.82915 16.2137 7.90097C16.1405 7.90097 16.0673 7.93689 15.9941 7.90097C15.9209 7.9728 15.8477 7.82915 15.7745 7.90097C15.7013 7.90097 15.6281 7.90097 15.5549 7.90097C15.4817 7.79323 15.4085 7.86506 15.3353 7.90097C15.2621 7.90097 15.1889 7.9728 15.1523 7.90097C15.0791 7.90097 15.0425 7.82915 14.9693 7.90097C14.8961 7.90097 14.8595 7.72141 14.7863 7.90097C14.7131 7.93689 14.6765 7.79323 14.6033 7.90097C14.5667 8.00871 14.4935 7.90097 14.4569 7.90097C14.4203 7.90097 14.3471 7.90097 14.3105 7.90097C13.9079 7.68549 13.6883 7.64958 13.6883 7.57775C13.6883 7.50593 13.9811 7.4341 14.4569 7.39818C14.4935 7.39818 14.5667 7.32636 14.6033 7.39818C14.6399 7.39818 14.7131 7.32636 14.7863 7.39818C14.8595 7.29044 14.8961 7.36227 14.9693 7.39818C15.0425 7.39818 15.0791 7.4341 15.1523 7.39818C15.2255 7.32636 15.2987 7.4341 15.3353 7.39818C15.4085 7.47001 15.4817 7.4341 15.5549 7.39818C15.6281 7.47001 15.7013 7.39818 15.7745 7.39818C15.8477 7.50593 15.9209 7.4341 15.9941 7.39818C16.0673 7.36227 16.1405 7.39818 16.2137 7.39818C16.2869 7.4341 16.3601 7.36227 16.4699 7.39818C16.5065 7.36227 16.5431 7.36227 16.5797 7.36227C16.6163 7.36227 16.6163 7.36227 16.6529 7.36227C16.6529 7.36227 16.6529 7.36227 16.6895 7.36227H16.7261C16.7261 7.36227 16.7627 7.36227 16.7627 7.39818C16.7627 7.39818 16.7627 7.39818 16.6895 7.36227V7.32636C16.6895 7.29044 16.6895 7.29044 16.6895 7.25453C16.6895 7.21862 16.6895 7.1827 16.6529 7.14679C16.7261 7.03905 16.6529 7.00314 16.5797 6.93131C16.5065 6.85948 16.5065 6.82357 16.4699 6.75174C16.4333 6.67991 16.3601 6.644 16.3235 6.57217C16.2503 6.53626 16.2503 6.42852 16.1405 6.42852C16.1039 6.42852 16.0673 6.39261 16.0673 6.35669C16.0307 6.32078 16.0307 6.28487 15.9575 6.32078C15.8843 6.32078 15.8111 6.32078 15.7745 6.24895C15.7379 6.24895 15.7013 6.21304 15.6647 6.17713C15.6281 6.14121 15.5915 6.14121 15.5549 6.17713C15.5183 6.17713 15.4817 6.21304 15.4451 6.21304C15.4085 6.21304 15.3719 6.21304 15.3353 6.14121C15.2987 6.17713 15.2621 6.14121 15.2255 6.14121C15.1889 6.14121 15.1523 6.14121 15.1157 6.17713C15.0791 6.14121 15.0425 6.14121 15.0059 6.14121C14.9693 6.17713 14.9693 6.17712 14.9327 6.21304C14.8595 6.21304 14.7863 6.21304 14.7497 6.28487C14.7131 6.35669 14.6399 6.32078 14.6033 6.35669C14.6033 6.39261 14.5667 6.39261 14.5301 6.39261C14.4935 6.39261 14.4569 6.39261 14.4569 6.46443C14.4203 6.50035 14.3837 6.53626 14.3471 6.57217C14.3837 6.644 14.3837 6.644 14.3471 6.67991C14.3105 6.67991 14.2739 6.67991 14.2373 6.71583C14.2007 6.75174 14.2739 6.85948 14.1641 6.82357C14.2373 6.8954 14.1275 6.93131 14.0909 6.96722C14.0543 7.00314 14.0909 7.07496 14.0543 7.07496C14.1275 7.14679 13.9811 7.14679 14.0177 7.1827C13.9445 7.21862 14.0177 7.25453 13.9811 7.29044C13.9811 7.32636 13.9811 7.32636 13.9811 7.32636C13.9811 7.32636 13.9811 7.32636 13.9811 7.36227V7.4341C13.9811 7.47001 13.9811 7.47001 13.9445 7.50593C13.8713 7.61367 13.7615 7.68549 13.7249 7.68549C13.7249 7.61367 13.6883 7.61367 13.6883 7.57775Z" fill="#73523F"/>
<path d="M27.523 17.8849C27.523 17.8849 27.5596 17.8849 27.6328 17.8849C27.706 17.8849 27.8158 17.9208 27.9622 17.9927C28.1086 18.0645 28.255 18.1722 28.3648 18.3877C28.4746 18.5673 28.5478 18.8546 28.438 19.1419C28.4014 19.2496 28.3648 19.3215 28.2916 19.4292C28.2184 19.537 28.1452 19.6088 28.072 19.6806C27.9988 19.7524 27.889 19.8243 27.7426 19.8602C27.706 19.8602 27.6694 19.8961 27.6694 19.8961C27.6328 19.8961 27.5962 19.8961 27.5596 19.932C27.523 19.932 27.4864 19.932 27.4498 19.932C27.4132 19.932 27.3766 19.932 27.34 19.932C27.1204 19.8961 26.8642 20.0397 26.608 19.932C26.3518 19.8961 26.0956 19.932 25.8028 19.932C25.51 19.9679 25.2172 19.8961 24.9244 19.932C24.6316 20.0397 24.3022 19.8243 23.9728 19.932C23.6434 19.9679 23.3141 19.9679 22.9481 19.932C22.5821 19.8602 22.2527 19.932 21.8867 19.932C21.5207 19.8243 21.1547 19.8961 20.7521 19.932C20.3495 19.7883 19.9469 19.8243 19.5443 19.932C19.1417 19.932 18.7025 19.8961 18.2999 19.932C17.8607 19.932 17.4581 19.9679 16.9823 19.932C16.5431 20.0038 16.1039 20.0038 15.6281 19.932C15.1889 20.0397 14.7131 20.0038 14.2373 19.932C13.7615 19.8961 13.2857 20.0038 12.8099 19.932C12.3341 19.932 11.8217 19.9679 11.3459 19.932C10.8335 19.8961 10.3577 19.8602 9.84534 19.932C9.33294 19.9679 8.82054 20.0038 8.30815 19.932C7.79575 20.0397 7.24675 20.0038 6.73436 19.932C6.18536 19.932 5.67296 19.8961 5.12397 19.932C4.86777 19.932 4.57497 19.932 4.31877 19.932C4.17237 19.932 4.06257 19.932 3.91617 19.932C3.84298 19.932 3.76978 19.932 3.69658 19.932H3.65998C3.62338 19.932 3.62338 19.932 3.58678 19.932C3.55018 19.932 3.47698 19.932 3.44038 19.932C3.07438 19.8602 2.74498 19.6447 2.56198 19.3574C2.37898 19.0701 2.30579 18.7109 2.34239 18.3518C2.37898 18.1722 2.45218 17.9927 2.56198 17.849C2.67178 17.7054 2.81818 17.5976 3.00118 17.5258C3.07438 17.4899 3.18418 17.454 3.25738 17.454C3.29398 17.454 3.33058 17.4181 3.40378 17.4181C3.44038 17.4181 3.55018 17.4181 3.55018 17.4181C3.69658 17.4181 3.80638 17.4181 3.95277 17.4181C4.50177 17.5258 5.01417 17.3821 5.52656 17.4181C6.03896 17.4181 6.55136 17.454 7.06375 17.4181C7.57615 17.4181 8.08855 17.3821 8.56434 17.4181C9.07674 17.2744 9.55254 17.454 10.0283 17.4181C10.5041 17.4899 10.9799 17.4181 11.4557 17.4181C11.9315 17.3821 12.4073 17.4899 12.8465 17.4181C13.2857 17.4181 13.7615 17.3821 14.2007 17.4181C14.6399 17.3462 15.0791 17.4899 15.4817 17.4181C15.9209 17.4181 16.3235 17.4181 16.7261 17.4181C17.1287 17.5258 17.5313 17.454 17.9339 17.4181C18.3365 17.4181 18.7025 17.3462 19.0685 17.4181C19.4345 17.4181 19.8005 17.4899 20.1299 17.4181C20.4959 17.4181 20.8253 17.5976 21.1547 17.4181C21.4841 17.3821 21.8135 17.5258 22.1063 17.4181C22.3991 17.3103 22.6919 17.4181 22.9847 17.4181C23.2775 17.4181 23.5336 17.4181 23.7898 17.4181C24.961 17.454 25.876 17.454 26.4982 17.4899C27.157 17.8131 27.523 17.849 27.523 17.8849C27.523 17.9208 27.1204 17.9568 26.3518 17.9927C25.5832 18.0286 24.4852 18.0645 23.0579 18.0645C22.7651 18.0645 22.4723 18.1363 22.1795 18.0645C21.8867 18.0645 21.5573 18.1363 21.2279 18.0645C20.8985 18.1722 20.5691 18.1004 20.2031 18.0645C19.8371 18.0645 19.5077 18.0286 19.1417 18.0645C18.7757 18.1363 18.4097 18.0286 18.0071 18.0645C17.6045 17.9927 17.2019 18.0286 16.7993 18.0645C16.3967 17.9927 15.9941 18.0645 15.5549 18.0645C15.1157 17.9568 14.7131 18.0286 14.2739 18.0645C13.8347 18.1004 13.3955 18.0645 12.9197 18.0645C12.4805 18.0286 12.0047 18.1004 11.5289 18.0645C11.0531 18.1004 10.5773 18.1363 10.1015 18.0645C9.62574 18.1004 9.11334 18.0645 8.63754 18.0645C8.12515 18.1004 7.64935 18.0645 7.13695 18.0645C6.62456 18.1004 6.11216 17.9568 5.59976 18.0645C5.08737 18.0645 4.53837 18.0645 4.02597 18.0645C3.87958 18.0645 3.76978 18.0645 3.62338 18.0645C3.58678 18.0645 3.58678 18.0645 3.58678 18.0645C3.55018 18.0645 3.55018 18.0645 3.51358 18.0645C3.47698 18.0645 3.44038 18.1004 3.40378 18.1004C3.25738 18.1722 3.11098 18.3518 3.07438 18.4955C2.92798 18.7109 2.92798 18.8187 2.92798 18.8905C2.92798 18.9983 2.96458 19.0701 3.03778 19.1419C3.14758 19.3215 3.33058 19.3933 3.51358 19.3933C3.55018 19.3933 3.55018 19.3933 3.58678 19.3933H3.91617C4.06257 19.3933 4.17237 19.3933 4.31877 19.3933C4.57497 19.3933 4.86777 19.3933 5.12397 19.3933C5.67296 19.3933 6.18536 19.3933 6.73436 19.3933C7.28335 19.3574 7.79575 19.4292 8.30815 19.3933C8.82054 19.3574 9.33294 19.4292 9.84534 19.3933C10.3577 19.3574 10.8701 19.3574 11.3459 19.3933C11.8583 19.3933 12.3341 19.501 12.8099 19.3933C13.2857 19.3574 13.7615 19.2496 14.2373 19.3933C14.7131 19.3574 15.1889 19.4651 15.6281 19.3933C16.0673 19.501 16.5431 19.3933 16.9823 19.3933C17.4215 19.4292 17.8607 19.4651 18.2999 19.3933C18.7391 19.3574 19.1417 19.4292 19.5443 19.3933C19.9469 19.3215 20.3495 19.4651 20.7521 19.3933C21.1547 19.3933 21.5207 19.3933 21.8867 19.3933C22.2527 19.2496 22.6187 19.3933 22.9481 19.3933C23.3141 19.4292 23.6434 19.2856 23.9728 19.3933C24.3022 19.2856 24.6316 19.3933 24.9244 19.3933C25.2172 19.4292 25.51 19.3574 25.8028 19.3933C26.0956 19.3215 26.3518 19.4292 26.608 19.3933C26.8642 19.4292 27.1204 19.3933 27.34 19.3933C27.3766 19.3933 27.3766 19.3933 27.4132 19.3933C27.4498 19.3933 27.4498 19.3933 27.4864 19.3933C27.523 19.3933 27.523 19.3933 27.5596 19.3933C27.5962 19.3933 27.5962 19.3933 27.6328 19.3933C27.706 19.3574 27.8158 19.3215 27.889 19.2856C27.9622 19.2496 28.0354 19.1778 28.072 19.106C28.1086 19.0342 28.1452 18.9623 28.1818 18.8905C28.255 18.675 28.2184 18.4595 28.1452 18.28C28.072 18.1004 27.9622 17.9927 27.8524 17.9208C27.7426 17.849 27.6328 17.8131 27.5962 17.7772C27.523 17.8849 27.523 17.8849 27.523 17.8849Z" fill="#73523F"/>
<path d="M24.961 14.7605C24.9244 14.7605 24.8512 14.7245 24.778 14.6527L24.7414 14.6168C24.7048 14.6168 24.7048 14.5809 24.7048 14.545C24.7414 14.5091 24.595 14.545 24.6316 14.4731C24.6316 14.4372 24.595 14.4372 24.5584 14.4013C24.5218 14.3654 24.5584 14.3295 24.4852 14.3295C24.3754 14.3654 24.5584 14.2218 24.412 14.2577C24.3754 14.2577 24.3388 14.2218 24.3388 14.1858C24.3754 14.114 24.3022 14.114 24.2656 14.0781C24.3388 14.0063 24.2656 13.9704 24.1924 13.9704C24.2656 13.8626 24.229 13.8267 24.1192 13.8626C24.0826 13.8267 24.1192 13.7549 24.0094 13.7549C23.9728 13.719 23.9362 13.6831 23.8996 13.6471C23.7898 13.6471 23.7898 13.6112 23.7898 13.5394C23.68 13.5753 23.68 13.5035 23.68 13.4317C23.68 13.3598 23.5336 13.3957 23.5702 13.3239C23.5336 13.288 23.497 13.2521 23.4604 13.2162C23.4604 13.1443 23.4604 13.0725 23.3506 13.1084C23.2775 13.0725 23.2409 13.0725 23.2409 13.0007C23.1311 13.0366 23.1311 12.9648 23.0944 12.893C23.0213 12.857 23.0579 12.7852 22.9481 12.7852C22.9115 12.7493 22.8383 12.7493 22.8017 12.6775C22.7651 12.6056 22.7651 12.5697 22.6553 12.5697C22.5821 12.5697 22.5821 12.462 22.5089 12.462C22.5089 12.3543 22.3991 12.3902 22.3625 12.3543C22.3259 12.3183 22.2893 12.2465 22.2161 12.2465C22.1429 12.2106 22.1063 12.2106 22.0697 12.1388C21.9233 12.2106 21.9965 12.031 21.9233 12.031C21.9233 11.9592 21.8135 11.9592 21.8135 11.9233C21.7403 11.9233 21.7769 11.8155 21.7037 11.8155C21.6671 11.7796 21.5939 11.7796 21.5939 11.7078C21.5573 11.6001 21.5939 11.4923 21.5207 11.4923C21.4841 11.4564 21.4475 11.4564 21.4109 11.4205C21.4475 11.3128 21.3377 11.3487 21.3011 11.3487C21.2645 11.3128 21.1913 11.3487 21.1913 11.2768C21.1547 11.2409 21.1547 11.1691 21.0815 11.205C21.0449 11.205 21.1181 11.0254 21.0083 11.1332C20.9717 11.1332 21.0083 10.9895 20.9351 11.0614C20.8619 11.0973 20.8619 10.9895 20.8619 10.9536C20.8253 10.9177 20.8253 10.9177 20.7887 10.8818C20.5691 10.7022 20.4593 10.5945 20.4959 10.5227C20.5325 10.4508 20.7155 10.4867 21.0449 10.6304C21.0815 10.6304 21.1547 10.5945 21.1547 10.6663C21.1913 10.7022 21.2645 10.6663 21.2645 10.7022C21.3377 10.6304 21.3377 10.7381 21.3743 10.7381C21.4109 10.7381 21.4475 10.81 21.4841 10.81C21.5573 10.7741 21.5573 10.8818 21.5939 10.8818C21.5939 10.9536 21.6305 10.9895 21.7037 10.9536C21.7037 11.0254 21.7769 10.9895 21.8501 11.0255C21.8501 11.1332 21.9233 11.0973 21.9965 11.0973C22.0697 11.0973 22.0697 11.1691 22.1429 11.1691C22.1795 11.205 22.2527 11.205 22.2893 11.2768C22.3625 11.2768 22.4357 11.3128 22.4357 11.3846C22.5089 11.3846 22.5455 11.4564 22.5821 11.4923C22.6553 11.4923 22.6919 11.5642 22.7285 11.6001C22.8017 11.636 22.7651 11.7437 22.8749 11.7078C22.9481 11.7437 22.9481 11.8155 23.0213 11.8155C23.0579 11.8515 23.0944 11.9233 23.1677 11.9233C23.1311 12.031 23.2409 12.031 23.3141 12.0669C23.3872 12.1029 23.4238 12.1388 23.4604 12.2106C23.497 12.2465 23.5702 12.2824 23.6068 12.3543C23.68 12.3902 23.68 12.462 23.7532 12.4979C23.8264 12.4979 23.7898 12.6056 23.863 12.6416C23.9362 12.6775 23.9728 12.7134 23.9728 12.7852C24.0094 12.8211 23.9728 12.9289 24.0826 12.9289C24.1192 12.9648 24.2656 12.9289 24.1924 13.0725C24.2656 13.1084 24.1924 13.2162 24.3022 13.2162C24.2656 13.3239 24.3754 13.288 24.412 13.3598C24.412 13.4317 24.4486 13.4676 24.4852 13.5035C24.5584 13.5035 24.5218 13.6112 24.5584 13.6471C24.6316 13.6471 24.5584 13.7549 24.6316 13.7549C24.6316 13.7908 24.7048 13.8267 24.7048 13.8626C24.8512 13.8267 24.7414 13.9344 24.778 13.9704C24.778 14.0063 24.8878 14.0063 24.8146 14.0781C24.9244 14.0422 24.8512 14.1499 24.8512 14.1858C24.8512 14.2218 24.9244 14.2218 24.8878 14.2936C24.961 14.2936 24.8878 14.3654 24.9244 14.4013C24.8878 14.4372 24.961 14.4372 24.961 14.4731C24.9976 14.4731 24.9976 14.5091 24.9976 14.545C24.9976 14.5809 24.9976 14.5809 24.9976 14.6168C24.9976 14.6527 24.9976 14.7605 24.961 14.7605Z" fill="#73523F"/>
<path d="M31 19.7165C31 19.7524 30.6706 19.7883 30.0484 19.8243C29.9386 19.8243 29.8288 19.8243 29.719 19.8243C29.6092 19.8243 29.4628 19.8602 29.353 19.8243C29.2066 19.7883 29.0602 19.932 28.9138 19.8243C28.7674 19.7883 28.621 19.8243 28.438 19.8243C28.2916 19.8602 28.1086 19.7883 27.9256 19.8243C27.7426 19.932 27.5596 19.7165 27.3766 19.8243C27.1936 19.8602 26.974 19.8602 26.791 19.8243C26.5714 19.7524 26.3884 19.8243 26.1688 19.8243C25.9492 19.7165 25.7296 19.7883 25.51 19.8243C25.2904 19.6806 25.0708 19.7165 24.8146 19.8243C24.595 19.8243 24.3388 19.7883 24.0826 19.8243C23.8264 19.8243 23.5702 19.8602 23.3141 19.8243C23.0579 19.8961 22.8017 19.8961 22.5455 19.8243C22.2893 19.932 21.9965 19.8961 21.7403 19.8243C21.4841 19.7883 21.1913 19.8961 20.8985 19.8243C20.6057 19.8243 20.3495 19.8602 20.0567 19.8243C19.7639 19.7883 19.4711 19.7524 19.1783 19.8243C18.8855 19.8602 18.5927 19.8961 18.2999 19.8243C18.0071 19.932 17.6777 19.8961 17.3849 19.8243C17.0921 19.8243 16.7627 19.7883 16.4699 19.8243C16.1405 19.8243 15.8477 19.8602 15.5183 19.8243C15.1889 19.7883 14.8961 19.7524 14.5667 19.8243C14.2373 19.8961 13.9445 19.7883 13.6517 19.8243C13.3589 19.7165 13.0295 19.8602 12.7367 19.8243C12.4439 19.8243 12.1511 19.7883 11.8583 19.8243C11.5655 19.8243 11.2727 19.8602 10.9799 19.8243C10.6871 19.9679 10.3943 19.7883 10.1381 19.8243C9.84534 19.7524 9.58914 19.8243 9.29634 19.8243C9.04014 19.8602 8.74734 19.7524 8.49115 19.8243C8.23495 19.8243 7.97875 19.8602 7.72255 19.8243C7.46635 19.8961 7.21015 19.7524 6.95396 19.8243C6.69776 19.8243 6.47816 19.8243 6.22196 19.8243C6.00236 19.7165 5.74616 19.7883 5.52656 19.8243C5.30697 19.8243 5.08737 19.8961 4.86777 19.8243C4.64817 19.8243 4.42857 19.7524 4.24557 19.8243C4.02597 19.8243 3.84298 19.6447 3.65998 19.8243C3.47698 19.8602 3.29398 19.7165 3.11098 19.8243C2.92798 19.932 2.78158 19.8243 2.59858 19.8243C2.45218 19.8243 2.26919 19.8243 2.12279 19.8243C0.768595 19.8602 0 19.7883 0 19.7165C0 19.6447 0.951594 19.5729 2.59858 19.537C2.74498 19.537 2.92798 19.4651 3.11098 19.537C3.29398 19.537 3.47698 19.4651 3.65998 19.537C3.84298 19.4292 4.06257 19.501 4.24557 19.537C4.46517 19.537 4.64817 19.5729 4.86777 19.537C5.08737 19.4651 5.30697 19.5729 5.52656 19.537C5.74616 19.6088 5.96576 19.5729 6.22196 19.537C6.44156 19.6088 6.69776 19.537 6.95396 19.537C7.21015 19.6447 7.46635 19.5729 7.72255 19.537C7.97875 19.501 8.23495 19.537 8.49115 19.537C8.74734 19.5729 9.04014 19.501 9.29634 19.537C9.55254 19.501 9.84534 19.4651 10.1381 19.537C10.4309 19.501 10.6871 19.537 10.9799 19.537C11.2727 19.501 11.5655 19.537 11.8583 19.537C12.1511 19.501 12.4439 19.6447 12.7367 19.537C13.0295 19.537 13.3589 19.537 13.6517 19.537C13.9445 19.537 14.2739 19.5729 14.5667 19.537C14.8961 19.6447 15.1889 19.5729 15.5183 19.537C15.8477 19.501 16.1405 19.537 16.4699 19.537C16.7993 19.537 17.0921 19.537 17.3849 19.537C17.6777 19.501 18.0071 19.5729 18.2999 19.537C18.5927 19.501 18.8855 19.5729 19.1783 19.537C19.4711 19.501 19.7639 19.501 20.0567 19.537C20.3495 19.537 20.6423 19.6447 20.8985 19.537C21.1913 19.501 21.4475 19.3933 21.7403 19.537C21.9965 19.501 22.2893 19.6088 22.5455 19.537C22.8017 19.6447 23.0579 19.537 23.3141 19.537C23.5702 19.5729 23.8264 19.6088 24.0826 19.537C24.3388 19.501 24.5584 19.5729 24.8146 19.537C25.0342 19.4651 25.2904 19.6088 25.51 19.537C25.7296 19.537 25.9492 19.537 26.1688 19.537C26.3884 19.3933 26.608 19.537 26.791 19.537C27.0106 19.5729 27.1936 19.4292 27.3766 19.537C27.5596 19.4292 27.7426 19.537 27.9256 19.537C28.1086 19.5729 28.255 19.501 28.438 19.537C28.5844 19.4651 28.7674 19.5729 28.9138 19.537C29.0602 19.5729 29.2066 19.537 29.353 19.537C29.4994 19.537 29.6092 19.537 29.719 19.537C29.8288 19.537 29.9386 19.537 30.0484 19.537C30.634 19.6447 31 19.6806 31 19.7165Z" fill="#73523F"/>
<path d="M15.4817 3.95049C15.4451 3.95049 15.4085 3.91457 15.3719 3.84275V3.80683C15.3719 3.80683 15.3353 3.77092 15.3719 3.77092C15.4085 3.77092 15.2621 3.73501 15.3719 3.69909C15.4085 3.66318 15.3719 3.66318 15.3719 3.62727C15.3353 3.59135 15.4085 3.59135 15.3719 3.55544C15.2621 3.51952 15.4817 3.51952 15.3719 3.48361C15.3353 3.4477 15.3353 3.4477 15.3719 3.41178C15.4451 3.37587 15.3719 3.37587 15.3719 3.33996C15.4817 3.30404 15.4085 3.26813 15.3719 3.26813C15.5183 3.23222 15.4817 3.1963 15.3719 3.1963C15.3719 3.16039 15.4085 3.12448 15.3719 3.08856C15.3719 3.05265 15.3353 3.01674 15.3719 2.98082C15.2987 2.94491 15.2987 2.90899 15.3719 2.87308C15.2621 2.83717 15.2987 2.80125 15.3719 2.76534C15.4085 2.72943 15.2987 2.69351 15.3719 2.6576C15.3719 2.62169 15.3353 2.58577 15.3719 2.54986C15.4085 2.51395 15.4451 2.47803 15.3719 2.44212C15.3353 2.40621 15.2987 2.37029 15.3719 2.33438C15.2621 2.29847 15.2987 2.26255 15.3719 2.22664C15.3719 2.19072 15.4451 2.15481 15.3719 2.1189C15.3719 2.08298 15.3353 2.04707 15.3719 2.01116C15.4085 1.97524 15.4451 1.93933 15.3719 1.90342C15.2987 1.8675 15.4085 1.83159 15.3719 1.79568C15.4817 1.75976 15.3353 1.72385 15.3719 1.68794C15.3719 1.65202 15.4451 1.61611 15.3719 1.58019C15.3719 1.54428 15.3353 1.50837 15.3719 1.47245C15.2255 1.43654 15.4085 1.40063 15.3719 1.36471C15.4451 1.3288 15.3719 1.29289 15.3719 1.25697C15.3353 1.22106 15.4451 1.18515 15.3719 1.14923C15.3719 1.11332 15.3353 1.07741 15.3719 1.04149C15.2987 1.00558 15.4451 0.969665 15.3719 0.933751C15.3719 0.897838 15.3719 0.861924 15.3719 0.826011C15.4817 0.790097 15.4085 0.754184 15.3719 0.754184C15.3719 0.71827 15.2987 0.682357 15.3719 0.682357C15.3719 0.646443 15.4451 0.646443 15.3719 0.61053C15.3719 0.574616 15.5549 0.574616 15.3719 0.538703C15.3353 0.502789 15.4817 0.502789 15.3719 0.466876C15.2621 0.430962 15.3719 0.430962 15.3719 0.395049C15.3719 0.359135 15.3719 0.359135 15.3719 0.323222C15.3719 0.107741 15.4451 0 15.4817 0C15.5549 0 15.6281 0.107741 15.6647 0.323222C15.6647 0.359135 15.7379 0.359135 15.6647 0.395049C15.6647 0.430962 15.7379 0.430962 15.6647 0.466876C15.7745 0.502789 15.7013 0.502789 15.6647 0.538703C15.6647 0.574616 15.6281 0.574616 15.6647 0.61053C15.7379 0.646443 15.6281 0.682357 15.6647 0.682357C15.5915 0.71827 15.6281 0.754184 15.6647 0.754184C15.5915 0.790097 15.6647 0.826011 15.6647 0.861924C15.5549 0.897838 15.6281 0.933751 15.6647 0.969665C15.7013 1.00558 15.6647 1.04149 15.6647 1.07741C15.6647 1.11332 15.7013 1.14923 15.6647 1.18515C15.7013 1.22106 15.7379 1.25697 15.6647 1.29289C15.7013 1.3288 15.6647 1.36471 15.6647 1.40063C15.7013 1.43654 15.6647 1.47245 15.6647 1.50837C15.7013 1.54428 15.5549 1.58019 15.6647 1.61611C15.6647 1.65202 15.6647 1.68794 15.6647 1.72385C15.6647 1.75976 15.6281 1.79568 15.6647 1.83159C15.5549 1.8675 15.6281 1.90342 15.6647 1.93933C15.7013 1.97524 15.6647 2.01116 15.6647 2.04707C15.6647 2.08298 15.6647 2.1189 15.6647 2.15481C15.7013 2.19072 15.6281 2.22664 15.6647 2.26255C15.7013 2.29847 15.6281 2.33438 15.6647 2.37029C15.7013 2.40621 15.7013 2.44212 15.6647 2.47803C15.6647 2.51395 15.5549 2.54986 15.6647 2.58577C15.7013 2.62169 15.8111 2.6576 15.6647 2.69351C15.7013 2.72943 15.5915 2.76534 15.6647 2.80125C15.5549 2.83717 15.6647 2.87308 15.6647 2.909C15.6281 2.94491 15.5915 2.98082 15.6647 3.01674C15.7013 3.05265 15.6281 3.08856 15.6647 3.12448C15.7379 3.16039 15.5915 3.1963 15.6647 3.1963C15.6647 3.23222 15.6647 3.26813 15.6647 3.26813C15.8111 3.30404 15.6647 3.30404 15.6647 3.33996C15.6281 3.37587 15.7745 3.37587 15.6647 3.41178C15.7745 3.4477 15.6647 3.4477 15.6647 3.48361C15.6281 3.51952 15.7013 3.51952 15.6647 3.55544C15.7379 3.59135 15.6281 3.59135 15.6647 3.62727C15.6281 3.66318 15.6647 3.66318 15.6647 3.69909V3.77092C15.5915 3.91457 15.5549 3.95049 15.4817 3.95049Z" fill="#73523F"/>
<path d="M13.2491 5.45885C13.2125 5.45885 13.1759 5.42294 13.1393 5.35111V5.3152C13.1393 5.3152 13.1027 5.27929 13.1393 5.27929C13.1759 5.27929 13.0295 5.24337 13.1393 5.20746C13.1759 5.17155 13.1393 5.17155 13.1393 5.13563C13.1027 5.09972 13.1759 5.09972 13.1393 5.06381C13.0295 5.02789 13.2491 5.02789 13.1393 4.99198C13.1027 4.95607 13.1027 4.95607 13.1393 4.92015C13.2125 4.88424 13.1393 4.88424 13.1393 4.84832C13.2491 4.81241 13.1759 4.7765 13.1393 4.7765C13.2857 4.74058 13.2491 4.70467 13.1393 4.70467C13.1393 4.66876 13.1759 4.63284 13.1393 4.59693C13.1393 4.56102 13.1027 4.5251 13.1393 4.48919C13.0661 4.45328 13.0661 4.41736 13.1393 4.38145C13.0295 4.34554 13.0661 4.30962 13.1393 4.27371C13.1759 4.23779 13.0661 4.20188 13.1393 4.16597C13.1393 4.13005 13.1027 4.09414 13.1393 4.05823C13.1759 4.02231 13.2125 3.9864 13.1393 3.95049C13.1027 3.91457 13.0661 3.87866 13.1393 3.84275C13.0295 3.80683 13.0661 3.77092 13.1393 3.73501C13.1393 3.69909 13.1759 3.66318 13.1393 3.62727C13.1393 3.59135 13.1027 3.55544 13.1393 3.51952C13.1759 3.48361 13.2125 3.4477 13.1393 3.41178C13.0661 3.37587 13.1759 3.33996 13.1393 3.30404C13.2491 3.26813 13.1027 3.23222 13.1393 3.1963C13.1393 3.16039 13.1759 3.12448 13.1393 3.08856C13.1393 3.05265 13.1027 3.01674 13.1393 2.98082C12.9929 2.94491 13.1759 2.90899 13.1393 2.87308C13.2125 2.83717 13.1393 2.80125 13.1393 2.76534C13.1027 2.72943 13.2125 2.69351 13.1393 2.6576C13.1393 2.62169 13.1027 2.58577 13.1393 2.54986C13.0661 2.51395 13.2125 2.47803 13.1393 2.44212C13.1393 2.40621 13.1393 2.37029 13.1393 2.33438C13.2491 2.29847 13.1759 2.26255 13.1393 2.26255C13.1393 2.22664 13.0661 2.19072 13.1393 2.19072C13.1393 2.15481 13.2125 2.15481 13.1393 2.1189C13.1393 2.08298 13.3223 2.08298 13.1393 2.04707C13.1027 2.01116 13.2491 2.01116 13.1393 1.97524C13.0295 1.93933 13.1393 1.93933 13.1393 1.90342C13.1393 1.8675 13.1393 1.8675 13.1393 1.83159C13.1759 1.65202 13.2491 1.54428 13.3223 1.54428C13.3955 1.54428 13.4687 1.65202 13.5053 1.8675C13.5053 1.90342 13.5785 1.90342 13.5053 1.93933C13.5053 1.97524 13.5785 1.97524 13.5053 2.01116C13.6151 2.04707 13.5419 2.04707 13.5053 2.08298C13.5053 2.1189 13.4687 2.1189 13.5053 2.15481C13.5785 2.19072 13.4687 2.22664 13.5053 2.22664C13.4321 2.26255 13.4687 2.29847 13.5053 2.29847C13.4321 2.33438 13.5053 2.37029 13.5053 2.40621C13.3955 2.44212 13.4687 2.47803 13.5053 2.51395C13.5419 2.54986 13.5053 2.58577 13.5053 2.62169C13.4687 2.6576 13.5419 2.69351 13.5053 2.72943C13.5419 2.76534 13.5785 2.80125 13.5053 2.83717C13.5419 2.87308 13.5053 2.90899 13.5053 2.94491C13.5419 2.98082 13.5053 3.01674 13.5053 3.05265C13.5419 3.08856 13.3955 3.12448 13.5053 3.16039C13.5053 3.1963 13.5053 3.23222 13.5053 3.26813C13.5053 3.30404 13.4687 3.33996 13.5053 3.37587C13.3955 3.41178 13.4687 3.4477 13.5053 3.48361C13.5419 3.51952 13.5053 3.55544 13.5053 3.59135C13.5053 3.62727 13.5053 3.66318 13.5053 3.69909C13.5419 3.73501 13.4687 3.77092 13.5053 3.80683C13.5419 3.84275 13.4687 3.87866 13.5053 3.91457C13.5419 3.95049 13.5419 3.9864 13.5053 4.02231C13.5053 4.05823 13.3955 4.09414 13.5053 4.13005C13.5419 4.16597 13.6517 4.20188 13.5053 4.2378C13.5419 4.27371 13.4321 4.30962 13.5053 4.34554C13.3955 4.38145 13.5053 4.41736 13.5053 4.45328C13.4687 4.48919 13.4321 4.5251 13.5053 4.56102C13.5419 4.59693 13.4687 4.63284 13.5053 4.66876C13.5785 4.70467 13.4321 4.74058 13.5053 4.74058C13.5053 4.7765 13.5053 4.81241 13.5053 4.81241C13.6517 4.84832 13.5053 4.84833 13.5053 4.88424C13.4687 4.92015 13.6151 4.92015 13.5053 4.95607C13.6151 4.99198 13.5053 4.99198 13.5053 5.02789C13.4687 5.06381 13.5419 5.06381 13.5053 5.09972C13.5785 5.13563 13.4687 5.13563 13.5053 5.17155C13.4687 5.20746 13.5053 5.20746 13.5053 5.24337V5.3152C13.3223 5.42294 13.2857 5.45885 13.2491 5.45885Z" fill="#73523F"/>
<path d="M17.7509 5.45885C17.7143 5.45885 17.6777 5.42294 17.6411 5.35111V5.3152C17.6411 5.3152 17.6045 5.27929 17.6411 5.27929C17.6777 5.27929 17.5313 5.24337 17.6411 5.20746C17.6777 5.17155 17.6411 5.17155 17.6411 5.13563C17.6045 5.09972 17.6777 5.09972 17.6411 5.06381C17.5313 5.02789 17.7509 5.02789 17.6411 4.99198C17.6045 4.95607 17.6045 4.95607 17.6411 4.92015C17.7143 4.88424 17.6411 4.88424 17.6411 4.84832C17.7509 4.81241 17.6777 4.7765 17.6411 4.7765C17.7875 4.74058 17.7509 4.70467 17.6411 4.70467C17.6411 4.66876 17.6777 4.63284 17.6411 4.59693C17.6411 4.56102 17.6045 4.5251 17.6411 4.48919C17.5679 4.45328 17.5679 4.41736 17.6411 4.38145C17.5313 4.34554 17.5679 4.30962 17.6411 4.27371C17.6777 4.23779 17.5679 4.20188 17.6411 4.16597C17.6411 4.13005 17.6045 4.09414 17.6411 4.05823C17.6777 4.02231 17.7143 3.9864 17.6411 3.95049C17.6045 3.91457 17.5679 3.87866 17.6411 3.84275C17.5313 3.80683 17.5679 3.77092 17.6411 3.73501C17.6411 3.69909 17.6777 3.66318 17.6411 3.62727C17.6411 3.59135 17.6045 3.55544 17.6411 3.51952C17.6777 3.48361 17.7143 3.4477 17.6411 3.41178C17.5679 3.37587 17.6777 3.33996 17.6411 3.30404C17.7509 3.26813 17.6045 3.23222 17.6411 3.1963C17.6411 3.16039 17.6777 3.12448 17.6411 3.08856C17.6411 3.05265 17.6045 3.01674 17.6411 2.98082C17.4947 2.94491 17.6777 2.90899 17.6411 2.87308C17.7143 2.83717 17.6411 2.80125 17.6411 2.76534C17.6045 2.72943 17.7143 2.69351 17.6411 2.6576C17.6411 2.62169 17.6045 2.58577 17.6411 2.54986C17.5679 2.51395 17.7143 2.47803 17.6411 2.44212C17.6411 2.40621 17.6411 2.37029 17.6411 2.33438C17.7509 2.29847 17.6777 2.26255 17.6411 2.26255C17.6411 2.22664 17.5679 2.19072 17.6411 2.19072C17.6411 2.15481 17.7143 2.15481 17.6411 2.1189C17.6411 2.08298 17.8241 2.08298 17.6411 2.04707C17.6045 2.01116 17.7509 2.01116 17.6411 1.97524C17.5313 1.93933 17.6411 1.93933 17.6411 1.90342C17.6411 1.8675 17.6411 1.8675 17.6411 1.83159C17.6777 1.65202 17.7509 1.54428 17.8241 1.54428C17.8973 1.54428 17.9705 1.65202 18.0071 1.8675C18.0071 1.90342 18.0803 1.90342 18.0071 1.93933C18.0071 1.97524 18.0803 1.97524 18.0071 2.01116C18.1169 2.04707 18.0437 2.04707 18.0071 2.08298C18.0071 2.1189 17.9705 2.1189 18.0071 2.15481C18.0803 2.19072 17.9705 2.22664 18.0071 2.22664C17.9339 2.26255 17.9705 2.29847 18.0071 2.29847C17.9339 2.33438 18.0071 2.37029 18.0071 2.40621C17.8973 2.44212 17.9705 2.47803 18.0071 2.51395C18.0437 2.54986 18.0071 2.58577 18.0071 2.62169C17.9705 2.6576 18.0437 2.69351 18.0071 2.72943C18.0437 2.76534 18.0803 2.80125 18.0071 2.83717C18.0437 2.87308 18.0071 2.90899 18.0071 2.94491C18.0437 2.98082 18.0071 3.01674 18.0071 3.05265C18.0437 3.08856 17.8973 3.12448 18.0071 3.16039C18.0071 3.1963 18.0071 3.23222 18.0071 3.26813C18.0071 3.30404 17.9705 3.33996 18.0071 3.37587C17.8973 3.41178 17.9705 3.4477 18.0071 3.48361C18.0437 3.51952 18.0071 3.55544 18.0071 3.59135C18.0071 3.62727 18.0071 3.66318 18.0071 3.69909C18.0437 3.73501 17.9705 3.77092 18.0071 3.80683C18.0437 3.84275 17.9705 3.87866 18.0071 3.91457C18.0437 3.95049 18.0437 3.9864 18.0071 4.02231C18.0071 4.05823 17.8973 4.09414 18.0071 4.13005C18.0437 4.16597 18.1535 4.20188 18.0071 4.2378C18.0437 4.27371 17.9339 4.30962 18.0071 4.34554C17.8973 4.38145 18.0071 4.41736 18.0071 4.45328C17.9705 4.48919 17.9339 4.5251 18.0071 4.56102C18.0437 4.59693 17.9705 4.63284 18.0071 4.66876C18.0803 4.70467 17.9339 4.74058 18.0071 4.74058C18.0071 4.7765 18.0071 4.81241 18.0071 4.81241C18.1535 4.84832 18.0071 4.84833 18.0071 4.88424C17.9705 4.92015 18.1169 4.92015 18.0071 4.95607C18.1169 4.99198 18.0071 4.99198 18.0071 5.02789C17.9705 5.06381 18.0437 5.06381 18.0071 5.09972C18.0803 5.13563 17.9705 5.13563 18.0071 5.17155C17.9705 5.20746 18.0071 5.20746 18.0071 5.24337V5.3152C17.8241 5.42294 17.7875 5.45885 17.7509 5.45885Z" fill="#73523F"/>
</svg>
