<svg width="26" height="20" viewBox="0 0 26 20" fill="none" xmlns="http://www.w3.org/2000/svg">
<path d="M2.73244 3.6958C2.73244 3.6958 2.67224 3.72523 2.58194 3.72523C2.55184 3.72523 2.52174 3.72523 2.49164 3.72523C2.46154 3.72523 2.43144 3.72523 2.37124 3.75466C2.34114 3.75466 2.28094 3.78409 2.25084 3.78409C2.22074 3.78409 2.16054 3.81352 2.10033 3.81352C1.88963 3.87238 1.67893 3.96066 1.40803 4.13723C1.16722 4.28438 0.896321 4.51981 0.685619 4.84353C0.535117 5.04953 0.414716 5.31439 0.354515 5.57925C0.324415 5.72639 0.294314 5.87353 0.294314 6.02068C0.294314 6.10896 0.294314 6.16782 0.294314 6.25611C0.294314 6.3444 0.294314 6.43268 0.294314 6.49154C0.264214 6.81526 0.384615 7.19783 0.294314 7.55098C0.264214 7.93355 0.294314 8.31613 0.294314 8.72813C0.324415 9.14013 0.264214 9.55214 0.294314 9.99357C0.384615 10.435 0.204013 10.9059 0.294314 11.3767C0.324415 11.8476 0.324415 12.3479 0.294314 12.8482C0.234114 13.3485 0.294314 13.8782 0.294314 14.4079C0.204013 14.9376 0.264214 15.4968 0.294314 16.0559C0.234114 16.3502 0.204013 16.6151 0.234114 16.9093C0.234114 16.9682 0.234114 17.0565 0.234114 17.1153C0.234114 17.1448 0.234114 17.1742 0.234114 17.2331V17.3213C0.234114 17.3508 0.234114 17.3802 0.264214 17.4096L0.324415 17.5862C0.324415 17.6156 0.354515 17.6451 0.354515 17.6745C0.414716 17.9394 0.535117 18.2042 0.685619 18.4102C0.83612 18.6456 1.04682 18.8516 1.28763 18.9988C1.52843 19.1459 1.79933 19.2636 2.07023 19.3225C2.13043 19.3519 2.22074 19.3519 2.28094 19.3519C2.31104 19.3519 2.34114 19.3519 2.40134 19.3519H2.76254C2.85284 19.3519 2.91304 19.3519 3.00334 19.3519C3.66555 19.2931 4.32776 19.2931 4.98997 19.3519C5.65217 19.2636 6.34448 19.2931 7.03679 19.3519C7.7291 19.3814 8.45151 19.2931 9.14381 19.3519C9.86622 19.3519 10.5886 19.3225 11.311 19.3519C12.0334 19.3814 12.786 19.4108 13.5385 19.3519C14.291 19.3225 15.0435 19.2931 15.8261 19.3519C16.6087 19.2636 17.3612 19.2931 18.1438 19.3519C18.9264 19.3519 19.709 19.4108 20.5217 19.3519C21.3344 19.3519 22.1171 19.3225 22.9298 19.3519C23.291 19.3519 23.6522 19.2931 23.9833 19.1165C24.3144 18.9694 24.5853 18.7045 24.796 18.4102C24.8562 18.3514 24.8863 18.2631 24.9164 18.1748C24.9465 18.1453 24.9465 18.0865 24.9766 18.0571C25.0067 18.0276 25.0067 17.9688 25.0368 17.9393C25.097 17.7922 25.1572 17.6156 25.1873 17.4391L25.2174 17.3213V17.1448C25.2174 17.1153 25.2174 17.1153 25.2174 17.0859V16.9388C25.2174 16.7328 25.2174 16.5562 25.2174 16.3502C25.3077 15.585 25.1873 14.8199 25.2174 14.0842C25.2174 13.319 25.2776 12.5833 25.2174 11.8476C25.2174 11.1119 25.1873 10.3761 25.2174 9.66985C25.097 8.96356 25.2475 8.22784 25.2174 7.55098C25.2475 7.19783 25.2475 6.84469 25.2475 6.52097C25.2475 6.3444 25.2475 6.16782 25.2174 6.02068C25.2174 5.87353 25.1873 5.72639 25.1271 5.57925C25.0368 5.28496 24.8863 5.0201 24.7057 4.75524C24.5251 4.51981 24.2843 4.31381 23.9833 4.19609C23.7124 4.04895 23.4114 3.96066 23.1104 3.96066C23.0502 3.96066 22.9599 3.96066 22.8997 3.96066C22.8094 3.96066 22.7492 3.96066 22.6589 3.96066C22.5084 3.96066 22.3278 3.96066 22.1773 3.93123C21.5151 3.99009 20.8829 3.87237 20.2508 3.93123C19.6187 3.93123 19.0167 3.93123 18.4147 3.93123C17.8127 3.84295 17.2107 3.9018 16.6388 3.93123C16.0669 3.93123 15.495 3.99009 14.9532 3.93123C14.4114 3.93123 13.8696 3.87237 13.3579 3.93123C12.8462 3.93123 12.3344 3.78409 11.8528 3.93123C11.3712 3.96066 10.8896 3.84295 10.4381 3.93123C9.98662 4.01952 9.56522 3.93123 9.14381 3.93123C8.72241 3.93123 8.3311 3.93123 7.9398 3.93123C6.22408 3.9018 4.86957 3.9018 3.93645 3.87237C3.48495 3.87237 3.12375 3.84295 2.88294 3.84295C2.85284 3.72523 2.73244 3.72523 2.73244 3.6958C2.73244 3.6958 2.88294 3.66637 3.18395 3.66637C3.48495 3.66637 3.90635 3.63694 4.47826 3.63694C5.62207 3.60752 7.24749 3.57809 9.35452 3.57809C9.77592 3.57809 10.1973 3.51923 10.6488 3.57809C11.1003 3.57809 11.5819 3.51923 12.0635 3.57809C12.5451 3.4898 13.0569 3.54866 13.5686 3.57809C14.0803 3.57809 14.6221 3.60752 15.1639 3.57809C15.7057 3.51923 16.2776 3.60752 16.8495 3.57809C17.4214 3.63694 18.0234 3.60752 18.6254 3.57809C19.2274 3.63694 19.8294 3.57809 20.4615 3.57809C21.0936 3.66637 21.7258 3.60752 22.388 3.57809C22.5385 3.57809 22.7191 3.57809 22.8696 3.57809C22.9599 3.57809 23.0201 3.57809 23.1104 3.57809C23.2007 3.57809 23.291 3.57809 23.3813 3.60752C23.7425 3.63694 24.1037 3.75466 24.4348 3.93123C24.7659 4.10781 25.0669 4.34324 25.3077 4.6081C25.5485 4.90238 25.7291 5.2261 25.8495 5.57925C25.9097 5.75582 25.9398 5.93239 25.9699 6.13839C26 6.3444 26 6.49154 26 6.66811C26 7.02126 26 7.3744 25.9699 7.69812C26 8.40441 25.9699 9.1107 25.9699 9.81699C26 10.5233 25.9699 11.259 25.9699 11.9947C26 12.7304 25.8796 13.4662 25.9699 14.2313C25.9699 14.9965 25.9699 15.7322 25.9699 16.4973C25.9699 16.7033 25.9699 16.8799 25.9699 17.0859V17.2331C25.9699 17.2625 25.9699 17.2919 25.9699 17.3213V17.4096C25.9699 17.4685 25.9699 17.5273 25.9699 17.5568L25.9398 17.7039C25.9097 17.9099 25.8495 18.1159 25.7592 18.3219C25.7291 18.3808 25.699 18.4102 25.699 18.4691C25.6689 18.5279 25.6689 18.5574 25.6388 18.6162C25.5786 18.7045 25.5184 18.7928 25.4582 18.8811L25.3378 18.9988L25.1271 19.0282C25.0368 19.1165 24.9766 19.1754 24.8863 19.2342C24.8562 19.2636 24.796 19.2931 24.7659 19.3225L24.6455 19.4108L24.495 19.4991C24.4348 19.5285 24.4047 19.5579 24.3445 19.5874C23.9532 19.7934 23.5318 19.9111 23.0803 19.9405C22.2676 19.9699 21.4548 19.9405 20.6722 19.9405C19.8595 19.9405 19.0769 19.9405 18.2943 19.9405C17.5117 19.9699 16.7291 19.9111 15.9766 19.9405C15.194 19.9699 14.4415 19.9111 13.689 19.9405C12.9365 19.9699 12.1839 19.9699 11.4615 19.9405C10.7391 19.9405 9.98662 19.8522 9.29431 19.9405C8.57191 19.9699 7.8796 20.0582 7.18729 19.9405C6.49498 19.9699 5.80268 19.8817 5.14047 19.9405C4.47826 19.8522 3.81605 19.9405 3.15385 19.9405C3.06355 19.9405 3.00334 19.9405 2.91304 19.9405H2.55184C2.52174 19.9405 2.46154 19.9405 2.43144 19.9111C2.34114 19.8817 2.25084 19.8817 2.19064 19.8522C1.85953 19.7639 1.52843 19.6168 1.25753 19.4696C0.956522 19.2931 0.715719 19.0576 0.535117 18.7634C0.354515 18.4985 0.234114 18.1748 0.143813 17.8805C0.143813 17.8511 0.113712 17.7922 0.113712 17.7628C0.113712 17.7333 0.083612 17.6745 0.083612 17.6451L0.0535117 17.5273C0.0535117 17.4979 0.0535117 17.4391 0.0535117 17.4096V17.1742C0.0535117 17.1153 0.0535117 17.0271 0.0535117 16.9682C0.083612 16.6739 0.083612 16.409 0.0535117 16.1148C0.0535117 15.5556 0.0535117 14.9965 0.0535117 14.4667C-0.0668896 13.937 0.0535117 13.4073 0.0535117 12.907C0.083612 12.4067 -0.0367893 11.9064 0.0535117 11.4356C-0.0367893 10.9647 0.0535117 10.4939 0.0535117 10.0524C0.083612 9.61099 0.0234114 9.19899 0.0535117 8.78699C-0.00668896 8.37498 0.083612 7.99241 0.0535117 7.60983C0.083612 7.22726 0.0535117 6.87411 0.0535117 6.5504C0.0535117 6.46211 0.0535117 6.37382 0.0535117 6.31497C0.0535117 6.22668 0.0535117 6.13839 0.0535117 6.05011C0.083612 5.87353 0.113712 5.72639 0.173913 5.57925C0.264214 5.28496 0.414716 5.0201 0.565217 4.78467C0.80602 4.46095 1.10702 4.22552 1.37793 4.07838C1.64883 3.93123 1.91973 3.84295 2.13043 3.78409C2.19064 3.78409 2.22074 3.75466 2.28094 3.75466C2.34114 3.75466 2.37124 3.75466 2.40134 3.75466C2.43144 3.75466 2.49164 3.75466 2.52174 3.75466C2.55184 3.75466 2.58194 3.75466 2.61204 3.75466C2.67224 3.6958 2.73244 3.6958 2.73244 3.6958Z" fill="#73523F"/>
<path d="M6.34448 0.193773C6.37458 0.193773 6.40468 0.546919 6.43478 1.22378C6.43478 1.3415 6.43478 1.45921 6.43478 1.57693C6.43478 1.69464 6.46488 1.84179 6.43478 1.98893C6.40468 2.13607 6.52508 2.28322 6.43478 2.43036C6.40468 2.57751 6.43478 2.75408 6.43478 2.93065C6.43478 3.01894 6.43478 3.10723 6.43478 3.19551C6.43478 3.25437 6.43478 3.2838 6.43478 3.34266C6.43478 3.37209 6.43478 3.40151 6.43478 3.40151V3.43094C6.43478 3.43094 6.43478 3.43094 6.43478 3.46037C6.52508 3.43094 6.52508 3.46037 6.52508 3.46037C6.52508 3.4898 6.52508 3.4898 6.49498 3.51923C6.52508 3.54866 6.58528 3.57809 6.67559 3.51923C6.88629 3.4898 7.09699 3.4898 7.30769 3.51923C7.51839 3.57809 7.7592 3.51923 7.9699 3.51923C8.2107 3.60752 8.4515 3.54866 8.69231 3.51923C8.93311 3.63694 9.17391 3.60752 9.44482 3.51923C9.68562 3.51923 9.95652 3.54866 10.2274 3.51923C10.4983 3.51923 10.7692 3.4898 11.0401 3.51923C11.311 3.46037 11.5819 3.46037 11.8829 3.51923C12.1538 3.43094 12.4548 3.46037 12.7559 3.51923C13.0569 3.54866 13.3579 3.46037 13.6589 3.51923C13.9599 3.51923 14.2609 3.4898 14.592 3.51923C14.893 3.54866 15.2241 3.57809 15.5251 3.51923C15.8562 3.4898 16.1572 3.46037 16.4883 3.51923C16.8194 3.43094 17.1505 3.46037 17.4816 3.51923C17.8127 3.51923 18.1438 3.57809 18.4749 3.51923C18.6555 3.51923 18.806 3.51923 18.9866 3.51923H19.1973C19.1973 3.51923 19.1973 3.4898 19.2274 3.4898V3.31323C19.2274 3.13665 19.2274 2.98951 19.1973 2.81294C19.1371 2.48922 19.2274 2.1655 19.1973 1.84179C19.2876 1.51807 19.1672 1.19435 19.1973 0.870636C19.1973 0.811778 19.1973 0.782349 19.1973 0.723491V0.605776C19.1973 0.576347 19.1973 0.576347 19.1973 0.546919H19.1672C19.1672 0.546919 19.1672 0.546919 19.1371 0.546919H19.0769C18.7458 0.546919 18.4448 0.576347 18.1438 0.546919C17.8428 0.664634 17.5117 0.51749 17.2107 0.546919C16.9097 0.488061 16.6087 0.546919 16.3077 0.546919C16.0067 0.576347 15.7358 0.488061 15.4348 0.546919C15.1639 0.546919 14.8629 0.576347 14.592 0.546919C14.3211 0.605776 14.0502 0.488061 13.7793 0.546919C13.5084 0.546919 13.2676 0.546919 12.9967 0.546919C12.7559 0.458632 12.4849 0.51749 12.2441 0.546919C12.0033 0.546919 11.7625 0.605776 11.5217 0.546919C11.2809 0.546919 11.0702 0.488061 10.8595 0.546919C10.6488 0.546919 10.4381 0.399775 10.2274 0.546919C10.0167 0.576347 9.83612 0.458632 9.62542 0.546919C9.44482 0.635205 9.26421 0.546919 9.08361 0.546919C8.90301 0.546919 8.75251 0.546919 8.57191 0.546919C7.15719 0.282059 6.34448 0.223202 6.34448 0.193773C6.34448 0.164344 6.61538 0.134915 7.09699 0.105486C7.5786 0.0760576 8.2709 0.0466288 9.14381 0.0466288C9.32442 0.0466288 9.50502 -0.0122289 9.68562 0.0466288C9.86622 0.0466288 10.0769 -0.0122289 10.2876 0.0466288C10.4983 -0.0416577 10.709 0.0171999 10.9197 0.0466288C11.1304 0.0466288 11.3712 0.0760576 11.5819 0.0466288C11.8227 -0.0122289 12.0635 0.0760576 12.3043 0.0466288C12.5451 0.105486 12.786 0.0760576 13.0569 0.0466288C13.2977 0.105486 13.5686 0.0466288 13.8395 0.0466288C14.1104 0.134915 14.3813 0.0760576 14.6522 0.0466288C14.9231 0.0171999 15.194 0.0466288 15.495 0.0466288C15.7659 0.0760576 16.0669 0.0171999 16.3679 0.0466288C16.6689 0.0171999 16.9699 -0.0122289 17.2709 0.0466288C17.5719 0.0171999 17.8729 0.0466288 18.204 0.0466288C18.505 0.0171999 18.8361 0.0466288 19.1371 0.0466288H19.2876C19.3478 0.0466288 19.408 0.0466288 19.4682 0.0466288C19.5886 0.0466288 19.6789 0.0466288 19.7993 0.0466288C19.7993 0.223202 19.7692 0.399774 19.7692 0.576347V0.664634C19.7692 0.694063 19.7692 0.723491 19.7692 0.723491C19.7692 0.782349 19.7692 0.811778 19.7993 0.870636C19.7993 1.19435 19.7993 1.51807 19.7993 1.84179C19.7993 2.1655 19.7692 2.48922 19.7993 2.81294C19.7692 2.98951 19.7391 3.13665 19.7391 3.31323C19.7391 3.34266 19.7391 3.40151 19.7391 3.43094V3.60752C19.7391 3.75466 19.7692 3.93123 19.7692 4.07838C19.6187 4.07838 19.4381 4.07838 19.2876 4.07838H18.9866C18.806 4.07838 18.6555 4.07838 18.4749 4.07838C18.1438 4.07838 17.8127 4.07838 17.4816 4.07838C17.1505 4.10781 16.8194 4.04895 16.4883 4.07838C16.1572 4.10781 15.8562 4.04895 15.5251 4.07838C15.194 4.10781 14.893 4.10781 14.592 4.07838C14.291 4.07838 13.9599 3.99009 13.6589 4.07838C13.3579 4.10781 13.0569 4.19609 12.7559 4.07838C12.4548 4.10781 12.1839 4.01952 11.8829 4.07838C11.612 3.99009 11.311 4.07838 11.0401 4.07838C10.7692 4.04895 10.4983 4.01952 10.2274 4.07838C9.95652 4.10781 9.71572 4.04895 9.44482 4.07838C9.20401 4.13723 8.93311 4.01952 8.69231 4.07838C8.4515 4.07838 8.2107 4.07838 7.9699 4.07838C7.7291 4.19609 7.51839 4.07838 7.30769 4.07838C7.09699 4.04895 6.88629 4.16666 6.67559 4.07838C6.67559 4.07838 6.67559 4.07838 6.64548 4.07838H6.61538C6.58528 4.07838 6.55518 4.07838 6.55518 4.07838C6.49498 4.07838 6.46488 4.07838 6.40468 4.07838C6.31438 4.07838 6.22408 4.07838 6.13378 4.07838C6.13378 3.93123 6.16388 3.78409 6.16388 3.63694C6.16388 3.60752 6.16388 3.60752 6.16388 3.57809V3.54866C6.16388 3.51923 6.16388 3.4898 6.16388 3.4898C6.16388 3.43094 6.16388 3.40151 6.16388 3.34266C6.16388 3.25437 6.16388 3.16608 6.19398 3.0778C6.13378 2.90122 6.22408 2.75408 6.19398 2.57751C6.22408 2.43036 6.19398 2.28322 6.19398 2.13607C6.19398 1.98893 6.19398 1.87122 6.19398 1.72407C6.19398 1.60636 6.19398 1.48864 6.19398 1.37093C6.25418 0.546919 6.28428 0.193773 6.34448 0.193773Z" fill="#73523F"/>
<path d="M0.143813 6.13839C0.173913 6.13839 0.173913 6.28554 0.204013 6.57983C0.204013 6.72697 0.234114 6.90354 0.234114 7.10954C0.234114 7.28612 0.234114 7.52155 0.264214 7.75698C0.264214 7.75698 0.264214 7.78641 0.264214 7.81584C0.324415 7.81584 0.384615 7.81584 0.444816 7.81584C0.535117 7.81584 0.595318 7.81584 0.685619 7.81584C0.896321 7.81584 1.10702 7.78641 1.34783 7.81584C1.58863 7.84526 1.82943 7.72755 2.10033 7.81584C2.37124 7.84526 2.64214 7.81584 2.91304 7.81584C3.21405 7.78641 3.48495 7.84526 3.81605 7.81584C4.11706 7.72755 4.44816 7.90412 4.77926 7.81584C5.11037 7.78641 5.47157 7.78641 5.80268 7.81584C6.16388 7.87469 6.52508 7.81584 6.88629 7.81584C7.24749 7.90412 7.6388 7.87469 8.0301 7.81584C8.4214 7.93355 8.84281 7.90412 9.23411 7.81584C9.65552 7.81584 10.0769 7.84526 10.4983 7.81584C10.9197 7.81584 11.3712 7.78641 11.8227 7.81584C12.2742 7.75698 12.7258 7.75698 13.2074 7.81584C13.6589 7.72755 14.1405 7.75698 14.6221 7.81584C15.1037 7.84526 15.5853 7.75698 16.0669 7.81584C16.5485 7.81584 17.0602 7.78641 17.5719 7.81584C18.0836 7.84526 18.5953 7.87469 19.107 7.81584C19.6187 7.78641 20.1605 7.75698 20.6722 7.81584C21.214 7.72755 21.7258 7.75698 22.2676 7.81584C22.8094 7.81584 23.3512 7.87469 23.893 7.81584C24.1639 7.81584 24.4348 7.81584 24.7057 7.81584C24.8562 7.81584 24.9766 7.81584 25.1271 7.81584H25.2475V7.66869C25.2475 7.52155 25.2475 7.40383 25.2475 7.25669C25.2475 7.10954 25.2475 6.99183 25.2475 6.84469C25.2475 6.78583 25.2475 6.69754 25.2475 6.63868H25.1271C25.0067 6.63868 24.8863 6.63868 24.7358 6.63868C24.495 6.63868 24.2241 6.60925 23.9833 6.63868C23.4415 6.5504 22.8997 6.66811 22.388 6.63868C21.8462 6.63868 21.3344 6.60925 20.8227 6.63868C20.311 6.63868 19.7993 6.66811 19.2876 6.63868C18.7759 6.7564 18.2943 6.60925 17.7826 6.63868C17.301 6.57983 16.7893 6.63868 16.3378 6.63868C15.8562 6.66811 15.3746 6.57983 14.9231 6.63868C14.4716 6.63868 13.99 6.66811 13.5385 6.63868C13.087 6.69754 12.6355 6.57983 12.214 6.63868C11.7926 6.63868 11.3712 6.63868 10.9498 6.63868C10.5284 6.5504 10.1371 6.60925 9.74582 6.63868C9.35452 6.63868 8.96321 6.69754 8.60201 6.63868C8.2408 6.63868 7.8495 6.57983 7.51839 6.63868C7.15719 6.63868 6.82609 6.49154 6.49498 6.63868C6.16388 6.66811 5.83278 6.5504 5.53177 6.63868C5.23077 6.72697 4.92977 6.63868 4.62876 6.63868C4.32776 6.63868 4.05686 6.63868 3.81605 6.63868C2.64214 6.60925 1.70903 6.60925 1.07692 6.57983C0.505017 6.16782 0.143813 6.13839 0.143813 6.13839C0.143813 6.10896 0.565217 6.07954 1.34783 6.05011C2.13043 6.02068 3.27425 5.99125 4.68896 5.99125C4.98997 5.99125 5.26087 5.93239 5.59197 5.99125C5.89298 5.99125 6.22408 5.93239 6.55518 5.99125C6.88629 5.90296 7.24749 5.96182 7.57859 5.99125C7.9398 5.99125 8.301 6.02068 8.66221 5.99125C9.02341 5.93239 9.41472 6.02068 9.80602 5.99125C10.1973 6.05011 10.6187 6.02068 11.01 5.99125C11.4314 6.05011 11.8528 5.99125 12.2742 5.99125C12.6957 6.07954 13.1472 6.02068 13.5987 5.99125C14.0502 5.96182 14.5017 5.99125 14.9833 5.99125C15.4348 6.02068 15.9164 5.96182 16.398 5.99125C16.8796 5.96182 17.3612 5.93239 17.8428 5.99125C18.3244 5.96182 18.8361 5.99125 19.3478 5.99125C19.8595 5.96182 20.3712 5.99125 20.8829 5.99125C21.3946 5.96182 21.9365 6.07954 22.4482 5.99125C22.99 5.99125 23.5017 5.99125 24.0435 5.99125C24.2843 5.99125 24.5552 5.99125 24.796 5.99125C24.9164 5.99125 25.0368 5.99125 25.1873 5.99125C25.398 5.99125 25.6087 5.99125 25.8495 5.99125C25.8495 6.05011 25.8495 6.13839 25.8495 6.19725C25.8495 6.25611 25.8495 6.31497 25.8495 6.40325V6.57983C25.8495 6.63868 25.8495 6.72697 25.8495 6.78583C25.8495 6.93297 25.8495 7.05069 25.8495 7.19783C25.8495 7.34497 25.8495 7.46269 25.8796 7.60983V7.87469C25.8796 7.99241 25.8796 8.13955 25.8796 8.25727C25.6388 8.25727 25.4281 8.25727 25.1873 8.25727C25.0368 8.25727 24.9164 8.25727 24.7659 8.25727C24.495 8.25727 24.2241 8.25727 23.9532 8.25727C23.4114 8.25727 22.8696 8.25727 22.3278 8.25727C21.786 8.2867 21.2441 8.22784 20.7324 8.25727C20.1906 8.2867 19.6789 8.22784 19.1672 8.25727C18.6555 8.2867 18.1438 8.2867 17.6321 8.25727C17.1204 8.25727 16.6388 8.16898 16.1271 8.25727C15.6455 8.2867 15.1338 8.37498 14.6823 8.25727C14.2007 8.2867 13.7191 8.19841 13.2676 8.25727C12.8161 8.16898 12.3344 8.25727 11.8829 8.25727C11.4314 8.22784 10.9799 8.19841 10.5585 8.25727C10.1371 8.2867 9.71572 8.22784 9.29431 8.25727C8.87291 8.31613 8.4816 8.19841 8.0903 8.25727C7.699 8.25727 7.30769 8.25727 6.94649 8.25727C6.58528 8.37498 6.19398 8.25727 5.86288 8.25727C5.50167 8.22784 5.17057 8.34555 4.83946 8.25727C4.50836 8.34555 4.17726 8.25727 3.87625 8.25727C3.57525 8.22784 3.27425 8.2867 2.97324 8.25727C2.67224 8.31613 2.40134 8.22784 2.16054 8.25727C1.88963 8.22784 1.64883 8.25727 1.40803 8.25727C1.16722 8.25727 0.956522 8.25727 0.745819 8.25727C0.535117 8.25727 0.324415 8.25727 0.113712 8.25727C0.113712 8.22784 0.113712 8.19841 0.113712 8.16898C0.113712 8.02184 0.113712 7.84526 0.113712 7.69812C0.113712 7.58041 0.113712 7.46269 0.113712 7.3744C0.113712 7.1684 0.143813 6.99183 0.143813 6.84469C0.113712 6.28554 0.143813 6.13839 0.143813 6.13839Z" fill="#73523F"/>
<path d="M0.143813 15.4968C0.173913 15.4968 0.173913 15.6439 0.204013 15.9382C0.204013 16.0853 0.204013 16.2619 0.234114 16.4679C0.234114 16.6445 0.234114 16.8799 0.264214 17.1153C0.264214 17.1153 0.264214 17.1448 0.264214 17.1742C0.324415 17.1742 0.384615 17.1742 0.444816 17.1742C0.535117 17.1742 0.595318 17.1742 0.685619 17.1742C0.896321 17.1742 1.10702 17.1448 1.34783 17.1742C1.58863 17.2036 1.82943 17.0859 2.10033 17.1742C2.37124 17.2036 2.64214 17.1742 2.91304 17.1742C3.21405 17.1448 3.48495 17.2036 3.81605 17.1742C4.11706 17.0859 4.44816 17.2625 4.77926 17.1742C5.11037 17.1448 5.47157 17.1448 5.80268 17.1742C6.16388 17.2331 6.52508 17.1742 6.88629 17.1742C7.24749 17.2625 7.6388 17.2036 8.0301 17.1742C8.4214 17.2919 8.84281 17.2625 9.23411 17.1742C9.65552 17.1742 10.0769 17.2036 10.4983 17.1742C10.9197 17.1742 11.3712 17.1448 11.8227 17.1742C12.2742 17.1153 12.7258 17.1153 13.2074 17.1742C13.6589 17.0859 14.1405 17.1153 14.6221 17.1742C15.1037 17.2036 15.5853 17.1153 16.0669 17.1742C16.5485 17.1742 17.0602 17.1448 17.5719 17.1742C18.0836 17.2036 18.5953 17.2331 19.107 17.1742C19.6187 17.1448 20.1605 17.1153 20.6722 17.1742C21.214 17.0859 21.7258 17.1153 22.2676 17.1742C22.8094 17.1742 23.3512 17.2036 23.893 17.1742C24.1639 17.1742 24.4348 17.1742 24.7057 17.1742C24.8562 17.1742 24.9766 17.1742 25.1271 17.1742H25.2475V17.0271C25.2475 16.8799 25.2475 16.7622 25.2475 16.6151C25.2475 16.4679 25.2475 16.3502 25.2475 16.203C25.2475 16.1442 25.2475 16.0559 25.2475 15.997H25.1271C25.0067 15.997 24.8863 15.997 24.7358 15.997C24.495 15.997 24.2241 15.9676 23.9833 15.997C23.4415 15.9088 22.8997 16.0265 22.388 15.997C21.8462 15.997 21.3344 15.9676 20.8227 15.997C20.311 15.997 19.7993 16.0265 19.2876 15.997C18.7759 16.1148 18.2943 15.9676 17.7826 15.997C17.301 15.9382 16.7893 15.997 16.3378 15.997C15.8562 16.0265 15.3746 15.9382 14.9231 15.997C14.4716 15.997 13.99 16.0265 13.5385 15.997C13.087 16.0559 12.6355 15.9382 12.214 15.997C11.7926 15.997 11.3712 15.997 10.9498 15.997C10.5284 15.9088 10.1371 15.9676 9.74582 15.997C9.35452 15.997 8.96321 16.0559 8.60201 15.997C8.2408 15.997 7.8495 15.9382 7.51839 15.997C7.15719 15.997 6.82609 15.8499 6.49498 15.997C6.16388 16.0265 5.83278 15.9088 5.53177 15.997C5.23077 16.0853 4.92977 15.997 4.62876 15.997C4.32776 15.997 4.05686 15.997 3.81605 15.997C2.64214 15.9676 1.70903 15.9676 1.07692 15.9382C0.505017 15.5556 0.143813 15.5262 0.143813 15.4968C0.143813 15.4673 0.565217 15.4379 1.34783 15.4085C2.13043 15.379 3.27425 15.3496 4.68896 15.3496C4.98997 15.3496 5.26087 15.2908 5.59197 15.3496C5.89298 15.3496 6.22408 15.2908 6.55518 15.3496C6.88629 15.2613 7.24749 15.3202 7.57859 15.3496C7.9398 15.3496 8.301 15.379 8.66221 15.3496C9.02341 15.2908 9.41472 15.379 9.80602 15.3496C10.1973 15.4085 10.6187 15.379 11.01 15.3496C11.4314 15.4085 11.8528 15.3496 12.2742 15.3496C12.6957 15.4379 13.1472 15.379 13.5987 15.3496C14.0502 15.3202 14.5017 15.3496 14.9833 15.3496C15.4348 15.379 15.9164 15.3202 16.398 15.3496C16.8796 15.3202 17.3612 15.2908 17.8428 15.3496C18.3244 15.3202 18.8361 15.3496 19.3478 15.3496C19.8595 15.3202 20.3712 15.3496 20.8829 15.3496C21.3946 15.3202 21.9365 15.4379 22.4482 15.3496C22.99 15.3496 23.5017 15.3496 24.0435 15.3496C24.2843 15.3496 24.5552 15.3496 24.796 15.3496C24.9164 15.3496 25.0368 15.3496 25.1873 15.3496C25.398 15.3496 25.6087 15.3496 25.8495 15.3496C25.8495 15.4085 25.8495 15.4968 25.8495 15.5556C25.8495 15.6145 25.8495 15.6733 25.8495 15.7616V15.9382C25.8495 15.997 25.8495 16.0853 25.8495 16.1442C25.8495 16.2913 25.8495 16.409 25.8495 16.5562C25.8495 16.7033 25.8495 16.8211 25.8796 16.9682V17.2331C25.8796 17.3508 25.8796 17.4979 25.8796 17.6156C25.6388 17.6156 25.4281 17.6156 25.1873 17.6156C25.0368 17.6156 24.9164 17.6156 24.7659 17.6156C24.495 17.6156 24.2241 17.6156 23.9532 17.6156C23.4114 17.6156 22.8696 17.6156 22.3278 17.6156C21.786 17.6451 21.2441 17.5862 20.7324 17.6156C20.1906 17.6451 19.6789 17.5862 19.1672 17.6156C18.6555 17.6451 18.1438 17.6451 17.6321 17.6156C17.1204 17.6156 16.6388 17.5273 16.1271 17.6156C15.6455 17.6451 15.1338 17.7333 14.6823 17.6156C14.2007 17.6451 13.7191 17.5568 13.2676 17.6156C12.8161 17.5273 12.3344 17.6156 11.8829 17.6156C11.4314 17.5862 10.9799 17.5568 10.5585 17.6156C10.1371 17.6451 9.71572 17.5862 9.29431 17.6156C8.87291 17.6745 8.4816 17.5568 8.0903 17.6156C7.699 17.6156 7.30769 17.6156 6.94649 17.6156C6.58528 17.7333 6.19398 17.6156 5.86288 17.6156C5.50167 17.5862 5.17057 17.7039 4.83946 17.6156C4.50836 17.7039 4.17726 17.6156 3.87625 17.6156C3.57525 17.5862 3.27425 17.6451 2.97324 17.6156C2.67224 17.6745 2.40134 17.5862 2.16054 17.6156C1.88963 17.5862 1.64883 17.6156 1.40803 17.6156C1.16722 17.6156 0.956522 17.6156 0.745819 17.6156C0.535117 17.6156 0.324415 17.6156 0.113712 17.6156C0.113712 17.5862 0.113712 17.5568 0.113712 17.5273C0.113712 17.3802 0.113712 17.2036 0.113712 17.0565C0.113712 16.9388 0.113712 16.8211 0.113712 16.7328C0.113712 16.5268 0.143813 16.3502 0.143813 16.203C0.113712 15.6439 0.143813 15.4968 0.143813 15.4968Z" fill="#73523F"/>
<path d="M11.5819 9.66985C11.612 9.66985 11.6421 9.84643 11.6722 10.1407C11.6722 10.1996 11.6722 10.229 11.6722 10.2879C11.6722 10.3173 11.6722 10.3467 11.6722 10.3761C11.6722 10.4056 11.6722 10.4056 11.6722 10.435C11.6722 10.4644 11.6722 10.4644 11.6722 10.4939C11.6421 10.5233 11.6722 10.5821 11.7023 10.641C11.7324 10.6999 11.7324 10.7587 11.7023 10.7881C11.7023 10.8176 11.7023 10.847 11.7023 10.847C11.612 10.847 11.5518 10.847 11.4615 10.8764C11.4013 10.8764 11.3411 10.8764 11.2809 10.8764C11.2508 10.8764 11.2207 10.8764 11.2207 10.8764C11.1906 10.8764 11.1906 10.8764 11.1605 10.9059C11.0702 10.9941 10.9799 10.8176 10.8896 10.9059C10.8595 10.9059 10.8294 10.9059 10.8294 10.9059H10.7993C10.7692 10.9059 10.7692 10.9059 10.7391 10.9059C10.709 10.8764 10.6789 10.8764 10.6789 10.8764C10.6789 10.9059 10.709 10.9647 10.709 10.9941C10.6789 10.9941 10.6789 10.9941 10.6789 11.0236C10.6789 11.0236 10.6789 11.0236 10.6789 11.053V11.0824C10.6789 11.1413 10.709 11.2002 10.7391 11.2296C10.6187 11.3473 10.6488 11.4356 10.7391 11.5533C10.7391 11.671 10.709 11.7887 10.7391 11.9064V11.9947C10.7391 11.9947 10.7391 12.0242 10.7391 12.0536C10.7391 12.0536 10.7391 12.0536 10.7692 12.0536C10.7993 12.0242 10.8294 12.0242 10.8294 12.0242C10.8294 12.0242 10.8294 12.0536 10.8595 12.0536C10.9799 11.9653 11.1304 11.9947 11.2508 12.0536C11.2508 12.0536 11.2508 12.0536 11.2809 12.0536H11.311C11.3411 12.0536 11.3712 12.0536 11.3712 12.0536C11.4314 12.0536 11.4615 12.0536 11.5217 12.0536C11.6421 12.0536 11.7625 12.0242 11.8528 12.0242C11.8528 12.0536 11.8528 12.1124 11.8227 12.1419C11.8227 12.2596 11.8227 12.3773 11.8227 12.495C11.8227 12.5539 11.8227 12.5833 11.8227 12.6422C11.8227 12.6716 11.8227 12.701 11.8227 12.7304C11.7926 12.7893 11.7926 12.8776 11.7926 12.9365C11.7926 12.9659 11.7926 12.9659 11.7926 12.9953C11.7926 13.0247 11.7926 13.0247 11.7926 13.0247L11.8227 13.0542H11.8528C11.8528 13.0542 11.8528 13.0542 11.8829 13.0836V13.0542H11.913C11.9431 13.0542 11.9732 13.0542 12.0334 13.0542C12.0936 13.0542 12.1839 13.0836 12.2441 13.113C12.3946 13.113 12.5451 13.1425 12.6957 13.113C12.7258 13.113 12.7559 13.113 12.8161 13.113H12.8462C12.8462 13.113 12.8462 13.113 12.8763 13.113C12.8763 13.113 12.9064 13.113 12.9064 13.0836V13.0542C12.9064 13.0247 12.9064 12.9659 12.8763 12.9365C12.8462 12.8482 12.8462 12.7893 12.8763 12.701V12.5539C12.8763 12.495 12.8763 12.4067 12.8763 12.3479C12.9064 12.2596 12.9064 12.1713 12.9064 12.0536C12.9666 12.0536 13.0569 12.0242 13.1472 12.0242C13.2375 12.0242 13.2977 12.0242 13.388 12.0242H13.4783C13.5084 12.0242 13.5084 12.0242 13.5385 12.0242C13.5686 12.0242 13.5987 12.0242 13.6589 12.0242C13.7191 12.0242 13.8094 12.0242 13.8696 12.0242C13.9599 12.0242 13.9298 12.0242 13.9599 11.9947C13.9599 11.9947 13.9599 11.9947 13.99 11.9947C13.9599 11.9653 13.9599 11.9653 13.9298 11.9653C13.9298 11.9653 13.9298 11.9653 13.9599 11.9653C13.9599 11.9653 13.9599 11.9653 13.9599 11.9359V11.9064C13.9599 11.877 13.9599 11.8476 13.9599 11.8182C14.0201 11.671 13.9599 11.5533 13.9599 11.4356C13.9298 11.3179 14.0201 11.1707 13.9599 11.053V11.0236C13.9599 11.0236 13.9599 11.0236 13.9599 10.9941V10.9647C13.9298 10.9941 13.9298 10.9941 13.8997 10.9647C13.8997 10.9647 13.8997 10.9353 13.8696 10.9353C13.8395 10.9353 13.8094 10.9353 13.7793 10.9353C13.6589 10.9353 13.5385 10.9353 13.4181 10.9353C13.4181 10.9353 13.4181 10.9353 13.388 10.9059H13.3579C13.3278 10.9059 13.3278 10.9059 13.2977 10.9059C13.2676 10.9059 13.2074 10.9059 13.1773 10.9059C13.087 10.9059 12.9967 10.9353 12.9064 10.9353C12.9064 10.847 12.9064 10.7587 12.9064 10.6704C12.9064 10.641 12.9064 10.5821 12.9064 10.5527C12.9064 10.5233 12.9064 10.4939 12.9064 10.4939V10.435C12.9064 10.3467 12.9666 10.229 12.9064 10.1407C12.9064 10.0819 12.9365 10.0524 12.9666 9.99357C12.9967 9.96414 12.9967 9.93471 12.9365 9.93471C12.9365 9.93471 12.9365 9.90528 12.9365 9.87585C12.9365 9.84643 12.9666 9.817 12.9666 9.817C12.9666 9.817 12.9365 9.817 12.9064 9.84643C12.8462 9.87585 12.8462 9.87585 12.8462 9.87585C12.8462 9.87585 12.8462 9.87585 12.8161 9.84643H12.786C12.6957 9.84643 12.6355 9.84643 12.5451 9.84643C11.9732 9.75814 11.5819 9.69928 11.5819 9.66985C11.5819 9.61099 12.0334 9.55214 12.8462 9.52271C12.9365 9.52271 13.1171 9.46385 13.2074 9.52271C13.2676 9.52271 13.2977 9.52271 13.3579 9.52271C13.3579 9.61099 13.388 9.69928 13.3579 9.78757C13.388 9.84642 13.4181 9.93471 13.388 9.99357C13.388 10.0524 13.3579 10.0819 13.3579 10.1407C13.3579 10.229 13.3278 10.3467 13.3579 10.435V10.4644C13.3579 10.4939 13.3278 10.5233 13.3579 10.5233C13.3579 10.5527 13.3579 10.5527 13.388 10.5527H13.4181C13.4181 10.5527 13.4181 10.5527 13.4482 10.5527C13.4482 10.5527 13.4482 10.5527 13.4783 10.5527C13.5987 10.6116 13.7191 10.5527 13.8395 10.5527C13.8696 10.5821 13.8997 10.5821 13.9298 10.5821C13.99 10.5821 14.0201 10.5821 14.0803 10.5821C14.1706 10.5821 14.291 10.5527 14.4114 10.5233C14.4415 10.5233 14.4716 10.5233 14.4716 10.5233C14.4716 10.6116 14.4716 10.7293 14.4716 10.8176C14.4716 10.8764 14.4716 10.9059 14.4716 10.9647C14.4716 10.9941 14.4716 11.0236 14.4716 11.053V11.1119C14.4415 11.2296 14.5017 11.3767 14.4716 11.4944C14.5017 11.6122 14.5318 11.7593 14.4716 11.877C14.4716 11.9064 14.4716 11.9359 14.4716 11.9653V12.1124C14.4716 12.2302 14.4716 12.3479 14.4716 12.495C14.4716 12.5244 14.4716 12.5539 14.4716 12.5833C14.3512 12.5833 14.2308 12.5833 14.1104 12.5833C13.99 12.5833 13.8395 12.5833 13.8094 12.5833C13.7492 12.5833 13.6589 12.5833 13.5987 12.5539C13.5686 12.5539 13.5385 12.5539 13.4783 12.5539C13.4482 12.5539 13.4482 12.5539 13.4181 12.5539H13.388V12.6716C13.388 12.7304 13.388 12.8187 13.388 12.907C13.3579 12.9365 13.3579 12.9659 13.3579 13.0247V13.0542C13.3579 13.0542 13.3579 13.0836 13.3579 13.113C13.3579 13.1425 13.3579 13.1719 13.3579 13.2013C13.3579 13.319 13.388 13.4662 13.4181 13.6427C13.2977 13.6427 13.1472 13.6722 12.9967 13.6427H12.6656C12.515 13.6427 12.3645 13.6427 12.214 13.6427C12.1538 13.6427 12.0635 13.6427 12.0033 13.6427C11.9732 13.6427 11.9431 13.6427 11.8829 13.6427H11.8227C11.7926 13.6427 11.7625 13.6427 11.7324 13.6427C11.5819 13.6722 11.4314 13.6427 11.2809 13.6427C11.2809 13.525 11.2809 13.4073 11.2809 13.2896C11.2809 13.2307 11.2809 13.1719 11.2508 13.0836C11.2508 13.0542 11.2508 13.0247 11.2508 13.0247C11.2508 12.9953 11.2508 12.9953 11.2508 12.9659C11.2508 12.907 11.2508 12.8187 11.2809 12.7599C11.2809 12.7304 11.2809 12.701 11.2809 12.6716V12.6127C11.2809 12.5833 11.2809 12.5539 11.2508 12.5833C11.2207 12.5833 11.2207 12.6127 11.2207 12.6127C11.2207 12.6127 11.2207 12.6127 11.2207 12.5833C11.2207 12.5833 11.2207 12.5833 11.1906 12.5539C11.0702 12.5833 10.9197 12.495 10.7993 12.5539C10.6488 12.4656 10.4381 12.5244 10.2274 12.5539C10.2274 12.5244 10.2274 12.5244 10.2274 12.495C10.2274 12.3773 10.2575 12.2596 10.2575 12.1713C10.2575 12.1124 10.2575 12.083 10.2575 12.0242V11.9653C10.2274 11.8476 10.2876 11.7299 10.2575 11.6122C10.1973 11.4944 10.3177 11.4062 10.2575 11.2884C10.2575 11.2296 10.2575 11.1707 10.2575 11.1413V11.053C10.2575 11.0236 10.2575 10.9647 10.2575 10.9353C10.2274 10.8764 10.1973 10.7881 10.1973 10.7587C10.1973 10.6999 10.1973 10.641 10.2274 10.6116C10.3177 10.641 10.3779 10.641 10.4381 10.641C10.5284 10.641 10.5886 10.641 10.6789 10.6116C10.709 10.6116 10.709 10.6116 10.7391 10.6116C10.7692 10.6116 10.7692 10.6116 10.7993 10.6116C10.8294 10.6116 10.8595 10.641 10.8595 10.641C10.9498 10.5527 11.0401 10.641 11.1304 10.641C11.1605 10.641 11.1605 10.641 11.1906 10.641C11.2207 10.641 11.2508 10.641 11.2508 10.641C11.2809 10.641 11.2809 10.641 11.311 10.6704C11.311 10.641 11.311 10.641 11.3411 10.641C11.3712 10.641 11.3712 10.6704 11.4013 10.6704C11.4013 10.6704 11.4013 10.6704 11.4013 10.641C11.4314 10.641 11.4314 10.6116 11.4314 10.5821C11.4314 10.5527 11.4314 10.5527 11.4314 10.5233V10.4939C11.4314 10.4939 11.4314 10.4644 11.4314 10.435C11.4314 10.4056 11.4314 10.3761 11.4615 10.3467C11.4615 10.2879 11.4615 10.229 11.4615 10.1996C11.5217 9.817 11.5518 9.66985 11.5819 9.66985Z" fill="#73523F"/>
<path d="M12.3946 8.55156C12.3946 8.58099 12.3344 8.58099 12.2441 8.61041C12.1839 8.61041 12.1237 8.63984 12.0635 8.63984C12.0033 8.66927 11.913 8.66927 11.8227 8.6987C11.7625 8.72813 11.7023 8.72813 11.6421 8.75756C11.612 8.75756 11.5819 8.78699 11.5518 8.78699C11.5217 8.81642 11.4916 8.81642 11.4314 8.81642C11.3411 8.81642 11.311 8.93413 11.1906 8.9047C11.1605 8.9047 11.1003 8.93413 11.0702 8.96356C11.0401 8.99299 11.0401 9.02242 11.01 9.02242C10.9799 9.05185 10.9799 9.05185 10.9498 9.08127C10.8896 9.14013 10.7692 9.14013 10.709 9.25785C10.6789 9.31671 10.6488 9.34613 10.5886 9.34613C10.5284 9.37556 10.4682 9.37556 10.4682 9.46385C10.4381 9.52271 10.408 9.55214 10.3478 9.58156C10.3177 9.61099 10.2575 9.66985 10.2274 9.69928C10.1672 9.72871 10.1371 9.75814 10.107 9.81699C10.0769 9.87585 10.0468 9.93471 10.0167 9.99357C9.89632 10.0524 9.83612 10.1701 9.83612 10.3173C9.80602 10.3467 9.77592 10.3467 9.74582 10.3761C9.71572 10.4056 9.68562 10.435 9.68562 10.4644C9.65552 10.5233 9.65552 10.6116 9.68562 10.6704C9.68562 10.6999 9.65552 10.7293 9.65552 10.7587C9.65552 10.7881 9.62542 10.8176 9.62542 10.847C9.62542 10.8764 9.59532 10.9059 9.59532 10.9353C9.59532 10.9647 9.59532 10.9941 9.59532 11.053C9.59532 11.1119 9.59532 11.2001 9.59532 11.259C9.59532 11.3179 9.59532 11.4062 9.56522 11.465C9.56522 11.4944 9.59532 11.5239 9.59532 11.5827C9.59532 11.6122 9.62542 11.6416 9.62542 11.7004C9.62542 11.7299 9.62542 11.7593 9.62542 11.8182C9.62542 11.8476 9.62542 11.877 9.59532 11.9359C9.62542 11.9653 9.62542 11.9947 9.65552 12.0242C9.65552 12.0536 9.65552 12.0536 9.68562 12.083C9.68562 12.1124 9.68562 12.1124 9.68562 12.1419C9.71572 12.2007 9.71572 12.289 9.71572 12.3773C9.71572 12.4656 9.77592 12.5244 9.80602 12.5833C9.83612 12.6422 9.89632 12.701 9.89632 12.7893L9.92642 12.8482C9.92642 12.8776 9.95652 12.8776 9.95652 12.907C9.98662 12.9365 9.98662 12.9659 10.0167 12.9953C10.0468 13.0247 10.0468 13.0542 10.0769 13.0836C10.107 13.113 10.1371 13.1425 10.1371 13.1719C10.1672 13.2013 10.1672 13.2307 10.1973 13.2896C10.2274 13.319 10.2575 13.3485 10.2575 13.3779C10.2876 13.4073 10.3177 13.4367 10.3478 13.4662C10.3779 13.4956 10.408 13.4956 10.4682 13.525C10.5284 13.5839 10.5886 13.6133 10.6789 13.6722C10.7391 13.731 10.7993 13.7605 10.8595 13.8193C11.0401 13.8487 11.1605 13.937 11.311 14.0547C11.3411 14.0547 11.4013 14.0842 11.4314 14.0842C11.4615 14.1136 11.5217 14.1136 11.5518 14.143C11.6421 14.1725 11.7324 14.2019 11.7926 14.2019C11.8829 14.2313 11.9732 14.2313 12.0635 14.2313C12.1538 14.2313 12.2441 14.2313 12.3344 14.2607C12.4247 14.2607 12.515 14.2902 12.6054 14.2607C12.6957 14.2607 12.786 14.2313 12.8462 14.2019H12.9064C12.9365 14.2019 12.9365 14.1725 12.9666 14.1725C12.9967 14.1725 13.0569 14.143 13.087 14.143C13.1171 14.143 13.1773 14.1136 13.2074 14.1136C13.2375 14.1136 13.2977 14.0842 13.3278 14.0842C13.3579 14.0842 13.388 14.0842 13.388 14.0842C13.4181 14.0842 13.4181 14.0842 13.4482 14.0547C13.4783 14.0253 13.5385 14.0253 13.5686 13.9959L13.689 13.937C13.7191 13.9076 13.7492 13.8782 13.8094 13.8782C13.8696 13.8487 13.9599 13.7899 14.0201 13.7605C14.0502 13.731 14.0803 13.731 14.1104 13.7016C14.1405 13.6722 14.1706 13.6427 14.2007 13.6133C14.2308 13.5839 14.2609 13.5545 14.291 13.525C14.3211 13.4956 14.3512 13.4662 14.3813 13.4367C14.4114 13.4073 14.4415 13.3779 14.4716 13.3485C14.5017 13.319 14.5318 13.2896 14.5619 13.2602C14.5619 13.1719 14.6221 13.113 14.6823 13.0542C14.7124 13.0247 14.7425 12.9953 14.7726 12.9659C14.7726 12.9659 14.8027 12.9365 14.8027 12.907C14.8027 12.8776 14.8328 12.8776 14.8328 12.8482C14.893 12.7893 14.9231 12.7304 14.9532 12.6422C14.9833 12.5539 14.9833 12.495 15.0134 12.4362C15.0134 12.3479 15.0435 12.289 15.0736 12.2302C15.0736 12.2007 15.0736 12.2007 15.1037 12.1713C15.1037 12.1419 15.1037 12.1419 15.1037 12.1124C15.1037 12.083 15.1037 12.0536 15.1037 11.9947C15.1037 11.9653 15.1037 11.9359 15.1338 11.877C15.1338 11.8476 15.1338 11.8182 15.1338 11.7593C15.1338 11.7299 15.1338 11.7004 15.1338 11.6416C15.1338 11.6122 15.1338 11.5827 15.1639 11.5239C15.1338 11.465 15.1338 11.3767 15.1639 11.3179C15.1639 11.2884 15.1639 11.259 15.1639 11.2001C15.1639 11.1707 15.1639 11.1413 15.1338 11.1119C15.1338 11.0824 15.1338 11.053 15.1037 11.0236C15.1037 10.9941 15.0736 10.9647 15.0736 10.9353C15.0435 10.8764 15.0435 10.8176 15.0435 10.7293C15.0736 10.641 15.0435 10.5821 15.0134 10.5233L14.9833 10.4939L14.9532 10.3761C14.9231 10.3467 14.9231 10.3173 14.893 10.2879C14.8629 10.1701 14.7124 10.1113 14.7124 9.96414C14.6823 9.90528 14.6522 9.84642 14.6221 9.81699C14.592 9.75814 14.5619 9.72871 14.5017 9.69928C14.4716 9.66985 14.4415 9.61099 14.4114 9.55214C14.4114 9.52271 14.3813 9.49328 14.3512 9.49328C14.3211 9.46385 14.291 9.46385 14.2609 9.46385C14.2007 9.43442 14.2007 9.37556 14.1706 9.34613C14.1405 9.3167 14.1104 9.25785 14.0201 9.25785C13.8997 9.25785 13.8696 9.14013 13.7793 9.08127C13.7492 9.08127 13.7492 9.05185 13.7191 9.05185C13.689 9.05185 13.689 9.02242 13.6589 9.02242C13.6288 8.99299 13.5686 8.99299 13.5385 8.96356C13.1773 8.78699 12.8763 8.6987 12.6656 8.66927C12.515 8.61041 12.3946 8.58099 12.3946 8.55156C12.3946 8.55156 12.4247 8.52213 12.515 8.52213C12.5451 8.52213 12.6054 8.52213 12.6355 8.52213C12.6656 8.52213 12.6957 8.52213 12.7258 8.52213C12.7559 8.52213 12.786 8.52213 12.8161 8.52213C13.087 8.52213 13.5084 8.61041 13.9599 8.84584C14.0502 8.9047 14.1706 8.9047 14.2308 9.02242C14.291 9.05185 14.3211 9.08127 14.3813 9.1107C14.4415 9.14013 14.4716 9.16956 14.5017 9.22842C14.5318 9.22842 14.5619 9.25785 14.592 9.25785C14.6221 9.28728 14.6522 9.28728 14.6522 9.31671C14.6823 9.37556 14.7124 9.43442 14.7726 9.46385C14.8328 9.52271 14.8629 9.55214 14.893 9.61099C14.9231 9.66985 14.9833 9.72871 15.0134 9.75814C15.1338 9.84642 15.1338 9.99357 15.2241 10.1113C15.2241 10.1407 15.2241 10.1996 15.2542 10.229C15.2542 10.2584 15.2542 10.2584 15.2843 10.2879C15.2843 10.3173 15.2843 10.3173 15.3144 10.3467C15.3445 10.4056 15.3746 10.4644 15.4348 10.5527C15.4348 10.641 15.4649 10.6999 15.495 10.7881C15.495 10.8176 15.5251 10.847 15.5251 10.9059C15.5251 10.9353 15.5552 10.9941 15.5552 11.0236C15.5552 11.053 15.5251 11.1119 15.5251 11.1413C15.5251 11.1707 15.5251 11.2296 15.5251 11.259C15.5251 11.3473 15.5552 11.4062 15.5853 11.4944C15.5853 11.5239 15.5853 11.5827 15.5853 11.6122C15.5853 11.6416 15.5853 11.7004 15.5853 11.7299C15.5853 11.7593 15.5853 11.8182 15.5853 11.8476C15.5853 11.877 15.5853 11.9359 15.5853 11.9653C15.5853 11.9947 15.5552 12.0536 15.5552 12.083V12.2007C15.5251 12.289 15.5251 12.3773 15.495 12.4656C15.495 12.5539 15.4649 12.6422 15.4348 12.7304C15.4047 12.8187 15.3445 12.907 15.2843 12.9659C15.2843 12.9953 15.2542 12.9953 15.2542 13.0247C15.2542 13.0542 15.2241 13.0542 15.2241 13.0836C15.194 13.113 15.1639 13.1719 15.1639 13.2013C15.1037 13.2896 15.0435 13.3485 14.9833 13.4367C14.9532 13.4662 14.9231 13.525 14.893 13.5545C14.8629 13.5839 14.8328 13.6133 14.8027 13.6722C14.7726 13.7016 14.7425 13.731 14.7124 13.7605C14.6823 13.7899 14.6522 13.8193 14.592 13.8487C14.5619 13.8782 14.5318 13.9076 14.4716 13.937C14.4415 13.9665 14.3813 13.9959 14.3512 13.9959C14.2609 14.0547 14.2007 14.1136 14.1104 14.1725C13.9599 14.2902 13.7492 14.349 13.5686 14.4373C13.5084 14.4667 13.4783 14.4667 13.4181 14.4962C13.3579 14.4962 13.3278 14.5256 13.2676 14.5256C13.2074 14.5256 13.1773 14.555 13.1171 14.555L13.087 14.6139H13.0268C12.9064 14.5845 12.8161 14.5845 12.7258 14.6139C12.6355 14.6139 12.515 14.6433 12.4247 14.6727C12.3344 14.6727 12.214 14.6727 12.1237 14.6727C12.0334 14.6727 11.913 14.6433 11.8227 14.6139C11.7324 14.6139 11.612 14.5845 11.5217 14.555C11.4615 14.555 11.4314 14.5256 11.3712 14.4962C11.311 14.4667 11.2809 14.4667 11.2207 14.4373C11.1906 14.4373 11.1605 14.4373 11.1605 14.4079C11.1304 14.4079 11.1003 14.3785 11.1003 14.3785C11.0702 14.349 11.01 14.3196 10.9799 14.3196H10.8294C10.7993 14.3196 10.7993 14.2902 10.7692 14.2902C10.7391 14.2607 10.6789 14.2313 10.6488 14.2313C10.5585 14.2019 10.4682 14.1136 10.408 14.0547C10.3177 13.9959 10.2575 13.9076 10.1973 13.8782C10.1672 13.8487 10.107 13.8193 10.0769 13.7899C10.0468 13.7605 10.0167 13.731 9.98662 13.7016C9.95652 13.6722 9.92642 13.6427 9.89632 13.5839C9.86622 13.5545 9.83612 13.4956 9.83612 13.4662C9.80602 13.4367 9.77592 13.3779 9.74582 13.3485C9.71572 13.319 9.71572 13.2602 9.68562 13.2307C9.65552 13.2013 9.65552 13.1425 9.62542 13.113C9.62542 13.0836 9.59532 13.0836 9.59532 13.0542C9.59532 13.0247 9.56522 13.0247 9.53512 12.9953C9.47492 12.907 9.41472 12.8482 9.38461 12.7599C9.35452 12.6716 9.32441 12.5833 9.35452 12.495C9.32441 12.4067 9.29431 12.3184 9.29431 12.2302C9.29431 12.2007 9.29431 12.2007 9.29431 12.1713C9.29431 12.1419 9.29431 12.1419 9.29431 12.1124C9.29431 12.083 9.26421 12.0242 9.26421 11.9947C9.29431 11.9359 9.29431 11.9064 9.29431 11.877C9.29431 11.8476 9.29431 11.7887 9.29431 11.7593C9.29431 11.7299 9.26421 11.671 9.26421 11.6416C9.26421 11.6122 9.23411 11.5533 9.26421 11.5239C9.26421 11.4356 9.29431 11.3473 9.29431 11.2884C9.29431 11.2001 9.32441 11.1413 9.32441 11.053C9.32441 11.0236 9.32441 10.9647 9.32441 10.9353C9.32441 10.9059 9.35452 10.847 9.35452 10.8176C9.35452 10.7881 9.38461 10.7587 9.38461 10.6999C9.38461 10.6704 9.41472 10.641 9.41472 10.5821C9.41472 10.4939 9.44482 10.435 9.50502 10.3761C9.53512 10.3467 9.53512 10.3173 9.56522 10.2879C9.59532 10.2584 9.59532 10.229 9.59532 10.1701C9.65552 10.0524 9.71572 9.90528 9.80602 9.81699C9.80602 9.72871 9.83612 9.66985 9.89632 9.64042C9.95652 9.58156 10.0167 9.55214 10.0769 9.52271C10.1371 9.49328 10.1672 9.43442 10.1973 9.37556C10.2274 9.31671 10.2876 9.28728 10.3478 9.28728C10.3779 9.22842 10.408 9.16956 10.4682 9.14013C10.5284 9.1107 10.5886 9.1107 10.6488 9.08127C10.7391 9.02242 10.8294 8.93413 10.9197 8.9047C10.9197 8.87527 10.9498 8.84584 10.9799 8.84584C11.01 8.84584 11.0401 8.81642 11.0401 8.81642C11.1003 8.81642 11.1304 8.81642 11.1906 8.78699C11.2809 8.78699 11.3712 8.72813 11.4615 8.6987C11.4916 8.66927 11.5518 8.66927 11.5819 8.63984C11.612 8.63984 11.6722 8.63984 11.7023 8.63984C11.7625 8.63984 11.8528 8.61041 11.913 8.61041C12.0033 8.61041 12.0936 8.61041 12.1839 8.58099C12.2441 8.58099 12.3344 8.58099 12.3645 8.58099C12.3344 8.52213 12.3946 8.52213 12.3946 8.55156Z" fill="#73523F"/>
</svg>
