<svg width="20" height="20" viewBox="0 0 20 20" fill="none" xmlns="http://www.w3.org/2000/svg">
<path d="M3.74354 0.157975C3.74354 0.157975 3.69733 0.181967 3.62801 0.181967C3.5587 0.181967 3.46628 0.20596 3.32765 0.253944C3.18901 0.301928 3.05038 0.349912 2.86554 0.469873C2.70381 0.589834 2.51896 0.733787 2.38033 0.949716C2.28791 1.09367 2.19549 1.26161 2.14928 1.45355C2.12618 1.52553 2.10307 1.6215 2.07997 1.74146C2.07997 1.78944 2.07997 1.83743 2.05686 1.9094C2.05686 1.93339 2.05686 1.95739 2.05686 1.98138C2.05686 2.00537 2.05686 2.02936 2.05686 2.07735C2.03376 2.31727 2.12618 2.55719 2.05686 2.8211C2.03376 3.08502 2.05686 3.34893 2.05686 3.63684C2.10307 3.92474 2.07997 4.21265 2.10307 4.52455C2.17239 4.83644 2.03376 5.14834 2.10307 5.48423C2.12618 5.82012 2.12618 6.15601 2.10307 6.51589C2.10307 6.68384 2.10307 6.87578 2.10307 7.04372C2.05686 6.99574 2.01065 6.94775 1.98754 6.92376H2.05686C2.12618 6.92376 2.19549 6.92376 2.26481 6.92376H2.31102C2.33412 6.92376 2.33412 6.92376 2.35723 6.92376H2.44965L2.49586 6.94775C2.51896 6.94775 2.51896 6.94775 2.54207 6.97175L2.61138 6.99574C2.63449 6.99574 2.6576 7.01973 2.6807 7.04372C2.72691 7.06771 2.77312 7.09171 2.79623 7.1157C2.84244 7.13969 2.88865 7.16368 2.91175 7.18768C2.95796 7.21167 2.98107 7.23566 3.02728 7.28364C3.09659 7.35562 3.18901 7.4036 3.25833 7.47558C3.30454 7.49957 3.32765 7.54756 3.37386 7.59554C3.42007 7.64353 3.44317 7.66752 3.48938 7.7155C3.51249 7.76349 3.53559 7.81147 3.5587 7.85946C3.5818 7.90744 3.60491 7.95542 3.60491 8.00341C3.65112 8.09938 3.67422 8.19534 3.69733 8.31531L3.74354 8.45926C3.74354 8.50724 3.76665 8.53124 3.76665 8.57922C3.76665 8.6272 3.78975 8.6512 3.78975 8.69918C3.81286 8.77116 3.81286 8.84313 3.83596 8.91511C3.83596 9.32298 3.81286 9.75483 3.83596 10.1867C3.83596 10.6186 3.85907 11.0504 3.83596 11.5063C3.85907 11.6022 3.85907 11.6982 3.85907 11.7942V11.8422H4.0208C4.13633 11.8422 4.27496 11.8661 4.39049 11.8661C4.82948 11.7942 5.29159 11.8182 5.75369 11.8661C6.2158 11.8901 6.6779 11.8182 7.16311 11.8661C7.62521 11.8661 8.11042 11.8422 8.59563 11.8661C9.08084 11.8901 9.56605 11.9141 10.0744 11.8661C10.5827 11.8422 11.0679 11.8182 11.5762 11.8661C12.0845 11.7942 12.5928 11.8182 13.1243 11.8661C13.6326 11.8661 14.164 11.8901 14.6954 11.8661C14.9496 11.8661 15.2268 11.8661 15.481 11.8661C15.6196 11.8661 15.7582 11.8661 15.8738 11.8661H16.0817V11.6982C16.0817 11.5542 16.0817 11.4343 16.0817 11.2903C16.0817 11.0264 16.0817 10.7625 16.0586 10.4746C16.0124 9.92278 16.0817 9.39495 16.0586 8.84313C16.0586 8.79515 16.0586 8.77116 16.0586 8.74716C16.0586 8.69918 16.0586 8.67519 16.0817 8.6272C16.0817 8.55523 16.1048 8.48325 16.1279 8.41127C16.151 8.26732 16.1972 8.12337 16.2666 7.97942C16.3821 7.7155 16.5438 7.45159 16.7749 7.28364C16.9366 7.13969 17.1446 7.01973 17.3525 6.94775C17.468 6.89977 17.5604 6.87578 17.676 6.87578C17.6991 6.87578 17.7222 6.87578 17.7684 6.85179H17.8146V6.75582C17.8146 6.22799 17.7915 5.72415 17.8146 5.22032C17.7222 4.71648 17.8377 4.21265 17.8146 3.73281C17.8608 3.25296 17.8146 2.74913 17.8146 2.26928C17.8146 2.2213 17.8146 2.14932 17.8146 2.10134V2.00537C17.8146 1.98138 17.8146 1.95739 17.8146 1.93339C17.8146 1.83743 17.7915 1.71747 17.7915 1.6215C17.7453 1.40557 17.676 1.21363 17.5373 1.06968C17.4218 0.901732 17.2601 0.757779 17.0983 0.66181C16.9366 0.565842 16.7518 0.469873 16.5669 0.421889C16.4745 0.421889 16.3821 0.397897 16.2897 0.397897C16.1972 0.397897 16.0817 0.397897 15.9662 0.373905C15.7582 0.373905 15.5503 0.349913 15.3424 0.373905C14.9265 0.373905 14.5337 0.373905 14.1178 0.373905C13.725 0.301928 13.3322 0.349913 12.9625 0.373905C12.5928 0.373905 12.2231 0.421889 11.8535 0.373905C11.4838 0.373905 11.1372 0.32592 10.7906 0.373905C10.444 0.373905 10.1206 0.253944 9.7971 0.373905C9.47363 0.397897 9.17326 0.301928 8.87289 0.373905C8.57253 0.445881 8.29526 0.373905 8.018 0.373905C7.74074 0.373905 7.48658 0.373905 7.23243 0.373905C6.16959 0.229952 5.29159 0.229952 4.66775 0.20596C4.06701 0.181967 3.74354 0.157975 3.74354 0.157975C3.74354 0.157975 3.83596 0.133983 4.04391 0.133983C4.22875 0.133983 4.52912 0.109991 4.8988 0.109991C5.63817 0.0620067 6.72411 0.0380146 8.11042 0.0380146C8.38768 0.0380146 8.66495 -0.00996972 8.96531 0.0380146C9.26568 0.0380146 9.56605 -0.00996972 9.88952 0.0380146C10.213 -0.0339619 10.5365 0.0140224 10.883 0.0380146C11.2296 0.0380146 11.5762 0.0620067 11.9459 0.0380146C12.3156 -0.00996972 12.6853 0.0620067 13.0549 0.0380146C13.4246 0.0859989 13.8174 0.0620067 14.2102 0.0380146C14.603 0.0859989 15.0189 0.0380146 15.4348 0.0380146C15.6427 0.0620067 15.8507 0.0859989 16.0586 0.0620067C16.1741 0.0620067 16.2666 0.0620067 16.3821 0.0380146C16.4976 0.0380146 16.6131 0.0380146 16.7287 0.0620067C16.9597 0.109991 17.1908 0.20596 17.3987 0.32592C17.6067 0.469873 17.7684 0.637818 17.9301 0.853748C18.0688 1.06968 18.1843 1.3096 18.2536 1.54952C18.2767 1.6215 18.2998 1.74146 18.2998 1.88541C18.2998 1.9094 18.2998 1.95739 18.2998 1.98138V2.07735C18.2998 2.12533 18.2998 2.19731 18.2998 2.24529C18.3229 2.72514 18.346 3.20498 18.2998 3.70881C18.3229 4.18866 18.2998 4.69249 18.2998 5.19633C18.3229 5.70016 18.2998 6.204 18.2998 6.73182V6.94775C18.2998 7.04372 18.2998 7.16368 18.2998 7.25965C18.2074 7.25965 18.115 7.25965 18.0226 7.25965C17.9994 7.25965 17.9763 7.25965 17.9532 7.25965H17.907C17.8839 7.25965 17.8608 7.25965 17.8377 7.25965C17.7453 7.25965 17.6529 7.28364 17.5836 7.33163C17.4218 7.37961 17.2601 7.49957 17.1446 7.61953C16.9828 7.76349 16.8442 7.95542 16.7287 8.17135C16.6825 8.26732 16.6362 8.38728 16.6131 8.50724C16.6131 8.55523 16.59 8.6272 16.59 8.67519C16.59 8.69918 16.59 8.72317 16.59 8.77116C16.59 8.79515 16.59 8.81914 16.59 8.86712C16.59 9.39495 16.5669 9.94677 16.59 10.4986C16.5669 10.7625 16.5438 11.0264 16.5438 11.3143C16.5438 11.4583 16.5438 11.5782 16.5669 11.7222V11.9621C16.5669 12.0821 16.5669 12.226 16.5669 12.346H16.4976C16.3128 12.346 16.1048 12.346 15.92 12.346C15.7814 12.346 15.6427 12.346 15.5272 12.346C15.273 12.346 14.9958 12.346 14.7416 12.346C14.2102 12.346 13.7019 12.346 13.1705 12.346C12.6621 12.37 12.1307 12.322 11.6224 12.346C11.1141 12.37 10.6058 12.322 10.1206 12.346C9.61226 12.37 9.12705 12.37 8.64184 12.346C8.15663 12.346 7.67142 12.274 7.20932 12.346C6.74722 12.37 6.26201 12.442 5.7999 12.346C5.3378 12.37 4.87569 12.298 4.4367 12.346C4.29806 12.322 4.18254 12.322 4.06701 12.322H3.83596C3.72043 12.322 3.62801 12.322 3.51249 12.322C3.51249 12.178 3.51249 12.0101 3.48938 11.8661C3.48938 11.7702 3.48938 11.6742 3.48938 11.5782C3.51249 11.1224 3.53559 10.6905 3.48938 10.2587C3.46628 9.82681 3.51249 9.41894 3.48938 8.98709C3.48938 8.91511 3.48938 8.84313 3.46628 8.77116C3.46628 8.74716 3.46628 8.69918 3.46628 8.67519C3.46628 8.6512 3.46628 8.60321 3.46628 8.57922V8.55523V8.60321L3.48938 8.48325V8.41127C3.46628 8.31531 3.44317 8.21934 3.42007 8.14736L3.39696 8.12337C3.39696 8.12337 3.39696 8.09938 3.37386 8.09938C3.37386 8.07539 3.35075 8.05139 3.35075 8.05139C3.32765 8.0274 3.30454 7.97942 3.28144 7.93143C3.25833 7.90744 3.23523 7.85946 3.21212 7.81147C3.18901 7.78748 3.16591 7.73949 3.1197 7.7155C3.07349 7.64353 3.00417 7.59554 2.93486 7.54756C2.88865 7.52357 2.86554 7.49957 2.81933 7.47558C2.79623 7.47558 2.79623 7.45159 2.77312 7.45159L2.72691 7.4276C2.6807 7.4036 2.6576 7.37961 2.61138 7.37961C2.58828 7.37961 2.58828 7.35562 2.56517 7.35562C2.54207 7.35562 2.51896 7.33163 2.49586 7.33163C2.47275 7.33163 2.47275 7.33163 2.44965 7.33163H2.42654C2.42654 7.33163 2.42654 7.33163 2.40344 7.33163H2.2417C2.19549 7.33163 2.12618 7.33163 2.07997 7.30764H2.03375L1.82581 7.28364L1.84891 7.1157C1.87202 6.94775 1.89512 6.75582 1.89512 6.58787C1.91823 6.22799 1.82581 5.8921 1.89512 5.55621C1.82581 5.22032 1.89512 4.90842 1.89512 4.59652C1.91823 4.28463 1.87202 3.99672 1.89512 3.70881C1.84891 3.42091 1.91823 3.15699 1.89512 2.89308C1.91823 2.62917 1.89512 2.38925 1.89512 2.14932C1.89512 2.12533 1.89512 2.10134 1.89512 2.05336C1.87202 1.95739 1.87202 1.9094 1.87202 1.88541C1.87202 1.81343 1.87202 1.76545 1.89512 1.71747C1.91823 1.5975 1.94133 1.47754 1.98754 1.38157C2.05686 1.16565 2.14928 0.997701 2.26481 0.829755C2.42654 0.613826 2.63449 0.445881 2.81933 0.349913C3.00417 0.253944 3.16591 0.181967 3.30454 0.157975C3.44317 0.133983 3.5587 0.133983 3.62801 0.133983C3.69733 0.133983 3.74354 0.133983 3.74354 0.157975Z" fill="#73523F"/>
<path d="M16.3821 12.1061C16.4052 12.1061 16.4283 12.4659 16.4514 13.0897C16.4514 13.1857 16.4514 13.3057 16.4514 13.4256C16.4514 13.5456 16.4745 13.6895 16.4514 13.8095C16.4283 13.9535 16.5207 14.0974 16.4514 14.2414C16.4514 14.3133 16.4514 14.3853 16.4514 14.4813C16.4514 14.6012 16.4514 14.6972 16.4745 14.8172C16.4745 14.8412 16.4745 14.8652 16.4745 14.8892C16.359 14.8892 16.2435 14.8892 16.151 14.8892C16.1279 14.8892 16.1048 14.8892 16.0817 14.8892C16.0586 14.8892 16.0355 14.8892 16.0124 14.8892C15.9662 14.8892 15.9431 14.8892 15.8969 14.9131C15.712 14.9851 15.5503 14.8412 15.3655 14.9131C15.1806 14.9371 14.9958 14.9371 14.7878 14.9131C14.5799 14.8652 14.395 14.9131 14.164 14.9131C13.956 14.8412 13.7481 14.8892 13.517 14.9131C13.286 14.8172 13.078 14.8412 12.847 14.9131C12.6159 14.9131 12.3849 14.8892 12.1307 14.9131C11.8997 14.9131 11.6455 14.9371 11.3914 14.9131C11.1372 14.9611 10.883 14.9611 10.6289 14.9131C10.3747 14.9851 10.0975 14.9611 9.84331 14.9131C9.56605 14.8892 9.31189 14.9611 9.03463 14.9131C8.75737 14.9131 8.48011 14.9371 8.20284 14.9131C7.92558 14.8892 7.62521 14.8652 7.34795 14.9131C7.04758 14.9371 6.77032 14.9611 6.46995 14.9131C6.16959 14.9851 5.86922 14.9611 5.56885 14.9131C5.26848 14.9131 4.96812 14.8652 4.64464 14.9131C4.48291 14.9131 4.34427 14.9131 4.18254 14.9131H3.92838C3.78975 14.9131 3.62801 14.9131 3.48938 14.9131C3.48938 14.7692 3.48938 14.6012 3.51249 14.4573V14.2174C3.51249 14.0494 3.51249 13.9055 3.48938 13.7375C3.44317 13.4256 3.51249 13.0897 3.48938 12.7778C3.51249 12.6579 3.51249 12.5139 3.51249 12.394V12.1301C3.51249 12.0101 3.51249 11.8901 3.51249 11.7702C3.60491 11.7702 3.69733 11.7702 3.81286 11.7702H4.09012C4.15943 11.7702 4.22875 11.7702 4.32117 11.7702C4.4598 11.7702 4.62154 11.7702 4.76017 11.7702C5.06054 11.7702 5.3378 11.7462 5.61506 11.7702C5.89232 11.6742 6.16959 11.7942 6.44685 11.7702C6.72411 11.8182 7.00137 11.7702 7.25553 11.7702C7.53279 11.7462 7.78695 11.8182 8.04111 11.7702C8.29526 11.7702 8.54942 11.7462 8.80358 11.7702C9.05774 11.7222 9.31189 11.8182 9.54294 11.7702C9.774 11.7702 10.0282 11.7702 10.2592 11.7702C10.4903 11.8422 10.7213 11.7942 10.9293 11.7702C11.1603 11.7702 11.3683 11.7222 11.5762 11.7702C11.7841 11.7702 11.9921 11.8182 12.2 11.7702C12.408 11.7702 12.5928 11.8901 12.7777 11.7702C12.9625 11.7462 13.1474 11.8422 13.3091 11.7702C13.4939 11.6982 13.6557 11.7702 13.8174 11.7702C13.9791 11.7702 14.1409 11.7702 14.2795 11.7702C14.9496 11.7942 15.4579 11.7942 15.8276 11.8182C16.1972 12.0821 16.3821 12.1061 16.3821 12.1061C16.3821 12.1301 16.151 12.154 15.712 12.178C15.273 12.202 14.6492 12.226 13.8405 12.226C13.6788 12.226 13.517 12.274 13.3322 12.226C13.1474 12.226 12.9856 12.274 12.8008 12.226C12.6159 12.298 12.4311 12.25 12.2231 12.226C12.0152 12.226 11.8304 12.202 11.5993 12.226C11.3914 12.274 11.1834 12.202 10.9524 12.226C10.7213 12.178 10.5134 12.202 10.2823 12.226C10.0513 12.178 9.82021 12.226 9.56605 12.226C9.335 12.154 9.08084 12.202 8.82668 12.226C8.57253 12.25 8.31837 12.226 8.06421 12.226C7.81005 12.202 7.53279 12.25 7.27864 12.226C7.00137 12.25 6.74722 12.274 6.46995 12.226C6.19269 12.25 5.91543 12.226 5.63817 12.226C5.3609 12.25 5.06054 12.226 4.78327 12.226C4.64464 12.226 4.48291 12.226 4.34428 12.202C4.27496 12.202 4.20564 12.202 4.11322 12.202C4.06701 12.202 4.04391 12.202 3.9977 12.202H3.95149V12.37C3.95149 12.4899 3.95149 12.6339 3.95149 12.7539C3.95149 13.0658 3.92838 13.3776 3.95149 13.7135C3.92838 13.8815 3.90528 14.0254 3.92838 14.1934C3.92838 14.2414 3.92838 14.2654 3.92838 14.3133V14.4333C3.92838 14.4573 3.95149 14.4573 3.95149 14.4573C3.97459 14.4573 3.97459 14.4573 3.97459 14.4573H4.20564C4.36738 14.4573 4.50601 14.4573 4.66775 14.4573C4.96812 14.4573 5.29159 14.4573 5.59196 14.4573C5.89232 14.4333 6.19269 14.4813 6.49306 14.4573C6.79343 14.4333 7.09379 14.4813 7.37106 14.4573C7.67142 14.4333 7.94869 14.4333 8.22595 14.4573C8.50321 14.4573 8.78047 14.5293 9.05774 14.4573C9.335 14.4333 9.61226 14.3613 9.86642 14.4573C10.1437 14.4333 10.3978 14.5053 10.652 14.4573C10.9062 14.5293 11.1603 14.4573 11.4145 14.4573C11.6686 14.4813 11.9228 14.5053 12.1538 14.4573C12.3849 14.4333 12.639 14.4813 12.8701 14.4573C13.1011 14.4093 13.3322 14.5053 13.5401 14.4573C13.7712 14.4573 13.9791 14.4573 14.1871 14.4573C14.395 14.3613 14.603 14.4573 14.8109 14.4573C15.0189 14.4813 15.2037 14.3853 15.3886 14.4573C15.5734 14.3853 15.7582 14.4573 15.92 14.4573C15.9662 14.4573 15.9893 14.4573 16.0355 14.4573C16.0586 14.4573 16.0817 14.4573 16.1048 14.4573H16.151C16.1972 14.4573 16.2203 14.4573 16.2666 14.4573C16.2666 14.4573 16.2666 14.4573 16.2666 14.4333C16.2435 14.4093 16.2435 14.3853 16.2435 14.3613C16.2435 14.3373 16.2435 14.3373 16.2435 14.2894C16.2435 14.2174 16.2666 14.1214 16.2666 14.0494C16.2897 13.9055 16.2666 13.7615 16.2666 13.6176C16.2666 13.4736 16.2666 13.3537 16.2666 13.2337C16.2666 13.1137 16.2666 12.9938 16.2666 12.8978C16.3128 12.4659 16.359 12.1061 16.3821 12.1061Z" fill="#73523F"/>
<path d="M18.0919 17.4803C18.0919 17.4803 17.9994 17.5043 17.7915 17.4803C17.6991 17.4803 17.5836 17.4563 17.4449 17.3843C17.3063 17.3364 17.1677 17.2644 17.0059 17.1444C16.9135 17.0724 16.798 16.9765 16.7056 16.8565C16.6131 16.7366 16.5207 16.6166 16.4514 16.4486C16.4283 16.3527 16.3821 16.2807 16.359 16.2087C16.3128 16.1367 16.2897 16.0408 16.3128 15.9448C16.3128 15.8488 16.3128 15.7529 16.2897 15.6569C16.2897 15.5609 16.2897 15.465 16.2666 15.369C16.2666 15.273 16.2666 15.1771 16.2666 15.0811C16.2666 15.0331 16.2666 15.0091 16.2666 14.9851C16.2666 14.9611 16.2666 14.9371 16.2666 14.9131H16.2435C16.151 14.9371 16.1741 14.9371 16.0355 14.9131C15.92 14.8892 15.8276 14.8892 15.712 14.9131C15.481 14.9371 15.273 14.9371 15.042 14.9131C14.8109 14.8652 14.5568 14.9131 14.3257 14.9131C14.0716 14.8412 13.8174 14.8892 13.5632 14.9131C13.3091 14.8172 13.0318 14.8412 12.7546 14.9131C12.4773 14.9131 12.2 14.8892 11.9228 14.9131C11.6455 14.9131 11.3452 14.9371 11.0448 14.9131C10.7444 14.9611 10.444 14.9611 10.1437 14.9131C9.84331 14.9851 9.51984 14.9611 9.21947 14.9131C8.896 14.8892 8.57253 14.9611 8.24905 14.9131C7.92558 14.9131 7.60211 14.9371 7.25553 14.9131C6.93206 14.8892 6.58548 14.8652 6.2389 14.9131C5.89232 14.9371 5.54575 14.9611 5.19917 14.9131C4.85259 14.9851 4.50601 14.9611 4.13633 14.9131C4.09012 14.9131 4.06701 14.9131 4.0208 14.9131L3.92838 14.9131L3.88217 14.9131V15.0331C3.88217 15.1531 3.88217 15.249 3.90528 15.369C3.90528 15.417 3.90528 15.465 3.90528 15.513V15.6569C3.90528 15.7529 3.90528 15.8728 3.88217 15.9688C3.85907 16.1847 3.78975 16.3767 3.67422 16.5686C3.5587 16.7605 3.44317 16.9045 3.28144 17.0484C3.1428 17.1924 2.98107 17.3124 2.79623 17.4083C2.6807 17.4803 2.54207 17.5283 2.40344 17.5763C2.26481 17.6003 2.12618 17.6243 1.98754 17.6003V17.1684C2.10307 17.1684 2.19549 17.1684 2.31102 17.1684C2.6576 17.2404 3.02728 17.1444 3.37386 17.1684C3.72043 17.1684 4.06701 17.1924 4.41359 17.1684C4.76017 17.1684 5.08364 17.1444 5.43022 17.1684C5.75369 17.0724 6.10027 17.1924 6.42374 17.1684C6.74722 17.2164 7.07069 17.1684 7.39416 17.1684C7.71763 17.1444 8.018 17.2164 8.31837 17.1684C8.61874 17.1684 8.9191 17.1444 9.21947 17.1684C9.51984 17.1204 9.7971 17.2164 10.0975 17.1684C10.3747 17.1684 10.652 17.1684 10.9293 17.1684C11.2065 17.2404 11.4607 17.1924 11.7379 17.1684C11.9921 17.1684 12.2463 17.1204 12.5004 17.1684C12.7546 17.1684 12.9856 17.2164 13.2167 17.1684C13.4477 17.1684 13.6788 17.2884 13.8867 17.1684C14.1178 17.1444 14.3257 17.2404 14.5337 17.1684C14.7416 17.0964 14.9265 17.1684 15.1344 17.1684C15.3192 17.1684 15.5041 17.1684 15.6889 17.1684C16.4745 17.1924 17.0752 17.1924 17.4911 17.2164C17.8608 17.4563 18.0919 17.4803 18.0919 17.4803C18.0919 17.5043 17.8146 17.5283 17.3063 17.5523C16.798 17.5763 16.0355 17.6003 15.0882 17.6003C14.9034 17.6003 14.6954 17.6483 14.4875 17.6003C14.2795 17.6003 14.0716 17.6483 13.8405 17.6003C13.6095 17.6722 13.4015 17.6243 13.1705 17.6003C12.9394 17.6003 12.6853 17.5763 12.4542 17.6003C12.2 17.6483 11.9459 17.5763 11.6917 17.6003C11.4376 17.5523 11.1603 17.5763 10.883 17.6003C10.6058 17.5523 10.3285 17.6003 10.0513 17.6003C9.774 17.5283 9.47363 17.5763 9.17326 17.6003C8.87289 17.6243 8.57253 17.6003 8.27216 17.6003C7.97179 17.5763 7.64832 17.6243 7.34795 17.6003C7.02448 17.6243 6.70101 17.6483 6.37753 17.6003C6.05406 17.6243 5.73059 17.6003 5.38401 17.6003C5.06054 17.6243 4.71396 17.6003 4.36738 17.6003C4.0208 17.6243 3.67422 17.5283 3.32765 17.6003C2.98107 17.6003 2.63449 17.6003 2.26481 17.6003C2.14928 17.6003 2.05686 17.6003 1.94133 17.6003C1.94133 17.4563 1.94133 17.3124 1.94133 17.1684C2.17239 17.1684 2.38033 17.1204 2.58828 17.0005C2.75002 16.9525 2.88865 16.8805 3.00417 16.7366C3.1197 16.6166 3.21212 16.4726 3.28144 16.3047C3.35075 16.1607 3.39696 15.9928 3.42007 15.8248C3.44317 15.7529 3.44317 15.6569 3.44317 15.5849C3.44317 15.489 3.44317 15.393 3.44317 15.297C3.44317 15.1771 3.44317 15.0811 3.44317 14.9611C3.44317 14.7692 3.44317 14.6012 3.44317 14.4093C3.5818 14.4093 3.72043 14.4093 3.85907 14.4093C3.92838 14.4093 4.0208 14.4093 4.09012 14.4093C4.4367 14.3853 4.80638 14.4333 5.15296 14.4093C5.49954 14.3853 5.84611 14.4333 6.19269 14.4093C6.53927 14.3853 6.86274 14.3853 7.20932 14.4093C7.53279 14.4093 7.87937 14.4813 8.20284 14.4093C8.52632 14.3853 8.84979 14.3133 9.17326 14.4093C9.49673 14.3853 9.7971 14.4573 10.0975 14.4093C10.3978 14.4813 10.6982 14.4093 10.9986 14.4093C11.2989 14.4333 11.5762 14.4573 11.8766 14.4093C12.1538 14.3853 12.4311 14.4333 12.7084 14.4093C12.9856 14.3613 13.2398 14.4573 13.517 14.4093C13.7712 14.4093 14.0254 14.4093 14.2795 14.4093C14.5337 14.3133 14.7647 14.4093 14.9958 14.4093C15.2268 14.4333 15.4579 14.3373 15.6658 14.4093C15.7813 14.3853 15.8738 14.3613 15.9893 14.3853C16.0124 14.3853 16.0355 14.3853 16.0586 14.3853H16.1741C16.2666 14.3853 16.3359 14.4093 16.4052 14.4093C16.4283 14.4093 16.4283 14.4093 16.4514 14.4093C16.4514 14.4813 16.4514 14.5533 16.4514 14.6492C16.4514 14.7212 16.4514 14.8172 16.4514 14.8412C16.4514 14.9371 16.4514 15.0331 16.4283 15.1291C16.4514 15.225 16.4514 15.321 16.4283 15.417C16.4283 15.513 16.4052 15.5849 16.4283 15.6809C16.4283 15.7769 16.4514 15.8488 16.4745 15.9208C16.4976 15.9928 16.5207 16.0648 16.5669 16.1367C16.6362 16.2807 16.7056 16.4007 16.7749 16.5206C16.8673 16.6406 16.9366 16.7126 17.029 16.8085C17.1677 16.9285 17.3063 17.0005 17.4218 17.0724C17.5373 17.1204 17.6529 17.1684 17.7453 17.1924C17.9994 17.4563 18.0919 17.4563 18.0919 17.4803Z" fill="#73523F"/>
<path d="M18.115 17.4803C18.115 17.5043 18.115 17.5283 18.115 17.5523C18.115 17.5283 18.115 17.6243 18.115 17.5523C18.115 17.4803 18.115 17.6243 18.115 17.5523C18.115 17.5763 18.115 17.5763 18.115 17.5523C18.115 17.4803 18.115 17.5283 18.115 17.5523C18.115 17.4563 18.115 17.4803 18.115 17.5523C18.115 17.6003 18.115 17.6003 18.115 17.5523C18.115 17.6003 18.115 17.6243 18.115 17.5523C18.115 17.5283 18.115 17.6003 18.115 17.5523C18.115 17.5043 18.115 17.5283 18.115 17.5523C18.115 17.5763 18.115 17.6003 18.115 17.5523C18.115 17.6003 18.115 17.6243 18.115 17.5523C18.115 17.4083 18.115 17.2644 18.115 17.1204C18.115 17.1444 18.115 17.1684 18.115 17.1204C18.115 17.0724 18.115 17.1444 18.115 17.1204C18.115 17.0964 18.115 17.1924 18.115 17.1204C18.115 17.0245 18.115 17.1444 18.115 17.1204C18.115 17.0964 18.115 17.1684 18.115 17.1204C18.115 17.0724 18.115 17.1684 18.115 17.1204C18.115 17.1444 18.115 17.1924 18.115 17.1204C18.115 17.0964 18.115 17.1924 18.115 17.1204C18.115 17.4083 18.115 17.4563 18.115 17.4803C18.115 17.5283 18.115 17.5763 18.115 17.6003C18.115 17.6243 18.115 17.6722 18.115 17.6003C18.115 17.5763 18.115 17.6483 18.115 17.6003C18.115 17.5523 18.115 17.5763 18.115 17.6003C18.115 17.5283 18.115 17.5763 18.115 17.6003C18.115 17.5763 18.115 17.6243 18.115 17.6003C18.115 17.6243 18.115 17.6483 18.115 17.6003C18.115 17.5283 18.115 17.6243 18.115 17.6003C18.115 17.5283 18.115 17.5763 18.115 17.6003C18.115 17.4563 18.115 17.3124 18.115 17.1684C18.115 17.1444 18.115 17.1444 18.115 17.1684C18.115 17.0724 18.115 17.1444 18.115 17.1684C18.115 17.1444 18.115 17.2164 18.115 17.1684C18.115 17.1924 18.115 17.2164 18.115 17.1684C18.115 17.1444 18.115 17.1924 18.115 17.1684C18.115 17.1204 18.115 17.2164 18.115 17.1684C18.115 17.0964 18.115 17.1924 18.115 17.1684C18.115 17.1444 18.115 17.1924 18.115 17.1684C18.115 17.1204 18.115 17.1924 18.115 17.1684C18.115 17.4323 18.115 17.4563 18.115 17.4803Z" fill="#73523F"/>
<path d="M4.78327 17.4803C4.80638 17.4803 4.82948 17.5763 4.85259 17.7682C4.85259 17.7922 4.85259 17.8402 4.85259 17.8642C4.85259 17.8882 4.87569 17.9362 4.85259 17.9841C4.82948 18.0321 4.92191 18.0561 4.85259 18.1041C4.82948 18.1521 4.85259 18.2001 4.85259 18.2481C4.87569 18.296 4.82948 18.344 4.85259 18.392C4.92191 18.44 4.78327 18.488 4.85259 18.56C4.87569 18.6079 4.87569 18.6799 4.85259 18.7279C4.80638 18.7759 4.85259 18.8479 4.85259 18.9198C4.78327 18.9918 4.82948 19.0398 4.85259 19.1118C4.76017 19.1838 4.78327 19.2317 4.85259 19.3037C4.85259 19.3757 4.82948 19.4477 4.85259 19.5196C4.85259 19.5196 4.85259 19.5196 4.85259 19.5436C4.85259 19.5436 4.85259 19.5436 4.85259 19.5676V19.5916C4.85259 19.5916 4.87569 19.5916 4.87569 19.5676C4.92191 19.5436 4.8988 19.5436 4.8988 19.5916C4.8988 19.5676 4.92191 19.5676 4.92191 19.5676C4.92191 19.5676 4.92191 19.5676 4.94501 19.5676H4.96812C5.01433 19.5676 5.03743 19.5916 5.08364 19.5916C5.15296 19.6156 5.24538 19.5436 5.31469 19.5916C5.38401 19.5916 5.47643 19.5676 5.54575 19.5916C5.61506 19.6156 5.70748 19.6396 5.7999 19.5916C5.89232 19.5676 5.96164 19.5436 6.05406 19.5916C6.14648 19.5196 6.2158 19.5436 6.30822 19.5916C6.40064 19.5916 6.46995 19.6156 6.56237 19.5916C6.58548 19.5916 6.58548 19.5916 6.58548 19.5916C6.58548 19.5916 6.58548 19.5916 6.60858 19.5916H6.63169C6.63169 19.5916 6.63169 19.5916 6.63169 19.5676C6.63169 19.5676 6.63169 19.5676 6.60858 19.5436C6.56237 19.4477 6.63169 19.3757 6.60858 19.2797C6.6779 19.1838 6.58548 19.1118 6.60858 19.0158C6.60858 18.9198 6.63169 18.8479 6.60858 18.7519C6.60858 18.6559 6.58548 18.5839 6.60858 18.488C6.51616 18.416 6.63169 18.32 6.60858 18.2481C6.6548 18.1761 6.60858 18.0801 6.60858 18.0081C6.60858 17.9601 6.60858 17.9362 6.60858 17.8882C6.60858 17.8642 6.60858 17.8402 6.60858 17.8402V17.7922C6.60858 17.7922 6.60858 17.7922 6.63169 17.7442C6.60858 17.7682 6.60858 17.7682 6.60858 17.7442C6.60858 17.7442 6.58548 17.7202 6.58548 17.7442C6.56237 17.7442 6.53927 17.7442 6.51616 17.7442C6.49306 17.7442 6.44685 17.7442 6.42374 17.7442C6.35443 17.6722 6.28511 17.7202 6.2389 17.7442C6.16959 17.7442 6.12338 17.7922 6.05406 17.7442C5.98474 17.7442 5.93853 17.6962 5.86922 17.7442C5.82301 17.7442 5.75369 17.6243 5.70748 17.7442C5.66127 17.7682 5.61506 17.6722 5.54575 17.7442C5.49954 17.8162 5.45332 17.7442 5.40711 17.7442C5.3609 17.7442 5.31469 17.7442 5.26848 17.7442C4.99122 17.5523 4.78327 17.5283 4.78327 17.4803C4.78327 17.4323 5.06054 17.3843 5.49954 17.3603C5.54575 17.3603 5.59196 17.3124 5.63817 17.3603C5.68438 17.3603 5.73059 17.3124 5.7999 17.3603C5.84611 17.2884 5.91543 17.3364 5.96164 17.3603C6.00785 17.3603 6.07717 17.3843 6.14648 17.3603C6.2158 17.3124 6.26201 17.3843 6.33132 17.3603C6.40064 17.4083 6.44685 17.3843 6.51616 17.3603C6.53927 17.3843 6.58548 17.3843 6.60858 17.3603C6.63169 17.3603 6.63169 17.3603 6.6548 17.3364H6.6779C6.70101 17.3364 6.70101 17.3364 6.72411 17.3364C6.77032 17.3603 6.81653 17.3843 6.88585 17.3603C6.95516 17.3603 7.02448 17.3364 7.09379 17.3124C7.09379 17.3603 7.09379 17.4323 7.09379 17.5043C7.09379 17.5763 7.09379 17.6483 7.09379 17.6962V17.7682C7.09379 17.7922 7.09379 17.8162 7.09379 17.8162C7.09379 17.8642 7.09379 17.8882 7.09379 17.9362C7.1169 18.0081 7.14 18.1041 7.09379 18.1761C7.1169 18.2481 7.09379 18.344 7.09379 18.416C7.1169 18.488 7.09379 18.5839 7.09379 18.6799C7.1169 18.7759 7.02448 18.8479 7.09379 18.9438C7.09379 19.0398 7.09379 19.1118 7.09379 19.2077C7.09379 19.3037 7.07069 19.3757 7.09379 19.4717C7.07069 19.4956 7.07069 19.5436 7.07069 19.5676C7.07069 19.6156 7.07069 19.6396 7.07069 19.6876C7.07069 19.7596 7.09379 19.8555 7.1169 19.9515C7.04758 19.9515 6.95516 19.9755 6.86274 19.9515C6.81653 19.9515 6.77032 19.9515 6.74722 19.9515C6.70101 19.9515 6.6548 19.9515 6.63169 19.9515C6.53927 19.9515 6.46995 19.9515 6.37753 19.9515C6.28511 19.9755 6.2158 19.9275 6.12338 19.9515C6.03095 19.9755 5.96164 19.9275 5.86922 19.9515C5.7768 19.9755 5.70748 19.9755 5.61506 19.9515C5.54575 19.9515 5.45332 19.8795 5.38401 19.9515C5.31469 19.9755 5.22227 20.0475 5.15296 19.9515C5.10675 19.9515 5.08364 19.9515 5.03743 19.9515H4.99122C4.96812 19.9515 4.92191 19.9515 4.8988 19.9755C4.85259 19.9515 4.80638 19.9515 4.76017 19.9515C4.71396 19.9515 4.64464 19.9755 4.59843 19.9755C4.59843 19.9515 4.59843 19.9275 4.59843 19.9035C4.62154 19.7596 4.64464 19.6396 4.59843 19.5196C4.57533 19.4477 4.62154 19.3757 4.59843 19.3037C4.55222 19.2317 4.64464 19.1598 4.59843 19.1118C4.59843 19.0398 4.59843 18.9918 4.59843 18.9198C4.50601 18.8479 4.59843 18.7999 4.59843 18.7279C4.62154 18.6799 4.52912 18.6079 4.59843 18.56C4.52912 18.512 4.59843 18.464 4.59843 18.392C4.62154 18.344 4.57533 18.296 4.59843 18.2481C4.55222 18.2001 4.62154 18.1521 4.59843 18.1041C4.62154 18.0561 4.59843 18.0081 4.59843 17.9841C4.59843 17.9362 4.59843 17.9122 4.59843 17.8642C4.59843 17.8402 4.59843 17.7922 4.59843 17.7682C4.71396 17.5763 4.73706 17.4803 4.78327 17.4803Z" fill="#73523F"/>
<path d="M13.1705 17.4803C13.1936 17.4803 13.2167 17.5763 13.2398 17.7682C13.2398 17.7922 13.2398 17.8402 13.2398 17.8642C13.2398 17.8882 13.2629 17.9362 13.2398 17.9841C13.2167 18.0321 13.3091 18.0561 13.2398 18.1041C13.2167 18.1521 13.2398 18.2001 13.2398 18.2481C13.2629 18.296 13.2167 18.344 13.2398 18.392C13.3091 18.44 13.1705 18.488 13.2398 18.56C13.2629 18.6079 13.2629 18.6799 13.2398 18.7279C13.1936 18.7759 13.2398 18.8479 13.2398 18.9198C13.1705 18.9918 13.2167 19.0398 13.2398 19.1118C13.1474 19.1838 13.1705 19.2317 13.2398 19.3037C13.2398 19.3757 13.2167 19.4477 13.2398 19.5196C13.2398 19.5196 13.2398 19.5196 13.2398 19.5436C13.2398 19.5436 13.2398 19.5436 13.2398 19.5676V19.5916C13.2398 19.5916 13.2629 19.5916 13.2629 19.5676C13.3091 19.5436 13.286 19.5436 13.286 19.5916C13.286 19.5676 13.3091 19.5676 13.3091 19.5676C13.3091 19.5676 13.3091 19.5676 13.3322 19.5676H13.3553C13.4015 19.5676 13.4246 19.5916 13.4708 19.5916C13.5401 19.6156 13.6326 19.5436 13.7019 19.5916C13.7712 19.5916 13.8636 19.5676 13.9329 19.5916C14.0022 19.6156 14.0947 19.6396 14.1871 19.5916C14.2795 19.5676 14.3488 19.5436 14.4412 19.5916C14.5337 19.5196 14.603 19.5436 14.6954 19.5916C14.7878 19.5916 14.8571 19.6156 14.9496 19.5916C14.9727 19.5916 14.9727 19.5916 14.9727 19.5916C14.9727 19.5916 14.9727 19.5916 14.9958 19.5916H15.0189C15.0189 19.5916 15.0189 19.5916 15.0189 19.5676C15.0189 19.5676 15.0189 19.5676 14.9958 19.5436C14.9496 19.4477 15.0189 19.3757 14.9958 19.2797C15.0651 19.1838 14.9727 19.1118 14.9958 19.0158C14.9958 18.9198 15.0189 18.8479 14.9958 18.7519C14.9958 18.6559 14.9727 18.5839 14.9958 18.488C14.9034 18.416 15.0189 18.32 14.9958 18.2481C15.042 18.1761 14.9958 18.0801 14.9958 18.0081C14.9958 17.9601 14.9958 17.9362 14.9958 17.8882C14.9958 17.8642 14.9958 17.8402 14.9958 17.8402V17.7922C14.9958 17.7922 14.9958 17.7922 15.0189 17.7442C14.9958 17.7682 14.9958 17.7682 14.9958 17.7442C14.9958 17.7442 14.9727 17.7202 14.9727 17.7442C14.9496 17.7442 14.9265 17.7442 14.9034 17.7442C14.8802 17.7442 14.834 17.7442 14.8109 17.7442C14.7416 17.6722 14.6723 17.7202 14.6261 17.7442C14.5568 17.7442 14.5106 17.7922 14.4412 17.7442C14.3719 17.7442 14.3257 17.6962 14.2564 17.7442C14.2102 17.7442 14.1409 17.6243 14.0947 17.7442C14.0485 17.7682 13.9791 17.6722 13.9329 17.7442C13.8867 17.8162 13.8405 17.7442 13.7943 17.7442C13.7481 17.7442 13.7019 17.7442 13.6557 17.7442C13.4015 17.5523 13.1705 17.5283 13.1705 17.4803C13.1705 17.4323 13.4477 17.3843 13.8867 17.3603C13.9329 17.3603 13.9791 17.3124 14.0254 17.3603C14.0716 17.3603 14.1178 17.3124 14.1871 17.3603C14.2333 17.2884 14.3026 17.3364 14.3488 17.3603C14.395 17.3603 14.4644 17.3843 14.5337 17.3603C14.603 17.3124 14.6492 17.3843 14.7185 17.3603C14.7878 17.4083 14.834 17.3843 14.9034 17.3603C14.9265 17.3843 14.9727 17.3843 14.9958 17.3603C15.0189 17.3603 15.0189 17.3603 15.042 17.3364H15.0651C15.0882 17.3364 15.0882 17.3364 15.1113 17.3364C15.1575 17.3603 15.2037 17.3843 15.273 17.3603C15.3424 17.3603 15.4117 17.3364 15.481 17.3124C15.481 17.3603 15.481 17.4323 15.481 17.5043C15.481 17.5763 15.481 17.6483 15.481 17.6962V17.7682C15.481 17.7922 15.481 17.8162 15.481 17.8162C15.481 17.8642 15.481 17.8882 15.481 17.9362C15.5041 18.0081 15.5272 18.1041 15.481 18.1761C15.5041 18.2481 15.481 18.344 15.481 18.416C15.5041 18.488 15.481 18.5839 15.481 18.6799C15.5041 18.7759 15.4117 18.8479 15.481 18.9438C15.481 19.0398 15.481 19.1118 15.481 19.2077C15.481 19.3037 15.4579 19.3757 15.481 19.4717C15.5041 19.4956 15.5041 19.5436 15.5041 19.5676C15.5041 19.6156 15.5041 19.6396 15.5041 19.6876C15.5041 19.7596 15.5272 19.8555 15.5503 19.9515C15.481 19.9515 15.3886 19.9755 15.2961 19.9515C15.2499 19.9515 15.2037 19.9515 15.1806 19.9515C15.1344 19.9515 15.0882 19.9515 15.0651 19.9515C14.9727 19.9515 14.9034 19.9515 14.8109 19.9515C14.7185 19.9755 14.6492 19.9275 14.5568 19.9515C14.4644 19.9755 14.395 19.9275 14.3026 19.9515C14.2102 19.9755 14.1409 19.9755 14.0485 19.9515C13.9791 19.9515 13.8867 19.8795 13.8174 19.9515C13.7481 19.9755 13.6557 20.0475 13.5864 19.9515C13.5401 19.9515 13.517 19.9515 13.4708 19.9515H13.4246C13.4015 19.9515 13.3553 19.9515 13.3322 19.9755C13.286 19.9515 13.2398 19.9515 13.1936 19.9515C13.1474 19.9515 13.078 19.9755 13.0318 19.9755C13.0318 19.9515 13.0318 19.9275 13.0318 19.9035C13.0549 19.7596 13.078 19.6396 13.0318 19.5196C13.0087 19.4477 13.0549 19.3757 13.0318 19.3037C12.9856 19.2317 13.078 19.1598 13.0318 19.1118C13.0318 19.0398 13.0318 18.9918 13.0318 18.9198C12.9394 18.8479 13.0318 18.7999 13.0318 18.7279C13.0549 18.6799 12.9625 18.6079 13.0318 18.56C12.9625 18.512 13.0318 18.464 13.0318 18.392C13.0549 18.344 13.0087 18.296 13.0318 18.2481C12.9856 18.2001 13.0549 18.1521 13.0318 18.1041C13.0549 18.0561 13.0318 18.0081 13.0318 17.9841C13.0318 17.9362 13.0318 17.9122 13.0318 17.8642C13.0318 17.8402 13.0318 17.7922 13.0318 17.7682C13.1243 17.5763 13.1474 17.4803 13.1705 17.4803Z" fill="#73523F"/>
<path d="M18.0919 7.04372C18.0919 7.06771 18.0226 7.06771 17.907 7.09171C17.7915 7.1157 17.6067 7.16368 17.3987 7.28364C17.3294 7.33163 17.2601 7.35562 17.1908 7.4276C17.1215 7.47558 17.0521 7.54756 16.9828 7.61953C16.9366 7.64353 16.9135 7.69151 16.8904 7.73949C16.8673 7.78748 16.8442 7.83546 16.798 7.85946C16.7287 7.93143 16.6825 8.05139 16.6362 8.17135C16.59 8.29131 16.5207 8.41127 16.5438 8.53124C16.5669 8.60321 16.5438 8.67519 16.5207 8.72317C16.4976 8.79515 16.4976 8.86713 16.5207 8.9391C16.5438 9.08305 16.5438 9.251 16.5207 9.41895C16.4745 9.58689 16.5207 9.75484 16.5207 9.92278C16.4514 10.0907 16.4976 10.2827 16.5207 10.4506C16.4283 10.6425 16.4514 10.8105 16.5207 11.0024C16.5207 11.1944 16.4976 11.3863 16.5207 11.5782C16.5207 11.7702 16.5438 11.9861 16.5207 12.178C16.5669 12.394 16.5669 12.5859 16.5207 12.8018C16.59 13.0178 16.5669 13.2337 16.5207 13.4496C16.4976 13.6656 16.5669 13.8815 16.5207 14.1214C16.5207 14.3373 16.5438 14.5773 16.5207 14.8172C16.4976 15.0571 16.4745 15.273 16.5207 15.513C16.5207 15.5609 16.5207 15.6329 16.5207 15.6809C16.5207 15.7289 16.5207 15.7769 16.5438 15.8488C16.5669 15.9448 16.5669 16.0648 16.59 16.1607C16.6593 16.2567 16.7056 16.3527 16.7518 16.4247C16.798 16.5206 16.8442 16.6166 16.9135 16.7126C16.9828 16.7845 17.0521 16.8805 17.1446 16.9525C17.237 17.0245 17.3294 17.0724 17.4218 17.1204C17.5142 17.1684 17.6298 17.1924 17.7222 17.2164C17.8377 17.2404 17.9301 17.2404 18.0457 17.2644C18.2536 17.2884 18.4847 17.2404 18.6695 17.1204C18.7619 17.0484 18.8543 17.0005 18.9468 16.9525C19.0392 16.9045 19.1316 16.8325 19.1778 16.7366C19.2702 16.6646 19.3395 16.5686 19.3627 16.4726C19.4089 16.3767 19.432 16.2807 19.4782 16.1607C19.5013 16.0648 19.5475 15.9448 19.5475 15.8488C19.5475 15.8009 19.5706 15.7529 19.5706 15.6809C19.5706 15.6329 19.5706 15.5609 19.5475 15.513C19.5475 15.273 19.5244 15.0331 19.5475 14.8172C19.4551 14.5773 19.5706 14.3613 19.5475 14.1214C19.5937 13.9055 19.5475 13.6656 19.5475 13.4496C19.5244 13.2337 19.5937 13.0178 19.5475 12.8018C19.5475 12.5859 19.5244 12.37 19.5475 12.178C19.5013 11.9621 19.5937 11.7702 19.5475 11.5782C19.5475 11.3863 19.5475 11.1944 19.5475 11.0024C19.6168 10.8105 19.5706 10.6186 19.5475 10.4506C19.5475 10.2587 19.5013 10.0907 19.5475 9.92278C19.5475 9.75484 19.5937 9.58689 19.5475 9.41895C19.5475 9.251 19.663 9.10705 19.5475 8.9391C19.5475 8.89112 19.5475 8.86713 19.5475 8.81914C19.5475 8.79515 19.5475 8.74716 19.5706 8.72317C19.5706 8.6512 19.5706 8.57922 19.5475 8.53124C19.5013 8.48325 19.5013 8.41127 19.4782 8.3393C19.4782 8.26732 19.4551 8.21934 19.432 8.14736C19.3858 8.0274 19.3396 7.93143 19.2702 7.83546C19.1316 7.61953 18.9699 7.47558 18.8081 7.35562C18.6464 7.23566 18.4847 7.16368 18.3691 7.13969C18.2305 7.09171 18.1381 7.06771 18.0688 7.06771C18.1381 7.06771 18.0919 7.04372 18.0919 7.04372C18.0919 7.04372 18.1381 7.01973 18.2305 7.01973C18.3229 7.01973 18.4616 7.01973 18.6233 7.06771C18.785 7.1157 18.993 7.21167 19.224 7.35562C19.432 7.52357 19.6399 7.76349 19.7785 8.07538C19.8017 8.14736 19.8479 8.19534 19.871 8.26732C19.8941 8.3393 19.9172 8.41127 19.9172 8.48325C19.9403 8.55523 19.9403 8.6272 19.9634 8.72317C19.9634 8.77116 19.9634 8.79515 19.9634 8.84313C19.9634 8.89112 19.9634 8.91511 19.9634 8.96309C20.0327 9.10705 19.9865 9.27499 19.9634 9.44294C19.9634 9.61088 19.9403 9.77883 19.9634 9.94677C20.0096 10.1147 19.9403 10.3067 19.9634 10.4746C19.9172 10.6665 19.9403 10.8345 19.9634 11.0264C19.9172 11.2184 19.9634 11.4103 19.9634 11.6022C19.8941 11.7942 19.9403 12.0101 19.9634 12.202C19.9865 12.418 19.9634 12.6099 19.9634 12.8258C19.9403 13.0418 19.9865 13.2577 19.9634 13.4736C19.9865 13.6895 20.0096 13.9055 19.9634 14.1454C19.9865 14.3613 19.9634 14.6012 19.9634 14.8412C19.9865 15.0811 19.9634 15.297 19.9634 15.5369C19.9634 15.6089 19.9634 15.6569 19.9634 15.7289C19.9634 15.8009 19.9403 15.8728 19.9403 15.9208C19.9172 16.0408 19.8941 16.1847 19.871 16.3287C19.8017 16.5926 19.6399 16.8325 19.4782 17.0484C19.2933 17.2404 19.0623 17.4083 18.8312 17.5523C18.6926 17.5763 18.5771 17.6243 18.4384 17.6483C18.2998 17.6722 18.1843 17.7202 18.0457 17.7202C17.7684 17.7442 17.4911 17.6722 17.237 17.5523C16.9828 17.4323 16.7749 17.2644 16.59 17.0484C16.4976 16.9525 16.4283 16.8325 16.359 16.7126C16.2897 16.5926 16.2435 16.4726 16.1972 16.3287C16.151 16.2087 16.1279 16.0648 16.1048 15.9208C16.1048 15.8488 16.1048 15.7769 16.1048 15.7289C16.1048 15.6569 16.1048 15.6089 16.1048 15.5369C16.0817 15.297 16.0817 15.0571 16.1048 14.8412C16.1048 14.6012 16.1741 14.3853 16.1048 14.1454C16.0817 13.9295 16.0124 13.6895 16.1048 13.4736C16.0817 13.2577 16.151 13.0418 16.1048 12.8258C16.1741 12.6099 16.1048 12.394 16.1048 12.202C16.1279 11.9861 16.151 11.7942 16.1048 11.6022C16.0817 11.4103 16.1279 11.2184 16.1048 11.0264C16.0586 10.8345 16.151 10.6425 16.1048 10.4746C16.1048 10.2827 16.1048 10.1147 16.1048 9.94677C16.0124 9.77883 16.1048 9.61088 16.1048 9.44294C16.1279 9.27499 16.0355 9.13104 16.1048 8.96309C16.0817 8.91511 16.0817 8.89112 16.0817 8.84313C16.0817 8.79515 16.0817 8.77116 16.0817 8.72317C16.1048 8.6512 16.1279 8.55523 16.151 8.48325C16.1741 8.41127 16.1741 8.3393 16.1972 8.26732C16.2203 8.19534 16.2435 8.12337 16.2897 8.07538C16.2897 8.00341 16.3359 7.93143 16.3821 7.88345C16.4283 7.83546 16.4745 7.78748 16.4976 7.7155C16.59 7.64353 16.6362 7.52357 16.7287 7.45159C16.798 7.35562 16.8904 7.30764 16.9828 7.25965C17.0752 7.21167 17.1446 7.16368 17.237 7.13969C17.468 7.04372 17.676 7.01973 17.7915 7.01973C18.0226 7.01973 18.0919 7.01973 18.0919 7.04372Z" fill="#73523F"/>
<path d="M1.98754 7.04372C1.98754 7.06771 1.91823 7.06771 1.8027 7.09171C1.68718 7.1157 1.50234 7.16368 1.29439 7.28364C1.22507 7.33163 1.15576 7.35562 1.08644 7.4276C1.01713 7.47558 0.947811 7.54756 0.878495 7.61953C0.832285 7.64353 0.80918 7.69151 0.786074 7.73949C0.762969 7.78748 0.739864 7.83546 0.693654 7.85946C0.624338 7.93143 0.578128 8.05139 0.531917 8.17135C0.485707 8.29131 0.439496 8.41127 0.439496 8.53124C0.462602 8.60321 0.439496 8.67519 0.416391 8.72317C0.393286 8.79515 0.393286 8.86713 0.416391 8.9391C0.439496 9.08305 0.439496 9.251 0.416391 9.41895C0.370181 9.58689 0.416391 9.75484 0.416391 9.92278C0.347076 10.0907 0.393286 10.2827 0.416391 10.4506C0.32397 10.6425 0.347076 10.8105 0.416391 11.0024C0.416391 11.1944 0.393286 11.3863 0.416391 11.5782C0.416391 11.7702 0.439496 11.9861 0.416391 12.178C0.462602 12.394 0.462602 12.5859 0.416391 12.8018C0.485707 13.0178 0.462602 13.2337 0.416391 13.4496C0.393286 13.6656 0.462602 13.8815 0.416391 14.1214C0.416391 14.3373 0.439496 14.5773 0.416391 14.8172C0.393286 15.0571 0.370181 15.273 0.416391 15.513C0.416391 15.5609 0.416391 15.6329 0.416391 15.6809C0.416391 15.7289 0.416391 15.7769 0.439496 15.8488C0.462602 15.9448 0.462602 16.0648 0.485707 16.1607C0.555022 16.2567 0.601233 16.3527 0.647443 16.4247C0.693654 16.5206 0.739864 16.6166 0.80918 16.7126C0.878495 16.7845 0.947811 16.8805 1.04023 16.9525C1.13265 17.0245 1.22507 17.0724 1.31749 17.1204C1.40991 17.1684 1.52544 17.1924 1.61786 17.2164C1.7796 17.2404 1.87202 17.2644 1.98754 17.2644C2.19549 17.2884 2.42654 17.2644 2.61139 17.1204C2.70381 17.0484 2.79623 17.0005 2.88865 16.9525C2.98107 16.9045 3.07349 16.8325 3.1197 16.7366C3.21212 16.6646 3.28144 16.5686 3.30454 16.4726C3.35075 16.3767 3.37386 16.2807 3.42007 16.1607C3.44317 16.0648 3.48938 15.9448 3.48938 15.8488C3.48938 15.8009 3.51249 15.7529 3.51249 15.6809C3.51249 15.6329 3.51249 15.5609 3.48938 15.513C3.48938 15.273 3.46628 15.0331 3.48938 14.8172C3.39696 14.5773 3.51249 14.3613 3.48938 14.1214C3.53559 13.9055 3.48938 13.6656 3.48938 13.4496C3.46628 13.2337 3.53559 13.0178 3.48938 12.8018C3.48938 12.5859 3.46628 12.37 3.48938 12.178C3.44317 11.9621 3.53559 11.7702 3.48938 11.5782C3.48938 11.3863 3.48938 11.1944 3.48938 11.0024C3.5587 10.8105 3.51249 10.6186 3.48938 10.4506C3.48938 10.2587 3.44317 10.0907 3.48938 9.92278C3.48938 9.75484 3.53559 9.58689 3.48938 9.41895C3.48938 9.251 3.60491 9.10705 3.48938 8.9391C3.48938 8.89112 3.48938 8.86713 3.48938 8.81914C3.48938 8.79515 3.48938 8.74716 3.51249 8.72317C3.51249 8.6512 3.51249 8.57922 3.46628 8.53124C3.42007 8.48325 3.42007 8.41127 3.39696 8.3393C3.39696 8.26732 3.37386 8.21934 3.35075 8.14736C3.30454 8.0274 3.25833 7.93143 3.18902 7.83546C3.05038 7.61953 2.88865 7.47558 2.72691 7.35562C2.56517 7.23566 2.40344 7.16368 2.28791 7.13969C2.14928 7.09171 2.05686 7.06771 1.98754 7.06771C2.01065 7.06771 1.98754 7.04372 1.98754 7.04372C1.98754 7.04372 2.03376 7.01973 2.12618 7.01973C2.2186 7.01973 2.35723 7.01973 2.51896 7.06771C2.6807 7.1157 2.88865 7.21167 3.1197 7.35562C3.32765 7.52357 3.53559 7.76349 3.67422 8.07538C3.69733 8.14736 3.74354 8.19534 3.76665 8.26732C3.78975 8.3393 3.81286 8.41127 3.81286 8.48325C3.83596 8.55523 3.83596 8.6272 3.85907 8.72317C3.85907 8.77116 3.85907 8.79515 3.85907 8.84313C3.85907 8.89112 3.85907 8.91511 3.85907 8.96309C3.92838 9.10705 3.88217 9.27499 3.85907 9.44294C3.85907 9.61088 3.83596 9.77883 3.85907 9.94677C3.90528 10.1147 3.83596 10.3067 3.85907 10.4746C3.81286 10.6665 3.83596 10.8345 3.85907 11.0264C3.81286 11.2184 3.85907 11.4103 3.85907 11.6022C3.78975 11.7942 3.83596 12.0101 3.85907 12.202C3.88217 12.418 3.85907 12.6099 3.85907 12.8258C3.83596 13.0418 3.88217 13.2577 3.85907 13.4736C3.88217 13.6895 3.90528 13.9055 3.85907 14.1454C3.88217 14.3613 3.85907 14.6012 3.85907 14.8412C3.88217 15.0811 3.85907 15.297 3.85907 15.5369C3.85907 15.5849 3.85907 15.6569 3.85907 15.7289C3.85907 15.8009 3.83596 15.8728 3.83596 15.9208C3.81286 16.0408 3.78975 16.1847 3.76665 16.3287C3.69733 16.5926 3.53559 16.8325 3.37386 17.0484C3.18902 17.2404 2.95796 17.4083 2.72691 17.5523C2.58828 17.5763 2.47275 17.6243 2.33412 17.6483C2.19549 17.6722 2.07997 17.7202 1.94133 17.7202C1.71028 17.7202 1.43302 17.6483 1.17886 17.5283C0.924706 17.4083 0.716759 17.2404 0.531917 17.0245C0.439496 16.9285 0.370181 16.8085 0.300865 16.6886C0.23155 16.5686 0.185339 16.4486 0.139129 16.3047C0.0929184 16.1847 0.0698132 16.0408 0.046708 15.8968C0.046708 15.8248 0.046708 15.7529 0.046708 15.7049C0.046708 15.6329 0.046708 15.5849 0.046708 15.513C0.0236028 15.273 0.0236028 15.0331 0.046708 14.8172C0.046708 14.5773 0.116024 14.3613 0.046708 14.1214C0.0236028 13.9055 -0.0457128 13.6656 0.046708 13.4496C0.0236028 13.2337 0.0929184 13.0178 0.046708 12.8018C0.116024 12.5859 0.046708 12.37 0.046708 12.178C0.0698132 11.9621 0.0929184 11.7702 0.046708 11.5782C0.0236028 11.3863 0.0698132 11.1944 0.046708 11.0024C0.000497571 10.8105 0.0929184 10.6186 0.046708 10.4506C0.046708 10.2587 0.046708 10.0907 0.046708 9.92278C-0.0457128 9.75484 0.046708 9.58689 0.046708 9.41895C0.0698132 9.251 -0.0226076 9.10705 0.046708 8.9391C0.0236028 8.89112 0.0236028 8.86713 0.0236028 8.81914C0.0236028 8.77116 0.0236028 8.74716 0.0236028 8.69918C0.046708 8.6272 0.0698132 8.53124 0.0929184 8.45926C0.116024 8.38728 0.116024 8.31531 0.139129 8.24333C0.23155 8.19534 0.254655 8.12337 0.300865 8.07538C0.300865 8.00341 0.347076 7.93143 0.393286 7.88345C0.439496 7.83546 0.485707 7.78748 0.508812 7.7155C0.601233 7.64353 0.670548 7.52357 0.739864 7.45159C0.80918 7.35562 0.9016 7.30764 0.994021 7.25965C1.08644 7.21167 1.15576 7.16368 1.24818 7.13969C1.47923 7.04372 1.68718 7.01973 1.8027 7.01973C1.91823 7.01973 1.98754 7.01973 1.98754 7.04372Z" fill="#73523F"/>
<path d="M6.58548 4.83644C6.58548 4.86044 6.56237 4.86044 6.51616 4.88443C6.49306 4.88443 6.46995 4.90842 6.44685 4.90842C6.42374 4.90842 6.37753 4.93241 6.35443 4.93241C6.33132 4.93241 6.30822 4.95641 6.28511 4.95641C6.26201 4.95641 6.26201 4.9804 6.2389 4.9804C6.2158 4.9804 6.2158 5.00439 6.19269 5.00439C6.14648 4.9804 6.14648 5.07637 6.10027 5.05237C6.05406 5.05237 6.03095 5.07637 6.00785 5.12435C5.98474 5.14834 5.93853 5.14834 5.91543 5.19633C5.91543 5.24431 5.89232 5.24431 5.86922 5.24431C5.84611 5.24431 5.82301 5.24431 5.82301 5.2923C5.82301 5.31629 5.7999 5.34028 5.7768 5.34028C5.75369 5.36427 5.75369 5.36427 5.73059 5.38826C5.68438 5.38826 5.68438 5.41226 5.68438 5.43625C5.68438 5.46024 5.68438 5.48423 5.66127 5.50822C5.59196 5.50822 5.56885 5.5802 5.59196 5.65218C5.54575 5.65218 5.52264 5.67617 5.49954 5.70016C5.49954 5.72415 5.49954 5.77214 5.52264 5.79613C5.52264 5.82012 5.49954 5.84411 5.49954 5.86811C5.49954 5.8921 5.49954 5.8921 5.49954 5.91609C5.49954 5.94008 5.49954 5.94008 5.49954 5.96408C5.49954 5.98807 5.49954 6.01206 5.49954 6.06004C5.49954 6.08404 5.49954 6.10803 5.49954 6.15601C5.52264 6.18 5.54575 6.204 5.54575 6.25198C5.54575 6.27597 5.54575 6.27597 5.54575 6.29997C5.54575 6.32396 5.54575 6.32396 5.52264 6.34795C5.59196 6.39593 5.56885 6.44392 5.56885 6.51589C5.56885 6.53989 5.59196 6.56388 5.61506 6.58787C5.63817 6.61186 5.66127 6.63586 5.66127 6.68384C5.66127 6.70783 5.68438 6.73182 5.70748 6.75582C5.73059 6.77981 5.75369 6.8038 5.75369 6.82779C5.75369 6.85179 5.75369 6.85178 5.7768 6.87578C5.7768 6.89977 5.7999 6.89977 5.7999 6.92376C5.7999 6.94775 5.82301 6.94775 5.84611 6.94775C5.86922 6.94775 5.86922 6.97175 5.89232 6.97175C5.91543 6.99574 5.93853 6.99574 5.98474 7.01973C6.00785 7.04372 6.03095 7.06771 6.05406 7.09171C6.14648 7.06771 6.16959 7.1157 6.2158 7.18768C6.2389 7.18768 6.28511 7.21167 6.30822 7.23566C6.33132 7.25965 6.37753 7.25965 6.40064 7.25965C6.42374 7.25965 6.46995 7.25965 6.49306 7.25965C6.51616 7.25965 6.56237 7.25965 6.58548 7.28364C6.60858 7.28364 6.6548 7.30764 6.6779 7.30764C6.70101 7.30764 6.74722 7.28364 6.77032 7.25965C6.79343 7.23566 6.83964 7.23566 6.86274 7.23566C6.88585 7.23566 6.93206 7.23566 6.95516 7.21167C7.00137 7.23566 7.02448 7.21167 7.04758 7.18768C7.07069 7.16368 7.09379 7.13969 7.1169 7.1157C7.14 7.09171 7.16311 7.09171 7.20932 7.06771C7.23243 7.04372 7.25553 7.01973 7.27864 6.99574C7.27864 6.97175 7.30174 6.97175 7.30174 6.94775C7.30174 6.92376 7.32485 6.92376 7.32485 6.89977C7.32485 6.87578 7.34795 6.87578 7.34795 6.87578C7.34795 6.87578 7.37106 6.85179 7.39416 6.85179C7.37106 6.8038 7.39416 6.77981 7.41727 6.75582C7.44037 6.73182 7.48658 6.73182 7.48658 6.68384C7.50969 6.65985 7.53279 6.63586 7.53279 6.61186C7.53279 6.58787 7.53279 6.53989 7.5559 6.51589C7.5559 6.4919 7.579 6.46791 7.579 6.41993C7.60211 6.39593 7.60211 6.37194 7.579 6.32396C7.579 6.29997 7.579 6.29997 7.579 6.27597C7.579 6.25198 7.579 6.25198 7.579 6.22799C7.579 6.204 7.579 6.18001 7.60211 6.13202C7.579 6.10803 7.579 6.08404 7.60211 6.03605C7.60211 6.01206 7.62521 5.98807 7.60211 5.94008V5.84411C7.60211 5.82012 7.60211 5.79613 7.579 5.77214C7.60211 5.72415 7.60211 5.70016 7.579 5.67617C7.5559 5.65218 7.53279 5.62819 7.53279 5.60419C7.50969 5.55621 7.44037 5.53222 7.46348 5.46024C7.46348 5.43625 7.44037 5.41226 7.44037 5.38826C7.44037 5.36427 7.41727 5.34028 7.39416 5.34028C7.37106 5.31629 7.37106 5.2923 7.37106 5.2683C7.37106 5.24431 7.34795 5.22032 7.30174 5.24431C7.27864 5.24431 7.27864 5.19633 7.27864 5.17233C7.27864 5.14834 7.25553 5.12435 7.23243 5.14834C7.16311 5.17233 7.16311 5.10036 7.14 5.07637C7.1169 5.05237 7.07069 5.02838 7.04758 5.00439C6.90895 4.93241 6.79343 4.88443 6.70101 4.86044C6.63169 4.88443 6.58548 4.86044 6.58548 4.83644C6.58548 4.83644 6.60858 4.81245 6.63169 4.81245C6.6548 4.81245 6.6548 4.81245 6.6779 4.78846C6.70101 4.78846 6.72411 4.78846 6.74722 4.78846C6.86274 4.78846 7.04758 4.81245 7.25553 4.90842C7.30174 4.93241 7.37106 4.90842 7.37106 4.9804C7.39416 5.00439 7.41727 5.00439 7.44037 5.00439C7.46348 5.00439 7.48658 5.02838 7.48658 5.05237C7.53279 5.05237 7.5559 5.05237 7.5559 5.07637C7.579 5.10036 7.579 5.12435 7.60211 5.14834C7.62521 5.17233 7.64832 5.19633 7.64832 5.22032C7.67142 5.24431 7.69453 5.2683 7.71763 5.2923C7.78695 5.31629 7.76384 5.41226 7.81006 5.46024C7.81006 5.50822 7.81005 5.53222 7.83316 5.55621C7.85627 5.5802 7.87937 5.60419 7.90248 5.65218C7.90248 5.70016 7.90248 5.72415 7.92558 5.74815C7.92558 5.77214 7.94869 5.77214 7.94869 5.79613C7.94869 5.82012 7.97179 5.82012 7.97179 5.84411C7.94869 5.8921 7.94869 5.91609 7.94869 5.96408C7.94869 5.98807 7.97179 6.03605 7.9949 6.08404C8.018 6.13202 7.9949 6.15601 7.9949 6.204C7.9949 6.22799 7.9949 6.25198 7.9949 6.25198C7.9949 6.27597 7.9949 6.29997 7.9949 6.29997C7.97179 6.37194 7.97179 6.46791 7.94869 6.53989C7.94869 6.58787 7.94869 6.63586 7.92558 6.65985C7.90248 6.70783 7.87937 6.73182 7.85627 6.75582C7.85627 6.8038 7.83316 6.82779 7.81006 6.87578C7.78695 6.92376 7.76384 6.94775 7.74074 6.97175C7.74074 6.99574 7.71763 7.01973 7.71763 7.01973C7.69453 7.04372 7.69453 7.04372 7.67142 7.06771L7.62521 7.1157C7.60211 7.13969 7.60211 7.13969 7.579 7.16368C7.5559 7.18767 7.50969 7.21167 7.46348 7.23566C7.41727 7.25965 7.39416 7.28364 7.37106 7.33163C7.30174 7.37961 7.20932 7.4036 7.14 7.45159C7.09379 7.45159 7.04758 7.47558 7.00137 7.49957C6.95516 7.49957 6.90895 7.52357 6.86274 7.54756C6.81653 7.52357 6.77032 7.52357 6.72411 7.52357C6.6779 7.52357 6.63169 7.54756 6.58548 7.57155C6.53927 7.57155 6.49306 7.57155 6.44685 7.57155C6.40064 7.57155 6.35443 7.54756 6.30822 7.54756C6.26201 7.54756 6.2158 7.52357 6.16959 7.52357C6.12338 7.49957 6.07717 7.49957 6.03095 7.47558C5.98474 7.47558 5.93853 7.4276 5.91543 7.4036C5.86922 7.45159 5.84611 7.4036 5.7999 7.4036C5.75369 7.4036 5.73059 7.35562 5.68438 7.33163C5.66127 7.30764 5.63817 7.25965 5.59196 7.23566C5.56885 7.23566 5.54575 7.21167 5.54575 7.18768C5.52264 7.16368 5.52264 7.16368 5.49954 7.13969C5.47643 7.1157 5.47643 7.1157 5.45332 7.09171C5.45332 7.06771 5.43022 7.04372 5.43022 7.01973C5.40711 6.99574 5.38401 6.94775 5.38401 6.89977C5.3609 6.85179 5.3378 6.82779 5.31469 6.8038C5.29159 6.77981 5.24538 6.73182 5.22227 6.70783C5.19917 6.65985 5.19917 6.63586 5.22227 6.56388C5.19917 6.51589 5.19917 6.4919 5.19917 6.44392C5.19917 6.39593 5.19917 6.37194 5.17606 6.32396C5.19917 6.29997 5.19917 6.27597 5.19917 6.25198C5.19917 6.22799 5.19917 6.204 5.19917 6.204C5.19917 6.15601 5.17606 6.13202 5.17606 6.08404C5.17606 6.03605 5.19917 6.01206 5.19917 5.96408C5.19917 5.91609 5.19917 5.8921 5.19917 5.84411C5.19917 5.82012 5.19917 5.79613 5.19917 5.79613C5.19917 5.77214 5.19917 5.77214 5.22227 5.74815C5.24538 5.72415 5.24538 5.67617 5.26848 5.65218C5.26848 5.60419 5.29159 5.5802 5.31469 5.55621C5.3378 5.53222 5.3609 5.50822 5.3609 5.46024C5.38401 5.41226 5.40711 5.34028 5.45332 5.2923C5.43022 5.24431 5.45332 5.22032 5.47643 5.19633C5.49954 5.17233 5.54575 5.17233 5.56885 5.14834C5.59196 5.12435 5.59196 5.10036 5.61506 5.07637C5.63817 5.05237 5.63817 5.02838 5.68438 5.02838C5.68438 4.9804 5.70748 4.95641 5.73059 4.95641C5.75369 4.95641 5.7999 4.95641 5.82301 4.93241C5.86922 4.90842 5.89232 4.86044 5.93853 4.86044C5.93853 4.83644 5.96164 4.81245 5.98474 4.81245C6.00785 4.81245 6.03095 4.81245 6.05406 4.78846C6.10027 4.78846 6.12338 4.76447 6.16959 4.76447C6.19269 4.76447 6.19269 4.74048 6.2158 4.74048C6.2389 4.74048 6.26201 4.74048 6.26201 4.74048C6.28511 4.74048 6.33132 4.74048 6.35443 4.74048C6.40064 4.74048 6.42374 4.74048 6.46995 4.74048C6.49306 4.74048 6.53927 4.74048 6.53927 4.76447C6.56237 4.81245 6.58548 4.81245 6.58548 4.83644Z" fill="#73523F"/>
<path d="M13.517 4.83644C13.517 4.86044 13.4939 4.86044 13.4477 4.88443C13.4246 4.88443 13.4015 4.90842 13.3784 4.90842C13.3553 4.90842 13.3091 4.93241 13.286 4.93241C13.2629 4.93241 13.2398 4.95641 13.2167 4.95641C13.1936 4.95641 13.1936 4.9804 13.1705 4.9804C13.1474 4.9804 13.1474 5.00439 13.1243 5.00439C13.078 4.9804 13.078 5.07637 13.0318 5.05237C12.9856 5.05237 12.9625 5.07637 12.9394 5.12435C12.9163 5.14834 12.8701 5.14834 12.847 5.19633C12.847 5.24431 12.8239 5.24431 12.8008 5.24431C12.7777 5.24431 12.7546 5.24431 12.7546 5.2923C12.7546 5.31629 12.7315 5.34028 12.7084 5.34028C12.6853 5.36427 12.6853 5.36427 12.6621 5.38826C12.6159 5.38826 12.6159 5.41226 12.6159 5.43625C12.6159 5.46024 12.6159 5.48423 12.5928 5.50822C12.5235 5.50822 12.5004 5.5802 12.5235 5.65218C12.4773 5.65218 12.4542 5.67617 12.4311 5.70016C12.4311 5.72415 12.4311 5.77214 12.4542 5.79613C12.4542 5.82012 12.4311 5.84411 12.4311 5.86811C12.4311 5.8921 12.4311 5.8921 12.4311 5.91609C12.4311 5.94008 12.4311 5.94008 12.4311 5.96408C12.4311 5.98807 12.4311 6.01206 12.4311 6.06004C12.4311 6.08404 12.4311 6.10803 12.4311 6.15601C12.4542 6.18 12.4773 6.204 12.4773 6.25198C12.4773 6.27597 12.4773 6.27597 12.4773 6.29997C12.4773 6.32396 12.4773 6.32396 12.4542 6.34795C12.5235 6.39593 12.5004 6.44392 12.5004 6.51589C12.5004 6.53989 12.5235 6.56388 12.5466 6.58787C12.5697 6.61186 12.5928 6.63586 12.5928 6.68384C12.5928 6.70783 12.6159 6.73182 12.639 6.75582C12.6621 6.77981 12.6853 6.8038 12.6853 6.82779C12.6853 6.85179 12.6853 6.85178 12.7084 6.87578C12.7084 6.89977 12.7315 6.89977 12.7315 6.92376C12.7315 6.94775 12.7546 6.94775 12.7777 6.94775C12.8008 6.94775 12.8008 6.97175 12.8239 6.97175C12.847 6.99574 12.8701 6.99574 12.9163 7.01973C12.9394 7.04372 12.9625 7.06771 12.9856 7.09171C13.078 7.06771 13.1011 7.1157 13.1474 7.18768C13.1705 7.18768 13.2167 7.21167 13.2398 7.23566C13.2629 7.25965 13.3091 7.25965 13.3322 7.25965C13.3553 7.25965 13.4015 7.25965 13.4246 7.25965C13.4477 7.25965 13.4939 7.25965 13.517 7.28364C13.5401 7.28364 13.5864 7.30764 13.6095 7.30764C13.6326 7.30764 13.6788 7.28364 13.7019 7.25965C13.725 7.23566 13.7712 7.23566 13.7943 7.23566C13.8174 7.23566 13.8636 7.23566 13.8867 7.21167C13.9329 7.23566 13.956 7.21167 13.9791 7.18768C14.0022 7.16368 14.0254 7.13969 14.0485 7.1157C14.0716 7.09171 14.0947 7.09171 14.1409 7.06771C14.164 7.04372 14.1871 7.01973 14.2102 6.99574C14.2102 6.97175 14.2333 6.97175 14.2333 6.94775C14.2333 6.92376 14.2564 6.92376 14.2564 6.89977C14.2564 6.87578 14.2795 6.87578 14.2795 6.87578C14.2795 6.87578 14.3026 6.85179 14.3257 6.85179C14.3026 6.8038 14.3257 6.77981 14.3488 6.75582C14.3719 6.73182 14.4181 6.73182 14.4181 6.68384C14.4412 6.65985 14.4644 6.63586 14.4644 6.61186C14.4644 6.58787 14.4644 6.53989 14.4875 6.51589C14.4875 6.4919 14.5106 6.46791 14.5106 6.41993C14.5337 6.39593 14.5337 6.37194 14.5106 6.32396C14.5106 6.29997 14.5106 6.29997 14.5106 6.27597C14.5106 6.25198 14.5106 6.25198 14.5106 6.22799C14.5106 6.204 14.5106 6.18001 14.5337 6.13202C14.5106 6.10803 14.5106 6.08404 14.5337 6.03605C14.5337 6.01206 14.5568 5.98807 14.5337 5.94008V5.84411C14.5337 5.82012 14.5337 5.79613 14.5106 5.77214C14.5337 5.72415 14.5337 5.70016 14.5106 5.67617C14.4875 5.65218 14.4644 5.62819 14.4644 5.60419C14.4412 5.55621 14.3719 5.53222 14.395 5.46024C14.395 5.43625 14.3719 5.41226 14.3719 5.38826C14.3719 5.36427 14.3488 5.34028 14.3257 5.34028C14.3026 5.31629 14.3026 5.2923 14.3026 5.2683C14.3026 5.24431 14.2795 5.22032 14.2333 5.24431C14.2102 5.24431 14.2102 5.19633 14.2102 5.17233C14.2102 5.14834 14.1871 5.12435 14.164 5.14834C14.0947 5.17233 14.0947 5.10036 14.0716 5.07637C14.0485 5.05237 14.0022 5.02838 13.9791 5.00439C13.8405 4.93241 13.725 4.88443 13.6326 4.86044C13.5633 4.88443 13.517 4.86044 13.517 4.83644C13.517 4.83644 13.5401 4.81245 13.5632 4.81245C13.5864 4.81245 13.6326 4.78846 13.7019 4.78846C13.8174 4.78846 14.0022 4.81245 14.2102 4.90842C14.2564 4.93241 14.3257 4.90842 14.3257 4.9804C14.3488 5.00439 14.3719 5.00439 14.395 5.00439C14.4181 5.00439 14.4412 5.02838 14.4412 5.05237C14.4875 5.05237 14.5106 5.05237 14.5106 5.07637C14.5337 5.10036 14.5337 5.12435 14.5568 5.14834C14.5799 5.17233 14.603 5.19633 14.603 5.22032C14.6261 5.24431 14.6492 5.2683 14.6723 5.2923C14.7416 5.31629 14.7185 5.41226 14.7647 5.46024C14.7647 5.50822 14.7647 5.53222 14.7878 5.55621C14.8109 5.5802 14.834 5.60419 14.8571 5.65218C14.8571 5.70016 14.8571 5.72415 14.8802 5.74815C14.8802 5.77214 14.9034 5.77214 14.9034 5.79613C14.9034 5.82012 14.9265 5.82012 14.9265 5.84411C14.9034 5.8921 14.9034 5.91609 14.9034 5.96408C14.9034 6.01206 14.9265 6.03605 14.9496 6.08404C14.9727 6.13202 14.9496 6.15601 14.9496 6.204C14.9496 6.22799 14.9496 6.25198 14.9496 6.25198C14.9496 6.27597 14.9496 6.29997 14.9496 6.29997C14.9265 6.37194 14.9265 6.46791 14.9034 6.53989C14.9034 6.58787 14.9034 6.63586 14.8802 6.65985C14.8571 6.70783 14.834 6.73182 14.8109 6.75582C14.8109 6.8038 14.7878 6.82779 14.7647 6.87578C14.7416 6.92376 14.7185 6.94775 14.6954 6.97175C14.6954 6.99574 14.6723 7.01973 14.6723 7.01973C14.6492 7.04372 14.6492 7.04372 14.6261 7.06771L14.5799 7.1157C14.5568 7.13969 14.5568 7.13969 14.5337 7.16368C14.5106 7.18767 14.4644 7.21167 14.4181 7.23566C14.3719 7.25965 14.3488 7.28364 14.3257 7.33163C14.2564 7.37961 14.164 7.4036 14.0947 7.45159C14.0485 7.45159 14.0022 7.47558 13.956 7.49957C13.9098 7.49957 13.8636 7.52357 13.8174 7.54756C13.7712 7.52357 13.725 7.52357 13.6788 7.52357C13.6326 7.52357 13.5864 7.54756 13.5401 7.57155C13.4939 7.57155 13.4477 7.57155 13.4015 7.57155C13.3553 7.57155 13.3091 7.54756 13.2629 7.54756C13.2167 7.54756 13.1705 7.52357 13.1243 7.52357C13.078 7.49957 13.0318 7.49957 12.9856 7.47558C12.9394 7.47558 12.8932 7.4276 12.8701 7.4036C12.8239 7.45159 12.7777 7.4036 12.7315 7.4036C12.6853 7.4036 12.6621 7.35562 12.6159 7.33163C12.5928 7.30764 12.5697 7.25965 12.5235 7.23566C12.5004 7.23566 12.4773 7.21167 12.4773 7.18768C12.4542 7.16368 12.4542 7.16368 12.4311 7.13969C12.408 7.1157 12.408 7.1157 12.3849 7.09171C12.3849 7.06771 12.3618 7.04372 12.3618 7.01973C12.3387 6.99574 12.3156 6.94775 12.3156 6.89977C12.2925 6.85179 12.2694 6.82779 12.2463 6.8038C12.2231 6.77981 12.1769 6.73182 12.1538 6.70783C12.1307 6.65985 12.1307 6.63586 12.1538 6.56388C12.1307 6.53989 12.1307 6.4919 12.1307 6.44392C12.1307 6.39593 12.1307 6.37194 12.1076 6.32396C12.1307 6.29997 12.1307 6.27597 12.1307 6.25198C12.1307 6.22799 12.1307 6.204 12.1307 6.204C12.1307 6.15601 12.1076 6.13202 12.1076 6.08404C12.1076 6.03605 12.1307 6.01206 12.1307 5.96408C12.1307 5.91609 12.1538 5.8921 12.1307 5.84411C12.1307 5.82012 12.1307 5.79613 12.1307 5.79613C12.1307 5.77214 12.1307 5.77214 12.1538 5.74815C12.1769 5.72415 12.1769 5.67617 12.2 5.65218C12.2 5.60419 12.2231 5.5802 12.2463 5.55621C12.2694 5.53222 12.2925 5.50822 12.2925 5.46024C12.3156 5.41226 12.3387 5.34028 12.3849 5.2923C12.3618 5.24431 12.3849 5.22032 12.408 5.19633C12.4311 5.17233 12.4773 5.17233 12.5004 5.14834C12.5235 5.12435 12.5235 5.10036 12.5466 5.07637C12.5697 5.05237 12.5697 5.02838 12.6159 5.02838C12.6159 4.9804 12.639 4.95641 12.6621 4.95641C12.6853 4.95641 12.7315 4.95641 12.7546 4.93241C12.8008 4.90842 12.8239 4.86044 12.8701 4.86044C12.8701 4.83644 12.8932 4.81245 12.9163 4.81245C12.9394 4.81245 12.9625 4.81245 12.9856 4.78846C13.0318 4.78846 13.0549 4.76447 13.1011 4.76447C13.1243 4.76447 13.1243 4.74048 13.1474 4.74048C13.1705 4.74048 13.1936 4.74048 13.1936 4.74048C13.2167 4.74048 13.2629 4.74048 13.286 4.74048C13.3322 4.74048 13.3553 4.74048 13.4015 4.74048C13.4246 4.74048 13.4708 4.74048 13.4939 4.76447C13.4939 4.81245 13.517 4.81245 13.517 4.83644Z" fill="#73523F"/>
</svg>
