<svg width="56" height="44" viewBox="0 0 56 44" fill="none" xmlns="http://www.w3.org/2000/svg">
<path d="M5.88526 8.13076C5.88526 8.13076 5.7556 8.19551 5.5611 8.19551C5.49627 8.19551 5.43144 8.19551 5.36661 8.19551C5.30178 8.19551 5.23694 8.19551 5.10728 8.26025C5.04245 8.26025 4.91279 8.32499 4.84795 8.32499C4.78312 8.32499 4.65346 8.38974 4.5238 8.38974C4.06998 8.51923 3.61616 8.71345 3.03267 9.10191C2.51402 9.42563 1.93054 9.94358 1.47672 10.6558C1.15256 11.109 0.893234 11.6916 0.763571 12.2743C0.698739 12.5981 0.633908 12.9218 0.633908 13.2455C0.633908 13.4397 0.633908 13.5692 0.633908 13.7634C0.633908 13.9577 0.633908 14.1519 0.633908 14.2814C0.569076 14.9936 0.828402 15.8352 0.633908 16.6121C0.569076 17.4538 0.633908 18.2955 0.633908 19.2019C0.698739 20.1083 0.569076 21.0147 0.633908 21.9858C0.828402 22.957 0.439413 23.9929 0.633908 25.0288C0.698739 26.0647 0.698739 27.1653 0.633908 28.266C0.504245 29.3666 0.633908 30.532 0.633908 31.6974C0.439413 32.8627 0.569076 34.0929 0.633908 35.323C0.504245 35.9704 0.439413 36.5531 0.504245 37.2006C0.504245 37.33 0.504245 37.5243 0.504245 37.6538C0.504245 37.7185 0.504245 37.7832 0.504245 37.9127V38.107C0.504245 38.1717 0.504245 38.2364 0.569076 38.3012L0.698739 38.6896C0.698739 38.7544 0.763571 38.8191 0.763571 38.8839C0.893234 39.4666 1.15256 40.0493 1.47672 40.5025C1.80087 41.0204 2.25469 41.4736 2.77335 41.7973C3.292 42.121 3.87548 42.38 4.45897 42.5095C4.58863 42.5742 4.78312 42.5742 4.91279 42.5742C4.97762 42.5742 5.04245 42.5742 5.17211 42.5742H5.95009C6.14458 42.5742 6.27425 42.5742 6.46874 42.5742C7.89504 42.4448 9.32133 42.4448 10.7476 42.5742C12.1739 42.38 13.665 42.4448 15.1562 42.5742C16.6473 42.639 18.2032 42.4448 19.6944 42.5742C21.2503 42.5742 22.8063 42.5095 24.3622 42.5742C25.9182 42.639 27.539 42.7037 29.1598 42.5742C30.7805 42.5095 32.4013 42.4448 34.087 42.5742C35.7726 42.38 37.3934 42.4448 39.079 42.5742C40.7646 42.5742 42.4502 42.7037 44.2007 42.5742C45.9511 42.5742 47.6367 42.5095 49.3872 42.5742C50.1652 42.5742 50.9431 42.4448 51.6563 42.0563C52.3694 41.7326 52.9529 41.1499 53.4067 40.5025C53.5364 40.373 53.6012 40.1787 53.6661 39.9845C53.7309 39.9198 53.7309 39.7903 53.7957 39.7255C53.8606 39.6608 53.8606 39.5313 53.9254 39.4666C54.0551 39.1428 54.1847 38.7544 54.2495 38.3659L54.3144 38.107V37.7185C54.3144 37.6538 54.3144 37.6538 54.3144 37.589V37.2653C54.3144 36.8121 54.3144 36.4236 54.3144 35.9704C54.5089 34.2871 54.2495 32.6038 54.3144 30.9852C54.3144 29.3019 54.444 27.6833 54.3144 26.0647C54.3144 24.4461 54.2495 22.8275 54.3144 21.2737C54.0551 19.7198 54.3792 18.1012 54.3144 16.6121C54.3792 15.8352 54.3792 15.0583 54.3792 14.3461C54.3792 13.9577 54.3792 13.5692 54.3144 13.2455C54.3144 12.9218 54.2496 12.5981 54.1199 12.2743C53.9254 11.6269 53.6012 11.0442 53.2122 10.4615C52.8233 9.94358 52.3046 9.49038 51.6563 9.2314C51.0728 8.90768 50.4245 8.71345 49.7762 8.71345C49.6465 8.71345 49.452 8.71345 49.3224 8.71345C49.1279 8.71345 48.9982 8.71345 48.8037 8.71345C48.4795 8.71345 48.0906 8.71345 47.7664 8.64871C46.3401 8.7782 44.9786 8.51922 43.6172 8.64871C42.2557 8.64871 40.9591 8.64871 39.6625 8.64871C38.3658 8.45448 37.0692 8.58397 35.8374 8.64871C34.6056 8.64871 33.3738 8.7782 32.2068 8.64871C31.0399 8.64871 29.8729 8.51922 28.7708 8.64871C27.6686 8.64871 26.5665 8.32499 25.5292 8.64871C24.4919 8.71345 23.4546 8.45448 22.4821 8.64871C21.5096 8.84294 20.602 8.64871 19.6944 8.64871C18.7867 8.64871 17.9439 8.64871 17.1011 8.64871C13.4057 8.58397 10.4883 8.58397 8.47852 8.51922C7.50605 8.51922 6.72807 8.45448 6.20942 8.45448C6.14458 8.19551 5.88526 8.19551 5.88526 8.13076C5.88526 8.13076 6.20942 8.06602 6.85773 8.06602C7.50605 8.06602 8.41369 8.00128 9.64548 8.00128C12.1091 7.93653 15.61 7.87179 20.1482 7.87179C21.0558 7.87179 21.9635 7.7423 22.9359 7.87179C23.9084 7.87179 24.9457 7.7423 25.983 7.87179C27.0203 7.67756 28.1225 7.80705 29.2246 7.87179C30.3267 7.87179 31.4937 7.93653 32.6607 7.87179C33.8276 7.7423 35.0594 7.93653 36.2912 7.87179C37.523 8.00128 38.8197 7.93653 40.1163 7.87179C41.4129 8.00128 42.7095 7.87179 44.071 7.87179C45.4325 8.06602 46.7939 7.93653 48.2202 7.87179C48.5444 7.87179 48.9334 7.87179 49.2575 7.87179C49.452 7.87179 49.5817 7.87179 49.7762 7.87179C49.9707 7.87179 50.1652 7.87179 50.3597 7.93653C51.1376 8.00128 51.9156 8.26025 52.6288 8.64871C53.3419 9.03717 53.9902 9.55512 54.5089 10.1378C55.0275 10.7852 55.4165 11.4974 55.6758 12.2743C55.8055 12.6628 55.8703 13.0513 55.9352 13.5045C56 13.9577 56 14.2814 56 14.6698C56 15.4468 56 16.2237 55.9352 16.9359C56 18.4897 55.9352 20.0435 55.9352 21.5974C56 23.1512 55.9352 24.7698 55.9352 26.3884C56 28.007 55.7407 29.6256 55.9352 31.3089C55.9352 32.9922 55.9352 34.6108 55.9352 36.2941C55.9352 36.7473 55.9352 37.1358 55.9352 37.589V37.9127C55.9352 37.9775 55.9352 38.0422 55.9352 38.107V38.3012C55.9352 38.4307 55.9352 38.5602 55.9352 38.6249L55.8703 38.9486C55.8055 39.4018 55.6758 39.855 55.4813 40.3082C55.4165 40.4377 55.3517 40.5025 55.3517 40.6319C55.2869 40.7614 55.2869 40.8262 55.222 40.9557C55.0924 41.1499 54.9627 41.3441 54.833 41.5384L54.5737 41.7973L54.1199 41.8621C53.9254 42.0563 53.7957 42.1858 53.6012 42.3153C53.5364 42.38 53.4067 42.4448 53.3419 42.5095L53.0826 42.7037L52.7584 42.898C52.6288 42.9627 52.5639 43.0275 52.4343 43.0922C51.5915 43.5454 50.6838 43.8044 49.7113 43.8691C47.9609 43.9339 46.2104 43.8691 44.5248 43.8691C42.7744 43.8691 41.0888 43.8691 39.4031 43.8691C37.7175 43.9339 36.0319 43.8044 34.4111 43.8691C32.7255 43.9339 31.1047 43.8044 29.4839 43.8691C27.8631 43.9339 26.2423 43.9339 24.6864 43.8691C23.1304 43.8691 21.5096 43.6749 20.0185 43.8691C18.4626 43.9339 16.9714 44.1281 15.4803 43.8691C13.9892 43.9339 12.4981 43.7396 11.0718 43.8691C9.64548 43.6749 8.21919 43.8691 6.7929 43.8691C6.59841 43.8691 6.46874 43.8691 6.27425 43.8691H5.49627C5.43144 43.8691 5.30177 43.8691 5.23694 43.8044C5.04245 43.7396 4.84795 43.7396 4.71829 43.6749C4.00515 43.4807 3.292 43.1569 2.70852 42.8332C2.0602 42.4448 1.54155 41.9268 1.15256 41.2794C0.763571 40.6967 0.504245 39.9845 0.30975 39.3371C0.30975 39.2723 0.244919 39.1429 0.244919 39.0781C0.244919 39.0134 0.180087 38.8839 0.180087 38.8191L0.115256 38.5602C0.115256 38.4954 0.115256 38.3659 0.115256 38.3012V37.7832C0.115256 37.6538 0.115256 37.4595 0.115256 37.33C0.180087 36.6826 0.180087 36.0999 0.115256 35.4525C0.115256 34.2224 0.115256 32.9922 0.115256 31.8268C-0.14407 30.6615 0.115256 29.4961 0.115256 28.3954C0.180087 27.2948 -0.0792385 26.1942 0.115256 25.1583C-0.0792385 24.1224 0.115256 23.0865 0.115256 22.1153C0.180087 21.1442 0.0504245 20.2378 0.115256 19.3314C-0.014407 18.425 0.180087 17.5833 0.115256 16.7416C0.180087 15.9 0.115256 15.1231 0.115256 14.4109C0.115256 14.2166 0.115256 14.0224 0.115256 13.8929C0.115256 13.6987 0.115256 13.5045 0.115256 13.3102C0.180087 12.9218 0.244919 12.5981 0.374582 12.2743C0.569076 11.6269 0.893234 11.0442 1.21739 10.5263C1.73604 9.81409 2.38436 9.29614 2.96784 8.97243C3.55132 8.64871 4.13481 8.45448 4.58863 8.32499C4.71829 8.32499 4.78312 8.26025 4.91279 8.26025C5.04245 8.26025 5.10728 8.26025 5.17211 8.26025C5.23694 8.26025 5.36661 8.26025 5.43144 8.26025C5.49627 8.26025 5.5611 8.26025 5.62593 8.26025C5.7556 8.13076 5.88526 8.13076 5.88526 8.13076Z" fill="#B2907C"/>
<path d="M13.665 0.4263C13.7299 0.4263 13.7947 1.20322 13.8595 2.69232C13.8595 2.95129 13.8595 3.21027 13.8595 3.46924C13.8595 3.72821 13.9244 4.05193 13.8595 4.37565C13.7947 4.69936 14.054 5.02308 13.8595 5.3468C13.7947 5.67052 13.8595 6.05898 13.8595 6.44744C13.8595 6.64167 13.8595 6.8359 13.8595 7.03013C13.8595 7.15961 13.8595 7.22436 13.8595 7.35384C13.8595 7.41859 13.8595 7.48333 13.8595 7.48333V7.54807C13.8595 7.54807 13.8595 7.54807 13.8595 7.61282C14.054 7.54807 14.054 7.61282 14.054 7.61282C14.054 7.67756 14.054 7.67756 13.9892 7.7423C14.054 7.80705 14.1837 7.87179 14.3782 7.7423C14.832 7.67756 15.2858 7.67756 15.7396 7.7423C16.1935 7.87179 16.7121 7.7423 17.1659 7.7423C17.6846 7.93653 18.2032 7.80705 18.7219 7.7423C19.2405 8.00128 19.7592 7.93653 20.3427 7.7423C20.8613 7.7423 21.4448 7.80705 22.0283 7.7423C22.6118 7.7423 23.1953 7.67756 23.7787 7.7423C24.3622 7.61282 24.9457 7.61282 25.594 7.7423C26.1775 7.54807 26.8258 7.61282 27.4741 7.7423C28.1225 7.80705 28.7708 7.61282 29.4191 7.7423C30.0674 7.7423 30.7157 7.67756 31.4289 7.7423C32.0772 7.80705 32.7903 7.87179 33.4386 7.7423C34.1518 7.67756 34.8001 7.61282 35.5132 7.7423C36.2264 7.54807 36.9395 7.61282 37.6527 7.7423C38.3658 7.7423 39.079 7.87179 39.7921 7.7423C40.1811 7.7423 40.5053 7.7423 40.8943 7.7423H41.3481C41.3481 7.7423 41.3481 7.67756 41.4129 7.67756V7.2891C41.4129 6.90064 41.4129 6.57692 41.3481 6.18846C41.2184 5.47628 41.4129 4.76411 41.3481 4.05193C41.5426 3.33975 41.2832 2.62758 41.3481 1.9154C41.3481 1.78591 41.3481 1.72117 41.3481 1.59168V1.33271C41.3481 1.26796 41.3481 1.26796 41.3481 1.20322H41.2832C41.2832 1.20322 41.2833 1.20322 41.2184 1.20322H41.0888C40.3756 1.20322 39.7273 1.26796 39.079 1.20322C38.4307 1.46219 37.7175 1.13848 37.0692 1.20322C36.4209 1.07373 35.7726 1.20322 35.1243 1.20322C34.4759 1.26796 33.8925 1.07373 33.2441 1.20322C32.6607 1.20322 32.0123 1.26796 31.4289 1.20322C30.8454 1.33271 30.2619 1.07373 29.6784 1.20322C29.0949 1.20322 28.5763 1.20322 27.9928 1.20322C27.4741 1.00899 26.8907 1.13848 26.372 1.20322C25.8534 1.20322 25.3347 1.33271 24.8161 1.20322C24.2974 1.20322 23.8436 1.07373 23.3898 1.20322C22.9359 1.20322 22.4821 0.879504 22.0283 1.20322C21.5745 1.26796 21.1855 1.00899 20.7317 1.20322C20.3427 1.39745 19.9537 1.20322 19.5647 1.20322C19.1757 1.20322 18.8516 1.20322 18.4626 1.20322C15.4155 0.62053 13.665 0.491044 13.665 0.4263C13.665 0.361557 14.2485 0.296813 15.2858 0.23207C16.3231 0.167327 17.8143 0.102583 19.6944 0.102583C20.0834 0.102583 20.4723 -0.0269035 20.8613 0.102583C21.2503 0.102583 21.7041 -0.0269035 22.158 0.102583C22.6118 -0.0916469 23.0656 0.0378399 23.5194 0.102583C23.9732 0.102583 24.4919 0.167327 24.9457 0.102583C25.4644 -0.0269035 25.983 0.167327 26.5017 0.102583C27.0203 0.23207 27.539 0.167327 28.1225 0.102583C28.6411 0.23207 29.2246 0.102583 29.8081 0.102583C30.3916 0.296813 30.975 0.167327 31.5585 0.102583C32.142 0.0378399 32.7255 0.102583 33.3738 0.102583C33.9573 0.167327 34.6056 0.0378399 35.2539 0.102583C35.9022 0.0378399 36.5506 -0.0269035 37.1989 0.102583C37.8472 0.0378399 38.4955 0.102583 39.2086 0.102583C39.857 0.0378399 40.5701 0.102583 41.2184 0.102583H41.5426C41.6722 0.102583 41.8019 0.102583 41.9316 0.102583C42.1909 0.102583 42.3854 0.102583 42.6447 0.102583C42.6447 0.491044 42.5799 0.879504 42.5799 1.26796V1.46219C42.5799 1.52694 42.5799 1.59168 42.5799 1.59168C42.5799 1.72117 42.5799 1.78591 42.6447 1.9154C42.6447 2.62758 42.6447 3.33975 42.6447 4.05193C42.6447 4.76411 42.5799 5.47628 42.6447 6.18846C42.5799 6.57692 42.5151 6.90064 42.5151 7.2891C42.5151 7.35384 42.5151 7.48333 42.5151 7.54807V7.93653C42.5151 8.26025 42.5799 8.64871 42.5799 8.97243C42.2557 8.97243 41.8667 8.97243 41.5426 8.97243H40.8943C40.5053 8.97243 40.1811 8.97243 39.7921 8.97243C39.079 8.97243 38.3658 8.97243 37.6527 8.97243C36.9395 9.03717 36.2264 8.90769 35.5132 8.97243C34.8001 9.03717 34.1518 8.90769 33.4386 8.97243C32.7255 9.03717 32.0772 9.03717 31.4289 8.97243C30.7805 8.97243 30.0674 8.7782 29.4191 8.97243C28.7708 9.03717 28.1225 9.2314 27.4741 8.97243C26.8258 9.03717 26.2423 8.84294 25.594 8.97243C25.0105 8.7782 24.3622 8.97243 23.7787 8.97243C23.1953 8.90769 22.6118 8.84294 22.0283 8.97243C21.4448 9.03717 20.9262 8.90769 20.3427 8.97243C19.824 9.10192 19.2405 8.84294 18.7219 8.97243C18.2032 8.97243 17.6846 8.97243 17.1659 8.97243C16.6473 9.2314 16.1935 8.97243 15.7396 8.97243C15.2858 8.90769 14.832 9.16666 14.3782 8.97243C14.3782 8.97243 14.3782 8.97243 14.3134 8.97243H14.2485C14.1837 8.97243 14.1189 8.97243 14.1189 8.97243C13.9892 8.97243 13.9244 8.97243 13.7947 8.97243C13.6002 8.97243 13.4057 8.97243 13.2112 8.97243C13.2112 8.64871 13.276 8.32499 13.276 8.00128C13.276 7.93653 13.276 7.93653 13.276 7.87179V7.80705C13.276 7.7423 13.276 7.67756 13.276 7.67756C13.276 7.54807 13.276 7.48333 13.276 7.35384C13.276 7.15961 13.276 6.96538 13.3409 6.77115C13.2112 6.38269 13.4057 6.05898 13.3409 5.67052C13.4057 5.3468 13.3409 5.02308 13.3409 4.69936C13.3409 4.37565 13.3409 4.11667 13.3409 3.79296C13.3409 3.53398 13.3409 3.27501 13.3409 3.01604C13.4705 1.20322 13.5354 0.4263 13.665 0.4263Z" fill="#B2907C"/>
<path d="M0.30975 13.5045C0.374582 13.5045 0.374582 13.8282 0.439413 14.4756C0.439413 14.7993 0.504245 15.1878 0.504245 15.641C0.504245 16.0295 0.504245 16.5474 0.569076 17.0654C0.569076 17.0654 0.569076 17.1301 0.569076 17.1948C0.698739 17.1948 0.828402 17.1948 0.958065 17.1948C1.15256 17.1948 1.28222 17.1948 1.47672 17.1948C1.93054 17.1948 2.38436 17.1301 2.90301 17.1948C3.42166 17.2596 3.94031 17.0006 4.5238 17.1948C5.10728 17.2596 5.69076 17.1948 6.27425 17.1948C6.92256 17.1301 7.50605 17.2596 8.21919 17.1948C8.86751 17.0006 9.58065 17.3891 10.2938 17.1948C11.0069 17.1301 11.7849 17.1301 12.4981 17.1948C13.276 17.3243 14.054 17.1948 14.832 17.1948C15.61 17.3891 16.4528 17.3243 17.2956 17.1948C18.1384 17.4538 19.046 17.3891 19.8889 17.1948C20.7965 17.1948 21.7041 17.2596 22.6118 17.1948C23.5194 17.1948 24.4919 17.1301 25.4644 17.1948C26.4368 17.0654 27.4093 17.0654 28.4466 17.1948C29.4191 17.0006 30.4564 17.0654 31.4937 17.1948C32.531 17.2596 33.5683 17.0654 34.6056 17.1948C35.6429 17.1948 36.745 17.1301 37.8472 17.1948C38.9493 17.2596 40.0515 17.3243 41.1536 17.1948C42.2557 17.1301 43.4227 17.0654 44.5248 17.1948C45.6918 17.0006 46.7939 17.0654 47.9609 17.1948C49.1279 17.1948 50.2948 17.3243 51.4618 17.1948C52.0453 17.1948 52.6288 17.1948 53.2122 17.1948C53.5364 17.1948 53.7957 17.1948 54.1199 17.1948H54.3792V16.8711C54.3792 16.5474 54.3792 16.2884 54.3792 15.9647C54.3792 15.641 54.3792 15.382 54.3792 15.0583C54.3792 14.9288 54.3792 14.7346 54.3792 14.6051H54.1199C53.8606 14.6051 53.6012 14.6051 53.2771 14.6051C52.7584 14.6051 52.1749 14.5404 51.6563 14.6051C50.4893 14.4109 49.3224 14.6698 48.2202 14.6051C47.0533 14.6051 45.9511 14.5404 44.849 14.6051C43.7468 14.6051 42.6447 14.6698 41.5426 14.6051C40.4404 14.8641 39.4031 14.5404 38.301 14.6051C37.2637 14.4756 36.1616 14.6051 35.1891 14.6051C34.1518 14.6698 33.1145 14.4756 32.142 14.6051C31.1695 14.6051 30.1322 14.6698 29.1598 14.6051C28.1873 14.7346 27.2148 14.4756 26.3072 14.6051C25.3995 14.6051 24.4919 14.6051 23.5843 14.6051C22.6766 14.4109 21.8338 14.5404 20.991 14.6051C20.1482 14.6051 19.3054 14.7346 18.5274 14.6051C17.7494 14.6051 16.9066 14.4756 16.1935 14.6051C15.4155 14.6051 14.7023 14.2814 13.9892 14.6051C13.276 14.6698 12.5629 14.4109 11.9146 14.6051C11.2663 14.7993 10.618 14.6051 9.96964 14.6051C9.32133 14.6051 8.73784 14.6051 8.21919 14.6051C5.69076 14.5404 3.68099 14.5404 2.31953 14.4756C1.08773 13.5692 0.30975 13.5045 0.30975 13.5045C0.30975 13.4397 1.21739 13.375 2.90301 13.3102C4.58863 13.2455 7.05223 13.1807 10.0993 13.1807C10.7476 13.1807 11.3311 13.0513 12.0442 13.1807C12.6926 13.1807 13.4057 13.0513 14.1189 13.1807C14.832 12.9865 15.61 13.116 16.3231 13.1807C17.1011 13.1807 17.8791 13.2455 18.6571 13.1807C19.435 13.0513 20.2778 13.2455 21.1207 13.1807C21.9635 13.3102 22.8711 13.2455 23.7139 13.1807C24.6216 13.3102 25.5292 13.1807 26.4368 13.1807C27.3445 13.375 28.317 13.2455 29.2894 13.1807C30.2619 13.116 31.2344 13.1807 32.2717 13.1807C33.2441 13.2455 34.2814 13.116 35.3188 13.1807C36.3561 13.116 37.3934 13.0513 38.4307 13.1807C39.468 13.116 40.5701 13.1807 41.6722 13.1807C42.7744 13.116 43.8765 13.1807 44.9786 13.1807C46.0808 13.116 47.2477 13.375 48.3499 13.1807C49.5169 13.1807 50.619 13.1807 51.786 13.1807C52.3046 13.1807 52.8881 13.1807 53.4067 13.1807C53.6661 13.1807 53.9254 13.1807 54.2495 13.1807C54.7034 13.1807 55.1572 13.1807 55.6758 13.1807C55.6758 13.3102 55.6758 13.5045 55.6758 13.634C55.6758 13.7634 55.6758 13.8929 55.6758 14.0872V14.4756C55.6758 14.6051 55.6758 14.7993 55.6758 14.9288C55.6758 15.2525 55.6758 15.5115 55.6758 15.8352C55.6758 16.1589 55.6758 16.4179 55.7407 16.7416V17.3243C55.7407 17.5833 55.7407 17.907 55.7407 18.166C55.222 18.166 54.7682 18.166 54.2495 18.166C53.9254 18.166 53.6661 18.166 53.3419 18.166C52.7584 18.166 52.1749 18.166 51.5915 18.166C50.4245 18.166 49.2575 18.166 48.0906 18.166C46.9236 18.2307 45.7566 18.1012 44.6545 18.166C43.4875 18.2307 42.3854 18.1012 41.2832 18.166C40.1811 18.2307 39.079 18.2307 37.9768 18.166C36.8747 18.166 35.8374 17.9718 34.7353 18.166C33.698 18.2307 32.5958 18.425 31.6234 18.166C30.5861 18.2307 29.5488 18.0365 28.5763 18.166C27.6038 17.9718 26.5665 18.166 25.594 18.166C24.6216 18.1012 23.6491 18.0365 22.7414 18.166C21.8338 18.2307 20.9262 18.1012 20.0185 18.166C19.1109 18.2955 18.2681 18.0365 17.4253 18.166C16.5825 18.166 15.7396 18.166 14.9617 18.166C14.1837 18.425 13.3409 18.166 12.6277 18.166C11.8498 18.1012 11.1366 18.3602 10.4235 18.166C9.71032 18.3602 8.99717 18.166 8.34886 18.166C7.70054 18.1012 7.05223 18.2307 6.40391 18.166C5.7556 18.2955 5.17211 18.1012 4.65346 18.166C4.06998 18.1012 3.55132 18.166 3.03267 18.166C2.51402 18.166 2.0602 18.166 1.60638 18.166C1.15256 18.166 0.698739 18.166 0.244919 18.166C0.244919 18.1012 0.244919 18.0365 0.244919 17.9718C0.244919 17.648 0.244919 17.2596 0.244919 16.9359C0.244919 16.6769 0.244919 16.4179 0.244919 16.2237C0.244919 15.7705 0.30975 15.382 0.30975 15.0583C0.244919 13.8282 0.30975 13.5045 0.30975 13.5045Z" fill="#B2907C"/>
<path d="M0.30975 34.0929C0.374582 34.0929 0.374582 34.4166 0.439413 35.064C0.439413 35.3877 0.439413 35.7762 0.504245 36.2294C0.504245 36.6179 0.504245 37.1358 0.569076 37.6538C0.569076 37.6538 0.569076 37.7185 0.569076 37.7832C0.698739 37.7832 0.828402 37.7832 0.958065 37.7832C1.15256 37.7832 1.28222 37.7832 1.47672 37.7832C1.93054 37.7832 2.38436 37.7185 2.90301 37.7832C3.42166 37.848 3.94031 37.589 4.5238 37.7832C5.10728 37.848 5.69076 37.7832 6.27425 37.7832C6.92256 37.7185 7.50605 37.848 8.21919 37.7832C8.86751 37.589 9.58065 37.9775 10.2938 37.7832C11.0069 37.7185 11.7849 37.7185 12.4981 37.7832C13.276 37.9127 14.054 37.7832 14.832 37.7832C15.61 37.9775 16.4528 37.848 17.2956 37.7832C18.1384 38.0422 19.046 37.9775 19.8889 37.7832C20.7965 37.7832 21.7041 37.848 22.6118 37.7832C23.5194 37.7832 24.4919 37.7185 25.4644 37.7832C26.4368 37.6538 27.4093 37.6538 28.4466 37.7832C29.4191 37.589 30.4564 37.6538 31.4937 37.7832C32.531 37.848 33.5683 37.6538 34.6056 37.7832C35.6429 37.7832 36.745 37.7185 37.8472 37.7832C38.9493 37.848 40.0515 37.9127 41.1536 37.7832C42.2557 37.7185 43.4227 37.6538 44.5248 37.7832C45.6918 37.589 46.7939 37.6538 47.9609 37.7832C49.1279 37.7832 50.2948 37.848 51.4618 37.7832C52.0453 37.7832 52.6288 37.7832 53.2122 37.7832C53.5364 37.7832 53.7957 37.7832 54.1199 37.7832H54.3792V37.4595C54.3792 37.1358 54.3792 36.8768 54.3792 36.5531C54.3792 36.2294 54.3792 35.9704 54.3792 35.6467C54.3792 35.5172 54.3792 35.323 54.3792 35.1935H54.1199C53.8606 35.1935 53.6012 35.1935 53.2771 35.1935C52.7584 35.1935 52.1749 35.1288 51.6563 35.1935C50.4893 34.9993 49.3224 35.2582 48.2202 35.1935C47.0533 35.1935 45.9511 35.1288 44.849 35.1935C43.7468 35.1935 42.6447 35.2582 41.5426 35.1935C40.4404 35.4525 39.4031 35.1288 38.301 35.1935C37.2637 35.064 36.1616 35.1935 35.1891 35.1935C34.1518 35.2582 33.1145 35.064 32.142 35.1935C31.1695 35.1935 30.1322 35.2582 29.1598 35.1935C28.1873 35.323 27.2148 35.064 26.3072 35.1935C25.3995 35.1935 24.4919 35.1935 23.5843 35.1935C22.6766 34.9993 21.8338 35.1288 20.991 35.1935C20.1482 35.1935 19.3054 35.323 18.5274 35.1935C17.7494 35.1935 16.9066 35.064 16.1935 35.1935C15.4155 35.1935 14.7023 34.8698 13.9892 35.1935C13.276 35.2582 12.5629 34.9993 11.9146 35.1935C11.2663 35.3877 10.618 35.1935 9.96964 35.1935C9.32133 35.1935 8.73784 35.1935 8.21919 35.1935C5.69076 35.1288 3.68099 35.1288 2.31953 35.064C1.08773 34.2224 0.30975 34.1576 0.30975 34.0929C0.30975 34.0281 1.21739 33.9634 2.90301 33.8986C4.58863 33.8339 7.05223 33.7691 10.0993 33.7691C10.7476 33.7691 11.3311 33.6397 12.0442 33.7691C12.6926 33.7691 13.4057 33.6397 14.1189 33.7691C14.832 33.5749 15.61 33.7044 16.3231 33.7691C17.1011 33.7691 17.8791 33.8339 18.6571 33.7691C19.435 33.6397 20.2778 33.8339 21.1207 33.7691C21.9635 33.8986 22.8711 33.8339 23.7139 33.7691C24.6216 33.8986 25.5292 33.7691 26.4368 33.7691C27.3445 33.9634 28.317 33.8339 29.2894 33.7691C30.2619 33.7044 31.2344 33.7691 32.2717 33.7691C33.2441 33.8339 34.2814 33.7044 35.3188 33.7691C36.3561 33.7044 37.3934 33.6397 38.4307 33.7691C39.468 33.7044 40.5701 33.7691 41.6722 33.7691C42.7744 33.7044 43.8765 33.7691 44.9786 33.7691C46.0808 33.7044 47.2477 33.9634 48.3499 33.7691C49.5169 33.7691 50.619 33.7691 51.786 33.7691C52.3046 33.7691 52.8881 33.7691 53.4067 33.7691C53.6661 33.7691 53.9254 33.7691 54.2495 33.7691C54.7034 33.7691 55.1572 33.7691 55.6758 33.7691C55.6758 33.8986 55.6758 34.0929 55.6758 34.2224C55.6758 34.3518 55.6758 34.4813 55.6758 34.6756V35.064C55.6758 35.1935 55.6758 35.3877 55.6758 35.5172C55.6758 35.8409 55.6758 36.0999 55.6758 36.4236C55.6758 36.7473 55.6758 37.0063 55.7407 37.33V37.9127C55.7407 38.1717 55.7407 38.4954 55.7407 38.7544C55.222 38.7544 54.7682 38.7544 54.2495 38.7544C53.9254 38.7544 53.6661 38.7544 53.3419 38.7544C52.7584 38.7544 52.1749 38.7544 51.5915 38.7544C50.4245 38.7544 49.2575 38.7544 48.0906 38.7544C46.9236 38.8191 45.7566 38.6896 44.6545 38.7544C43.4875 38.8191 42.3854 38.6896 41.2832 38.7544C40.1811 38.8191 39.079 38.8191 37.9768 38.7544C36.8747 38.7544 35.8374 38.5602 34.7353 38.7544C33.698 38.8191 32.5958 39.0134 31.6234 38.7544C30.5861 38.8191 29.5488 38.6249 28.5763 38.7544C27.6038 38.5602 26.5665 38.7544 25.594 38.7544C24.6216 38.6896 23.6491 38.6249 22.7414 38.7544C21.8338 38.8191 20.9262 38.6896 20.0185 38.7544C19.1109 38.8839 18.2681 38.6249 17.4253 38.7544C16.5825 38.7544 15.7396 38.7544 14.9617 38.7544C14.1837 39.0134 13.3409 38.7544 12.6277 38.7544C11.8498 38.6896 11.1366 38.9486 10.4235 38.7544C9.71032 38.9486 8.99717 38.7544 8.34886 38.7544C7.70054 38.6896 7.05223 38.8191 6.40391 38.7544C5.7556 38.8839 5.17211 38.6896 4.65346 38.7544C4.06998 38.6896 3.55132 38.7544 3.03267 38.7544C2.51402 38.7544 2.0602 38.7544 1.60638 38.7544C1.15256 38.7544 0.698739 38.7544 0.244919 38.7544C0.244919 38.6896 0.244919 38.6249 0.244919 38.5602C0.244919 38.2364 0.244919 37.848 0.244919 37.5243C0.244919 37.2653 0.244919 37.0063 0.244919 36.8121C0.244919 36.3589 0.30975 35.9704 0.30975 35.6467C0.244919 34.4166 0.30975 34.0929 0.30975 34.0929Z" fill="#B2907C"/>
<path d="M24.9457 21.2737C25.0105 21.2737 25.0754 21.6621 25.1402 22.3096C25.1402 22.4391 25.1402 22.5038 25.1402 22.6333C25.1402 22.698 25.1402 22.7628 25.1402 22.8275C25.1402 22.8923 25.1402 22.8923 25.1402 22.957C25.1402 23.0217 25.1402 23.0217 25.1402 23.0865C25.0754 23.1512 25.1402 23.2807 25.205 23.4102C25.2699 23.5397 25.2699 23.6692 25.205 23.7339C25.205 23.7987 25.205 23.8634 25.205 23.8634C25.0105 23.8634 24.8809 23.8634 24.6864 23.9282C24.5567 23.9282 24.4271 23.9282 24.2974 23.9282C24.2326 23.9282 24.1677 23.9282 24.1677 23.9282C24.1029 23.9282 24.1029 23.9282 24.0381 23.9929C23.8436 24.1871 23.6491 23.7987 23.4546 23.9929C23.3898 23.9929 23.3249 23.9929 23.3249 23.9929H23.2601C23.1953 23.9929 23.1953 23.9929 23.1304 23.9929C23.0656 23.9282 23.0008 23.9282 23.0008 23.9282C23.0008 23.9929 23.0656 24.1224 23.0656 24.1871C23.0008 24.1871 23.0008 24.1871 23.0008 24.2519C23.0008 24.2519 23.0008 24.2519 23.0008 24.3166V24.3814C23.0008 24.5108 23.0656 24.6403 23.1304 24.7051C22.8711 24.964 22.9359 25.1583 23.1304 25.4172C23.1304 25.6762 23.0656 25.9352 23.1304 26.1942V26.3884C23.1304 26.3884 23.1304 26.4531 23.1304 26.5179C23.1304 26.5179 23.1304 26.5179 23.1953 26.5179C23.2601 26.4531 23.3249 26.4531 23.3249 26.4531C23.3249 26.4531 23.3249 26.5179 23.3898 26.5179C23.6491 26.3237 23.9732 26.3884 24.2326 26.5179C24.2326 26.5179 24.2326 26.5179 24.2974 26.5179H24.3622C24.4271 26.5179 24.4919 26.5179 24.4919 26.5179C24.6216 26.5179 24.6864 26.5179 24.8161 26.5179C25.0754 26.5179 25.3347 26.4531 25.5292 26.4531C25.5292 26.5179 25.5292 26.6474 25.4644 26.7121C25.4644 26.9711 25.4644 27.2301 25.4644 27.489C25.4644 27.6185 25.4644 27.6833 25.4644 27.8128C25.4644 27.8775 25.4644 27.9422 25.4644 28.007C25.3995 28.1365 25.3995 28.3307 25.3995 28.4602C25.3995 28.5249 25.3995 28.5249 25.3995 28.5897C25.3995 28.6544 25.3995 28.6544 25.3995 28.6544L25.4644 28.7192H25.5292C25.5292 28.7192 25.5292 28.7192 25.594 28.7839V28.7192H25.6589C25.7237 28.7192 25.7885 28.7192 25.9182 28.7192C26.0478 28.7192 26.2423 28.7839 26.372 28.8487C26.6962 28.8487 27.0203 28.9134 27.3445 28.8487C27.4093 28.8487 27.4741 28.8487 27.6038 28.8487H27.6686C27.6686 28.8487 27.6686 28.8487 27.7335 28.8487C27.7335 28.8487 27.7983 28.8486 27.7983 28.7839V28.7192C27.7983 28.6544 27.7983 28.5249 27.7335 28.4602C27.6686 28.266 27.6686 28.1365 27.7335 27.9422V27.6185C27.7335 27.489 27.7335 27.2948 27.7335 27.1653C27.7983 26.9711 27.7983 26.7769 27.7983 26.5179C27.928 26.5179 28.1225 26.4531 28.317 26.4531C28.5114 26.4531 28.6411 26.4531 28.8356 26.4531H29.0301C29.0949 26.4531 29.0949 26.4531 29.1598 26.4531C29.2246 26.4531 29.2894 26.4531 29.4191 26.4531C29.5488 26.4531 29.7432 26.4531 29.8729 26.4531C30.0674 26.4531 30.0026 26.4531 30.0674 26.3884C30.0674 26.3884 30.0674 26.3884 30.1322 26.3884C30.0674 26.3237 30.0674 26.3237 30.0026 26.3237C30.0026 26.3237 30.0026 26.3237 30.0674 26.3237C30.0674 26.3237 30.0674 26.3237 30.0674 26.2589V26.1942C30.0674 26.1294 30.0674 26.0647 30.0674 25.9999C30.1971 25.6762 30.0674 25.4173 30.0674 25.1583C30.0026 24.8993 30.1971 24.5756 30.0674 24.3166V24.2519C30.0674 24.2519 30.0674 24.2519 30.0674 24.1871V24.1224C30.0026 24.1871 30.0026 24.1871 29.9377 24.1224C29.9377 24.1224 29.9377 24.0576 29.8729 24.0576C29.8081 24.0576 29.7432 24.0576 29.6784 24.0576C29.4191 24.0576 29.1598 24.0576 28.9004 24.0576C28.9004 24.0576 28.9004 24.0576 28.8356 23.9929H28.7708C28.7059 23.9929 28.7059 23.9929 28.6411 23.9929C28.5763 23.9929 28.4466 23.9929 28.3818 23.9929C28.1873 23.9929 27.9928 24.0576 27.7983 24.0576C27.7983 23.8634 27.7983 23.6692 27.7983 23.4749C27.7983 23.4102 27.7983 23.2807 27.7983 23.216C27.7983 23.1512 27.7983 23.0865 27.7983 23.0865V22.957C27.7983 22.7628 27.928 22.5038 27.7983 22.3096C27.7983 22.1801 27.8631 22.1153 27.928 21.9859C27.9928 21.9211 27.9928 21.8564 27.8631 21.8564C27.8631 21.8564 27.8631 21.7916 27.8631 21.7269C27.8631 21.6621 27.928 21.5974 27.928 21.5974C27.928 21.5974 27.8631 21.5974 27.7983 21.6621C27.6686 21.7269 27.6686 21.7269 27.6686 21.7269C27.6686 21.7269 27.6686 21.7269 27.6038 21.6621H27.539C27.3445 21.6621 27.2148 21.6621 27.0203 21.6621C25.7885 21.4679 24.9457 21.3384 24.9457 21.2737C24.9457 21.1442 25.9182 21.0147 27.6686 20.95C27.8631 20.95 28.2521 20.8205 28.4466 20.95C28.5763 20.95 28.6411 20.95 28.7708 20.95C28.7708 21.1442 28.8356 21.3384 28.7708 21.5326C28.8356 21.6621 28.9004 21.8564 28.8356 21.9859C28.8356 22.1153 28.7708 22.1801 28.7708 22.3096C28.7708 22.5038 28.7059 22.7628 28.7708 22.957V23.0217C28.7708 23.0865 28.7059 23.1512 28.7708 23.1512C28.7708 23.216 28.7708 23.216 28.8356 23.216H28.9004C28.9004 23.216 28.9004 23.216 28.9653 23.216C28.9653 23.216 28.9653 23.216 29.0301 23.216C29.2894 23.3455 29.5487 23.216 29.8081 23.216C29.8729 23.2807 29.9377 23.2807 30.0026 23.2807C30.1322 23.2807 30.1971 23.2807 30.3267 23.2807C30.5212 23.2807 30.7806 23.216 31.0399 23.1512C31.1047 23.1512 31.1695 23.1512 31.1695 23.1512C31.1695 23.3455 31.1695 23.6044 31.1695 23.7987C31.1695 23.9282 31.1695 23.9929 31.1695 24.1224C31.1695 24.1871 31.1695 24.2519 31.1695 24.3166V24.4461C31.1047 24.7051 31.2344 25.0288 31.1695 25.2878C31.2344 25.5467 31.2992 25.8705 31.1695 26.1294C31.1695 26.1942 31.1695 26.2589 31.1695 26.3237V26.6474C31.1695 26.9063 31.1695 27.1653 31.1695 27.489C31.1695 27.5538 31.1695 27.6185 31.1695 27.6833C30.9102 27.6833 30.6509 27.6833 30.3916 27.6833C30.1322 27.6833 29.8081 27.6833 29.7432 27.6833C29.6136 27.6833 29.4191 27.6833 29.2894 27.6185C29.2246 27.6185 29.1598 27.6185 29.0301 27.6185C28.9653 27.6185 28.9653 27.6185 28.9004 27.6185H28.8356V27.8775C28.8356 28.007 28.8356 28.2012 28.8356 28.3954C28.7708 28.4602 28.7708 28.5249 28.7708 28.6544V28.7192C28.7708 28.7192 28.7708 28.7839 28.7708 28.8487C28.7708 28.9134 28.7708 28.9781 28.7708 29.0429C28.7708 29.3019 28.8356 29.6256 28.9004 30.014C28.6411 30.014 28.317 30.0788 27.9928 30.014H27.2796C26.9555 30.014 26.6313 30.014 26.3072 30.014C26.1775 30.014 25.983 30.014 25.8534 30.014C25.7885 30.014 25.7237 30.014 25.594 30.014H25.4644C25.3995 30.014 25.3347 30.014 25.2699 30.014C24.9457 30.0788 24.6216 30.014 24.2974 30.014C24.2974 29.7551 24.2974 29.4961 24.2974 29.2371C24.2974 29.1076 24.2974 28.9781 24.2326 28.7839C24.2326 28.7192 24.2326 28.6544 24.2326 28.6544C24.2326 28.5897 24.2326 28.5897 24.2326 28.5249C24.2326 28.3954 24.2326 28.2012 24.2974 28.0717C24.2974 28.007 24.2974 27.9422 24.2974 27.8775V27.748C24.2974 27.6833 24.2974 27.6185 24.2326 27.6833C24.1677 27.6833 24.1677 27.748 24.1677 27.748C24.1677 27.748 24.1677 27.748 24.1677 27.6833C24.1677 27.6833 24.1677 27.6833 24.1029 27.6185C23.8436 27.6833 23.5194 27.489 23.2601 27.6185C22.9359 27.4243 22.4821 27.5538 22.0283 27.6185C22.0283 27.5538 22.0283 27.5538 22.0283 27.489C22.0283 27.2301 22.0931 26.9711 22.0931 26.7769C22.0931 26.6474 22.0931 26.5826 22.0931 26.4531V26.3237C22.0283 26.0647 22.158 25.8057 22.0931 25.5467C21.9635 25.2878 22.2228 25.0935 22.0931 24.8346C22.0931 24.7051 22.0931 24.5756 22.0931 24.5108V24.3166C22.0931 24.2519 22.0931 24.1224 22.0931 24.0576C22.0283 23.9282 21.9635 23.7339 21.9635 23.6692C21.9635 23.5397 21.9635 23.4102 22.0283 23.3455C22.2228 23.4102 22.3525 23.4102 22.4821 23.4102C22.6766 23.4102 22.8063 23.4102 23.0008 23.3455C23.0656 23.3455 23.0656 23.3455 23.1304 23.3455C23.1953 23.3455 23.1953 23.3455 23.2601 23.3455C23.3249 23.3455 23.3898 23.4102 23.3898 23.4102C23.5843 23.216 23.7787 23.4102 23.9732 23.4102C24.0381 23.4102 24.0381 23.4102 24.1029 23.4102C24.1677 23.4102 24.2326 23.4102 24.2326 23.4102C24.2974 23.4102 24.2974 23.4102 24.3622 23.4749C24.3622 23.4102 24.3622 23.4102 24.4271 23.4102C24.4919 23.4102 24.4919 23.4749 24.5567 23.4749C24.5567 23.4749 24.5567 23.4749 24.5567 23.4102C24.6216 23.4102 24.6216 23.3455 24.6216 23.2807C24.6216 23.216 24.6216 23.216 24.6216 23.1512V23.0865C24.6216 23.0865 24.6216 23.0217 24.6216 22.957C24.6216 22.8923 24.6216 22.8275 24.6864 22.7628C24.6864 22.6333 24.6864 22.5038 24.6864 22.4391C24.8161 21.5974 24.8809 21.2737 24.9457 21.2737Z" fill="#B2907C"/>
<path d="M26.6962 18.8134C26.6962 18.8782 26.5665 18.8782 26.372 18.9429C26.2423 18.9429 26.1127 19.0077 25.983 19.0077C25.8534 19.0724 25.6589 19.0724 25.4644 19.1371C25.3347 19.2019 25.205 19.2019 25.0754 19.2666C25.0105 19.2666 24.9457 19.3314 24.8809 19.3314C24.8161 19.3961 24.7512 19.3961 24.6216 19.3961C24.4271 19.3961 24.3622 19.6551 24.1029 19.5903C24.0381 19.5903 23.9084 19.6551 23.8436 19.7198C23.7787 19.7846 23.7787 19.8493 23.7139 19.8493C23.6491 19.9141 23.6491 19.9141 23.5843 19.9788C23.4546 20.1083 23.1953 20.1083 23.0656 20.3673C23.0008 20.4968 22.9359 20.5615 22.8063 20.5615C22.6766 20.6262 22.5469 20.6262 22.5469 20.8205C22.4821 20.95 22.4173 21.0147 22.2876 21.0794C22.2228 21.1442 22.0931 21.2737 22.0283 21.3384C21.8986 21.4032 21.8338 21.4679 21.769 21.5974C21.7041 21.7269 21.6393 21.8564 21.5745 21.9858C21.3152 22.1153 21.1855 22.3743 21.1855 22.698C21.1207 22.7628 21.0558 22.7628 20.991 22.8275C20.9262 22.8923 20.8613 22.957 20.8613 23.0217C20.7965 23.1512 20.7965 23.3455 20.8613 23.4749C20.8613 23.5397 20.7965 23.6044 20.7965 23.6692C20.7965 23.7339 20.7317 23.7987 20.7317 23.8634C20.7317 23.9282 20.6668 23.9929 20.6668 24.0576C20.6668 24.1224 20.6668 24.1871 20.6668 24.3166C20.6668 24.4461 20.6668 24.6403 20.6668 24.7698C20.6668 24.8993 20.6668 25.0935 20.602 25.223C20.602 25.2878 20.6668 25.3525 20.6668 25.482C20.6668 25.5467 20.7317 25.6115 20.7317 25.741C20.7317 25.8057 20.7317 25.8705 20.7317 25.9999C20.7317 26.0647 20.7317 26.1294 20.6668 26.2589C20.7317 26.3237 20.7317 26.3884 20.7965 26.4531C20.7965 26.5179 20.7965 26.5179 20.8613 26.5826C20.8613 26.6474 20.8613 26.6474 20.8613 26.7121C20.9262 26.8416 20.9262 27.0358 20.9262 27.2301C20.9262 27.4243 21.0558 27.5538 21.1207 27.6833C21.1855 27.8128 21.3152 27.9422 21.3152 28.1365L21.38 28.266C21.38 28.3307 21.4448 28.3307 21.4448 28.3954C21.5096 28.4602 21.5096 28.5249 21.5745 28.5897C21.6393 28.6544 21.6393 28.7192 21.7041 28.7839C21.769 28.8486 21.8338 28.9134 21.8338 28.9781C21.8986 29.0429 21.8986 29.1076 21.9635 29.2371C22.0283 29.3019 22.0931 29.3666 22.0931 29.4313C22.158 29.4961 22.2228 29.5608 22.2876 29.6256C22.3525 29.6903 22.4173 29.6903 22.5469 29.7551C22.6766 29.8845 22.8063 29.9493 23.0008 30.0788C23.1304 30.2083 23.2601 30.273 23.3898 30.4025C23.7787 30.4672 24.0381 30.6615 24.3622 30.9204C24.4271 30.9204 24.5567 30.9852 24.6216 30.9852C24.6864 31.0499 24.8161 31.0499 24.8809 31.1147C25.0754 31.1794 25.2699 31.2442 25.3995 31.2442C25.594 31.3089 25.7885 31.3089 25.983 31.3089C26.1775 31.3089 26.372 31.3089 26.5665 31.3736C26.761 31.3736 26.9555 31.4384 27.15 31.3736C27.3445 31.3736 27.539 31.3089 27.6686 31.2442H27.7983C27.8631 31.2442 27.8631 31.1794 27.928 31.1794C27.9928 31.1794 28.1225 31.1147 28.1873 31.1147C28.2521 31.1147 28.3818 31.0499 28.4466 31.0499C28.5114 31.0499 28.6411 30.9852 28.7059 30.9852C28.7708 30.9852 28.8356 30.9852 28.8356 30.9852C28.9004 30.9852 28.9004 30.9852 28.9653 30.9204C29.0301 30.8557 29.1598 30.8557 29.2246 30.791L29.4839 30.6615C29.5487 30.5967 29.6136 30.532 29.7432 30.532C29.8729 30.4672 30.0674 30.3377 30.1971 30.273C30.2619 30.2083 30.3267 30.2083 30.3916 30.1435C30.4564 30.0788 30.5212 30.014 30.5861 29.9493C30.6509 29.8845 30.7157 29.8198 30.7805 29.7551C30.8454 29.6903 30.9102 29.6256 30.975 29.5608C31.0399 29.4961 31.1047 29.4313 31.1695 29.3666C31.2344 29.3019 31.2992 29.2371 31.364 29.1724C31.364 28.9781 31.4937 28.8486 31.6234 28.7192C31.6882 28.6544 31.753 28.5897 31.8179 28.5249C31.8179 28.5249 31.8827 28.4602 31.8827 28.3954C31.8827 28.3307 31.9475 28.3307 31.9475 28.266C32.0772 28.1365 32.142 28.007 32.2068 27.8128C32.2717 27.6185 32.2717 27.489 32.3365 27.3595C32.3365 27.1653 32.4013 27.0358 32.4662 26.9063C32.4662 26.8416 32.4662 26.8416 32.531 26.7769C32.531 26.7121 32.531 26.7121 32.531 26.6474C32.531 26.5826 32.531 26.5179 32.531 26.3884C32.531 26.3237 32.531 26.2589 32.5958 26.1294C32.5958 26.0647 32.5958 25.9999 32.5958 25.8705C32.5958 25.8057 32.5958 25.741 32.5958 25.6115C32.5958 25.5467 32.5958 25.482 32.6607 25.3525C32.5958 25.223 32.5958 25.0288 32.6607 24.8993C32.6607 24.8346 32.6607 24.7698 32.6607 24.6403C32.6607 24.5756 32.6607 24.5108 32.5958 24.4461C32.5958 24.3814 32.5958 24.3166 32.531 24.2519C32.531 24.1871 32.4662 24.1224 32.4662 24.0576C32.4013 23.9282 32.4013 23.7987 32.4013 23.6044C32.4662 23.4102 32.4013 23.2807 32.3365 23.1512L32.2717 23.0865L32.2068 22.8275C32.142 22.7628 32.142 22.698 32.0772 22.6333C32.0123 22.3743 31.6882 22.2448 31.6882 21.9211C31.6234 21.7916 31.5585 21.6621 31.4937 21.5974C31.4289 21.4679 31.364 21.4032 31.2344 21.3384C31.1695 21.2737 31.1047 21.1442 31.0399 21.0147C31.0399 20.95 30.975 20.8852 30.9102 20.8852C30.8454 20.8205 30.7806 20.8205 30.7157 20.8205C30.5861 20.7557 30.5861 20.6262 30.5212 20.5615C30.4564 20.4968 30.3916 20.3673 30.1971 20.3673C29.9377 20.3673 29.8729 20.1083 29.6784 19.9788C29.6136 19.9788 29.6136 19.9141 29.5488 19.9141C29.4839 19.9141 29.4839 19.8493 29.4191 19.8493C29.3543 19.7846 29.2246 19.7846 29.1598 19.7198C28.3818 19.3314 27.7335 19.1371 27.2796 19.0724C26.9555 18.9429 26.6962 18.8782 26.6962 18.8134C26.6962 18.8134 26.761 18.7487 26.9555 18.7487C27.0203 18.7487 27.15 18.7487 27.2148 18.7487C27.2796 18.7487 27.3445 18.7487 27.4093 18.7487C27.4741 18.7487 27.539 18.7487 27.6038 18.7487C28.1873 18.7487 29.0949 18.9429 30.0674 19.4609C30.2619 19.5903 30.5212 19.5903 30.6509 19.8493C30.7805 19.9141 30.8454 19.9788 30.975 20.0435C31.1047 20.1083 31.1695 20.173 31.2344 20.3025C31.2992 20.3025 31.364 20.3673 31.4289 20.3673C31.4937 20.432 31.5585 20.432 31.5585 20.4968C31.6234 20.6262 31.6882 20.7557 31.8179 20.8205C31.9475 20.95 32.0123 21.0147 32.0772 21.1442C32.142 21.2737 32.2717 21.4032 32.3365 21.4679C32.5958 21.6621 32.5958 21.9858 32.7903 22.2448C32.7903 22.3096 32.7903 22.4391 32.8552 22.5038C32.8552 22.5685 32.8552 22.5685 32.92 22.6333C32.92 22.698 32.92 22.698 32.9848 22.7628C33.0497 22.8923 33.1145 23.0217 33.2441 23.216C33.2441 23.4102 33.309 23.5397 33.3738 23.7339C33.3738 23.7987 33.4386 23.8634 33.4386 23.9929C33.4386 24.0576 33.5035 24.1871 33.5035 24.2519C33.5035 24.3166 33.4386 24.4461 33.4386 24.5108C33.4386 24.5756 33.4386 24.7051 33.4386 24.7698C33.4386 24.964 33.5035 25.0935 33.5683 25.2878C33.5683 25.3525 33.5683 25.482 33.5683 25.5467C33.5683 25.6115 33.5683 25.741 33.5683 25.8057C33.5683 25.8705 33.5683 25.9999 33.5683 26.0647C33.5683 26.1294 33.5683 26.2589 33.5683 26.3237C33.5683 26.3884 33.5035 26.5179 33.5035 26.5826V26.8416C33.4386 27.0358 33.4386 27.2301 33.3738 27.4243C33.3738 27.6185 33.309 27.8128 33.2441 28.007C33.1793 28.2012 33.0497 28.3954 32.92 28.5249C32.92 28.5897 32.8552 28.5897 32.8552 28.6544C32.8552 28.7192 32.7903 28.7192 32.7903 28.7839C32.7255 28.8486 32.6607 28.9781 32.6607 29.0429C32.531 29.2371 32.4013 29.3666 32.2717 29.5608C32.2068 29.6256 32.142 29.7551 32.0772 29.8198C32.0123 29.8845 31.9475 29.9493 31.8827 30.0788C31.8179 30.1435 31.753 30.2083 31.6882 30.273C31.6234 30.3377 31.5585 30.4025 31.4289 30.4672C31.364 30.532 31.2992 30.5967 31.1695 30.6615C31.1047 30.7262 30.975 30.791 30.9102 30.791C30.7157 30.9204 30.5861 31.0499 30.3916 31.1794C30.0674 31.4384 29.6136 31.5679 29.2246 31.7621C29.0949 31.8268 29.0301 31.8268 28.9004 31.8916C28.7708 31.8916 28.7059 31.9563 28.5763 31.9563C28.4466 31.9563 28.3818 32.0211 28.2521 32.0211L28.1873 32.1506H28.0576C27.7983 32.0858 27.6038 32.0858 27.4093 32.1506C27.2148 32.1506 26.9555 32.2153 26.761 32.28C26.5665 32.28 26.3072 32.28 26.1127 32.28C25.9182 32.28 25.6589 32.2153 25.4644 32.1506C25.2699 32.1506 25.0105 32.0858 24.8161 32.0211C24.6864 32.0211 24.6216 31.9563 24.4919 31.8916C24.3622 31.8268 24.2974 31.8268 24.1677 31.7621C24.1029 31.7621 24.0381 31.7621 24.0381 31.6974C23.9732 31.6974 23.9084 31.6326 23.9084 31.6326C23.8436 31.5679 23.7139 31.5031 23.6491 31.5031H23.3249C23.2601 31.5031 23.2601 31.4384 23.1953 31.4384C23.1304 31.3736 23.0008 31.3089 22.9359 31.3089C22.7414 31.2442 22.547 31.0499 22.4173 30.9204C22.2228 30.7909 22.0931 30.5967 21.9635 30.532C21.8986 30.4672 21.769 30.4025 21.7041 30.3377C21.6393 30.273 21.5745 30.2083 21.5096 30.1435C21.4448 30.0788 21.38 30.014 21.3152 29.8845C21.2503 29.8198 21.1855 29.6903 21.1855 29.6256C21.1207 29.5608 21.0558 29.4313 20.991 29.3666C20.9262 29.3019 20.9262 29.1724 20.8613 29.1076C20.7965 29.0429 20.7965 28.9134 20.7317 28.8486C20.7317 28.7839 20.6668 28.7839 20.6668 28.7192C20.6668 28.6544 20.602 28.6544 20.5372 28.5897C20.4075 28.3954 20.2778 28.266 20.213 28.0717C20.1482 27.8775 20.0834 27.6833 20.1482 27.489C20.0834 27.2948 20.0185 27.1006 20.0185 26.9063C20.0185 26.8416 20.0185 26.8416 20.0185 26.7769C20.0185 26.7121 20.0185 26.7121 20.0185 26.6474C20.0185 26.5826 19.9537 26.4531 19.9537 26.3884C20.0185 26.2589 20.0185 26.1942 20.0185 26.1294C20.0185 26.0647 20.0185 25.9352 20.0185 25.8705C20.0185 25.8057 19.9537 25.6762 19.9537 25.6115C19.9537 25.5467 19.8889 25.4172 19.9537 25.3525C19.9537 25.1583 20.0185 24.964 20.0185 24.8346C20.0185 24.6403 20.0834 24.5108 20.0834 24.3166C20.0834 24.2519 20.0834 24.1224 20.0834 24.0576C20.0834 23.9929 20.1482 23.8634 20.1482 23.7987C20.1482 23.7339 20.213 23.6692 20.213 23.5397C20.213 23.4749 20.2778 23.4102 20.2778 23.2807C20.2778 23.0865 20.3427 22.957 20.4723 22.8275C20.5372 22.7628 20.5372 22.698 20.602 22.6333C20.6668 22.5685 20.6668 22.5038 20.6668 22.3743C20.7965 22.1153 20.9262 21.7916 21.1207 21.5974C21.1207 21.4032 21.1855 21.2737 21.3152 21.2089C21.4448 21.0794 21.5745 21.0147 21.7041 20.95C21.8338 20.8852 21.8986 20.7557 21.9635 20.6262C22.0283 20.4968 22.158 20.432 22.2876 20.432C22.3525 20.3025 22.4173 20.173 22.5469 20.1083C22.6766 20.0435 22.8063 20.0435 22.9359 19.9788C23.1304 19.8493 23.3249 19.6551 23.5194 19.5903C23.5194 19.5256 23.5843 19.4609 23.6491 19.4609C23.7139 19.4609 23.7787 19.3961 23.7787 19.3961C23.9084 19.3961 23.9732 19.3961 24.1029 19.3314C24.2974 19.3314 24.4919 19.2019 24.6864 19.1371C24.7512 19.0724 24.8809 19.0724 24.9457 19.0077C25.0105 19.0077 25.1402 19.0077 25.205 19.0077C25.3347 19.0077 25.5292 18.9429 25.6589 18.9429C25.8534 18.9429 26.0478 18.9429 26.2423 18.8782C26.372 18.8782 26.5665 18.8782 26.6313 18.8782C26.5665 18.7487 26.6962 18.7487 26.6962 18.8134Z" fill="#B2907C"/>
</svg>
