<svg width="59" height="31" viewBox="0 0 59 31" fill="none" xmlns="http://www.w3.org/2000/svg">
<path d="M0.665983 0.526456C0.734094 0.526456 0.734094 1.01234 0.802206 1.9147C0.802206 2.81707 0.870318 4.20531 0.870318 6.01004C0.870318 6.63475 0.870318 7.25946 0.870318 7.95358C0.870318 8.64771 0.93843 9.34183 0.870318 10.1054C0.802206 10.8689 1.07465 11.7019 0.870318 12.5348C0.802206 13.3678 0.870318 14.2701 0.870318 15.1725C0.93843 16.0748 0.802206 17.0466 0.870318 18.0878C1.07465 19.0596 0.665983 20.1702 0.870318 21.2114C0.93843 22.322 0.93843 23.4326 0.870318 24.5431C0.734094 25.7232 0.870318 26.9032 0.870318 28.0832C0.802206 28.3608 0.802206 28.7079 0.802206 28.9855C0.802206 29.1244 0.802206 29.1938 0.802206 29.3326C0.802206 29.402 0.802206 29.4714 0.802206 29.5408C0.870318 29.5408 0.93843 29.5408 1.07465 29.5408H1.41521C1.75577 29.5408 2.02822 29.4714 2.36878 29.4714C3.59479 29.7491 4.88892 29.6797 6.25115 29.4714C7.54528 29.4714 8.90752 29.5408 10.2698 29.4714C11.632 29.4714 13.0623 29.402 14.4927 29.4714C15.923 29.3326 17.3534 29.3326 18.8518 29.4714C20.3503 29.2632 21.8488 29.3326 23.3472 29.4714C24.8457 29.5408 26.4123 29.3326 27.9788 29.4714C29.5454 29.4714 31.112 29.402 32.7467 29.4714C34.3813 29.5408 36.016 29.6103 37.6507 29.4714C39.2854 29.402 40.9882 29.402 42.6229 29.4714C44.3257 29.2632 46.0285 29.3326 47.7313 29.4714C49.4341 29.4714 51.205 29.5408 52.9078 29.4714C53.7932 29.4714 54.6787 29.4714 55.5641 29.4714C55.9728 29.4714 56.4496 29.4714 56.8583 29.4714H57.5394V29.402C57.5394 29.1938 57.5394 28.9855 57.5394 28.7773C57.5394 28.3608 57.5394 27.8749 57.5394 27.4585C57.5394 26.5561 57.5394 25.6538 57.4713 24.7514C57.335 22.9467 57.5394 21.2114 57.4713 19.476C57.6756 17.7407 57.4032 16.0054 57.4713 14.2701C57.4713 12.5348 57.6075 10.8689 57.4713 9.20301C57.4713 7.53711 57.4032 5.87121 57.4713 4.20531C57.4032 3.5806 57.335 3.0253 57.4032 2.40059C57.4032 2.12294 57.4032 1.84529 57.4713 1.49823V1.28999C57.4713 1.28999 57.4032 1.28999 57.335 1.28999C57.1988 1.28999 57.1307 1.28999 56.9945 1.28999C55.4279 1.15117 53.8613 1.28999 52.3629 1.28999C50.8644 1.3594 49.366 1.15117 47.8675 1.28999C46.369 1.28999 44.9387 1.3594 43.5083 1.28999C42.078 1.42882 40.7157 1.15117 39.2854 1.28999C37.9232 1.28999 36.5609 1.28999 35.2668 1.28999C33.9727 1.08175 32.6786 1.22058 31.3844 1.28999C30.1584 1.28999 28.9324 1.42882 27.7064 1.28999C26.4804 1.28999 25.3225 1.15117 24.2327 1.28999C23.0748 1.28999 21.985 0.94293 20.9633 1.28999C19.8735 1.3594 18.8518 1.08175 17.8983 1.28999C16.9447 1.49823 15.9911 1.28999 15.0376 1.28999C14.1521 1.28999 13.2667 1.28999 12.4493 1.28999C8.77129 0.734693 5.77437 0.734693 3.79913 0.66528C2.77745 0.595868 2.02822 0.595868 1.48332 0.595868C0.93843 0.526456 0.665983 0.526456 0.665983 0.526456C0.665983 0.457043 1.00654 0.457043 1.61955 0.457043C2.23256 0.457043 3.18612 0.387631 4.41213 0.387631C6.93227 0.248806 10.5422 0.179394 15.1057 0.109981C15.9911 0.109981 16.9447 -0.0288437 17.9664 0.109981C18.92 0.109981 20.0097 -0.0288437 21.0314 0.109981C22.1212 -0.0982561 23.211 0.0405687 24.3008 0.109981C25.4587 0.109981 26.6166 0.179394 27.7745 0.109981C29.0005 -0.0288437 30.1584 0.179394 31.4525 0.109981C32.6786 0.248806 33.9727 0.179394 35.3349 0.109981C36.629 0.248806 37.9913 0.109981 39.3535 0.109981C40.7157 0.318218 42.1461 0.179394 43.5764 0.109981C45.0068 0.0405687 46.4371 0.109981 47.9356 0.109981C49.4341 0.179394 50.9325 0.0405687 52.431 0.109981C53.9295 0.0405687 55.496 -0.0288437 57.0626 0.109981H57.7437C58.1524 0.109981 58.5611 0.109981 58.9697 0.109981C58.9697 0.595868 58.9697 1.08175 58.9697 1.63705C58.9697 1.9147 58.9697 2.19235 58.9697 2.53942C58.9697 3.16413 58.9697 3.71943 58.9697 4.34414C59.0378 6.01004 58.9697 7.67593 58.9697 9.34183C59.0378 11.0077 58.7654 12.743 58.9697 14.4089C58.9697 16.1442 58.9697 17.8796 58.9697 19.6149C58.9697 21.3502 58.9016 23.1549 58.9697 24.8902C58.9016 25.7926 58.8335 26.6949 58.9016 27.5973C58.9016 28.0138 58.9016 28.4997 58.9697 28.9161C58.9697 29.1244 58.9697 29.402 58.9697 29.6103C58.9697 30.0267 58.9697 30.4432 58.9697 30.8597C58.2886 30.8597 57.6756 30.8597 56.9945 30.8597C56.5858 30.8597 56.109 30.8597 55.7004 30.8597C54.8149 30.8597 53.9294 30.8597 53.044 30.8597C51.2731 30.8597 49.5703 30.8597 47.8675 30.8597C46.1647 30.9291 44.4619 30.7903 42.7591 30.8597C41.0563 30.9291 39.4216 30.7903 37.7869 30.8597C36.1523 30.9291 34.5176 30.9291 32.8829 30.8597C31.2482 30.8597 29.6816 30.6514 28.1151 30.8597C26.5485 30.9291 24.9819 31.1373 23.4834 30.8597C21.985 30.9291 20.4865 30.7209 18.9881 30.8597C17.4896 30.6514 16.0593 30.8597 14.6289 30.8597C13.1986 30.7903 11.8363 30.7209 10.406 30.8597C9.04374 30.9291 7.6815 30.7903 6.38738 30.8597C5.09325 30.9985 3.79913 30.7209 2.505 30.8597C2.16444 30.8597 1.892 30.8597 1.55144 30.8597C1.07465 30.8597 0.597871 30.8597 0.121088 30.8597C0.121088 30.3738 0.121088 29.8879 0.121088 29.4714C0.121088 29.1938 0.121088 28.8467 0.121088 28.5691C-0.15136 27.3196 0.121088 26.1396 0.121088 25.029C0.1892 23.849 -0.0832478 22.7384 0.121088 21.6972C-0.0832478 20.5866 0.121088 19.5455 0.121088 18.5737C0.1892 17.6019 0.0529759 16.6301 0.121088 15.6584C-0.015136 14.756 0.1892 13.8536 0.121088 13.0207C0.1892 12.1877 0.121088 11.3548 0.121088 10.5913C0.121088 9.82772 0.121088 9.06418 0.121088 8.43947C0.121088 7.74535 0.121088 7.12064 0.121088 6.49592C0.121088 4.6912 0.1892 3.30295 0.257311 2.40059C0.597871 1.01234 0.665983 0.526456 0.665983 0.526456Z" fill="#B2907C"/>
<path d="M29.5454 5.94062C29.5454 6.01004 28.9324 6.07945 27.7745 6.3571C27.7064 6.3571 27.5702 6.42651 27.5021 6.42651C27.4339 6.42651 27.2977 6.49592 27.2296 6.49592C27.1615 6.56534 27.0253 6.56534 26.889 6.63475C26.7528 6.63475 26.6847 6.70416 26.5485 6.77357C26.4123 6.77357 26.3441 6.84299 26.2079 6.9124C26.0717 6.98181 26.0036 7.05122 25.8674 7.05122C25.7311 7.05122 25.5949 7.12064 25.4587 7.19005C25.3225 7.25946 25.2544 7.32887 25.1181 7.4677C24.9819 7.53711 24.8457 7.60652 24.7095 7.67593C24.5732 7.74535 24.437 7.81476 24.3689 7.95358C24.3008 8.09241 24.1646 8.16182 23.9602 8.23123C23.824 8.30065 23.6197 8.37006 23.6197 8.5783C23.4153 8.85595 23.1429 9.06418 22.9386 9.34183C22.598 9.55007 22.4618 9.89713 22.3255 10.2442C21.985 10.4524 21.8488 10.8689 21.7807 11.2854C21.372 11.563 21.2358 11.9795 21.372 12.4654C21.2358 12.8819 21.0314 13.2983 21.0995 13.7148C21.0314 14.1313 21.0314 14.6172 21.0314 15.0337C21.1677 15.5195 21.2358 15.936 21.0995 16.4219C21.372 16.8384 21.372 17.3243 21.4401 17.8101C21.4401 17.949 21.5082 18.0184 21.5082 18.1572C21.5763 18.296 21.6444 18.3654 21.6444 18.5043C21.7807 18.7125 21.9169 18.9207 21.9169 19.1984C22.1212 19.6149 22.4618 20.0313 22.7342 20.4478C23.0067 20.8643 23.2791 21.3502 23.7559 21.5584C24.1646 21.9055 24.5732 22.1137 24.9819 22.5302C25.5268 22.669 25.9355 22.9467 26.4123 23.2243C26.889 23.3631 27.3658 23.7102 27.9788 23.7102C28.5237 23.849 29.0686 23.7796 29.6135 23.849C30.1584 23.9184 30.7033 23.9184 31.2482 23.7102C31.5206 23.5714 31.7931 23.5714 31.9974 23.502C32.1337 23.502 32.2699 23.4326 32.4061 23.4326C32.5423 23.4326 32.6786 23.3631 32.7467 23.2937C32.8829 23.2937 33.0191 23.2243 33.1553 23.2243C33.2234 23.2243 33.2916 23.1549 33.3597 23.1549C33.4278 23.1549 33.4959 23.0855 33.4959 23.0161L33.7683 22.7384C33.9046 22.669 33.9727 22.5996 34.1089 22.5302C34.5176 22.2525 34.9944 21.9749 35.3349 21.5584C35.6755 21.2114 36.016 20.7949 36.3566 20.4478C36.4247 20.1702 36.5609 19.9619 36.6972 19.7537C36.7653 19.6843 36.8334 19.5455 36.9696 19.476C37.0377 19.4066 37.0377 19.4066 37.1058 19.3372C37.1058 19.2678 37.1739 19.1984 37.1739 19.1984C37.5145 18.7819 37.5826 18.296 37.7188 17.8796C37.7869 17.6713 37.855 17.3937 37.9232 17.1854L37.9913 17.0466C37.9913 16.9772 37.9913 16.9078 38.0594 16.9078C38.0594 16.769 38.1275 16.6995 38.0594 16.5607C38.1275 16.0748 38.0594 15.6584 38.1275 15.1725C38.0594 15.0337 38.0594 14.9642 38.0594 14.8254C38.0594 14.6866 38.0594 14.6172 38.0594 14.4784C38.0594 14.3395 38.0594 14.2701 38.0594 14.1313C38.0594 13.9925 38.0594 13.9231 37.9913 13.7842C37.9232 13.3678 37.7869 12.9513 37.7188 12.5348C37.7188 12.396 37.7188 12.3266 37.7188 12.1877C37.7188 12.1183 37.6507 11.9795 37.5826 11.9101C37.5145 11.8407 37.5145 11.7019 37.4464 11.6324C37.3783 11.563 37.3102 11.4936 37.3102 11.3548C37.242 11.1466 37.1058 11.0077 37.0377 10.8689C36.9015 10.7301 36.8334 10.5218 36.7653 10.3136C36.5609 9.96654 36.4247 9.61948 36.1523 9.41125C36.016 9.27242 35.9479 9.1336 35.8798 8.92536C35.8117 8.78653 35.6755 8.64771 35.4711 8.64771C35.3349 8.5783 35.2668 8.37006 35.1306 8.30065C34.9944 8.16182 34.9262 8.023 34.7219 8.023C34.5176 8.023 34.4495 7.88417 34.3132 7.81476C34.177 7.67593 34.1089 7.60652 33.9727 7.53711C33.8365 7.4677 33.7002 7.39828 33.6321 7.32887C33.4959 7.25946 33.3597 7.19005 33.2916 7.12064C32.6104 6.77357 32.1337 6.56534 31.6569 6.42651C31.1801 6.28769 30.8395 6.21827 30.499 6.14886C30.2265 6.07945 29.9541 6.07945 29.7497 6.01004C29.6135 6.01004 29.5454 5.94062 29.5454 5.94062C29.5454 5.87121 29.9541 5.8018 30.8395 5.87121C31.2482 5.87121 31.7931 5.94062 32.338 6.14886C32.951 6.28769 33.564 6.56534 34.2451 6.9124C34.3813 6.98181 34.5176 7.05122 34.7219 7.12064C34.8581 7.19005 34.9944 7.25946 35.1306 7.4677C35.2668 7.53711 35.403 7.67593 35.5392 7.74535C35.6755 7.81476 35.8117 7.95358 35.9479 8.09241C36.3566 8.23123 36.4928 8.5783 36.7653 8.92536C37.0377 9.20301 37.242 9.55007 37.5145 9.89713C37.6507 10.036 37.7869 10.2442 37.8551 10.4524C37.9232 10.6607 37.9913 10.8689 38.1275 11.0077C38.1956 11.4936 38.3999 11.8407 38.6724 12.2572C38.6724 12.743 38.9448 13.1595 39.013 13.6454C38.8767 14.1313 39.0811 14.6172 39.1492 15.1031C39.2173 15.589 39.0811 16.1442 39.0811 16.6301C38.9448 17.116 38.9448 17.6713 38.7405 18.2266C38.6724 18.7819 38.4681 19.3372 38.1275 19.7537C37.9232 20.309 37.5826 20.7255 37.242 21.2114C36.9696 21.6972 36.4928 22.1137 36.0841 22.5302C35.8798 22.7384 35.6074 22.8773 35.403 23.0855C35.2668 23.1549 35.1306 23.2243 35.0625 23.3631C34.9262 23.4326 34.8581 23.5714 34.7219 23.7102C34.2451 24.0573 33.7002 24.2655 33.1553 24.5431C32.6104 24.7514 31.9974 24.8902 31.3844 25.0985C30.7714 25.029 30.1584 25.1679 29.5454 25.3067C28.9324 25.3761 28.3194 25.3067 27.7064 25.0985C27.0934 25.029 26.4804 24.8208 25.9355 24.5431C25.3225 24.3349 24.8457 23.9879 24.3689 23.7102C24.2327 23.6408 24.0965 23.5714 23.9602 23.502C23.824 23.4326 23.7559 23.2937 23.6197 23.2243C23.4153 23.0161 23.211 22.8078 22.9386 22.669C22.4618 22.322 22.0531 21.9055 21.7807 21.3502C21.6444 21.1419 21.5082 20.8643 21.372 20.5866C21.3039 20.4478 21.2358 20.309 21.1676 20.2396C21.0995 20.1702 21.0995 20.1008 21.0314 20.1008C20.9633 20.0313 20.9633 19.9619 20.8952 19.9619C20.759 19.7537 20.5546 19.476 20.4184 19.2678C20.3503 19.129 20.2822 18.9902 20.2822 18.8513C20.2822 18.7125 20.2141 18.5737 20.2822 18.4349C20.146 18.1572 20.146 17.8796 20.0779 17.6713C20.0779 17.6019 20.0779 17.5325 20.0779 17.4631C20.0779 17.3937 20.0779 17.3243 20.0779 17.2548C20.0779 17.116 20.0097 16.9772 20.0097 16.8384C20.0097 16.6995 20.0779 16.5607 20.0779 16.4219C20.0779 16.2831 20.0779 16.1442 20.0779 16.0054C20.0779 15.8666 20.0097 15.7278 20.0097 15.589C20.0097 15.4501 20.0097 15.3113 20.0097 15.1725C20.0779 14.6866 20.146 14.2007 20.146 13.7148C20.146 13.2289 20.4184 12.8125 20.4865 12.3266C20.4865 12.1877 20.5546 12.1183 20.5546 11.9795C20.6228 11.8407 20.6909 11.7713 20.6909 11.7019C20.759 11.6324 20.8271 11.4936 20.8271 11.4242C20.8952 11.3548 20.8952 11.216 20.9633 11.0771C21.1677 10.6607 21.372 10.3136 21.6444 9.96654C21.6444 9.68889 21.7807 9.55007 21.9169 9.41125C22.0531 9.27242 22.2574 9.1336 22.3937 8.99477C22.6661 8.71712 22.8023 8.30065 23.211 8.16182C23.2791 7.95358 23.4153 7.81476 23.5516 7.74535C23.6878 7.67593 23.8921 7.60652 24.0283 7.53711C24.1646 7.4677 24.3008 7.32887 24.437 7.25946C24.5732 7.19005 24.7095 7.05122 24.8457 7.05122C24.9138 6.9124 25.1181 6.84299 25.2544 6.77357C25.3906 6.70416 25.5268 6.70416 25.663 6.63475C25.9355 6.56534 26.2079 6.42651 26.4123 6.3571C26.4804 6.14886 26.6166 6.07945 26.6847 6.07945C26.8209 6.07945 26.889 6.01004 27.0253 6.01004C27.1615 6.01004 27.2296 5.94062 27.3658 5.94062C27.5021 5.94062 27.5702 5.87121 27.6383 5.87121C28.8643 5.73239 29.5454 5.87121 29.5454 5.94062Z" fill="#B2907C"/>
<path d="M12.4493 3.51119C12.4493 3.51119 12.5174 3.85825 12.5174 4.55238C12.5174 4.89944 12.4493 5.31591 12.3131 5.87121C12.1769 6.3571 12.0407 6.98181 11.7001 7.60652C11.4958 8.023 11.2914 8.43947 10.9509 8.85595C10.6784 9.27242 10.2698 9.68889 9.86108 10.1054C9.72486 10.1748 9.58863 10.2442 9.52052 10.383C9.3843 10.4524 9.31619 10.5913 9.17996 10.6607C8.97563 10.8689 8.70318 11.0771 8.36262 11.1466C8.09017 11.2854 7.74961 11.4242 7.40906 11.4936C7.0685 11.6324 6.72794 11.7019 6.38738 11.7713C6.31927 11.7713 6.18304 11.7713 6.11493 11.8407C6.04682 11.8407 5.97871 11.8407 5.97871 11.8407C5.91059 11.8407 5.84248 11.8407 5.84248 11.8407H5.77437C5.77437 11.8407 5.77437 11.8407 5.70626 11.8407V11.9101C5.70626 11.9795 5.70626 12.1183 5.70626 12.1877V12.4654C5.70626 12.5348 5.70626 12.6736 5.70626 12.743C5.91059 13.5066 5.50192 14.2701 5.70626 15.1031C5.77437 15.936 5.77437 16.769 5.70626 17.6019C5.63815 17.8101 5.63815 18.0184 5.63815 18.2266C5.63815 18.3654 5.63815 18.4349 5.63815 18.5737H5.97871C6.04682 18.5737 6.18304 18.5737 6.25115 18.5737C6.38738 18.5737 6.45549 18.5737 6.59171 18.6431C7.0685 18.8513 7.47717 18.9902 7.95395 19.1984C8.43073 19.4066 8.8394 19.5455 9.31619 19.8231C9.99731 20.5866 10.6784 21.2808 11.4277 22.0443C11.7001 22.4608 11.9726 22.9467 12.1088 23.502C12.3131 23.9879 12.4493 24.5432 12.6537 25.029C12.7218 25.3067 12.7899 25.5843 12.7899 25.862C12.7899 26.0008 12.858 26.1396 12.858 26.2785C12.858 26.2785 12.858 26.2785 12.858 26.3479V26.4173H12.9261C12.9942 26.4173 13.1305 26.4173 13.1986 26.4173C13.3348 26.4173 13.471 26.4173 13.6072 26.4173C14.697 26.2785 15.7868 26.2785 16.8766 26.4173C17.9664 26.209 19.1243 26.2785 20.2822 26.4173C21.4401 26.4867 22.598 26.2785 23.7559 26.4173C24.9138 26.4173 26.1398 26.3479 27.2977 26.4173C28.5237 26.4867 29.7497 26.5561 30.9758 26.4173C32.2018 26.3479 33.4278 26.2785 34.7219 26.4173C36.016 26.209 37.242 26.2785 38.5362 26.4173C39.8303 26.4173 41.1244 26.4867 42.4185 26.4173C43.0997 26.4173 43.7127 26.4173 44.3938 26.4173C44.7343 26.4173 45.0749 26.4173 45.4155 26.4173H45.8241V26.3479C45.8241 26.3479 45.8241 26.3479 45.8241 26.209C45.8241 26.1396 45.8241 26.0008 45.8922 25.9314C45.9604 25.5843 46.0285 25.2373 46.0966 24.8902C46.2328 24.1961 46.5053 23.502 46.7777 22.8773C47.0501 22.1831 47.4588 21.6278 47.9356 21.0725C48.4124 20.5172 48.9573 20.1008 49.5022 19.6843C49.8427 19.5455 50.1152 19.3372 50.4557 19.1984C50.592 19.129 50.7963 19.0596 50.9325 18.9902C51.0687 18.9207 51.2731 18.8513 51.4093 18.7819C51.7499 18.6431 52.0904 18.5737 52.431 18.5043L52.7034 18.4349H52.9759C52.9759 18.4349 52.9759 18.4349 53.044 18.4349V18.1572C53.044 17.8101 53.044 17.5325 53.044 17.1854C53.044 16.5607 53.044 15.936 53.044 15.3113C53.044 14.6866 53.044 14.0619 52.9759 13.4372C52.9759 13.1595 52.9759 12.8125 52.9759 12.5348V12.1877C52.9759 12.1877 52.9078 12.1877 52.9078 12.2572H52.5672C52.2267 12.1877 51.8861 12.1183 51.6136 12.0489C51.0006 11.8407 50.4557 11.4936 49.9108 11.1466C49.366 10.7301 48.8892 10.383 48.4805 9.89713C48.0037 9.48066 47.6632 8.99477 47.3226 8.43947C46.982 7.95358 46.7096 7.32887 46.5734 6.77357C46.369 6.21827 46.2328 5.59356 46.0966 5.03826C46.0966 4.89944 46.0285 4.76061 46.0285 4.62179C46.0285 4.55238 46.0285 4.48296 46.0285 4.41355V4.27473H45.8922C45.756 4.27473 45.6198 4.27473 45.4836 4.27473C45.2111 4.27473 44.9387 4.27473 44.6662 4.20531C43.5764 4.34414 42.5548 4.06649 41.5331 4.20531C40.5114 4.20531 39.4897 4.20531 38.5362 4.20531C37.5826 3.99708 36.5609 4.1359 35.6755 4.20531C34.7219 4.20531 33.8365 4.34414 32.951 4.20531C32.0655 4.20531 31.1801 4.06649 30.3627 4.20531C29.5454 4.20531 28.7281 3.85825 27.9107 4.20531C27.0934 4.27473 26.3442 3.99708 25.5949 4.20531C24.8457 4.41355 24.1646 4.20531 23.4834 4.20531C22.8023 4.20531 22.1212 4.20531 21.5082 4.20531C18.7156 4.1359 16.4679 4.1359 14.9695 4.06649C13.2667 3.5806 12.5174 3.51119 12.4493 3.51119C12.4493 3.44178 13.471 3.37236 15.31 3.30295C17.149 3.23354 19.8735 3.16413 23.2791 3.16413C23.9602 3.16413 24.7095 3.0253 25.3906 3.16413C26.1398 3.16413 26.889 3.0253 27.7064 3.16413C28.5237 2.95589 29.3411 3.09472 30.1584 3.16413C30.9758 3.16413 31.8612 3.23354 32.7467 3.16413C33.6321 3.0253 34.5857 3.23354 35.4711 3.16413C36.4247 3.30295 37.3783 3.23354 38.3318 3.16413C39.2854 3.30295 40.3071 3.16413 41.3288 3.16413C42.3504 3.37236 43.4402 3.23354 44.4619 3.16413C44.7343 3.16413 45.0068 3.16413 45.2792 3.16413C45.6198 3.16413 46.0285 3.16413 46.369 3.16413H46.8458V3.37236C46.8458 3.65001 46.8458 3.85825 46.8458 4.1359V4.48296C46.8458 4.55238 46.8458 4.62179 46.8458 4.6912C46.8458 4.83003 46.8458 4.96885 46.9139 5.10768C46.982 5.66297 47.1183 6.14886 47.3226 6.63475C47.5269 7.12064 47.7313 7.60652 48.0037 8.09241C48.3443 8.50888 48.6848 8.92536 49.0254 9.34183C49.4341 9.68889 49.7746 10.036 50.2514 10.383C50.7282 10.6607 51.205 10.8689 51.7499 11.0077C52.0223 11.0771 52.2948 11.1466 52.5672 11.216H53.9294V11.9795C53.9294 12.1877 53.9294 12.4654 53.9294 12.6736C53.9294 12.9513 53.9294 13.2983 53.9294 13.576C53.9294 14.2007 53.9294 14.8254 53.9294 15.4501C53.9294 16.0748 53.9294 16.6995 53.8613 17.3243C53.8613 17.6713 53.8613 17.949 53.8613 18.296V18.6431C53.8613 18.7819 53.8613 18.9207 53.8613 19.0596C53.8613 19.1984 53.8613 19.3372 53.8613 19.476V19.6843H53.657C53.3845 19.6843 53.1121 19.6843 52.8397 19.7537H52.2948C52.0223 19.8231 51.7499 19.8925 51.4774 19.9619C51.3412 20.0313 51.205 20.0313 51.0687 20.1008C50.9325 20.1702 50.7963 20.2396 50.6601 20.309C50.3876 20.4478 50.1152 20.5866 49.9108 20.7949C48.9573 21.4196 48.0718 22.3914 47.595 23.502C47.2545 23.9879 46.982 24.6126 46.9139 25.2373C46.8458 25.5149 46.8458 25.862 46.7777 26.209C46.7777 26.2785 46.7777 26.3479 46.7777 26.4173V26.8338C46.7777 27.1808 46.7777 27.4585 46.7777 27.8055C46.2328 27.8055 45.6879 27.8055 45.2111 27.8055C44.8706 27.8055 44.53 27.8055 44.1894 27.8055C43.5083 27.8055 42.8953 27.8055 42.2142 27.8055C40.9201 27.8055 39.626 27.8055 38.3318 27.8055C37.0377 27.8749 35.7436 27.7361 34.5176 27.8055C33.2234 27.8749 31.9974 27.7361 30.7714 27.8055C29.5454 27.8749 28.3194 27.8749 27.0934 27.8055C25.8674 27.8055 24.7095 27.5973 23.5516 27.8055C22.3937 27.8749 21.2358 28.0832 20.0779 27.8055C18.92 27.8749 17.8302 27.6667 16.6723 27.8055C15.5825 27.5973 14.4927 27.8055 13.4029 27.8055C13.2667 27.8055 13.1305 27.8055 12.9942 27.8055H12.4493C12.245 27.8055 11.9726 27.8055 11.7682 27.8055H11.632C11.632 27.7361 11.632 27.6667 11.632 27.6667V27.3196C11.632 27.1808 11.632 27.1114 11.632 26.9726V26.6255C11.632 26.4867 11.632 26.3479 11.5639 26.2785C11.4958 26.0008 11.4958 25.7926 11.4277 25.5843C11.2914 25.0984 11.1552 24.682 11.019 24.1961C10.8828 23.7796 10.6784 23.2937 10.406 22.9467C10.1335 22.5996 9.86108 22.1831 9.58863 21.8361C9.31619 21.489 8.97563 21.1419 8.56696 20.9337C7.88584 20.3784 7.0685 20.1008 6.25115 19.8925C6.11493 19.8925 6.04682 19.8925 5.91059 19.8925C5.77437 19.8925 5.70626 19.8925 5.50192 19.8925C5.43381 19.8925 5.29759 19.8925 5.22948 19.8925H4.48025V19.8231C4.48025 19.6149 4.48025 19.4066 4.48025 19.1984C4.88892 18.5737 4.88892 18.4349 4.88892 18.2266C4.88892 18.0184 4.95703 17.8101 4.95703 17.6019C5.02514 16.769 4.75269 15.936 4.95703 15.1031C4.75269 14.2701 4.95703 13.5066 4.95703 12.743C4.95703 12.6736 4.95703 12.5348 4.95703 12.4654V12.1877C4.95703 11.9101 4.95703 11.6324 4.95703 11.3548V11.216H5.22948C5.3657 11.216 5.50192 11.216 5.63815 11.216C5.77437 11.216 5.91059 11.216 5.97871 11.216C6.04682 11.216 6.11493 11.216 6.25115 11.216C6.59171 11.0771 6.86416 11.0771 7.13661 11.0077C7.40906 10.9383 7.74961 10.8689 8.02206 10.7301C8.63507 10.5218 9.04374 10.1748 9.45241 9.82772C9.86108 9.41124 10.2016 9.06418 10.5422 8.71712C10.8146 8.30065 11.0871 7.95358 11.2914 7.53711C11.632 6.98181 11.8363 6.42651 11.9725 5.94062C12.1088 5.45474 12.1769 5.03826 12.245 4.6912C12.4493 3.85825 12.4493 3.51119 12.4493 3.51119Z" fill="#B2907C"/>
<path d="M32.338 12.3266C32.2699 12.3266 32.2018 12.0489 31.9974 11.563C31.9974 11.4936 31.9293 11.4242 31.8612 11.3548C31.7931 11.2854 31.725 11.216 31.725 11.0771C31.725 11.0077 31.6569 11.0077 31.5888 10.9383C31.5206 10.9383 31.4525 10.8689 31.5206 10.7995C31.5206 10.6607 31.3844 10.5913 31.2482 10.5218C31.1801 10.5218 31.1801 10.4524 31.112 10.383C31.0439 10.3136 31.0439 10.3136 30.9076 10.3136C30.7714 10.383 30.7714 10.2442 30.7714 10.1748C30.7714 10.1054 30.7033 10.036 30.5671 10.1054C30.499 10.1054 30.4309 10.1054 30.3627 10.036C30.2946 10.036 30.2265 9.96654 30.1584 9.96654C30.0903 9.89713 30.0222 9.82772 29.9541 9.82772C29.886 9.82772 29.8179 9.89713 29.6816 9.89713C29.6135 9.82772 29.5454 9.75831 29.4773 9.75831C29.4092 9.75831 29.3411 9.82772 29.273 9.89713C29.2048 9.75831 29.0686 9.75831 29.0005 9.75831C28.9324 9.75831 28.8643 9.89713 28.7962 10.036C28.7281 10.036 28.66 10.1054 28.5237 10.1054C28.4556 10.1054 28.3875 10.1748 28.3194 10.2442C28.1832 10.3136 28.0469 10.4524 27.9107 10.5913C27.9107 10.6607 27.9107 10.7301 27.8426 10.7301C27.8426 10.7995 27.7745 10.7995 27.7745 10.8689C27.7064 10.9383 27.6383 11.0077 27.5021 11.0077C27.5021 11.1466 27.502 11.216 27.4339 11.2854C27.4339 11.3548 27.3658 11.3548 27.3658 11.4242C27.3658 11.4242 27.2977 11.4242 27.2977 11.4936H27.3658C27.3658 11.563 27.3658 11.6324 27.2977 11.6324C27.2977 11.7019 27.2977 11.7019 27.2977 11.7713C27.2977 11.8407 27.2977 11.9795 27.2296 12.0489C27.2296 12.1183 27.2296 12.2572 27.2296 12.3266C27.2296 12.396 27.2296 12.5348 27.2296 12.6042C27.2296 12.6736 27.2296 12.8125 27.2296 12.8819C27.2296 12.9513 27.2977 13.0207 27.4339 13.0901C27.5702 13.2289 27.7064 13.2983 27.8426 13.5066C27.9107 13.5066 27.9788 13.5066 28.0469 13.5066C28.1151 13.5066 28.1151 13.576 28.1832 13.576C28.2513 13.6454 28.3194 13.7148 28.3875 13.8536C28.5918 13.9231 28.7962 14.2007 29.0686 14.2007C29.273 14.3395 29.5454 14.3395 29.7497 14.5478C29.9541 14.6866 30.1584 14.8948 30.499 14.8948C30.7714 14.8948 30.9758 15.1725 31.2482 15.3113C31.3163 15.4501 31.4525 15.5195 31.5888 15.589C31.725 15.6584 31.8612 15.7278 31.9293 15.8666C31.9974 15.936 32.0655 16.0054 32.0655 16.0054C32.1337 16.0748 32.1337 16.1442 32.2018 16.2137C32.2699 16.2831 32.2699 16.3525 32.338 16.4219C32.4061 16.4913 32.4061 16.5607 32.4742 16.6301L32.5423 16.6995L32.6104 16.8384C32.6786 16.9078 32.6786 16.9772 32.7467 17.0466C32.7467 17.116 32.8148 17.1854 32.8148 17.2548C32.8148 17.3243 32.8148 17.3937 32.8148 17.5325C32.951 17.6713 32.951 17.8101 32.951 18.0184C32.8829 18.1572 32.8148 18.296 32.8148 18.4349C32.7467 18.5737 32.7467 18.7125 32.6786 18.8513C32.6786 18.9207 32.6786 18.9902 32.6786 19.0596C32.6786 19.129 32.6104 19.1984 32.6104 19.2678C32.6104 19.4066 32.4742 19.5455 32.4061 19.6149C32.338 19.7537 32.2699 19.8231 32.2018 19.9619C32.1337 20.0313 32.0655 20.1702 31.9974 20.309C31.9293 20.3784 31.9293 20.4478 31.8612 20.4478C31.7931 20.5172 31.725 20.5172 31.6569 20.5172C31.5888 20.6561 31.4525 20.7255 31.3844 20.7949C31.2482 20.8643 31.112 20.8643 31.0439 21.0031C30.9076 21.0725 30.8395 21.1419 30.7033 21.1419C30.5671 21.2114 30.499 21.2114 30.3627 21.2114C30.2265 21.1419 30.0903 21.1419 30.0222 21.2114C29.886 21.2114 29.8179 21.3502 29.6816 21.3502C29.5454 21.3502 29.4773 21.4196 29.3411 21.4196C29.2048 21.4196 29.1367 21.4196 29.0005 21.3502C28.8643 21.3502 28.7962 21.2808 28.7281 21.2808C28.66 21.2114 28.5237 21.2114 28.4556 21.2114C28.3875 21.2114 28.3194 21.0725 28.2513 21.0031C28.1832 20.9337 28.1151 20.8643 27.9788 20.9337C27.9107 20.9337 27.8426 20.7949 27.7745 20.7255C27.7064 20.6561 27.6383 20.5866 27.5702 20.5866C27.4339 20.5866 27.3658 20.5172 27.3658 20.4478C27.2977 20.3784 27.2977 20.309 27.2296 20.2396C27.1615 20.1702 27.1615 20.1008 27.0934 20.0313C27.0253 19.9619 27.0253 19.8925 26.9572 19.8231C26.889 19.7537 26.889 19.6843 26.8209 19.6149C26.8209 19.5455 26.7528 19.476 26.7528 19.4066C26.6847 19.2678 26.6847 19.129 26.6166 19.0596C26.6166 18.9902 26.6166 18.9207 26.5485 18.9207C26.5485 18.8513 26.5485 18.7819 26.5485 18.7819C26.5485 18.7125 26.5485 18.7125 26.5485 18.6431C26.5485 18.5737 26.5485 18.5737 26.5485 18.5043C26.5485 18.4349 26.5485 18.3654 26.5485 18.296C26.5485 18.2266 26.5485 18.1572 26.5485 18.1572C26.5485 18.0878 26.6166 18.0184 26.6166 18.0184C26.6166 18.0184 26.6847 18.0878 26.6847 18.1572C26.6847 18.2266 26.7528 18.3654 26.8209 18.5737C26.889 18.6431 26.889 18.7819 26.9572 18.8513C27.0253 18.9207 27.0253 19.0596 27.0934 19.129C27.2296 19.3372 27.3658 19.5455 27.6383 19.7537C27.7064 19.8231 27.7745 19.8231 27.8426 19.8231C27.9107 19.8231 27.9788 19.8925 27.9788 19.9619C28.0469 20.0313 28.1151 20.0313 28.1832 20.0313C28.2513 20.0313 28.3194 20.1008 28.3194 20.1702C28.4556 20.1008 28.4556 20.1008 28.5237 20.1702C28.5918 20.2396 28.66 20.2396 28.7281 20.309C28.7962 20.309 28.8643 20.3784 28.9324 20.3784C29.0005 20.3784 29.0686 20.3784 29.1367 20.3784C29.2048 20.309 29.273 20.309 29.3411 20.3784C29.4092 20.3784 29.4773 20.4478 29.5454 20.3784C29.6135 20.4478 29.6816 20.4478 29.8179 20.4478C29.886 20.4478 29.9541 20.3784 30.0222 20.309C30.0903 20.3784 30.2265 20.309 30.2946 20.2396C30.3627 20.1702 30.4309 20.1008 30.499 20.1008C30.7033 20.1702 30.8395 19.9619 30.9076 19.7537C30.9076 19.6843 30.9758 19.6843 30.9758 19.6149L31.0439 19.5455C31.112 19.476 31.1801 19.4066 31.1801 19.3372C31.2482 19.2678 31.3163 19.1984 31.3163 19.129C31.3163 19.0596 31.3844 18.9207 31.4525 18.8513C31.4525 18.7819 31.4525 18.7819 31.4525 18.7125C31.4525 18.6431 31.4525 18.6431 31.4525 18.5737C31.4525 18.5043 31.5206 18.3654 31.5888 18.296C31.5888 18.2266 31.5888 18.0878 31.5888 18.0184C31.5888 17.949 31.5888 17.8101 31.5888 17.7407C31.5888 17.6713 31.5206 17.6713 31.5206 17.6019C31.5206 17.5325 31.5206 17.5325 31.5206 17.4631C31.5206 17.3937 31.5206 17.3937 31.4525 17.3243V17.2548C31.4525 17.2548 31.4525 17.1854 31.3844 17.1854C31.3844 17.1854 31.3163 17.116 31.3163 17.0466C31.3163 16.9772 31.3163 16.9772 31.2482 16.9078C31.2482 16.8384 31.1801 16.8384 31.1801 16.769C31.112 16.769 31.112 16.6995 31.0439 16.6995C30.9076 16.5607 30.7033 16.4219 30.499 16.2831C30.2946 16.1442 30.0903 16.0054 29.886 15.936C29.7497 15.6584 29.4773 15.6584 29.2048 15.589C28.9324 15.5195 28.7281 15.3807 28.4556 15.2419C28.1832 15.1031 27.9788 14.9642 27.7064 14.8254C27.4339 14.756 27.2977 14.4784 27.0253 14.3395C26.889 14.2701 26.7528 14.1313 26.6847 13.9925C26.6166 13.8536 26.5485 13.7148 26.4123 13.576C26.276 13.4372 26.2079 13.2983 26.1398 13.1595C26.0717 13.0207 26.0036 12.8125 26.0717 12.6736C26.0036 12.5348 26.0717 12.3266 26.0717 12.1877C26.0717 12.1183 26.0717 12.0489 26.0717 11.9795C26.0717 11.9101 26.0717 11.8407 26.0036 11.7713C26.0036 11.6324 25.9355 11.4936 26.0036 11.2854C26.0036 11.216 26.0036 11.1466 26.0717 11.0771C26.1398 11.0077 26.1398 10.9383 26.276 10.9383C26.276 10.8689 26.276 10.8689 26.276 10.7995C26.276 10.7995 26.276 10.7301 26.3441 10.7301C26.4123 10.6607 26.4123 10.5913 26.4804 10.5913C26.5485 10.4524 26.6847 10.383 26.6847 10.2442C26.8209 10.1748 26.889 10.1054 27.0253 9.96654C27.0934 9.89713 27.0934 9.82772 27.0934 9.82772C27.1615 9.75831 27.1615 9.68889 27.2296 9.68889C27.4339 9.55007 27.7064 9.48066 27.8426 9.27242C27.9107 9.20301 28.0469 9.13359 28.1832 9.13359C28.3194 9.13359 28.4556 9.06418 28.5237 9.06418C28.5918 8.99477 28.7281 8.99477 28.8643 8.99477C29.0005 8.99477 29.0686 8.99477 29.2048 8.92536C29.3411 8.92536 29.4092 8.92536 29.5454 8.92536C29.6816 8.92536 29.7497 8.92536 29.886 8.99477C30.0222 8.85595 30.0903 8.85595 30.2265 8.92536C30.2946 8.99477 30.4309 9.06418 30.499 9.13359C30.5671 9.20301 30.7033 9.20301 30.7714 9.20301C30.8395 9.20301 30.9758 9.27242 30.9758 9.41125C31.112 9.34183 31.1801 9.41124 31.2482 9.48066C31.3163 9.55007 31.3844 9.61948 31.3844 9.75831C31.4525 9.82772 31.5206 9.89713 31.5888 9.89713C31.6569 9.96654 31.725 9.96654 31.725 10.1054C31.8612 10.1054 31.8612 10.1748 31.8612 10.2442C31.8612 10.3136 31.8612 10.383 31.9293 10.4524C31.9293 10.5913 32.0655 10.6607 32.1337 10.7995C32.2018 10.8689 32.2699 11.0077 32.2699 11.1466C32.2699 11.2854 32.338 11.3548 32.338 11.4242C32.338 11.563 32.4061 11.7019 32.338 11.8407C32.338 11.9795 32.338 12.0489 32.338 12.1183C32.4061 12.2572 32.4061 12.3266 32.338 12.3266Z" fill="#B2907C"/>
<path d="M29.5454 22.3914C29.4773 22.3914 29.4092 22.2525 29.3411 21.9749C29.3411 21.9055 29.3411 21.9055 29.3411 21.8361C29.3411 21.7667 29.273 21.6972 29.3411 21.6278C29.4092 21.5584 29.1367 21.489 29.3411 21.4196C29.4092 21.3502 29.3411 21.2808 29.3411 21.2114C29.273 21.1419 29.4092 21.0725 29.3411 21.0031C29.1367 20.9337 29.5454 20.8643 29.3411 20.7255C29.273 20.6561 29.273 20.5172 29.3411 20.4478C29.4773 20.3784 29.3411 20.2396 29.3411 20.1702C29.5454 20.1008 29.4092 19.9619 29.3411 19.8925C29.6135 19.8231 29.5454 19.6843 29.3411 19.5455C29.3411 19.4066 29.4092 19.3372 29.3411 19.1984C29.3411 19.0596 29.273 18.9902 29.3411 18.8513C29.2048 18.7125 29.2048 18.6431 29.3411 18.5043C29.1367 18.3654 29.2048 18.2266 29.3411 18.1572C29.4092 18.0184 29.2048 17.8796 29.3411 17.8101C29.3411 17.6713 29.273 17.5325 29.3411 17.3937C29.4092 17.2548 29.4773 17.116 29.3411 16.9772C29.273 16.8384 29.2048 16.6995 29.3411 16.5607C29.1367 16.4219 29.2048 16.2831 29.3411 16.1442C29.3411 16.0054 29.4092 15.8666 29.3411 15.7278C29.3411 15.5889 29.273 15.4501 29.3411 15.3113C29.4092 15.1725 29.4773 15.0337 29.3411 14.8948C29.2048 14.756 29.4092 14.6172 29.3411 14.4784C29.5454 14.3395 29.273 14.2007 29.3411 14.0619C29.3411 13.9231 29.4092 13.7842 29.3411 13.6454C29.3411 13.5066 29.273 13.3678 29.3411 13.2289C29.0686 13.0901 29.4092 12.9513 29.3411 12.8125C29.4773 12.6736 29.3411 12.5348 29.3411 12.396C29.273 12.2572 29.4773 12.1183 29.3411 12.0489C29.3411 11.9101 29.273 11.8407 29.3411 11.7019C29.2048 11.563 29.4773 11.4936 29.3411 11.3548C29.3411 11.216 29.3411 11.1466 29.3411 11.0077C29.5454 10.8689 29.4092 10.7995 29.3411 10.6607C29.3411 10.5913 29.2048 10.4524 29.3411 10.383C29.3411 10.3136 29.4773 10.1748 29.3411 10.1054C29.3411 10.036 29.6816 9.89713 29.3411 9.82772C29.273 9.75831 29.5454 9.68889 29.3411 9.55007C29.1367 9.48066 29.3411 9.41124 29.3411 9.34183C29.3411 9.27242 29.3411 9.20301 29.3411 9.13359C29.4092 8.50888 29.5454 8.16182 29.6816 8.16182C29.8179 8.16182 29.9541 8.5783 30.0222 9.34183C30.0222 9.41124 30.1584 9.48066 30.0222 9.55007C30.0222 9.61948 30.1584 9.68889 30.0222 9.82772C30.2265 9.89713 30.0903 10.036 30.0222 10.1054C30.0222 10.1748 29.9541 10.3136 30.0222 10.383C30.1584 10.4524 29.9541 10.5913 30.0222 10.6607C29.886 10.7301 29.9541 10.8689 30.0222 11.0077C29.886 11.1466 30.0222 11.216 30.0222 11.3548C29.8179 11.4936 29.9541 11.563 30.0222 11.7019C30.0903 11.8407 30.0222 11.9101 30.0222 12.0489C29.9541 12.1877 30.0903 12.3266 30.0222 12.396C30.0903 12.5348 30.1584 12.6736 30.0222 12.8125C30.0903 12.9513 30.0222 13.0901 30.0222 13.2289C30.0903 13.3678 30.0222 13.5066 30.0222 13.6454C30.0903 13.7842 29.8179 13.9231 30.0222 14.0619C30.0222 14.2007 30.0222 14.3395 30.0222 14.4784C30.0222 14.6172 29.9541 14.756 30.0222 14.8948C29.8179 15.0337 29.9541 15.1725 30.0222 15.3113C30.0903 15.4501 30.0222 15.5889 30.0222 15.7278C30.0222 15.8666 30.0222 16.0054 30.0222 16.1442C30.0903 16.2831 29.9541 16.4219 30.0222 16.5607C30.0903 16.6995 29.9541 16.8384 30.0222 16.9772C30.0903 17.116 30.0903 17.2548 30.0222 17.3937C30.0222 17.5325 29.8179 17.6713 30.0222 17.8101C30.0903 17.949 30.2946 18.0878 30.0222 18.1572C30.0903 18.296 29.886 18.4349 30.0222 18.5043C29.8179 18.6431 30.0222 18.7125 30.0222 18.8513C29.9541 18.9902 29.886 19.0596 30.0222 19.1984C30.0903 19.3372 29.9541 19.4066 30.0222 19.5455C30.1584 19.6843 29.886 19.7537 30.0222 19.8925C30.0222 19.9619 30.0222 20.1008 30.0222 20.1702C30.2946 20.2396 30.0222 20.3784 30.0222 20.4478C29.9541 20.5172 30.2265 20.6561 30.0222 20.7255C30.2265 20.7949 30.0222 20.8643 30.0222 21.0031C29.9541 21.0725 30.0903 21.1419 30.0222 21.2114C30.1584 21.2808 29.9541 21.3502 30.0222 21.4196C29.9541 21.489 30.0222 21.5584 30.0222 21.6278C30.0222 21.6972 30.0222 21.7667 30.0222 21.8361C30.0222 21.9055 30.0222 21.9749 30.0222 21.9749C29.6816 22.1831 29.6135 22.3914 29.5454 22.3914Z" fill="#B2907C"/>
</svg>
