<svg width="46" height="43" viewBox="0 0 46 43" fill="none" xmlns="http://www.w3.org/2000/svg">
<path d="M11.286 15.8335C11.286 15.7793 11.3395 15.7793 11.5 15.7251C11.5535 15.7251 11.6605 15.6709 11.7674 15.6709C11.8744 15.6166 11.9814 15.6166 12.0884 15.5624C12.1953 15.5624 12.2488 15.5082 12.3558 15.454C12.4093 15.454 12.4628 15.3997 12.5163 15.3997C12.5698 15.3997 12.6233 15.3455 12.6767 15.3455C12.7837 15.3997 12.8372 15.1286 12.9977 15.1829C13.0512 15.1829 13.1047 15.1286 13.1581 15.1286L13.2651 15.0202C13.3721 14.9117 13.5326 14.9117 13.586 14.8033C13.586 14.6948 13.693 14.6948 13.7465 14.6948C13.8 14.6948 13.907 14.6406 13.907 14.5322C13.9605 14.4779 14.014 14.4237 14.0674 14.3695C14.1209 14.3153 14.1744 14.261 14.2279 14.2068C14.3349 14.2068 14.3884 14.0984 14.3884 14.0441C14.4419 13.9899 14.4419 13.8815 14.4953 13.8272C14.7093 13.773 14.7628 13.5561 14.7093 13.3934C14.7628 13.3934 14.8163 13.3392 14.8698 13.3392C14.9233 13.285 14.9233 13.285 14.9233 13.2308C14.9767 13.1223 14.9233 13.0139 14.8698 12.9054C14.9233 12.797 14.9233 12.7428 14.9767 12.6343C14.9767 12.5801 15.0302 12.5259 15.0302 12.4716C15.0302 12.4174 15.0302 12.3632 15.0302 12.309C15.0302 12.2005 15.0302 12.0921 15.0302 12.0378C15.0302 11.9294 15.0302 11.8209 15.0302 11.7667C15.0302 11.5498 14.9767 11.4956 14.9767 11.4414C14.9767 11.3871 14.9233 11.3329 14.9233 11.2787C14.9233 11.2245 14.9233 11.1702 14.9233 11.116C14.9233 11.0618 14.9233 11.0076 14.9767 10.9533C14.8163 10.7907 14.8163 10.5738 14.8163 10.3569C14.8163 10.2484 14.7628 10.14 14.7093 10.0858C14.6558 9.9773 14.6023 9.92308 14.6023 9.81463C14.6023 9.81463 14.6023 9.7604 14.5488 9.7604L14.4953 9.70618C14.4419 9.65195 14.4419 9.59773 14.3884 9.59773C14.3349 9.48928 14.2814 9.43506 14.2279 9.32661C14.2279 9.27238 14.1744 9.21816 14.1744 9.16393C14.1209 9.10971 14.1209 9.05549 14.0674 9.00126C14.014 8.94704 14.014 8.89281 13.9605 8.89281C13.907 8.83859 13.8535 8.83859 13.8 8.83859C13.693 8.78436 13.6395 8.73014 13.5326 8.67591C13.4256 8.62169 13.3721 8.51324 13.2651 8.45902C12.9977 8.45902 12.8372 8.29634 12.6767 8.13367C12.6233 8.13367 12.5698 8.07945 12.5163 8.07945C12.4628 8.07945 12.4093 8.02522 12.3558 8.02522C12.2488 7.971 12.1419 7.91677 11.9814 7.971C11.8744 7.91677 11.7674 7.91677 11.607 7.91677C11.5 7.91677 11.393 7.91677 11.2326 7.86255C11.1256 7.86255 10.9651 7.80832 10.8581 7.80832C10.7512 7.80832 10.6442 7.86255 10.5372 7.91677C10.4302 7.971 10.3233 8.02522 10.2163 8.02522C10.1628 8.02522 10.1093 8.02522 10.0558 8.07945C10.0023 8.07945 9.94884 8.13367 9.89535 8.13367C9.84186 8.13367 9.78837 8.13367 9.73488 8.13367C9.6814 8.13367 9.62791 8.18789 9.57442 8.24212L9.46744 8.35057C9.41395 8.40479 9.36047 8.40479 9.30698 8.45902C9.2 8.51324 9.09302 8.56747 9.03953 8.62169C8.93256 8.67591 8.87907 8.73014 8.77209 8.83859C8.71861 8.89281 8.71861 8.94704 8.66512 8.94704C8.61163 9.00126 8.61163 9.05549 8.55814 9.05549C8.50465 9.10971 8.50465 9.16393 8.45116 9.16393C8.39767 9.21816 8.39767 9.21816 8.34419 9.27238C8.34419 9.43506 8.2907 9.48928 8.18372 9.59773C8.13023 9.65196 8.07675 9.65195 8.07675 9.70618L8.02326 9.7604C8.02326 9.7604 8.02326 9.81463 7.96977 9.81463C7.86279 9.86885 7.86279 9.9773 7.8093 10.0858C7.8093 10.1942 7.75581 10.3026 7.70233 10.4111C7.70233 10.5195 7.64884 10.628 7.59535 10.6822C7.59535 10.6822 7.59535 10.7364 7.54186 10.7364V10.7907C7.54186 10.8449 7.54186 10.8991 7.54186 10.9533C7.54186 11.0076 7.54186 11.0618 7.54186 11.116C7.54186 11.1702 7.54186 11.2245 7.54186 11.2787C7.54186 11.3329 7.54186 11.3871 7.54186 11.4414C7.54186 11.4956 7.54186 11.5498 7.48837 11.604C7.54186 11.7125 7.54186 11.8209 7.48837 11.8752C7.48837 11.9836 7.43488 12.0921 7.48837 12.1463C7.48837 12.2005 7.48837 12.2547 7.48837 12.309C7.48837 12.3632 7.48837 12.4174 7.54186 12.4716C7.54186 12.5801 7.59535 12.6343 7.59535 12.7428C7.54186 12.8512 7.59535 12.9596 7.59535 13.0139C7.59535 13.0681 7.64884 13.0681 7.70233 13.1223C7.75581 13.1765 7.75581 13.1765 7.8093 13.2308C7.86279 13.3934 8.07674 13.5019 8.02326 13.6646C8.07674 13.7188 8.07674 13.8272 8.13023 13.8815C8.18372 13.9357 8.23721 14.0441 8.2907 14.0441C8.34419 14.0984 8.34419 14.2068 8.39767 14.261C8.39767 14.3695 8.50465 14.4237 8.61163 14.3695C8.66512 14.4237 8.7186 14.4779 8.7186 14.5322C8.77209 14.5864 8.82558 14.6406 8.93256 14.6406C9.09302 14.6406 9.14651 14.8033 9.25349 14.8575L9.30698 14.9117C9.36047 14.9117 9.36047 14.966 9.41395 14.966C9.46744 15.0202 9.52093 15.0202 9.57442 15.0744C10.0558 15.3455 10.4837 15.454 10.7512 15.5082C11.0721 15.7251 11.286 15.7793 11.286 15.8335C11.286 15.8335 11.2326 15.8878 11.1256 15.8878C11.0721 15.8878 11.0186 15.8878 10.9116 15.8878C10.8581 15.8878 10.8581 15.8878 10.8047 15.8878C10.7512 15.8878 10.6977 15.8878 10.6442 15.8878C10.2698 15.8878 9.6814 15.7793 8.98605 15.454C8.87907 15.3997 8.66512 15.3997 8.61163 15.2371C8.55814 15.1829 8.45116 15.1829 8.39767 15.1286C8.34419 15.0744 8.23721 15.0202 8.23721 14.966C8.13023 14.966 8.02326 14.9117 7.96977 14.8575C7.91628 14.8033 7.86279 14.6948 7.8093 14.6406C7.75581 14.5864 7.70233 14.4779 7.64884 14.4237C7.59535 14.3695 7.54186 14.261 7.43488 14.2068C7.27442 14.0984 7.27442 13.8272 7.11395 13.6646C7.11395 13.6103 7.11395 13.5561 7.11395 13.5019C7.11395 13.4477 7.06047 13.3934 7.06047 13.3392C7.00698 13.2308 6.95349 13.1765 6.9 13.0681C6.9 12.9596 6.9 12.8512 6.84651 12.7428C6.84651 12.6885 6.79302 12.6343 6.79302 12.5801C6.79302 12.5259 6.73954 12.4716 6.73954 12.4174C6.79302 12.309 6.79302 12.2005 6.73954 12.0378C6.73954 11.9294 6.68605 11.8209 6.63256 11.7125C6.63256 11.6583 6.63256 11.604 6.63256 11.5498C6.63256 11.4956 6.63256 11.4414 6.63256 11.3871C6.63256 11.3329 6.63256 11.2787 6.63256 11.2245C6.63256 11.1702 6.63256 11.116 6.63256 11.0618C6.63256 11.0076 6.63256 10.9533 6.68605 10.8991V10.6822C6.68605 10.5738 6.73953 10.4111 6.79302 10.3026C6.79302 10.1942 6.84651 10.0315 6.84651 9.92308C6.9 9.81463 6.95349 9.70618 7.06047 9.59773C7.06047 9.54351 7.06047 9.54351 7.11395 9.48928C7.11395 9.43506 7.16744 9.43506 7.16744 9.38083C7.22093 9.32661 7.22093 9.27238 7.27442 9.21816C7.32791 9.10971 7.43488 9.00126 7.54186 8.89281C7.59535 8.83859 7.59535 8.78436 7.64884 8.73014C7.70233 8.67591 7.75581 8.62169 7.8093 8.56747L7.96977 8.40479C8.02326 8.35057 8.07674 8.29634 8.13023 8.24212C8.23721 8.13367 8.34419 8.07945 8.50465 8.02522C8.61163 7.971 8.71861 7.86255 8.82558 7.7541C9.03954 7.59143 9.36047 7.48298 9.57442 7.37453L9.78837 7.3203C9.84186 7.3203 9.94884 7.26608 10.0023 7.26608C10.1628 7.21185 10.2698 7.15763 10.4302 7.15763C10.5907 7.21185 10.7512 7.21185 10.8581 7.15763C11.0186 7.15763 11.1256 7.1034 11.286 7.04918C11.4465 7.04918 11.607 7.04918 11.714 7.04918C11.8744 7.04918 12.0349 7.10341 12.1419 7.15763C12.3023 7.15763 12.4093 7.21185 12.5698 7.26608C12.6233 7.26608 12.7302 7.3203 12.7837 7.3203L12.9977 7.42875C13.0512 7.42875 13.1581 7.48298 13.2116 7.48298C13.2651 7.5372 13.3186 7.5372 13.4256 7.59143L13.5326 7.64565C13.586 7.64565 13.586 7.69987 13.6395 7.69987C13.693 7.7541 13.7465 7.7541 13.8535 7.80832C14.014 7.86255 14.1209 7.971 14.2279 8.07945C14.3349 8.18789 14.4419 8.29634 14.5488 8.35057C14.6023 8.40479 14.6558 8.40479 14.7093 8.45902C14.7628 8.51324 14.8163 8.56747 14.8698 8.62169C14.9233 8.67591 14.9767 8.73014 14.9767 8.78436C15.0302 8.83859 15.0302 8.89281 15.0837 9.00126C15.1907 9.10971 15.2442 9.21816 15.2442 9.38083C15.2442 9.43506 15.2977 9.48928 15.3512 9.54351C15.3512 9.59773 15.4047 9.59773 15.4047 9.59773L15.4581 9.65196C15.5116 9.7604 15.6186 9.86885 15.7256 9.9773C15.7791 10.0858 15.8326 10.2484 15.7791 10.4111C15.8326 10.5195 15.8326 10.6822 15.8326 10.7907C15.8326 10.8449 15.8326 10.8449 15.8326 10.8991C15.8326 10.9533 15.8326 10.9533 15.8326 11.0076C15.8326 11.0618 15.8326 11.116 15.886 11.1702C15.8326 11.2245 15.8326 11.2787 15.8326 11.3871C15.8326 11.4414 15.8326 11.4956 15.8326 11.5498C15.8326 11.604 15.886 11.6583 15.886 11.7125C15.886 11.7667 15.886 11.8209 15.886 11.8752C15.886 11.9836 15.8326 12.0921 15.8326 12.2547C15.8326 12.3632 15.7791 12.4716 15.8326 12.5801C15.8326 12.6343 15.8326 12.6885 15.8326 12.7428C15.8326 12.797 15.7791 12.8512 15.7791 12.9054C15.7256 13.0139 15.6721 13.1223 15.6721 13.2308C15.6721 13.3392 15.6186 13.4477 15.5651 13.5561C15.5116 13.6103 15.5116 13.6646 15.4581 13.6646C15.4581 13.7188 15.4047 13.773 15.4047 13.8272C15.2977 13.9899 15.1907 14.2068 15.0837 14.3695C15.1372 14.5322 15.0302 14.5864 14.9767 14.6406C14.8698 14.6948 14.8163 14.7491 14.7093 14.8033C14.6558 14.8575 14.6023 14.966 14.5488 15.0202C14.4953 15.1286 14.4419 15.1829 14.3349 15.1829C14.3349 15.2913 14.2814 15.3455 14.1744 15.3997C14.0674 15.454 14.014 15.454 13.907 15.454C13.7465 15.5082 13.693 15.6709 13.5326 15.6709C13.5326 15.7251 13.4791 15.7251 13.4791 15.7793C13.4256 15.7793 13.4256 15.7793 13.3721 15.8335C13.3186 15.8335 13.2116 15.8335 13.1581 15.8878C12.9977 15.8878 12.8907 15.9962 12.7837 15.9962C12.7302 16.0504 12.6767 16.0504 12.6233 16.0504C12.5698 16.0504 12.5163 16.0504 12.4628 16.0504C12.3558 16.0504 12.2488 16.1047 12.1419 16.1047C11.9814 16.1047 11.8744 16.1047 11.7674 16.1047C11.6605 16.1047 11.5535 16.1047 11.5 16.1047C11.3395 15.8878 11.286 15.8335 11.286 15.8335Z" fill="#B2907C"/>
<path d="M9.46744 19.2497C9.52093 19.2497 9.52093 19.5208 9.57442 20.0631C9.57442 20.3342 9.62791 20.6595 9.62791 21.0933C9.62791 21.4729 9.62791 21.8525 9.6814 22.3405V22.3947C9.78837 22.3947 9.89535 22.3947 10.0023 22.3947C10.1628 22.3947 10.3233 22.3947 10.4837 22.3947C10.8581 22.3947 11.286 22.3405 11.714 22.3947C11.9279 22.4489 12.1419 22.3947 12.3558 22.3405H12.5163C12.5698 22.3405 12.5698 22.3405 12.6233 22.3405C12.6767 22.3405 12.7302 22.3405 12.8372 22.3947C12.8372 22.3405 12.8372 22.2863 12.8372 22.1778C12.8372 22.1236 12.8372 22.0694 12.8372 22.0694C12.8372 22.0151 12.8372 21.9609 12.8372 21.8525C12.8372 21.5813 12.8372 21.3102 12.7837 21.0391C12.7837 20.768 12.7837 20.4968 12.7837 20.2257C12.7837 20.0631 12.7837 19.9546 12.7837 19.7919C12.7837 19.6835 12.7837 19.575 12.7837 19.5208C12.7837 19.4124 12.7837 19.3039 12.7837 19.1955V19.087L12.8372 19.0328C12.8907 19.0328 12.9442 18.9786 12.9977 18.9786C13.1047 18.9243 13.2116 18.9243 13.3186 18.8701H13.586C13.6395 18.8701 13.7465 18.8159 13.8 18.8159C13.9605 18.7617 14.0674 18.7617 14.2279 18.7074C14.3349 18.6532 14.4953 18.5448 14.6023 18.4363L14.7093 18.3821C14.7628 18.3821 14.7628 18.3279 14.8163 18.3279L14.9233 18.2194L15.0837 18.111C15.1907 18.0567 15.2977 18.0025 15.4047 17.8941H15.4581L15.5116 17.9483L15.6721 18.0567C15.8326 18.2194 15.9395 18.3279 16.1 18.4905C16.207 18.599 16.314 18.7074 16.4209 18.8701C16.6349 19.1412 16.8488 19.4124 17.1163 19.6293C17.2233 19.7377 17.3837 19.8462 17.4907 19.9546C17.4907 19.9546 17.4907 19.9546 17.5442 19.9546L17.6512 20.0631V20.1173C17.7047 20.1173 17.7581 20.0631 17.8116 20.0088C17.8116 20.0088 17.8651 19.9546 17.9186 19.9546L18.0256 19.8462C18.0791 19.7919 18.1326 19.7377 18.186 19.6835C18.4 19.4124 18.6674 19.1412 18.8814 18.8701C19.0953 18.7617 19.3093 18.599 19.5233 18.4363C19.5767 18.3821 19.6302 18.3279 19.6837 18.3279L19.7907 18.2194C19.8442 18.1652 19.8977 18.111 19.8977 18.0567C19.7907 18.0025 19.7372 17.9483 19.6837 17.9483C19.6302 17.9483 19.6302 17.9483 19.5767 17.8941H19.5233L19.4698 17.8398C19.2023 17.5687 18.9349 17.2976 18.6674 16.9723C18.507 16.8096 18.4 16.7011 18.2395 16.5385C18.186 16.4842 18.0791 16.3758 18.0256 16.3216C17.9186 16.2131 17.8116 16.1047 17.7047 15.9962L17.5442 15.8335L17.4372 15.7793V15.7251L17.4907 15.6166C17.5977 15.454 17.6512 15.2913 17.7581 15.1829L17.8116 15.0202C17.8116 14.966 17.8651 14.9117 17.8651 14.9117C17.9186 14.8033 17.9186 14.7491 17.9721 14.6406C18.0791 14.4779 18.1326 14.261 18.186 14.0984C18.2395 13.9899 18.2395 13.9357 18.293 13.8272C18.3465 13.6646 18.4 13.5561 18.4 13.3934L18.4535 13.1223L18.507 12.9596C18.5605 12.9596 18.614 12.9596 18.614 12.9596C18.7744 12.9596 18.9884 12.9596 19.2023 12.9054H19.5233C19.6302 12.9054 19.7372 12.9054 19.8442 12.9054C20.2721 12.9054 20.7 12.9596 21.1279 13.0139C21.1814 13.0139 21.2884 13.0139 21.3419 12.9596H21.5558C21.5558 12.9596 21.5558 12.9596 21.5558 12.9054V12.6343C21.5558 12.3632 21.6093 12.0921 21.6093 11.7667C21.6628 11.4414 21.6093 11.116 21.6093 10.7907V10.3569C21.6093 10.3026 21.6093 10.3026 21.6093 10.3026H21.5558C21.5023 10.3026 21.4488 10.3026 21.3419 10.3026C20.8605 10.3026 20.4326 10.3026 19.9512 10.3026C19.7372 10.3026 19.4698 10.3026 19.2558 10.3026C19.0419 10.3026 18.8279 10.3026 18.614 10.3026H18.507L18.293 9.65196V9.54351L18.2395 9.38083L18.186 8.89281L18.1326 8.73014V8.62169L18.0791 8.56747L17.9186 8.07945L17.8116 7.91677L17.6512 7.69987L17.4907 7.42875L17.4372 7.37453V7.3203L17.9186 6.83228C17.9186 6.83228 17.9186 6.83228 17.9721 6.77806L18.0791 6.61539C18.4 6.29004 18.6674 5.96469 18.9884 5.63934C19.1488 5.47667 19.3093 5.314 19.4698 5.15132L19.5233 5.0971H19.5767C19.5767 5.0971 19.5767 5.0971 19.5767 5.04288H19.5233L19.4163 4.93443C19.3093 4.8802 19.2023 4.77175 19.1488 4.6633C18.9884 4.50063 18.7744 4.33796 18.614 4.12106C18.4535 3.95839 18.293 3.74149 18.1326 3.57881L17.8651 3.30769H17.7581L17.7047 3.25347C17.7047 3.25347 17.7047 3.25347 17.7047 3.19924C17.7047 3.19924 17.7047 3.19924 17.6512 3.14502C17.6512 3.14502 17.6512 3.14502 17.5977 3.19924C17.5977 3.19924 17.5977 3.19924 17.4907 3.30769C17.3302 3.47037 17.1698 3.63304 17.0093 3.79571C16.6884 4.12106 16.3674 4.44641 16.1 4.77175L15.4047 5.47667H15.3512L15.2977 5.42245L15.1372 5.314C14.9767 5.20555 14.8163 5.15132 14.6558 5.04288C14.5488 4.93443 14.4419 4.8802 14.3349 4.82598L14.1744 4.77175L13.9605 4.6633C13.8535 4.60908 13.7465 4.55486 13.6395 4.55486C13.586 4.55486 13.5326 4.50063 13.4791 4.50063L13.2651 4.44641C13.0512 4.39218 12.7837 4.28373 12.5698 4.22951C12.5698 4.01261 12.5698 3.74149 12.5698 3.52459V3.09079C12.5698 2.81967 12.5698 2.54855 12.5698 2.33165C12.5698 2.06053 12.5698 1.78941 12.5698 1.57251C12.5698 1.46406 12.5698 1.30139 12.5698 1.19294H12.3558C12.1419 1.19294 11.8744 1.19294 11.6605 1.19294C11.1791 1.19294 10.6977 1.13871 10.2698 1.19294C10.2163 1.19294 10.1628 1.19294 10.0558 1.19294C10.0023 1.19294 10.0023 1.19294 9.94884 1.19294C9.94884 1.24716 9.94884 1.30139 9.94884 1.35561C9.94884 1.51829 9.94884 1.73518 9.94884 1.89786C9.94884 2.27743 10.0023 2.657 9.94884 3.03657C9.94884 3.14502 9.94884 3.30769 9.94884 3.41614C9.94884 3.57881 9.94884 3.74149 9.94884 3.84994V4.44641H9.89535C9.62791 4.28373 9.41395 4.33796 9.2 4.39218L9.03953 4.44641C8.98605 4.44641 8.93256 4.50063 8.87907 4.50063L8.55814 4.60908C8.45116 4.6633 8.34419 4.71753 8.23721 4.77175C8.13023 4.82598 8.02326 4.8802 7.91628 4.93443C7.75581 4.98865 7.64884 5.0971 7.48837 5.15132L7.22093 5.314L7.06047 5.42245L6.95349 5.314C6.68605 5.0971 6.47209 4.82598 6.25814 4.60908C5.93721 4.28373 5.61628 3.90416 5.29535 3.57881C5.18837 3.52459 5.13488 3.47037 5.0814 3.41614C5.02791 3.36192 4.97442 3.36192 4.97442 3.30769L4.92093 3.25347C4.92093 3.25347 4.92093 3.25347 4.86744 3.25347L4.76047 3.30769L4.6 3.41614C4.33256 3.63304 4.1186 3.79571 3.95814 4.01261C3.6907 4.22951 3.47674 4.44641 3.26279 4.6633L3.10233 4.8802L2.99535 4.93443L2.88837 5.04288C2.94186 5.04288 2.94186 5.0971 2.94186 5.0971L2.99535 5.15132L3.2093 5.314C3.53023 5.63934 3.85116 5.96469 4.1186 6.29004C4.27907 6.45271 4.43954 6.61539 4.54651 6.77806L5.0814 7.3203C5.0814 7.3203 5.0814 7.3203 5.0814 7.37453L4.97442 7.64565C4.86744 7.80832 4.81395 7.91677 4.70698 8.07945C4.65349 8.18789 4.6 8.24212 4.6 8.35057C4.54651 8.51324 4.43954 8.73014 4.38605 8.89281C4.33256 9.00126 4.33256 9.10971 4.27907 9.16393C4.27907 9.21816 4.22558 9.27238 4.22558 9.32661L4.17209 9.48928C4.1186 9.65196 4.06512 9.86885 4.01163 10.0315L3.95814 10.14C3.90465 10.14 3.85116 10.14 3.79767 10.14H3.53023C3.42326 10.14 3.36977 10.14 3.26279 10.14H3.10233C2.99535 10.14 2.88837 10.14 2.7814 10.14C2.56744 10.14 2.35349 10.14 2.19302 10.0858C1.76512 10.0858 1.3907 10.0315 0.962791 10.0858C0.909302 10.0858 0.855814 10.0858 0.802326 10.0858C0.802326 10.2484 0.802326 10.4111 0.802326 10.5738C0.802326 10.8991 0.802326 11.1702 0.802326 11.4414C0.748837 11.7667 0.695349 12.0921 0.695349 12.3632C0.695349 12.4174 0.695349 12.5259 0.695349 12.5801V12.6885C0.695349 12.7427 0.695349 12.7428 0.695349 12.7428C0.695349 12.797 0.695349 12.8512 0.748837 12.9054C0.802326 12.9054 0.855814 12.9054 0.909302 12.9054H1.06977C1.17674 12.9054 1.23023 12.9054 1.33721 12.9054C1.49767 12.9054 1.71163 12.9054 1.87209 12.9054C2.24651 12.9054 2.56744 12.9054 2.94186 12.9596C3.15581 12.9596 3.36977 12.9596 3.58372 12.9596H3.79767C3.85116 12.9596 3.85116 12.9596 3.90465 12.9596V13.0681C3.95814 13.1765 3.95814 13.3392 4.01163 13.4477C4.01163 13.5561 4.06512 13.6646 4.06512 13.7188C4.06512 13.773 4.1186 13.8815 4.1186 13.9357C4.17209 14.0984 4.22558 14.261 4.33256 14.3695C4.38605 14.5322 4.43953 14.6406 4.49302 14.8033C4.49302 14.8575 4.54651 14.966 4.6 15.0202C4.65349 15.1286 4.70698 15.2371 4.76047 15.3455L4.81395 15.6709L4.86744 15.7251L4.81395 15.7793C4.70698 15.8335 4.65349 15.942 4.6 15.9962C4.54651 16.0504 4.54651 16.0504 4.49302 16.1047V16.1589L4.43954 16.2131C4.38605 16.3216 4.33256 16.3758 4.27907 16.43C3.85116 16.918 3.31628 17.1892 2.99535 17.6772L2.88837 17.7856V17.8398C2.88837 17.8398 2.88837 17.8941 2.83488 17.8941C2.7814 17.9483 2.7814 17.9483 2.72791 18.0025C2.7814 18.0567 2.7814 18.111 2.83488 18.1652L2.88837 18.2736C2.94186 18.3279 2.99535 18.3821 3.04884 18.4363C3.42326 18.8159 3.79767 19.1955 4.1186 19.5208C4.27907 19.6835 4.38605 19.7919 4.54651 19.9546C4.65349 20.0631 4.70698 20.1173 4.76047 20.2257C4.86744 20.1173 4.97442 20.0088 5.0814 19.9004C5.24186 19.7377 5.40233 19.575 5.56279 19.4666C5.88372 19.1955 6.15116 18.9243 6.4186 18.6532C6.57907 18.5448 6.68605 18.3821 6.79302 18.2736C6.84651 18.2194 6.95349 18.111 7.00698 18.0567L7.06047 18.0025L7.11395 18.0567C7.16744 18.0567 7.22093 18.111 7.22093 18.111C7.3814 18.2194 7.48837 18.2736 7.64884 18.3821C7.75581 18.4363 7.86279 18.4905 7.96977 18.5448C8.18372 18.6532 8.39767 18.7617 8.55814 18.8159C8.66512 18.8701 8.71861 18.8701 8.77209 18.9243C8.82558 18.9243 8.93256 18.9786 8.98605 18.9786C9.36047 19.1955 9.46744 19.2497 9.46744 19.2497C9.46744 19.2497 9.36047 19.2497 9.09302 19.1955C9.03954 19.1955 8.98605 19.1412 8.87907 19.1412C8.82558 19.1412 8.71861 19.087 8.61163 19.087C8.45116 19.0328 8.23721 18.9786 7.96977 18.8701C7.86279 18.8159 7.75581 18.7617 7.59535 18.7074C7.48837 18.6532 7.3814 18.599 7.27442 18.5448C7.27442 18.5448 7.22093 18.5448 7.22093 18.4905H7.16744C7.16744 18.4905 7.16744 18.4905 7.11395 18.5448C7.06047 18.599 7.06047 18.6532 7.00698 18.6532C6.95349 18.7074 6.9 18.7617 6.84651 18.8159C6.79302 18.8701 6.73954 18.9243 6.68605 19.0328C6.4186 19.3039 6.15116 19.575 5.88372 19.8462C5.72326 20.0088 5.61628 20.1715 5.45581 20.3342C5.24186 20.5511 5.02791 20.768 4.81395 20.9849C4.17209 20.3342 3.47674 19.6835 2.72791 18.9243C2.67442 18.8701 2.62093 18.8159 2.56744 18.7617L2.46047 18.7074L2.35349 18.599C2.19302 18.4363 1.97907 18.2736 1.76512 18.0567C1.87209 17.8941 2.03256 17.7856 2.19302 17.623C2.24651 17.5687 2.35349 17.5145 2.40698 17.4061C2.40698 17.4061 2.46047 17.4061 2.46047 17.3518L2.56744 17.2434C2.99535 16.8096 3.31628 16.3216 3.79767 15.942C3.85116 15.8878 3.90465 15.8335 3.90465 15.7251L4.01163 15.7793C4.01163 15.7793 4.01163 15.7793 4.01163 15.7251C4.01163 15.7251 4.01163 15.6709 4.06512 15.6709C4.06512 15.6709 4.06512 15.6709 4.06512 15.6166V15.5082C4.01163 15.454 4.01163 15.3455 3.95814 15.2913C3.90465 15.1286 3.85116 14.966 3.74419 14.8033C3.6907 14.6406 3.63721 14.4779 3.58372 14.3153C3.53023 14.2068 3.53023 14.1526 3.47674 14.0441C3.47674 13.9899 3.42326 13.9357 3.42326 13.8272L3.36977 13.7188H3.2093C3.10233 13.7188 3.04884 13.7188 2.94186 13.7188C2.62093 13.773 2.24651 13.773 1.87209 13.7188C1.71163 13.7188 1.49767 13.7188 1.33721 13.7188C1.23023 13.7188 1.17674 13.7188 1.06977 13.7188C0.962791 13.7188 0.802326 13.7188 0.695349 13.7188C0.481395 13.7188 0.267442 13.6646 0.0534884 13.6646C0.0534884 13.3934 0.0534884 13.1765 0.0534884 12.9054C0.0534884 12.797 0.0534884 12.6885 0.0534884 12.6343C0.0534884 12.5801 0.0534884 12.4716 0.0534884 12.4174C0.0534884 12.0921 0 11.7667 0 11.4956C0.0534884 11.2245 0.0534884 10.8991 0.0534884 10.628C0.0534884 10.1942 0.0534884 9.7604 0 9.32661C0.160465 9.32661 0.32093 9.32661 0.481395 9.32661C0.64186 9.32661 0.802326 9.32661 0.962791 9.32661C1.33721 9.38083 1.76512 9.43506 2.19302 9.38083C2.40698 9.38083 2.62093 9.38083 2.7814 9.32661C2.88837 9.32661 2.99535 9.32661 3.10233 9.32661H3.31628V9.27238L3.36977 9.10971C3.36977 9.05549 3.42326 9.00126 3.42326 8.94704C3.47674 8.83859 3.47674 8.73014 3.53023 8.62169C3.58372 8.40479 3.6907 8.18789 3.79767 8.02522C3.85116 7.91677 3.90465 7.80832 3.95814 7.69987L4.01163 7.64565C4.01163 7.64565 4.01163 7.64565 4.01163 7.59143V7.5372L3.95814 7.48298C3.79767 7.3203 3.63721 7.15763 3.47674 7.04918C3.15581 6.72383 2.83488 6.45271 2.51395 6.12737L2.24651 5.85624L2.13953 5.63934C1.97907 5.42245 1.76512 5.25977 1.60465 5.04288C1.8186 4.82598 2.03256 4.60908 2.24651 4.39218L2.62093 4.01261C2.83488 3.79571 3.10233 3.57881 3.31628 3.36192C3.47674 3.14502 3.6907 2.98235 3.90465 2.76545C4.22558 2.4401 4.54651 2.11475 4.86744 1.78941C5.24186 2.16898 5.56279 2.54855 5.93721 2.8739C6.31163 3.19924 6.63256 3.52459 6.95349 3.84994L7.22093 4.12106L7.27442 4.06683C7.32791 4.01261 7.3814 4.01261 7.43488 3.95839C7.54186 3.90416 7.64884 3.84994 7.75581 3.79571C7.86279 3.74149 7.96977 3.68726 8.13023 3.63304C8.23721 3.57881 8.39767 3.57881 8.50465 3.52459C8.55814 3.52459 8.61163 3.47037 8.66512 3.47037L8.82558 3.41614C8.87907 3.41614 8.87907 3.41614 8.93256 3.41614V3.25347C8.93256 3.19924 8.93256 3.14502 8.93256 3.09079C8.93256 2.98235 8.93256 2.81967 8.87907 2.71122C8.87907 2.33165 8.87907 1.95208 8.87907 1.57251C8.87907 1.40984 8.87907 1.19294 8.87907 1.03026C8.87907 0.704918 8.87907 0.325347 8.87907 0C9.09302 0 9.36047 0 9.57442 0H10.1093C10.5907 0 11.0721 0 11.5 0C11.714 0 11.9814 0 12.1953 0C12.5698 0 12.9977 0 13.3721 0C13.3721 0.108449 13.3721 0.216898 13.3721 0.325347C13.3721 0.433796 13.3721 0.596469 13.3721 0.704918V1.03026C13.3721 1.13871 13.3721 1.30139 13.3721 1.40984C13.3721 1.68096 13.3721 1.95208 13.3721 2.16898C13.3721 2.4401 13.3721 2.71122 13.4256 2.92812V3.25347C13.4256 3.30769 13.4256 3.30769 13.4256 3.30769V3.36192H13.6395C13.693 3.36192 13.7465 3.41614 13.8535 3.41614L14.2279 3.57881L14.4419 3.74149L14.5488 3.79571L14.7093 3.90416C14.8163 3.95839 14.9767 4.01261 15.0837 4.06683L15.1907 4.12106H15.2442C15.2442 4.12106 15.2977 4.12106 15.2977 4.06683L15.3512 4.01261C15.6721 3.68726 15.993 3.36192 16.314 3.03657C16.7953 2.657 17.2233 2.2232 17.6512 1.78941C17.8116 1.95208 17.9721 2.11475 18.1326 2.27743C18.293 2.38588 18.4 2.54855 18.5605 2.657C18.6674 2.76545 18.7209 2.81967 18.8279 2.92812C18.9884 3.09079 19.1488 3.30769 19.3628 3.47037C19.5233 3.63304 19.6837 3.84994 19.8977 4.01261C20.0047 4.12106 20.0581 4.17528 20.1651 4.28373L20.593 4.71753C20.7535 4.82598 20.8605 4.98865 21.0209 5.0971C20.8605 5.25977 20.7535 5.42245 20.593 5.5309L20.2186 5.91047C20.0581 6.07314 19.8977 6.23581 19.7372 6.34426C19.4163 6.66961 19.0954 6.94073 18.8279 7.26608L18.6674 7.42875L18.8814 7.7541C18.9349 7.86255 18.9884 7.971 19.0419 8.07945L19.1488 8.29634L19.2023 8.45902C19.2558 8.56747 19.2558 8.67592 19.3093 8.83859L19.3628 9.00126C19.3628 9.00126 19.3628 9.00126 19.3628 9.05549H19.4163C19.6302 9.05549 19.8977 9.05549 20.1116 9.10971C20.593 9.10971 21.0209 9.10971 21.5023 9.05549C21.9302 9.05549 22.3581 9.00126 22.786 9.00126C22.786 9.32661 22.786 9.59773 22.8395 9.92308V10.1942C22.8395 10.3026 22.8395 10.3569 22.8395 10.4653C22.8395 10.7907 22.786 11.116 22.7326 11.4414C22.7326 11.7125 22.7326 11.9836 22.7326 12.309V12.8512C22.7326 13.0681 22.7326 13.3392 22.7326 13.5561C22.4651 13.5561 22.1442 13.5561 21.8767 13.5561H21.6093C21.5558 13.5561 21.4488 13.5561 21.3953 13.5561C20.9674 13.5019 20.5395 13.4477 20.1116 13.5019C20.0047 13.5019 19.8977 13.5019 19.7907 13.5019H19.5233C19.4698 13.5019 19.4698 13.5019 19.4698 13.5019C19.4698 13.5019 19.4698 13.5019 19.4698 13.5561V13.7188C19.4163 13.8272 19.4163 13.9357 19.3628 14.0441C19.2558 14.261 19.2023 14.4779 19.0954 14.6406C19.0419 14.7491 18.9884 14.8575 18.9349 14.9117C18.9349 14.966 18.8814 15.0202 18.8814 15.0744L18.8279 15.1829C18.8279 15.2371 18.7209 15.2913 18.8279 15.3455H18.8814L18.9349 15.3997C18.9884 15.454 19.0953 15.5624 19.1488 15.6166C19.3093 15.7793 19.4163 15.8878 19.5767 16.0504C19.8442 16.3216 20.1116 16.6469 20.3791 16.918L20.486 17.0265C20.5395 17.0807 20.6465 17.1892 20.7 17.2434C20.8605 17.4061 21.0209 17.5687 21.1279 17.6772C20.9674 17.8398 20.807 18.0025 20.6465 18.1652C20.593 18.2194 20.486 18.3279 20.4326 18.3821L20.2721 18.4905C20.0581 18.6532 19.8977 18.8701 19.7372 19.0328C19.4698 19.3039 19.2558 19.5208 18.9884 19.7919C18.8814 19.9004 18.7209 20.0631 18.614 20.1715C18.4 20.3884 18.186 20.5511 18.0256 20.768L17.9721 20.7137C17.8651 20.6595 17.7581 20.5511 17.6512 20.4426C17.5977 20.3884 17.5442 20.3342 17.4907 20.2799C17.4372 20.2257 17.3837 20.1715 17.3302 20.1173C17.2233 20.0088 17.0628 19.9004 16.9558 19.7377C16.7419 19.4666 16.5279 19.1955 16.314 18.9243C16.207 18.8159 16.1 18.7074 15.9395 18.599C15.886 18.5448 15.8326 18.4905 15.7791 18.4363H15.6721C15.6721 18.4363 15.6721 18.4363 15.6186 18.4363C15.6186 18.4363 15.5651 18.4363 15.5651 18.4905C15.5651 18.4905 15.5651 18.4905 15.5116 18.4905H15.4047C15.3512 18.4905 15.3512 18.5448 15.2977 18.5448C15.2442 18.5448 15.1907 18.5448 15.1907 18.599C15.0837 18.7074 14.9233 18.8159 14.7628 18.8701C14.6023 18.9243 14.4419 18.9786 14.3349 19.0328C14.2814 19.0328 14.1744 19.087 14.1209 19.087H13.9605C13.907 19.087 13.907 19.087 13.8535 19.087H13.7465C13.7465 19.1412 13.7465 19.1412 13.7465 19.1955V19.3039C13.7465 19.4666 13.7465 19.575 13.7465 19.7377C13.7465 20.0088 13.7465 20.2799 13.693 20.5511C13.7465 20.8222 13.7465 21.0933 13.693 21.3644C13.693 21.4187 13.693 21.4729 13.693 21.5813V21.8525C13.693 22.0151 13.693 22.232 13.693 22.3947V22.4489C13.4791 22.4489 13.3186 22.4489 13.1581 22.3947C13.0512 22.3947 12.9977 22.3947 12.8907 22.3947C12.8372 22.3947 12.7837 22.3947 12.7302 22.3947C12.5163 22.3947 12.3023 22.3947 12.0884 22.3947C11.6605 22.3947 11.2326 22.3947 10.8581 22.3947C10.4302 22.3947 10.0558 22.3947 9.6814 22.3947C9.6814 22.3405 9.6814 22.2863 9.6814 22.2863C9.6814 21.9609 9.6814 21.6898 9.6814 21.4187C9.6814 21.2018 9.6814 20.9849 9.6814 20.768C9.6814 20.3884 9.6814 20.0088 9.73488 19.7377C9.41395 19.5208 9.41395 19.2497 9.46744 19.2497Z" fill="#B2907C"/>
<path d="M32.8954 28.6847C32.8954 28.6305 33.0023 28.6305 33.1628 28.5763C33.2163 28.5763 33.3233 28.5221 33.4302 28.5221C33.5372 28.4678 33.6977 28.4678 33.8047 28.4136C33.9116 28.3594 34.0186 28.3594 34.1256 28.3052C34.1791 28.3052 34.2326 28.2509 34.286 28.2509C34.3395 28.2509 34.393 28.1967 34.4465 28.1967C34.607 28.1967 34.6605 27.9798 34.8209 28.034C34.8744 28.034 34.9814 27.9798 35.0349 27.9256C35.0884 27.9256 35.0884 27.8714 35.1419 27.8714C35.1953 27.8714 35.1954 27.8172 35.2488 27.8172C35.3558 27.7087 35.5698 27.7087 35.6233 27.546C35.6233 27.4376 35.7302 27.4376 35.8372 27.3834C35.9442 27.3834 35.9977 27.3291 35.9977 27.1665C36.0512 27.1122 36.1047 27.0038 36.1581 26.9496C36.2116 26.8953 36.2651 26.8411 36.3721 26.7327C36.4791 26.6784 36.5326 26.6242 36.586 26.5158C36.6395 26.4073 36.6395 26.3531 36.693 26.2446C36.907 26.1362 36.9605 25.9193 36.9605 25.7024C37.014 25.7024 37.0674 25.6482 37.1209 25.5939C37.1744 25.5397 37.1744 25.4855 37.2279 25.4313C37.2814 25.3228 37.2279 25.2144 37.2279 25.0517C37.2814 24.9433 37.2814 24.8348 37.3349 24.7264C37.3349 24.6721 37.3884 24.6179 37.3884 24.5637C37.3884 24.5095 37.3884 24.4552 37.3884 24.401C37.3884 24.2926 37.3884 24.1841 37.3884 24.0757C37.3884 23.9672 37.3884 23.8588 37.4419 23.7503C37.4419 23.6961 37.3884 23.6419 37.3884 23.5876C37.3884 23.5334 37.3349 23.4792 37.3349 23.425C37.3349 23.3707 37.3349 23.3165 37.3349 23.2623C37.3349 23.2081 37.3349 23.1538 37.3884 23.0996C37.3349 23.0454 37.3349 22.9912 37.2814 22.9369C37.2814 22.8827 37.2814 22.8827 37.2814 22.8285C37.2814 22.7743 37.2814 22.7743 37.2814 22.7201C37.2814 22.6116 37.2814 22.4489 37.2814 22.3405C37.2814 22.232 37.2279 22.1236 37.1209 22.0151C36.9605 21.8525 36.907 21.744 36.907 21.5813L36.8535 21.4729C36.8535 21.4187 36.8 21.4187 36.8 21.3644C36.7465 21.3102 36.7465 21.256 36.693 21.2018C36.6395 21.0933 36.5326 20.9849 36.4791 20.8764C36.4256 20.8222 36.4256 20.768 36.3721 20.7137C36.3186 20.6595 36.3186 20.6053 36.2651 20.5511C36.2116 20.4968 36.1581 20.4426 36.1047 20.3884C36.0512 20.3342 35.9977 20.3342 35.8907 20.2799C35.7837 20.2257 35.6767 20.1173 35.5698 20.0631C35.4628 20.0088 35.3558 19.9004 35.2488 19.7919C34.9279 19.7919 34.7674 19.575 34.5 19.4124C34.4465 19.4124 34.393 19.3581 34.286 19.3581C34.2326 19.3039 34.1791 19.3039 34.0721 19.2497C33.9651 19.1955 33.8047 19.1412 33.6442 19.1955C33.4837 19.1412 33.3767 19.1412 33.2163 19.1412C33.0558 19.1412 32.9488 19.1412 32.7884 19.087C32.6279 19.087 32.5209 19.0328 32.3605 19.0328C32.2 19.0328 32.093 19.087 31.9326 19.1412C31.8256 19.1955 31.6651 19.2497 31.5047 19.2497C31.4512 19.2497 31.3442 19.2497 31.2907 19.3039C31.2372 19.3039 31.1837 19.3581 31.0767 19.3581C31.0233 19.3581 31.0233 19.3581 30.9698 19.3581C30.9163 19.3581 30.9163 19.3581 30.8628 19.4124C30.8093 19.4666 30.7558 19.4666 30.7023 19.5208L30.4884 19.6293C30.4349 19.6835 30.3814 19.7377 30.3279 19.7377C30.2209 19.7919 30.114 19.9004 29.9535 19.9546C29.8465 20.0088 29.7395 20.1173 29.6326 20.2257C29.5791 20.28 29.5256 20.3342 29.4721 20.3884C29.4186 20.4426 29.3651 20.4968 29.3651 20.5511C29.3116 20.6053 29.2581 20.6595 29.2047 20.7137C29.1512 20.768 29.0977 20.8222 29.0442 20.8764C29.0442 21.0391 28.9372 21.1475 28.8837 21.256C28.8302 21.3102 28.7767 21.3644 28.7233 21.4187L28.6698 21.4729C28.6698 21.5271 28.6163 21.5271 28.6163 21.5813C28.5093 21.6898 28.4558 21.7982 28.4023 21.9067C28.3488 22.0151 28.3488 22.1778 28.2954 22.2863C28.2954 22.3947 28.2419 22.5032 28.1884 22.6658C28.1884 22.7201 28.1884 22.7201 28.1349 22.7743C28.1349 22.8285 28.1349 22.8285 28.1349 22.8827C28.1349 22.9369 28.1349 22.9912 28.1349 23.0454C28.1349 23.0996 28.1349 23.1538 28.1349 23.2081C28.1349 23.2623 28.1349 23.3165 28.1349 23.3707C28.1349 23.425 28.1349 23.4792 28.1349 23.5334C28.1349 23.5876 28.1349 23.6419 28.0814 23.6961C28.1349 23.8045 28.1349 23.913 28.0814 24.0214C28.0814 24.1299 28.0814 24.2383 28.1349 24.3468C28.1349 24.401 28.1349 24.4552 28.1349 24.5095C28.1349 24.5637 28.1884 24.6179 28.1884 24.6721C28.2419 24.7806 28.2419 24.889 28.2419 24.9975C28.1884 25.1059 28.2419 25.2144 28.2954 25.3228C28.2954 25.377 28.3488 25.4313 28.4023 25.4855C28.4558 25.5397 28.4558 25.5939 28.5093 25.5939C28.5628 25.8108 28.7767 25.9193 28.7767 26.1362C28.8302 26.2446 28.8837 26.2989 28.9372 26.4073C28.9907 26.5158 29.0442 26.57 29.1512 26.6242C29.2047 26.6784 29.2581 26.7869 29.2581 26.8953C29.3116 27.0038 29.3651 27.058 29.5256 27.058C29.5791 27.1122 29.6326 27.2207 29.686 27.2749C29.7395 27.3291 29.793 27.4376 29.9 27.3834C30.114 27.3834 30.1674 27.6003 30.2744 27.6545C30.3279 27.6545 30.3279 27.7087 30.3814 27.7087C30.4349 27.7087 30.4349 27.7629 30.4884 27.7629C30.5419 27.8172 30.5954 27.8172 30.7023 27.8714C31.2907 28.1967 31.7721 28.3052 32.093 28.4136C32.6814 28.5763 32.8954 28.6305 32.8954 28.6847C32.8954 28.6847 32.8419 28.739 32.7349 28.739C32.6814 28.739 32.6279 28.739 32.5209 28.739C32.4674 28.739 32.414 28.739 32.3605 28.739C32.307 28.739 32.2535 28.739 32.2 28.739C31.7721 28.739 31.0767 28.6305 30.2744 28.1967C30.114 28.0883 29.9 28.1425 29.793 27.9256C29.7395 27.8714 29.6326 27.8172 29.5256 27.7629C29.4186 27.7087 29.3651 27.6545 29.3116 27.546C29.2047 27.546 29.0977 27.4918 29.0442 27.3834C28.9907 27.2749 28.9372 27.1665 28.8837 27.1122C28.8302 27.058 28.7233 26.9496 28.6698 26.8411C28.6163 26.7327 28.5093 26.6784 28.4558 26.57C28.2419 26.4073 28.2419 26.1362 28.0814 25.9735C28.0814 25.9193 28.0814 25.8651 28.0279 25.8108C28.0279 25.7566 27.9744 25.7024 27.9744 25.6482C27.9209 25.5397 27.8674 25.4313 27.7605 25.3228C27.7605 25.2144 27.707 25.0517 27.707 24.9433C27.707 24.889 27.6535 24.8348 27.6535 24.7806C27.6535 24.7264 27.6 24.6721 27.6 24.5637C27.6535 24.401 27.6535 24.2926 27.6 24.1299C27.6 24.0214 27.5465 23.8588 27.493 23.6961C27.493 23.6419 27.493 23.5334 27.493 23.4792C27.493 23.425 27.493 23.3165 27.493 23.2623C27.493 23.2081 27.493 23.0996 27.493 23.0454C27.493 22.9912 27.493 22.8827 27.493 22.8285C27.493 22.7743 27.5465 22.6658 27.5465 22.6116V22.3947C27.6 22.232 27.6 22.1236 27.6535 21.9609C27.6535 21.7982 27.707 21.6356 27.7605 21.5271C27.814 21.3644 27.9209 21.256 27.9744 21.1475C27.9744 21.0933 27.9744 21.0933 28.0279 21.0391C28.0279 20.9849 28.0814 20.9849 28.0814 20.9306C28.1349 20.8764 28.1349 20.768 28.1884 20.7137C28.2419 20.5511 28.3488 20.4426 28.4558 20.3342C28.5093 20.28 28.5093 20.1715 28.5628 20.1173C28.6163 20.0631 28.6698 20.0088 28.7233 19.9546C28.7767 19.9004 28.8302 19.8462 28.8837 19.7919C28.9372 19.7377 28.9907 19.6835 29.0442 19.6293C29.1512 19.5208 29.3116 19.4124 29.4186 19.3581C29.5791 19.3039 29.686 19.1955 29.793 19.0328C30.0605 18.8159 30.3814 18.7074 30.7023 18.5448L30.9698 18.4905C31.0767 18.4905 31.1302 18.4363 31.2372 18.4363C31.3977 18.3821 31.5581 18.3279 31.7186 18.2736C31.8791 18.3279 32.093 18.3279 32.2535 18.2736C32.414 18.2736 32.5744 18.2194 32.7884 18.1652C32.9488 18.1652 33.1628 18.1652 33.3233 18.1652C33.4837 18.1652 33.6442 18.2194 33.8581 18.2736C34.0186 18.2736 34.1791 18.3279 34.3395 18.3821C34.4465 18.3821 34.5 18.4363 34.5535 18.4905C34.607 18.5448 34.714 18.5448 34.7674 18.599C34.8209 18.599 34.8744 18.599 34.8744 18.6532C34.9279 18.6532 34.9279 18.7074 34.9814 18.7074C35.0349 18.7617 35.1419 18.8159 35.1954 18.8159L35.3023 18.8701C35.3558 18.8701 35.3558 18.9243 35.4093 18.9243C35.4628 18.9786 35.5698 19.0328 35.6233 19.0328C35.7837 19.087 35.8907 19.1955 36.0512 19.3039C36.1581 19.4124 36.2651 19.5208 36.4256 19.6293C36.4791 19.6835 36.586 19.7377 36.6395 19.7919C36.693 19.8462 36.7465 19.9004 36.8 19.9546C36.8535 20.0088 36.907 20.0631 36.9605 20.1173C37.014 20.1715 37.0674 20.28 37.0674 20.3342C37.1744 20.4426 37.2279 20.6053 37.2814 20.768C37.3349 20.8222 37.3349 20.9306 37.3884 20.9849C37.3884 21.0391 37.4419 21.0391 37.4419 21.0933C37.4419 21.1475 37.4953 21.1475 37.5488 21.2018C37.6023 21.3102 37.7628 21.4729 37.8163 21.5813C37.8698 21.744 37.9233 21.8525 37.8698 22.0694C37.9233 22.232 37.9233 22.3405 37.9767 22.5032C37.9767 22.5574 37.9767 22.5574 37.9767 22.6116C37.9767 22.6658 37.9767 22.6658 37.9767 22.7201C37.9767 22.7743 38.0302 22.8827 38.0302 22.9369C37.9767 22.9912 37.9767 23.0996 37.9767 23.1538C37.9767 23.2081 37.9767 23.3165 37.9767 23.3707C37.9767 23.425 38.0302 23.5334 38.0302 23.5876C38.0302 23.6419 38.0837 23.7503 38.0302 23.8045C38.0302 23.9672 37.9767 24.0757 37.9767 24.2383C37.9767 24.3468 37.9233 24.5095 37.9767 24.6721C37.9767 24.7264 37.9767 24.8348 37.9767 24.889C37.9767 24.9433 37.9233 24.9975 37.9233 25.1059C37.8698 25.2144 37.8163 25.3771 37.8163 25.4855C37.8163 25.5939 37.7628 25.7566 37.6558 25.8651C37.6023 25.9193 37.6023 25.9735 37.5488 26.0277C37.4953 26.082 37.4953 26.1362 37.4953 26.1904C37.3884 26.4073 37.2814 26.6242 37.1209 26.7869C37.1209 26.9496 37.0674 27.058 36.9605 27.1122C36.8535 27.1665 36.7465 27.2207 36.693 27.3291C36.586 27.3834 36.586 27.4918 36.5326 27.6003C36.4791 27.7087 36.3721 27.7629 36.2651 27.7629C36.2651 27.8714 36.1581 27.9798 36.1047 28.034C35.9977 28.0883 35.8907 28.0883 35.8372 28.1425C35.6767 28.1967 35.5698 28.4136 35.3558 28.4136C35.3558 28.4678 35.3023 28.4678 35.2488 28.5221C35.1954 28.5221 35.1419 28.5763 35.1419 28.5763C35.0349 28.5763 34.9814 28.5763 34.9279 28.6305C34.7674 28.6305 34.6605 28.739 34.5 28.7932C34.4465 28.8474 34.393 28.8474 34.286 28.9016C34.2326 28.9016 34.1791 28.9016 34.0721 28.9016C33.9651 28.9016 33.8581 28.9559 33.7512 28.9559C33.5907 28.9559 33.4302 28.9559 33.3233 28.9559C33.2163 28.9559 33.1093 28.9559 33.0023 28.9559C33.0023 28.739 32.8954 28.6847 32.8954 28.6847Z" fill="#B2907C"/>
<path d="M30.7558 32.6974C30.8093 32.6974 30.8093 33.0227 30.8628 33.6734C30.8628 33.9987 30.9163 34.3783 30.9163 34.8663C30.9163 35.3001 30.9163 35.7881 30.9698 36.3304C30.9698 36.3304 30.9698 36.3846 30.9698 36.4388C31.0767 36.4388 31.2372 36.4388 31.3442 36.4388C31.5581 36.4388 31.7186 36.4388 31.9326 36.4388C32.414 36.4388 32.8954 36.3846 33.3767 36.4388C33.6442 36.4931 33.9116 36.4388 34.1791 36.4388C34.286 36.4388 34.5 36.3846 34.5 36.3846C34.5535 36.3846 34.6605 36.3846 34.7674 36.4388C34.7674 36.3846 34.7674 36.2762 34.7674 36.1677C34.7674 36.1135 34.7674 36.0593 34.7674 36.005C34.7674 35.9508 34.7674 35.8424 34.7674 35.7881C34.7674 35.4628 34.7674 35.1917 34.714 34.8663C34.714 34.541 34.714 34.2156 34.714 33.8903C34.714 33.7276 34.714 33.5649 34.714 33.4023C34.714 33.2938 34.714 33.1854 34.714 33.0769C34.714 32.9685 34.714 32.8058 34.714 32.6974V32.6431L34.8209 32.5889C34.8744 32.5889 34.9279 32.5347 34.9814 32.5347C35.0349 32.5347 35.0884 32.4805 35.1954 32.4805L35.3023 32.4262H35.3558C35.4628 32.4262 35.5163 32.372 35.6233 32.372C35.7302 32.372 35.7837 32.3178 35.8907 32.3178C36.0512 32.2636 36.2116 32.2093 36.3721 32.1551C36.5326 32.1009 36.693 31.9924 36.8 31.884L36.907 31.8298C36.9605 31.8298 36.9605 31.7755 37.014 31.7755C37.1209 31.7213 37.1209 31.6671 37.2814 31.6129C37.3884 31.5586 37.5488 31.4502 37.6558 31.396L37.7093 31.3417L37.9233 31.5586C38.0837 31.7213 38.2442 31.884 38.4047 32.0467C38.5116 32.2093 38.6721 32.3178 38.8326 32.4805C39.0465 32.8058 39.3674 33.0769 39.6349 33.348C39.7953 33.5107 39.9558 33.6192 40.0628 33.7276L40.2233 33.8903C40.2767 33.8903 40.2767 33.9445 40.3302 33.9445V33.9987C40.3837 33.9987 40.3837 33.9987 40.4372 33.9445C40.4372 33.9445 40.4907 33.9445 40.4907 33.8903H40.5977C40.7581 33.7276 40.8651 33.6192 41.0256 33.4565C41.293 33.1311 41.5605 32.8058 41.8279 32.4805C42.0953 32.3178 42.3093 32.1551 42.5233 31.9382C42.5767 31.884 42.6302 31.8298 42.6837 31.7755L42.7907 31.7213L42.8442 31.6671C42.8977 31.6129 42.9512 31.5586 43.0047 31.4502C42.9512 31.396 42.8442 31.3417 42.7907 31.3417C42.7372 31.3417 42.6302 31.2333 42.4698 31.1248C42.1488 30.7995 41.8279 30.4741 41.507 30.1488C41.3465 29.9861 41.186 29.8235 41.0256 29.6608C40.9186 29.6066 40.8651 29.4981 40.7581 29.4439L40.5977 29.3354L40.1163 28.8474V28.7932L40.1698 28.6847C40.2767 28.5221 40.3302 28.3594 40.4372 28.1967C40.5442 27.9798 40.6512 27.7629 40.7047 27.546C40.8116 27.3291 40.8651 27.1122 40.9721 26.8953C41.0256 26.7869 41.0791 26.6784 41.0791 26.57C41.1326 26.4073 41.186 26.2989 41.2395 26.1362L41.293 25.8108L41.3465 25.6482C41.4 25.6482 41.4535 25.6482 41.507 25.6482C41.7209 25.6482 41.9349 25.6482 42.1488 25.5939C42.4163 25.5939 42.6302 25.5939 42.8977 25.5939C43.3791 25.5939 43.914 25.6482 44.3954 25.7024C44.5558 25.7024 44.7698 25.6482 44.9302 25.6482V25.5939C44.9302 25.4313 44.9302 25.3228 44.9302 25.1602C44.9302 24.8348 44.9837 24.5095 44.9837 24.1841C45.0372 23.8045 44.9837 23.425 44.9837 23.0454C44.9837 22.8285 44.9837 22.6658 44.9302 22.4489C44.9302 22.4489 44.9302 22.4489 44.9302 22.3947H44.7698C44.7163 22.3947 44.6093 22.3947 44.5558 22.3947C44.0209 22.3947 43.486 22.3947 42.9512 22.3947C42.6837 22.3947 42.4163 22.3947 42.1488 22.3947C41.9349 22.3947 41.6674 22.3947 41.4535 22.3947H41.3465C41.293 22.3947 41.293 22.3947 41.293 22.3405L41.2395 22.1778L41.1326 21.7982L41.0791 21.6356V21.5271L41.0256 21.3102C40.9721 21.2018 40.9721 21.0391 40.9186 20.9306L40.8651 20.7137L40.7581 20.4969L40.5977 20.1173L40.4907 19.9546L40.6512 19.4666C40.5442 19.3039 40.4372 19.087 40.3302 18.9243L40.2767 18.8701V18.8159L40.7581 18.3279L40.8116 18.2194L40.9721 18.0567C41.3465 17.6772 41.6674 17.2976 42.0419 16.918C42.2023 16.7554 42.4163 16.5385 42.5767 16.3758L42.7907 16.1589C42.7907 16.1589 42.7907 16.1589 42.7907 16.1047H42.7372L42.5767 15.942C42.4698 15.8335 42.3628 15.7251 42.2558 15.6709C42.0419 15.454 41.8279 15.2913 41.614 15.0744C41.4 14.8575 41.186 14.6406 41.0256 14.4237L40.6512 13.9899L40.4907 13.8272C40.4372 13.773 40.4372 13.773 40.4372 13.773C40.4372 13.773 40.3837 13.773 40.3837 13.7188C40.3837 13.7188 40.3837 13.7188 40.3302 13.773C40.3302 13.773 40.3302 13.773 40.2767 13.773L40.1163 13.9357C39.9023 14.0984 39.7419 14.3153 39.5279 14.4779C39.1535 14.8575 38.7791 15.2371 38.4047 15.6166L38.3512 15.7793L37.8163 16.3216H37.7628L37.4419 16.1589L37.0674 15.942L36.907 15.8878C36.8 15.8335 36.6395 15.7793 36.5326 15.7251L36.1047 15.5082L35.6767 15.3455C35.5698 15.2913 35.4093 15.2371 35.2488 15.2371L34.8744 15.1286L34.6605 15.0744L34.5535 15.0202H34.5C34.5 14.7491 34.5 14.4779 34.5 14.2068V13.773C34.5 13.4477 34.5 13.1765 34.5 12.8512C34.5 12.5259 34.5 12.2547 34.5 11.9294C34.5 11.7667 34.5 11.604 34.5 11.4956V11.3871C34.5 11.3871 34.5 11.3871 34.5 11.3329C34.6605 11.3871 33.8047 11.3329 33.3233 11.3329C32.7884 11.3329 32.2 11.2787 31.6651 11.3329C31.6116 11.3329 31.5047 11.3329 31.4512 11.3329H31.3442C31.3442 11.3329 31.3442 11.3329 31.2907 11.3329C31.2372 11.3329 31.2372 11.3329 31.1837 11.3329V11.5498C31.1837 11.7667 31.1837 11.9836 31.1837 12.2005C31.1837 12.6343 31.2372 13.0681 31.1837 13.5019C31.1837 13.6646 31.1837 13.773 31.1837 13.9357C31.1837 14.0984 31.1837 14.261 31.1837 14.4237V15.1286C31.1837 15.1286 31.1302 15.1286 31.0767 15.1829C30.8628 15.2371 30.5954 15.2913 30.3814 15.3455L30.2209 15.2371C30.1674 15.2371 30.114 15.2913 30.007 15.2913C29.9 15.3455 29.7395 15.3997 29.6326 15.454C29.5256 15.5082 29.3651 15.5624 29.2581 15.6166C29.1512 15.6709 29.0442 15.7251 28.8837 15.8335C28.7233 15.942 28.6163 15.9962 28.4558 16.1047L27.9744 16.43L27.9209 16.3216L27.8674 16.2673C27.6 15.9962 27.3326 15.7251 27.0651 15.454C26.6907 15.0744 26.2628 14.6406 25.8884 14.261C25.7279 14.1526 25.5674 13.9899 25.407 13.8815H25.3535C25.3535 13.8815 25.3535 13.8815 25.3 13.8815L25.1395 14.0441L24.9256 14.2068C24.6581 14.4237 24.4442 14.6406 24.1767 14.9117C23.9093 15.1829 23.6419 15.3997 23.3744 15.6709L23.2674 15.7793L23.107 15.9962L23 16.0504C23.0535 16.0504 23.0535 16.1047 23.107 16.1047L23.3744 16.3758C23.7488 16.7554 24.1233 17.1349 24.4442 17.5145C24.6047 17.7314 24.8186 17.8941 24.9791 18.0567L25.514 18.599V18.6532L25.3535 18.9243C25.2465 19.087 25.193 19.2497 25.086 19.3581C25.0326 19.4666 24.9791 19.575 24.9256 19.6835C24.8186 19.9004 24.7116 20.1173 24.6581 20.3342C24.6047 20.4426 24.6047 20.5511 24.5512 20.6595L24.6047 20.9306V21.0391L24.4977 21.2018C24.4442 21.4187 24.3907 21.5813 24.3372 21.7982C24.3372 21.8525 24.2837 21.9067 24.2837 21.9609H23.8023C23.6419 21.9609 23.4814 21.9609 23.3209 21.9609C23.214 21.9609 23.0535 21.9609 22.9465 21.9609C22.6791 21.9609 22.4651 21.9609 22.2512 21.9067C21.7698 21.9067 21.2884 21.8525 20.807 21.9067C20.7 21.9067 20.593 21.9067 20.5395 21.9067C20.5395 22.1236 20.5395 22.3405 20.5395 22.5574C20.5395 22.8827 20.5395 23.2623 20.5395 23.5876C20.486 23.9672 20.4326 24.3468 20.4326 24.6721C20.4326 24.7806 20.4326 24.8348 20.4326 24.9433V25.1602C20.4326 25.2144 20.4326 25.3228 20.486 25.3771C20.5395 25.3771 20.593 25.3771 20.6465 25.3771H20.9674C21.0744 25.3771 21.1814 25.3771 21.2884 25.3771C21.5023 25.3771 21.7163 25.3771 21.9302 25.3771C22.3581 25.3771 22.786 25.3771 23.1605 25.4313C23.4279 25.4313 23.6419 25.4313 23.9093 25.4313H24.2302L24.2837 25.5397C24.3372 25.7024 24.3372 25.8651 24.3907 25.9735C24.3907 26.082 24.4442 26.1904 24.4442 26.2989C24.4442 26.4073 24.4977 26.4615 24.5512 26.57C24.6047 26.6784 24.6047 26.7327 24.6581 26.8411C24.7116 26.9496 24.7116 27.0038 24.7651 27.1122C24.8721 27.2749 24.9256 27.4376 24.9791 27.6545C25.0326 27.7629 25.0326 27.8172 25.086 27.9256L25.1395 27.9798C25.1395 27.9798 25.1395 27.9798 25.1395 28.034V28.0883L25.3535 28.4136L25.407 28.5221L25.3535 28.5763C25.2465 28.6847 25.1395 28.739 25.086 28.8474C24.9791 28.9559 24.9256 29.0101 24.8721 29.0643C24.8186 29.1185 24.7651 29.227 24.7116 29.2812C24.2302 29.8235 23.5884 30.203 23.214 30.7453C23.1605 30.7995 23.107 30.8537 23.107 30.9079L23 31.1248C23 31.1248 23 31.1248 23 31.1791C22.9465 31.2333 22.9465 31.2333 22.893 31.2875C22.9465 31.3417 22.9465 31.396 23 31.5044C23.107 31.6671 23.214 31.7755 23.3744 31.9382C23.8023 32.372 24.2302 32.8058 24.6047 33.2396C24.7651 33.4023 24.9256 33.5649 25.086 33.7276C25.193 33.8361 25.3 33.9445 25.407 34.053C26.1023 33.348 26.7442 32.7516 27.3326 32.2093C27.493 32.0467 27.6535 31.9382 27.7605 31.7755C27.8674 31.6671 27.9209 31.6129 28.0279 31.5044L28.0814 31.4502L28.1349 31.5044C28.1884 31.5586 28.2419 31.5586 28.2954 31.6129C28.4558 31.7213 28.6163 31.8298 28.7767 31.884C28.9372 31.9382 29.0442 32.0467 29.2047 32.1009C29.4721 32.2636 29.686 32.3178 29.9 32.4262C30.007 32.4805 30.114 32.5347 30.1674 32.5347C30.2744 32.5889 30.3279 32.5889 30.3814 32.6431C30.6488 32.6431 30.7558 32.6974 30.7558 32.6974C30.7558 32.7516 30.5954 32.6974 30.3279 32.6431C30.2744 32.6431 30.1674 32.5889 30.0605 32.5889C29.9535 32.5889 29.9 32.5347 29.793 32.4805C29.5791 32.4262 29.3116 32.3178 29.0442 32.2093C28.9372 32.1551 28.7767 32.1009 28.6163 32.0467C28.5093 31.9924 28.3488 31.884 28.2419 31.8298C28.1884 31.8298 28.1884 31.7755 28.1349 31.7755H28.0814C28.0814 31.7755 28.0814 31.7755 28.0279 31.8298C27.9744 31.884 27.9209 31.9382 27.8674 31.9924C27.7605 32.1551 27.6 32.2636 27.4395 32.4262C27.1721 32.7516 26.8512 33.0769 26.5302 33.4023C26.3698 33.5649 26.2093 33.7818 25.9953 33.9445C25.7814 34.1614 25.514 34.4325 25.3 34.7037C24.5512 33.9987 23.7488 33.1854 22.893 32.3178C22.786 32.2093 22.6256 32.0467 22.4651 31.9382C22.2512 31.7213 22.0372 31.5586 21.8233 31.3417C21.9837 31.1791 22.1442 31.0164 22.3047 30.8537L22.5186 30.6368C22.5721 30.5826 22.6256 30.5284 22.6791 30.4741C23.1605 29.9861 23.5884 29.4439 24.1767 28.9559C24.2302 28.9016 24.2837 28.7932 24.3372 28.739C24.3907 28.6847 24.4977 28.5763 24.4442 28.5763L24.4977 28.5221C24.4977 28.5221 24.4977 28.5221 24.4977 28.4678V28.3594L24.4442 28.3052C24.3907 28.1967 24.3372 28.1425 24.3372 28.034C24.2837 27.8714 24.1767 27.6545 24.1233 27.4918C24.0698 27.3834 24.0698 27.3291 24.0163 27.2207C23.9628 27.1122 23.9628 27.0038 23.9093 26.9496C23.8558 26.8411 23.8558 26.7327 23.8023 26.6784C23.8023 26.57 23.7488 26.5158 23.7488 26.4073L23.6953 26.2989V26.2446C23.6953 26.2446 23.6954 26.2446 23.6419 26.2446H23.5884C23.5349 26.2446 23.2674 26.2446 23.107 26.2989C22.6791 26.3531 22.3047 26.3531 21.8767 26.2989C21.6628 26.2989 21.4488 26.2989 21.2349 26.2989C21.1279 26.2989 21.0209 26.2989 20.914 26.2989H20.7535C20.7 26.2989 20.593 26.2989 20.5395 26.2989C20.2721 26.2989 20.0047 26.2446 19.7907 26.2446C19.7907 25.9735 19.7907 25.6482 19.7907 25.3771C19.7907 25.2686 19.7907 25.1602 19.7907 25.1059C19.7907 24.9975 19.7907 24.9433 19.7907 24.8348C19.7907 24.4552 19.7372 24.0757 19.7372 23.7503C19.7907 23.425 19.7907 23.0454 19.7907 22.7201C19.7907 22.6116 19.7907 22.5574 19.7907 22.4489C19.7907 22.3405 19.7907 22.232 19.7907 22.1778C19.7907 21.8525 19.7907 21.5813 19.7907 21.256C20.0047 21.256 20.1651 21.256 20.3791 21.256C20.5395 21.256 20.7 21.256 20.8605 21.256C21.3419 21.3102 21.8233 21.3644 22.3047 21.3102C22.5186 21.3102 22.786 21.3102 23 21.256C23.107 21.256 23.2674 21.256 23.3744 21.256H23.6419V21.1475L23.6953 20.9849L23.8023 20.768C23.8558 20.6595 23.9093 20.4968 23.9628 20.3884C24.0698 20.1173 24.1767 19.9004 24.2837 19.6835C24.3372 19.575 24.3907 19.4666 24.4442 19.3039L24.5512 19.1412C24.5512 19.1412 24.5512 19.1412 24.5512 19.087V19.0328L24.3907 18.8701C24.2302 18.7074 24.0163 18.4905 23.8558 18.3279C23.4814 17.9483 23.107 17.623 22.7326 17.2434L22.5721 17.0807L22.4651 16.8096L22.4116 16.7554L22.3047 16.7011C22.0907 16.4842 21.8767 16.2673 21.6628 16.0504C21.9302 15.7793 22.1442 15.5624 22.4116 15.2913L22.8395 14.8575C23.107 14.5864 23.3744 14.3695 23.6419 14.0984C23.8558 13.8272 24.1233 13.6103 24.3372 13.3392C24.7116 12.9596 25.0326 12.6343 25.407 12.2547C25.7814 12.6885 26.2093 13.0681 26.5837 13.5019C27.0116 13.8815 27.386 14.261 27.7605 14.6948L28.0279 15.0202L28.0814 15.0744H28.1349L28.4558 14.9117C28.5628 14.8575 28.7233 14.8033 28.8837 14.6948C29.0442 14.6406 29.1512 14.5864 29.3116 14.5322C29.4721 14.4779 29.5791 14.4237 29.7395 14.3695C29.793 14.3695 29.9 14.3153 29.9535 14.3153L30.1674 14.261H30.2744V14.0441C30.2744 13.9899 30.2744 13.8815 30.2744 13.8272C30.2744 13.6646 30.2744 13.5561 30.2209 13.3934C30.2209 12.9596 30.2209 12.5259 30.2209 12.0921C30.2209 11.8752 30.2209 11.6583 30.2209 11.4414C30.2209 11.0618 30.2209 10.6822 30.2209 10.3026C30.4884 10.3026 30.7558 10.3026 31.0767 10.3026H31.6116C32.1465 10.3026 32.7349 10.3026 33.2698 10.3026C33.5372 10.3026 33.8047 10.3026 34.1256 10.3026C34.5535 10.3026 34.9814 10.3026 35.4628 10.3026C35.4628 10.4111 35.4628 10.5738 35.4628 10.6822V11.4414C35.4628 11.604 35.4628 11.7667 35.4628 11.8752C35.4628 12.2005 35.4628 12.4716 35.4628 12.797C35.4628 13.1223 35.4628 13.3934 35.5163 13.7188V14.2068H35.6233C35.7837 14.261 35.9442 14.261 36.1047 14.3695L36.5326 14.5322L36.9605 14.7491C37.1209 14.8033 37.2279 14.8575 37.3884 14.966L37.6023 15.0744C37.6023 15.0744 37.6023 15.0744 37.6558 15.0202L37.8163 14.8575C38.1907 14.4779 38.5651 14.0984 38.9395 13.7188C39.4209 13.2308 39.9023 12.7428 40.3837 12.2547C40.5442 12.4174 40.7581 12.6343 40.9186 12.797C41.0791 12.9054 41.1861 13.0681 41.3465 13.1765C41.4535 13.285 41.5605 13.3934 41.6674 13.5019C41.8814 13.7188 42.0953 13.9357 42.2558 14.1526C42.4698 14.3695 42.6837 14.5864 42.8442 14.8033C42.9512 14.9117 43.0581 15.0202 43.1651 15.1286L43.593 15.5624C43.7535 15.7251 43.914 15.8878 44.0744 15.9962C43.914 16.1589 43.7535 16.3216 43.5395 16.5385L43.1116 16.9723C42.8977 17.1349 42.7372 17.3518 42.5233 17.5145C42.1488 17.8941 41.7744 18.2194 41.4535 18.599L41.2395 18.8159L41.507 19.3581C41.5605 19.5208 41.614 19.6293 41.6674 19.7919L41.7744 20.0088L41.8279 20.2257C41.8814 20.3884 41.9349 20.4968 41.9884 20.6595L42.0419 20.8764V20.9849C42.0419 20.9849 42.0419 20.9849 42.0419 21.0391H42.1488C42.4163 21.0391 42.6837 21.0391 42.9512 21.0933C43.486 21.0933 44.0209 21.0933 44.5558 21.0391C45.0372 21.0391 45.5186 20.9849 45.9465 20.9849C45.9465 21.3644 45.9465 21.744 46 22.0694C46 22.2863 46 22.4489 46 22.6658C46 23.0454 45.9465 23.425 45.893 23.8045C45.893 24.1299 45.893 24.4552 45.893 24.7806V25.3228C45.893 25.5939 45.893 25.9193 45.893 26.1904C45.5721 26.1904 45.2512 26.1904 44.9302 26.1904C44.7163 26.1904 44.5558 26.1904 44.3954 26.2446C43.914 26.1904 43.3791 26.1362 42.8977 26.1904C42.6302 26.1904 42.4163 26.1904 42.1488 26.2446H42.0419V26.3531L41.9884 26.5158C41.9349 26.6242 41.8814 26.7327 41.8279 26.8953C41.7209 27.1122 41.6674 27.3834 41.507 27.6003C41.4 27.8172 41.293 28.034 41.186 28.2509C41.1326 28.3052 41.1326 28.3052 41.1326 28.3594V28.4136C41.1326 28.4136 41.186 28.4136 41.186 28.4678H41.2395L41.3465 28.5763C41.4535 28.6305 41.507 28.739 41.614 28.8474C41.7744 29.0101 41.9349 29.1728 42.0953 29.3354C42.4163 29.6608 42.7372 30.0404 43.0581 30.3115C43.1651 30.4199 43.2186 30.4741 43.4326 30.691C43.593 30.8537 43.7535 31.0164 43.9674 31.2333C43.7535 31.4502 43.593 31.6129 43.3791 31.7755L43.2186 31.884V32.0467L43.0581 32.2093C42.8442 32.4262 42.6302 32.6431 42.4163 32.86C42.0954 33.1311 41.8279 33.4565 41.5605 33.7276C41.4 33.8903 41.293 33.9987 41.1326 34.1614C41.0256 34.2699 40.9186 34.3783 40.8116 34.4868C40.7047 34.5952 40.5977 34.7037 40.4372 34.8121C40.3837 34.7579 40.3837 34.7579 40.3302 34.7037C40.2233 34.5952 40.0628 34.541 39.9558 34.3783C39.9023 34.3241 39.8488 34.2699 39.7419 34.2156L39.6349 34.1072C39.4744 33.9445 39.3674 33.8361 39.207 33.6734C38.9395 33.348 38.7256 33.0227 38.4581 32.7516C38.3512 32.5889 38.1907 32.4805 38.0302 32.3178C37.9233 32.2093 37.7093 32.0467 37.7093 32.0467H37.6558C37.6558 32.0467 37.6558 32.0467 37.6023 32.0467L37.5488 32.1009C37.5488 32.1009 37.5488 32.1009 37.4953 32.1551C37.4419 32.1551 37.3884 32.2093 37.3884 32.2093C37.3349 32.2093 37.2814 32.2636 37.2814 32.2636C37.2279 32.2636 37.1744 32.2636 37.1209 32.3178C36.9605 32.4262 36.8 32.5347 36.6395 32.6431C36.4791 32.6974 36.3186 32.8058 36.1047 32.86C35.9977 32.86 35.9442 32.9142 35.8372 32.9142C35.7302 32.9142 35.6767 32.9685 35.5698 32.9685H35.3023C35.3023 33.0227 35.3023 33.0227 35.3023 33.0769V33.2396C35.3023 33.4023 35.3023 33.5649 35.3023 33.7276C35.3023 34.053 35.3023 34.3783 35.2488 34.7037C35.3023 35.029 35.3023 35.3544 35.2488 35.6255C35.2488 35.6797 35.2488 35.7881 35.2488 35.8424V35.9508C35.2488 36.005 35.2488 36.0593 35.2488 36.1135C35.2488 36.3304 35.2488 36.5473 35.2488 36.7642V36.8184C35.0349 36.8184 34.8209 36.8184 34.6605 36.7642C34.4465 36.7642 34.3395 36.7642 34.1791 36.7642C33.9116 36.7642 33.6442 36.7642 33.3767 36.7642C32.8419 36.7642 32.3605 36.7642 31.9326 36.7642C31.4512 36.7642 31.0233 36.7642 30.5954 36.7642C30.5954 36.71 30.5954 36.6557 30.5954 36.6015C30.5954 36.3846 30.5954 36.2219 30.5954 36.005C30.5954 35.8424 30.5954 35.7339 30.5954 35.5713C30.5954 35.3001 30.5954 35.029 30.5954 34.8121C30.5954 34.3241 30.6488 33.9445 30.6488 33.6192C30.7023 33.0227 30.7558 32.6974 30.7558 32.6974Z" fill="#B2907C"/>
<path d="M13.6395 38.0114C13.6395 37.9571 13.693 37.9571 13.8 37.9029C13.8535 37.9029 13.907 37.8487 13.9605 37.8487C14.014 37.8487 14.1209 37.7945 14.2279 37.7945C14.2814 37.7945 14.3349 37.7402 14.4419 37.7402C14.4953 37.7402 14.4953 37.686 14.5488 37.686C14.6023 37.686 14.6023 37.6318 14.6558 37.6318C14.7628 37.686 14.7628 37.4691 14.8698 37.5233C14.9767 37.5233 15.0302 37.4691 15.0837 37.3607C15.1372 37.3064 15.2977 37.3064 15.2977 37.198C15.2977 37.0895 15.3512 37.0895 15.4047 37.0895C15.4581 37.0895 15.5116 37.0895 15.5116 36.9811C15.5116 36.9269 15.5651 36.8726 15.6186 36.8726C15.6721 36.8184 15.6721 36.8184 15.7256 36.7642C15.8326 36.7642 15.8326 36.71 15.886 36.6557C15.886 36.6015 15.9395 36.5473 15.9395 36.4931C16.1 36.4931 16.1535 36.3304 16.1 36.1677C16.207 36.1677 16.2605 36.1135 16.314 36.0593C16.314 36.005 16.314 35.8966 16.2605 35.8424C16.2605 35.7881 16.314 35.7339 16.314 35.6797C16.314 35.6255 16.314 35.6255 16.314 35.5713C16.314 35.517 16.314 35.517 16.314 35.4628C16.314 35.4086 16.314 35.3001 16.314 35.2459C16.314 35.1917 16.314 35.0832 16.314 35.029C16.2605 34.9748 16.207 34.8663 16.207 34.8121C16.207 34.7579 16.207 34.7579 16.207 34.7037C16.207 34.6494 16.207 34.6494 16.2605 34.5952C16.1 34.4868 16.1 34.3241 16.1535 34.1614C16.1535 34.053 16.1 33.9987 16.0465 33.9445C15.993 33.8903 15.9395 33.8361 15.9395 33.7276C15.9395 33.6734 15.886 33.6192 15.8326 33.5107C15.7791 33.4565 15.7256 33.4023 15.7256 33.2938C15.7256 33.2396 15.7256 33.1854 15.6721 33.1854C15.6721 33.1311 15.6186 33.1311 15.6186 33.0769C15.6186 33.0227 15.5651 33.0227 15.5116 32.9685C15.4581 32.9685 15.4047 32.9142 15.4047 32.9142C15.3512 32.86 15.2442 32.86 15.1907 32.8058C15.1372 32.7516 15.0837 32.6974 15.0302 32.6431C14.8163 32.6974 14.7093 32.5347 14.6023 32.4262C14.4953 32.4262 14.4419 32.372 14.3884 32.3178C14.3349 32.2636 14.2279 32.2636 14.1209 32.2636C14.014 32.2636 13.9605 32.2636 13.8535 32.2636C13.7465 32.2636 13.693 32.2636 13.586 32.2093C13.4791 32.2093 13.4256 32.1551 13.3186 32.1551C13.2116 32.1551 13.1581 32.2093 13.0512 32.2636C12.9977 32.3178 12.8907 32.3178 12.8372 32.3178C12.7302 32.3178 12.6767 32.3178 12.6233 32.372C12.5698 32.372 12.5163 32.372 12.4628 32.372C12.4093 32.372 12.4093 32.4262 12.3558 32.4262C12.3558 32.4805 12.3023 32.5889 12.1953 32.5889C12.1419 32.6431 12.0349 32.6974 11.9814 32.6974C11.9279 32.7516 11.8209 32.8058 11.8209 32.86C11.8209 32.9142 11.7674 32.9142 11.7674 32.9685C11.7674 33.0227 11.714 33.0227 11.714 33.0769C11.714 33.1311 11.6605 33.1311 11.607 33.1854C11.5535 33.1854 11.5535 33.2396 11.5 33.2396C11.5535 33.348 11.5 33.4023 11.393 33.4565C11.3395 33.4565 11.3395 33.5107 11.286 33.5107C11.286 33.5107 11.2326 33.5107 11.2326 33.5649V33.6192C11.1791 33.6734 11.1256 33.7276 11.1256 33.8361C11.1256 33.8903 11.1256 33.9987 11.0721 34.053C11.0721 34.1072 11.0186 34.2156 11.0186 34.2699C10.9651 34.3241 10.9651 34.4325 10.9651 34.4868C10.9651 34.541 10.9651 34.541 10.9651 34.5952C10.9651 34.6494 10.9651 34.6494 10.9651 34.7037C10.9651 34.7579 10.9651 34.8663 10.9116 34.9206C10.9651 34.9748 10.9651 35.0832 10.9116 35.1375C10.9116 35.1917 10.8581 35.3001 10.9116 35.3544C10.9116 35.4086 10.9116 35.4086 10.9116 35.4628C10.9116 35.517 10.9116 35.517 10.9116 35.5713C10.9116 35.6255 10.9116 35.6797 10.9651 35.7881C10.9116 35.8966 10.9116 35.9508 10.9651 36.005C11.0186 36.0593 11.0721 36.1135 11.0721 36.1677C11.1256 36.2762 11.286 36.3304 11.2326 36.4931C11.286 36.5473 11.286 36.6015 11.286 36.6557C11.286 36.71 11.3395 36.7642 11.393 36.7642C11.4465 36.8184 11.4465 36.8726 11.4465 36.9269C11.4465 36.9811 11.5 37.0353 11.607 36.9811C11.6605 36.9811 11.6605 37.0895 11.714 37.1438C11.714 37.198 11.7674 37.2522 11.8744 37.198C12.0349 37.1438 12.0349 37.3064 12.0884 37.3607C12.1419 37.4149 12.2488 37.4691 12.3023 37.5233C12.6233 37.7402 12.9442 37.7945 13.1581 37.9029C13.5326 37.9029 13.6395 37.9571 13.6395 38.0114C13.6395 38.0114 13.586 38.0656 13.5326 38.0656C13.4791 38.0656 13.4256 38.0656 13.3721 38.1198C13.3186 38.1198 13.2651 38.1198 13.1581 38.1198C12.8907 38.1198 12.4093 38.0656 11.9279 37.7945C11.8209 37.7402 11.6605 37.7945 11.607 37.6318C11.5535 37.5776 11.5 37.5776 11.4465 37.5233C11.393 37.4691 11.3395 37.4691 11.286 37.3607C11.1791 37.3607 11.1256 37.3064 11.0721 37.2522C11.0186 37.198 11.0186 37.0895 10.9651 37.0353C10.9116 36.9811 10.8581 36.9269 10.8581 36.8726C10.8047 36.8184 10.7512 36.7642 10.6977 36.71C10.5372 36.6015 10.5907 36.4388 10.4302 36.3304C10.4302 36.2219 10.4302 36.1677 10.3767 36.0593C10.3233 36.005 10.2698 35.8966 10.2163 35.8424C10.2163 35.7339 10.2163 35.6797 10.1628 35.5713C10.1628 35.517 10.1093 35.517 10.1093 35.4628C10.1093 35.4086 10.0558 35.3544 10.0558 35.3544C10.1093 35.2459 10.1093 35.1917 10.1093 35.0832C10.1093 34.9748 10.0558 34.9206 10.0023 34.8121C9.94884 34.7037 10.0023 34.6494 10.0023 34.541C10.0023 34.4868 10.0023 34.4325 10.0023 34.3783C10.0023 34.3241 10.0023 34.2699 10.0023 34.2156C10.0558 34.053 10.0558 33.8361 10.1093 33.6192C10.1093 33.5107 10.1093 33.4023 10.1628 33.2938C10.2163 33.1854 10.2698 33.1311 10.3233 33.0227V32.9685C10.3233 32.9685 10.3233 32.9142 10.3767 32.9142C10.3767 32.86 10.4302 32.8058 10.4302 32.8058C10.4837 32.6974 10.5372 32.6431 10.6442 32.5347C10.6442 32.4805 10.6977 32.4262 10.6977 32.372C10.7512 32.3178 10.7512 32.3178 10.8047 32.2636L10.9116 32.1551C10.9651 32.1009 11.0186 32.1009 11.0186 32.0467C11.0721 31.9382 11.1791 31.9382 11.286 31.884C11.393 31.8298 11.4465 31.7755 11.5 31.6671C11.6605 31.5044 11.8744 31.4502 12.0884 31.3417C12.1953 31.2875 12.3023 31.2875 12.4093 31.2333C12.5163 31.2333 12.6233 31.1791 12.7302 31.1248C12.8372 31.1791 12.9442 31.1791 13.0512 31.1791C13.1581 31.1791 13.2651 31.1248 13.3721 31.0706C13.4791 31.0706 13.586 31.0706 13.693 31.0706C13.8 31.0706 13.907 31.1248 14.014 31.1248C14.1209 31.1248 14.2279 31.1791 14.3349 31.1791C14.4419 31.2333 14.5488 31.2333 14.6558 31.2875C14.7093 31.2875 14.7628 31.3417 14.8163 31.3417C14.8698 31.396 14.9233 31.396 14.9767 31.4502L15.0837 31.5586C15.1372 31.6129 15.1907 31.6129 15.2442 31.6129C15.3512 31.6129 15.4581 31.7213 15.5116 31.8298C15.5651 31.884 15.6721 31.9924 15.7791 32.0467C15.8326 32.1009 15.886 32.1009 15.9395 32.1551C15.993 32.2093 16.0465 32.2093 16.0465 32.2636C16.1 32.3178 16.1 32.372 16.1535 32.372C16.207 32.4262 16.207 32.4805 16.207 32.5347C16.2605 32.6431 16.314 32.6974 16.314 32.8058C16.314 32.86 16.3674 32.9142 16.3674 32.9685C16.4209 33.0227 16.4209 33.0227 16.4744 33.0769C16.5279 33.1854 16.6349 33.2396 16.6884 33.348C16.7419 33.4565 16.7953 33.5649 16.6884 33.6734C16.7419 33.7818 16.7419 33.8903 16.7419 33.9445C16.7419 34.053 16.7419 34.1614 16.7953 34.2156C17.1163 34.3783 17.1163 34.4325 17.1163 34.4868C17.1163 34.541 17.1163 34.5952 17.1163 34.6494C17.1163 34.7579 17.1698 34.8121 17.1698 34.9206C17.1698 35.029 17.1163 35.0832 17.1163 35.1917C17.1163 35.3001 17.0628 35.3544 17.1163 35.4628C17.1163 35.517 17.1163 35.5712 17.1163 35.6255C17.1163 35.6797 17.0628 35.7339 17.0628 35.7339C17.0093 35.7882 17.0093 35.8966 16.9558 35.9508C16.9558 36.0593 16.9023 36.1135 16.8488 36.1677C16.7953 36.2219 16.7419 36.2762 16.7419 36.3846C16.6349 36.5473 16.5814 36.6557 16.4744 36.7642C16.5279 36.8726 16.4744 36.9269 16.4209 36.9811C16.3674 37.0353 16.2605 37.0353 16.207 37.0895C16.1535 37.1438 16.1 37.198 16.1 37.2522C16.0465 37.3064 15.993 37.3607 15.886 37.3607C15.886 37.4691 15.8326 37.5233 15.7791 37.5233C15.7256 37.5233 15.6186 37.5233 15.5651 37.5776C15.4581 37.6318 15.4047 37.7945 15.2442 37.7402C15.2442 37.7945 15.1907 37.8487 15.0837 37.8487C15.0302 37.8487 14.9767 37.8487 14.9233 37.9029C14.8163 37.9029 14.7628 37.9571 14.6558 38.0114C14.6023 38.0656 14.6023 38.0656 14.5488 38.0656C14.4953 38.0656 14.4419 38.0656 14.4419 38.0656C14.3349 38.0656 14.2814 38.0656 14.2279 38.1198C14.1209 38.1198 14.014 38.1198 13.9605 38.1198C13.907 38.1198 13.8 38.1198 13.7465 38.0656C13.693 38.0656 13.6395 38.0656 13.6395 38.0114Z" fill="#B2907C"/>
<path d="M12.3023 40.5599C12.3558 40.5599 12.3558 40.7768 12.4093 41.1564C12.4093 41.3733 12.4628 41.5902 12.4628 41.9155C12.4628 42.0782 12.4628 42.2409 12.4628 42.4035C12.4628 42.512 12.4628 42.6747 12.4628 42.7831V42.8373C12.5698 42.8373 12.6233 42.8373 12.7302 42.8373C12.7837 42.8373 12.8372 42.8373 12.8372 42.8373C12.8907 42.8373 12.9442 42.8373 13.0512 42.8373C13.3186 42.8373 13.6395 42.7831 13.9605 42.8373C14.0674 42.8373 14.1209 42.8373 14.2279 42.8373C14.2814 42.8373 14.3349 42.8373 14.3349 42.8373H14.3884C14.3884 42.8373 14.3884 42.8373 14.4419 42.8373C14.4953 42.8373 14.5488 42.7831 14.5488 42.7831C14.6023 42.7831 14.6558 42.7831 14.7093 42.8373C14.7093 42.7831 14.7093 42.7289 14.7093 42.6747C14.7093 42.6204 14.7093 42.6204 14.7093 42.5662C14.7093 42.512 14.7093 42.512 14.7093 42.4578C14.7093 42.2409 14.7093 42.0782 14.6558 41.8613C14.6558 41.6444 14.6558 41.4817 14.6558 41.2648C14.6558 41.2106 14.6558 41.1564 14.6558 41.1021V40.9395C14.6558 40.7768 14.6558 40.6141 14.6023 40.4515V40.3972H14.6558C14.7093 40.3972 14.7093 40.343 14.7628 40.343C14.8163 40.343 14.9233 40.2888 14.9767 40.2888C15.0837 40.2888 15.1372 40.2346 15.2442 40.2346C15.2977 40.2346 15.3512 40.2346 15.4047 40.1803C15.5116 40.1803 15.6186 40.1261 15.7256 40.1261C15.8326 40.0719 15.9395 40.0177 15.993 39.9092L16.0465 39.855L16.1535 39.8008C16.207 39.7465 16.314 39.6923 16.3674 39.6381C16.4209 39.5839 16.5279 39.5296 16.5814 39.4754C16.6349 39.4212 16.6349 39.4754 16.6884 39.5296L16.7953 39.6381C16.9023 39.7465 17.0628 39.9092 17.1698 40.0177C17.2767 40.1261 17.3302 40.1803 17.4372 40.2888C17.5442 40.5057 17.7581 40.6683 17.9186 40.831C18.0256 40.8852 18.1326 40.9937 18.186 41.0479C18.2395 41.1021 18.293 41.1021 18.293 41.1021V41.1564C18.3465 41.1564 18.4 41.1564 18.4535 41.1021C18.4535 41.1021 18.4535 41.1021 18.507 41.0479C18.5605 40.9937 18.614 40.9395 18.6674 40.8853C18.8279 40.6684 18.9884 40.4515 19.1488 40.2346C19.3093 40.1261 19.4698 40.0177 19.6302 39.9092L19.7372 39.8008C19.7907 39.7465 19.7907 39.6923 19.8442 39.6923C19.7372 39.6381 19.6302 39.5839 19.5767 39.5839L19.3093 39.3127C19.2023 39.2043 19.0954 39.0958 18.9884 38.9874C18.8814 38.8789 18.7744 38.7705 18.6674 38.662C18.614 38.6078 18.5605 38.5536 18.4535 38.4994C18.3465 38.3909 18.2395 38.3367 18.186 38.2282L18.1326 38.0114H18.0791L18.1326 37.9571C18.186 37.8487 18.2395 37.7402 18.293 37.6318C18.3465 37.5233 18.4 37.4149 18.4535 37.3607L18.5605 37.1438C18.614 37.0353 18.6674 36.8726 18.7209 36.7642L18.7744 36.6557V36.6015L18.8279 36.4931C18.8814 36.3846 18.8814 36.2762 18.9349 36.1135L18.9884 35.8966V35.8424H19.0954C19.2023 35.8424 19.3628 35.8424 19.5233 35.7881H19.8442C19.8977 35.7881 20.0047 35.7881 20.0581 35.7881C20.3791 35.7881 20.7 35.8424 21.0209 35.8966H21.1814C21.1814 35.8966 21.1814 35.8966 21.1814 35.8424V35.7881C21.1814 35.5713 21.2349 35.3544 21.2349 35.1375C21.2884 34.9206 21.2349 34.6494 21.2349 34.4325V34.2699C21.2349 34.2699 21.2349 34.2699 21.2349 34.2156V34.1614C21.2349 34.1614 21.2349 34.1614 21.1814 34.1614C21.1814 34.1614 21.1814 34.1614 21.1279 34.1072C20.807 34.1072 20.4326 34.1072 20.1116 34.1072H19.8442C19.7372 34.1072 19.6302 34.1072 19.5233 34.1072C19.3628 34.1072 19.2023 34.1072 19.0419 34.1072H18.9349L18.8814 33.9987L18.8279 33.7818C18.7744 33.6192 18.7744 33.5107 18.7209 33.348L18.6674 33.1311C18.614 32.9685 18.5605 32.8058 18.507 32.6431L18.4535 32.5347L18.3465 32.372C18.293 32.2636 18.186 32.1009 18.1326 31.9924L18.0791 31.9382L18.1326 31.8298L18.293 31.6671C18.3465 31.6129 18.4 31.5586 18.4535 31.5044L18.507 31.396V31.3417C18.7209 31.1248 18.9349 30.8537 19.1488 30.6368L19.4698 30.3115C19.4698 30.3115 19.5233 30.3115 19.5233 30.2573C19.4698 30.2573 19.4698 30.2573 19.4698 30.2573L19.4163 30.203L19.3628 29.8777C19.2023 29.7692 19.0954 29.6066 18.9884 29.4981C18.8814 29.3897 18.7209 29.227 18.614 29.0643L18.4535 28.9016V28.7932C18.4535 28.7932 18.4535 28.7932 18.4 28.7932C18.4 28.7932 18.3465 28.7932 18.3465 28.8474L18.293 28.9016L18.186 28.9559L18.0256 29.1185C17.7581 29.3354 17.5442 29.6066 17.3302 29.8777L17.1163 30.0404L16.7419 30.4199H16.6349L16.1 30.1488L16.0465 30.0404H15.9395L15.8326 29.9861C15.6721 29.9319 15.5116 29.8777 15.3512 29.8235H15.2977C15.2977 29.8235 15.2977 29.8235 15.2442 29.8235H15.1907L14.9767 29.6608L14.7628 29.6066L14.6558 29.5523H14.5488C14.5488 29.3897 14.5488 29.1728 14.5488 29.0101V28.5763C14.5488 28.3594 14.5488 28.1967 14.5488 27.9798C14.5488 27.7629 14.5488 27.6003 14.5488 27.3834V27.2207C14.5488 27.2207 14.5488 27.2207 14.5488 27.1665V27.1122C14.4953 27.1122 14.4953 27.1122 14.4953 27.1122H14.2279L13.907 27.1665C13.5326 27.1665 13.2116 27.1122 12.8372 27.1665C12.8372 27.1665 12.8372 27.1665 12.7837 27.1665H12.7302C12.7302 27.2207 12.7302 27.2207 12.7302 27.2749V27.546C12.7302 27.8172 12.7837 28.0883 12.7302 28.3594C12.7302 28.4678 12.7302 28.5221 12.7302 28.6305V29.4981H12.6767C12.5163 29.5523 12.3558 29.5523 12.2488 29.6066L12.0349 29.6608H11.8744C11.8209 29.715 11.714 29.715 11.6605 29.7692C11.607 29.7692 11.5 29.8235 11.4465 29.8777C11.393 29.9319 11.286 29.9319 11.2326 29.9861C11.1256 30.0404 10.9651 30.1488 10.8581 30.203L10.5907 30.4199L10.4837 30.4741C10.4302 30.4741 10.4302 30.4199 10.3767 30.3657C10.1628 30.1488 10.0023 29.9861 9.78837 29.7692C9.52093 29.4981 9.30698 29.2812 9.09302 29.0101C9.03954 28.9559 8.98605 28.9559 8.93256 28.9016L8.87907 28.9559C8.71861 29.1185 8.55814 29.227 8.39767 29.3897C8.18372 29.5523 8.02326 29.715 7.86279 29.8777H7.70233L7.54186 30.0404L7.59535 30.0946V30.1488C7.86279 30.3657 8.07674 30.6368 8.2907 30.8537L8.66512 31.2333C8.77209 31.3417 8.87907 31.4502 8.98605 31.5044L9.09302 31.6129V31.884C9.03954 31.9924 8.98605 32.1009 8.87907 32.2093L8.77209 32.4262C8.71861 32.5889 8.66512 32.6974 8.61163 32.86L8.55814 33.1311V33.1854L8.50465 33.2938L8.45116 33.5107C8.39767 33.6192 8.39767 33.7818 8.34419 33.8903V33.9445H8.02326C7.91628 33.9445 7.75581 33.9445 7.64884 33.9445H7.43488C7.27442 33.9445 7.11395 33.9445 6.95349 33.8903C6.79302 33.8903 6.63256 33.8361 6.52558 33.8361C6.47209 33.8361 6.36512 33.8361 6.31163 33.8361H6.20465C6.20465 33.8361 6.20465 33.8361 6.15116 33.8361C6.09767 33.8361 6.04419 33.8361 6.04419 33.8361C6.04419 33.9445 6.04419 33.9987 6.04419 34.1072C6.04419 34.3241 6.04419 34.541 6.04419 34.7579C5.88372 35.0832 5.88372 35.3001 5.88372 35.517V35.7339C5.88372 35.7882 5.88372 35.8424 5.93721 35.8424C5.9907 35.8424 6.04419 35.8424 6.04419 35.8424H6.25814C6.4186 35.8424 6.52558 35.8424 6.63256 35.8424C6.9 35.8424 7.16744 35.8424 7.43488 35.8966C7.59535 35.8966 7.8093 35.8966 7.96977 35.8966H8.18372V35.9508C8.18372 36.0593 8.23721 36.1135 8.23721 36.2219C8.23721 36.3304 8.2907 36.3846 8.2907 36.4931V36.6015L8.34419 36.71C8.39767 36.8184 8.45116 36.9269 8.50465 37.0353C8.55814 37.1438 8.61163 37.2522 8.61163 37.3607C8.61163 37.3607 8.61163 37.3607 8.61163 37.4149V37.4691L8.66512 37.5776C8.71861 37.6318 8.71861 37.7402 8.77209 37.7945L8.82558 37.9029V37.9571C8.77209 38.0114 8.71861 38.0656 8.66512 38.1198C8.61163 38.174 8.55814 38.2282 8.50465 38.3367L8.45116 38.3909V38.4451C8.45116 38.4994 8.45116 38.4994 8.39767 38.5536C8.23721 38.7163 8.07674 38.8789 7.86279 38.9874C7.75581 39.0416 7.70233 39.1501 7.59535 39.2043C7.54186 39.2585 7.54186 39.2585 7.48837 39.3127L7.3814 39.4212C7.3814 39.5296 7.32791 39.5296 7.27442 39.5839C7.27442 39.6381 7.32791 39.6381 7.32791 39.6923C7.32791 39.6923 7.32791 39.7465 7.3814 39.7465L7.48837 39.855C7.75581 40.1261 8.02326 40.3972 8.2907 40.6684C8.39767 40.7768 8.50465 40.8853 8.55814 40.9395C8.61163 40.9937 8.66512 41.0479 8.7186 41.1021C8.77209 41.0479 8.87907 40.9395 8.93256 40.8853C9.03954 40.7768 9.14651 40.6683 9.25349 40.5599C9.46744 40.343 9.6814 40.1261 9.89535 39.9634C10.0023 39.855 10.1093 39.7465 10.2163 39.6381C10.2698 39.5839 10.3233 39.5296 10.3767 39.4754C10.3767 39.4754 10.3767 39.4754 10.4302 39.4212L10.4837 39.4754C10.5372 39.4754 10.5372 39.5296 10.5907 39.5296C10.6977 39.5839 10.8047 39.6923 10.9116 39.7465C11.0186 39.8008 11.0721 39.855 11.1791 39.855C11.3395 39.9634 11.5 40.0177 11.607 40.0719C11.6605 40.1261 11.714 40.1261 11.7674 40.1261C11.8209 40.1261 11.8744 40.1803 11.9279 40.1803C12.1953 40.5057 12.3023 40.5599 12.3023 40.5599C12.3023 40.5599 12.1953 40.5599 12.0349 40.5599C11.9814 40.5599 11.9279 40.5599 11.8744 40.5057C11.8209 40.5057 11.7674 40.4515 11.6605 40.4515C11.5 40.3972 11.393 40.343 11.1791 40.2888C11.0721 40.2346 11.0186 40.2346 10.9116 40.1803C10.8581 40.1261 10.7512 40.1261 10.6977 40.0719C10.6977 40.0719 10.6442 40.0719 10.6442 40.0177H10.5907C10.5372 40.0719 10.5372 40.0719 10.4837 40.1261C10.4302 40.1803 10.4302 40.1803 10.3767 40.2346C10.3233 40.2888 10.2698 40.343 10.2698 40.3972C10.1093 40.6141 9.89535 40.7768 9.6814 41.0479C9.57442 41.1564 9.46744 41.2648 9.36047 41.4275C9.2 41.5902 9.03954 41.7528 8.87907 41.9697C8.39767 41.4817 7.86279 40.9937 7.27442 40.3972L7.16744 40.2888C7.11395 40.2346 7.00698 40.1803 6.95349 40.1261C6.79302 40.0177 6.68605 39.855 6.52558 39.7465C6.68605 39.5296 6.9 39.3127 7.16744 39.1501L7.27442 39.0416C7.32791 38.9874 7.32791 38.9332 7.3814 38.9332C7.43488 38.8247 7.54186 38.7705 7.59535 38.662C7.75581 38.4994 7.91628 38.3367 8.07675 38.174C8.07675 38.1198 8.13023 38.1198 8.13023 38.1198V38.0114C8.13023 38.0114 8.13023 37.9571 8.18372 37.9571V37.7402C8.13023 37.6318 8.07674 37.5233 8.02326 37.3607C7.96977 37.2522 7.91628 37.0895 7.86279 36.9811L7.8093 36.8726V36.6015H7.54186C7.27442 36.6557 7.00698 36.6557 6.73954 36.6015C6.63256 36.6015 6.47209 36.6015 6.36512 36.6015H6.15116C6.04419 36.6015 5.93721 36.6015 5.83023 36.6015C5.66977 36.6015 5.5093 36.5473 5.34884 36.5473C5.34884 36.3304 5.34884 36.1677 5.34884 36.005C5.34884 35.8966 5.34884 35.8424 5.34884 35.7339V35.517C5.34884 35.3001 5.29535 35.029 5.29535 34.8121C5.34884 34.5952 5.34884 34.3783 5.34884 34.1614C5.34884 33.7818 5.34884 33.4565 5.29535 33.0769C5.5093 33.0769 5.77674 33.0769 5.9907 33.0769C6.04419 33.0769 6.09767 33.0769 6.20465 33.0769H6.36512C6.4186 33.0769 6.52558 33.0769 6.57907 33.0769C6.73954 33.0769 6.9 33.0769 7.00698 33.0769C7.16744 33.0769 7.32791 33.0769 7.48837 33.0227C7.54186 33.0227 7.64884 33.0227 7.70233 33.0227H7.75581V32.86C7.8093 32.8058 7.8093 32.6974 7.86279 32.6431C7.91628 32.4805 8.02326 32.3178 8.07675 32.1551L8.13023 32.0467V31.9924C8.13023 31.9924 8.13023 31.9382 8.18372 31.9382V31.884C8.18372 31.884 8.18372 31.884 8.13023 31.8298C8.02326 31.7213 7.91628 31.6129 7.8093 31.5586C7.59535 31.3417 7.32791 31.1248 7.11395 30.8537H7.06047L6.95349 30.6368L6.73954 30.4199C6.57907 30.2573 6.47209 30.1488 6.31163 29.9861C6.47209 29.8235 6.63256 29.6608 6.73954 29.4981L6.95349 29.3354L7.11395 29.1728C7.27442 29.0101 7.43488 28.8474 7.64884 28.6847C7.8093 28.5221 7.91628 28.3594 8.07675 28.1967C8.18372 28.0883 8.34419 27.9256 8.45116 27.8172C8.61163 27.6545 8.71861 27.546 8.87907 27.3834C9.14651 27.7087 9.46744 27.9798 9.73488 28.3052C10.0023 28.5221 10.2698 28.7932 10.4837 29.0643L10.5907 29.1728V29.227H10.6442L10.6977 29.1728C10.8047 29.1185 10.8581 29.0643 10.9651 29.0643C11.0721 29.0101 11.1256 29.0101 11.2326 28.9559C11.3395 28.9016 11.393 28.9016 11.5 28.8474H11.6605C11.714 28.8474 11.714 28.8474 11.7674 28.8474C11.7674 28.8474 11.7674 28.8474 11.7674 28.7932C11.7674 28.7932 11.7674 28.7932 11.7674 28.739V28.6847C11.7674 28.5763 11.7674 28.5221 11.714 28.4136C11.714 28.1425 11.714 27.8714 11.714 27.6003C11.714 27.4376 11.714 27.2207 11.714 27.058C11.714 26.7869 11.714 26.5158 11.714 26.2989C11.8744 26.2989 12.0884 26.2989 12.2488 26.2989C12.4093 26.2989 12.5698 26.2989 12.7837 26.2989C13.1581 26.2989 13.4791 26.2989 13.8535 26.2989H14.3884C14.7093 26.2989 15.0302 26.2989 15.4047 26.2989C15.4047 26.4073 15.4047 26.4615 15.4047 26.57C15.4047 26.7869 15.3512 26.9496 15.3512 27.1122V27.546C15.3512 27.7629 15.3512 27.9256 15.3512 28.1425C15.3512 28.3594 15.3512 28.5221 15.4047 28.739V28.9016C15.4047 28.9016 15.4047 28.9016 15.4047 28.9559H15.5116C15.5116 28.9559 15.5116 28.9559 15.5651 28.9559H15.6186C15.8326 29.0101 15.993 29.1185 16.207 29.1728L16.3674 29.227L16.4209 29.2812H16.4744L16.5279 29.3354C16.7419 29.0643 17.0093 28.8474 17.2233 28.6305C17.5977 28.3052 17.9186 27.9256 18.293 27.6003C18.4 27.7087 18.507 27.8172 18.614 27.9256C18.7209 28.034 18.8814 28.1425 18.9884 28.3052L19.2023 28.5221C19.3093 28.6305 19.4698 28.7932 19.5767 28.9559C19.6837 29.1185 19.8442 29.227 19.9512 29.3354L20.2186 29.6066C20.3256 29.715 20.486 29.8235 20.593 29.9861C20.7 30.0946 20.807 30.203 20.914 30.2573C20.7 30.4741 20.486 30.691 20.2721 30.9079L20.1651 30.9622L19.8442 31.2875C19.5767 31.5044 19.3628 31.7213 19.1488 31.9924L19.2023 32.0467L19.2558 32.1551C19.3628 32.3178 19.4163 32.5347 19.4698 32.6974C19.5233 32.8058 19.5233 32.86 19.5767 32.9685V33.0227C19.5767 33.0227 19.5767 33.0227 19.5767 33.0769H19.7372C19.8442 33.0769 19.8977 33.0769 20.0047 33.0769C20.3256 33.0769 20.7 33.0769 21.0209 33.0227C21.3419 33.0227 21.7163 32.9685 22.0907 32.9685C22.0907 33.1854 22.0907 33.4023 22.1442 33.6734C22.1442 33.7818 22.1442 33.8903 22.1442 34.053V34.2699C22.1442 34.541 22.0907 34.7579 22.0372 34.9748C22.0372 35.1917 22.0372 35.4086 22.0372 35.6255C22.0372 35.9508 22.0372 36.3304 21.9837 36.6557C21.7698 36.6557 21.5558 36.6557 21.3419 36.6557C21.2349 36.6557 21.1279 36.6557 21.0209 36.6557H20.807C20.486 36.6015 20.1651 36.5473 19.8442 36.6015H19.4163C19.4163 36.6015 19.4163 36.6015 19.4163 36.6557L19.3628 36.71L19.3093 36.8726C19.2558 37.0353 19.2023 37.198 19.0954 37.3064C19.0419 37.4691 18.9349 37.6318 18.9349 37.6318C18.9349 37.686 18.8814 37.7402 18.9349 37.7402C18.9349 37.7402 18.9884 37.7402 18.9884 37.7945L19.0954 37.9029C19.2023 38.0114 19.3093 38.1198 19.4163 38.2282C19.5233 38.3367 19.6302 38.4451 19.6837 38.5536C19.7372 38.6078 19.7907 38.662 19.8442 38.7163L20.0047 38.8789C20.2186 39.0958 20.486 39.3127 20.6465 39.5296C20.5395 39.6381 20.3791 39.7465 20.2721 39.855C20.1651 39.9634 20.0581 40.0719 19.8977 40.1803C19.7372 40.2888 19.6302 40.4515 19.5233 40.6141C19.3093 40.7768 19.1488 40.9937 18.9884 41.1564C18.8814 41.2648 18.7744 41.3733 18.614 41.5359C18.4535 41.6986 18.293 41.8613 18.186 41.9697L18.1326 41.9155C17.9721 41.8613 17.8116 41.6986 17.6512 41.5359C17.4372 41.319 17.3837 41.2648 17.3302 41.1564C17.1698 40.9395 17.0628 40.7226 16.8488 40.5599C16.7953 40.4515 16.6884 40.3972 16.5814 40.2888L16.5279 40.2346H16.4744L16.4209 40.1803C16.4209 40.1803 16.3674 40.1803 16.3674 40.2346H16.314C16.314 40.2346 16.314 40.2346 16.2605 40.2346C16.207 40.2346 16.207 40.2346 16.1535 40.2346C16.0465 40.343 15.9395 40.3972 15.8326 40.4515C15.7256 40.5057 15.6186 40.5599 15.5116 40.5599H15.1907C15.1372 40.5599 15.1372 40.5599 15.0837 40.5599H15.0302C15.0302 40.6141 15.0302 40.6684 15.0302 40.7226C15.0302 40.831 15.0302 40.8852 15.0302 40.9937C15.0302 41.2106 15.0302 41.4275 14.9767 41.5902C15.0302 41.8071 15.0302 41.9697 14.9767 42.1866C14.9767 42.2409 14.9767 42.3493 14.9767 42.4035C14.9767 42.4578 14.9767 42.512 14.9767 42.6204C14.9767 42.7289 14.9767 42.8916 14.9767 43C14.7093 42.9458 14.4419 42.9458 14.2279 42.9458C14.1209 42.9458 14.0674 42.9458 13.9605 42.9458C13.8535 42.9458 13.8 42.9458 13.693 42.9458C13.3721 42.9458 13.0512 42.9458 12.7837 42.9458C12.4628 42.9458 12.1419 42.9458 11.8744 42.9458C11.8744 42.8916 11.8744 42.8916 11.8744 42.8373C11.8744 42.5662 11.8744 42.3493 11.8744 42.1324C11.8744 41.9697 11.8744 41.8071 11.8744 41.6444C11.8744 41.3733 11.9279 41.1021 11.9279 40.8853C12.2488 40.7768 12.2488 40.5599 12.3023 40.5599Z" fill="#B2907C"/>
</svg>
