<svg width="72" height="57" viewBox="0 0 72 57" fill="none" xmlns="http://www.w3.org/2000/svg">
<path d="M7.71675 10.5932C7.71675 10.5932 7.55259 10.6753 7.30634 10.6753C7.22426 10.6753 7.14218 10.6753 7.0601 10.6753C6.97802 10.6753 6.89594 10.6753 6.73178 10.7574C6.6497 10.7574 6.48554 10.8395 6.40345 10.8395C6.32137 10.8395 6.15721 10.9216 5.99305 10.9216C5.41848 11.0858 4.84392 11.3322 4.10519 11.8248C3.44854 12.2354 2.70981 12.8923 2.13525 13.7955C1.72484 14.3703 1.39652 15.1093 1.23236 15.8483C1.15027 16.2589 1.06819 16.6694 1.06819 17.08C1.06819 17.3263 1.06819 17.4905 1.06819 17.7369C1.06819 17.9832 1.06819 18.2295 1.06819 18.3938C0.986113 19.297 1.31444 20.3644 1.06819 21.3498C0.986113 22.4172 1.06819 23.4847 1.06819 24.6342C1.15027 25.7838 0.986113 26.9333 1.06819 28.165C1.31444 29.3967 0.821951 30.7105 1.06819 32.0243C1.15027 33.338 1.15027 34.7339 1.06819 36.1298C0.904032 37.5257 1.06819 39.0037 1.06819 40.4817C0.821951 41.9597 0.986113 43.5199 1.06819 45.08C0.904032 45.9011 0.821951 46.6401 0.904032 47.4612C0.904032 47.6254 0.904032 47.8718 0.904032 48.036C0.904032 48.1181 0.904032 48.2002 0.904032 48.3644V48.6108C0.904032 48.6929 0.904032 48.775 0.986113 48.8571L1.15027 49.3498C1.15027 49.4319 1.23236 49.514 1.23236 49.5961C1.39652 50.3351 1.72484 51.0741 2.13525 51.6489C2.54565 52.3058 3.12022 52.8806 3.77686 53.2911C4.43351 53.7017 5.17224 54.0301 5.91097 54.1943C6.07513 54.2765 6.32137 54.2765 6.48554 54.2765C6.56762 54.2765 6.6497 54.2765 6.81386 54.2765H7.79883C8.04507 54.2765 8.20924 54.2765 8.45548 54.2765C10.2613 54.1122 12.067 54.1122 13.8728 54.2765C15.6786 54.0301 17.5665 54.1122 19.4543 54.2765C21.3422 54.3586 23.3121 54.1122 25.2 54.2765C27.1699 54.2765 29.1399 54.1943 31.1098 54.2765C33.0798 54.3586 35.1318 54.4407 37.1838 54.2765C39.2358 54.1943 41.2878 54.1122 43.422 54.2765C45.5561 54.0301 47.6081 54.1122 49.7422 54.2765C51.8763 54.2765 54.0104 54.4407 56.2266 54.2765C58.4428 54.2765 60.5769 54.1943 62.7931 54.2765C63.778 54.2765 64.763 54.1122 65.6659 53.6196C66.5688 53.209 67.3075 52.47 67.8821 51.6489C68.0462 51.4847 68.1283 51.2383 68.2104 50.992C68.2925 50.9099 68.2925 50.7457 68.3746 50.6636C68.4566 50.5814 68.4566 50.4172 68.5387 50.3351C68.7029 49.9246 68.867 49.4319 68.9491 48.9392L69.0312 48.6108V48.1181C69.0312 48.036 69.0312 48.036 69.0312 47.9539V47.5433C69.0312 46.9685 69.0312 46.4759 69.0312 45.9011C69.2775 43.7662 68.9491 41.6313 69.0312 39.5785C69.0312 37.4436 69.1954 35.3908 69.0312 33.338C69.0312 31.2853 68.9491 29.2325 69.0312 27.2618C68.7029 25.2911 69.1133 23.2383 69.0312 21.3498C69.1133 20.3644 69.1133 19.3791 69.1133 18.4759C69.1133 17.9832 69.1133 17.4905 69.0312 17.08C69.0312 16.6694 68.9491 16.2589 68.785 15.8483C68.5387 15.0272 68.1283 14.2882 67.6358 13.5492C67.1433 12.8923 66.4867 12.3175 65.6659 11.9891C64.9272 11.5785 64.1063 11.3322 63.2855 11.3322C63.1214 11.3322 62.8751 11.3322 62.711 11.3322C62.4647 11.3322 62.3006 11.3322 62.0543 11.3322C61.6439 11.3322 61.1514 11.3322 60.741 11.2501C58.9352 11.4143 57.2115 11.0858 55.4879 11.2501C53.7642 11.2501 52.1225 11.2501 50.4809 11.2501C48.8393 11.0037 47.1977 11.168 45.6381 11.2501C44.0786 11.2501 42.5191 11.4143 41.0416 11.2501C39.5642 11.2501 38.0867 11.0858 36.6913 11.2501C35.2959 11.2501 33.9006 10.8395 32.5873 11.2501C31.274 11.3322 29.9607 11.0037 28.7295 11.2501C27.4983 11.4964 26.3491 11.2501 25.2 11.2501C24.0509 11.2501 22.9838 11.2501 21.9168 11.2501C17.2381 11.168 13.5445 11.168 11 11.0858C9.76877 11.0858 8.7838 11.0037 8.12715 11.0037C8.04507 10.6753 7.71675 10.6753 7.71675 10.5932C7.71675 10.5932 8.12715 10.5111 8.94796 10.5111C9.76877 10.5111 10.9179 10.4289 12.4774 10.4289C15.5965 10.3468 20.0289 10.2647 25.7746 10.2647C26.9237 10.2647 28.0728 10.1005 29.304 10.2647C30.5352 10.2647 31.8485 10.1005 33.1618 10.2647C34.4751 10.0184 35.8705 10.1826 37.2659 10.2647C38.6613 10.2647 40.1387 10.3468 41.6162 10.2647C43.0936 10.1005 44.6532 10.3468 46.2127 10.2647C47.7722 10.4289 49.4139 10.3468 51.0555 10.2647C52.6971 10.4289 54.3387 10.2647 56.0624 10.2647C57.7861 10.5111 59.5098 10.3468 61.3156 10.2647C61.726 10.2647 62.2185 10.2647 62.6289 10.2647C62.8751 10.2647 63.0393 10.2647 63.2855 10.2647C63.5318 10.2647 63.778 10.2647 64.0243 10.3468C65.0092 10.4289 65.9942 10.7574 66.8971 11.2501C67.8 11.7427 68.6208 12.3996 69.2775 13.1386C69.9341 13.9597 70.4266 14.863 70.7549 15.8483C70.9191 16.341 71.0011 16.8336 71.0832 17.4084C71.1653 17.9832 71.1653 18.3938 71.1653 18.8864C71.1653 19.8718 71.1653 20.8571 71.0832 21.7603C71.1653 23.731 71.0832 25.7017 71.0832 27.6723C71.1653 29.643 71.0832 31.6958 71.0832 33.7486C71.1653 35.8014 70.837 37.8542 71.0832 39.9891C71.0832 42.124 71.0832 44.1768 71.0832 46.3116C71.0832 46.8864 71.0832 47.3791 71.0832 47.9539V48.3644C71.0832 48.4465 71.0832 48.5287 71.0832 48.6108V48.8571C71.0832 49.0213 71.0832 49.1856 71.0832 49.2677L71.0012 49.6782C70.9191 50.253 70.7549 50.8278 70.5087 51.4026C70.4266 51.5668 70.3445 51.6489 70.3445 51.8131C70.2624 51.9773 70.2624 52.0594 70.1803 52.2237C70.0162 52.47 69.852 52.7163 69.6879 52.9627L69.3595 53.2911L68.785 53.3732C68.5387 53.6196 68.3746 53.7838 68.1283 53.948C68.0462 54.0301 67.8821 54.1122 67.8 54.1943L67.4717 54.4407L67.0613 54.687C66.8971 54.7691 66.815 54.8512 66.6509 54.9334C65.5838 55.5081 64.4347 55.8366 63.2035 55.9187C60.9873 56.0008 58.7711 55.9187 56.637 55.9187C54.4208 55.9187 52.2867 55.9187 50.1526 55.9187C48.0185 56.0008 45.8844 55.8366 43.8324 55.9187C41.6983 56.0008 39.6462 55.8366 37.5942 55.9187C35.5422 56.0008 33.4902 56.0008 31.5202 55.9187C29.5503 55.9187 27.4983 55.6724 25.6104 55.9187C23.6405 56.0008 21.7526 56.2471 19.8647 55.9187C17.9769 56.0008 16.089 55.7545 14.2832 55.9187C12.4774 55.6724 10.6717 55.9187 8.86588 55.9187C8.61964 55.9187 8.45548 55.9187 8.20924 55.9187H7.22426C7.14218 55.9187 6.97802 55.9187 6.89594 55.8366C6.6497 55.7545 6.40345 55.7545 6.23929 55.6724C5.3364 55.426 4.43351 55.0155 3.69478 54.6049C2.87397 54.1122 2.21733 53.4553 1.72484 52.6342C1.23236 51.8952 0.904032 50.992 0.657789 50.1709C0.657789 50.0888 0.575709 49.9246 0.575709 49.8424C0.575709 49.7603 0.493628 49.5961 0.493628 49.514L0.411547 49.1856C0.411547 49.1034 0.411547 48.9392 0.411547 48.8571V48.2002C0.411547 48.036 0.411547 47.7897 0.411547 47.6254C0.493628 46.8043 0.493628 46.0653 0.411547 45.2442C0.411547 43.6841 0.411547 42.124 0.411547 40.646C0.0832229 39.168 0.411547 37.6899 0.411547 36.2941C0.493628 34.8982 0.165304 33.5023 0.411547 32.1885C0.165304 30.8747 0.411547 29.5609 0.411547 28.3292C0.493628 27.0976 0.329466 25.948 0.411547 24.7985C0.247385 23.6489 0.493628 22.5814 0.411547 21.514C0.493628 20.4465 0.411547 19.4612 0.411547 18.558C0.411547 18.3116 0.411547 18.0653 0.411547 17.9011C0.411547 17.6548 0.411547 17.4084 0.411547 17.1621C0.493628 16.6694 0.575708 16.2589 0.73987 15.8483C0.986113 15.0272 1.39652 14.2882 1.80692 13.6313C2.46357 12.7281 3.28438 12.0712 4.02311 11.6606C4.76184 11.2501 5.50056 11.0037 6.07513 10.8395C6.23929 10.8395 6.32137 10.7574 6.48554 10.7574C6.6497 10.7574 6.73178 10.7574 6.81386 10.7574C6.89594 10.7574 7.0601 10.7574 7.14218 10.7574C7.22426 10.7574 7.30635 10.7574 7.38843 10.7574C7.55259 10.5932 7.71675 10.5932 7.71675 10.5932Z" fill="#73523F"/>
<path d="M17.5665 0.821909C17.6485 0.821909 17.7306 1.80725 17.8127 3.69581C17.8127 4.02426 17.8127 4.3527 17.8127 4.68115C17.8127 5.00959 17.8948 5.42015 17.8127 5.83071C17.7306 6.24126 18.0589 6.65182 17.8127 7.06238C17.7306 7.47294 17.8127 7.96561 17.8127 8.45827C17.8127 8.70461 17.8127 8.95094 17.8127 9.19728C17.8127 9.3615 17.8127 9.44361 17.8127 9.60783C17.8127 9.68995 17.8127 9.77206 17.8127 9.77206V9.85417C17.8127 9.85417 17.8127 9.85417 17.8127 9.93628C18.0589 9.85417 18.0589 9.93628 18.0589 9.93628C18.0589 10.0184 18.0589 10.0184 17.9769 10.1005C18.0589 10.1826 18.2231 10.2647 18.4693 10.1005C19.0439 10.0184 19.6185 10.0184 20.193 10.1005C20.7676 10.2647 21.4243 10.1005 21.9988 10.1005C22.6555 10.3468 23.3121 10.1826 23.9688 10.1005C24.6254 10.4289 25.2821 10.3468 26.0208 10.1005C26.6774 10.1005 27.4162 10.1826 28.1549 10.1005C28.8936 10.1005 29.6324 10.0184 30.3711 10.1005C31.1098 9.93628 31.8485 9.93628 32.6693 10.1005C33.4081 9.85417 34.2289 9.93628 35.0497 10.1005C35.8705 10.1826 36.6913 9.93628 37.5121 10.1005C38.3329 10.1005 39.1537 10.0184 40.0566 10.1005C40.8774 10.1826 41.7803 10.2647 42.6011 10.1005C43.504 10.0184 44.3248 9.93628 45.2277 10.1005C46.1306 9.85417 47.0335 9.93628 47.9364 10.1005C48.8393 10.1005 49.7422 10.2647 50.6451 10.1005C51.1376 10.1005 51.548 10.1005 52.0404 10.1005H52.615C52.615 10.1005 52.615 10.0184 52.6971 10.0184V9.52572C52.6971 9.03305 52.6971 8.6225 52.615 8.12983C52.4508 7.2266 52.6971 6.32338 52.615 5.42015C52.8613 4.51692 52.5329 3.6137 52.615 2.71047C52.615 2.54625 52.615 2.46414 52.615 2.29992V1.97147C52.615 1.88936 52.615 1.88936 52.615 1.80725H52.5329C52.5329 1.80725 52.5329 1.80725 52.4509 1.80725H52.2867C51.3838 1.80725 50.563 1.88936 49.7422 1.80725C48.9214 2.13569 48.0185 1.72514 47.1977 1.80725C46.3769 1.64302 45.5561 1.80725 44.7352 1.80725C43.9144 1.88936 43.1757 1.64302 42.3549 1.80725C41.6162 1.80725 40.7954 1.88936 40.0566 1.80725C39.3179 1.97147 38.5792 1.64302 37.8404 1.80725C37.1017 1.80725 36.4451 1.80725 35.7063 1.80725C35.0497 1.56091 34.311 1.72514 33.6543 1.80725C32.9977 1.80725 32.341 1.97147 31.6844 1.80725C31.0277 1.80725 30.4532 1.64302 29.8786 1.80725C29.304 1.80725 28.7295 1.39669 28.1549 1.80725C27.5803 1.88936 27.0878 1.56091 26.5133 1.80725C26.0208 2.05358 25.5283 1.80725 25.0358 1.80725C24.5433 1.80725 24.1329 1.80725 23.6404 1.80725C19.7826 1.06824 17.5665 0.904021 17.5665 0.821909C17.5665 0.739798 18.3052 0.657687 19.6185 0.575575C20.9318 0.493464 22.8196 0.411352 25.2 0.411352C25.6925 0.411352 26.185 0.247129 26.6774 0.411352C27.1699 0.411352 27.7445 0.247129 28.3191 0.411352C28.8936 0.165018 29.4682 0.329241 30.0428 0.411352C30.6173 0.411352 31.274 0.493464 31.8485 0.411352C32.5052 0.247129 33.1618 0.493464 33.8185 0.411352C34.4751 0.575575 35.1318 0.493464 35.8705 0.411352C36.5272 0.575575 37.2659 0.411352 38.0046 0.411352C38.7433 0.657687 39.4821 0.493464 40.2208 0.411352C40.9595 0.329241 41.6982 0.411352 42.5191 0.411352C43.2578 0.493464 44.0786 0.329241 44.8994 0.411352C45.7202 0.329241 46.541 0.247129 47.3618 0.411352C48.1826 0.329241 49.0035 0.411352 49.9063 0.411352C50.7271 0.329241 51.63 0.411352 52.4509 0.411352H52.8613C53.0254 0.411352 53.1896 0.411352 53.3537 0.411352C53.6821 0.411352 53.9283 0.411352 54.2566 0.411352C54.2566 0.904021 54.1745 1.39669 54.1745 1.88936V2.13569C54.1745 2.2178 54.1745 2.29992 54.1745 2.29992C54.1745 2.46414 54.1745 2.54625 54.2566 2.71047C54.2566 3.6137 54.2566 4.51692 54.2566 5.42015C54.2566 6.32338 54.1745 7.2266 54.2566 8.12983C54.1745 8.6225 54.0925 9.03305 54.0925 9.52572C54.0925 9.60783 54.0925 9.77206 54.0925 9.85417V10.3468C54.0925 10.7574 54.1745 11.2501 54.1745 11.6606C53.7641 11.6606 53.2717 11.6606 52.8613 11.6606H52.0404C51.548 11.6606 51.1376 11.6606 50.6451 11.6606C49.7422 11.6606 48.8393 11.6606 47.9364 11.6606C47.0335 11.7427 46.1306 11.5785 45.2277 11.6606C44.3248 11.7427 43.504 11.5785 42.6011 11.6606C41.6982 11.7427 40.8774 11.7427 40.0566 11.6606C39.2358 11.6606 38.3329 11.4143 37.5121 11.6606C36.6913 11.7427 35.8705 11.9891 35.0497 11.6606C34.2289 11.7427 33.4902 11.4964 32.6693 11.6606C31.9306 11.4143 31.1098 11.6606 30.3711 11.6606C29.6324 11.5785 28.8936 11.4964 28.1549 11.6606C27.4162 11.7427 26.7595 11.5785 26.0208 11.6606C25.3641 11.8248 24.6254 11.4964 23.9688 11.6606C23.3121 11.6606 22.6555 11.6606 21.9988 11.6606C21.3422 11.9891 20.7676 11.6606 20.193 11.6606C19.6185 11.5785 19.0439 11.907 18.4693 11.6606C18.4693 11.6606 18.4693 11.6606 18.3873 11.6606H18.3052C18.2231 11.6606 18.141 11.6606 18.141 11.6606C17.9769 11.6606 17.8948 11.6606 17.7306 11.6606C17.4844 11.6606 17.2381 11.6606 16.9919 11.6606C16.9919 11.2501 17.074 10.8395 17.074 10.4289C17.074 10.3468 17.074 10.3468 17.074 10.2647V10.1826C17.074 10.1005 17.074 10.0184 17.074 10.0184C17.074 9.85417 17.074 9.77206 17.074 9.60783C17.074 9.3615 17.074 9.11517 17.1561 8.86883C16.9919 8.37616 17.2381 7.96561 17.1561 7.47294C17.2381 7.06238 17.1561 6.65182 17.1561 6.24126C17.1561 5.83071 17.1561 5.50226 17.1561 5.0917C17.1561 4.76326 17.1561 4.43481 17.1561 4.10637C17.3202 1.80725 17.4023 0.821909 17.5665 0.821909Z" fill="#73523F"/>
<path d="M0.657789 17.4084C0.73987 17.4084 0.73987 17.819 0.821951 18.6401C0.821951 19.0506 0.904032 19.5433 0.904032 20.1181C0.904032 20.6108 0.904032 21.2677 0.986113 21.9245C0.986113 21.9245 0.986113 22.0067 0.986113 22.0888C1.15027 22.0888 1.31444 22.0888 1.4786 22.0888C1.72484 22.0888 1.889 22.0888 2.13525 22.0888C2.70981 22.0888 3.28438 22.0067 3.94103 22.0888C4.59767 22.1709 5.25432 21.8424 5.99305 22.0888C6.73178 22.1709 7.47051 22.0888 8.20923 22.0888C9.03004 22.0067 9.76877 22.1709 10.6717 22.0888C11.4925 21.8424 12.3954 22.3351 13.2983 22.0888C14.2011 22.0067 15.1861 22.0067 16.089 22.0888C17.074 22.253 18.0589 22.0888 19.0439 22.0888C20.0289 22.3351 21.0959 22.253 22.163 22.0888C23.23 22.4172 24.3792 22.3351 25.4462 22.0888C26.5954 22.0888 27.7445 22.1709 28.8936 22.0888C30.0428 22.0888 31.274 22.0067 32.5052 22.0888C33.7364 21.9245 34.9676 21.9245 36.2809 22.0888C37.5121 21.8424 38.8254 21.9245 40.1387 22.0888C41.452 22.1709 42.7653 21.9245 44.0786 22.0888C45.3919 22.0888 46.7873 22.0067 48.1826 22.0888C49.578 22.1709 50.9734 22.253 52.3688 22.0888C53.7641 22.0067 55.2416 21.9245 56.637 22.0888C58.1144 21.8424 59.5098 21.9245 60.9873 22.0888C62.4647 22.0888 63.9422 22.253 65.4196 22.0888C66.1584 22.0888 66.8971 22.0888 67.6358 22.0888C68.0462 22.0888 68.3746 22.0888 68.785 22.0888H69.1133V21.6782C69.1133 21.2677 69.1133 20.9392 69.1133 20.5287C69.1133 20.1181 69.1133 19.7897 69.1133 19.3791C69.1133 19.2149 69.1133 18.9685 69.1133 18.8043H68.785C68.4566 18.8043 68.1283 18.8043 67.7179 18.8043C67.0613 18.8043 66.3225 18.7222 65.6659 18.8043C64.1884 18.558 62.711 18.8864 61.3156 18.8043C59.8381 18.8043 58.4428 18.7222 57.0474 18.8043C55.652 18.8043 54.2566 18.8864 52.8613 18.8043C51.4659 19.1328 50.1526 18.7222 48.7572 18.8043C47.4439 18.6401 46.0485 18.8043 44.8173 18.8043C43.504 18.8864 42.1907 18.6401 40.9595 18.8043C39.7283 18.8043 38.415 18.8864 37.1838 18.8043C35.9526 18.9685 34.7214 18.6401 33.5722 18.8043C32.4231 18.8043 31.274 18.8043 30.1248 18.8043C28.9757 18.558 27.9087 18.7222 26.8416 18.8043C25.7746 18.8043 24.7075 18.9685 23.7225 18.8043C22.7376 18.8043 21.6705 18.6401 20.7676 18.8043C19.7826 18.8043 18.8798 18.3938 17.9769 18.8043C17.074 18.8864 16.1711 18.558 15.3503 18.8043C14.5295 19.0506 13.7087 18.8043 12.8878 18.8043C12.067 18.8043 11.3283 18.8043 10.6717 18.8043C7.47051 18.7222 4.926 18.7222 3.2023 18.6401C1.64276 17.4905 0.657789 17.4084 0.657789 17.4084C0.657789 17.3263 1.80692 17.2442 3.94103 17.1621C6.07513 17.08 9.19421 16.9979 13.052 16.9979C13.8728 16.9979 14.6115 16.8336 15.5144 16.9979C16.3352 16.9979 17.2381 16.8336 18.141 16.9979C19.0439 16.7515 20.0289 16.9158 20.9318 16.9979C21.9167 16.9979 22.9017 17.08 23.8867 16.9979C24.8717 16.8336 25.9387 17.08 27.0058 16.9979C28.0728 17.1621 29.222 17.08 30.289 16.9979C31.4381 17.1621 32.5873 16.9979 33.7364 16.9979C34.8855 17.2442 36.1167 17.08 37.348 16.9979C38.5792 16.9158 39.8104 16.9979 41.1237 16.9979C42.3549 17.08 43.6682 16.9158 44.9815 16.9979C46.2948 16.9158 47.6081 16.8336 48.9214 16.9979C50.2347 16.9158 51.63 16.9979 53.0254 16.9979C54.4208 16.9158 55.8162 16.9979 57.2115 16.9979C58.6069 16.9158 60.0844 17.2442 61.4798 16.9979C62.9572 16.9979 64.3526 16.9979 65.83 16.9979C66.4867 16.9979 67.2254 16.9979 67.8821 16.9979C68.2104 16.9979 68.5387 16.9979 68.9491 16.9979C69.5237 16.9979 70.0983 16.9979 70.7549 16.9979C70.7549 17.1621 70.7549 17.4084 70.7549 17.5726C70.7549 17.7369 70.7549 17.9011 70.7549 18.1474V18.6401C70.7549 18.8043 70.7549 19.0506 70.7549 19.2149C70.7549 19.6254 70.7549 19.9539 70.7549 20.3644C70.7549 20.775 70.7549 21.1034 70.837 21.514V22.253C70.837 22.5814 70.837 22.992 70.837 23.3204C70.1803 23.3204 69.6058 23.3204 68.9491 23.3204C68.5387 23.3204 68.2104 23.3204 67.8 23.3204C67.0613 23.3204 66.3225 23.3204 65.5838 23.3204C64.1063 23.3204 62.6289 23.3204 61.1514 23.3204C59.674 23.4026 58.1965 23.2383 56.8011 23.3204C55.3237 23.4026 53.9283 23.2383 52.5329 23.3204C51.1376 23.4026 49.7422 23.4026 48.3468 23.3204C46.9514 23.3204 45.6381 23.0741 44.2428 23.3204C42.9295 23.4026 41.5341 23.6489 40.3029 23.3204C38.9896 23.4026 37.6763 23.1562 36.4451 23.3204C35.2139 23.0741 33.9006 23.3204 32.6693 23.3204C31.4381 23.2383 30.2069 23.1562 29.0578 23.3204C27.9087 23.4026 26.7595 23.2383 25.6104 23.3204C24.4613 23.4847 23.3942 23.1562 22.3272 23.3204C21.2601 23.3204 20.193 23.3204 19.2081 23.3204C18.2231 23.6489 17.1561 23.3204 16.2532 23.3204C15.2682 23.2383 14.3653 23.5668 13.4624 23.3204C12.5595 23.5668 11.6566 23.3204 10.8358 23.3204C10.015 23.2383 9.19421 23.4026 8.3734 23.3204C7.55259 23.4847 6.81386 23.2383 6.15721 23.3204C5.41848 23.2383 4.76184 23.3204 4.10519 23.3204C3.44854 23.3204 2.87397 23.3204 2.29941 23.3204C1.72484 23.3204 1.15027 23.3204 0.575708 23.3204C0.575708 23.2383 0.575708 23.1562 0.575708 23.0741C0.575708 22.6636 0.575708 22.1709 0.575708 21.7603C0.575708 21.4319 0.575708 21.1034 0.575708 20.8571C0.575708 20.2823 0.657789 19.7897 0.657789 19.3791C0.575708 17.819 0.657789 17.4084 0.657789 17.4084Z" fill="#73523F"/>
<path d="M0.657789 43.5199C0.73987 43.5199 0.73987 43.9304 0.821951 44.7515C0.821951 45.1621 0.821951 45.6548 0.904032 46.2295C0.904032 46.7222 0.904032 47.3791 0.986113 48.036C0.986113 48.036 0.986113 48.1181 0.986113 48.2002C1.15027 48.2002 1.31444 48.2002 1.4786 48.2002C1.72484 48.2002 1.889 48.2002 2.13525 48.2002C2.70981 48.2002 3.28438 48.1181 3.94103 48.2002C4.59767 48.2823 5.25432 47.9539 5.99305 48.2002C6.73178 48.2823 7.47051 48.2002 8.20923 48.2002C9.03004 48.1181 9.76877 48.2823 10.6717 48.2002C11.4925 47.9539 12.3954 48.4465 13.2983 48.2002C14.2011 48.1181 15.1861 48.1181 16.089 48.2002C17.074 48.3644 18.0589 48.2002 19.0439 48.2002C20.0289 48.4465 21.0959 48.2823 22.163 48.2002C23.23 48.5287 24.3792 48.4465 25.4462 48.2002C26.5954 48.2002 27.7445 48.2823 28.8936 48.2002C30.0428 48.2002 31.274 48.1181 32.5052 48.2002C33.7364 48.036 34.9676 48.036 36.2809 48.2002C37.5121 47.9539 38.8254 48.036 40.1387 48.2002C41.452 48.2823 42.7653 48.036 44.0786 48.2002C45.3919 48.2002 46.7873 48.1181 48.1826 48.2002C49.578 48.2823 50.9734 48.3644 52.3688 48.2002C53.7641 48.1181 55.2416 48.036 56.637 48.2002C58.1144 47.9539 59.5098 48.036 60.9873 48.2002C62.4647 48.2002 63.9422 48.2823 65.4196 48.2002C66.1584 48.2002 66.8971 48.2002 67.6358 48.2002C68.0462 48.2002 68.3746 48.2002 68.785 48.2002H69.1133V47.7897C69.1133 47.3791 69.1133 47.0506 69.1133 46.6401C69.1133 46.2295 69.1133 45.9011 69.1133 45.4905C69.1133 45.3263 69.1133 45.08 69.1133 44.9158H68.785C68.4566 44.9158 68.1283 44.9158 67.7179 44.9158C67.0613 44.9158 66.3225 44.8336 65.6659 44.9158C64.1884 44.6694 62.711 44.9979 61.3156 44.9158C59.8381 44.9158 58.4428 44.8336 57.0474 44.9158C55.652 44.9158 54.2566 44.9979 52.8613 44.9158C51.4659 45.2442 50.1526 44.8336 48.7572 44.9158C47.4439 44.7515 46.0485 44.9158 44.8173 44.9158C43.504 44.9979 42.1907 44.7515 40.9595 44.9158C39.7283 44.9158 38.415 44.9979 37.1838 44.9158C35.9526 45.08 34.7214 44.7515 33.5722 44.9158C32.4231 44.9158 31.274 44.9158 30.1248 44.9158C28.9757 44.6694 27.9087 44.8336 26.8416 44.9158C25.7746 44.9158 24.7075 45.08 23.7225 44.9158C22.7376 44.9158 21.6705 44.7515 20.7676 44.9158C19.7826 44.9158 18.8798 44.5052 17.9769 44.9158C17.074 44.9979 16.1711 44.6694 15.3503 44.9158C14.5295 45.1621 13.7087 44.9158 12.8878 44.9158C12.067 44.9158 11.3283 44.9158 10.6717 44.9158C7.47051 44.8336 4.926 44.8336 3.2023 44.7515C1.64276 43.6841 0.657789 43.602 0.657789 43.5199C0.657789 43.4377 1.80692 43.3556 3.94103 43.2735C6.07513 43.1914 9.19421 43.1093 13.052 43.1093C13.8728 43.1093 14.6115 42.9451 15.5144 43.1093C16.3352 43.1093 17.2381 42.9451 18.141 43.1093C19.0439 42.863 20.0289 43.0272 20.9318 43.1093C21.9167 43.1093 22.9017 43.1914 23.8867 43.1093C24.8717 42.9451 25.9387 43.1914 27.0058 43.1093C28.0728 43.2735 29.222 43.1914 30.289 43.1093C31.4381 43.2735 32.5873 43.1093 33.7364 43.1093C34.8855 43.3556 36.1167 43.1914 37.348 43.1093C38.5792 43.0272 39.8104 43.1093 41.1237 43.1093C42.3549 43.1914 43.6682 43.0272 44.9815 43.1093C46.2948 43.0272 47.6081 42.9451 48.9214 43.1093C50.2347 43.0272 51.63 43.1093 53.0254 43.1093C54.4208 43.0272 55.8162 43.1093 57.2115 43.1093C58.6069 43.0272 60.0844 43.3556 61.4798 43.1093C62.9572 43.1093 64.3526 43.1093 65.83 43.1093C66.4867 43.1093 67.2254 43.1093 67.8821 43.1093C68.2104 43.1093 68.5387 43.1093 68.9491 43.1093C69.5237 43.1093 70.0983 43.1093 70.7549 43.1093C70.7549 43.2735 70.7549 43.5199 70.7549 43.6841C70.7549 43.8483 70.7549 44.0125 70.7549 44.2589V44.7515C70.7549 44.9158 70.7549 45.1621 70.7549 45.3263C70.7549 45.7369 70.7549 46.0653 70.7549 46.4759C70.7549 46.8864 70.7549 47.2149 70.837 47.6254V48.3644C70.837 48.6929 70.837 49.1034 70.837 49.4319C70.1803 49.4319 69.6058 49.4319 68.9491 49.4319C68.5387 49.4319 68.2104 49.4319 67.8 49.4319C67.0613 49.4319 66.3225 49.4319 65.5838 49.4319C64.1063 49.4319 62.6289 49.4319 61.1514 49.4319C59.674 49.514 58.1965 49.3498 56.8011 49.4319C55.3237 49.514 53.9283 49.3498 52.5329 49.4319C51.1376 49.514 49.7422 49.514 48.3468 49.4319C46.9514 49.4319 45.6381 49.1855 44.2428 49.4319C42.9295 49.514 41.5341 49.7603 40.3029 49.4319C38.9896 49.514 37.6763 49.2677 36.4451 49.4319C35.2139 49.1855 33.9006 49.4319 32.6693 49.4319C31.4381 49.3498 30.2069 49.2677 29.0578 49.4319C27.9087 49.514 26.7595 49.3498 25.6104 49.4319C24.4613 49.5961 23.3942 49.2677 22.3272 49.4319C21.2601 49.4319 20.193 49.4319 19.2081 49.4319C18.2231 49.7603 17.1561 49.4319 16.2532 49.4319C15.2682 49.3498 14.3653 49.6782 13.4624 49.4319C12.5595 49.6782 11.6566 49.4319 10.8358 49.4319C10.015 49.3498 9.19421 49.514 8.3734 49.4319C7.55259 49.5961 6.81386 49.3498 6.15721 49.4319C5.41848 49.3498 4.76184 49.4319 4.10519 49.4319C3.44854 49.4319 2.87397 49.4319 2.29941 49.4319C1.72484 49.4319 1.15027 49.4319 0.575708 49.4319C0.575708 49.3498 0.575708 49.2677 0.575708 49.1855C0.575708 48.775 0.575708 48.2823 0.575708 47.8718C0.575708 47.5433 0.575708 47.2149 0.575708 46.9685C0.575708 46.3938 0.657789 45.9011 0.657789 45.4905C0.575708 43.9304 0.657789 43.5199 0.657789 43.5199Z" fill="#73523F"/>
<path d="M31.8485 27.2618C31.9306 27.2618 32.0127 27.7545 32.0948 28.5756C32.0948 28.7398 32.0948 28.8219 32.0948 28.9861C32.0948 29.0682 32.0948 29.1504 32.0948 29.2325C32.0948 29.3146 32.0948 29.3146 32.0948 29.3967C32.0948 29.4788 32.0948 29.4788 32.0948 29.5609C32.0127 29.643 32.0948 29.8072 32.1769 29.9715C32.2589 30.1357 32.2589 30.2999 32.1769 30.382C32.1769 30.4641 32.1769 30.5463 32.1769 30.5463C31.9306 30.5463 31.7665 30.5463 31.5202 30.6284C31.3561 30.6284 31.1919 30.6284 31.0277 30.6284C30.9456 30.6284 30.8636 30.6284 30.8636 30.6284C30.7815 30.6284 30.7815 30.6284 30.6994 30.7105C30.4532 30.9568 30.2069 30.4641 29.9607 30.7105C29.8786 30.7105 29.7965 30.7105 29.7965 30.7105H29.7144C29.6324 30.7105 29.6324 30.7105 29.5503 30.7105C29.4682 30.6284 29.3861 30.6284 29.3861 30.6284C29.3861 30.7105 29.4682 30.8747 29.4682 30.9568C29.3861 30.9568 29.3861 30.9568 29.3861 31.0389C29.3861 31.0389 29.3861 31.0389 29.3861 31.121V31.2031C29.3861 31.3674 29.4682 31.5316 29.5503 31.6137C29.2219 31.9421 29.304 32.1885 29.5503 32.5169C29.5503 32.8454 29.4682 33.1738 29.5503 33.5023V33.7486C29.5503 33.7486 29.5503 33.8307 29.5503 33.9128C29.5503 33.9128 29.5503 33.9128 29.6324 33.9128C29.7144 33.8307 29.7965 33.8307 29.7965 33.8307C29.7965 33.8307 29.7965 33.9128 29.8786 33.9128C30.2069 33.6665 30.6173 33.7486 30.9457 33.9128C30.9457 33.9128 30.9456 33.9128 31.0277 33.9128H31.1098C31.1919 33.9128 31.274 33.9128 31.274 33.9128C31.4381 33.9128 31.5202 33.9128 31.6844 33.9128C32.0127 33.9128 32.341 33.8307 32.5873 33.8307C32.5873 33.9128 32.5873 34.077 32.5052 34.1592C32.5052 34.4876 32.5052 34.816 32.5052 35.1445C32.5052 35.3087 32.5052 35.3908 32.5052 35.555C32.5052 35.6372 32.5052 35.7193 32.5052 35.8014C32.4231 35.9656 32.4231 36.2119 32.4231 36.3762C32.4231 36.4583 32.4231 36.4583 32.4231 36.5404C32.4231 36.6225 32.4231 36.6225 32.4231 36.6225L32.5052 36.7046H32.5873C32.5873 36.7046 32.5873 36.7046 32.6693 36.7867V36.7046H32.7514C32.8335 36.7046 32.9156 36.7046 33.0798 36.7046C33.2439 36.7046 33.4902 36.7867 33.6543 36.8688C34.0647 36.8688 34.4751 36.9509 34.8855 36.8688C34.9676 36.8688 35.0497 36.8688 35.2139 36.8688H35.2959C35.2959 36.8688 35.2959 36.8688 35.378 36.8688C35.378 36.8688 35.4601 36.8688 35.4601 36.7867V36.7046C35.4601 36.6225 35.4601 36.4583 35.378 36.3762C35.2959 36.1298 35.2959 35.9656 35.378 35.7193V35.3087C35.378 35.1445 35.378 34.8982 35.378 34.7339C35.4601 34.4876 35.4601 34.2413 35.4601 33.9128C35.6243 33.9128 35.8705 33.8307 36.1167 33.8307C36.363 33.8307 36.5271 33.8307 36.7734 33.8307H37.0196C37.1017 33.8307 37.1017 33.8307 37.1838 33.8307C37.2659 33.8307 37.348 33.8307 37.5121 33.8307C37.6763 33.8307 37.9225 33.8307 38.0867 33.8307C38.3329 33.8307 38.2509 33.8307 38.3329 33.7486C38.3329 33.7486 38.3329 33.7486 38.415 33.7486C38.3329 33.6665 38.3329 33.6665 38.2509 33.6665C38.2509 33.6665 38.2509 33.6665 38.3329 33.6665C38.3329 33.6665 38.3329 33.6665 38.3329 33.5844V33.5023C38.3329 33.4202 38.3329 33.338 38.3329 33.2559C38.4971 32.8454 38.3329 32.5169 38.3329 32.1885C38.2509 31.86 38.4971 31.4495 38.3329 31.121V31.0389C38.3329 31.0389 38.3329 31.0389 38.3329 30.9568V30.8747C38.2509 30.9568 38.2509 30.9568 38.1688 30.8747C38.1688 30.8747 38.1688 30.7926 38.0867 30.7926C38.0046 30.7926 37.9225 30.7926 37.8404 30.7926C37.5121 30.7926 37.1838 30.7926 36.8555 30.7926C36.8555 30.7926 36.8555 30.7926 36.7734 30.7105H36.6913C36.6092 30.7105 36.6092 30.7105 36.5272 30.7105C36.4451 30.7105 36.2809 30.7105 36.1988 30.7105C35.9526 30.7105 35.7063 30.7926 35.4601 30.7926C35.4601 30.5463 35.4601 30.2999 35.4601 30.0536C35.4601 29.9715 35.4601 29.8072 35.4601 29.7251C35.4601 29.643 35.4601 29.5609 35.4601 29.5609V29.3967C35.4601 29.1504 35.6243 28.8219 35.4601 28.5756C35.4601 28.4114 35.5422 28.3292 35.6243 28.165C35.7063 28.0829 35.7063 28.0008 35.5422 28.0008C35.5422 28.0008 35.5422 27.9187 35.5422 27.8366C35.5422 27.7545 35.6243 27.6724 35.6243 27.6724C35.6243 27.6724 35.5422 27.6724 35.4601 27.7545C35.2959 27.8366 35.2959 27.8366 35.2959 27.8366C35.2959 27.8366 35.2959 27.8366 35.2139 27.7545H35.1318C34.8855 27.7545 34.7214 27.7545 34.4751 27.7545C32.9156 27.5081 31.8485 27.3439 31.8485 27.2618C31.8485 27.0976 33.0798 26.9333 35.2959 26.8512C35.5422 26.8512 36.0347 26.687 36.2809 26.8512C36.4451 26.8512 36.5272 26.8512 36.6913 26.8512C36.6913 27.0976 36.7734 27.3439 36.6913 27.5902C36.7734 27.7545 36.8555 28.0008 36.7734 28.165C36.7734 28.3292 36.6913 28.4114 36.6913 28.5756C36.6913 28.8219 36.6092 29.1504 36.6913 29.3967V29.4788C36.6913 29.5609 36.6092 29.643 36.6913 29.643C36.6913 29.7251 36.6913 29.7251 36.7734 29.7251H36.8555C36.8555 29.7251 36.8555 29.7251 36.9376 29.7251C36.9376 29.7251 36.9376 29.7251 37.0196 29.7251C37.348 29.8894 37.6763 29.7251 38.0046 29.7251C38.0867 29.8072 38.1688 29.8072 38.2509 29.8072C38.415 29.8072 38.4971 29.8072 38.6613 29.8072C38.9075 29.8072 39.2358 29.7251 39.5641 29.643C39.6462 29.643 39.7283 29.643 39.7283 29.643C39.7283 29.8894 39.7283 30.2178 39.7283 30.4641C39.7283 30.6284 39.7283 30.7105 39.7283 30.8747C39.7283 30.9568 39.7283 31.0389 39.7283 31.121V31.2853C39.6462 31.6137 39.8104 32.0243 39.7283 32.3527C39.8104 32.6812 39.8925 33.0917 39.7283 33.4202C39.7283 33.5023 39.7283 33.5844 39.7283 33.6665V34.077C39.7283 34.4055 39.7283 34.7339 39.7283 35.1445C39.7283 35.2266 39.7283 35.3087 39.7283 35.3908C39.4 35.3908 39.0717 35.3908 38.7433 35.3908C38.415 35.3908 38.0046 35.3908 37.9225 35.3908C37.7584 35.3908 37.5121 35.3908 37.348 35.3087C37.2659 35.3087 37.1838 35.3087 37.0196 35.3087C36.9376 35.3087 36.9376 35.3087 36.8555 35.3087H36.7734V35.6372C36.7734 35.8014 36.7734 36.0477 36.7734 36.2941C36.6913 36.3762 36.6913 36.4583 36.6913 36.6225V36.7046C36.6913 36.7046 36.6913 36.7867 36.6913 36.8688C36.6913 36.9509 36.6913 37.0331 36.6913 37.1152C36.6913 37.4436 36.7734 37.8542 36.8555 38.3468C36.5272 38.3468 36.1167 38.429 35.7063 38.3468H34.8035C34.393 38.3468 33.9826 38.3468 33.5722 38.3468C33.4081 38.3468 33.1618 38.3468 32.9977 38.3468C32.9156 38.3468 32.8335 38.3468 32.6693 38.3468H32.5052C32.4231 38.3468 32.341 38.3468 32.2589 38.3468C31.8485 38.429 31.4381 38.3468 31.0277 38.3468C31.0277 38.0184 31.0277 37.6899 31.0277 37.3615C31.0277 37.1973 31.0277 37.0331 30.9457 36.7867C30.9457 36.7046 30.9457 36.6225 30.9457 36.6225C30.9457 36.5404 30.9457 36.5404 30.9457 36.4583C30.9457 36.2941 30.9456 36.0477 31.0277 35.8835C31.0277 35.8014 31.0277 35.7193 31.0277 35.6372V35.4729C31.0277 35.3908 31.0277 35.3087 30.9457 35.3908C30.8636 35.3908 30.8636 35.4729 30.8636 35.4729C30.8636 35.4729 30.8636 35.4729 30.8636 35.3908C30.8636 35.3908 30.8636 35.3908 30.7815 35.3087C30.4532 35.3908 30.0428 35.1445 29.7144 35.3087C29.304 35.0624 28.7295 35.2266 28.1549 35.3087C28.1549 35.2266 28.1549 35.2266 28.1549 35.1445C28.1549 34.816 28.237 34.4876 28.237 34.2413C28.237 34.077 28.237 33.9949 28.237 33.8307V33.6665C28.1549 33.338 28.3191 33.0096 28.237 32.6811C28.0728 32.3527 28.4011 32.1064 28.237 31.7779C28.237 31.6137 28.237 31.4495 28.237 31.3674V31.121C28.237 31.0389 28.237 30.8747 28.237 30.7926C28.1549 30.6284 28.0728 30.382 28.0728 30.2999C28.0728 30.1357 28.0728 29.9715 28.1549 29.8894C28.4011 29.9715 28.5653 29.9715 28.7295 29.9715C28.9757 29.9715 29.1399 29.9715 29.3861 29.8894C29.4682 29.8894 29.4682 29.8894 29.5503 29.8894C29.6324 29.8894 29.6324 29.8894 29.7144 29.8894C29.7965 29.8894 29.8786 29.9715 29.8786 29.9715C30.1248 29.7251 30.3711 29.9715 30.6173 29.9715C30.6994 29.9715 30.6994 29.9715 30.7815 29.9715C30.8636 29.9715 30.9457 29.9715 30.9457 29.9715C31.0277 29.9715 31.0277 29.9715 31.1098 30.0536C31.1098 29.9715 31.1098 29.9715 31.1919 29.9715C31.274 29.9715 31.274 30.0536 31.3561 30.0536C31.3561 30.0536 31.3561 30.0536 31.3561 29.9715C31.4381 29.9715 31.4381 29.8894 31.4381 29.8072C31.4381 29.7251 31.4381 29.7251 31.4381 29.643V29.5609C31.4381 29.5609 31.4381 29.4788 31.4381 29.3967C31.4381 29.3146 31.4381 29.2325 31.5202 29.1504C31.5202 28.9861 31.5202 28.8219 31.5202 28.7398C31.6844 27.6723 31.7665 27.2618 31.8485 27.2618Z" fill="#73523F"/>
<path d="M34.0647 24.1416C34.0647 24.2237 33.9006 24.2237 33.6543 24.3058C33.4902 24.3058 33.326 24.3879 33.1618 24.3879C32.9977 24.47 32.7514 24.47 32.5052 24.5521C32.341 24.6342 32.1769 24.6342 32.0127 24.7163C31.9306 24.7163 31.8485 24.7985 31.7665 24.7985C31.6844 24.8806 31.6023 24.8806 31.4381 24.8806C31.1919 24.8806 31.1098 25.209 30.7815 25.1269C30.6994 25.1269 30.5352 25.209 30.4532 25.2911C30.3711 25.3732 30.3711 25.4553 30.289 25.4553C30.2069 25.5375 30.2069 25.5375 30.1248 25.6196C29.9607 25.7838 29.6324 25.7838 29.4682 26.1122C29.3861 26.2765 29.304 26.3586 29.1399 26.3586C28.9757 26.4407 28.8115 26.4407 28.8115 26.687C28.7295 26.8512 28.6474 26.9333 28.4832 27.0155C28.4011 27.0976 28.237 27.2618 28.1549 27.3439C27.9907 27.426 27.9087 27.5081 27.8266 27.6724C27.7445 27.8366 27.6624 28.0008 27.5803 28.165C27.252 28.3292 27.0878 28.6577 27.0878 29.0682C27.0058 29.1504 26.9237 29.1504 26.8416 29.2325C26.7595 29.3146 26.6774 29.3967 26.6774 29.4788C26.5954 29.643 26.5954 29.8894 26.6774 30.0536C26.6774 30.1357 26.5954 30.2178 26.5954 30.2999C26.5954 30.382 26.5133 30.4641 26.5133 30.5463C26.5133 30.6284 26.4312 30.7105 26.4312 30.7926C26.4312 30.8747 26.4312 30.9568 26.4312 31.121C26.4312 31.2853 26.4312 31.5316 26.4312 31.6958C26.4312 31.86 26.4312 32.1064 26.3491 32.2706C26.3491 32.3527 26.4312 32.4348 26.4312 32.599C26.4312 32.6811 26.5133 32.7633 26.5133 32.9275C26.5133 33.0096 26.5133 33.0917 26.5133 33.2559C26.5133 33.338 26.5133 33.4202 26.4312 33.5844C26.5133 33.6665 26.5133 33.7486 26.5954 33.8307C26.5954 33.9128 26.5954 33.9128 26.6774 33.9949C26.6774 34.077 26.6774 34.077 26.6774 34.1592C26.7595 34.3234 26.7595 34.5697 26.7595 34.816C26.7595 35.0624 26.9237 35.2266 27.0058 35.3908C27.0878 35.555 27.252 35.7193 27.252 35.9656L27.3341 36.1298C27.3341 36.2119 27.4162 36.2119 27.4162 36.2941C27.4983 36.3762 27.4983 36.4583 27.5803 36.5404C27.6624 36.6225 27.6624 36.7046 27.7445 36.7867C27.8266 36.8688 27.9087 36.9509 27.9087 37.0331C27.9907 37.1152 27.9907 37.1973 28.0728 37.3615C28.1549 37.4436 28.237 37.5257 28.237 37.6078C28.3191 37.6899 28.4011 37.7721 28.4832 37.8542C28.5653 37.9363 28.6474 37.9363 28.8115 38.0184C28.9757 38.1826 29.1399 38.2647 29.3861 38.4289C29.5503 38.5932 29.7144 38.6753 29.8786 38.8395C30.3711 38.9216 30.6994 39.1679 31.1098 39.4964C31.1919 39.4964 31.3561 39.5785 31.4381 39.5785C31.5202 39.6606 31.6844 39.6606 31.7665 39.7427C32.0127 39.8248 32.2589 39.907 32.4231 39.907C32.6693 39.9891 32.9156 39.9891 33.1618 39.9891C33.4081 39.9891 33.6543 39.9891 33.9006 40.0712C34.1468 40.0712 34.3931 40.1533 34.6393 40.0712C34.8855 40.0712 35.1318 39.9891 35.2959 39.907H35.4601C35.5422 39.907 35.5422 39.8248 35.6243 39.8248C35.7063 39.8248 35.8705 39.7427 35.9526 39.7427C36.0347 39.7427 36.1988 39.6606 36.2809 39.6606C36.363 39.6606 36.5272 39.5785 36.6092 39.5785C36.6913 39.5785 36.7734 39.5785 36.7734 39.5785C36.8555 39.5785 36.8555 39.5785 36.9376 39.4964C37.0196 39.4143 37.1838 39.4143 37.2659 39.3322L37.5942 39.168C37.6763 39.0858 37.7584 39.0037 37.9225 39.0037C38.0867 38.9216 38.3329 38.7574 38.4971 38.6753C38.5792 38.5932 38.6613 38.5932 38.7433 38.5111C38.8254 38.429 38.9075 38.3468 38.9896 38.2647C39.0717 38.1826 39.1537 38.1005 39.2358 38.0184C39.3179 37.9363 39.4 37.8542 39.4821 37.7721C39.5641 37.6899 39.6462 37.6078 39.7283 37.5257C39.8104 37.4436 39.8925 37.3615 39.9746 37.2794C39.9746 37.0331 40.1387 36.8688 40.3029 36.7046C40.385 36.6225 40.467 36.5404 40.5491 36.4583C40.5491 36.4583 40.6312 36.3762 40.6312 36.2941C40.6312 36.2119 40.7133 36.2119 40.7133 36.1298C40.8774 35.9656 40.9595 35.8014 41.0416 35.555C41.1237 35.3087 41.1237 35.1445 41.2058 34.9803C41.2058 34.7339 41.2878 34.5697 41.3699 34.4055C41.3699 34.3234 41.3699 34.3234 41.452 34.2413C41.452 34.1592 41.452 34.1592 41.452 34.077C41.452 33.9949 41.452 33.9128 41.452 33.7486C41.452 33.6665 41.452 33.5844 41.5341 33.4202C41.5341 33.338 41.5341 33.2559 41.5341 33.0917C41.5341 33.0096 41.5341 32.9275 41.5341 32.7633C41.5341 32.6811 41.5341 32.599 41.6162 32.4348C41.5341 32.2706 41.5341 32.0243 41.6162 31.86C41.6162 31.7779 41.6162 31.6958 41.6162 31.5316C41.6162 31.4495 41.6162 31.3674 41.5341 31.2853C41.5341 31.2031 41.5341 31.121 41.452 31.0389C41.452 30.9568 41.3699 30.8747 41.3699 30.7926C41.2878 30.6284 41.2878 30.4641 41.2878 30.2178C41.3699 29.9715 41.2878 29.8072 41.2058 29.643L41.1237 29.5609L41.0416 29.2325C40.9595 29.1504 40.9595 29.0682 40.8774 28.9861C40.7954 28.6577 40.385 28.4935 40.385 28.0829C40.3029 27.9187 40.2208 27.7545 40.1387 27.6724C40.0566 27.5081 39.9746 27.426 39.8104 27.3439C39.7283 27.2618 39.6462 27.0976 39.5641 26.9333C39.5641 26.8512 39.4821 26.7691 39.4 26.7691C39.3179 26.687 39.2358 26.687 39.1537 26.687C38.9896 26.6049 38.9896 26.4407 38.9075 26.3586C38.8254 26.2765 38.7433 26.1122 38.4971 26.1122C38.1688 26.1122 38.0867 25.7838 37.8404 25.6196C37.7584 25.6196 37.7584 25.5375 37.6763 25.5375C37.5942 25.5375 37.5942 25.4553 37.5121 25.4553C37.43 25.3732 37.2659 25.3732 37.1838 25.2911C36.1988 24.7985 35.378 24.5521 34.8035 24.47C34.3931 24.3058 34.0647 24.2237 34.0647 24.1416C34.0647 24.1416 34.1468 24.0594 34.3931 24.0594C34.4751 24.0594 34.6393 24.0594 34.7214 24.0594C34.8035 24.0594 34.8855 24.0594 34.9676 24.0594C35.0497 24.0594 35.1318 24.0594 35.2139 24.0594C35.9526 24.0594 37.1017 24.3058 38.3329 24.9627C38.5792 25.1269 38.9075 25.1269 39.0717 25.4553C39.2358 25.5375 39.3179 25.6196 39.4821 25.7017C39.6462 25.7838 39.7283 25.8659 39.8104 26.0301C39.8925 26.0301 39.9746 26.1122 40.0566 26.1122C40.1387 26.1943 40.2208 26.1943 40.2208 26.2765C40.3029 26.4407 40.385 26.6049 40.5491 26.687C40.7133 26.8512 40.7954 26.9333 40.8774 27.0976C40.9595 27.2618 41.1237 27.426 41.2058 27.5081C41.5341 27.7545 41.5341 28.165 41.7803 28.4935C41.7803 28.5756 41.7803 28.7398 41.8624 28.8219C41.8624 28.904 41.8624 28.904 41.9445 28.9861C41.9445 29.0682 41.9445 29.0682 42.0266 29.1504C42.1087 29.3146 42.1907 29.4788 42.3549 29.7251C42.3549 29.9715 42.437 30.1357 42.5191 30.382C42.5191 30.4641 42.6011 30.5463 42.6011 30.7105C42.6011 30.7926 42.6832 30.9568 42.6832 31.0389C42.6832 31.121 42.6011 31.2853 42.6011 31.3674C42.6011 31.4495 42.6011 31.6137 42.6011 31.6958C42.6011 31.9421 42.6832 32.1064 42.7653 32.3527C42.7653 32.4348 42.7653 32.599 42.7653 32.6811C42.7653 32.7633 42.7653 32.9275 42.7653 33.0096C42.7653 33.0917 42.7653 33.2559 42.7653 33.338C42.7653 33.4202 42.7653 33.5844 42.7653 33.6665C42.7653 33.7486 42.6832 33.9128 42.6832 33.9949V34.3234C42.6011 34.5697 42.6011 34.816 42.5191 35.0624C42.5191 35.3087 42.437 35.555 42.3549 35.8014C42.2728 36.0477 42.1087 36.2941 41.9445 36.4583C41.9445 36.5404 41.8624 36.5404 41.8624 36.6225C41.8624 36.7046 41.7803 36.7046 41.7803 36.7867C41.6983 36.8688 41.6162 37.0331 41.6162 37.1152C41.452 37.3615 41.2878 37.5257 41.1237 37.7721C41.0416 37.8542 40.9595 38.0184 40.8774 38.1005C40.7954 38.1826 40.7133 38.2647 40.6312 38.4289C40.5491 38.5111 40.467 38.5932 40.385 38.6753C40.3029 38.7574 40.2208 38.8395 40.0566 38.9216C39.9746 39.0037 39.8925 39.0858 39.7283 39.168C39.6462 39.2501 39.4821 39.3322 39.4 39.3322C39.1537 39.4964 38.9896 39.6606 38.7433 39.8248C38.3329 40.1533 37.7584 40.3175 37.2659 40.5638C37.1017 40.646 37.0196 40.646 36.8555 40.7281C36.6913 40.7281 36.6092 40.8102 36.4451 40.8102C36.2809 40.8102 36.1988 40.8923 36.0347 40.8923L35.9526 41.0565H35.7884C35.4601 40.9744 35.2139 40.9744 34.9676 41.0565C34.7214 41.0565 34.393 41.1386 34.1468 41.2207C33.9006 41.2207 33.5722 41.2207 33.326 41.2207C33.0798 41.2207 32.7514 41.1386 32.5052 41.0565C32.2589 41.0565 31.9306 40.9744 31.6844 40.8923C31.5202 40.8923 31.4381 40.8102 31.274 40.7281C31.1098 40.646 31.0277 40.646 30.8636 40.5638C30.7815 40.5638 30.6994 40.5638 30.6994 40.4817C30.6173 40.4817 30.5352 40.3996 30.5352 40.3996C30.4532 40.3175 30.289 40.2354 30.2069 40.2354H29.7965C29.7144 40.2354 29.7144 40.1533 29.6324 40.1533C29.5503 40.0712 29.3861 39.9891 29.304 39.9891C29.0578 39.907 28.8115 39.6606 28.6474 39.4964C28.4011 39.3322 28.237 39.0858 28.0728 39.0037C27.9907 38.9216 27.8266 38.8395 27.7445 38.7574C27.6624 38.6753 27.5803 38.5932 27.4983 38.5111C27.4162 38.429 27.3341 38.3468 27.252 38.1826C27.1699 38.1005 27.0878 37.9363 27.0878 37.8542C27.0058 37.7721 26.9237 37.6078 26.8416 37.5257C26.7595 37.4436 26.7595 37.2794 26.6774 37.1973C26.5954 37.1152 26.5954 36.9509 26.5133 36.8688C26.5133 36.7867 26.4312 36.7867 26.4312 36.7046C26.4312 36.6225 26.3491 36.6225 26.267 36.5404C26.1029 36.2941 25.9387 36.1298 25.8566 35.8835C25.7746 35.6372 25.6925 35.3908 25.7746 35.1445C25.6925 34.8982 25.6104 34.6518 25.6104 34.4055C25.6104 34.3234 25.6104 34.3234 25.6104 34.2413C25.6104 34.1592 25.6104 34.1592 25.6104 34.077C25.6104 33.9949 25.5283 33.8307 25.5283 33.7486C25.6104 33.5844 25.6104 33.5023 25.6104 33.4202C25.6104 33.338 25.6104 33.1738 25.6104 33.0917C25.6104 33.0096 25.5283 32.8454 25.5283 32.7633C25.5283 32.6811 25.4462 32.5169 25.5283 32.4348C25.5283 32.1885 25.6104 31.9421 25.6104 31.7779C25.6104 31.5316 25.6925 31.3674 25.6925 31.121C25.6925 31.0389 25.6925 30.8747 25.6925 30.7926C25.6925 30.7105 25.7746 30.5462 25.7746 30.4641C25.7746 30.382 25.8566 30.2999 25.8566 30.1357C25.8566 30.0536 25.9387 29.9715 25.9387 29.8072C25.9387 29.5609 26.0208 29.3967 26.185 29.2325C26.267 29.1504 26.267 29.0682 26.3491 28.9861C26.4312 28.904 26.4312 28.8219 26.4312 28.6577C26.5954 28.3292 26.7595 27.9187 27.0058 27.6724C27.0058 27.426 27.0878 27.2618 27.252 27.1797C27.4162 27.0155 27.5803 26.9333 27.7445 26.8512C27.9087 26.7691 27.9907 26.6049 28.0728 26.4407C28.1549 26.2765 28.3191 26.1943 28.4832 26.1943C28.5653 26.0301 28.6474 25.8659 28.8115 25.7838C28.9757 25.7017 29.1399 25.7017 29.304 25.6196C29.5503 25.4553 29.7965 25.209 30.0428 25.1269C30.0428 25.0448 30.1248 24.9627 30.2069 24.9627C30.289 24.9627 30.3711 24.8806 30.3711 24.8806C30.5352 24.8806 30.6173 24.8806 30.7815 24.7985C31.0277 24.7985 31.274 24.6342 31.5202 24.5521C31.6023 24.47 31.7665 24.47 31.8485 24.3879C31.9306 24.3879 32.0948 24.3879 32.1769 24.3879C32.341 24.3879 32.5873 24.3058 32.7514 24.3058C32.9977 24.3058 33.2439 24.3058 33.4902 24.2237C33.6543 24.2237 33.9006 24.2237 33.9826 24.2237C33.9006 24.0594 34.0647 24.0594 34.0647 24.1416Z" fill="#73523F"/>
</svg>
