<svg width="86" height="61" viewBox="0 0 86 61" fill="none" xmlns="http://www.w3.org/2000/svg">
<path d="M77.4444 36.2C77.5444 36.2 77.5444 36.3 77.6444 36.5C77.7444 36.7 77.7444 37 77.8444 37.4C77.8444 37.5 77.8444 37.7 77.8444 37.8C77.8444 37.9 77.9444 38.1 77.8444 38.3C77.7444 38.5 78.1444 38.6 77.8444 38.8C77.7444 39 77.8444 39.2 77.8444 39.4C77.8444 39.6 77.7444 39.8 77.8444 40C78.1444 40.2 77.5444 40.4 77.8444 40.7C77.9444 40.9 77.9444 41.2 77.8444 41.4C77.6444 41.6 77.8444 41.9 77.8444 42.2C77.5444 42.5 77.7444 42.7 77.8444 43C77.5444 43.3 77.5444 43.6 77.8444 43.8C77.8444 44.1 77.7444 44.4 77.8444 44.7C77.8444 45 77.9444 45.3 77.8444 45.6C78.0444 45.9 78.0444 46.2 77.8444 46.6C78.0444 46.9 78.0444 47.3 77.8444 47.6C77.7444 47.9 78.0444 48.3 77.8444 48.6C77.8444 48.9 77.9444 49.3 77.8444 49.6C77.8444 49.7 77.7444 49.7 77.7444 49.7V49.8C77.7444 49.9 77.7444 49.9 77.8444 49.8H77.9444C77.9444 49.8 77.9444 49.8 77.9444 49.9V49.8C77.9444 49.8 77.9444 49.8 78.0444 49.8C78.1444 49.8 78.2444 49.7 78.2444 49.7C78.4444 49.7 78.5444 49.7 78.7444 49.7C78.9444 49.6 79.0444 49.6 79.2444 49.6C79.4444 49.6 79.5444 49.5 79.7444 49.4C79.9444 49.3 80.0444 49.2 80.1444 49.2C80.2444 49.1 80.4444 49 80.6444 49C80.8444 49 80.9444 48.9 81.1444 48.8C81.2444 48.8 81.2444 48.7 81.3444 48.6C81.4444 48.5 81.4444 48.5 81.4444 48.4C81.5444 48.2 81.6444 48.1 81.7444 48C81.8444 47.9 82.0444 47.8 82.1444 47.7C82.3444 47.6 82.4444 47.5 82.4444 47.3C82.5444 47.1 82.5444 47 82.6444 46.9C82.6444 46.8 82.7444 46.8 82.7444 46.7L82.8444 46.5C82.8444 46.4 82.9444 46.4 82.9444 46.3V46.1C82.9444 45.9 83.0444 45.8 83.0444 45.6C83.0444 45.4 83.1444 45.3 83.2444 45.2C84.0444 44.9 84.0444 44.8 84.0444 44.7C84.0444 44.6 84.0444 44.6 84.1444 44.5C84.2444 44.4 84.3444 44.2 84.3444 44.1C84.4444 44 84.4444 43.8 84.4444 43.6V43.4C84.4444 43.3 84.4444 43.3 84.4444 43.2C84.4444 43.1 84.4444 43.1 84.4444 43V42.8C84.4444 42.7 84.4444 42.5 84.3444 42.4C84.3444 42.3 84.3444 42.3 84.3444 42.2C84.3444 42.1 84.2444 42.1 84.2444 42C84.0444 41.7 84.0444 41.6 84.0444 41.4C83.9444 41.3 83.9444 41.2 83.8444 41V40.8C83.8444 40.7 83.7444 40.7 83.7444 40.6C83.6444 40.5 83.6444 40.4 83.5444 40.2C83.4444 40.1 83.4444 40 83.3444 39.8C83.3444 39.7 83.3444 39.6 83.3444 39.6C83.3444 39.5 83.2444 39.5 83.2444 39.4C83.1444 39.3 83.0444 39.2 82.9444 39.2C82.8444 39.1 82.7444 39 82.6444 39C82.5444 38.9 82.4444 38.8 82.4444 38.7C82.3444 38.6 82.3444 38.5 82.2444 38.4C82.1444 38.3 82.0444 38.2 81.9444 38.2C81.8444 38.1 81.8444 38 81.7444 37.9C81.7444 37.8 81.6444 37.8 81.6444 37.8C81.5444 37.8 81.5444 37.8 81.4444 37.8C81.3444 37.8 81.2444 37.7 81.2444 37.6C81.1444 37.5 81.1444 37.4 80.9444 37.5C80.6444 37.6 80.6444 37.3 80.4444 37.2C80.2444 37.1 80.0444 37 79.9444 37C79.7444 36.9 79.5444 36.9 79.4444 36.8C79.2444 36.7 79.1444 36.7 78.9444 36.7C78.8444 36.7 78.6444 36.6 78.5444 36.6C78.4444 36.6 78.3444 36.6 78.1444 36.5C77.7444 36.3 77.5444 36.3 77.4444 36.2C77.4444 36.1 77.7444 36 78.3444 36C78.4444 36 78.4444 36 78.5444 36C78.6444 36 78.7444 36 78.7444 36C78.9444 36 79.1444 36 79.3444 36C79.5444 36 79.7444 36.1 80.0444 36.1C80.2444 36.2 80.5444 36.2 80.7444 36.3C80.9444 36.4 81.2444 36.3 81.3444 36.6C81.4444 36.6 81.5444 36.7 81.6444 36.7C81.7444 36.7 81.8444 36.8 81.9444 36.9C82.0444 36.9 82.1444 36.9 82.1444 36.9C82.2444 36.9 82.2444 37 82.3444 37C82.4444 37.1 82.5444 37.2 82.6444 37.3C82.7444 37.4 82.8444 37.5 82.9444 37.6C83.0444 37.7 83.1444 37.8 83.2444 37.8C83.4444 37.8 83.4444 38 83.5444 38.1C83.6444 38.2 83.7444 38.4 83.8444 38.4C83.8444 38.6 83.9444 38.7 84.0444 38.8C84.0444 38.9 84.1444 38.9 84.2444 39C84.3444 39 84.3444 39.1 84.4444 39.1C84.4444 39.3 84.5444 39.4 84.6444 39.5C84.7444 39.6 84.8444 39.8 84.9444 39.9C84.9444 40 84.9444 40.1 84.9444 40.2V40.3C84.9444 40.3 84.9444 40.4 85.0444 40.4C85.1444 40.5 85.2444 40.7 85.3444 40.8C85.4444 40.9 85.4444 41.1 85.5444 41.3C85.5444 41.4 85.5444 41.5 85.6444 41.6C85.6444 41.7 85.6444 41.8 85.7444 41.9C85.7444 42.1 85.7444 42.3 85.8444 42.4V42.6C85.8444 42.7 85.8444 42.8 85.8444 42.9C85.8444 43 85.9444 43.1 85.9444 43.2V43.4C85.9444 43.6 85.9444 43.8 85.8444 44C85.8444 44.2 85.8444 44.4 85.8444 44.6C85.8444 44.7 85.8444 44.8 85.7444 44.9C85.7444 45 85.6444 45.1 85.6444 45.2C85.6444 45.4 85.6444 45.6 85.5444 45.8C85.4444 46 85.3444 46.2 85.3444 46.4V46.5L85.2444 46.6C85.1444 46.7 85.1444 46.8 85.0444 46.8C84.9444 46.9 84.9444 47 84.8444 47.1C84.8444 47.2 84.7444 47.3 84.7444 47.4C84.6444 47.6 84.5444 47.8 84.4444 47.9C84.3444 48.1 84.1444 48.2 84.0444 48.4C83.7444 48.7 83.4444 49 83.1444 49.3C83.0444 49.3 82.9444 49.4 82.8444 49.4C82.7444 49.4 82.6444 49.5 82.5444 49.6C82.3444 49.7 82.2444 49.9 82.1444 50.1C81.9444 50.2 81.8444 50.4 81.6444 50.5C81.4444 50.6 81.2444 50.7 81.0444 50.7C80.8444 50.8 80.6444 50.9 80.4444 50.9C80.2444 51 80.0444 51 79.8444 51.1C79.6444 51.2 79.4444 51.2 79.2444 51.2C79.1444 51.2 79.0444 51.2 78.9444 51.2H78.7444C78.6444 51.2 78.6444 51.2 78.5444 51.3C78.2444 51.4 77.8444 51.3 77.5444 51.3C77.3444 51.3 77.2444 51.3 77.0444 51.3C76.9444 51.3 76.8444 51.3 76.8444 51.3C76.7444 51.3 76.6444 51.3 76.5444 51.3C76.5444 51 76.5444 50.7 76.5444 50.3C76.5444 50.1 76.5444 49.9 76.6444 49.8C76.6444 49.6 76.6444 49.4 76.7444 49.4C76.7444 49 77.0444 48.7 76.7444 48.4C76.6444 48.1 76.3444 47.7 76.7444 47.4C76.6444 47.1 76.9444 46.7 76.7444 46.4C77.0444 46.1 76.7444 45.8 76.7444 45.4C76.8444 45.1 76.8444 44.8 76.7444 44.5C76.6444 44.2 76.8444 43.9 76.7444 43.6C76.5444 43.3 76.9444 43 76.7444 42.8C76.7444 42.5 76.7444 42.3 76.7444 42C76.3444 41.7 76.7444 41.5 76.7444 41.2C76.8444 41 76.4444 40.7 76.7444 40.5C76.4444 40.3 76.7444 40 76.7444 39.8C76.8444 39.6 76.6444 39.4 76.7444 39.2C76.5444 39 76.8444 38.8 76.7444 38.6C76.8444 38.4 76.7444 38.2 76.7444 38.1C76.7444 37.9 76.7444 37.8 76.7444 37.6C76.7444 37.5 76.7444 37.3 76.7444 37.2C76.7444 36.8 76.8444 36.5 76.8444 36.3C77.4444 36.3 77.4444 36.2 77.4444 36.2Z" fill="#73523F"/>
<path d="M66.5444 50C66.6444 50 66.7444 50 66.8444 50C66.7444 50 67.1444 50 66.8444 50C66.5444 50 67.1444 50 66.8444 50C66.9444 50 66.9444 50 66.8444 50C66.5444 50 66.7444 50 66.8444 50C66.5444 50 66.5444 50 66.8444 50C67.0444 50 67.0444 50 66.8444 50C66.9444 50 67.0444 50 66.8444 50C66.7444 50 67.0444 50 66.8444 50C66.6444 50 66.7444 50 66.8444 50C66.9444 50 66.9444 50 66.8444 50C66.9444 50 67.1444 50 66.8444 50C66.2444 50 65.7444 50.1 65.1444 50.1C65.2444 50.1 65.2444 50.1 65.1444 50.1C64.9444 50.1 65.2444 50.1 65.1444 50.1C65.0444 50.1 65.3444 50.1 65.1444 50.1C64.7444 50.1 65.2444 50.1 65.1444 50C65.3444 50 65.1444 50 65.1444 49.9C65.0444 49.9 65.3444 49.9 65.1444 49.8C65.1444 49.8 65.0444 49.7 65.1444 49.7C64.9444 49.7 65.3444 49.7 65.1444 49.7C65.2444 49.7 65.4444 49.7 65.1444 49.7C65.0444 49.7 65.4444 49.7 65.1444 49.7C66.2444 50 66.3444 50 66.5444 50C66.7444 50 66.9444 50 67.0444 50.1C67.1444 50.1 67.3444 50.1 67.0444 50.1C66.9444 50.1 67.2444 50.1 67.0444 50.1C66.8444 50.1 66.9444 50.1 67.0444 50.1C66.7444 50.1 66.9444 50.1 67.0444 50.1C66.5444 50 66.5444 50 66.5444 50C66.5444 50 66.6444 50 66.7444 50C66.8444 50 66.8444 50 66.8444 50C66.9444 50 67.0444 50 67.0444 50C67.1444 50 67.1444 50 67.1444 50C66.8444 50 67.2444 50 67.1444 50C66.8444 50 67.0444 50 67.1444 50C66.5444 50 65.9444 50.1 65.3444 50.1C65.2444 50.1 65.2444 50.1 65.3444 50.1C64.9444 50.1 65.2444 50.1 65.3444 50.1C65.2444 50.1 65.5444 50.1 65.3444 50.1C65.4444 50.1 65.4444 50.1 65.3444 50.1C65.2444 50.1 65.4444 50.1 65.3444 50.1C65.1444 50.1 65.5444 50.1 65.3444 50.1C65.0444 50.1 65.4444 50.1 65.3444 50.1C65.2444 50.1 65.4444 50.1 65.3444 50.1C65.1444 50.1 65.4444 50.1 65.3444 50.1C66.3444 50 66.4444 50 66.5444 50Z" fill="#73523F"/>
<path d="M66.5444 36.2C66.6444 36.2 66.7444 36.2 66.8444 36.3C66.7444 36.3 67.1444 36.3 66.8444 36.3C66.5444 36.3 67.1444 36.3 66.8444 36.3C66.9444 36.3 66.9444 36.3 66.8444 36.3C66.5444 36.3 66.7444 36.3 66.8444 36.3C66.5444 36.3 66.5444 36.3 66.8444 36.3C67.0444 36.3 67.0444 36.3 66.8444 36.3C66.9444 36.3 67.0444 36.3 66.8444 36.3C66.7444 36.3 67.0444 36.3 66.8444 36.3C66.6444 36.3 66.7444 36.3 66.8444 36.3C66.9444 36.3 66.9444 36.3 66.8444 36.3C66.9444 36.3 67.1444 36.3 66.8444 36.3H65.1444C65.2444 36.3 65.3444 36.3 65.1444 36.3C64.9444 36.3 65.2444 36.3 65.1444 36.3C65.0444 36.3 65.3444 36.3 65.1444 36.3C64.7444 36.3 65.2444 36.3 65.1444 36.3C65.0444 36.3 65.3444 36.3 65.1444 36.3C64.9444 36.3 65.3444 36.3 65.1444 36.3C65.2444 36.3 65.4444 36.3 65.1444 36.3C65.0444 36.3 65.4444 36.3 65.1444 36.3C66.2444 36.2 66.4444 36.2 66.5444 36.2C66.7444 36.2 66.9444 36.3 67.0444 36.4C67.1444 36.4 67.3444 36.4 67.0444 36.4C66.9444 36.4 67.2444 36.4 67.0444 36.4C66.8444 36.4 66.9444 36.4 67.0444 36.4C66.7444 36.4 66.9444 36.4 67.0444 36.4C67.1444 36.4 67.2444 36.4 67.0444 36.4C66.7444 36.4 67.1444 36.4 67.0444 36.4C66.7444 36.4 66.9444 36.4 67.0444 36.5C66.4444 36.5 65.8444 36.5 65.2444 36.5C65.1444 36.5 65.1444 36.5 65.2444 36.5C64.8444 36.5 65.1444 36.5 65.2444 36.5C65.1444 36.5 65.4444 36.5 65.2444 36.5C65.3444 36.5 65.4444 36.5 65.2444 36.5C65.1444 36.5 65.3444 36.5 65.2444 36.5C65.0444 36.5 65.4444 36.5 65.2444 36.5C65.0444 36.5 65.3444 36.5 65.2444 36.5C65.1444 36.5 65.3444 36.5 65.2444 36.5C65.0444 36.5 65.3444 36.5 65.2444 36.5C66.3444 36.2 66.4444 36.2 66.5444 36.2Z" fill="#73523F"/>
<path d="M25.3444 50.7C25.2444 50.7 25.1444 50.7 25.0444 50.6C24.7444 50.6 25.1444 50.6 25.0444 50.6C24.7444 50.6 25.3444 50.6 25.0444 50.6C24.9444 50.6 24.9444 50.6 25.0444 50.6C25.1444 50.6 25.3444 50.6 25.0444 50.6C25.3444 50.6 25.3444 50.6 25.0444 50.6C24.8444 50.6 24.8444 50.6 25.0444 50.6C24.8444 50.6 24.9444 50.6 25.0444 50.6C24.8444 50.6 25.1444 50.6 25.0444 50.6C25.1444 50.6 25.2444 50.6 25.0444 50.6C24.9444 50.6 24.9444 50.6 25.0444 50.6C24.7444 50.6 24.9444 50.6 25.0444 50.6H26.7444C26.5444 50.6 26.6444 50.6 26.7444 50.6C26.6444 50.6 26.9444 50.6 26.7444 50.6C26.5444 50.6 26.8444 50.6 26.7444 50.6C26.6444 50.6 27.1444 50.6 26.7444 50.6C26.5444 50.6 26.8444 50.6 26.7444 50.6C26.5444 50.6 26.9444 50.6 26.7444 50.6C26.4444 50.6 26.6444 50.6 26.7444 50.6C26.4444 50.6 26.8444 50.6 26.7444 50.6C25.6444 50.7 25.4444 50.8 25.3444 50.7C25.1444 50.7 24.9444 50.6 24.8444 50.5C24.5444 50.5 24.7444 50.5 24.8444 50.5C24.6444 50.5 24.9444 50.5 24.8444 50.5C24.9444 50.5 25.0444 50.5 24.8444 50.5C24.9444 50.5 25.1444 50.5 24.8444 50.5C24.6444 50.5 24.7444 50.5 24.8444 50.5C24.7444 50.5 25.1444 50.5 24.8444 50.5C24.8444 50.5 24.9444 50.5 24.8444 50.4C25.1444 50.4 24.9444 50.4 24.8444 50.3C25.4444 50.3 26.0444 50.3 26.6444 50.3C26.7444 50.3 26.7444 50.3 26.6444 50.3C26.7444 50.3 27.0444 50.3 26.6444 50.3C26.4444 50.3 26.7444 50.3 26.6444 50.3C26.4444 50.3 26.5444 50.3 26.6444 50.3C26.5444 50.3 26.7444 50.3 26.6444 50.3C26.4444 50.3 26.8444 50.3 26.6444 50.3C26.5444 50.3 26.8444 50.3 26.6444 50.3C26.5444 50.3 26.7444 50.3 26.6444 50.3C26.5444 50.3 26.8444 50.3 26.6444 50.3C25.5444 50.7 25.4444 50.8 25.3444 50.7Z" fill="#73523F"/>
<path d="M36.3444 36.2C36.4444 36.2 36.5444 36.9 36.6444 38.3C36.6444 38.5 36.6444 38.8 36.6444 39C36.6444 39.3 36.7444 39.5 36.6444 39.8C36.5444 40.1 36.9444 40.4 36.6444 40.7C36.5444 41 36.6444 41.4 36.6444 41.7C36.6444 42.1 36.5444 42.4 36.6444 42.8C36.9444 43.2 36.3444 43.6 36.6444 44C36.7444 44.4 36.7444 44.8 36.6444 45.3C36.4444 45.7 36.6444 46.2 36.6444 46.7C36.3444 47.2 36.5444 47.6 36.6444 48.1C36.3444 48.6 36.3444 49.1 36.6444 49.6V49.8C36.6444 49.9 36.6444 49.9 36.6444 50C36.7444 50 36.7444 50 36.8444 49.9H37.2444C37.5444 49.9 37.7444 49.9 38.0444 49.9C38.6444 49.7 39.1444 49.7 39.7444 49.9C40.3444 49.7 40.9444 49.8 41.5444 49.9C42.1444 50 42.7444 49.7 43.3444 49.9C43.9444 49.9 44.5444 49.8 45.2444 49.9C45.8444 50 46.5444 50.1 47.1444 49.9C47.7444 49.8 48.4444 49.8 49.0444 49.9C49.7444 49.6 50.3444 49.8 51.0444 49.9C51.7444 49.9 52.3444 50 53.0444 49.9C53.3444 49.9 53.7444 49.9 54.0444 49.9C54.0444 49.9 54.0444 49.9 54.1444 49.9C54.1444 49.9 54.1444 49.9 54.2444 49.9C54.2444 49.6 54.2444 49.2 54.1444 48.9C53.9444 48.2 54.2444 47.5 54.1444 46.9C54.3444 46.2 54.0444 45.6 54.1444 44.9C54.1444 44.2 54.2444 43.6 54.1444 43C54.1444 42.4 54.0444 41.7 54.1444 41.1C53.7444 40.5 54.2444 39.9 54.1444 39.2C54.3444 38.6 54.1444 38 54.1444 37.4V37.3C54.1444 37.3 54.1444 37.2 54.2444 37.1C54.2444 37.1 54.1444 37.1 54.0444 37.1C54.0444 37.1 54.0444 37.1 53.9444 37.1H53.7444C53.6444 37.1 53.4444 37.1 53.3444 37.1C53.0444 37.1 52.7444 37.1 52.5444 37C51.9444 37.2 51.4444 36.8 50.9444 37C50.4444 37 49.8444 37 49.3444 37C48.8444 36.7 48.3444 36.9 47.8444 37C47.3444 37 46.8444 37.2 46.4444 37C45.9444 37 45.5444 36.8 45.0444 37C44.6444 37 44.1444 36.6 43.7444 37C43.3444 37.1 42.9444 36.7 42.5444 37C42.1444 37.2 41.7444 37 41.4444 37C41.0444 37 40.7444 37 40.4444 37C38.0444 36.5 36.3444 36.3 36.3444 36.2C36.3444 36 38.4444 35.8 41.9444 35.7C42.3444 35.7 42.6444 35.5 43.0444 35.7C43.4444 35.7 43.8444 35.5 44.2444 35.7C44.6444 35.4 45.0444 35.6 45.5444 35.7C45.9444 35.7 46.4444 35.8 46.9444 35.7C47.4444 35.5 47.8444 35.8 48.3444 35.7C48.8444 35.9 49.3444 35.8 49.8444 35.7C50.3444 35.9 50.8444 35.7 51.4444 35.7C51.9444 36 52.5444 35.8 53.0444 35.7C53.3444 35.7 53.6444 35.7 53.8444 35.7C53.9444 35.7 54.1444 35.7 54.2444 35.7H54.4444C54.5444 35.7 54.7444 35.7 54.8444 35.7C55.2444 35.7 55.7444 35.7 56.1444 35.7C56.1444 36 56.1444 36.3 56.1444 36.6C56.1444 36.9 56.1444 37.2 56.1444 37.5C56.2444 38.1 56.3444 38.7 56.1444 39.3C56.2444 39.9 56.1444 40.5 56.1444 41.2C56.2444 41.8 56.1444 42.5 56.1444 43.1C56.2444 43.7 55.8444 44.4 56.1444 45C56.1444 45.7 56.1444 46.3 56.1444 47C56.1444 47.7 56.0444 48.3 56.1444 49C56.0444 49.3 55.9444 49.7 56.0444 50C56.0444 50.1 56.0444 50.3 56.0444 50.4C56.0444 50.6 56.0444 50.7 56.0444 50.9C56.0444 51.2 56.1444 51.6 56.1444 51.9C55.8444 51.9 55.5444 51.9 55.1444 51.9H54.1444C53.8444 51.9 53.4444 51.9 53.1444 51.9C52.4444 51.9 51.7444 51.9 51.1444 51.9C50.4444 52 49.8444 51.8 49.1444 51.9C48.4444 52 47.8444 51.8 47.2444 51.9C46.6444 52 45.9444 52 45.3444 51.9C44.7444 51.9 44.1444 51.6 43.4444 51.9C42.8444 52 42.2444 52.3 41.6444 51.9C41.0444 52 40.4444 51.7 39.8444 51.9C39.2444 51.6 38.7444 51.9 38.1444 51.9C37.8444 51.9 37.5444 51.8 37.3444 51.8C37.2444 51.8 37.2444 51.8 37.1444 51.8H36.8444C36.6444 51.8 36.3444 51.8 36.1444 51.9C35.8444 51.9 35.5444 52 35.2444 51.9C35.2444 51.6 35.2444 51.2 35.3444 50.9C35.3444 50.7 35.3444 50.6 35.3444 50.4V50C35.1444 49.5 35.5444 49 35.3444 48.5C35.3444 48 35.3444 47.5 35.3444 47.1C34.9444 46.6 35.3444 46.2 35.3444 45.7C35.4444 45.3 35.0444 44.8 35.3444 44.4C35.0444 44 35.3444 43.6 35.3444 43.2C35.4444 42.8 35.2444 42.4 35.3444 42.1C35.1444 41.7 35.4444 41.4 35.3444 41.1C35.4444 40.8 35.3444 40.5 35.3444 40.2C35.3444 39.9 35.3444 39.6 35.3444 39.4C35.3444 39.1 35.3444 38.9 35.3444 38.7C36.1444 36.9 36.2444 36.2 36.3444 36.2Z" fill="#73523F"/>
<path d="M25.2444 36.2C25.3444 36.2 25.4444 36.2 25.5444 36.2C25.4444 36.2 25.8444 36.2 25.5444 36.2C25.2444 36.2 25.8444 36.2 25.5444 36.2C25.6444 36.2 25.6444 36.2 25.5444 36.2C25.3444 36.2 25.4444 36.2 25.5444 36.2C25.2444 36.2 25.2444 36.2 25.5444 36.2C25.7444 36.2 25.7444 36.2 25.5444 36.2C25.6444 36.2 25.7444 36.2 25.5444 36.2C25.4444 36.2 25.7444 36.2 25.5444 36.2C25.3444 36.2 25.4444 36.2 25.5444 36.2C25.6444 36.2 25.6444 36.2 25.5444 36.2C25.6444 36.2 25.8444 36.2 25.5444 36.2H23.8444C23.9444 36.2 24.0444 36.2 23.8444 36.2C23.6444 36.2 23.9444 36.2 23.8444 36.2C23.7444 36.2 24.0444 36.2 23.8444 36.2C23.4444 36.2 23.9444 36.2 23.8444 36.2C23.7444 36.2 24.0444 36.2 23.8444 36.2C23.6444 36.2 24.0444 36.2 23.8444 36.2C23.7444 36.2 24.1444 36.2 23.8444 36.2C25.0444 36.2 25.1444 36.2 25.2444 36.2C25.4444 36.2 25.6444 36.2 25.7444 36.3C25.8444 36.3 26.0444 36.3 25.7444 36.3C25.6444 36.3 25.9444 36.3 25.7444 36.3C25.5444 36.3 25.6444 36.3 25.7444 36.3C25.4444 36.3 25.6444 36.3 25.7444 36.3C25.8444 36.3 25.9444 36.3 25.7444 36.3C25.4444 36.3 25.8444 36.3 25.7444 36.3C25.4444 36.3 25.6444 36.3 25.7444 36.3H24.0444C23.9444 36.3 24.0444 36.3 24.0444 36.2C24.0444 36.2 24.0444 36.2 24.0444 36.1C23.9444 36.1 23.9444 36.1 24.0444 36.1C23.6444 36.1 23.9444 36.1 24.0444 36.1C23.9444 36.1 24.2444 36.1 24.0444 36.1C24.1444 36.1 24.1444 36.1 24.0444 36.1C23.9444 36.1 24.1444 36.1 24.0444 36.1C23.8444 36.1 24.2444 36.1 24.0444 36.1C23.7444 36.1 24.1444 36.1 24.0444 36.1C23.9444 36.1 24.1444 36.1 24.0444 36.1C23.8444 36.1 24.1444 36.1 24.0444 36.1C25.0444 36.2 25.1444 36.2 25.2444 36.2Z" fill="#73523F"/>
<path d="M14.0444 36.2C14.0444 36.3 13.9444 36.3 13.7444 36.4C13.6444 36.4 13.5444 36.5 13.3444 36.5C13.2444 36.5 13.0444 36.6 12.8444 36.6C12.7444 36.6 12.6444 36.7 12.4444 36.7C12.3444 36.8 12.1444 36.8 12.0444 36.9C11.9444 36.8 11.8444 36.9 11.8444 37C11.7444 37.1 11.7444 37.2 11.6444 37.1C11.5444 37.1 11.4444 37.1 11.3444 37.2C11.2444 37.2 11.2444 37.3 11.1444 37.4C11.0444 37.5 10.7444 37.5 10.6444 37.7C10.6444 37.9 10.5444 37.9 10.3444 37.9C10.2444 37.9 10.2444 37.9 10.1444 37.9C10.1444 37.9 10.0444 38 10.0444 38.1C9.94444 38.2 9.94444 38.3 9.84444 38.3L9.64444 38.5C9.34444 38.5 9.24444 38.8 9.14444 39C8.94444 39 8.84444 39.1 8.74444 39.2C8.64444 39.3 8.64444 39.5 8.64444 39.6C8.44444 39.6 8.24444 39.7 8.24444 39.8C8.14444 39.9 8.14444 40.1 8.24444 40.3C8.24444 40.4 8.14444 40.4 8.14444 40.5C8.14444 40.6 8.04444 40.6 8.04444 40.7C7.94444 40.8 7.94444 40.9 7.94444 41.1C7.94444 41.2 7.84444 41.4 7.84444 41.5C7.84444 41.6 7.84444 41.6 7.74444 41.7C7.74444 41.8 7.74444 41.8 7.64444 41.9C7.74444 42.1 7.74444 42.2 7.74444 42.3C7.74444 42.4 7.64444 42.6 7.54444 42.7C7.64444 42.9 7.64444 43 7.64444 43.1C7.64444 43.2 7.54444 43.4 7.44444 43.5C7.34444 43.6 7.44444 43.8 7.54444 43.9C7.54444 44 7.54444 44 7.64444 44.1C7.64444 44.2 7.64444 44.2 7.64444 44.3C7.64444 44.5 7.74444 44.6 7.74444 44.8C7.84444 44.9 7.84444 45.1 7.84444 45.3C7.84444 45.5 7.84444 45.6 7.84444 45.8C7.84444 46 7.94444 46.1 8.14444 46.2C8.24444 46.3 8.34444 46.5 8.44444 46.6C8.54444 46.7 8.64444 46.9 8.64444 47C8.74444 47 8.84444 47.1 8.84444 47.1C8.94444 47.1 9.04444 47.2 9.04444 47.3C9.04444 47.4 9.14444 47.4 9.14444 47.5C9.14444 47.6 9.24444 47.7 9.24444 47.7C9.44444 47.9 9.64444 48.3 9.94444 48.4C10.0444 48.5 10.2444 48.6 10.3444 48.7C10.4444 48.8 10.6444 48.9 10.7444 49C10.8444 49.1 11.0444 49.2 11.1444 49.3C11.2444 49.3 11.3444 49.4 11.3444 49.4C11.4444 49.4 11.5444 49.4 11.6444 49.4C11.7444 49.4 11.8444 49.4 11.9444 49.4C12.0444 49.4 12.1444 49.5 12.1444 49.5C12.3444 49.6 12.4444 49.7 12.6444 49.7C12.7444 49.9 12.9444 49.9 13.1444 49.8H13.2444C13.2444 49.8 13.2444 49.8 13.3444 49.8C13.3444 49.8 13.3444 49.8 13.4444 49.8C13.4444 49.8 13.4444 49.7 13.3444 49.7C13.3444 49.7 13.3444 49.6 13.2444 49.6V49.5C13.2444 49.4 13.2444 49.3 13.3444 49.2C12.9444 48.8 13.4444 48.5 13.3444 48.2C13.5444 47.9 13.3444 47.5 13.3444 47.2C13.2444 46.9 13.5444 46.5 13.3444 46.2C13.3444 45.9 13.2444 45.6 13.3444 45.2C13.1444 44.9 13.5444 44.6 13.3444 44.3C13.3444 44 13.3444 43.7 13.3444 43.4C13.6444 43.1 13.4444 42.8 13.3444 42.6C13.3444 42.3 13.1444 42.1 13.3444 41.8C13.3444 41.5 13.5444 41.3 13.3444 41C13.3444 40.8 13.7444 40.5 13.3444 40.3C13.2444 40.1 13.6444 39.8 13.3444 39.6C13.1444 39.4 13.3444 39.2 13.3444 39C13.3444 38.8 13.3444 38.6 13.3444 38.4C13.3444 37.9 13.4444 37.4 13.4444 37C13.4444 36.8 13.5444 36.6 13.5444 36.5C13.5444 36.3 13.6444 36.2 13.6444 36.1C13.7444 36.2 13.7444 36.2 13.7444 36.3C14.1444 36.3 14.0444 36.2 14.0444 36.2C14.0444 36.1 14.1444 36.1 14.3444 36H14.4444V36.2C14.4444 36.3 14.4444 36.5 14.4444 36.6C14.4444 36.8 14.4444 37 14.5444 37.2C14.6444 37.7 14.6444 38.3 14.6444 39C14.6444 39.2 14.8444 39.4 14.6444 39.6C14.6444 39.8 14.8444 40 14.6444 40.3C14.9444 40.5 14.7444 40.8 14.6444 41C14.6444 41.2 14.5444 41.5 14.6444 41.8C14.8444 42.1 14.5444 42.3 14.6444 42.6C14.4444 42.9 14.5444 43.2 14.6444 43.4C14.4444 43.7 14.6444 44 14.6444 44.3C14.3444 44.6 14.5444 44.9 14.6444 45.2C14.7444 45.5 14.6444 45.8 14.6444 46.2C14.6444 46.5 14.7444 46.9 14.6444 47.2C14.7444 47.5 14.8444 47.9 14.6444 48.2C14.7444 48.5 14.6444 48.9 14.6444 49.2C14.6444 49.3 14.6444 49.4 14.6444 49.5V49.8C14.6444 50 14.6444 50.1 14.6444 50.3C14.6444 50.5 14.6444 50.6 14.6444 50.8C14.6444 51 14.6444 51.2 14.6444 51.4C14.5444 51.4 14.4444 51.4 14.2444 51.4C14.1444 51.4 14.0444 51.4 13.8444 51.4C13.6444 51.4 13.4444 51.4 13.2444 51.5C13.0444 51.5 12.9444 51.5 12.7444 51.5C12.6444 51.5 12.5444 51.5 12.5444 51.5H12.3444C12.1444 51.5 11.9444 51.4 11.7444 51.4C11.5444 51.3 11.3444 51.3 11.1444 51.2C11.0444 51.2 10.9444 51.1 10.8444 51.1C10.7444 51.1 10.6444 51 10.5444 51C10.4444 50.9 10.3444 50.8 10.3444 50.8C10.2444 50.7 10.1444 50.7 10.0444 50.7C9.84444 50.6 9.64444 50.6 9.44444 50.5C9.24444 50.4 9.04444 50.3 8.84444 50.2C8.64444 50.1 8.54444 49.9 8.34444 49.8C8.04444 49.5 7.64444 49.2 7.44444 48.9C7.34444 48.8 7.24444 48.8 7.24444 48.7C7.14444 48.6 7.14444 48.5 7.04444 48.4C6.94444 48.3 6.94444 48.2 6.84444 48.1C6.74444 48 6.74444 47.9 6.64444 47.9C6.44444 47.8 6.44444 47.6 6.34444 47.4C6.24444 47.2 6.24444 47 6.04444 46.8C5.94444 46.6 5.84444 46.5 5.74444 46.3C5.64444 46.1 5.64444 45.9 5.64444 45.7C5.64444 45.5 5.64444 45.3 5.54444 45.1C5.54444 44.9 5.54444 44.7 5.34444 44.5C5.34444 44.4 5.24444 44.3 5.24444 44.2C5.24444 44.1 5.14444 44 5.14444 43.9C5.14444 43.7 5.14444 43.5 5.34444 43.3C5.34444 43.1 5.34444 42.9 5.44444 42.8C5.44444 42.6 5.54444 42.4 5.44444 42.3C5.64444 42.1 5.64444 42 5.64444 41.8C5.64444 41.6 5.64444 41.4 5.64444 41.3C5.64444 41.2 5.74444 41.1 5.74444 41.1C5.74444 41 5.84444 40.9 5.84444 40.9C5.94444 40.7 5.94444 40.6 5.94444 40.4C5.94444 40.2 6.04444 40.1 6.14444 39.9C6.14444 39.8 6.24444 39.8 6.24444 39.7C6.24444 39.6 6.34444 39.6 6.34444 39.5C6.34444 39.3 6.44444 39.2 6.64444 39.1C6.74444 39 6.94444 38.9 6.94444 38.7C7.04444 38.6 7.14444 38.5 7.24444 38.4C7.34444 38.3 7.44444 38.2 7.54444 38.1C7.54444 37.9 7.64444 37.8 7.74444 37.7C7.84444 37.6 8.04444 37.6 8.14444 37.5C8.24444 37.5 8.24444 37.4 8.24444 37.4C8.24444 37.3 8.34444 37.3 8.34444 37.2C8.44444 37.1 8.54444 37 8.74444 37.1C8.74444 37 8.74444 36.9 8.84444 36.9C8.84444 36.9 8.94444 36.8 9.04444 36.8C9.14444 36.8 9.34444 36.8 9.44444 36.7C9.64444 36.6 9.84444 36.4 10.0444 36.4C10.1444 36.3 10.2444 36.2 10.3444 36.2C10.4444 36.2 10.5444 36.2 10.6444 36.2C10.7444 36.2 10.8444 36.2 10.9444 36.2C11.0444 36.2 11.1444 36.1 11.2444 36.1C12.0444 36 12.1444 36 12.3444 36C12.5444 36 12.6444 36 12.7444 36C12.9444 36 13.1444 36 13.2444 36C13.4444 36 13.5444 36 13.6444 36.1C13.9444 36.1 14.0444 36.1 14.0444 36.2Z" fill="#73523F"/>
<path d="M36.3444 33.1C36.2444 33.1 36.2444 32.9 36.1444 32.5C36.0444 32.1 35.9444 31.6 35.5444 30.9C35.4444 30.8 35.4444 30.7 35.3444 30.6C35.2444 30.5 35.2444 30.4 35.1444 30.3C34.9444 30.1 34.7444 29.9 34.5444 29.6C34.5444 29.4 34.3444 29.4 34.1444 29.3C33.9444 29.2 33.8444 29.2 33.7444 29C33.6444 28.9 33.4444 28.8 33.3444 28.7C33.1444 28.6 33.0444 28.6 32.8444 28.5C32.7444 28.5 32.6444 28.4 32.5444 28.4C32.4444 28.4 32.3444 28.3 32.2444 28.3C32.0444 28.2 31.8444 28.2 31.6444 28.2C31.5444 28.3 31.4444 28.3 31.3444 28.2C31.3444 28.2 31.2444 28.2 31.2444 28.1C31.2444 28.1 31.1444 28.1 31.1444 28C31.1444 28 31.0444 28 30.9444 28C30.8444 28 30.7444 28 30.6444 28.1C30.2444 28.2 29.8444 28.3 29.3444 28.4C29.1444 28.4 28.8444 28.5 28.6444 28.6C28.4444 28.7 28.2444 28.9 28.0444 29C27.5444 29.1 27.1444 29.5 27.0444 30C26.4444 30.2 26.2444 30.7 26.3444 31.3C26.3444 31.4 26.2444 31.5 26.2444 31.7C26.2444 31.8 26.1444 31.9 26.1444 32.1C26.1444 32.2 26.0444 32.4 26.0444 32.5C26.0444 32.6 26.0444 32.6 26.0444 32.7C26.0444 32.8 26.0444 32.8 26.0444 32.9C26.0444 33.1 26.0444 33.5 26.0444 33.8C26.0444 34.1 26.0444 34.4 26.0444 34.7C26.2444 35.3 26.2444 36 26.0444 36.6C26.2444 37.2 26.1444 37.9 26.0444 38.6C25.9444 39.3 26.2444 40 26.0444 40.6C26.0444 41.3 26.1444 42 26.0444 42.7C25.9444 43.4 25.8444 44.1 26.0444 44.8C26.1444 45.5 26.1444 46.3 26.0444 47C26.3444 47.7 26.1444 48.5 26.0444 49.2C26.0444 50 25.9444 50.7 26.0444 51.5C26.0444 52.3 26.1444 53 26.0444 53.8C25.9444 54.5 26.0444 55.2 26.4444 55.7C26.6444 56 26.7444 56.2 26.9444 56.5L27.0444 56.7C27.0444 56.8 27.1444 56.8 27.1444 56.9C27.2444 57 27.2444 57 27.3444 57.1C27.4444 57.2 27.4444 57.2 27.5444 57.3C27.5444 57.4 27.6444 57.4 27.6444 57.5C27.7444 57.6 27.7444 57.6 27.8444 57.7C27.9444 57.7 27.9444 57.8 28.0444 57.8C28.1444 57.8 28.1444 57.9 28.2444 57.9C28.3444 58 28.5444 58 28.7444 58.1C28.8444 58.2 29.0444 58.2 29.1444 58.3C29.4444 58.4 29.7444 58.5 30.0444 58.6C30.2444 58.6 30.3444 58.6 30.5444 58.7C30.7444 58.7 30.8444 58.7 31.0444 58.6C31.6444 58.5 32.2444 58.3 32.8444 58.1C32.9444 58 33.0444 57.8 33.1444 57.8C33.2444 57.8 33.2444 57.7 33.3444 57.7C33.4444 57.7 33.4444 57.6 33.5444 57.6C33.6444 57.6 33.6444 57.5 33.7444 57.5C33.8444 57.5 33.8444 57.4 33.9444 57.4C34.0444 57.4 34.0444 57.3 34.1444 57.3C34.2444 57.2 34.2444 57.2 34.2444 57.1C34.3444 57.1 34.3444 57 34.4444 57C34.5444 56.9 34.5444 56.9 34.5444 56.8C34.5444 56.7 34.6444 56.7 34.6444 56.6C34.6444 56.5 34.7444 56.5 34.7444 56.4L34.8444 56.2C34.8444 56.1 34.9444 56.1 34.9444 56C35.0444 55.9 35.0444 55.7 35.1444 55.6C35.2444 55.3 35.3444 55.1 35.4444 54.8C35.4444 54.7 35.5444 54.5 35.5444 54.4C35.5444 54.3 35.5444 54.1 35.5444 54C35.5444 53.4 35.4444 52.7 35.5444 52.1C35.3444 51.5 35.7444 50.9 35.5444 50.3C35.5444 49.7 35.5444 49.1 35.5444 48.5C35.8444 47.9 35.6444 47.4 35.5444 46.8C35.5444 46.2 35.3444 45.7 35.5444 45.2C35.5444 44.7 35.7444 44.2 35.5444 43.7C35.5444 43.2 35.9444 42.7 35.5444 42.3C35.4444 41.8 35.8444 41.4 35.5444 40.9C35.3444 40.5 35.5444 40 35.5444 39.6C35.5444 39.2 35.5444 38.8 35.5444 38.4C36.0444 35 36.2444 33.1 36.3444 33.1C36.5444 33.1 36.6444 35.4 36.8444 39.5C36.8444 39.9 37.0444 40.3 36.8444 40.8C36.8444 41.2 37.0444 41.7 36.8444 42.2C37.1444 42.7 36.8444 43.1 36.8444 43.6C36.8444 44.1 36.7444 44.6 36.8444 45.1C37.0444 45.6 36.7444 46.2 36.8444 46.7C36.6444 47.3 36.7444 47.8 36.8444 48.4C36.6444 49 36.8444 49.6 36.8444 50.2C36.5444 50.8 36.7444 51.4 36.8444 52C36.9444 52.6 36.8444 53.3 36.8444 53.9C36.8444 54.1 36.8444 54.3 36.8444 54.5C36.8444 54.7 36.8444 54.9 36.7444 55.1C36.6444 55.5 36.6444 55.9 36.4444 56.2C36.2444 57 35.8444 57.7 35.2444 58.2C34.7444 58.8 34.0444 59.3 33.3444 59.7C33.1444 59.8 32.9444 59.9 32.8444 60C32.6444 60.1 32.4444 60.1 32.2444 60.2C32.0444 60.2 31.8444 60.3 31.6444 60.3C31.4444 60.3 31.2444 60.4 31.0444 60.4C30.8444 60.4 30.6444 60.4 30.4444 60.4C30.2444 60.4 30.0444 60.3 29.8444 60.3C29.4444 60.2 29.0444 60.1 28.5444 60.1C27.7444 59.9 27.0444 59.3 26.3444 58.8C25.7444 58.2 25.2444 57.5 24.8444 56.7C24.8444 56.6 24.8444 56.5 24.8444 56.4C24.8444 56.3 24.8444 56.2 24.7444 56.1C24.7444 55.9 24.6444 55.7 24.5444 55.5C24.4444 55.3 24.4444 55.1 24.3444 54.9C24.3444 54.7 24.2444 54.5 24.2444 54.2C24.1444 53.4 24.2444 52.6 24.2444 51.9C24.2444 51.1 24.2444 50.4 24.2444 49.6C24.1444 48.8 24.3444 48.1 24.2444 47.4C24.1444 46.7 24.3444 45.9 24.2444 45.2C24.1444 44.5 24.1444 43.8 24.2444 43.1C24.2444 42.4 24.5444 41.7 24.2444 41C24.1444 40.3 23.8444 39.6 24.2444 39C24.1444 38.3 24.4444 37.7 24.2444 37C24.5444 36.4 24.2444 35.7 24.2444 35.1C24.2444 34.8 24.3444 34.5 24.3444 34.2C24.3444 33.9 24.3444 33.6 24.3444 33.2C24.3444 33.1 24.3444 33 24.3444 32.9C24.3444 32.8 24.3444 32.7 24.3444 32.6C24.3444 32.4 24.4444 32.3 24.4444 32.1C24.5444 31.9 24.5444 31.8 24.6444 31.6C24.7444 31.4 24.7444 31.3 24.8444 31.1C24.8444 30.9 24.9444 30.8 25.0444 30.6C25.0444 30.5 25.1444 30.5 25.1444 30.4L25.3444 30.2C25.4444 30.1 25.5444 30 25.6444 29.8C25.7444 29.7 25.8444 29.6 25.8444 29.4C26.2444 29 26.6444 28.5 27.2444 28.2C27.3444 27.9 27.6444 27.7 27.9444 27.6C28.2444 27.5 28.5444 27.5 28.8444 27.4C28.9444 27.4 29.1444 27.3 29.2444 27.3C29.3444 27.3 29.5444 27.2 29.6444 27.2C29.7444 27.2 29.9444 27.1 30.0444 27.1C30.1444 27.1 30.3444 27.1 30.4444 27.2C30.5444 27.1 30.7444 27.1 30.8444 27.1C30.9444 27.1 31.1444 27.1 31.2444 27.1C31.3444 27.1 31.3444 27.1 31.4444 27.1L31.6444 27.2C31.7444 27.2 31.8444 27.3 31.9444 27.3C32.1444 27.4 32.4444 27.4 32.6444 27.5C32.7444 27.5 32.8444 27.6 32.9444 27.6C33.0444 27.6 33.1444 27.7 33.2444 27.8C33.4444 27.8 33.6444 27.9 33.8444 28.1C34.0444 28.2 34.1444 28.4 34.3444 28.5C34.4444 28.7 34.6444 28.8 34.7444 28.9C34.8444 29 35.0444 29.1 35.1444 29.3C35.4444 29.5 35.6444 29.8 35.7444 30.1C35.8444 30.2 35.8444 30.4 35.9444 30.5C36.0444 30.6 36.0444 30.8 36.1444 30.9C36.4444 31.7 36.5444 32.3 36.5444 32.7C36.4444 32.9 36.4444 33.1 36.3444 33.1Z" fill="#73523F"/>
<path d="M14.3444 37C14.2444 37 14.2444 36.8 14.2444 36.5C14.2444 36.2 14.2444 35.7 14.4444 35C14.5444 34.8 14.5444 34.6 14.6444 34.3C14.7444 34.1 14.8444 33.8 15.0444 33.6C15.1444 33.5 15.2444 33.4 15.2444 33.2C15.2444 33 15.3444 32.9 15.5444 32.9C15.8444 32.7 16.0444 32.5 16.2444 32.2C16.4444 31.9 16.8444 31.9 17.1444 31.6C17.2444 31.4 17.4444 31.4 17.6444 31.4C17.8444 31.4 18.0444 31.4 18.2444 31.2C18.6444 31 19.0444 31 19.4444 30.9C19.5444 31 19.8444 31 20.0444 31C20.2444 31 20.5444 30.9 20.7444 31C21.1444 31.3 21.6444 31.3 22.1444 31.3C22.4444 31.8 22.8444 32 23.4444 32C23.8444 32.3 24.1444 32.7 24.6444 33.1C25.0444 33.5 25.3444 33.9 25.5444 34.5C25.9444 34.9 26.1444 35.5 26.0444 36.1C26.2444 36.4 26.2444 36.7 26.2444 37C26.2444 37.3 26.1444 37.5 26.1444 37.8C26.0444 38.3 26.3444 38.9 26.1444 39.4C26.1444 39.9 26.2444 40.5 26.1444 41.1C26.0444 41.7 25.9444 42.2 26.1444 42.8C26.2444 43.4 26.2444 44 26.1444 44.5C26.4444 45.1 26.2444 45.7 26.1444 46.3C26.1444 46.9 26.0444 47.5 26.1444 48.1C26.1444 48.7 26.2444 49.3 26.1444 49.9C26.0444 50.6 25.8444 51.3 25.7444 52C25.7444 52.4 25.5444 52.7 25.3444 53C25.1444 53.3 24.9444 53.6 24.7444 53.8C24.4444 54 24.2444 54.3 24.0444 54.5C23.8444 54.8 23.5444 55 23.2444 55.2C22.9444 55.4 22.6444 55.5 22.3444 55.7C22.0444 55.8 21.7444 55.9 21.4444 56.1C20.8444 56.3 20.1444 56.4 19.5444 56.3C19.2444 56.5 18.8444 56.4 18.5444 56.3C18.2444 56.2 17.9444 56 17.6444 55.9C17.3444 55.7 17.1444 55.6 16.8444 55.5C16.5444 55.4 16.2444 55.2 16.0444 55C15.7444 54.8 15.5444 54.6 15.3444 54.4C15.1444 54.2 14.9444 53.9 14.7444 53.7C14.5444 53.5 14.4444 53.2 14.2444 53C14.0444 52.8 13.9444 52.5 13.9444 52.2C13.7444 52 13.7444 51.7 13.6444 51.4C13.6444 51.1 13.6444 50.8 13.5444 50.6C13.5444 50.5 13.5444 50.3 13.5444 50.2C13.5444 50.1 13.5444 49.9 13.5444 49.8C13.5444 49.6 13.5444 49.3 13.5444 49.1C13.8444 48.6 13.6444 48.2 13.5444 47.8C13.5444 47.4 13.3444 46.9 13.5444 46.5C13.5444 46.1 13.7444 45.7 13.5444 45.3C13.5444 44.9 13.9444 44.5 13.5444 44.2C13.4444 43.8 13.8444 43.5 13.5444 43.1C13.3444 42.8 13.5444 42.4 13.5444 42.1C13.5444 41.8 13.5444 41.5 13.5444 41.2C14.0444 38.5 14.1444 37 14.3444 37C14.5444 37 14.6444 38.9 14.8444 42C14.8444 42.3 15.0444 42.7 14.8444 43C14.8444 43.3 15.0444 43.7 14.8444 44.1C15.1444 44.5 14.9444 44.9 14.8444 45.2C14.8444 45.6 14.7444 46 14.8444 46.4C15.0444 46.8 14.7444 47.2 14.8444 47.7C14.6444 48.1 14.7444 48.6 14.8444 49C14.7444 49.2 14.7444 49.5 14.8444 49.7C14.8444 49.8 14.8444 49.9 14.9444 50C14.9444 50.1 14.9444 50.2 14.9444 50.3C14.8444 50.5 14.8444 50.7 14.9444 50.9C15.0444 51.1 15.1444 51.3 15.2444 51.5C15.3444 51.7 15.4444 51.9 15.5444 52.1C15.6444 52.3 15.7444 52.5 15.9444 52.7C16.1444 53.1 16.5444 53.3 16.9444 53.6C17.3444 53.8 17.7444 53.9 18.1444 54.2C18.6444 54.3 19.0444 54.4 19.5444 54.5C20.0444 54.4 20.5444 54.5 20.9444 54.3C21.1444 54.2 21.4444 54.2 21.6444 54.1C21.8444 54 22.1444 53.9 22.2444 53.7C22.6444 53.4 23.0444 53.1 23.3444 52.7C23.6444 52.3 23.9444 51.9 24.0444 51.4C24.2444 51.2 24.3444 50.9 24.3444 50.7C24.3444 50.4 24.3444 50.2 24.2444 49.9C24.1444 49.3 24.2444 48.7 24.2444 48.1C24.2444 47.5 24.2444 46.9 24.2444 46.3C24.1444 45.7 24.3444 45.1 24.2444 44.5C24.1444 43.9 24.3444 43.3 24.2444 42.8C24.1444 42.2 24.1444 41.7 24.2444 41.1C24.2444 40.5 24.5444 40 24.2444 39.4C24.1444 38.9 23.8444 38.3 24.2444 37.8C24.2444 37.5 24.2444 37.3 24.2444 37C24.2444 36.8 24.2444 36.5 24.1444 36.3C24.2444 36.1 24.2444 35.8 24.1444 35.6C24.0444 35.4 23.9444 35.2 23.8444 35C23.7444 34.6 23.5444 34.2 23.1444 33.9C22.9444 33.8 22.8444 33.6 22.7444 33.5C22.6444 33.3 22.4444 33.2 22.3444 33.1C22.1444 33 22.0444 32.9 21.8444 32.8C21.7444 32.7 21.5444 32.5 21.3444 32.5C21.0444 32.3 20.6444 32.3 20.2444 32.2C20.0444 32.4 19.8444 32.3 19.7444 32.3C19.5444 32.2 19.4444 32.1 19.2444 32.1C19.0444 32.1 18.9444 32.2 18.7444 32.2C18.5444 32.3 18.4444 32.3 18.2444 32.2C18.1444 32.4 17.9444 32.4 17.8444 32.5C17.6444 32.5 17.5444 32.5 17.3444 32.6C17.1444 32.6 17.0444 32.7 16.9444 32.8C17.0444 32.9 16.9444 33 16.7444 33C16.6444 33.2 16.5444 33.2 16.4444 33.3C16.3444 33.4 16.1444 33.4 16.1444 33.5C15.8444 33.6 15.8444 33.9 15.6444 34.1C15.5444 34.3 15.4444 34.5 15.2444 34.7C15.1444 34.9 15.0444 35.1 14.9444 35.2C14.7444 35.7 14.6444 36.2 14.5444 36.5C14.4444 36.8 14.3444 37 14.3444 37Z" fill="#73523F"/>
<path d="M55.4444 33.1C55.3444 33.1 55.3444 32.9 55.3444 32.5C55.3444 32.1 55.4444 31.5 55.7444 30.7C55.8444 30.6 55.8444 30.4 55.9444 30.3C56.0444 30.2 56.0444 30 56.1444 29.9C56.3444 29.6 56.4444 29.3 56.7444 29.1C56.9444 29 57.0444 28.9 57.1444 28.7C57.2444 28.5 57.3444 28.4 57.6444 28.3C57.8444 28.2 57.9444 28.1 58.1444 28C58.3444 27.9 58.4444 27.8 58.6444 27.7C58.7444 27.6 58.8444 27.6 58.9444 27.6C59.0444 27.6 59.1444 27.5 59.2444 27.5C59.4444 27.4 59.6444 27.4 59.9444 27.3C60.0444 27.2 60.1444 27.2 60.2444 27.2C60.3444 27.2 60.3444 27.2 60.4444 27.2C60.5444 27.2 60.5444 27.2 60.6444 27.2C60.7444 27.2 60.8444 27.3 61.0444 27.2C61.1444 27.2 61.2444 27.2 61.4444 27.1C61.9444 27 62.5444 27.2 63.0444 27.3C63.2444 27.5 63.5444 27.6 63.7444 27.7C64.0444 27.8 64.2444 27.9 64.5444 28C64.8444 28.5 65.3444 28.8 65.8444 29.2C65.9444 29.9 66.2444 30.3 66.8444 30.8C66.9444 31 66.9444 31.1 67.0444 31.3C67.0444 31.5 67.1444 31.6 67.1444 31.8C67.1444 32 67.1444 32.1 67.2444 32.3C67.2444 32.4 67.2444 32.5 67.3444 32.5C67.3444 32.6 67.3444 32.7 67.4444 32.7C67.4444 33.1 67.4444 33.3 67.5444 33.7C67.5444 34 67.5444 34.3 67.5444 34.6C67.7444 35.2 67.7444 35.9 67.5444 36.5C67.7444 37.1 67.6444 37.8 67.5444 38.5C67.4444 39.2 67.7444 39.9 67.5444 40.5C67.5444 41.2 67.6444 41.9 67.5444 42.6C67.4444 43.3 67.3444 44 67.5444 44.7C67.6444 45.4 67.6444 46.2 67.5444 46.9C67.8444 47.6 67.6444 48.4 67.5444 49.1C67.5444 49.9 67.4444 50.6 67.5444 51.4C67.5444 52.2 67.6444 52.9 67.5444 53.7C67.4444 54.6 67.2444 55.4 66.9444 56.3C66.8444 56.7 66.6444 57.1 66.3444 57.5L66.1444 57.7C66.0444 57.8 65.9444 57.9 65.9444 57.9C65.8444 58 65.7444 58.1 65.7444 58.1C65.6444 58.2 65.5444 58.2 65.5444 58.3C65.4444 58.4 65.3444 58.4 65.2444 58.5C65.1444 58.6 65.0444 58.6 64.9444 58.7C64.8444 58.8 64.7444 58.8 64.6444 58.9C64.5444 59 64.4444 59 64.3444 59.1C64.1444 59.2 63.9444 59.3 63.8444 59.5C63.6444 59.6 63.4444 59.7 63.2444 59.7C62.8444 59.9 62.4444 59.9 62.0444 59.9C61.8444 59.9 61.6444 59.9 61.4444 59.9C61.2444 59.9 61.0444 59.9 60.8444 59.9C60.0444 59.9 59.1444 59.7 58.4444 59.2C58.3444 59.2 58.2444 59.2 58.1444 59.2C58.0444 59.2 57.9444 59.1 57.8444 59.1C57.7444 59 57.6444 59 57.5444 58.9C57.4444 58.8 57.3444 58.8 57.3444 58.7C57.2444 58.6 57.2444 58.6 57.1444 58.5C57.0444 58.4 57.0444 58.3 56.9444 58.3C56.8444 58.2 56.8444 58.2 56.7444 58.1C56.6444 58 56.6444 58 56.5444 57.9C56.4444 57.8 56.4444 57.7 56.3444 57.7C56.2444 57.6 56.2444 57.5 56.1444 57.5C56.0444 57.4 56.0444 57.3 55.9444 57.3L55.5444 56.9C55.4444 56.8 55.4444 56.7 55.4444 56.6C55.3444 56.4 55.2444 56.3 55.2444 56.1C55.0444 55.8 55.0444 55.4 54.9444 55C54.9444 54.8 54.9444 54.6 54.9444 54.4C54.9444 54.2 54.9444 54 54.8444 53.9C54.8444 53.2 54.7444 52.6 54.8444 52C54.6444 51.4 55.0444 50.8 54.8444 50.2C54.8444 49.6 54.8444 49 54.8444 48.4C55.1444 47.8 54.9444 47.3 54.8444 46.7C54.8444 46.1 54.6444 45.6 54.8444 45.1C54.8444 44.6 55.0444 44.1 54.8444 43.6C54.8444 43.1 55.2444 42.6 54.8444 42.2C54.7444 41.7 55.1444 41.3 54.8444 40.9C54.6444 40.5 54.8444 40 54.8444 39.6C54.8444 39.2 54.8444 38.8 54.8444 38.4C55.1444 35 55.3444 33.1 55.4444 33.1C55.6444 33.1 55.7444 35.4 55.9444 39.5C55.9444 39.9 56.1444 40.3 55.9444 40.8C55.9444 41.2 56.1444 41.7 55.9444 42.1C56.2444 42.6 56.0444 43 55.9444 43.5C55.9444 44 55.8444 44.5 55.9444 45C56.1444 45.5 55.8444 46.1 55.9444 46.6C55.7444 47.2 55.8444 47.7 55.9444 48.3C55.7444 48.9 55.9444 49.5 55.9444 50.1C55.6444 50.7 55.8444 51.3 55.9444 51.9C56.0444 52.5 55.9444 53.2 55.9444 53.8C55.9444 53.9 55.9444 54.1 55.9444 54.2C55.9444 54.3 56.0444 54.5 56.0444 54.6C56.1444 54.9 56.2444 55.1 56.2444 55.4C56.5444 55.9 56.8444 56.3 57.1444 56.9C57.6444 57.3 58.0444 57.7 58.5444 58C58.6444 58 58.8444 58.1 58.9444 58.1C59.0444 58.1 59.2444 58.2 59.3444 58.2C59.4444 58.2 59.6444 58.3 59.7444 58.3C59.8444 58.3 60.0444 58.4 60.2444 58.4C60.4444 58.4 60.5444 58.4 60.7444 58.4C60.9444 58.4 61.0444 58.4 61.2444 58.4C61.5444 58.4 61.8444 58.3 62.1444 58.1C62.7444 57.9 63.3444 57.6 63.7444 57.1C64.2444 56.7 64.6444 56.2 64.8444 55.6C64.9444 55.5 64.9444 55.5 65.0444 55.4C65.0444 55.3 65.1444 55.3 65.1444 55.2C65.2444 55.1 65.2444 54.9 65.2444 54.7C65.2444 54.5 65.2444 54.4 65.2444 54.2C65.2444 54 65.2444 53.9 65.1444 53.7C65.0444 52.9 65.1444 52.1 65.1444 51.4C65.1444 50.6 65.1444 49.9 65.1444 49.1C65.0444 48.3 65.2444 47.6 65.1444 46.9C65.0444 46.2 65.2444 45.4 65.1444 44.7C65.0444 44 65.0444 43.3 65.1444 42.6C65.1444 41.9 65.4444 41.2 65.1444 40.5C65.0444 39.8 64.7444 39.1 65.1444 38.5C65.0444 37.8 65.3444 37.2 65.1444 36.5C65.4444 35.9 65.1444 35.2 65.1444 34.6C65.1444 34.3 65.2444 34 65.2444 33.7C65.2444 33.4 65.2444 33.1 65.1444 32.8C65.1444 32.7 65.1444 32.7 65.1444 32.6C65.1444 32.5 65.1444 32.5 65.1444 32.4C65.1444 32.3 65.1444 32.1 65.1444 32C65.1444 31.9 65.1444 31.7 65.0444 31.6C65.0444 31.5 64.9444 31.4 64.9444 31.2C64.8444 31.1 64.8444 31 64.7444 30.9C64.7444 30.8 64.7444 30.8 64.6444 30.7L64.5444 30.5C64.5444 30.4 64.4444 30.3 64.3444 30.2C64.2444 30.1 64.1444 30 64.0444 29.9C63.7444 29.5 63.3444 29.2 63.0444 28.9C62.7444 28.9 62.5444 28.8 62.3444 28.7C62.1444 28.5 62.0444 28.4 61.8444 28.3C61.7444 28.2 61.6444 28.2 61.5444 28.2C61.4444 28.2 61.3444 28.2 61.2444 28.2C61.1444 28.2 61.0444 28.2 60.9444 28.2C60.8444 28.2 60.7444 28.1 60.6444 28.1C60.5444 28.2 60.4444 28.2 60.3444 28.2C60.2444 28.2 60.1444 28.2 60.0444 28.2C60.0444 28.2 59.9444 28.2 59.8444 28.2H59.6444C59.5444 28.2 59.4444 28.2 59.3444 28.2C59.1444 28.2 58.9444 28.3 58.7444 28.4C58.6444 28.4 58.5444 28.5 58.4444 28.5C58.3444 28.5 58.2444 28.5 58.1444 28.5C58.0444 28.7 57.8444 28.7 57.6444 28.8C57.4444 28.9 57.2444 28.9 57.1444 29C56.9444 29 56.8444 29.1 56.7444 29.3C56.6444 29.4 56.5444 29.5 56.4444 29.6C56.2444 29.9 56.0444 30.1 55.8444 30.3C55.7444 30.4 55.6444 30.5 55.6444 30.6C55.5444 30.7 55.5444 30.8 55.4444 30.9C55.1444 31.5 54.9444 32.1 54.8444 32.5C55.6444 32.9 55.5444 33.1 55.4444 33.1Z" fill="#73523F"/>
<path d="M77.5444 37C77.4444 37 77.4444 36.8 77.3444 36.5C77.3444 36.3 77.2444 36.2 77.1444 35.9C77.1444 35.8 77.0444 35.7 77.0444 35.6C77.0444 35.5 77.0444 35.5 76.9444 35.4C76.9444 35.3 76.8444 35.3 76.8444 35.2C76.8444 35.1 76.7444 35 76.7444 34.9C76.6444 34.8 76.6444 34.7 76.5444 34.6L76.3444 34.4C76.2444 34.3 76.2444 34.2 76.1444 34.1C76.1444 34 76.0444 33.9 75.8444 33.8C75.7444 33.7 75.6444 33.7 75.5444 33.5C75.5444 33.4 75.4444 33.4 75.4444 33.3C75.4444 33.3 75.3444 33.2 75.2444 33.2C75.1444 33.1 75.0444 33 74.8444 33C74.5444 32.9 74.4444 32.6 74.0444 32.5C73.8444 32.6 73.7444 32.4 73.6444 32.3C73.5444 32.2 73.5444 32.2 73.4444 32.2C73.3444 32.2 73.2444 32.2 73.1444 32.2C72.8444 32.2 72.4444 32.1 72.1444 32.1C72.2444 32 72.0444 31.9 71.8444 32C71.7444 32 71.6444 32 71.5444 32.1C71.4444 32.1 71.3444 32.2 71.2444 32.2C71.1444 32.2 71.0444 32.1 70.9444 32.1C70.8444 32.1 70.7444 32.1 70.6444 32.2C70.4444 32.3 70.3444 32.4 70.1444 32.6C70.0444 32.5 69.9444 32.5 69.8444 32.6C69.7444 32.6 69.6444 32.6 69.5444 32.7C69.4444 32.8 69.3444 32.8 69.3444 32.9L69.2444 33C69.2444 33.1 69.2444 33.1 69.1444 33.2C69.0444 33.3 68.9444 33.3 68.8444 33.4C68.7444 33.5 68.6444 33.5 68.6444 33.6L68.4444 33.8C68.3444 33.9 68.3444 34 68.2444 34.1C68.1444 34.2 68.1444 34.3 68.0444 34.4V34.3V34.5C67.9444 34.6 67.9444 34.7 67.8444 34.8C67.8444 34.9 67.7444 35 67.6444 35.1C67.6444 35.6 67.5444 36 67.3444 36.4C67.4444 36.6 67.4444 36.9 67.4444 37.1C67.4444 37.3 67.3444 37.6 67.3444 37.9C67.2444 38.4 67.5444 39 67.3444 39.5C67.3444 40 67.4444 40.6 67.3444 41.2C67.2444 41.8 67.1444 42.3 67.3444 42.9C67.4444 43.5 67.4444 44.1 67.3444 44.6C67.6444 45.2 67.4444 45.8 67.3444 46.4C67.3444 47 67.2444 47.6 67.3444 48.2C67.3444 48.8 67.4444 49.4 67.3444 50C67.2444 50.5 67.2444 51.1 67.6444 51.5C67.7444 51.6 67.7444 51.7 67.8444 51.8C67.9444 51.9 67.9444 52 67.9444 52.2C68.0444 52.3 68.0444 52.4 68.1444 52.5C68.2444 52.6 68.2444 52.7 68.3444 52.8C68.3444 52.9 68.4444 53.1 68.5444 53.2L68.6444 53.3C68.7444 53.3 68.7444 53.4 68.8444 53.4C69.0444 53.6 69.3444 53.6 69.4444 53.8C69.5444 53.9 69.6444 53.9 69.7444 54C69.8444 54.1 69.9444 54.1 70.0444 54.2C70.1444 54.3 70.2444 54.3 70.3444 54.4C70.4444 54.4 70.5444 54.5 70.7444 54.5C71.2444 54.6 71.7444 54.6 72.1444 54.7C72.2444 54.6 72.3444 54.6 72.4444 54.5C72.5444 54.5 72.6444 54.5 72.7444 54.5C72.8444 54.5 72.9444 54.5 73.1444 54.5C73.2444 54.5 73.2444 54.5 73.3444 54.5C73.4444 54.5 73.4444 54.5 73.5444 54.4C73.8444 54.4 74.0444 54.3 74.2444 54.2C74.4444 54.1 74.6444 53.9 74.8444 53.8C75.0444 53.6 75.2444 53.5 75.3444 53.4C75.4444 53.3 75.5444 53.3 75.6444 53.2C75.7444 53.1 75.7444 53 75.8444 52.9C75.9444 52.8 75.9444 52.7 76.0444 52.6C76.0444 52.5 76.1444 52.4 76.1444 52.3C76.2444 52.2 76.2444 52.1 76.2444 52C76.3444 51.9 76.3444 51.8 76.4444 51.7C76.4444 51.6 76.4444 51.5 76.5444 51.4C76.5444 51.3 76.6444 51.2 76.6444 51.1L76.7444 51C76.7444 51 76.7444 50.9 76.7444 50.8C76.7444 50.7 76.7444 50.6 76.7444 50.5C76.7444 50.4 76.7444 50.3 76.7444 50.2C76.7444 50.1 76.7444 50 76.7444 49.9C76.7444 49.7 76.7444 49.4 76.7444 49.2C77.0444 48.7 76.7444 48.3 76.7444 47.9C76.7444 47.5 76.5444 47 76.7444 46.6C76.7444 46.2 76.9444 45.8 76.7444 45.4C76.7444 45 77.1444 44.6 76.7444 44.3C76.6444 43.9 77.0444 43.6 76.7444 43.2C76.5444 42.9 76.7444 42.5 76.7444 42.2C76.7444 41.9 76.7444 41.6 76.7444 41.3C77.2444 38.5 77.4444 37 77.5444 37C77.7444 37 77.8444 38.9 78.0444 42C78.0444 42.3 78.2444 42.7 78.0444 43C78.0444 43.3 78.2444 43.7 78.0444 44.1C78.3444 44.5 78.1444 44.9 78.0444 45.2C78.0444 45.6 77.9444 46 78.0444 46.4C78.2444 46.8 77.9444 47.2 78.0444 47.7C77.8444 48.1 77.9444 48.6 78.0444 49C77.9444 49.2 77.9444 49.5 78.0444 49.7C78.0444 49.8 78.0444 50 78.0444 50.1C78.0444 50.2 78.0444 50.4 78.0444 50.5C77.9444 50.6 77.9444 50.8 77.8444 50.9C77.8444 51 77.8444 51 77.8444 51.1C77.8444 51.2 77.8444 51.2 77.8444 51.3C77.8444 51.4 77.8444 51.6 77.8444 51.7C77.8444 51.8 77.8444 52 77.7444 52.1C77.7444 52.2 77.6444 52.4 77.6444 52.5C77.5444 52.6 77.5444 52.8 77.4444 52.9C77.3444 53 77.2444 53.1 77.2444 53.3C77.1444 53.4 77.0444 53.5 77.0444 53.7C76.9444 53.8 76.8444 53.9 76.7444 54C76.6444 54.1 76.5444 54.2 76.4444 54.3C76.2444 54.5 76.0444 54.7 75.7444 54.9C75.5444 55.1 75.2444 55.3 75.0444 55.5C74.7444 55.6 74.4444 55.8 74.1444 55.8C74.0444 55.8 74.0444 55.9 73.9444 55.9C73.8444 55.9 73.7444 56 73.7444 56C73.5444 56 73.4444 56.1 73.2444 56.1C73.0444 56.1 72.9444 56.1 72.7444 56.2C72.5444 56.2 72.4444 56.2 72.2444 56.2C72.1444 56.2 72.0444 56.2 72.0444 56.2C71.9444 56.2 71.8444 56.2 71.8444 56.2C71.6444 56.2 71.5444 56.2 71.3444 56.2C71.1444 56.2 71.0444 56.1 70.8444 56.1C70.6444 56.1 70.5444 56 70.3444 56C70.1444 56 70.0444 55.9 69.8444 55.8C69.7444 55.7 69.5444 55.6 69.4444 55.6C69.3444 55.5 69.1444 55.4 69.0444 55.4C68.9444 55.3 68.7444 55.3 68.5444 55.2C67.9444 54.8 67.5444 54.3 67.0444 53.8C66.9444 53.7 66.8444 53.5 66.7444 53.4L66.4444 53C66.3444 52.8 66.2444 52.7 66.2444 52.5C66.1444 52.4 66.0444 52.2 66.0444 52C66.0444 51.8 66.0444 51.6 66.0444 51.5C66.0444 51.4 66.0444 51.3 66.0444 51.2C66.0444 51.1 66.0444 51 66.0444 50.9C66.0444 50.7 65.9444 50.6 65.9444 50.4C65.9444 50.2 65.8444 50 65.8444 49.9C65.7444 49.3 65.8444 48.7 65.8444 48.1C65.8444 47.5 65.8444 46.9 65.8444 46.3C65.7444 45.7 65.9444 45.1 65.8444 44.5C65.7444 43.9 65.9444 43.3 65.8444 42.8C65.7444 42.2 65.7444 41.7 65.8444 41.1C65.8444 40.5 66.1444 40 65.8444 39.4C65.7444 38.9 65.4444 38.3 65.8444 37.8C65.8444 37.5 65.8444 37.3 65.8444 37C65.9444 36.7 65.9444 36.4 65.9444 36.1C66.1444 35.8 66.2444 35.6 66.2444 35.3C66.2444 35.2 66.3444 35 66.3444 34.9C66.3444 34.8 66.4444 34.6 66.4444 34.5C66.5444 34.4 66.6444 34.3 66.6444 34.1C66.7444 34 66.8444 33.9 66.8444 33.8C66.8444 33.7 66.9444 33.7 66.9444 33.6C66.9444 33.5 67.0444 33.5 67.0444 33.4C67.1444 33.3 67.1444 33.2 67.2444 33C67.3444 32.9 67.3444 32.8 67.4444 32.7L67.5444 32.6C67.6444 32.6 67.6444 32.5 67.7444 32.5C67.8444 32.4 67.9444 32.3 68.0444 32.3C68.1444 32.2 68.2444 32.2 68.3444 32.1C68.3444 32 68.4444 32 68.4444 32C68.5444 32 68.5444 31.9 68.6444 31.9C68.7444 31.8 68.8444 31.8 69.0444 31.8C69.1444 31.8 69.2444 31.7 69.4444 31.7C69.5444 31.7 69.6444 31.6 69.7444 31.5C69.9444 31.4 70.2444 31.3 70.4444 31.3C70.5444 31.3 70.6444 31.2 70.7444 31.2C70.8444 31.2 70.9444 31.2 71.1444 31.2C71.2444 31.1 71.3444 31 71.4444 31C71.5444 31 71.6444 31 71.7444 31C71.9444 31 72.2444 31.2 72.4444 31.2C72.5444 31.2 72.5444 31.2 72.6444 31.2C72.7444 31.2 72.7444 31.2 72.8444 31.2C72.9444 31.2 73.0444 31.2 73.1444 31.2C73.2444 31.2 73.3444 31.2 73.4444 31.3C73.5444 31.3 73.6444 31.4 73.7444 31.5C73.8444 31.5 73.9444 31.5 74.0444 31.5C74.1444 31.5 74.2444 31.6 74.3444 31.6C74.5444 31.7 74.6444 31.9 74.8444 32C75.1444 32.2 75.5444 32.3 75.7444 32.6C75.9444 32.6 76.0444 32.8 76.1444 32.9C76.1444 33 76.2444 33 76.2444 33.1C76.2444 33.2 76.3444 33.2 76.4444 33.3C76.5444 33.5 76.6444 33.6 76.7444 33.7C76.8444 33.8 76.9444 33.9 77.0444 34C77.1444 34.1 77.2444 34.2 77.2444 34.3C77.2444 34.4 77.3444 34.4 77.3444 34.5C77.3444 34.6 77.3444 34.6 77.3444 34.7C77.3444 34.8 77.4444 34.9 77.4444 35C77.4444 35.1 77.5444 35.2 77.5444 35.3C77.5444 35.4 77.5444 35.5 77.6444 35.5C77.6444 35.6 77.6444 35.6 77.6444 35.7C77.6444 35.8 77.6444 36 77.7444 36.1C77.7444 36.3 77.7444 36.6 77.7444 36.7C77.6444 36.8 77.6444 37 77.5444 37Z" fill="#73523F"/>
<path d="M36.9444 1.9C36.9444 1.9 37.0444 1.9 37.1444 2C37.2444 2.1 37.4444 2.2 37.5444 2.4C37.6444 2.5 37.6444 2.5 37.7444 2.6C37.8444 2.7 37.8444 2.7 37.9444 2.8C37.8444 3 38.2444 2.9 38.1444 3.1C38.1444 3.2 38.2444 3.3 38.3444 3.4C38.4444 3.5 38.3444 3.7 38.5444 3.7C38.8444 3.7 38.4444 4.1 38.7444 4C39.0444 4.1 39.0444 4.3 39.1444 4.4C39.0444 4.6 39.3444 4.7 39.4444 4.8C39.3444 5.1 39.4444 5.2 39.7444 5.2C39.5444 5.5 39.6444 5.6 40.0444 5.6C40.0444 5.8 40.0444 6 40.2444 6.1C40.3444 6.2 40.5444 6.4 40.5444 6.6C40.8444 6.7 40.9444 6.8 40.8444 7.1C41.1444 7.1 41.1444 7.4 41.1444 7.6C41.1444 7.8 41.5444 7.9 41.4444 8.1L41.5444 8.2V8.3C41.5444 8.3 41.5444 8.3 41.5444 8.4C41.5444 8.5 41.5444 8.5 41.5444 8.6C41.5444 8.6 41.5444 8.7 41.6444 8.6C41.6444 8.6 41.6444 8.6 41.6444 8.5C41.6444 8.5 41.6444 8.4 41.7444 8.4C41.7444 8.4 41.7444 8.4 41.7444 8.5C41.7444 8.2 41.6444 8.4 41.8444 8.4C41.9444 8.3 41.9444 8.3 42.0444 8.2C42.1444 8.1 42.2444 8.1 42.2444 8C42.3444 7.9 42.3444 7.8 42.3444 7.7C42.3444 7.6 42.4444 7.5 42.5444 7.5C42.6444 7.4 42.7444 7.4 42.7444 7.3V7.2C42.7444 7.1 42.7444 7.1 42.7444 7C42.6444 6.9 42.7444 6.8 42.7444 6.7C42.7444 6.6 42.8444 6.5 42.8444 6.4C42.9444 6.3 42.9444 6.2 42.9444 6.1C42.9444 6 42.8444 5.9 42.9444 5.8V5.6C42.9444 5.5 42.9444 5.4 42.8444 5.3C42.8444 5.2 42.7444 5.1 42.7444 5C42.7444 4.9 42.7444 4.8 42.7444 4.7C42.5444 4.7 42.5444 4.6 42.5444 4.5C42.5444 4.4 42.6444 4.3 42.5444 4.2C42.6444 4 42.3444 3.9 42.3444 3.7C42.2444 3.6 42.2444 3.5 42.2444 3.5C42.2444 3.4 42.1444 3.3 42.0444 3.3C42.0444 3.2 41.9444 3.2 41.8444 3.1C41.7444 3.1 41.7444 3 41.7444 2.9C41.6444 2.9 41.5444 2.8 41.5444 2.8C41.5444 2.7 41.4444 2.6 41.3444 2.6C41.2444 2.6 41.2444 2.5 41.1444 2.5C41.0444 2.5 41.0444 2.4 40.9444 2.4C40.9444 2.2 40.8444 2.2 40.8444 2.2C40.7444 2.2 40.6444 2.2 40.6444 2.2C40.5444 2.1 40.3444 2.3 40.2444 2C40.1444 2 40.0444 1.8 39.8444 1.9C39.7444 1.9 39.7444 1.8 39.6444 1.7C39.5444 1.6 39.5444 1.6 39.4444 1.8C39.3444 1.8 39.3444 1.8 39.2444 1.7C39.1444 1.6 39.1444 1.6 39.0444 1.8C38.9444 2.1 38.8444 1.8 38.7444 1.8C38.6444 1.8 38.5444 1.8 38.4444 1.8C38.2444 1.8 38.0444 1.8 37.8444 1.9C37.7444 1.9 37.6444 1.9 37.5444 1.9C37.4444 1.9 37.4444 1.9 37.3444 1.9C37.2444 2 37.0444 2 36.9444 1.9C36.9444 1.8 37.0444 1.6 37.2444 1.4C37.3444 1.3 37.4444 1.3 37.4444 1.2C37.5444 1.1 37.6444 1.1 37.7444 1C38.0444 1 38.1444 1 38.3444 0.9C38.4444 0.8 38.6444 0.8 38.8444 0.8C38.9444 0.8 39.1444 0.6 39.2444 0.7C39.3444 0.7 39.5444 0.5 39.7444 0.7C39.8444 0.6 39.9444 0.6 40.0444 0.6C40.1444 0.6 40.2444 0.7 40.2444 0.7C40.4444 0.7 40.5444 0.8 40.7444 0.8C40.9444 0.7 41.0444 1 41.3444 0.9C41.4444 1 41.4444 1.1 41.5444 1.1C41.6444 1.1 41.7444 1.1 41.8444 1.1C41.9444 1.2 41.9444 1.3 42.1444 1.3C42.2444 1.3 42.3444 1.4 42.4444 1.4C42.4444 1.7 42.7444 1.7 42.9444 1.8C43.0444 1.8 43.1444 1.9 43.2444 2C43.3444 2.1 43.3444 2.2 43.4444 2.3C43.5444 2.5 43.8444 2.6 43.8444 2.9C44.0444 3 44.2444 3.3 44.2444 3.5C44.3444 3.6 44.3444 3.7 44.4444 3.8C44.4444 3.9 44.5444 4 44.5444 4.2C44.6444 4.3 44.6444 4.4 44.6444 4.6C44.6444 4.7 44.6444 4.9 44.6444 5C44.7444 5.1 44.6444 5.3 44.6444 5.4C44.6444 5.5 44.6444 5.5 44.6444 5.6C44.6444 5.7 44.6444 5.7 44.7444 5.8C44.7444 5.9 44.7444 6.1 44.7444 6.2C44.7444 6.3 44.7444 6.5 44.7444 6.6C44.6444 6.9 44.5444 7.1 44.5444 7.4C44.4444 7.4 44.4444 7.5 44.3444 7.6C44.3444 7.7 44.2444 7.7 44.2444 7.8C44.2444 7.9 44.2444 8.1 44.2444 8.2C44.2444 8.3 44.1444 8.5 44.0444 8.6C43.9444 8.7 43.8444 8.8 43.7444 8.9C43.5444 9.1 43.4444 9.4 43.1444 9.5C43.1444 9.5 43.1444 9.5 43.0444 9.6L42.9444 9.7C42.8444 9.8 42.7444 9.8 42.6444 9.9C42.4444 10 42.3444 10.1 42.1444 10.3C41.9444 10.5 41.7444 10.5 41.6444 10.6C41.4444 10.7 41.3444 10.7 41.1444 10.9L41.0444 11C40.8444 10.8 40.6444 10.3 40.5444 9.9C40.4444 9.7 40.4444 9.5 40.3444 9.3C40.3444 9.3 40.3444 9.2 40.2444 9.2C40.2444 9.2 40.2444 9.2 40.2444 9.1C40.2444 9.1 40.1444 9 40.0444 9C39.8444 8.8 39.5444 8.8 39.7444 8.4C39.5444 8.3 39.7444 8 39.4444 7.9C39.5444 7.6 39.2444 7.5 39.1444 7.4C39.0444 7.2 39.0444 7 38.8444 6.9C38.6444 6.8 38.7444 6.5 38.6444 6.4C38.4444 6.3 38.6444 6 38.4444 5.9C38.3444 5.7 38.2444 5.6 38.2444 5.5C37.8444 5.6 38.0444 5.2 38.0444 5.1C38.0444 4.9 37.6444 5 37.8444 4.7C37.5444 4.7 37.6444 4.5 37.6444 4.3C37.6444 4.1 37.4444 4.1 37.4444 3.9C37.2444 3.9 37.4444 3.6 37.3444 3.6C37.4444 3.4 37.2444 3.4 37.2444 3.3C37.1444 3.2 37.1444 3.1 37.1444 3C37.1444 2.9 37.0444 2.8 37.0444 2.8C37.0444 2.5 37.0444 2.3 36.9444 2.2C36.9444 2.1 36.9444 2 36.9444 1.9Z" fill="#73523F"/>
<path d="M35.3444 12.7C35.4444 12.6 35.5444 12.6 35.6444 12.6C35.5444 12.7 35.8444 12.5 35.6444 12.6C35.3444 12.8 35.8444 12.5 35.6444 12.6C35.4444 12.7 35.5444 12.7 35.6444 12.6C35.3444 12.8 35.4444 12.8 35.6444 12.6C35.8444 12.5 35.8444 12.5 35.6444 12.6C35.7444 12.5 35.8444 12.5 35.6444 12.6C35.5444 12.7 35.8444 12.5 35.6444 12.6C35.4444 12.7 35.5444 12.7 35.6444 12.6C35.7444 12.5 35.7444 12.6 35.6444 12.6C35.7444 12.5 35.8444 12.5 35.6444 12.6C35.1444 12.9 34.7444 13.2 34.2444 13.6C34.3444 13.5 34.3444 13.5 34.2444 13.6C34.1444 13.7 34.2444 13.5 34.2444 13.6C34.1444 13.6 34.4444 13.4 34.2444 13.6C33.9444 13.8 34.3444 13.5 34.2444 13.6C34.3444 13.5 34.2444 13.6 34.2444 13.5C34.1444 13.5 34.3444 13.4 34.2444 13.4C34.2444 13.4 34.1444 13.4 34.2444 13.3C34.1444 13.3 34.1444 13.3 34.2444 13.3C34.2444 13.3 34.2444 13.3 34.3444 13.3H34.4444C34.4444 13.3 34.4444 13.3 34.5444 13.3C34.5444 13.3 34.5444 13.3 34.4444 13.3C34.3444 13.3 34.5444 13.3 34.4444 13.3C34.3444 13.3 34.7444 13.2 34.4444 13.3C35.1444 12.9 35.2444 12.8 35.3444 12.7C35.5444 12.6 35.6444 12.5 35.8444 12.5C35.9444 12.5 36.0444 12.4 35.8444 12.5C35.7444 12.5 35.9444 12.4 35.8444 12.5C35.6444 12.6 35.7444 12.6 35.8444 12.5C35.7444 12.5 35.7444 12.6 35.7444 12.6C35.7444 12.6 35.7444 12.6 35.8444 12.6C35.6444 12.7 35.5444 12.7 35.5444 12.7C35.5444 12.7 35.4444 12.7 35.3444 12.8C35.3444 12.8 35.3444 12.8 35.2444 12.8C35.2444 12.8 35.2444 12.8 35.3444 12.8C35.5444 12.6 35.5444 12.7 35.5444 12.7C35.9444 12.4 35.7444 12.6 35.8444 12.5C35.6444 12.7 35.7444 12.6 35.8444 12.5C35.3444 12.8 34.8444 13.2 34.3444 13.5C34.2444 13.5 34.4444 13.4 34.3444 13.5C34.2444 13.6 34.4444 13.4 34.3444 13.5C34.2444 13.5 34.2444 13.6 34.3444 13.5C34.2444 13.5 34.5444 13.4 34.3444 13.5C34.2444 13.6 34.4444 13.5 34.3444 13.5C34.2444 13.6 34.5444 13.4 34.3444 13.5C34.2444 13.6 34.4444 13.5 34.3444 13.5C34.1444 13.6 34.4444 13.4 34.3444 13.5C35.1444 12.8 35.2444 12.8 35.3444 12.7Z" fill="#73523F"/>
<path d="M31.1444 5.3C31.2444 5.2 31.3444 5.2 31.4444 5.2C31.3444 5.3 31.6444 5.1 31.4444 5.2C31.1444 5.4 31.6444 5.1 31.4444 5.2C31.5444 5.2 31.5444 5.2 31.4444 5.2C31.2444 5.3 31.3444 5.3 31.4444 5.2C31.1444 5.3 31.1444 5.4 31.4444 5.2C31.6444 5.1 31.6444 5.1 31.4444 5.2C31.5444 5.1 31.6444 5.1 31.4444 5.2C31.3444 5.3 31.6444 5.1 31.4444 5.2C31.2444 5.3 31.3444 5.3 31.4444 5.2C31.5444 5.1 31.5444 5.2 31.4444 5.2C31.5444 5.1 31.6444 5.1 31.4444 5.2L29.9444 6C30.0444 5.9 30.0444 6 29.9444 6C29.7444 6.1 30.0444 6 29.9444 6C29.8444 6 30.1444 5.9 29.9444 6C29.6444 6.2 30.0444 5.9 29.9444 6C29.8444 6 30.0444 5.9 29.9444 6C29.7444 6.1 30.0444 5.9 29.9444 6C29.8444 6 30.2444 5.9 29.9444 6C30.8444 5.5 31.0444 5.4 31.1444 5.3C31.3444 5.2 31.5444 5.2 31.6444 5.2C31.5444 5.2 31.7444 5.1 31.6444 5.2C31.5444 5.3 31.5444 5.3 31.6444 5.2C31.4444 5.3 31.5444 5.2 31.6444 5.2C31.7444 5.1 31.8444 5.1 31.6444 5.2C31.4444 5.3 31.5444 5.3 31.6444 5.2C31.1444 5.5 30.6444 5.8 30.1444 6C30.0444 6 30.0444 6 30.1444 6C29.8444 6.2 30.0444 6 30.1444 6C30.0444 6 30.3444 5.9 30.1444 6C30.0444 6.1 30.2444 6 30.1444 6C30.0444 6.1 30.3444 5.9 30.1444 6C30.0444 6 30.2444 6 30.1444 6C29.9444 6.1 30.2444 5.9 30.1444 6C30.9444 5.4 31.0444 5.4 31.1444 5.3Z" fill="#73523F"/>
<path d="M13.5444 25.9C13.4444 25.9 13.3444 26 13.2444 26C13.0444 26.1 13.3444 25.9 13.2444 26C13.0444 26.1 13.5444 25.8 13.2444 26C13.1444 26 13.1444 26 13.2444 26C13.3444 25.9 13.4444 25.9 13.2444 26C13.4444 25.9 13.5444 25.8 13.2444 26C13.0444 26.1 13.0444 26.1 13.2444 26C13.0444 26.1 13.1444 26.1 13.2444 26C13.0444 26.1 13.3444 25.9 13.2444 26C13.3444 25.9 13.4444 25.9 13.2444 26C13.1444 26 13.1444 26.1 13.2444 26C13.0444 26.1 13.1444 26.1 13.2444 26L16.5444 23.9L14.0444 25C13.9444 25.1 13.9444 25.1 14.0444 25C14.0444 25.1 14.2444 24.9 14.0444 25C13.8444 25.1 14.1444 25 14.0444 25C13.9444 25.1 14.3444 24.8 14.0444 25C13.9444 25.1 14.1444 25 14.0444 25C13.9444 25.1 14.2444 24.9 14.0444 25C13.7444 25.1 14.1444 25 14.0444 25C13.8444 25.7 13.7444 25.8 13.5444 25.9C13.3444 25.9 13.2444 26 13.0444 26C12.9444 26.1 13.1444 26 13.0444 26C13.1444 25.9 13.1444 25.9 13.0444 26C13.1444 26 13.2444 25.9 13.0444 26C12.9444 26.1 12.9444 26.1 13.0444 26C13.1444 25.9 13.2444 25.9 13.0444 26C13.5444 25.7 14.0444 25.4 14.5444 25.1C14.6444 25.1 14.6444 25.1 14.5444 25.1C14.6444 25.1 14.8444 24.9 14.5444 25.1C14.3444 25.2 14.6444 25.1 14.5444 25.1C14.4444 25.1 14.6444 25 14.5444 25.1C14.3444 25.2 14.6444 25 14.5444 25.1C14.4444 25.1 14.6444 25.1 14.5444 25.1C14.4444 25.2 14.7444 25 14.5444 25.1C13.7444 25.7 13.6444 25.8 13.5444 25.9Z" fill="#73523F"/>
<path d="M14.9444 14.7C15.0444 14.6 15.3444 15 15.8444 15.7C15.9444 15.8 16.0444 15.9 16.1444 16.1C16.2444 16.2 16.3444 16.4 16.4444 16.5C16.4444 16.7 16.8444 16.7 16.7444 17C16.7444 17.2 16.9444 17.4 17.1444 17.5C17.3444 17.7 17.2444 17.9 17.5444 18.1C17.9444 18.2 17.5444 18.7 17.9444 18.7C18.1444 18.9 18.2444 19.1 18.3444 19.4C18.3444 19.7 18.6444 19.9 18.8444 20.1C18.7444 20.5 19.0444 20.7 19.3444 20.8C19.2444 21 19.2444 21.2 19.3444 21.3C19.3444 21.3 19.3444 21.4 19.4444 21.4C19.4444 21.4 19.4444 21.4 19.5444 21.4C19.6444 21.4 19.6444 21.4 19.7444 21.4C19.7444 21.4 19.7444 21.6 19.8444 21.6L20.0444 21.4H20.1444C20.2444 21.4 20.3444 21.3 20.3444 21.3C20.5444 20.9 20.8444 20.8 21.2444 20.8C21.4444 20.4 21.7444 20.3 22.1444 20.2C22.5444 20.1 22.6444 19.6 23.1444 19.6C23.4444 19.4 23.7444 19.2 24.1444 19C24.5444 18.9 24.9444 18.8 25.1444 18.4C25.4444 18.1 25.7444 17.9 26.1444 17.8C26.3444 17.4 26.7444 17.3 27.2444 17.2C27.5444 17 28.0444 16.9 28.3444 16.6C28.3444 16.6 28.4444 16.6 28.4444 16.5H28.5444C28.5444 16.5 28.5444 16.5 28.6444 16.5C28.6444 16.5 28.7444 16.4 28.6444 16.4C28.6444 16.4 28.6444 16.4 28.6444 16.3L28.4444 16L28.3444 15.9C27.9444 15.6 27.9444 15.1 27.7444 14.8C27.7444 14.3 27.2444 14.1 27.1444 13.7C26.9444 13.4 26.8444 12.9 26.5444 12.7C26.3444 12.4 26.0444 12.1 25.9444 11.7C25.4444 11.6 25.6444 11 25.3444 10.7C25.3444 10.5 25.2444 10.3 25.1444 10.2L25.0444 10C25.0444 10 25.0444 10 25.0444 9.9C25.0444 9.9 25.0444 9.8 25.0444 9.7C25.0444 9.7 24.9444 9.7 24.9444 9.8L24.8444 9.9C24.7444 10 24.5444 10.1 24.3444 10.1C24.1444 10.4 23.6444 10.3 23.4444 10.6C23.1444 10.8 22.8444 10.9 22.5444 11.1C22.1444 11 21.9444 11.4 21.7444 11.5C21.4444 11.6 21.3444 11.9 20.9444 11.9C20.6444 12 20.3444 12 20.2444 12.3C20.0444 12.5 19.5444 12.2 19.5444 12.7C19.3444 12.9 18.9444 12.7 18.8444 13C18.7444 13.3 18.4444 13.2 18.2444 13.3C18.0444 13.4 17.8444 13.5 17.6444 13.6C16.0444 14.4 15.0444 14.8 14.9444 14.7C14.8444 14.5 15.8444 13.7 17.7444 12.5C17.9444 12.4 18.0444 12.1 18.3444 12.1C18.5444 12 18.6444 11.7 18.9444 11.7C19.0444 11.3 19.3444 11.4 19.6444 11.3C19.8444 11.2 20.1444 11.1 20.3444 10.9C20.5444 10.6 20.8444 10.7 21.0444 10.4C21.3444 10.4 21.6444 10.2 21.8444 9.9C22.2444 9.9 22.3444 9.6 22.6444 9.4C23.0444 9.5 23.2444 9.1 23.5444 8.9C23.6444 8.8 23.8444 8.7 23.9444 8.6C24.2444 8.5 24.4444 8.3 24.7444 8.1C25.0444 8 25.2444 7.8 25.5444 7.7C25.7444 8 25.9444 8.3 26.0444 8.6C26.1444 8.7 26.2444 8.8 26.3444 9L26.4444 9.1V9.2L26.5444 9.3C26.6444 9.5 26.7444 9.6 26.7444 9.8C27.0444 10.1 27.1444 10.4 27.3444 10.8C27.6444 11.1 27.7444 11.5 27.9444 11.8C28.1444 12.1 28.1444 12.6 28.5444 12.8C28.7444 13.1 28.9444 13.5 29.1444 13.9C29.3444 14.3 29.5444 14.7 29.7444 15C29.7444 15.1 29.7444 15.1 29.7444 15.2V15.4C29.8444 15.6 29.9444 15.7 30.0444 15.9C30.2444 16.2 30.5444 16.5 30.7444 16.9C30.4444 17.1 30.1444 17.3 29.7444 17.5C29.5444 17.6 29.3444 17.7 29.2444 17.8H29.0444V17.9C28.6444 18.1 28.3444 18.3 27.9444 18.5C27.6444 18.8 27.1444 18.8 26.8444 19.1C26.5444 19.4 26.0444 19.4 25.8444 19.7C25.5444 20 25.2444 20.2 24.8444 20.3C24.5444 20.5 24.0444 20.5 23.8444 20.9C23.5444 21.1 23.3444 21.6 22.8444 21.4C22.5444 21.7 22.1444 21.6 21.9444 21.9C21.5444 21.8 21.3444 22.2 21.0444 22.4C20.9444 22.4 20.8444 22.5 20.8444 22.5H20.6444C20.5444 22.5 20.5444 22.6 20.4444 22.6C20.1444 22.7 19.9444 22.9 19.7444 23.1C19.5444 23.2 19.4444 23.3 19.2444 23.4C19.1444 23.2 19.0444 23 18.9444 22.8C18.8444 22.6 18.7444 22.4 18.6444 22.3C18.5444 22.2 18.4444 22.1 18.4444 22V21.7C18.4444 21.5 18.3444 21.4 18.2444 21.3C18.1444 21 17.9444 20.8 17.8444 20.5C17.3444 20.4 17.5444 20 17.4444 19.8C17.3444 19.5 16.9444 19.5 17.0444 19.1C16.6444 19 16.7444 18.7 16.7444 18.4C16.7444 18.2 16.4444 18.1 16.4444 17.8C16.1444 17.7 16.3444 17.4 16.1444 17.2C16.1444 17 15.9444 16.9 15.9444 16.7C15.8444 16.6 15.7444 16.4 15.7444 16.2C15.6444 16.1 15.6444 15.9 15.5444 15.8C15.0444 15.2 14.8444 14.7 14.9444 14.7Z" fill="#73523F"/>
<path d="M9.04444 18.1C9.14444 18 9.24444 18 9.34444 17.9C9.24444 18 9.54444 17.8 9.34444 17.9C9.14444 18.1 9.54444 17.8 9.34444 17.9C9.44444 17.9 9.44444 17.9 9.34444 17.9C9.14444 18 9.24444 18 9.34444 17.9C9.04444 18.1 9.14444 18.1 9.34444 17.9C9.54444 17.8 9.54444 17.8 9.34444 17.9C9.44444 17.8 9.54444 17.8 9.34444 17.9C9.24444 18 9.54444 17.8 9.34444 17.9C9.14444 18 9.24444 18 9.34444 17.9C9.44444 17.8 9.44444 17.9 9.34444 17.9C9.44444 17.8 9.54444 17.8 9.34444 17.9L7.84444 18.8C7.94444 18.7 7.94444 18.8 7.84444 18.8C7.74444 18.9 7.84444 18.7 7.84444 18.8C7.74444 18.8 8.04445 18.7 7.84444 18.8C7.54444 19 7.94444 18.7 7.84444 18.8C7.74444 18.8 7.94444 18.7 7.84444 18.8C7.64444 18.9 7.94444 18.7 7.84444 18.8C7.74444 18.8 8.04445 18.6 7.84444 18.8C8.84444 18.2 8.94444 18.2 9.04444 18.1C9.24444 18 9.34444 17.9 9.54444 17.9C9.44444 18 9.64444 17.8 9.54444 17.9C9.44444 18 9.44444 18 9.54444 17.9C9.34444 18 9.44444 18 9.54444 17.9C9.64444 17.8 9.64444 17.8 9.54444 17.9C9.34444 18.1 9.44444 18 9.54444 17.9C9.04444 18.2 8.54444 18.5 8.04444 18.8C7.94444 18.8 7.94444 18.8 8.04444 18.8C7.74444 19 7.94444 18.8 8.04444 18.8C7.94444 18.8 8.24444 18.7 8.04444 18.8C7.94444 18.9 8.14444 18.8 8.04444 18.8C7.94444 18.9 8.24444 18.7 8.04444 18.8C7.94444 18.9 8.14444 18.7 8.04444 18.8C7.84444 18.9 8.14444 18.7 8.04444 18.8C8.94444 18.2 8.94444 18.1 9.04444 18.1Z" fill="#73523F"/>
<path d="M3.04444 21.6C3.04444 21.6 3.04444 21.7 2.94444 21.8C2.94444 21.9 2.84444 21.9 2.84444 22C2.74444 22.1 2.74444 22.2 2.64444 22.2C2.64444 22.3 2.54444 22.3 2.44444 22.4C2.44444 22.5 2.34444 22.6 2.24444 22.6C2.04444 22.6 2.34444 22.9 2.04444 22.9C2.14444 22.9 2.04444 22.9 2.04444 23C2.04444 23.1 2.04444 23.1 2.04444 23.2C2.04444 23.3 1.84444 23.3 1.84444 23.5C1.94444 23.6 1.84444 23.6 1.74444 23.7C1.64444 23.7 1.54444 23.8 1.74444 23.9C1.74444 24 1.64444 24.1 1.64444 24.3C1.44444 24.4 1.54444 24.6 1.54444 24.7C1.44444 24.7 1.34444 24.8 1.34444 24.9C1.34444 25 1.44444 25.1 1.44444 25.1C1.24444 25.2 1.14444 25.2 1.14444 25.3C1.14444 25.4 1.24444 25.5 1.44444 25.5C1.44444 25.6 1.44444 25.7 1.44444 25.7C1.44444 25.8 1.44444 25.9 1.54444 25.9C1.54444 26 1.64444 26 1.64444 26.1C1.64444 26.2 1.64444 26.3 1.64444 26.3C1.74444 26.3 1.84444 26.4 1.84444 26.5C1.84444 26.6 1.84444 26.7 1.74444 26.8C2.04444 26.9 2.04444 27 1.94444 27.2C1.94444 27.3 2.04444 27.4 2.14444 27.4C2.14444 27.4 2.24444 27.4 2.24444 27.5V27.6C2.24444 27.7 2.34444 27.7 2.44444 27.8C2.64444 28 2.64444 28 2.74444 28.1C2.74444 28.2 2.84444 28.3 2.84444 28.4C2.94444 28.5 3.04444 28.5 3.14444 28.5C3.24444 28.5 3.34444 28.5 3.44444 28.6C3.54444 28.6 3.64444 28.7 3.64444 28.8C3.74444 28.7 3.84444 28.7 3.94444 28.8L4.14444 29C4.34444 29 4.44444 29.2 4.74444 29.1C4.84444 29.1 4.94444 29.1 5.04444 29.1C5.14444 29.1 5.24444 29.1 5.34444 29.1C5.44444 29.1 5.54444 29.2 5.64444 29.2C5.74444 29.2 5.74444 29.2 5.74444 29.2L5.84444 29.1C5.94444 28.9 6.04444 29 6.14444 29H6.24444C6.34444 29.1 6.34444 29.1 6.34444 29C6.34444 29 6.24444 28.9 6.34444 28.9C6.34444 28.9 6.34444 28.9 6.44444 28.9H6.54444C6.54444 28.9 6.54444 28.9 6.44444 28.9H6.34444C6.34444 28.9 6.34444 28.9 6.34444 28.8C6.24444 28.8 6.24444 28.8 6.24444 28.8V28.7C6.24444 28.6 6.24444 28.4 6.14444 28.4C6.14444 28.1 5.94444 28 5.84444 27.8C5.64444 27.7 5.74444 27.4 5.54444 27.3C5.54444 27 5.34444 27 5.34444 26.7C5.04444 26.6 5.24444 26.3 5.04444 26.2C5.04444 26 4.94444 25.9 4.84444 25.7C5.04444 25.4 4.74444 25.4 4.64444 25.2C4.54444 25 4.34444 25 4.44444 24.8C4.34444 24.6 4.44444 24.4 4.24444 24.4C4.04444 24.3 4.44444 23.9 3.94444 24C3.84444 23.9 4.04444 23.6 3.74444 23.6C3.44444 23.6 3.64444 23.4 3.54444 23.2C3.54444 23.1 3.44444 23 3.44444 22.9C3.34444 22.6 3.24444 22.3 3.14444 22.1C3.14444 22 3.04444 21.9 3.04444 21.8C3.04444 21.7 3.04444 21.6 3.04444 21.6C3.14444 21.6 3.24444 21.6 3.34444 21.6C3.14444 21.6 3.04444 21.6 3.04444 21.6C3.04444 21.6 3.04444 21.5 3.14444 21.4L3.24444 21.3L3.44444 21.5C3.54444 21.6 3.54444 21.6 3.64444 21.7C3.74444 21.8 3.84444 21.9 3.94444 22C4.14444 22.2 4.34444 22.5 4.64444 22.9C4.74444 23 4.94444 23 4.84444 23.2C4.94444 23.3 5.14444 23.4 5.04444 23.5C5.34444 23.5 5.24444 23.7 5.34444 23.9C5.44444 24 5.44444 24.2 5.64444 24.3C5.84444 24.4 5.74444 24.6 5.94444 24.7C5.64444 24.8 5.84444 24.9 6.04444 25C5.94444 25.2 6.24444 25.3 6.34444 25.5C6.24444 25.8 6.44444 25.9 6.64444 26C6.84444 26.1 6.84444 26.4 6.94444 26.5C7.04444 26.7 7.24444 26.8 7.24444 27C7.44444 27.1 7.54444 27.3 7.54444 27.5C7.64444 27.6 7.64444 27.7 7.74444 27.8V28C7.94444 28 8.04444 28.1 8.04444 28.2C8.24444 28.4 8.34444 28.5 8.44444 28.7C8.54444 28.9 8.64444 29 8.74444 29.2C8.84444 29.3 8.84444 29.4 8.94444 29.4C8.84444 29.5 8.64444 29.5 8.44444 29.6C8.34444 29.7 8.24444 29.7 8.14444 29.9C7.94444 30 7.84444 30.1 7.64444 30.2C7.44444 30.3 7.24444 30.4 7.04444 30.5L6.74444 30.6C6.64444 30.6 6.64444 30.6 6.54444 30.6C6.44444 30.6 6.24444 30.7 6.14444 30.7C6.04444 30.6 5.94444 30.6 5.94444 30.6C5.84444 30.6 5.84444 30.6 5.74444 30.6C5.64444 30.6 5.44444 30.7 5.34444 30.8C5.24444 30.8 5.04444 30.8 4.94444 30.8C4.84444 30.8 4.64444 30.7 4.54444 30.7C4.24444 30.7 3.94444 30.6 3.74444 30.5C3.64444 30.5 3.64444 30.5 3.54444 30.5C3.44444 30.5 3.44444 30.4 3.34444 30.4C3.24444 30.3 3.14444 30.3 2.94444 30.2C2.84444 30.2 2.64444 30.1 2.54444 30C2.44444 29.9 2.34444 29.8 2.24444 29.8C2.14444 29.8 1.94444 29.7 1.84444 29.6C1.74444 29.5 1.64444 29.4 1.64444 29.3C1.54444 29.2 1.54444 29.1 1.44444 29C1.34444 28.9 1.34444 28.8 1.14444 28.8C1.14444 28.8 1.04444 28.7 0.944444 28.7C0.844444 28.7 0.844444 28.6 0.744444 28.6C0.644444 28.5 0.544444 28.4 0.644444 28.2C0.544444 28.1 0.544444 28 0.544444 27.9C0.544444 27.8 0.544444 27.7 0.344444 27.6C0.444444 27.4 0.344444 27.3 0.344444 27.2C0.244444 27.1 0.144444 27 0.144444 26.9C0.144444 26.8 0.144444 26.7 0.144444 26.6C0.144444 26.5 0.144444 26.4 0.0444444 26.3C0.0444444 26 0.0444444 25.9 0.0444444 25.8C0.0444444 25.7 0.144444 25.6 0.0444444 25.5C-0.0555556 25.4 0.0444444 25.3 0.0444444 25.2C0.144444 25.1 0.144444 25 0.0444444 24.9C0.0444444 24.8 0.0444444 24.7 0.0444444 24.6C0.0444444 24.5 0.0444444 24.4 0.144444 24.3C-0.0555556 24.2 0.0444444 24.1 0.0444444 24C0.144444 23.9 0.244444 23.9 0.244444 23.8C0.344444 23.7 0.244444 23.6 0.244444 23.5C0.244444 23.4 0.244444 23.3 0.444444 23.3C0.344444 23.2 0.344444 23.1 0.444444 23C0.744444 23 0.844444 23 0.944444 22.9C1.04444 22.9 1.04444 22.6 1.24444 22.6C1.24444 22.5 1.24444 22.4 1.34444 22.4C1.44444 22.4 1.54444 22.4 1.54444 22.3C1.74444 22.3 1.74444 22.1 1.84444 22.1C1.84444 22 1.94444 21.9 2.14444 21.9C2.24444 21.8 2.34444 21.8 2.34444 21.8C2.44444 21.7 2.54444 21.7 2.64444 21.7C2.74444 21.7 2.84444 21.6 2.84444 21.6C2.94444 21.5 3.04444 21.5 3.04444 21.6Z" fill="#73523F"/>
<path d="M14.0444 13C14.0444 13 13.8444 12.9 13.7444 12.8C13.5444 12.6 13.3444 12.4 12.9444 12.2C12.8444 12.1 12.6444 12.1 12.5444 12C12.3444 12 12.2444 11.9 12.0444 11.9C11.9444 11.8 11.8444 11.8 11.7444 11.9C11.6444 11.9 11.5444 12 11.4444 11.8C11.2444 11.7 11.0444 11.8 10.8444 11.8C10.6444 11.9 10.3444 11.8 10.2444 12C10.1444 12.2 10.0444 12.1 9.94444 12.1C9.84444 12.1 9.64445 12.1 9.64445 12.3C9.44445 12.5 9.24445 12.6 9.14445 12.8C8.94445 12.8 8.94445 12.9 8.84445 13.1C8.74444 13.2 8.74444 13.4 8.74444 13.5C8.44444 13.6 8.44444 14 8.54445 14.3C8.14445 14.5 8.24444 14.9 8.54445 15.1C8.54445 15.2 8.54445 15.4 8.64445 15.5C8.64445 15.6 8.74444 15.8 8.84445 15.9C8.94445 16 9.04445 16.2 9.14445 16.3C9.24445 16.5 9.34444 16.6 9.44444 16.8C9.84444 17 10.0444 17.4 10.0444 17.8C10.4444 18 10.5444 18.4 10.6444 18.8C10.7444 19.2 11.2444 19.4 11.2444 19.9C11.4444 20.3 11.7444 20.6 11.9444 21C12.0444 21.4 12.2444 21.9 12.6444 22.1C12.9444 22.5 13.2444 22.8 13.3444 23.3C13.8444 23.6 13.9444 24 14.0444 24.5C14.3444 24.9 14.3444 25.4 14.7444 25.7C14.9444 26.1 15.3444 26.5 15.4444 26.9C15.5444 27.2 15.7444 27.6 16.1444 27.7C16.3444 27.7 16.4444 27.8 16.6444 27.9C16.7444 28 16.9444 28.1 17.1444 28.1C17.2444 28.3 17.4444 28.3 17.6444 28.2C17.8444 28.2 17.9444 28.1 18.1444 28.1C18.3444 28.1 18.4444 28 18.6444 28C18.8444 28 18.9444 27.9 19.0444 27.7C19.3444 27.5 19.4444 27.2 19.7444 27C19.6444 26.8 19.7444 26.6 19.8444 26.5C19.9444 26.4 20.1444 26.2 20.1444 26.1C20.2444 26 20.2444 25.8 20.2444 25.6C20.2444 25.4 20.1444 25.3 20.1444 25.1C20.0444 25.2 20.0444 25.1 20.0444 24.9C20.0444 24.7 19.9444 24.6 19.8444 24.5C19.6444 24.1 19.3444 23.9 19.2444 23.5C18.8444 23.3 19.0444 22.8 18.7444 22.5C18.5444 22.2 18.3444 21.9 18.2444 21.5C18.3444 21 17.9444 20.9 17.7444 20.6C17.6444 20.3 17.2444 20.1 17.2444 19.7C17.1444 19.4 17.0444 19.1 16.8444 18.9C16.6444 18.7 16.9444 18.2 16.4444 18.1C16.2444 17.9 16.4444 17.5 16.0444 17.4C15.7444 17.3 15.8444 16.9 15.6444 16.7C15.5444 16.5 15.4444 16.3 15.3444 16.1C14.3444 14.2 13.9444 13.1 14.0444 13C14.2444 12.9 15.0444 14.1 16.4444 16.2C16.5444 16.4 16.8444 16.5 16.8444 16.9C16.9444 17.1 17.2444 17.3 17.2444 17.6C17.6444 17.7 17.5444 18.1 17.7444 18.4C17.9444 18.7 17.9444 19 18.2444 19.2C18.5444 19.4 18.5444 19.8 18.7444 20C18.7444 20.4 18.9444 20.7 19.2444 20.9C19.2444 21.3 19.6444 21.5 19.8444 21.8C19.8444 22.2 20.1444 22.5 20.4444 22.8C20.7444 23.1 20.8444 23.5 21.0444 23.8C21.1444 24 21.2444 24.2 21.3444 24.5C21.4444 24.7 21.5444 25 21.5444 25.2C21.7444 25.7 21.7444 26.3 21.5444 26.8C21.5444 27.3 21.2444 27.8 20.9444 28.3C20.8444 28.6 20.6444 28.8 20.4444 29C20.2444 29.2 20.0444 29.4 19.7444 29.5C19.5444 29.7 19.2444 29.8 18.9444 29.8C18.6444 29.9 18.4444 29.9 18.1444 30.1C17.5444 30.2 16.9444 30.2 16.4444 30.1C15.8444 29.9 15.3444 29.7 14.8444 29.4C14.6444 29.1 14.5444 28.9 14.2444 28.7C14.0444 28.5 13.8444 28.3 13.6444 28.1C13.3444 27.7 13.1444 27.3 12.9444 26.9C12.6444 26.5 12.4444 26.1 12.2444 25.7C11.9444 25.3 11.8444 24.8 11.5444 24.5C11.2444 24.2 11.2444 23.6 10.8444 23.3C10.5444 23 10.2444 22.6 10.1444 22.1C9.94445 21.7 9.94444 21.2 9.54445 21C9.24444 20.7 8.84444 20.5 8.94444 19.9C8.64444 19.6 8.74444 19.1 8.34445 18.8C8.34445 18.3 7.94444 18.1 7.74444 17.8C7.64444 17.6 7.64444 17.4 7.54444 17.3C7.44444 17.1 7.34444 17 7.24444 16.8C7.04444 16.6 7.04444 16.4 6.94444 16.2C6.94444 16 6.94444 15.8 6.84444 15.5C6.74444 15.3 6.74444 15.1 6.84444 14.9C7.04444 14.4 7.14444 14.3 7.04444 14C7.14444 13.6 7.24444 13.2 7.44444 12.9C7.34444 12.6 7.44444 12.5 7.64444 12.3C7.84444 12.2 7.94445 12.1 8.14445 12C8.24445 11.9 8.34444 11.7 8.44444 11.6C8.54445 11.5 8.74444 11.3 8.94444 11.4C9.04445 11.2 9.14445 11.1 9.34445 11.1C9.54445 11.1 9.64445 11.1 9.84445 11.1C10.0444 11.1 10.1444 11 10.2444 11C10.3444 10.9 10.5444 10.9 10.6444 11C10.7444 10.9 10.9444 10.9 11.0444 11C11.1444 11 11.3444 11.1 11.4444 11.1C11.6444 11.3 11.9444 11.2 12.1444 11.3C12.3444 11.3 12.5444 11.4 12.7444 11.6C12.9444 11.7 13.0444 11.8 13.2444 11.9C13.6444 12.2 13.8444 12.6 13.9444 12.8C14.0444 12.8 14.1444 13 14.0444 13Z" fill="#73523F"/>
<path d="M3.44444 21.9C3.44444 21.9 3.34444 21.9 3.14444 21.7C3.04444 21.5 2.84444 21.3 2.74444 20.9C2.74444 20.8 2.64444 20.6 2.64444 20.5C2.64444 20.3 2.54444 20.2 2.64444 20C2.74444 19.9 2.64444 19.8 2.64444 19.7C2.64444 19.6 2.54444 19.5 2.74444 19.4C2.84444 19.2 2.84444 19 2.94444 18.8C2.94444 18.6 3.24444 18.4 3.24444 18.2C3.24444 18 3.34444 18 3.44444 17.9C3.54444 17.8 3.74444 17.8 3.64444 17.6C3.74444 17.4 4.04444 17.2 4.24444 17C4.44444 17 4.54444 16.9 4.64444 16.8C4.74444 16.7 4.84444 16.6 5.04444 16.5C5.44444 16.6 5.64444 16.4 5.94444 16.2C6.34444 16.5 6.54444 16.4 6.94444 16.2C7.24444 16.2 7.54444 16.4 7.94444 16.4C8.24444 16.5 8.64444 16.6 8.94444 16.9C9.34444 16.9 9.74444 17.2 9.74444 17.7C9.94444 17.8 10.1444 17.9 10.2444 18.1C10.3444 18.3 10.3444 18.4 10.3444 18.6C10.3444 19 10.8444 19.1 10.8444 19.5C11.0444 19.8 11.2444 20.1 11.3444 20.4C11.4444 20.8 11.5444 21.1 11.8444 21.3C12.0444 21.6 12.3444 21.8 12.3444 22.2C12.7444 22.4 12.8444 22.8 12.9444 23.2C13.1444 23.5 13.1444 23.9 13.5444 24.2C13.7444 24.5 14.0444 24.8 14.1444 25.2C14.3444 25.7 14.4444 26.1 14.6444 26.5C14.7444 26.7 14.7444 27 14.7444 27.2C14.7444 27.4 14.6444 27.7 14.6444 27.9C14.4444 28.1 14.4444 28.3 14.4444 28.6C14.4444 28.8 14.3444 29.1 14.2444 29.2C14.1444 29.4 14.0444 29.6 13.8444 29.8C13.7444 30 13.5444 30.1 13.4444 30.3C13.1444 30.6 12.8444 31 12.3444 31.1C12.2444 31.4 12.0444 31.4 11.7444 31.5C11.5444 31.5 11.2444 31.5 11.0444 31.5C10.8444 31.5 10.6444 31.5 10.4444 31.5C10.2444 31.5 10.0444 31.6 9.84444 31.5C9.64444 31.5 9.44444 31.4 9.24444 31.3C9.14444 31 8.94444 31 8.74444 31C8.54444 30.9 8.34444 30.9 8.24444 30.8C8.04444 30.7 7.94444 30.6 7.84444 30.4C7.64444 30.4 7.54444 30.2 7.44444 30C7.34444 29.8 7.24444 29.7 7.14444 29.6C7.04444 29.5 7.04444 29.5 6.94444 29.4C6.94444 29.3 6.84444 29.2 6.84444 29.2C6.74444 29.1 6.74444 28.9 6.64444 28.8C6.74444 28.4 6.44444 28.3 6.24444 28.1C6.14444 27.9 5.84444 27.7 5.84444 27.4C5.74444 27.2 5.74444 26.9 5.54444 26.7C5.34444 26.4 5.64444 26 5.14444 26C4.94444 25.8 5.14444 25.5 4.84444 25.4C4.54444 25.3 4.64444 25 4.54444 24.8C4.44444 24.6 4.34444 24.5 4.34444 24.3C3.64444 22.9 3.34444 22 3.44444 21.9C3.64444 21.8 4.34444 22.7 5.44444 24.4C5.54444 24.6 5.84444 24.6 5.74444 24.9C5.84444 25.1 6.14444 25.2 6.14444 25.5C6.54444 25.6 6.44444 25.9 6.54444 26.1C6.64444 26.3 6.74444 26.6 6.94444 26.7C7.24444 26.8 7.14444 27.2 7.34444 27.4C7.34444 27.7 7.54444 27.9 7.74444 28.1C7.74444 28.3 7.84444 28.4 7.94444 28.5C8.04445 28.5 8.04444 28.5 8.14444 28.6L8.24444 28.7C8.24444 28.9 8.24444 29 8.34444 29.1C8.44444 29.2 8.54444 29.2 8.74444 29.2C8.84444 29.2 8.94444 29.3 9.04444 29.4C9.14444 29.5 9.24444 29.5 9.34444 29.6C9.54444 29.7 9.84444 29.7 10.0444 29.8C10.3444 29.7 10.5444 29.7 10.8444 29.8C11.0444 29.7 11.3444 29.7 11.5444 29.5C11.7444 29.3 12.0444 29.2 12.1444 29C12.2444 28.9 12.3444 28.8 12.4444 28.7C12.5444 28.6 12.6444 28.5 12.5444 28.3C12.6444 28 12.7444 27.8 12.7444 27.5C12.8444 27.2 12.8444 26.9 12.7444 26.7C12.8444 26.5 12.8444 26.4 12.7444 26.2C12.6444 26.1 12.5444 26 12.4444 25.9C12.1444 25.6 12.0444 25.3 11.8444 24.9C11.6444 24.6 11.4444 24.3 11.2444 23.9C10.9444 23.6 10.9444 23.2 10.7444 22.9C10.4444 22.6 10.4444 22.2 10.2444 22C10.0444 21.7 9.74444 21.4 9.74444 21.1C9.54444 20.8 9.64444 20.4 9.24444 20.2C9.04444 19.9 8.54444 19.8 8.74444 19.3C8.64444 19.2 8.54444 19 8.54444 18.9C8.54444 18.8 8.44444 18.6 8.34444 18.6C8.34444 18.4 8.24444 18.3 8.14444 18.2C8.04444 18.1 7.94444 18.1 7.84444 18C7.64444 17.8 7.54444 17.6 7.24444 17.6C7.14444 17.6 7.04444 17.6 6.94444 17.5C6.84444 17.4 6.74444 17.4 6.64444 17.4C6.54444 17.5 6.44444 17.4 6.34444 17.4C6.24444 17.4 6.14444 17.3 6.04444 17.4C5.84444 17.4 5.64444 17.5 5.44444 17.5C5.44444 17.7 5.34444 17.8 5.24444 17.8C5.14444 17.8 5.04444 17.8 4.94444 17.8C4.84444 17.8 4.84444 17.9 4.74444 18C4.64444 18.1 4.64444 18.1 4.44444 18.1C4.44444 18.3 4.44444 18.3 4.34444 18.4C4.24444 18.4 4.14444 18.5 4.04444 18.5C3.94444 18.6 3.94444 18.6 3.94444 18.7C3.94444 18.8 3.94444 18.9 3.74444 18.9C3.84444 19 3.74444 19.1 3.64444 19.1C3.54444 19.2 3.54444 19.2 3.54444 19.3C3.34444 19.4 3.44444 19.6 3.44444 19.7C3.44444 19.8 3.44444 20 3.44444 20.1C3.44444 20.2 3.44444 20.4 3.44444 20.5C3.44444 20.8 3.54444 21.1 3.54444 21.3C3.44444 21.8 3.44444 21.9 3.44444 21.9Z" fill="#73523F"/>
<path d="M24.2444 7.1C24.2444 7.1 24.0444 7 23.9444 6.8C23.8444 6.6 23.6444 6.2 23.5444 5.7C23.5444 5.5 23.4444 5.3 23.4444 5.1C23.4444 4.9 23.4444 4.7 23.4444 4.5C23.5444 4.4 23.5444 4.3 23.4444 4.1C23.4444 4 23.4444 3.8 23.5444 3.8C23.7444 3.6 23.7444 3.3 23.9444 3.1C24.0444 2.8 24.3444 2.7 24.5444 2.4C24.5444 2.2 24.7444 2.2 24.9444 2.1C25.1444 2.1 25.2444 2 25.3444 1.8C25.6444 1.6 25.9444 1.5 26.3444 1.4C26.5444 1.5 26.7444 1.4 26.8444 1.4C27.0444 1.4 27.2444 1.3 27.4444 1.3C27.8444 1.6 28.1444 1.5 28.6444 1.5C28.9444 2 29.2444 2.1 29.7444 2.1C29.9444 2.2 30.0444 2.4 30.2444 2.6C30.3444 2.8 30.5444 2.9 30.7444 3.1C30.8444 3.2 30.8444 3.3 30.9444 3.4C31.0444 3.5 31.0444 3.6 31.1444 3.6C31.2444 3.8 31.3444 3.9 31.4444 4.1C31.8444 4.3 32.0444 4.7 32.0444 5.1C32.4444 5.3 32.5444 5.7 32.6444 6.1C32.7444 6.5 33.2444 6.7 33.2444 7.2C33.4444 7.6 33.7444 7.9 33.9444 8.3C34.0444 8.7 34.2444 9.2 34.6444 9.4C34.9444 9.8 35.2444 10.1 35.3444 10.6C35.8444 10.9 35.9444 11.3 36.0444 11.8C36.3444 12.2 36.3444 12.7 36.7444 13C36.9444 13.4 37.3444 13.8 37.4444 14.2C37.6444 14.8 37.7444 15.3 37.9444 15.9C38.0444 16.2 38.0444 16.5 37.9444 16.8C37.8444 17.1 37.7444 17.4 37.7444 17.6C37.5444 17.8 37.4444 18.1 37.3444 18.4C37.2444 18.7 37.1444 18.9 36.9444 19.1C36.7444 19.3 36.5444 19.5 36.3444 19.6C36.1444 19.8 35.8444 19.9 35.6444 20.1C35.1444 20.4 34.6444 20.6 34.0444 20.5C33.7444 20.7 33.4444 20.7 33.2444 20.6C32.9444 20.5 32.7444 20.4 32.4444 20.3C32.2444 20.1 31.9444 20.1 31.7444 19.9C31.5444 19.8 31.2444 19.7 31.0444 19.5C30.8444 19.4 30.6444 19.2 30.5444 18.9C30.4444 18.7 30.2444 18.5 30.1444 18.3C29.9444 17.9 29.6444 17.7 29.5444 17.3C29.1444 17.1 29.3444 16.6 29.0444 16.3C28.8444 16 28.6444 15.7 28.5444 15.3C28.6444 14.8 28.2444 14.7 28.0444 14.4C27.9444 14.1 27.5444 13.9 27.5444 13.5C27.4444 13.2 27.3444 12.9 27.1444 12.7C26.9444 12.5 27.2444 12 26.7444 11.9C26.5444 11.7 26.7444 11.3 26.3444 11.2C26.0444 11.1 26.1444 10.7 25.9444 10.5C25.8444 10.3 25.7444 10.1 25.6444 9.9C24.6444 8.2 24.1444 7.2 24.2444 7.1C24.4444 7 25.2444 8.2 26.6444 10.3C26.7444 10.5 27.0444 10.6 27.0444 11C27.1444 11.2 27.4444 11.4 27.5444 11.7C27.9444 11.8 27.8444 12.2 28.0444 12.5C28.2444 12.8 28.2444 13.1 28.5444 13.3C28.8444 13.5 28.8444 13.9 29.0444 14.1C29.0444 14.5 29.2444 14.8 29.6444 15C29.6444 15.4 30.0444 15.6 30.2444 15.9C30.2444 16.3 30.5444 16.6 30.8444 16.9C31.1444 17.2 31.2444 17.6 31.4444 17.9C31.5444 18.2 31.8444 18.4 32.0444 18.6C32.3444 18.7 32.6444 18.8 32.8444 19C33.1444 19 33.4444 19.1 33.8444 19.1C34.0444 19 34.1444 19 34.3444 19C34.5444 19 34.6444 18.9 34.8444 18.8C34.9444 18.7 35.1444 18.7 35.3444 18.6C35.5444 18.5 35.6444 18.4 35.6444 18.2C35.8444 17.9 36.0444 17.7 36.1444 17.3C36.2444 17 36.3444 16.6 36.2444 16.3C36.3444 16.1 36.3444 15.9 36.2444 15.7C36.1444 15.5 36.0444 15.4 35.8444 15.3C35.5444 14.9 35.3444 14.5 35.1444 14.1C34.8444 13.7 34.6444 13.3 34.4444 12.9C34.1444 12.5 34.0444 12 33.7444 11.7C33.4444 11.4 33.4444 10.8 33.0444 10.5C32.7444 10.2 32.4444 9.8 32.3444 9.3C32.1444 8.9 32.1444 8.4 31.7444 8.2C31.5444 7.7 31.0444 7.5 31.1444 7C30.8444 6.7 30.9444 6.2 30.5444 5.9C30.5444 5.4 30.1444 5.2 29.9444 4.9C29.8444 4.7 29.8444 4.5 29.7444 4.4C29.6444 4.2 29.5444 4.1 29.4444 4C29.3444 3.9 29.2444 3.8 29.1444 3.7C29.0444 3.6 28.9444 3.4 28.8444 3.4C28.6444 3.4 28.6444 3.3 28.5444 3.1C28.4444 3 28.3444 2.9 28.1444 2.9C27.9444 2.8 27.6444 2.8 27.3444 2.7C27.2444 2.9 27.0444 2.9 26.9444 2.8C26.8444 2.8 26.6444 2.7 26.5444 2.7C26.4444 2.7 26.3444 2.8 26.2444 2.9C26.1444 3 26.0444 3 25.8444 2.9C25.8444 3.1 25.7444 3.1 25.6444 3.2C25.5444 3.2 25.4444 3.2 25.2444 3.3C25.1444 3.3 25.0444 3.4 25.0444 3.5C24.9444 3.6 24.9444 3.7 24.8444 3.7C24.8444 3.8 24.7444 3.9 24.7444 4C24.6444 4.1 24.5444 4.1 24.5444 4.2C24.3444 4.3 24.4444 4.6 24.3444 4.7C24.3444 4.9 24.3444 5 24.2444 5.2C24.2444 5.4 24.2444 5.5 24.2444 5.7C24.2444 6.1 24.3444 6.5 24.3444 6.7C24.3444 6.9 24.3444 7.1 24.2444 7.1Z" fill="#73523F"/>
<path d="M37.3444 2.3C37.3444 2.3 37.2444 2.3 37.0444 2.1C36.9444 2 36.8444 2 36.7444 1.9C36.6444 1.9 36.6444 1.8 36.5444 1.8C36.5444 1.8 36.4444 1.8 36.4444 1.7C36.4444 1.7 36.3444 1.7 36.3444 1.6C36.3444 1.6 36.2444 1.5 36.1444 1.5C36.0444 1.5 36.0444 1.4 35.9444 1.4C35.8444 1.4 35.8444 1.4 35.7444 1.3C35.6444 1.3 35.6444 1.2 35.5444 1.2C35.5444 1.1 35.4444 1.1 35.3444 1.2C35.2444 1.2 35.1444 1.2 35.1444 1.1C35.0444 1 35.0444 1 34.9444 1C34.8444 1 34.7444 1 34.6444 1C34.4444 1 34.3444 0.9 34.1444 1C34.0444 1.1 33.9444 1.1 33.8444 1C33.7444 1 33.6444 0.9 33.5444 1.1C33.3444 1.2 33.1444 1.3 33.0444 1.3C32.9444 1.3 32.8444 1.3 32.7444 1.4C32.6444 1.5 32.6444 1.6 32.5444 1.7C32.4444 1.7 32.3444 1.7 32.3444 1.7C32.2444 1.7 32.2444 1.8 32.2444 1.8C32.1444 1.9 32.1444 2 32.1444 2.2C31.9444 2.2 31.8444 2.2 31.7444 2.4C31.7444 2.5 31.7444 2.7 31.8444 2.8C31.8444 2.9 31.8444 2.9 31.7444 3C31.7444 3.1 31.6444 3.1 31.6444 3.2C31.5444 3.3 31.5444 3.4 31.6444 3.6C31.6444 3.8 31.6444 4.1 31.6444 4.3C31.9444 4.5 31.9444 4.7 31.8444 5C32.0444 5.1 32.0444 5.2 32.1444 5.3C32.2444 5.4 32.2444 5.6 32.2444 5.8C32.2444 6.2 32.7444 6.3 32.7444 6.7C32.9444 7 33.1444 7.3 33.2444 7.6C33.3444 8 33.4444 8.3 33.7444 8.5C33.9444 8.8 34.2444 9 34.2444 9.4C34.6444 9.6 34.7444 10 34.8444 10.3C35.0444 10.6 35.0444 11 35.4444 11.3C35.6444 11.6 35.9444 11.9 36.0444 12.3C36.1444 12.6 36.2444 12.9 36.5444 13C36.7444 13 36.8444 13.1 36.9444 13.2C37.0444 13.2 37.0444 13.3 37.1444 13.3C37.2444 13.3 37.2444 13.4 37.3444 13.4C37.3444 13.5 37.4444 13.5 37.5444 13.6H37.7444C37.8444 13.6 38.0444 13.5 38.1444 13.6C38.2444 13.6 38.2444 13.6 38.3444 13.6C38.4444 13.6 38.4444 13.6 38.5444 13.6C38.6444 13.6 38.6444 13.6 38.7444 13.6C38.8444 13.6 38.8444 13.6 38.9444 13.5C39.2444 13.4 39.4444 13.2 39.6444 13.2C39.6444 13 39.7444 12.9 39.8444 12.9C39.9444 12.9 40.1444 12.8 40.1444 12.7C40.3444 12.7 40.3444 12.5 40.4444 12.4C40.4444 12.3 40.5444 12.2 40.5444 12C40.5444 11.9 40.6444 11.8 40.7444 11.7C40.8444 11.6 40.8444 11.5 40.7444 11.3C40.7444 11.2 40.7444 11.1 40.7444 10.9C40.7444 10.8 40.7444 10.8 40.7444 10.7C40.7444 10.6 40.7444 10.6 40.7444 10.5C40.6444 10.4 40.6444 10.4 40.6444 10.3C40.6444 10.2 40.6444 10.2 40.6444 10.1C40.6444 10 40.6444 9.8 40.5444 9.8C40.5444 9.7 40.4444 9.7 40.4444 9.6C40.4444 9.5 40.4444 9.5 40.3444 9.4C40.2444 9.3 40.2444 9.1 40.1444 9C40.2444 8.6 39.9444 8.5 39.7444 8.3C39.6444 8.1 39.3444 7.9 39.3444 7.6C39.2444 7.4 39.2444 7.1 39.0444 6.9C38.8444 6.7 39.1444 6.3 38.7444 6.3C38.5444 6.1 38.7444 5.8 38.4444 5.7C38.1444 5.6 38.2444 5.3 38.1444 5.1C38.0444 4.9 37.9444 4.8 37.9444 4.6C37.4444 3.3 37.1444 2.4 37.3444 2.3C37.5444 2.2 38.2444 3.1 39.3444 4.8C39.3444 5 39.6444 5 39.6444 5.3C39.7444 5.5 40.0444 5.6 40.0444 5.9C40.4444 6 40.3444 6.3 40.4444 6.5C40.5444 6.7 40.6444 7 40.8444 7.1C41.1444 7.2 41.0444 7.6 41.2444 7.8C41.2444 8.1 41.4444 8.3 41.6444 8.5C41.6444 8.7 41.7444 8.8 41.8444 8.9C41.8444 8.9 41.9444 9 42.0444 9.1C42.0444 9.1 42.0444 9.2 42.1444 9.3C42.0444 9.5 42.1444 9.7 42.2444 9.8C42.2444 9.9 42.3444 10 42.3444 10C42.3444 10.1 42.4444 10.2 42.4444 10.3C42.4444 10.4 42.5444 10.5 42.5444 10.6C42.5444 10.7 42.5444 10.8 42.5444 10.9C42.5444 11.1 42.5444 11.3 42.5444 11.5C42.5444 11.7 42.4444 11.9 42.4444 12.1C42.4444 12.3 42.3444 12.5 42.2444 12.7C42.2444 12.9 42.1444 13.1 42.0444 13.3C41.9444 13.5 41.8444 13.6 41.6444 13.8C41.4444 14.2 41.0444 14.4 40.6444 14.7C40.5444 14.8 40.4444 14.8 40.3444 14.9C40.2444 15 40.1444 15 40.0444 15C39.9444 15 39.8444 15.1 39.7444 15.1C39.6444 15.1 39.5444 15.2 39.4444 15.2C39.3444 15.2 39.2444 15.3 39.1444 15.3C39.0444 15.3 38.9444 15.3 38.8444 15.3C38.7444 15.3 38.6444 15.3 38.5444 15.3C38.4444 15.3 38.3444 15.3 38.2444 15.4C37.7444 15.4 37.3444 15.2 36.9444 15.1C36.5444 14.9 36.1444 14.6 35.7444 14.4C35.7444 14.3 35.6444 14.2 35.5444 14.1C35.4444 14 35.4444 13.9 35.3444 13.8C35.1444 13.6 35.0444 13.5 34.8444 13.3C34.5444 13 34.4444 12.7 34.2444 12.3C34.0444 12 33.8444 11.7 33.6444 11.3C33.3444 11 33.3444 10.6 33.1444 10.3C32.8444 10 32.8444 9.6 32.6444 9.4C32.4444 9.1 32.1444 8.8 32.1444 8.5C31.9444 8.2 32.0444 7.8 31.6444 7.6C31.4444 7.3 30.9444 7.2 31.1444 6.7C31.0444 6.6 30.9444 6.4 30.9444 6.3C30.8444 6.1 30.8444 5.9 30.6444 5.8C30.7444 5.6 30.6444 5.4 30.5444 5.2C30.5444 5.1 30.4444 5 30.4444 4.9C30.4444 4.8 30.3444 4.7 30.3444 4.6C30.3444 4.5 30.3444 4.4 30.3444 4.3C30.3444 4.2 30.3444 4.1 30.3444 4C30.3444 3.8 30.3444 3.6 30.3444 3.5C30.3444 3.3 30.3444 3.1 30.4444 3C30.4444 2.9 30.5444 2.8 30.5444 2.8C30.5444 2.7 30.6444 2.6 30.6444 2.6C30.6444 2.4 30.7444 2.3 30.9444 2.2C31.0444 2.1 31.2444 2 31.2444 1.8C31.3444 1.7 31.4444 1.6 31.5444 1.4C31.6444 1.3 31.6444 1.3 31.7444 1.2C31.8444 1.2 31.8444 1.1 31.9444 1.1C31.9444 0.9 32.0444 0.8 32.2444 0.7C32.4444 0.7 32.5444 0.7 32.7444 0.6C32.8444 0.6 32.9444 0.5 33.1444 0.4C33.2444 0.3 33.4444 0.3 33.5444 0.4C33.4444 0 33.6444 0 33.7444 0C33.8444 0 34.0444 0.1 34.1444 0.1C34.3444 0.2 34.6444 0 34.8444 0.2C34.9444 0.1 35.0444 0.2 35.1444 0.2C35.2444 0.3 35.3444 0.3 35.4444 0.3C35.6444 0.5 35.8444 0.4 35.9444 0.5C36.0444 0.5 36.1444 0.6 36.1444 0.6C36.2444 0.6 36.2444 0.7 36.3444 0.8C36.4444 1 36.5444 1 36.5444 1.1C36.6444 1.2 36.6444 1.2 36.7444 1.3L37.0444 1.6C37.1444 1.7 37.1444 1.9 37.2444 2C37.3444 2.2 37.3444 2.3 37.3444 2.3Z" fill="#73523F"/>
</svg>
