<svg width="87" height="59" viewBox="0 0 87 59" fill="none" xmlns="http://www.w3.org/2000/svg">
<path d="M33.7575 35.3333C33.7575 35.4333 32.9575 35.5333 31.5575 35.8333C31.3575 35.9333 31.0575 35.9333 30.8575 36.0333C30.7575 36.1333 30.5575 36.1333 30.4575 36.2333C30.3575 36.3333 30.1575 36.3333 30.0575 36.3333C29.8575 36.3333 29.7575 36.4333 29.6575 36.5333C29.5575 36.6333 29.3575 36.7333 29.2575 36.7333C29.0575 36.7333 28.9575 36.8333 28.7575 36.9333C28.5575 37.0333 28.4575 37.1333 28.3575 37.2333C28.2575 37.3333 28.0575 37.4333 27.8575 37.5333C27.6575 37.6333 27.5575 37.7333 27.4575 37.9333C27.3575 38.1333 27.1575 38.2333 26.9575 38.3333C26.7575 38.4333 26.5575 38.5333 26.5575 38.7333C26.3575 39.0333 25.9575 39.3333 25.6575 39.7333C25.1575 39.9333 25.0575 40.4333 24.8575 40.8333C24.3575 41.1333 24.1575 41.6333 24.1575 42.1333C23.6575 42.4333 23.4575 42.9333 23.6575 43.5333C23.5575 44.0333 23.2575 44.5333 23.3575 45.0333C23.2575 45.5333 23.2575 46.1333 23.2575 46.6333C23.4575 47.2333 23.4575 47.7333 23.3575 48.3333C23.6575 48.8333 23.7575 49.4333 23.7575 50.0333C23.7575 50.2333 23.8575 50.3333 23.8575 50.4333C23.9575 50.5333 23.9575 50.7333 24.0575 50.8333C24.2575 51.1333 24.3575 51.3333 24.4575 51.6333C24.7575 52.1333 25.0575 52.6333 25.4575 53.1333C25.7575 53.7333 26.0575 54.2333 26.7575 54.5333C27.2575 54.9333 27.8575 55.2333 28.2575 55.7333C28.9575 55.8333 29.4575 56.2333 29.9575 56.6333C30.5575 56.8333 31.1575 57.2333 31.8575 57.2333C32.5575 57.4333 33.1575 57.3333 33.8575 57.4333C34.5575 57.5333 35.2575 57.5333 35.8575 57.2333C36.1575 57.0333 36.4575 57.0333 36.8575 56.9333C37.0575 56.9333 37.1575 56.8333 37.3575 56.8333C37.5575 56.8333 37.6575 56.7333 37.8575 56.6333C38.0575 56.6333 38.1575 56.6333 38.3575 56.5333C38.5575 56.4333 38.6575 56.4333 38.7575 56.3333C38.8575 56.2333 39.0575 56.1333 39.1575 56.0333C39.2575 55.9333 39.4575 55.8333 39.5575 55.8333C40.0575 55.4333 40.6575 55.2333 41.0575 54.6333C41.4575 54.1333 41.8575 53.6333 42.3575 53.2333C42.3575 52.8333 42.5575 52.6333 42.7575 52.4333C42.8575 52.3333 42.9575 52.2333 43.0575 52.1333C43.1575 52.0333 43.2575 51.9333 43.2575 51.7333C43.6575 51.2333 43.7575 50.6333 43.9575 50.1333C43.9575 49.8333 44.1575 49.5333 44.2575 49.3333C44.3575 49.2333 44.3575 49.0333 44.3575 48.9333C44.3575 48.8333 44.3575 48.6333 44.3575 48.5333C44.4575 47.9333 44.3575 47.4333 44.4575 46.8333C44.3575 46.5333 44.3575 46.3333 44.3575 46.2333C44.3575 46.1333 44.3575 45.9333 44.3575 45.8333C44.3575 45.7333 44.3575 45.5333 44.3575 45.4333C44.3575 45.3333 44.3575 45.1333 44.2575 45.0333C44.1575 44.5333 44.0575 44.0333 43.9575 43.5333C43.9575 43.4333 43.9575 43.2333 43.9575 43.1333C43.9575 43.0333 43.8575 42.9333 43.8575 42.7333C43.7575 42.6333 43.7575 42.5333 43.6575 42.4333C43.5575 42.3333 43.5575 42.2333 43.4575 42.1333C43.2575 41.6333 42.8575 41.3333 42.7575 40.8333C42.5575 40.4333 42.3575 39.9333 41.9575 39.7333C41.7575 39.5333 41.7575 39.3333 41.6575 39.1333C41.5575 38.9333 41.3575 38.7333 41.1575 38.7333C40.9575 38.6333 40.8575 38.4333 40.7575 38.2333C40.6575 38.0333 40.4575 37.9333 40.2575 37.9333C40.0575 37.9333 39.8575 37.8333 39.7575 37.6333C39.6575 37.5333 39.5575 37.3333 39.3575 37.2333C39.1575 37.1333 39.0575 37.0333 38.8575 36.9333C38.7575 36.8333 38.5575 36.7333 38.4575 36.7333C37.7575 36.4333 37.1575 36.1333 36.5575 35.9333C35.9575 35.7333 35.4575 35.6333 35.0575 35.5333C34.6575 35.4333 34.3575 35.4333 34.1575 35.3333C33.8575 35.4333 33.7575 35.4333 33.7575 35.3333C33.7575 35.2333 34.3575 35.1333 35.3575 35.1333C35.8575 35.1333 36.5575 35.2333 37.2575 35.4333C37.9575 35.6333 38.8575 35.9333 39.6575 36.4333C39.8575 36.5333 40.0575 36.5333 40.2575 36.6333C40.4575 36.7333 40.6575 36.8333 40.7575 37.0333C41.0575 37.2333 41.5575 37.4333 41.8575 37.8333C42.3575 37.9333 42.5575 38.4333 42.8575 38.8333C43.1575 39.2333 43.4575 39.6333 43.8575 40.0333C44.0575 40.2333 44.1575 40.4333 44.2575 40.7333C44.3575 40.9333 44.4575 41.2333 44.6575 41.4333C44.7575 42.0333 44.9575 42.5333 45.3575 43.0333C45.3575 43.6333 45.7575 44.1333 45.8575 44.7333C45.6575 45.3333 45.9575 45.9333 46.0575 46.5333C46.1575 47.1333 45.9575 47.8333 45.9575 48.4333C45.8575 49.0333 45.7575 49.7333 45.5575 50.4333C45.4575 51.1333 45.2575 51.8333 44.7575 52.3333C44.5575 53.0333 44.0575 53.5333 43.6575 54.1333C43.2575 54.7333 42.7575 55.2333 42.1575 55.7333C41.8575 56.0333 41.5575 56.2333 41.2575 56.3333C41.0575 56.4333 40.9575 56.5333 40.7575 56.6333C40.6575 56.7333 40.4575 56.8333 40.3575 57.0333C39.7575 57.4333 39.0575 57.7333 38.3575 58.0333C37.6575 58.3333 36.8575 58.4333 36.1575 58.7333C35.3575 58.6333 34.6575 58.8333 33.8575 58.9333C33.0575 59.0333 32.2575 58.9333 31.5575 58.7333C30.7575 58.6333 30.0575 58.3333 29.3575 58.0333C28.5575 57.8333 28.0575 57.3333 27.3575 57.0333C26.9575 56.9333 26.7575 56.6333 26.4575 56.4333C26.1575 56.1333 25.9575 55.9333 25.6575 55.7333C25.0575 55.3333 24.5575 54.7333 24.1575 54.1333C23.9575 53.8333 23.7575 53.5333 23.6575 53.2333C23.5575 53.0333 23.4575 52.9333 23.3575 52.7333C23.2575 52.6333 23.1575 52.4333 23.0575 52.3333C22.8575 52.0333 22.6575 51.7333 22.4575 51.4333C22.3575 51.2333 22.2575 51.1333 22.2575 50.9333C22.2575 50.7333 22.2575 50.5333 22.2575 50.4333C22.1575 50.1333 22.0575 49.8333 22.0575 49.4333C22.0575 49.2333 22.0575 49.1333 21.9575 48.9333C21.9575 48.7333 21.8575 48.6333 21.8575 48.4333C21.9575 48.2333 21.9575 48.1333 21.9575 47.9333C21.9575 47.7333 21.9575 47.6333 21.9575 47.4333C21.9575 47.2333 21.8575 47.1333 21.8575 46.9333C21.8575 46.7333 21.8575 46.6333 21.8575 46.4333C21.9575 45.8333 22.0575 45.2333 22.0575 44.6333C22.0575 44.0333 22.3575 43.4333 22.5575 42.9333C22.5575 42.8333 22.5575 42.6333 22.6575 42.5333C22.7575 42.4333 22.7575 42.2333 22.8575 42.1333C22.9575 42.0333 23.0575 41.9333 23.0575 41.7333C23.1575 41.6333 23.1575 41.4333 23.1575 41.3333C23.4575 40.8333 23.6575 40.3333 23.9575 39.9333C23.9575 39.6333 24.0575 39.4333 24.2575 39.2333C24.4575 39.0333 24.6575 38.9333 24.8575 38.7333C25.2575 38.4333 25.3575 37.8333 25.8575 37.7333C25.9575 37.4333 26.0575 37.3333 26.2575 37.2333C26.4575 37.1333 26.6575 37.0333 26.8575 36.9333C27.0575 36.8333 27.2575 36.7333 27.3575 36.5333C27.5575 36.4333 27.6575 36.3333 27.8575 36.2333C27.9575 36.0333 28.1575 35.9333 28.3575 35.9333C28.5575 35.9333 28.7575 35.8333 28.8575 35.7333C29.2575 35.7333 29.4575 35.4333 29.8575 35.4333C29.9575 35.3333 30.1575 35.3333 30.2575 35.2333C30.3575 35.2333 30.5575 35.1333 30.6575 35.1333C30.9575 35.0333 31.1575 35.0333 31.4575 35.0333C32.9575 35.1333 33.7575 35.3333 33.7575 35.3333Z" fill="#73523F"/>
<path d="M61.3575 35.3333C61.3575 35.4333 60.5575 35.5333 59.1575 35.8333C58.9575 35.9333 58.6575 35.9333 58.4575 36.0333C58.3575 36.1333 58.1575 36.1333 58.0575 36.2333C57.9575 36.3333 57.7575 36.3333 57.6575 36.3333C57.4575 36.3333 57.3575 36.4333 57.2575 36.5333C57.1575 36.6333 56.9575 36.7333 56.8575 36.7333C56.6575 36.7333 56.5575 36.8333 56.3575 36.9333C56.1575 37.0333 56.0575 37.1333 55.9575 37.2333C55.8575 37.3333 55.6575 37.4333 55.4575 37.5333C55.2575 37.6333 55.1575 37.7333 55.0575 37.9333C54.9575 38.1333 54.7575 38.2333 54.5575 38.3333C54.3575 38.4333 54.1575 38.5333 54.1575 38.7333C53.8575 39.0333 53.5575 39.3333 53.2575 39.7333C52.7575 39.9333 52.6575 40.4333 52.4575 40.8333C51.9575 41.0333 51.8575 41.5333 51.7575 42.1333C51.2575 42.4333 51.0575 42.9333 51.2575 43.5333C51.1575 44.0333 50.8575 44.5333 50.9575 45.0333C50.8575 45.5333 50.8575 46.1333 50.8575 46.6333C51.0575 47.2333 51.0575 47.7333 50.9575 48.3333C51.2575 48.8333 51.3575 49.4333 51.3575 50.0333C51.3575 50.2333 51.4575 50.3333 51.4575 50.4333C51.5575 50.5333 51.5575 50.7333 51.6575 50.8333C51.8575 51.1333 51.9575 51.3333 52.0575 51.6333C52.3575 52.1333 52.6575 52.6333 53.0575 53.1333C53.3575 53.7333 53.6575 54.2333 54.3575 54.5333C54.8575 54.9333 55.4575 55.2333 55.8575 55.7333C56.5575 55.8333 57.0575 56.2333 57.5575 56.6333C58.1575 56.8333 58.7575 57.2333 59.4575 57.2333C60.1575 57.4333 60.7575 57.3333 61.4575 57.4333C62.1575 57.5333 62.8575 57.5333 63.4575 57.2333C63.7575 57.0333 64.0575 57.0333 64.4575 56.9333C64.6575 56.9333 64.7575 56.8333 64.9575 56.8333C65.1575 56.8333 65.2575 56.7333 65.4575 56.6333C65.6575 56.6333 65.7575 56.6333 65.9575 56.5333C66.1575 56.4333 66.2575 56.4333 66.3575 56.3333C66.4575 56.2333 66.6575 56.1333 66.7575 56.0333C66.8575 55.9333 67.0575 55.8333 67.1575 55.8333C67.6575 55.4333 68.2575 55.2333 68.6575 54.6333C69.0575 54.1333 69.4575 53.6333 69.9575 53.2333C69.9575 52.8333 70.1575 52.6333 70.3575 52.4333C70.4575 52.3333 70.5575 52.2333 70.6575 52.1333C70.7575 52.0333 70.8575 51.9333 70.8575 51.7333C71.2575 51.2333 71.3575 50.6333 71.5575 50.1333C71.5575 49.8333 71.7575 49.5333 71.8575 49.3333C71.9575 49.2333 71.9575 49.0333 71.9575 48.9333C71.9575 48.8333 71.9575 48.6333 71.9575 48.5333C72.0575 47.9333 71.9575 47.4333 72.0575 46.8333C71.9575 46.7333 71.9575 46.5333 71.9575 46.4333C71.9575 46.3333 71.9575 46.1333 71.9575 46.0333C71.9575 45.9333 71.9575 45.7333 71.9575 45.6333C71.9575 45.5333 71.9575 45.3333 71.8575 45.2333C71.7575 44.7333 71.6575 44.2333 71.5575 43.7333C71.5575 43.6333 71.5575 43.4333 71.5575 43.3333C71.5575 43.2333 71.4575 43.1333 71.4575 42.9333C71.3575 42.8333 71.3575 42.7333 71.2575 42.6333C71.1575 42.5333 71.1575 42.4333 71.0575 42.3333C70.8575 41.8333 70.4575 41.5333 70.3575 41.0333C70.1575 40.6333 69.9575 40.1333 69.5575 39.9333C69.3575 39.7333 69.3575 39.5333 69.2575 39.3333C69.1575 39.1333 68.9575 38.9333 68.7575 38.9333C68.5575 38.8333 68.4575 38.6333 68.3575 38.4333C68.2575 38.2333 68.0575 38.1333 67.8575 38.1333C67.6575 38.1333 67.4575 38.0333 67.3575 37.8333C67.2575 37.7333 67.1575 37.5333 66.9575 37.4333C66.7575 37.3333 66.6575 37.2333 66.4575 37.1333C66.2575 37.0333 66.1575 36.9333 66.0575 36.9333C65.3575 36.6333 64.7575 36.3333 64.1575 36.1333C63.5575 35.9333 63.0575 35.8333 62.6575 35.7333C62.2575 35.6333 61.9575 35.6333 61.7575 35.5333C61.4575 35.4333 61.3575 35.4333 61.3575 35.3333C61.3575 35.2333 61.9575 35.1333 62.9575 35.1333C63.4575 35.1333 64.1575 35.2333 64.8575 35.4333C65.5575 35.6333 66.4575 35.9333 67.2575 36.4333C67.4575 36.5333 67.6575 36.5333 67.8575 36.6333C68.0575 36.7333 68.2575 36.8333 68.3575 37.0333C68.6575 37.2333 69.1575 37.4333 69.4575 37.8333C69.9575 37.9333 70.1575 38.4333 70.4575 38.8333C70.7575 39.2333 71.0575 39.6333 71.4575 40.0333C71.6575 40.2333 71.7575 40.4333 71.8575 40.7333C71.9575 40.9333 72.0575 41.2333 72.2575 41.4333C72.3575 42.0333 72.5575 42.5333 72.9575 43.0333C72.9575 43.6333 73.3575 44.1333 73.4575 44.7333C73.2575 45.3333 73.5575 45.9333 73.6575 46.5333C73.7575 47.1333 73.5575 47.8333 73.5575 48.4333C73.4575 49.0333 73.3575 49.7333 73.1575 50.4333C73.0575 51.1333 72.8575 51.8333 72.3575 52.3333C72.1575 53.0333 71.6575 53.5333 71.2575 54.1333C70.8575 54.7333 70.3575 55.2333 69.7575 55.7333C69.4575 56.0333 69.1575 56.2333 68.8575 56.3333C68.5575 56.5333 68.2575 56.7333 67.9575 57.0333C67.3575 57.4333 66.6575 57.7333 65.9575 58.0333C65.2575 58.2333 64.4575 58.4333 63.7575 58.7333C62.9575 58.6333 62.2575 58.8333 61.4575 58.9333C60.6575 59.0333 59.8575 58.9333 59.1575 58.7333C58.3575 58.6333 57.6575 58.3333 56.9575 58.0333C56.1575 57.8333 55.6575 57.3333 54.9575 57.0333C54.5575 56.9333 54.3575 56.6333 54.0575 56.4333C53.7575 56.1333 53.5575 55.9333 53.2575 55.7333C52.6575 55.3333 52.1575 54.7333 51.7575 54.1333C51.5575 53.8333 51.3575 53.5333 51.2575 53.2333C51.1575 53.0333 51.0575 52.9333 50.9575 52.7333C50.8575 52.6333 50.7575 52.4333 50.6575 52.3333C50.4575 52.0333 50.2575 51.7333 50.0575 51.4333C49.9575 51.2333 49.8575 51.1333 49.8575 50.9333C49.8575 50.7333 49.8575 50.5333 49.8575 50.4333C49.7575 50.1333 49.6575 49.8333 49.6575 49.4333C49.6575 49.2333 49.6575 49.1333 49.5575 48.9333C49.5575 48.7333 49.4575 48.6333 49.4575 48.4333C49.5575 48.2333 49.5575 48.1333 49.5575 47.9333C49.5575 47.7333 49.5575 47.6333 49.5575 47.4333C49.5575 47.2333 49.4575 47.1333 49.4575 46.9333C49.4575 46.7333 49.4575 46.6333 49.4575 46.4333C49.5575 45.8333 49.6575 45.2333 49.6575 44.6333C49.6575 44.0333 49.9575 43.4333 50.1575 42.9333C50.1575 42.7333 50.1575 42.6333 50.2575 42.5333C50.3575 42.4333 50.3575 42.2333 50.4575 42.1333C50.5575 42.0333 50.6575 41.9333 50.6575 41.7333C50.7575 41.6333 50.7575 41.4333 50.7575 41.3333C51.0575 40.8333 51.2575 40.3333 51.5575 39.9333C51.5575 39.6333 51.6575 39.4333 51.8575 39.2333C52.0575 39.0333 52.2575 38.9333 52.4575 38.7333C52.8575 38.4333 52.9575 37.8333 53.4575 37.7333C53.5575 37.4333 53.6575 37.3333 53.8575 37.2333C54.0575 37.1333 54.2575 37.0333 54.4575 36.9333C54.6575 36.8333 54.7575 36.7333 54.9575 36.5333C55.1575 36.4333 55.2575 36.3333 55.4575 36.2333C55.5575 36.0333 55.7575 35.9333 55.9575 35.9333C56.1575 35.9333 56.3575 35.8333 56.4575 35.7333C56.8575 35.7333 57.0575 35.4333 57.4575 35.4333C57.5575 35.3333 57.7575 35.3333 57.8575 35.2333C57.9575 35.2333 58.1575 35.1333 58.2575 35.1333C58.5575 35.0333 58.7575 35.0333 59.0575 35.0333C60.5575 35.1333 61.3575 35.3333 61.3575 35.3333Z" fill="#73523F"/>
<path d="M33.7575 40.7333C33.7575 40.8333 33.6575 40.8333 33.4575 40.9333C33.3575 40.9333 33.2575 41.0333 33.0575 41.0333C32.9575 41.0333 32.7575 41.1333 32.5575 41.1333C32.4575 41.1333 32.3575 41.2333 32.1575 41.2333C32.0575 41.2333 32.0575 41.3333 31.9575 41.3333C31.8575 41.3333 31.8575 41.4333 31.7575 41.4333C31.5575 41.3333 31.5575 41.8333 31.3575 41.6333C31.1575 41.6333 31.0575 41.7333 30.8575 41.9333C30.7575 42.0333 30.4575 42.0333 30.3575 42.2333C30.3575 42.4333 30.2575 42.4333 30.1575 42.4333C30.0575 42.4333 29.9575 42.4333 29.9575 42.6333C29.9575 42.7333 29.8575 42.8333 29.7575 42.9333C29.6575 43.0333 29.5575 43.1333 29.5575 43.1333C29.3575 43.1333 29.3575 43.2333 29.2575 43.3333C29.2575 43.4333 29.1575 43.5333 29.1575 43.6333C28.8575 43.7333 28.7575 43.9333 28.8575 44.2333C28.6575 44.2333 28.4575 44.3333 28.4575 44.4333C28.4575 44.5333 28.4575 44.7333 28.5575 44.9333C28.5575 45.0333 28.4575 45.1333 28.4575 45.3333C28.4575 45.4333 28.4575 45.4333 28.3575 45.5333C28.3575 45.6333 28.3575 45.6333 28.3575 45.7333C28.3575 45.8333 28.3575 46.0333 28.3575 46.1333C28.3575 46.2333 28.3575 46.4333 28.3575 46.5333C28.4575 46.6333 28.5575 46.8333 28.5575 46.9333C28.5575 47.0333 28.5575 47.0333 28.5575 47.1333C28.5575 47.2333 28.5575 47.2333 28.4575 47.3333C28.7575 47.5333 28.7575 47.8333 28.6575 48.1333C28.6575 48.3333 28.7575 48.4333 28.8575 48.5333C28.9575 48.6333 29.0575 48.7333 29.0575 48.9333V49.0333C29.0575 49.0333 29.0575 49.1333 29.1575 49.1333L29.2575 49.3333C29.3575 49.4333 29.4575 49.5333 29.5575 49.7333C29.5575 49.8333 29.5575 49.9333 29.6575 49.9333C29.6575 50.0333 29.7575 50.0333 29.7575 50.1333C29.7575 50.2333 29.8575 50.2333 29.9575 50.3333C30.0575 50.3333 30.1575 50.4333 30.2575 50.4333C30.3575 50.5333 30.5575 50.6333 30.6575 50.6333C30.7575 50.7333 30.8575 50.8333 30.9575 50.9333C31.3575 50.8333 31.5575 51.1333 31.8575 51.3333C32.0575 51.3333 32.1575 51.4333 32.2575 51.5333C32.4575 51.6333 32.5575 51.6333 32.7575 51.6333C32.9575 51.6333 33.0575 51.6333 33.2575 51.6333C33.4575 51.6333 33.5575 51.6333 33.7575 51.7333C33.9575 51.7333 34.0575 51.8333 34.2575 51.8333C34.4575 51.8333 34.5575 51.7333 34.7575 51.6333C34.8575 51.5333 35.0575 51.5333 35.2575 51.4333C35.4575 51.4333 35.5575 51.4333 35.7575 51.3333C35.8575 51.3333 35.9575 51.3333 36.0575 51.3333C36.1575 51.3333 36.1575 51.2333 36.2575 51.2333L36.4575 51.0333C36.5575 50.9333 36.5575 50.9333 36.6575 50.9333C36.7575 50.8333 36.9575 50.7333 37.0575 50.7333C37.1575 50.6333 37.3575 50.5333 37.3575 50.4333C37.3575 50.3333 37.4575 50.3333 37.4575 50.2333C37.4575 50.1333 37.5575 50.1333 37.5575 50.0333C37.5575 49.9333 37.6575 49.9333 37.7575 49.8333C37.8575 49.7333 37.8575 49.7333 37.9575 49.7333C37.8575 49.5333 37.9575 49.4333 38.1575 49.3333C38.2575 49.2333 38.4575 49.1333 38.4575 49.0333C38.5575 48.9333 38.6575 48.8333 38.6575 48.6333C38.6575 48.5333 38.6575 48.3333 38.7575 48.2333C38.7575 48.1333 38.8575 47.9333 38.9575 47.8333C39.0575 47.7333 39.0575 47.5333 39.0575 47.4333C39.0575 47.3333 39.0575 47.3333 39.0575 47.2333C39.0575 47.1333 39.0575 47.1333 39.0575 47.0333C39.0575 46.9333 39.0575 46.7333 39.1575 46.6333C39.0575 46.5333 39.0575 46.3333 39.1575 46.2333C39.1575 46.1333 39.2575 45.9333 39.1575 45.8333C39.1575 45.7333 39.1575 45.7333 39.1575 45.6333C39.1575 45.5333 39.1575 45.5333 39.1575 45.4333C39.1575 45.3333 39.1575 45.1333 39.0575 45.0333C39.1575 44.8333 39.1575 44.7333 39.0575 44.6333C38.9575 44.5333 38.8575 44.4333 38.7575 44.3333C38.6575 44.1333 38.3575 44.0333 38.4575 43.7333C38.3575 43.6333 38.3575 43.5333 38.3575 43.4333C38.2575 43.3333 38.2575 43.2333 38.1575 43.2333C38.0575 43.1333 38.0575 43.0333 38.0575 42.8333C38.0575 42.7333 37.9575 42.6333 37.7575 42.7333C37.6575 42.7333 37.6575 42.5333 37.5575 42.4333C37.5575 42.3333 37.4575 42.2333 37.2575 42.3333C36.9575 42.4333 36.9575 42.1333 36.7575 42.0333C36.6575 41.9333 36.4575 41.8333 36.2575 41.7333C35.5575 41.3333 34.9575 41.1333 34.5575 41.0333C33.9575 40.9333 33.7575 40.8333 33.7575 40.7333C33.7575 40.7333 33.8575 40.6333 33.9575 40.6333C34.0575 40.6333 34.1575 40.6333 34.2575 40.5333C34.3575 40.5333 34.3575 40.5333 34.4575 40.5333C34.5575 40.5333 34.5575 40.5333 34.6575 40.5333C35.2575 40.5333 36.0575 40.6333 37.0575 41.1333C37.2575 41.2333 37.5575 41.1333 37.6575 41.4333C37.7575 41.5333 37.8575 41.5333 37.9575 41.6333C38.0575 41.7333 38.1575 41.7333 38.2575 41.9333C38.4575 41.9333 38.5575 42.0333 38.6575 42.1333C38.7575 42.2333 38.7575 42.4333 38.8575 42.5333C38.9575 42.6333 39.0575 42.7333 39.0575 42.8333C39.1575 42.9333 39.2575 43.0333 39.3575 43.1333C39.6575 43.3333 39.5575 43.6333 39.8575 43.9333C39.8575 44.1333 39.8575 44.2333 39.9575 44.4333C40.0575 44.5333 40.1575 44.7333 40.2575 44.8333C40.2575 45.0333 40.2575 45.1333 40.3575 45.3333C40.3575 45.4333 40.4575 45.5333 40.4575 45.5333C40.4575 45.6333 40.5575 45.7333 40.5575 45.7333C40.4575 45.9333 40.4575 46.1333 40.4575 46.2333C40.4575 46.4333 40.5575 46.5333 40.6575 46.7333C40.7575 46.9333 40.6575 47.1333 40.6575 47.2333C40.6575 47.3333 40.6575 47.4333 40.6575 47.5333C40.6575 47.6333 40.6575 47.7333 40.6575 47.8333C40.5575 48.2333 40.5575 48.5333 40.4575 48.9333C40.4575 49.1333 40.4575 49.3333 40.3575 49.5333C40.2575 49.7333 40.1575 49.9333 40.0575 50.0333C40.0575 50.2333 39.8575 50.4333 39.7575 50.5333C39.6575 50.7333 39.5575 50.8333 39.3575 51.0333C39.3575 51.1333 39.2575 51.2333 39.1575 51.3333C39.0575 51.4333 39.0575 51.5333 38.9575 51.5333L38.7575 51.7333C38.6575 51.8333 38.5575 51.8333 38.5575 51.9333C38.4575 52.1333 38.2575 52.2333 38.0575 52.2333C37.8575 52.3333 37.6575 52.4333 37.5575 52.6333C37.2575 52.9333 36.7575 53.0333 36.4575 53.2333C36.2575 53.3333 36.0575 53.3333 35.8575 53.4333C35.6575 53.4333 35.4575 53.5333 35.2575 53.6333C35.0575 53.5333 34.7575 53.5333 34.5575 53.5333C34.3575 53.5333 34.1575 53.6333 33.8575 53.7333C33.6575 53.7333 33.4575 53.7333 33.1575 53.7333C32.9575 53.7333 32.7575 53.6333 32.4575 53.6333C32.2575 53.6333 32.0575 53.5333 31.8575 53.5333C31.6575 53.4333 31.4575 53.3333 31.2575 53.3333C31.1575 53.3333 31.0575 53.2333 30.9575 53.2333C30.8575 53.1333 30.7575 53.1333 30.6575 53.0333C30.4575 52.9333 30.3575 52.7333 30.0575 52.7333C29.8575 52.6333 29.6575 52.5333 29.5575 52.3333C29.3575 52.2333 29.2575 52.0333 29.0575 51.9333C28.9575 51.8333 28.8575 51.8333 28.7575 51.7333C28.6575 51.6333 28.5575 51.6333 28.5575 51.5333C28.4575 51.4333 28.4575 51.3333 28.3575 51.3333C28.2575 51.2333 28.2575 51.1333 28.2575 51.0333C28.1575 50.8333 28.0575 50.6333 27.9575 50.5333C27.9575 50.4333 27.8575 50.3333 27.8575 50.2333L27.6575 50.0333C27.5575 49.8333 27.3575 49.7333 27.2575 49.5333C27.1575 49.3333 27.0575 49.1333 27.2575 48.9333C27.1575 48.7333 27.1575 48.5333 27.1575 48.3333C27.1575 48.1333 27.1575 47.9333 27.0575 47.8333C27.1575 47.7333 27.1575 47.6333 27.1575 47.5333C27.1575 47.4333 27.1575 47.3333 27.1575 47.2333C27.1575 47.0333 27.0575 46.8333 27.0575 46.7333C27.0575 46.5333 27.1575 46.4333 27.1575 46.2333C27.1575 46.0333 27.2575 45.9333 27.1575 45.7333C27.1575 45.6333 27.1575 45.5333 27.1575 45.4333C27.1575 45.3333 27.2575 45.2333 27.2575 45.2333C27.3575 45.0333 27.3575 44.9333 27.4575 44.7333C27.4575 44.5333 27.5575 44.4333 27.6575 44.3333C27.7575 44.2333 27.8575 44.1333 27.8575 43.9333C28.0575 43.6333 28.1575 43.4333 28.3575 43.1333C28.2575 42.9333 28.3575 42.7333 28.4575 42.7333C28.5575 42.6333 28.7575 42.6333 28.8575 42.5333C28.9575 42.4333 29.0575 42.3333 29.0575 42.2333C29.1575 42.1333 29.2575 42.0333 29.4575 42.0333C29.4575 41.8333 29.5575 41.7333 29.6575 41.7333C29.7575 41.7333 29.9575 41.6333 30.0575 41.6333C30.2575 41.5333 30.3575 41.2333 30.6575 41.3333C30.6575 41.2333 30.7575 41.1333 30.9575 41.1333C31.0575 41.1333 31.1575 41.1333 31.2575 41.0333C31.4575 41.0333 31.6575 40.9333 31.7575 40.8333C31.8575 40.7333 31.9575 40.7333 31.9575 40.7333C32.0575 40.7333 32.1575 40.7333 32.2575 40.7333C32.4575 40.7333 32.5575 40.7333 32.6575 40.6333C32.8575 40.6333 33.0575 40.6333 33.1575 40.6333C33.3575 40.6333 33.4575 40.6333 33.5575 40.7333C33.6575 40.6333 33.7575 40.6333 33.7575 40.7333Z" fill="#73523F"/>
<path d="M61.3575 40.7333C61.3575 40.8333 61.2575 40.8333 61.0575 40.9333C60.9575 40.9333 60.8575 41.0333 60.6575 41.0333C60.5575 41.0333 60.3575 41.1333 60.1575 41.1333C60.0575 41.1333 59.9575 41.2333 59.7575 41.2333C59.6575 41.2333 59.6575 41.3333 59.5575 41.3333C59.4575 41.3333 59.4575 41.4333 59.3575 41.4333C59.1575 41.3333 59.1575 41.8333 58.9575 41.6333C58.7575 41.6333 58.6575 41.7333 58.4575 41.9333C58.3575 42.0333 58.0575 42.0333 57.9575 42.2333C57.9575 42.4333 57.8575 42.4333 57.7575 42.4333C57.6575 42.4333 57.5575 42.4333 57.5575 42.6333C57.4575 42.7333 57.4575 42.8333 57.3575 42.9333C57.3575 43.1333 57.3575 43.1333 57.2575 43.2333C57.0575 43.2333 57.0575 43.3333 56.9575 43.4333C56.9575 43.5333 56.8575 43.6333 56.8575 43.7333C56.5575 43.8333 56.4575 44.0333 56.5575 44.3333C56.3575 44.3333 56.1575 44.4333 56.1575 44.5333C56.1575 44.6333 56.1575 44.8333 56.2575 45.0333C56.2575 45.1333 56.1575 45.2333 56.1575 45.4333C56.1575 45.5333 56.1575 45.5333 56.1575 45.6333C56.1575 45.7333 56.1575 45.7333 56.1575 45.8333C56.1575 45.9333 56.1575 46.1333 56.1575 46.2333C56.1575 46.3333 56.1575 46.5333 56.1575 46.6333C56.2575 46.7333 56.3575 46.9333 56.3575 47.0333C56.3575 47.1333 56.3575 47.1333 56.3575 47.2333C56.3575 47.3333 56.3575 47.3333 56.2575 47.4333C56.5575 47.6333 56.5575 47.9333 56.4575 48.2333C56.4575 48.4333 56.5575 48.5333 56.6575 48.6333C56.7575 48.7333 56.8575 48.8333 56.8575 49.0333V49.1333C56.8575 49.1333 56.8575 49.2333 56.9575 49.2333L57.0575 49.4333C57.1575 49.5333 57.2575 49.6333 57.3575 49.8333C57.3575 49.9333 57.3575 50.0333 57.4575 50.0333C57.4575 50.1333 57.5575 50.1333 57.5575 50.2333C57.5575 50.3333 57.6575 50.3333 57.7575 50.4333C57.8575 50.4333 57.9575 50.5333 58.0575 50.5333C58.1575 50.6333 58.3575 50.7333 58.4575 50.7333C58.5575 50.8333 58.6575 50.9333 58.7575 51.0333C59.1575 50.9333 59.3575 51.2333 59.6575 51.4333C59.8575 51.4333 59.9575 51.5333 60.0575 51.6333C60.2575 51.7333 60.3575 51.7333 60.5575 51.7333C60.7575 51.7333 60.8575 51.7333 61.0575 51.7333C61.2575 51.7333 61.3575 51.7333 61.5575 51.8333C61.7575 51.8333 61.8575 51.9333 62.0575 51.9333C62.2575 51.9333 62.3575 51.8333 62.5575 51.7333C62.6575 51.6333 62.8575 51.6333 63.0575 51.5333C63.2575 51.5333 63.3575 51.5333 63.5575 51.4333C63.6575 51.4333 63.7575 51.4333 63.8575 51.4333C63.9575 51.4333 63.9575 51.3333 64.0575 51.3333L64.2575 51.1333C64.3575 51.0333 64.3575 51.0333 64.4575 51.0333C64.5575 50.9333 64.7575 50.8333 64.8575 50.8333C64.9575 50.7333 65.1575 50.6333 65.1575 50.5333C65.1575 50.4333 65.2575 50.4333 65.2575 50.3333C65.2575 50.2333 65.3575 50.2333 65.3575 50.1333C65.3575 50.0333 65.4575 50.0333 65.5575 49.9333C65.6575 49.8333 65.6575 49.8333 65.7575 49.8333C65.6575 49.6333 65.7575 49.5333 65.9575 49.4333C66.0575 49.3333 66.2575 49.2333 66.2575 49.1333C66.3575 49.0333 66.4575 48.9333 66.4575 48.7333C66.4575 48.6333 66.4575 48.4333 66.5575 48.3333C66.5575 48.2333 66.6575 48.0333 66.7575 47.9333V47.7333C66.7575 47.6333 66.7575 47.6333 66.7575 47.5333C66.7575 47.4333 66.7575 47.4333 66.7575 47.3333C66.7575 47.2333 66.7575 47.2333 66.7575 47.1333C66.7575 47.0333 66.7575 46.8333 66.8575 46.7333C66.7575 46.6333 66.7575 46.4333 66.8575 46.3333C66.8575 46.2333 66.9575 46.0333 66.8575 45.9333C66.8575 45.8333 66.8575 45.8333 66.8575 45.7333C66.8575 45.6333 66.8575 45.6333 66.8575 45.5333C66.8575 45.4333 66.8575 45.2333 66.7575 45.1333C66.8575 44.9333 66.8575 44.8333 66.7575 44.7333C66.6575 44.6333 66.5575 44.5333 66.4575 44.4333C66.3575 44.2333 66.0575 44.1333 66.1575 43.8333C66.0575 43.7333 66.0575 43.6333 66.0575 43.5333C65.9575 43.4333 65.9575 43.3333 65.8575 43.3333C65.3575 43.1333 65.3575 43.0333 65.3575 42.9333C65.3575 42.8333 65.2575 42.7333 65.0575 42.8333C64.9575 42.8333 64.9575 42.6333 64.8575 42.5333C64.8575 42.4333 64.7575 42.3333 64.5575 42.4333C64.2575 42.5333 64.2575 42.2333 64.0575 42.1333C63.9575 42.0333 63.7575 41.9333 63.5575 41.8333C62.8575 41.4333 62.2575 41.2333 61.8575 41.1333C61.5575 40.9333 61.3575 40.8333 61.3575 40.7333C61.3575 40.7333 61.4575 40.6333 61.5575 40.6333C61.6575 40.6333 61.7575 40.6333 61.8575 40.5333C61.9575 40.5333 61.9575 40.5333 62.0575 40.5333C62.1575 40.5333 62.1575 40.5333 62.2575 40.5333C62.8575 40.5333 63.6575 40.6333 64.6575 41.1333C64.8575 41.2333 65.1575 41.1333 65.2575 41.4333C65.3575 41.5333 65.4575 41.5333 65.5575 41.6333C65.6575 41.7333 65.7575 41.7333 65.8575 41.9333C66.0575 41.9333 66.1575 42.0333 66.2575 42.1333C66.3575 42.2333 66.3575 42.4333 66.4575 42.5333C66.5575 42.6333 66.6575 42.7333 66.6575 42.8333C66.7575 42.9333 66.8575 43.0333 66.9575 43.1333C67.2575 43.3333 67.1575 43.6333 67.4575 43.9333C67.4575 44.1333 67.4575 44.2333 67.5575 44.4333C67.6575 44.5333 67.7575 44.7333 67.8575 44.8333C67.8575 45.0333 67.8575 45.1333 67.9575 45.3333C67.9575 45.4333 68.0575 45.5333 68.0575 45.5333C68.0575 45.6333 68.1575 45.7333 68.1575 45.7333C68.0575 45.9333 68.0575 46.1333 68.0575 46.2333C68.0575 46.4333 68.1575 46.5333 68.2575 46.7333C68.3575 46.9333 68.2575 47.1333 68.2575 47.2333C68.2575 47.3333 68.2575 47.4333 68.2575 47.5333C68.2575 47.6333 68.2575 47.7333 68.2575 47.8333C68.1575 48.2333 68.1575 48.5333 68.0575 48.9333C68.0575 49.1333 68.0575 49.3333 67.9575 49.5333C67.8575 49.7333 67.7575 49.9333 67.6575 50.0333C67.6575 50.2333 67.4575 50.4333 67.3575 50.5333C67.2575 50.7333 67.1575 50.8333 66.9575 51.0333C66.9575 51.1333 66.8575 51.2333 66.7575 51.3333C66.6575 51.4333 66.6575 51.5333 66.5575 51.5333L66.3575 51.7333C66.2575 51.8333 66.1575 51.8333 66.1575 51.9333C66.0575 52.1333 65.8575 52.2333 65.6575 52.2333C65.4576 52.3333 65.2575 52.4333 65.1575 52.6333C64.8575 52.9333 64.3575 53.0333 64.0575 53.2333C63.8575 53.3333 63.6575 53.3333 63.4575 53.4333C63.2575 53.4333 63.0575 53.5333 62.8575 53.6333C62.6575 53.5333 62.3575 53.5333 62.1575 53.5333C61.9575 53.5333 61.7575 53.6333 61.4575 53.7333C61.2575 53.7333 61.0575 53.7333 60.7575 53.7333C60.5575 53.7333 60.3575 53.6333 60.0575 53.6333C59.8575 53.6333 59.6575 53.5333 59.4575 53.5333C59.2575 53.4333 59.0575 53.3333 58.8575 53.3333C58.7575 53.3333 58.6575 53.2333 58.5575 53.2333C58.4575 53.1333 58.3575 53.1333 58.2575 53.0333C58.0575 52.9333 57.9575 52.7333 57.6575 52.7333C57.4575 52.6333 57.2575 52.5333 57.1575 52.3333C56.9575 52.2333 56.8575 52.0333 56.6575 51.9333C56.5575 51.8333 56.4575 51.8333 56.3575 51.7333C56.2575 51.6333 56.1575 51.6333 56.1575 51.5333C56.0575 51.4333 56.0575 51.3333 55.9575 51.3333C55.8575 51.2333 55.8575 51.1333 55.8575 51.0333C55.7575 50.8333 55.6575 50.6333 55.5575 50.5333C55.5575 50.4333 55.4575 50.3333 55.4575 50.2333L55.2575 50.0333C55.1575 49.8333 54.9575 49.7333 54.8575 49.5333C54.7575 49.3333 54.6575 49.1333 54.8575 48.9333C54.7575 48.7333 54.7575 48.5333 54.7575 48.3333C54.7575 48.1333 54.7575 47.9333 54.6575 47.8333C54.7575 47.7333 54.7575 47.6333 54.7575 47.5333C54.7575 47.4333 54.7575 47.3333 54.7575 47.2333C54.7575 47.0333 54.6575 46.8333 54.6575 46.7333C54.6575 46.5333 54.7575 46.4333 54.7575 46.2333C54.7575 46.0333 54.8575 45.9333 54.7575 45.7333C54.7575 45.6333 54.7575 45.5333 54.7575 45.4333C54.7575 45.3333 54.8575 45.2333 54.8575 45.2333C54.9575 45.0333 54.9575 44.9333 55.0575 44.7333C55.0575 44.5333 55.1575 44.4333 55.2575 44.3333C55.3575 44.2333 55.4575 44.1333 55.4575 43.9333C55.6575 43.6333 55.7575 43.4333 55.9575 43.1333C55.8575 42.9333 55.9575 42.7333 56.0575 42.7333C56.1575 42.6333 56.3575 42.6333 56.4575 42.5333C56.5575 42.4333 56.6575 42.3333 56.6575 42.2333C56.7575 42.1333 56.8575 42.0333 57.0575 42.0333C57.0575 41.8333 57.1575 41.7333 57.2575 41.7333C57.3575 41.7333 57.5575 41.6333 57.6575 41.6333C57.8575 41.5333 57.9575 41.2333 58.2575 41.3333C58.2575 41.2333 58.3575 41.1333 58.5575 41.1333C58.6575 41.1333 58.7575 41.1333 58.8575 41.0333C59.0575 41.0333 59.2575 40.9333 59.3575 40.8333C59.4575 40.7333 59.5575 40.7333 59.5575 40.7333C59.6575 40.7333 59.7575 40.7333 59.8575 40.7333C60.0575 40.7333 60.1575 40.7333 60.2575 40.6333C60.4575 40.6333 60.6575 40.6333 60.7575 40.6333C60.9575 40.6333 61.0575 40.6333 61.1575 40.7333C61.2575 40.6333 61.3575 40.6333 61.3575 40.7333Z" fill="#73523F"/>
<path d="M79.0575 58.2333C79.0575 58.3333 78.2575 58.4333 76.7575 58.5333C76.5575 58.5333 76.2575 58.5333 75.9575 58.5333C75.6575 58.5333 75.3575 58.6333 75.0575 58.5333C74.7575 58.4333 74.4575 58.8333 74.0575 58.5333C73.7575 58.4333 73.3575 58.5333 72.9575 58.5333C72.5575 58.5333 72.1575 58.4333 71.7575 58.5333C71.3575 58.8333 70.9575 58.2333 70.4575 58.5333C70.0575 58.6333 69.5575 58.6333 69.0575 58.5333C68.5575 58.3333 68.0575 58.5333 67.5575 58.5333C67.0575 58.2333 66.5575 58.4333 66.0575 58.5333C65.5575 58.1333 64.9575 58.2333 64.4575 58.5333C63.8575 58.5333 63.3575 58.4333 62.7575 58.5333C62.1575 58.5333 61.5575 58.6333 60.9575 58.5333C60.3575 58.7333 59.7575 58.7333 59.1575 58.5333C58.5575 58.8333 57.9575 58.7333 57.2575 58.5333C56.6575 58.4333 55.9575 58.7333 55.3575 58.5333C54.6575 58.5333 54.0575 58.6333 53.3575 58.5333C52.6575 58.4333 51.9575 58.3333 51.3575 58.5333C50.6575 58.6333 49.9575 58.7333 49.2575 58.5333C48.5575 58.8333 47.8575 58.7333 47.1575 58.5333C46.4575 58.5333 45.7575 58.3333 44.9575 58.5333C44.2575 58.5333 43.4575 58.6333 42.7575 58.5333C42.0575 58.4333 41.2575 58.3333 40.5575 58.5333C39.8575 58.7333 39.0575 58.4333 38.3575 58.5333C37.6575 58.2333 36.9575 58.6333 36.2575 58.5333C35.5575 58.5333 34.8575 58.4333 34.1575 58.5333C33.4575 58.5333 32.7575 58.6333 32.1575 58.5333C31.4575 58.9333 30.8575 58.4333 30.1575 58.5333C29.4575 58.3333 28.8575 58.5333 28.2575 58.5333C27.6575 58.6333 26.9575 58.3333 26.3575 58.5333C25.7575 58.5333 25.1575 58.6333 24.5575 58.5333C23.9575 58.7333 23.3575 58.3333 22.7575 58.5333C22.1575 58.5333 21.6575 58.5333 21.0575 58.5333C20.4575 58.2333 19.9575 58.4333 19.4575 58.5333C18.9575 58.5333 18.4575 58.7333 17.9575 58.5333C17.4575 58.5333 16.9575 58.3333 16.4575 58.5333C15.9575 58.5333 15.5575 58.0333 15.0575 58.5333C14.6575 58.6333 14.1575 58.2333 13.7575 58.5333C13.3575 58.8333 12.9575 58.5333 12.5575 58.5333C12.1575 58.5333 11.7575 58.5333 11.4575 58.5333C8.25754 58.4333 6.45754 58.2333 6.45754 58.0333C6.45754 57.8333 8.65754 57.6333 12.5575 57.5333C12.9575 57.5333 13.3575 57.3333 13.7575 57.5333C14.1575 57.5333 14.5575 57.3333 15.0575 57.5333C15.4575 57.2333 15.9575 57.4333 16.4575 57.5333C16.9575 57.5333 17.4575 57.6333 17.9575 57.5333C18.4575 57.3333 18.9575 57.6333 19.4575 57.5333C19.9575 57.7333 20.5575 57.6333 21.0575 57.5333C21.6575 57.7333 22.1575 57.5333 22.7575 57.5333C23.3575 57.8333 23.9575 57.6333 24.5575 57.5333C25.1575 57.4333 25.7575 57.5333 26.3575 57.5333C26.9575 57.6333 27.5575 57.4333 28.2575 57.5333C28.8575 57.4333 29.5575 57.3333 30.1575 57.5333C30.8575 57.4333 31.4575 57.5333 32.1575 57.5333C32.8575 57.4333 33.5575 57.5333 34.1575 57.5333C34.8575 57.4333 35.5575 57.8333 36.2575 57.5333C36.9575 57.5333 37.6575 57.5333 38.3575 57.5333C39.0575 57.5333 39.7575 57.6333 40.5575 57.5333C41.2575 57.8333 42.0575 57.6333 42.7575 57.5333C43.4575 57.4333 44.2575 57.5333 44.9575 57.5333C45.6575 57.5333 46.4575 57.5333 47.1575 57.5333C47.8575 57.4333 48.5575 57.6333 49.2575 57.5333C49.9575 57.4333 50.6575 57.6333 51.3575 57.5333C52.0575 57.4333 52.7575 57.4333 53.3575 57.5333C54.0575 57.5333 54.6575 57.8333 55.3575 57.5333C56.0575 57.4333 56.6575 57.1333 57.2575 57.5333C57.8575 57.4333 58.5575 57.7333 59.1575 57.5333C59.7575 57.8333 60.3575 57.5333 60.9575 57.5333C61.5575 57.6333 62.1575 57.7333 62.7575 57.5333C63.3575 57.4333 63.8575 57.6333 64.4575 57.5333C65.0575 57.3333 65.5575 57.7333 66.0575 57.5333C66.5575 57.5333 67.0575 57.5333 67.5575 57.5333C68.0575 57.1333 68.5575 57.5333 69.0575 57.5333C69.5575 57.6333 69.9575 57.2333 70.4575 57.5333C70.8575 57.2333 71.3575 57.5333 71.7575 57.5333C72.1575 57.6333 72.5575 57.4333 72.9575 57.5333C73.3575 57.3333 73.7575 57.6333 74.0575 57.5333C74.4575 57.6333 74.7575 57.5333 75.0575 57.5333C75.3575 57.5333 75.6575 57.5333 75.9575 57.5333C76.2575 57.5333 76.4575 57.5333 76.7575 57.5333C78.2575 57.9333 79.0575 58.0333 79.0575 58.2333Z" fill="#73523F"/>
<path d="M72.7575 4.23333C72.7575 4.33333 72.6575 4.43333 72.4575 4.53333H72.3575C72.3575 4.53333 72.2575 4.63333 72.2575 4.53333C72.2575 4.43333 72.1575 4.83333 72.1575 4.53333C72.1575 4.43333 72.0575 4.53333 72.0575 4.53333C72.0575 4.63333 71.9575 4.43333 71.8575 4.53333C71.7575 4.83333 71.7575 4.23333 71.6575 4.53333C71.5575 4.63333 71.5575 4.63333 71.4575 4.53333C71.3575 4.33333 71.3575 4.53333 71.2575 4.53333C71.1575 4.23333 71.1575 4.43333 71.0575 4.53333C70.9575 4.13333 70.9575 4.23333 70.8575 4.53333C70.7575 4.53333 70.7575 4.43333 70.6575 4.53333C70.5575 4.53333 70.4575 4.63333 70.4575 4.53333C70.3575 4.73333 70.2575 4.73333 70.2575 4.53333C70.1575 4.83333 70.0575 4.73333 70.0575 4.53333C69.9575 4.43333 69.8575 4.73333 69.7575 4.53333C69.5575 5.13333 69.4575 5.13333 69.3575 5.13333C69.2575 5.03333 69.1575 4.93333 69.0575 5.13333C68.9575 5.23333 68.8575 5.33333 68.7575 5.13333C68.6575 5.43333 68.5575 5.33333 68.4575 5.13333C68.3575 5.13333 68.2575 5.03333 68.1575 5.13333C68.0575 5.13333 67.9575 5.23333 67.8575 5.13333C67.7575 5.03333 67.6575 4.93333 67.5575 5.13333C67.4575 5.33333 67.3575 5.03333 67.2575 5.13333C67.1575 4.83333 67.0575 5.23333 66.9575 5.13333C66.8575 5.13333 66.7575 5.03333 66.6575 5.13333C66.5575 5.13333 66.4575 5.23333 66.3575 5.13333C66.2575 5.53333 66.1575 5.03333 66.0575 5.13333C65.9575 4.93333 65.8575 5.13333 65.7575 5.13333C65.6575 5.23333 65.5575 4.93333 65.5575 5.13333C65.4575 5.13333 65.3575 5.23333 65.3575 5.13333C65.2575 5.33333 65.1575 4.93333 65.1575 5.13333C65.0575 5.13333 65.0575 5.13333 64.9575 5.13333C64.8575 4.83333 64.8575 5.03333 64.7575 5.13333C64.6575 5.13333 64.6575 5.33333 64.5575 5.13333C64.4575 5.13333 64.4575 4.93333 64.3575 5.13333C64.2575 5.13333 64.2575 4.63333 64.1575 5.13333C64.0575 5.23333 64.0575 4.83333 63.9575 5.13333C63.8575 5.43333 63.8575 5.13333 63.7575 5.13333C63.6575 5.13333 63.6575 5.13333 63.6575 5.13333C63.2575 5.03333 62.9575 4.83333 62.9575 4.63333C62.9575 4.43333 63.2575 4.23333 63.7575 4.13333C63.8575 4.13333 63.8575 3.93333 63.9575 4.13333C64.0575 4.13333 64.0575 3.93333 64.1575 4.13333C64.2575 3.83333 64.2575 4.03333 64.3575 4.13333C64.4575 4.13333 64.4575 4.23333 64.5575 4.13333C64.6575 3.93333 64.6575 4.23333 64.7575 4.13333C64.8575 4.33333 64.8575 4.23333 64.9575 4.13333C65.0575 4.33333 65.0575 4.13333 65.1575 4.13333C65.2575 4.43333 65.3575 4.23333 65.3575 4.13333C65.4575 4.03333 65.5575 4.13333 65.5575 4.13333C65.6575 4.23333 65.7575 4.03333 65.7575 4.13333C65.8575 4.03333 65.9575 3.93333 66.0575 4.13333C66.1575 4.03333 66.2575 4.13333 66.3575 4.13333C66.4575 4.03333 66.5575 4.13333 66.6575 4.13333C66.7575 4.03333 66.8575 4.43333 66.9575 4.13333C67.0575 4.13333 67.1575 4.13333 67.2575 4.13333C67.3575 4.13333 67.4575 4.23333 67.5575 4.13333C67.6575 4.43333 67.7575 4.23333 67.8575 4.13333C67.9575 4.03333 68.0575 4.13333 68.1575 4.13333C68.2575 4.13333 68.3575 4.13333 68.4575 4.13333C68.5575 4.03333 68.6575 4.23333 68.7575 4.13333C68.8575 4.03333 68.9575 4.23333 69.0575 4.13333C69.1575 4.03333 69.2575 4.03333 69.3575 4.13333C69.4575 4.13333 69.5575 4.43333 69.6575 4.13333C69.7575 4.03333 69.8575 3.73333 69.9575 4.13333C70.0575 4.03333 70.1575 4.33333 70.1575 4.13333C70.2575 4.43333 70.3575 4.13333 70.3575 4.13333C70.4575 4.23333 70.5575 4.33333 70.5575 4.13333C70.6575 4.03333 70.6575 4.23333 70.7575 4.13333C70.8575 3.93333 70.8575 4.33333 70.9575 4.13333C71.0575 4.13333 71.0575 4.13333 71.1575 4.13333C71.2575 3.73333 71.2575 4.13333 71.3575 4.13333C71.4575 4.23333 71.4575 3.83333 71.5575 4.13333C71.6575 3.83333 71.6575 4.13333 71.7575 4.13333C71.8575 4.23333 71.8575 4.03333 71.9575 4.13333C72.0575 3.93333 72.0575 4.23333 72.0575 4.13333C72.0575 4.23333 72.1575 4.13333 72.1575 4.13333H72.3575C72.5575 4.03333 72.7575 4.13333 72.7575 4.23333Z" fill="#73523F"/>
<path d="M69.8575 29.9333C69.8575 30.0333 69.5575 30.1333 69.1575 30.2333C69.0575 30.2333 68.9575 30.2333 68.8575 30.2333C68.7575 30.2333 68.6575 30.3333 68.5575 30.2333C68.4575 30.1333 68.3575 30.5333 68.2575 30.2333C68.1575 30.1333 68.0575 30.2333 67.8575 30.2333C67.7575 30.3333 67.5575 30.1333 67.4575 30.2333C67.3575 30.5333 67.1575 29.9333 67.0575 30.2333C66.9575 30.3333 66.7575 30.3333 66.5575 30.2333C66.3575 30.0333 66.2575 30.2333 66.0575 30.2333C65.8575 29.9333 65.7575 30.1333 65.5575 30.2333C65.3575 29.8333 65.2575 29.9333 65.0575 30.2333C64.8575 30.2333 64.6575 30.1333 64.4575 30.2333C64.2575 30.2333 64.0575 30.3333 63.8575 30.2333C63.6575 30.4333 63.4575 30.4333 63.2575 30.2333C63.0575 30.5333 62.8575 30.4333 62.6575 30.2333C62.4575 30.1333 62.2575 30.4333 62.0575 30.2333C61.8575 30.2333 61.6575 30.3333 61.3575 30.2333C61.1575 30.1333 60.9575 30.0333 60.6575 30.2333C60.4575 30.3333 60.1575 30.4333 59.9575 30.2333C59.7575 30.5333 59.4575 30.4333 59.2575 30.2333C59.0575 30.2333 58.7575 30.1333 58.5575 30.2333C58.3575 30.2333 58.0575 30.3333 57.8575 30.2333C57.6575 30.1333 57.3575 30.0333 57.1575 30.2333C56.9575 30.4333 56.6575 30.1333 56.4575 30.2333C56.2575 29.9333 55.9575 30.3333 55.7575 30.2333C55.5575 30.2333 55.2575 30.1333 55.0575 30.2333C54.8575 30.2333 54.5575 30.3333 54.3575 30.2333C54.1575 30.6333 53.9575 30.1333 53.6575 30.2333C53.4575 30.0333 53.2575 30.2333 53.0575 30.2333C52.8575 30.3333 52.6575 30.0333 52.4575 30.2333C52.2575 30.2333 52.0575 30.3333 51.8575 30.2333C51.6575 30.4333 51.4575 30.0333 51.2575 30.2333C51.0575 30.2333 50.8575 30.2333 50.6575 30.2333C50.4575 29.9333 50.2575 30.1333 50.1575 30.2333C49.9575 30.2333 49.8575 30.4333 49.6575 30.2333C49.4575 30.2333 49.3575 30.0333 49.1575 30.2333C48.9575 30.2333 48.8575 29.7333 48.6575 30.2333C48.5575 30.3333 48.3575 29.9333 48.2575 30.2333C48.1575 30.5333 47.9575 30.2333 47.8575 30.2333C47.7575 30.2333 47.6575 30.2333 47.4575 30.2333C46.4575 30.1333 45.8575 29.9333 45.8575 29.7333C45.8575 29.5333 46.5575 29.3333 47.8575 29.2333C47.9575 29.2333 48.1575 29.0333 48.2575 29.2333C48.3575 29.2333 48.5575 29.0333 48.6575 29.2333C48.7575 28.9333 48.9575 29.1333 49.1575 29.2333C49.3575 29.2333 49.4575 29.3333 49.6575 29.2333C49.8575 29.0333 49.9575 29.3333 50.1575 29.2333C50.3575 29.4333 50.4575 29.3333 50.6575 29.2333C50.8575 29.4333 51.0575 29.2333 51.2575 29.2333C51.4575 29.5333 51.6575 29.3333 51.8575 29.2333C52.0575 29.1333 52.2575 29.2333 52.4575 29.2333C52.6575 29.3333 52.8575 29.1333 53.0575 29.2333C53.2575 29.1333 53.4575 29.0333 53.6575 29.2333C53.8575 29.1333 54.0575 29.2333 54.3575 29.2333C54.5575 29.1333 54.7575 29.2333 55.0575 29.2333C55.2575 29.1333 55.5575 29.5333 55.7575 29.2333C55.9575 29.2333 56.2575 29.2333 56.4575 29.2333C56.6575 29.2333 56.9575 29.3333 57.1575 29.2333C57.3575 29.5333 57.6575 29.3333 57.8575 29.2333C58.0575 29.1333 58.3575 29.2333 58.5575 29.2333C58.7575 29.2333 59.0575 29.2333 59.2575 29.2333C59.4575 29.1333 59.7575 29.3333 59.9575 29.2333C60.1575 29.1333 60.4575 29.3333 60.6575 29.2333C60.8575 29.1333 61.0575 29.1333 61.3575 29.2333C61.5575 29.2333 61.7575 29.5333 62.0575 29.2333C62.2575 29.1333 62.4575 28.8333 62.6575 29.2333C62.8575 29.1333 63.0575 29.4333 63.2575 29.2333C63.4575 29.5333 63.6575 29.2333 63.8575 29.2333C64.0575 29.3333 64.2575 29.4333 64.4575 29.2333C64.6575 29.1333 64.8575 29.3333 65.0575 29.2333C65.2575 29.0333 65.4575 29.4333 65.5575 29.2333C65.7575 29.2333 65.8575 29.2333 66.0575 29.2333C66.2575 28.8333 66.3575 29.2333 66.5575 29.2333C66.7575 29.3333 66.8575 28.9333 67.0575 29.2333C67.1575 28.9333 67.3575 29.2333 67.4575 29.2333C67.5575 29.3333 67.7575 29.1333 67.8575 29.2333C67.9575 29.0333 68.0575 29.3333 68.2575 29.2333C68.3575 29.3333 68.4575 29.2333 68.5575 29.2333C68.6575 29.2333 68.7575 29.2333 68.8575 29.2333C68.9575 29.2333 69.0575 29.2333 69.1575 29.2333C69.6575 29.7333 69.8575 29.8333 69.8575 29.9333Z" fill="#73523F"/>
<path d="M28.6575 16.3333C28.6575 16.4333 28.5575 16.5333 28.2575 16.6333H28.1575C28.0575 16.6333 28.0575 16.7333 27.9575 16.6333C27.8575 16.5333 27.8575 16.9333 27.7575 16.6333C27.6575 16.5333 27.6575 16.6333 27.5575 16.6333C27.4575 16.7333 27.4575 16.5333 27.3575 16.6333C27.2575 16.9333 27.1575 16.3333 27.1575 16.6333C27.0575 16.7333 26.9575 16.7333 26.8575 16.6333C26.7575 16.4333 26.6575 16.6333 26.5575 16.6333C26.4575 16.3333 26.3575 16.5333 26.2575 16.6333C26.1575 16.2333 26.0575 16.3333 25.9575 16.6333C25.8575 16.6333 25.7575 16.5333 25.6575 16.6333C25.5575 16.6333 25.4575 16.7333 25.3575 16.6333C25.2575 16.8333 25.1575 16.8333 25.0575 16.6333C24.9575 16.9333 24.8575 16.8333 24.6575 16.6333C24.5575 16.5333 24.4575 16.8333 24.2575 16.6333C24.1575 16.6333 24.0575 16.7333 23.8575 16.6333C23.7575 16.5333 23.5575 16.4333 23.4575 16.6333C23.3575 16.7333 23.1575 16.8333 23.0575 16.6333C22.9575 16.9333 22.7575 16.8333 22.6575 16.6333C22.5575 16.6333 22.3575 16.4333 22.2575 16.6333C22.1575 16.6333 21.9575 16.7333 21.8575 16.6333C21.7575 16.5333 21.5575 16.4333 21.4575 16.6333C21.3575 16.8333 21.1575 16.5333 21.0575 16.6333C20.9575 16.3333 20.7575 16.7333 20.6575 16.6333C20.5575 16.6333 20.3575 16.5333 20.2575 16.6333C20.1575 16.6333 19.9575 16.7333 19.8575 16.6333C19.7575 17.0333 19.5575 16.5333 19.4575 16.6333C19.3575 16.4333 19.2575 16.6333 19.0575 16.6333C18.9575 16.7333 18.8575 16.4333 18.6575 16.6333C18.5575 16.6333 18.4575 16.7333 18.3575 16.6333C18.2575 16.8333 18.1575 16.4333 18.0575 16.6333C17.9575 16.6333 17.8575 16.6333 17.7575 16.6333C17.6575 16.3333 17.5575 16.5333 17.4575 16.6333C17.3575 16.6333 17.2575 16.8333 17.1575 16.6333C17.0575 16.6333 16.9575 16.4333 16.8575 16.6333C16.7575 16.6333 16.6575 16.2333 16.5575 16.6333C16.4575 16.7333 16.3575 16.3333 16.3575 16.6333C16.2575 16.9333 16.1575 16.6333 16.1575 16.6333C16.0575 16.6333 16.0575 16.6333 15.9575 16.6333C15.3575 16.5333 15.0575 16.3333 15.0575 16.1333C15.0575 15.9333 15.4575 15.7333 16.1575 15.6333C16.2575 15.6333 16.2575 15.4333 16.3575 15.6333C16.4575 15.6333 16.5575 15.4333 16.5575 15.6333C16.6575 15.3333 16.7575 15.5333 16.8575 15.6333C16.9575 15.6333 17.0575 15.7333 17.1575 15.6333C17.2575 15.4333 17.3575 15.7333 17.4575 15.6333C17.5575 15.8333 17.6575 15.7333 17.7575 15.6333C17.8575 15.8333 17.9575 15.6333 18.0575 15.6333C18.1575 15.9333 18.2575 15.7333 18.3575 15.6333C18.4575 15.5333 18.5575 15.6333 18.6575 15.6333C18.7575 15.6333 18.8575 15.5333 19.0575 15.6333C19.1575 15.5333 19.2575 15.4333 19.4575 15.6333C19.5575 15.5333 19.6575 15.6333 19.8575 15.6333C19.9575 15.5333 20.1575 15.6333 20.2575 15.6333C20.3575 15.5333 20.5575 15.9333 20.6575 15.6333C20.7575 15.6333 20.9575 15.6333 21.0575 15.6333C21.1575 15.6333 21.3575 15.7333 21.4575 15.6333C21.5575 15.9333 21.7575 15.7333 21.8575 15.6333C21.9575 15.5333 22.1575 15.6333 22.2575 15.6333C22.3575 15.6333 22.5575 15.6333 22.6575 15.6333C22.7575 15.5333 22.9575 15.7333 23.0575 15.6333C23.1575 15.5333 23.3575 15.7333 23.4575 15.6333C23.5575 15.5333 23.7575 15.5333 23.8575 15.6333C23.9575 15.6333 24.1575 15.9333 24.2575 15.6333C24.3575 15.5333 24.4575 15.2333 24.6575 15.6333C24.7575 15.5333 24.8575 15.8333 25.0575 15.6333C25.1575 15.9333 25.2575 15.6333 25.3575 15.6333C25.4575 15.7333 25.5575 15.8333 25.6575 15.6333C25.7575 15.5333 25.8575 15.7333 25.9575 15.6333C26.0575 15.4333 26.1575 15.8333 26.2575 15.6333C26.3575 15.6333 26.4575 15.6333 26.5575 15.6333C26.6575 15.2333 26.7575 15.6333 26.8575 15.6333C26.9575 15.7333 27.0575 15.3333 27.1575 15.6333C27.2575 15.3333 27.3575 15.6333 27.3575 15.6333C27.4575 15.7333 27.5575 15.5333 27.5575 15.6333C27.6575 15.4333 27.6575 15.7333 27.7575 15.6333C27.8575 15.7333 27.8575 15.6333 27.9575 15.6333C28.0575 15.6333 28.0575 15.6333 28.1575 15.6333C28.2575 15.6333 28.2575 15.6333 28.2575 15.6333C28.5575 16.1333 28.6575 16.2333 28.6575 16.3333Z" fill="#73523F"/>
<path d="M34.0575 24.9333C34.1575 24.9333 34.2575 26.5333 34.3575 29.4333C34.3575 29.9333 34.3575 30.4333 34.3575 31.0333C34.3575 31.6333 34.4575 32.1333 34.3575 32.8333C34.2575 33.1333 34.3575 33.4333 34.4575 33.8333C34.4575 34.0333 34.5575 34.1333 34.5575 34.3333C34.5575 34.4333 34.5575 34.5333 34.5575 34.5333C34.5575 34.5333 34.5575 34.6333 34.4575 34.6333C34.4575 34.7333 34.4575 34.8333 34.4575 34.9333V35.0333C34.5575 35.0333 34.5575 35.0333 34.6575 35.0333C34.7575 35.0333 34.8575 35.0333 35.0575 35.0333H35.2575C35.3575 35.0333 35.4575 35.0333 35.5575 35.0333C35.7575 35.0333 35.9575 35.1333 36.1575 35.1333C36.3575 35.2333 36.5575 35.2333 36.7575 35.3333C36.8575 35.3333 36.9575 35.4333 37.0575 35.4333C37.1575 35.4333 37.2575 35.5333 37.3575 35.5333C37.5575 35.6333 37.7575 35.6333 37.9575 35.7333C38.0575 35.7333 38.1575 35.7333 38.2575 35.7333C38.3575 35.7333 38.4575 35.8333 38.5575 35.8333C38.7575 35.9333 38.9575 36.0333 39.1575 36.2333C39.3575 36.3333 39.5575 36.5333 39.6575 36.6333C39.7575 36.7333 39.8575 36.7333 39.9575 36.7333C40.0575 36.7333 40.1575 36.8333 40.2575 36.8333C40.4575 36.9333 40.6575 37.0333 40.8575 37.2333C41.0575 37.3333 41.2575 37.5333 41.4575 37.6333C41.5575 37.7333 41.6575 37.8333 41.7575 37.8333C41.8575 37.9333 41.9575 38.0333 42.0575 38.1333C42.2575 38.3333 42.3575 38.4333 42.5575 38.6333C42.7575 39.0333 43.1575 39.4333 43.4575 39.8333C43.7575 40.2333 44.0575 40.6333 44.3575 41.0333C44.4575 41.5333 44.6575 42.0333 44.8575 42.5333C45.0575 43.0333 45.2575 43.5333 45.5575 44.0333C45.4575 44.1333 45.4575 44.3333 45.4575 44.5333V44.6333H45.5575C45.6575 44.6333 45.6575 44.6333 45.7575 44.6333H46.0575C46.1575 44.6333 46.3575 44.6333 46.4575 44.5333C46.7575 44.5333 46.9575 44.4333 47.2575 44.3333C47.7575 44.3333 48.3575 44.3333 48.9575 44.3333H49.2575C49.3575 44.3333 49.3575 44.3333 49.3575 44.3333C49.4575 44.4333 49.4575 44.1333 49.4575 44.0333V43.6333L49.5575 43.4333C49.5575 43.3333 49.6575 43.1333 49.6575 43.0333L49.8575 42.6333C49.9575 42.3333 50.0575 42.0333 50.1575 41.7333C50.2575 41.4333 50.4575 41.1333 50.5575 40.9333C50.9575 39.7333 51.7575 38.6333 52.8575 37.8333C53.6575 36.7333 54.8575 36.0333 56.1575 35.5333C56.3575 35.4333 56.4575 35.4333 56.6575 35.3333C56.8575 35.2333 56.9575 35.2333 57.1575 35.1333C57.4575 35.0333 57.7575 34.8333 58.1575 34.7333C58.4575 34.6333 58.8575 34.5333 59.1575 34.4333C59.4575 34.3333 59.8575 34.3333 60.1575 34.3333C61.5575 34.2333 62.9575 34.2333 64.3575 34.6333C64.6575 34.7333 65.0575 34.8333 65.3575 35.0333C65.5575 35.1333 65.6575 35.1333 65.8575 35.2333L66.3575 35.4333C66.5575 35.5333 66.6575 35.5333 66.8575 35.6333C67.0575 35.7333 67.1575 35.8333 67.3575 35.8333C67.5575 35.9333 67.6575 35.9333 67.8575 36.0333C68.0575 36.1333 68.1575 36.2333 68.3575 36.2333C69.5575 37.0333 70.7575 38.0333 71.5575 39.3333C71.6575 39.4333 71.6575 39.4333 71.7575 39.5333C71.8575 39.6333 71.8575 39.6333 71.9575 39.7333C72.0575 39.8333 72.1575 40.0333 72.2575 40.2333C72.3575 40.3333 72.3575 40.4333 72.4575 40.4333L72.5575 40.7333C72.6575 40.9333 72.7575 41.0333 72.8575 41.2333C72.9575 41.4333 72.9575 41.6333 73.0575 41.7333C73.1575 41.9333 73.1575 42.1333 73.2575 42.3333C73.3575 42.5333 73.3575 42.7333 73.3575 42.9333L73.4575 43.5333V43.7333C73.4575 43.8333 73.4575 43.8333 73.4575 43.9333H73.5575C74.2575 43.9333 74.9575 43.9333 75.7575 43.9333C76.4575 43.9333 77.1575 43.9333 77.9575 43.9333C78.3575 43.9333 78.6575 43.9333 79.0575 43.9333C79.4575 43.9333 79.8575 43.9333 80.0575 43.9333C80.6575 43.9333 81.3575 43.8333 81.9575 43.6333C82.5575 43.4333 83.0575 43.0333 83.4575 42.5333C83.8575 42.0333 84.2575 41.5333 84.5575 41.0333C84.8575 40.5333 85.0575 39.9333 85.1575 39.3333V39.1333C85.1575 39.0333 85.1575 38.9333 85.1575 38.9333C85.1575 38.8333 85.1575 38.7333 85.1575 38.7333V38.4333C85.1575 38.0333 85.1575 37.7333 85.1575 37.3333C85.1575 36.6333 85.0575 35.9333 85.0575 35.2333C85.0575 34.9333 85.0575 34.5333 85.0575 34.2333V33.7333C85.0575 33.5333 85.0575 33.4333 85.0575 33.2333C85.0575 32.9333 85.0575 32.6333 84.9575 32.3333C84.9575 32.1333 84.8575 32.0333 84.8575 31.8333C84.8575 31.7333 84.7575 31.5333 84.6575 31.4333C84.4576 30.8333 84.2575 30.3333 83.9575 29.7333C83.8575 29.6333 83.7575 29.4333 83.7575 29.3333L83.6575 29.1333C83.6575 29.0333 83.5575 29.0333 83.5575 28.9333C83.4575 28.8333 83.3575 28.7333 83.2575 28.5333C83.2575 28.4333 83.1575 28.4333 83.1575 28.3333L83.0575 28.1333C82.9575 28.0333 82.7575 27.9333 82.6575 27.8333C82.5575 27.7333 82.4575 27.6333 82.2575 27.5333C82.1575 27.4333 82.0575 27.3333 81.9575 27.2333C81.8575 27.1333 81.7575 27.0333 81.6575 26.9333L81.4575 26.7333C81.3575 26.7333 81.3575 26.6333 81.2575 26.6333C81.1575 26.5333 81.0575 26.4333 80.8575 26.3333L80.6575 26.1333L80.4575 26.0333C80.3575 25.9333 80.1575 25.9333 80.0575 25.8333C79.9575 25.7333 79.7575 25.7333 79.6575 25.6333L79.7575 26.1333C79.6575 26.1333 79.6575 26.0333 79.5575 26.0333C79.4575 26.0333 79.2575 25.9333 79.1575 25.9333L78.9575 25.8333C78.8575 25.8333 78.8575 25.8333 78.7575 25.8333C78.4575 25.8333 78.1575 25.7333 77.8575 25.7333C77.5575 25.7333 77.2575 25.7333 76.9575 25.7333C75.6575 25.8333 74.4575 25.5333 73.2575 25.7333C72.0575 25.7333 70.8575 25.8333 69.6575 25.7333C68.4576 25.9333 67.3575 25.5333 66.1575 25.7333C65.0575 25.7333 63.9575 25.7333 62.8575 25.7333C61.7575 25.4333 60.6575 25.6333 59.6575 25.7333C58.6575 25.7333 57.5575 25.9333 56.6575 25.7333C55.6575 25.7333 54.7575 25.5333 53.7575 25.7333C52.8575 25.7333 51.9575 25.2333 51.0575 25.7333C50.1575 25.8333 49.3575 25.4333 48.5575 25.7333C47.7575 26.0333 46.9575 25.7333 46.1575 25.7333C45.3575 25.7333 44.6575 25.7333 43.9575 25.7333C40.8575 25.6333 38.3575 25.6333 36.7575 25.5333C34.9575 25.0333 34.0575 24.9333 34.0575 24.9333C34.0575 24.8333 35.1575 24.7333 37.2575 24.6333C39.2575 24.5333 42.2575 24.4333 46.0575 24.4333C46.8575 24.4333 47.5575 24.2333 48.4575 24.4333C49.2575 24.4333 50.1575 24.2333 50.9575 24.4333C51.8575 24.1333 52.7575 24.3333 53.6575 24.4333C54.5575 24.4333 55.5575 24.5333 56.5575 24.4333C57.5575 24.2333 58.5575 24.5333 59.5575 24.4333C60.5575 24.6333 61.6575 24.5333 62.7575 24.4333C63.8575 24.6333 64.9575 24.4333 66.0575 24.4333C67.1575 24.7333 68.3575 24.5333 69.5575 24.4333C70.7575 24.3333 71.9576 24.4333 73.1575 24.4333C74.3575 24.5333 75.6575 24.3333 76.8575 24.4333H77.7575C78.1575 24.4333 78.4575 24.4333 78.8575 24.5333C78.9575 24.5333 79.0575 24.5333 79.1575 24.5333L79.4575 24.6333C79.6575 24.6333 79.7575 24.7333 79.9575 24.7333C80.0575 24.7333 80.1575 24.8333 80.2575 24.8333L80.4575 24.9333C80.6575 25.0333 80.7575 25.1333 80.9575 25.1333C82.3575 25.6333 83.4575 26.5333 84.4575 27.6333L84.6575 27.8333C84.7575 27.9333 84.7575 27.9333 84.8575 28.0333C84.9575 28.1333 85.0575 28.3333 85.1575 28.4333C85.2575 28.5333 85.2575 28.5333 85.3575 28.6333L85.4575 28.8333C85.5575 29.0333 85.6575 29.1333 85.7575 29.3333C86.0575 30.0333 86.3575 30.7333 86.5575 31.4333C86.6575 31.6333 86.6575 31.8333 86.6575 31.9333C86.6575 32.1333 86.6575 32.3333 86.7575 32.5333C86.8575 32.9333 86.7575 33.3333 86.7575 33.6333C86.7575 33.8333 86.7575 34.0333 86.7575 34.1333C86.7575 34.3333 86.7575 34.4333 86.7575 34.6333C86.7575 34.9333 86.7575 35.3333 86.8575 35.6333C86.8575 36.3333 86.8575 37.0333 86.8575 37.7333C86.8575 38.1333 86.8575 38.4333 86.8575 38.8333V40.1333C86.7575 40.9333 86.4575 41.7333 86.0575 42.4333C85.6575 43.1333 85.1575 43.8333 84.6575 44.4333C83.9576 44.9333 83.2575 45.3333 82.5575 45.6333C81.8575 45.9333 81.0575 46.2333 80.1575 46.3333C79.7575 46.4333 79.3575 46.4333 78.9575 46.4333C78.5575 46.4333 78.2575 46.4333 77.8575 46.4333C77.1575 46.4333 76.3575 46.4333 75.6575 46.4333C74.9576 46.4333 74.2575 46.4333 73.4575 46.4333C73.1575 46.4333 72.8575 46.4333 72.5575 46.4333H72.0575C71.8575 46.4333 71.6575 46.5333 71.6575 46.2333C71.5575 45.9333 71.5575 45.6333 71.4575 45.3333L71.3575 44.9333V44.5333C71.2575 44.3333 71.2575 44.2333 71.1575 44.0333C71.0575 43.8333 71.0575 43.7333 71.0575 43.5333L70.8575 43.0333C70.7575 42.8333 70.7575 42.7333 70.6575 42.5333L70.3575 41.9333C70.3575 41.8333 70.2575 41.8333 70.2575 41.7333C70.1575 41.6333 70.0575 41.4333 69.9575 41.3333L69.8575 41.1333L69.6575 40.9333C69.5575 40.8333 69.4575 40.7333 69.3575 40.5333C69.3575 40.4333 69.2575 40.4333 69.2575 40.3333L69.3575 40.0333C69.1575 39.8333 68.9575 39.5333 68.7575 39.3333C68.5575 39.1333 68.3575 38.8333 68.0575 38.6333C67.8575 38.4333 67.5575 38.2333 67.2575 38.1333C66.1575 37.5333 65.0575 37.0333 63.8575 36.6333C63.5575 36.5333 63.2575 36.4333 62.9575 36.4333L62.4575 36.3333C62.3575 36.3333 62.2575 36.3333 62.2575 36.3333H62.0575C61.8575 36.3333 61.7575 36.3333 61.5575 36.3333C61.3575 36.3333 61.2575 36.3333 61.0575 36.3333C60.7575 36.3333 60.4575 36.4333 60.1575 36.4333C59.8575 36.5333 59.5575 36.5333 59.2575 36.6333C58.9575 36.7333 58.6575 36.8333 58.4575 36.9333C58.1575 37.0333 57.9575 37.1333 57.6575 37.2333C57.5575 37.1333 57.4575 37.1333 57.3575 37.1333C57.2575 37.1333 57.0575 37.2333 56.9575 37.2333L56.5575 37.4333C56.4575 37.5333 56.2575 37.5333 56.1575 37.6333C55.8575 37.7333 55.6575 37.9333 55.3575 38.0333C55.2575 38.1333 55.0575 38.1333 54.9575 38.2333C54.8575 38.3333 54.7575 38.4333 54.6575 38.5333C54.5575 38.6333 54.4575 38.7333 54.3575 38.8333C54.2575 38.9333 54.1575 39.0333 54.0575 39.1333C53.9575 39.2333 53.8575 39.3333 53.6575 39.3333C53.5575 39.4333 53.4575 39.5333 53.3575 39.6333C53.1575 39.8333 52.9575 40.0333 52.8575 40.3333L52.5575 40.9333C52.5575 41.0333 52.4575 41.0333 52.4575 41.1333C52.3575 41.4333 52.1575 41.6333 52.0575 41.8333C51.9575 42.0333 51.7575 42.3333 51.6575 42.5333C51.5575 42.7333 51.4575 43.0333 51.3575 43.2333C51.3575 43.3333 51.2575 43.3333 51.2575 43.4333L51.1575 43.6333C51.1575 43.7333 51.0575 43.9333 51.0575 44.0333V44.4333C51.0575 44.6333 50.9575 44.8333 50.9575 45.1333C50.9575 45.3333 50.8575 45.6333 50.8575 45.8333V46.0333H50.3575C50.0575 46.0333 49.8575 46.0333 49.5575 46.0333H49.0575C48.4575 46.0333 47.9575 45.9333 47.3575 46.0333C47.0575 46.0333 46.8575 46.0333 46.5575 46.0333C46.4575 46.0333 46.2575 46.0333 46.1575 46.0333H45.5575C45.3575 46.0333 45.1575 46.0333 44.9575 46.0333H44.6575V45.7333C44.3575 45.1333 44.3575 44.8333 44.2575 44.4333C44.0575 43.4333 43.6575 42.6333 43.2575 41.7333C42.8575 41.4333 42.6575 41.0333 42.3575 40.6333C42.1575 40.2333 41.9575 39.8333 41.6575 39.4333C41.5575 39.2333 41.3575 39.1333 41.1575 38.9333L40.8575 38.7333C40.7575 38.6333 40.6575 38.6333 40.5575 38.5333C40.3575 38.4333 40.2575 38.3333 40.0575 38.1333C39.8575 38.0333 39.7575 37.8333 39.6575 37.6333C39.5575 37.6333 39.4575 37.5333 39.3575 37.5333C39.2575 37.5333 39.1575 37.4333 39.0575 37.4333C38.8575 37.3333 38.6575 37.2333 38.5575 37.1333C38.3575 37.0333 38.2575 36.9333 38.0575 36.8333C37.9575 36.7333 37.8575 36.7333 37.8575 36.6333C37.7575 36.5333 37.6575 36.5333 37.5575 36.5333C37.3575 36.4333 37.1575 36.3333 37.0575 36.3333C36.9575 36.3333 36.8575 36.2333 36.7575 36.2333C36.6575 36.2333 36.5575 36.2333 36.4575 36.1333C36.2575 36.1333 36.0575 36.0333 35.9575 36.0333C35.7575 36.0333 35.5575 35.9333 35.4575 35.8333C35.3575 35.8333 35.2575 35.8333 35.1575 35.8333C35.0575 35.8333 34.9575 35.8333 34.8575 35.8333C34.5575 35.8333 34.3575 35.7333 34.0575 35.7333C33.9575 35.7333 33.8575 35.7333 33.6575 35.6333H33.5575V35.3333C33.5575 35.0333 33.5575 34.8333 33.5575 34.5333C33.5575 34.4333 33.5575 34.2333 33.5575 34.1333C33.5575 34.0333 33.5575 33.9333 33.5575 33.8333C33.5575 33.6333 33.5575 33.5333 33.5575 33.3333C33.5575 33.0333 33.5575 32.6333 33.5575 32.3333C33.5575 31.7333 33.5575 31.1333 33.5575 30.5333C33.5575 29.9333 33.5575 29.4333 33.5575 28.9333C33.8575 26.5333 33.9575 24.9333 34.0575 24.9333Z" fill="#73523F"/>
<path d="M43.4575 19.7333C43.5575 19.7333 43.6575 20.1333 43.7575 20.8333C43.7575 20.9333 43.7575 21.1333 43.7575 21.2333C43.7575 21.3333 43.8575 21.5333 43.7575 21.6333C43.6575 21.8333 44.0575 21.9333 43.7575 22.1333C43.6575 22.3333 43.7575 22.5333 43.7575 22.6333C43.8575 22.8333 43.6575 23.0333 43.7575 23.2333C43.8575 23.3333 43.8575 23.4333 43.7575 23.5333C43.7575 23.6333 43.6575 23.6333 43.6575 23.7333C43.6575 23.7333 43.6575 23.8333 43.7575 23.8333C43.8575 23.9333 43.8575 24.0333 43.7575 24.1333C43.6575 24.2333 43.6575 24.2333 43.6575 24.3333C43.7575 24.3333 43.9575 24.2333 43.9575 24.2333C43.9575 24.3333 44.0575 24.4333 44.0575 24.4333C44.0575 24.4333 44.0575 24.4333 44.1575 24.4333C44.2575 24.4333 44.2575 24.3333 44.3575 24.3333C44.6575 24.7333 44.8575 24.6333 45.1575 24.3333C45.4575 24.3333 45.7575 24.4333 45.9575 24.3333C46.2575 24.3333 46.5575 24.2333 46.8575 24.3333C47.1575 24.1333 47.4575 24.1333 47.7575 24.3333C48.0575 24.0333 48.3575 24.1333 48.6575 24.3333C48.9575 24.4333 49.2575 24.1333 49.6575 24.3333C49.9575 24.3333 50.3575 24.2333 50.6575 24.3333C50.9575 24.4333 51.3575 24.5333 51.6575 24.3333C51.9575 24.2333 52.3575 24.1333 52.6575 24.3333C53.0575 24.0333 53.3575 24.1333 53.7575 24.3333C54.1575 24.3333 54.4575 24.5333 54.8575 24.3333C55.0575 24.3333 54.9575 24.2333 55.0575 24.3333H55.1575C55.1575 24.3333 55.1575 24.3333 55.1575 24.2333C55.1575 24.2333 55.1575 24.2333 55.1575 24.1333C54.9575 23.7333 55.2575 23.4333 55.1575 23.0333C55.4575 22.6333 55.0575 22.3333 55.1575 21.9333C55.1575 21.7333 55.1575 21.5333 55.1575 21.4333C55.1575 21.3333 55.1575 21.2333 55.1575 21.1333C55.1575 21.1333 55.1575 21.1333 55.1575 21.0333C55.1575 21.0333 55.0575 21.0333 55.1575 20.9333C54.9575 21.1333 55.0575 21.1333 55.0575 21.0333V20.9333H54.9575C54.6575 20.7333 54.2575 20.9333 53.9575 20.9333C53.6575 21.0333 53.3575 20.7333 53.0575 20.9333C52.7575 20.9333 52.4575 21.0333 52.1575 20.9333C51.8575 21.1333 51.5575 20.7333 51.2575 20.9333C50.9575 20.9333 50.6575 20.9333 50.4575 20.9333C50.1575 20.6333 49.9575 20.8333 49.6575 20.9333C49.3575 20.9333 49.1575 21.1333 48.8575 20.9333C48.6575 20.9333 48.3575 20.7333 48.1575 20.9333C47.9575 20.9333 47.6575 20.5333 47.4575 20.9333C47.2575 21.0333 47.0575 20.6333 46.8575 20.9333C46.6575 21.2333 46.4575 20.9333 46.2575 20.9333C46.0575 20.9333 45.8575 20.9333 45.7575 20.9333C44.3575 20.0333 43.4575 19.9333 43.4575 19.7333C43.4575 19.5333 44.5575 19.3333 46.4575 19.2333C46.6575 19.2333 46.8575 19.0333 47.0575 19.2333C47.2575 19.2333 47.4575 19.0333 47.6575 19.2333C47.8575 18.9333 48.1575 19.1333 48.3575 19.2333C48.5575 19.2333 48.8575 19.3333 49.0575 19.2333C49.2575 19.0333 49.5575 19.3333 49.8575 19.2333C50.1575 19.4333 50.3575 19.3333 50.6575 19.2333C50.9575 19.4333 51.2575 19.2333 51.4575 19.2333C51.7575 19.5333 52.0575 19.3333 52.3575 19.2333C52.6575 19.1333 52.9575 19.2333 53.2575 19.2333C53.5575 19.3333 53.8575 19.1333 54.1575 19.2333C54.4575 19.1333 54.7575 19.0333 55.1575 19.2333H55.2575C55.3575 19.2333 55.3575 19.2333 55.4575 19.2333C55.6575 19.2333 55.7575 19.2333 55.9575 19.2333C56.2575 19.2333 56.5575 19.2333 56.8575 19.2333C56.9575 19.2333 57.0575 19.2333 57.2575 19.2333C57.2575 19.4333 57.2575 19.7333 57.2575 20.0333C57.2575 20.3333 57.2575 20.5333 57.2575 20.8333C57.2575 20.9333 57.2575 21.0333 57.2575 21.0333V21.2333C57.2575 21.3333 57.2575 21.4333 57.1575 21.5333C57.1575 21.7333 57.0575 21.9333 57.2575 22.0333C57.2575 22.4333 57.2575 22.7333 57.2575 23.1333C57.2575 23.5333 57.1575 23.8333 57.2575 24.2333C56.9575 24.8333 57.1575 25.4333 57.2575 26.2333C56.9575 26.2333 56.5575 26.3333 56.2575 26.2333C56.0575 26.2333 55.8575 26.2333 55.7575 26.2333H55.2575C54.8575 26.2333 54.5575 26.2333 54.1575 26.2333C53.7575 26.3333 53.4575 26.1333 53.0575 26.2333C52.6575 26.3333 52.3575 26.1333 52.0575 26.2333C51.7575 26.3333 51.3575 26.3333 51.0575 26.2333C50.7575 26.2333 50.3575 25.9333 50.0575 26.2333C49.7575 26.3333 49.3575 26.6333 49.0575 26.2333C48.7575 26.3333 48.4575 26.0333 48.1575 26.2333C47.8575 25.9333 47.5575 26.2333 47.2575 26.2333C46.9575 26.1333 46.6575 26.0333 46.3575 26.2333C46.0575 26.3333 45.7575 26.1333 45.5575 26.2333C45.2575 26.4333 45.0575 26.0333 44.7575 26.2333C44.5575 26.2333 44.0575 26.2333 43.6575 26.2333C43.4575 26.3333 43.2575 26.4333 43.0575 26.4333C42.8575 26.4333 42.7575 26.3333 42.6575 26.3333C42.6575 26.1333 42.7575 26.0333 42.7575 25.9333C42.7575 25.7333 42.7575 25.6333 42.6575 25.4333C42.6575 25.2333 42.6575 25.0333 42.7575 24.8333L42.6575 24.7333C42.6575 24.7333 42.6575 24.7333 42.6575 24.6333C42.6575 24.6333 42.6575 24.6333 42.6575 24.5333C42.6575 24.4333 42.6575 24.4333 42.6575 24.3333C42.6575 24.2333 42.7575 24.1333 42.8575 24.0333C42.9575 23.8333 42.7575 23.6333 42.8575 23.4333C42.6575 23.2333 42.9575 23.0333 42.8575 22.9333C42.9575 22.7333 42.8575 22.6333 42.8575 22.4333C42.8575 22.2333 42.8575 22.1333 42.8575 22.0333C42.8575 21.9333 42.8575 21.7333 42.8575 21.6333C43.2575 20.1333 43.3575 19.7333 43.4575 19.7333Z" fill="#73523F"/>
<path d="M10.5575 18.9333C10.6575 18.9333 10.7575 20.1333 10.8575 22.3333C10.8575 22.7333 10.8575 23.1333 10.8575 23.5333C10.8575 23.9333 10.9575 24.4333 10.8575 24.8333C10.7575 25.3333 11.1575 25.8333 10.8575 26.3333C10.7575 26.8333 10.8575 27.4333 10.8575 28.0333C10.9575 28.6333 10.7575 29.2333 10.8575 29.8333C11.1575 30.4333 10.5575 31.1333 10.8575 31.7333C10.9575 32.4333 10.9575 33.1333 10.8575 33.8333C10.6575 34.5333 10.8575 35.2333 10.8575 36.0333C10.5575 36.8333 10.7575 37.5333 10.8575 38.3333C10.4575 39.1333 10.5575 39.9333 10.8575 40.7333C10.8575 41.5333 10.7575 42.4333 10.8575 43.2333C10.8575 44.1333 10.9575 44.9333 10.8575 45.8333C11.0575 46.7333 11.0575 47.6333 10.8575 48.5333C10.9575 49.0333 11.0575 49.4333 11.0575 49.9333C11.0575 50.0333 11.0575 50.1333 11.0575 50.3333V50.6333C11.0575 50.6333 10.9575 50.7333 10.9575 50.8333V50.9333C10.9575 50.9333 11.0575 50.9333 11.1575 50.9333H11.5575C11.9575 50.9333 12.4575 50.8333 12.8575 50.9333C13.8575 50.9333 14.8575 50.8333 15.8575 50.9333C16.8575 51.0333 17.8575 51.1333 18.9575 50.9333C19.4575 50.9333 19.9575 50.8333 20.5575 50.8333C20.8575 50.8333 21.0575 50.8333 21.3575 50.8333H21.7575C21.7575 50.7333 21.7575 50.7333 21.6575 50.6333V50.5333C21.6575 50.3333 21.5575 50.1333 21.5575 49.9333C21.3575 49.3333 21.3575 48.8333 21.2575 48.2333C21.2575 47.6333 21.1575 47.0333 21.1575 46.4333C21.1575 45.8333 21.2575 45.2333 21.2575 44.6333C21.3575 44.0333 21.4575 43.4333 21.7575 42.9333C22.2575 41.8333 22.8575 40.8333 23.3575 39.7333C23.6575 39.2333 24.0575 38.7333 24.4575 38.3333C24.8575 37.9333 25.3575 37.5333 25.7575 37.1333C26.2575 36.8333 26.7575 36.5333 27.2575 36.2333C27.7575 35.9333 28.2575 35.6333 28.7575 35.4333C29.2575 35.2333 29.8575 35.0333 30.3575 34.9333C30.9575 34.8333 31.4575 34.7333 31.9575 34.6333C32.0575 34.6333 32.2575 34.6333 32.3575 34.5333H32.7575V34.4333C32.7575 34.4333 32.7575 34.4333 32.7575 34.3333C32.7575 34.2333 32.7575 34.1333 32.7575 33.9333C32.3575 32.9333 32.8575 31.9333 32.7575 30.9333C32.9575 29.9333 32.7575 28.9333 32.7575 28.0333C32.6575 27.0333 32.9575 26.1333 32.7575 25.2333C32.7575 24.3333 32.6575 23.4333 32.7575 22.5333C32.6575 22.1333 32.6575 21.6333 32.7575 21.2333C32.7575 21.0333 32.8575 20.8333 32.8575 20.5333C32.8575 20.4333 32.8575 20.3333 32.8575 20.2333C32.8575 20.1333 32.8575 20.1333 32.8575 20.0333C32.8575 20.0333 32.8575 20.0333 32.8575 19.9333C32.8575 19.8333 32.8575 19.7333 32.8575 19.6333C32.7575 19.6333 32.6575 19.6333 32.6575 19.6333H32.3575C32.2575 19.6333 32.0575 19.6333 31.9575 19.6333C31.1575 19.3333 30.3575 19.5333 29.5575 19.6333C28.7575 19.6333 27.9575 19.8333 27.2575 19.6333C26.4575 19.6333 25.7575 19.4333 25.0575 19.6333C24.3575 19.6333 23.6575 19.1333 22.9575 19.6333C22.2575 19.7333 21.6575 19.3333 21.0575 19.6333C20.4575 19.9333 19.8575 19.6333 19.2575 19.6333C18.6575 19.6333 18.1575 19.6333 17.5575 19.6333C13.3575 19.2333 10.6575 19.1333 10.5575 18.9333C10.5575 18.7333 13.9575 18.5333 19.6575 18.4333C20.2575 18.4333 20.8575 18.2333 21.4575 18.4333C22.0575 18.4333 22.7575 18.2333 23.3575 18.4333C24.0575 18.1333 24.7575 18.3333 25.4575 18.4333C26.1575 18.4333 26.8575 18.5333 27.6575 18.4333C28.4575 18.2333 29.1575 18.5333 29.9575 18.4333C30.7575 18.6333 31.5575 18.5333 32.3575 18.4333C32.4575 18.4333 32.6575 18.4333 32.7575 18.5333C32.8575 18.5333 32.8575 18.5333 32.9575 18.5333H33.3575C33.8575 18.5333 34.2575 18.5333 34.7575 18.4333C34.7575 18.9333 34.7575 19.4333 34.7575 19.9333C34.7575 20.0333 34.7575 20.1333 34.7575 20.2333C34.7575 20.3333 34.7575 20.3333 34.7575 20.4333C34.7575 20.5333 34.7575 20.6333 34.7575 20.7333C34.7575 20.9333 34.7575 21.1333 34.7575 21.4333C34.7575 21.8333 34.8575 22.3333 34.9575 22.7333C35.0575 23.6333 34.9575 24.5333 34.9575 25.4333C34.8575 26.3333 35.0575 27.3333 34.9575 28.2333C35.0575 29.2333 35.1575 30.1333 34.9575 31.1333C35.0575 32.1333 34.9575 33.1333 34.9575 34.1333C34.9575 34.2333 34.9575 34.3333 34.9575 34.4333V35.1333C34.9575 35.5333 34.9575 36.0333 34.9575 36.4333C34.4575 36.4333 33.8575 36.4333 33.3575 36.4333C33.2575 36.4333 33.2575 36.4333 33.1575 36.4333H32.8575C32.7575 36.4333 32.5575 36.4333 32.4575 36.4333C31.9575 36.5333 31.4575 36.5333 31.0575 36.6333C30.5575 36.7333 30.0575 36.8333 29.6575 37.2333C28.7575 37.6333 27.8575 38.0333 27.1575 38.7333C26.3575 39.3333 25.6575 40.0333 25.1575 40.9333C24.7575 41.2333 24.4575 41.7333 24.2575 42.1333C24.0575 42.6333 23.9575 43.1333 23.8575 43.6333C23.7575 44.1333 23.6575 44.6333 23.5575 45.1333C23.4575 45.6333 23.3575 46.1333 23.3575 46.6333C23.3575 47.1333 23.3575 47.6333 23.4575 48.1333C23.5575 48.6333 23.5575 49.1333 23.7575 49.6333C23.8575 49.8333 23.8575 49.9333 23.9575 50.1333V50.3333C23.9575 50.4333 24.0575 50.5333 24.0575 50.5333L24.1575 50.7333C24.2575 51.0333 24.4575 51.3333 24.5575 51.7333C24.6575 52.0333 24.8575 52.3333 24.9575 52.6333C24.6575 52.6333 24.3575 52.6333 24.0575 52.6333C23.7575 52.6333 23.4575 52.6333 23.1575 52.6333C22.9575 52.6333 22.6575 52.6333 22.4575 52.6333H21.9575C21.6575 52.6333 21.4575 52.6333 21.1575 52.6333C20.6575 52.6333 20.1575 52.5333 19.5575 52.6333C18.5575 52.7333 17.4575 52.7333 16.4575 52.6333C15.4575 52.6333 14.4575 52.3333 13.4575 52.6333C12.9575 52.6333 12.5575 52.7333 12.1575 52.8333H11.7575C11.5575 52.8333 11.3575 52.8333 11.0575 52.8333C10.6575 52.8333 10.1575 52.8333 9.85754 52.7333C9.85754 52.5333 9.95754 52.3333 9.95754 52.2333C9.95754 51.8333 9.95754 51.3333 9.95754 50.9333V50.1333C9.95754 49.6333 10.0575 49.2333 9.95754 48.7333C10.2575 47.8333 9.95754 46.9333 9.95754 46.0333C10.0575 45.1333 10.1575 44.2333 9.95754 43.4333C9.85754 42.5333 10.0575 41.7333 9.95754 40.9333C9.75754 40.1333 10.1575 39.3333 9.95754 38.5333C9.95754 37.7333 9.95754 36.9333 9.95754 36.2333C9.55754 35.4333 9.95754 34.7333 9.95754 34.0333C10.0575 33.3333 9.65754 32.6333 9.95754 31.9333C9.65754 31.2333 9.95754 30.6333 9.95754 30.0333C10.0575 29.4333 9.85754 28.8333 9.95754 28.2333C9.75754 27.6333 10.0575 27.1333 9.95754 26.5333C10.0575 26.0333 9.95754 25.5333 9.95754 25.0333C9.95754 24.5333 9.95754 24.1333 9.95754 23.7333C9.95754 23.3333 9.95754 22.9333 9.95754 22.5333C10.3575 20.1333 10.4575 18.9333 10.5575 18.9333Z" fill="#73523F"/>
<path d="M5.75754 13.5333C5.85754 13.5333 5.95754 14.3333 6.05754 15.9333C6.05754 16.2333 6.05754 16.4333 6.05754 16.7333C6.05754 17.0333 6.15754 17.3333 6.05754 17.6333C5.95754 17.8333 6.05754 18.0333 6.15754 18.0333C6.25754 18.1333 6.35754 18.1333 6.15754 18.3333C6.15754 18.4333 6.15754 18.4333 6.15754 18.5333C6.35754 18.5333 6.55754 18.5333 6.65754 18.4333H6.85754C6.95754 18.4333 7.05754 18.4333 7.15754 18.4333C7.35754 18.4333 7.55754 18.4333 7.75754 18.3333C8.15754 18.0333 8.65754 18.6333 9.05754 18.3333C9.55754 18.2333 9.95754 18.2333 10.4575 18.3333C10.9575 18.5333 11.4575 18.3333 11.9575 18.3333C12.4575 18.6333 13.0575 18.5333 13.5575 18.3333C14.0575 18.7333 14.6575 18.6333 15.2575 18.3333C15.8575 18.3333 16.4575 18.4333 17.0575 18.3333C17.6575 18.3333 18.2575 18.2333 18.8575 18.3333C19.4575 18.1333 20.1575 18.1333 20.7575 18.3333C21.3575 18.0333 22.0575 18.1333 22.7575 18.3333C23.4575 18.4333 24.0575 18.1333 24.7575 18.3333C25.4575 18.3333 26.1575 18.2333 26.8575 18.3333C27.5575 18.4333 28.2575 18.5333 28.9575 18.3333C29.6575 18.2333 30.3575 18.1333 31.1575 18.3333C31.8575 18.0333 32.6575 18.1333 33.3575 18.3333C34.0575 18.3333 34.8575 18.5333 35.6575 18.3333C36.0575 18.3333 36.4575 18.3333 36.7575 18.3333H36.8575C36.8575 18.3333 36.8575 18.3333 36.9575 18.3333C36.9575 18.3333 36.9575 18.3333 37.0575 18.2333C37.0575 18.2333 37.0575 18.2333 37.0575 18.1333V18.0333C37.0575 17.6333 37.0575 17.2333 36.9575 16.9333C36.8575 16.5333 36.8575 16.1333 36.9575 15.8333C36.9575 15.6333 36.9575 15.4333 36.9575 15.2333C36.9575 15.1333 36.9575 15.0333 36.9575 14.9333V14.8333C37.0575 14.7333 37.0575 14.6333 37.0575 14.6333C36.9575 14.6333 36.9575 14.7333 36.8575 14.7333C36.8575 14.7333 36.8575 14.7333 36.7575 14.7333H36.6575C36.5575 14.7333 36.5575 14.7333 36.4575 14.7333C35.7575 14.7333 34.9575 14.5333 34.2575 14.7333C33.5575 14.7333 32.8575 14.8333 32.1575 14.7333C31.4575 15.1333 30.7575 14.6333 30.0575 14.7333C29.3575 14.5333 28.6575 14.7333 28.0575 14.7333C27.3575 14.8333 26.7575 14.5333 26.0575 14.7333C25.4575 14.7333 24.7575 14.8333 24.1575 14.7333C23.5575 14.9333 22.9575 14.5333 22.3575 14.7333C21.7575 14.7333 21.1575 14.7333 20.5575 14.7333C19.9575 14.4333 19.4575 14.6333 18.8575 14.7333C18.3575 14.7333 17.7575 14.9333 17.2575 14.7333C16.7575 14.7333 16.2575 14.5333 15.7575 14.7333C15.2575 14.7333 14.7575 14.2333 14.3575 14.7333C13.8575 14.8333 13.4575 14.4333 13.0575 14.7333C12.6575 15.0333 12.2575 14.7333 11.8575 14.7333C11.4575 14.7333 11.0575 14.7333 10.7575 14.7333C7.65754 13.8333 5.75754 13.6333 5.75754 13.5333C5.75754 13.3333 8.05754 13.1333 12.0575 13.0333C12.4575 13.0333 12.8575 12.8333 13.2575 13.0333C13.6575 13.0333 14.1575 12.8333 14.5575 13.0333C15.0575 12.7333 15.4575 12.9333 15.9575 13.0333C16.4575 13.0333 16.9575 13.1333 17.4575 13.0333C17.9575 12.8333 18.5575 13.1333 19.0575 13.0333C19.5575 13.2333 20.1575 13.1333 20.7575 13.0333C21.3575 13.2333 21.9575 13.0333 22.5575 13.0333C23.1575 13.3333 23.7575 13.1333 24.3575 13.0333C24.9575 12.9333 25.6575 13.0333 26.2575 13.0333C26.8575 13.0333 27.5575 12.9333 28.2575 13.0333C28.9575 12.9333 29.5575 12.8333 30.2575 13.0333C30.9575 12.9333 31.6575 13.0333 32.3575 13.0333C33.0575 12.9333 33.7575 13.0333 34.4575 13.0333C35.1575 12.9333 35.8575 13.3333 36.6575 13.0333H37.0575C37.2575 13.0333 37.4575 13.0333 37.6575 13.0333C38.0575 13.0333 38.4575 13.0333 38.8575 13.0333C38.8575 13.6333 38.8575 14.1333 38.8575 14.7333V15.4333C38.8575 15.6333 38.8575 15.8333 38.8575 16.0333C38.8575 16.4333 38.8575 16.8333 38.8575 17.1333C38.7575 17.5333 38.6575 17.9333 38.7575 18.2333C38.7575 18.3333 38.7575 18.5333 38.7575 18.6333C38.7575 18.8333 38.7575 18.9333 38.7575 19.1333C38.7575 19.5333 38.8575 19.9333 38.8575 20.2333C38.5575 20.2333 38.1575 20.2333 37.7575 20.2333H36.6575C36.2575 20.2333 35.8575 20.2333 35.5575 20.2333C34.7575 20.2333 34.0575 20.2333 33.2575 20.2333C32.5575 20.3333 31.7575 20.1333 31.0575 20.2333C30.3575 20.3333 29.5575 20.1333 28.8575 20.2333C28.1575 20.3333 27.4575 20.3333 26.7575 20.2333C26.0575 20.2333 25.3575 19.9333 24.6575 20.2333C23.9575 20.3333 23.2575 20.6333 22.6575 20.2333C21.9575 20.3333 21.3575 20.0333 20.6575 20.2333C20.0575 19.9333 19.3575 20.2333 18.7575 20.2333C18.1575 20.1333 17.5575 20.0333 16.9575 20.2333C16.3575 20.3333 15.7575 20.1333 15.1575 20.2333C14.5575 20.4333 14.0575 20.0333 13.4575 20.2333C12.9575 20.2333 12.3575 20.2333 11.8575 20.2333C11.3575 20.6333 10.8575 20.2333 10.3575 20.2333C9.85754 20.1333 9.35754 20.5333 8.95754 20.2333C8.45754 20.5333 8.05754 20.2333 7.65754 20.2333C7.45754 20.2333 7.25754 20.2333 7.05754 20.2333C6.95754 20.2333 6.85754 20.2333 6.75754 20.2333H6.55754C6.45754 20.2333 6.35754 20.2333 6.35754 20.2333C6.15754 20.3333 5.85754 20.3333 5.65754 20.3333C5.45754 20.3333 5.25754 20.2333 5.15754 20.2333C5.15754 20.0333 5.15754 19.9333 5.15754 19.7333C5.35754 18.6333 5.35754 18.4333 5.35754 18.2333C5.35754 18.1333 5.35754 18.0333 5.35754 17.9333C5.35754 17.8333 5.35754 17.7333 5.35754 17.7333C5.35754 17.4333 5.35754 17.1333 5.35754 16.8333C5.35754 16.5333 5.35754 16.2333 5.35754 16.0333C5.55754 14.3333 5.65754 13.5333 5.75754 13.5333Z" fill="#73523F"/>
<path d="M63.4575 7.43333C63.5575 7.43333 63.6575 8.03333 63.7575 9.03333C63.7575 9.23333 63.7575 9.43333 63.7575 9.63333C63.7575 9.83333 63.8575 10.0333 63.7575 10.2333C63.6575 10.4333 64.0575 10.7333 63.7575 10.9333C63.6575 11.2333 63.7575 11.4333 63.7575 11.7333C63.8575 12.0333 63.6575 12.3333 63.7575 12.6333C64.0575 12.9333 63.4575 13.2333 63.7575 13.5333C63.8575 13.8333 63.8575 14.1333 63.7575 14.5333C63.5575 14.8333 63.7575 15.2333 63.7575 15.5333C63.4575 15.9333 63.6575 16.2333 63.7575 16.6333C63.3575 17.0333 63.4575 17.4333 63.7575 17.8333C63.7575 18.2333 63.6575 18.6333 63.7575 19.0333C63.7575 19.4333 63.8575 19.8333 63.7575 20.3333C63.9575 20.7333 63.9575 21.2333 63.7575 21.6333C64.0575 22.0333 63.9575 22.5333 63.7575 23.0333C63.6575 23.2333 63.7575 23.5333 63.7575 23.7333V23.9333C63.7575 23.9333 63.7575 23.9333 63.6575 24.0333V24.1333C63.7575 24.1333 63.7575 24.1333 63.8575 24.1333H64.0575C64.1575 24.1333 64.2575 24.1333 64.4575 24.1333C64.6575 24.1333 64.9576 24.1333 65.1575 24.0333C65.6575 23.9333 66.1575 23.8333 66.6575 24.0333C67.1575 23.7333 67.6575 23.8333 68.1575 24.0333C68.6575 24.0333 69.1575 24.2333 69.7575 24.0333C69.8575 24.0333 70.0575 24.0333 70.1575 24.0333H70.2575C70.2575 24.0333 70.2575 24.0333 70.3575 24.0333C70.3575 24.0333 70.4575 24.0333 70.4575 23.9333V23.8333C70.4575 23.7333 70.4575 23.5333 70.3575 23.4333C70.1575 22.9333 70.4575 22.4333 70.3575 21.8333C70.6575 21.3333 70.2575 20.8333 70.3575 20.3333C70.3575 19.8333 70.4575 19.3333 70.3575 18.8333C70.3575 18.3333 70.2575 17.8333 70.3575 17.3333C69.9575 16.8333 70.4575 16.3333 70.3575 15.9333C70.5575 15.4333 70.3575 15.0333 70.3575 14.5333C70.2575 14.0333 70.5575 13.6333 70.3575 13.1333C70.3575 12.7333 70.2575 12.2333 70.3575 11.8333C70.1575 11.4333 70.5575 10.9333 70.3575 10.5333C70.3575 10.1333 70.3575 9.73333 70.3575 9.33333C70.5575 9.13333 70.5575 8.93333 70.4575 8.73333V8.43333C70.4575 8.33333 70.4575 8.33333 70.3575 8.23333C71.3575 8.13333 71.3575 8.13333 71.3575 8.03333C71.2575 8.03333 71.2575 7.93333 71.1575 7.93333C71.1575 7.93333 71.0575 7.93333 70.9575 7.93333C70.8575 7.93333 70.7575 7.93333 70.6575 8.03333C70.3575 8.03333 69.9576 7.53333 69.6575 8.03333C69.3575 8.13333 69.0575 7.73333 68.7575 8.03333C68.4575 8.33333 68.1575 8.03333 67.8575 8.03333C67.5575 8.03333 67.3575 8.03333 67.0575 8.03333C64.8575 7.73333 63.5575 7.53333 63.4575 7.43333C63.4575 7.23333 65.0575 7.03333 67.8575 6.93333C68.1575 6.93333 68.4575 6.73333 68.7575 6.93333C69.0575 6.93333 69.3575 6.73333 69.6575 6.93333C69.9576 6.63333 70.2575 6.83333 70.6575 6.93333C70.7575 6.93333 70.8575 6.93333 70.9575 6.93333C71.0575 6.93333 71.0575 6.93333 71.2575 6.93333C71.5575 6.93333 71.8575 6.93333 72.1575 6.83333C72.4576 6.73333 72.6575 6.73333 72.9575 6.73333C72.9575 7.13333 72.8575 7.53333 72.9575 7.93333C72.9575 8.13333 72.8575 8.23333 72.8575 8.43333C72.8575 8.53333 72.8575 8.53333 72.8575 8.63333V8.73333C72.8575 8.93333 72.9575 9.13333 72.9575 9.33333C72.7575 9.73333 72.9575 10.1333 72.9575 10.5333C72.6575 10.9333 72.8575 11.3333 72.9575 11.8333C73.0575 12.2333 72.9575 12.7333 72.9575 13.1333C72.8575 13.5333 73.0575 14.0333 72.9575 14.5333C73.0575 15.0333 73.1575 15.4333 72.9575 15.9333C73.0575 16.4333 72.9575 16.9333 72.9575 17.3333C73.0575 17.8333 72.9575 18.3333 72.9575 18.8333C73.0575 19.3333 72.6575 19.8333 72.9575 20.3333C72.9575 20.8333 72.9575 21.3333 72.9575 21.8333C72.9575 22.3333 72.8575 22.8333 72.9575 23.4333C72.8575 23.5333 72.8575 23.7333 72.8575 23.8333V24.0333C72.8575 24.1333 72.8575 24.2333 72.8575 24.3333C72.8575 24.8333 72.9575 25.3333 73.0575 25.8333C72.5575 25.8333 72.0575 25.9333 71.5575 25.8333H70.5575C70.0575 25.8333 69.5575 25.8333 68.9575 25.8333C68.4575 25.9333 67.9575 25.7333 67.4575 25.8333C66.9575 25.9333 66.4575 25.7333 65.9575 25.8333C65.7575 25.8333 65.4575 25.9333 65.2575 25.9333C65.1575 25.9333 65.0575 25.9333 64.8575 25.9333C64.7575 25.9333 64.7575 25.9333 64.6575 25.9333C64.6575 25.9333 64.6575 25.9333 64.5575 25.9333C64.4575 25.9333 64.4575 25.9333 64.3575 25.9333C64.0575 25.9333 63.7575 25.9333 63.5575 25.8333C63.2575 25.8333 63.0575 25.7333 62.7575 25.7333C62.7575 25.4333 62.7575 25.1333 62.6575 24.9333C62.6575 24.7333 62.6575 24.5333 62.5575 24.3333C62.5575 24.2333 62.5575 24.1333 62.5575 24.0333C62.5575 23.9333 62.5575 23.9333 62.5575 23.8333C62.5575 23.6333 62.5575 23.3333 62.7575 23.1333C62.6575 22.6333 62.9575 22.2333 62.7575 21.7333C63.0575 21.3333 62.7575 20.8333 62.7575 20.4333C62.8575 20.0333 62.9575 19.5333 62.7575 19.1333C62.6575 18.7333 62.8575 18.3333 62.7575 17.9333C62.5575 17.5333 62.9575 17.1333 62.7575 16.7333C62.7575 16.3333 62.7575 16.0333 62.7575 15.6333C62.3575 15.2333 62.7575 14.9333 62.7575 14.6333C62.8575 14.3333 62.4575 13.9333 62.7575 13.6333C62.4575 13.3333 62.7575 13.0333 62.7575 12.7333C62.8575 12.4333 62.6575 12.1333 62.7575 11.8333C62.5575 11.5333 62.8575 11.3333 62.7575 11.0333C62.8575 10.7333 62.7575 10.5333 62.7575 10.3333C62.7575 10.1333 62.7575 9.93333 62.7575 9.73333C62.7575 9.53333 62.7575 9.33333 62.7575 9.13333C63.2575 7.93333 63.3575 7.43333 63.4575 7.43333Z" fill="#73523F"/>
<path d="M76.0575 1.13333C76.1575 1.13333 76.2575 1.63333 76.3575 2.53333C76.3575 2.73333 76.3575 2.83333 76.3575 3.03333C76.3575 3.23333 76.4575 3.43333 76.3575 3.63333C76.2575 3.83333 76.6575 4.03333 76.3575 4.23333C76.2575 4.43333 76.3575 4.63333 76.3575 4.93333C76.4575 5.13333 76.2575 5.43333 76.3575 5.63333C76.4575 5.73333 76.4575 5.93333 76.3575 6.03333C76.3575 6.13333 76.2575 6.13333 76.2575 6.23333V6.33333C76.2575 6.33333 76.2575 6.43333 76.3575 6.53333C76.4575 6.93333 76.4575 7.43333 76.3575 7.93333V8.03333C76.0575 7.93333 75.9575 7.93333 75.7575 8.03333C75.5575 8.03333 75.3575 8.13333 75.1575 8.13333C75.0575 8.03333 74.8575 8.03333 74.7575 8.03333C74.6575 8.03333 74.5575 8.03333 74.5575 8.03333C74.3575 8.03333 74.2575 8.13333 74.0575 8.23333C73.7575 7.83333 73.3575 7.93333 73.0575 8.23333C72.7575 8.23333 72.3575 8.13333 71.9575 8.23333C71.5575 8.23333 71.2575 8.33333 70.8575 8.23333C70.4575 8.43333 70.0575 8.43333 69.7575 8.23333C69.3575 8.53333 68.9575 8.43333 68.5575 8.23333C68.1575 8.13333 67.7575 8.43333 67.3575 8.23333C66.9575 8.23333 66.5575 8.33333 66.1575 8.23333C65.7575 8.13333 65.3575 8.03333 64.8575 8.23333C64.4575 8.33333 63.9575 8.43333 63.5575 8.23333C63.1575 8.53333 62.6575 8.43333 62.2575 8.23333C61.8575 8.23333 61.3575 8.13333 60.8575 8.23333C60.7575 8.23333 60.6575 8.23333 60.5575 8.23333C60.3575 8.23333 60.1575 8.23333 59.9575 8.23333C59.5575 8.23333 59.0575 8.23333 58.6575 8.23333C58.6575 7.73333 58.7575 7.33333 58.7575 6.93333C58.7575 6.73333 58.7575 6.53333 58.7575 6.33333C58.7575 6.23333 58.7575 6.13333 58.6575 6.03333C58.4575 5.53333 58.7575 5.13333 58.6575 4.63333C58.9575 4.23333 58.5575 3.73333 58.6575 3.33333C58.6575 3.13333 58.6575 2.93333 58.6575 2.63333C58.6575 2.53333 58.6575 2.43333 58.6575 2.33333C58.6575 2.23333 58.6575 2.23333 58.6575 2.13333C58.6575 2.03333 58.6575 1.93333 58.6575 1.83333C58.6575 1.33333 58.5575 0.733333 58.6575 0.133333C58.9575 0.133333 59.1575 0.133333 59.4575 0.233333C59.8575 0.133333 60.3575 0.133333 60.7575 0.133333C60.8575 0.133333 60.8575 0.133333 60.8575 0.133333H60.9575C61.0575 0.133333 61.0575 0.133333 61.1575 0.133333C61.2575 0.133333 61.3575 0.133333 61.4575 0.133333C61.8575 0.333333 62.2575 0.133333 62.6575 0.133333C63.0575 0.0333333 63.4575 0.333333 63.8575 0.133333C64.2575 0.133333 64.6575 0.0333333 64.9575 0.133333C65.3575 -0.0666667 65.6575 0.333333 66.0575 0.133333C66.4575 0.133333 66.7575 0.133333 67.1575 0.133333C67.4576 0.433333 67.8575 0.233333 68.1575 0.133333C68.4576 0.133333 68.7575 -0.0666667 69.1575 0.133333C69.4576 0.133333 69.7575 0.333333 70.0575 0.133333C70.3575 0.133333 70.6575 0.633333 70.9575 0.133333C71.2575 0.0333333 71.4575 0.433333 71.7575 0.133333C72.0575 -0.166667 72.2575 0.133333 72.4575 0.133333C72.6575 0.133333 72.9576 0.133333 73.1575 0.133333C74.9576 0.833333 76.1575 1.03333 76.0575 1.13333C76.0575 1.33333 74.6575 1.53333 72.2575 1.63333C72.0575 1.63333 71.7575 1.83333 71.5575 1.63333C71.2575 1.63333 71.0575 1.83333 70.7575 1.63333C70.4575 1.93333 70.1575 1.73333 69.8575 1.63333C69.5575 1.63333 69.2575 1.53333 68.9575 1.63333C68.6575 1.83333 68.3575 1.53333 67.9575 1.63333C67.6575 1.43333 67.2575 1.53333 66.9575 1.63333C66.6575 1.43333 66.2575 1.63333 65.8575 1.63333C65.4575 1.33333 65.1575 1.53333 64.7575 1.63333C64.3575 1.73333 63.9575 1.63333 63.6575 1.63333C63.2575 1.53333 62.8575 1.73333 62.4575 1.63333C62.1575 2.13333 61.7575 2.13333 61.3575 2.03333C61.2575 2.03333 61.1575 2.03333 61.0575 2.03333C60.9575 2.03333 60.9575 2.03333 60.8575 2.03333H60.5575C60.5575 2.03333 60.5575 2.03333 60.5575 2.13333C60.5575 2.23333 60.5575 2.23333 60.5575 2.33333C60.5575 2.43333 60.5575 2.53333 60.4575 2.63333C60.4575 2.83333 60.3575 3.03333 60.5575 3.33333C60.5575 3.73333 60.5575 4.23333 60.5575 4.63333C60.5575 5.03333 60.4575 5.53333 60.5575 6.03333C60.4575 6.13333 60.4575 6.23333 60.4575 6.33333V6.43333C60.4575 6.53333 60.5575 6.53333 60.6575 6.43333C60.7575 6.43333 60.7575 6.33333 60.7575 6.43333H61.0575C61.5575 6.43333 61.9575 6.43333 62.4575 6.43333C62.8575 6.33333 63.3575 6.53333 63.7575 6.43333C64.1575 6.33333 64.6575 6.53333 65.0575 6.43333C65.4575 6.33333 65.9575 6.33333 66.3575 6.43333C66.7575 6.43333 67.1575 6.73333 67.5575 6.43333C67.9575 6.33333 68.3575 6.03333 68.7575 6.43333C69.1575 6.33333 69.5575 6.63333 69.9575 6.43333C70.3575 6.73333 70.7575 6.43333 71.0575 6.43333C71.4575 6.53333 71.7575 6.63333 72.1575 6.43333C72.5575 6.33333 72.8575 6.53333 73.2575 6.43333C73.5575 6.23333 73.9575 6.63333 74.2575 6.43333C74.4575 6.43333 74.5575 6.43333 74.7575 6.43333C74.8575 6.43333 74.9575 6.43333 74.9575 6.43333C74.9575 6.23333 74.9575 6.23333 75.0575 6.23333C75.0575 6.23333 75.2575 6.33333 75.3575 6.43333C75.3575 6.43333 75.3575 6.33333 75.2575 6.23333C75.2575 6.13333 75.2575 6.13333 75.3575 6.13333H75.2575V6.03333C75.2575 5.93333 75.2575 5.93333 75.2575 5.83333C75.2575 5.73333 75.3575 5.53333 75.4575 5.43333C75.5575 5.13333 75.3575 4.93333 75.4575 4.73333C75.2575 4.53333 75.5575 4.23333 75.4575 4.03333C75.5575 3.83333 75.4575 3.63333 75.4575 3.43333C75.4575 3.23333 75.4575 3.03333 75.4575 2.83333C75.4575 2.63333 75.4575 2.53333 75.4575 2.33333C75.8575 1.63333 75.9575 1.13333 76.0575 1.13333Z" fill="#73523F"/>
<path d="M10.5575 38.5333C10.6575 38.5333 10.7575 38.9333 10.8575 39.7333C10.8575 39.8333 10.8575 40.0333 10.8575 40.1333C10.8575 40.2333 10.9575 40.4333 10.8575 40.6333C10.7575 40.8333 11.1575 40.9333 10.8575 41.1333C10.7575 41.3333 10.8575 41.5333 10.8575 41.7333C10.9575 41.9333 10.7575 42.1333 10.8575 42.3333C11.1575 42.5333 10.5575 42.7333 10.8575 43.0333C10.9575 43.2333 10.9575 43.5333 10.8575 43.7333C10.6575 43.9333 10.8575 44.2333 10.8575 44.4333C10.5575 44.7333 10.7575 44.9333 10.8575 45.2333C10.4575 45.5333 10.5575 45.7333 10.8575 46.0333C10.8575 46.3333 10.7575 46.6333 10.8575 46.9333C10.8575 47.2333 10.8575 47.4333 10.8575 47.7333C10.8575 48.0333 10.8575 48.2333 10.8575 48.5333C10.8575 48.6333 10.9575 48.7333 10.9575 48.8333C10.6575 48.9333 9.95754 48.9333 9.45754 48.7333C9.35754 48.8333 9.15754 48.8333 9.05754 48.8333C8.95754 48.8333 8.85754 48.8333 8.85754 48.8333C8.65754 48.8333 8.55754 48.7333 8.35754 48.7333C8.05754 48.6333 7.65754 48.9333 7.35754 48.7333C7.05754 48.7333 6.65754 48.8333 6.35754 48.7333C6.05754 48.6333 5.65754 48.5333 5.35754 48.7333C4.95754 48.8333 4.65754 48.9333 4.25754 48.7333C3.85754 49.0333 3.55754 48.9333 3.15754 48.7333C2.75754 48.7333 2.45754 48.6333 2.05754 48.7333H1.85754C1.75754 48.7333 1.65754 48.7333 1.55754 48.7333C1.35754 48.7333 1.15754 48.7333 1.05754 48.7333C0.657541 48.7333 0.357541 48.7333 0.0575414 48.7333C0.0575414 48.3333 0.157541 47.9333 0.157541 47.6333C0.157541 47.4333 0.157541 47.3333 0.157541 47.1333C0.157541 47.0333 0.157541 46.9333 0.157541 46.9333V46.8333C0.157541 46.8333 0.157541 46.8333 0.157541 46.7333C-0.0424586 46.3333 0.257541 46.0333 0.157541 45.6333C0.457541 45.2333 0.0575414 44.9333 0.157541 44.5333C0.157541 44.1333 0.257541 43.8333 0.157541 43.4333C0.157541 43.0333 0.0575414 42.7333 0.157541 42.4333C-0.242459 42.1333 0.257541 41.7333 0.157541 41.4333C0.357541 41.1333 0.157541 40.7333 0.157541 40.4333C0.157541 40.2333 0.157541 40.1333 0.157541 39.9333C0.157541 39.8333 0.157541 39.7333 0.157541 39.7333C0.157541 39.7333 0.157541 39.7333 0.157541 39.6333V39.5333C0.157541 39.4333 0.157541 39.4333 0.157541 39.3333C0.157541 39.0333 0.157541 38.8333 0.157541 38.5333C0.157541 38.2333 0.157541 37.9333 0.157541 37.7333H0.257541C0.457541 37.6333 0.757541 37.6333 1.05754 37.7333C1.35754 37.7333 1.55754 37.8333 1.85754 37.7333C2.05754 37.7333 2.15754 37.7333 2.35754 37.7333C2.45754 37.7333 2.65754 37.7333 2.75754 37.7333C3.05754 38.0333 3.35754 37.8333 3.55754 37.7333C3.85754 37.7333 4.05754 37.5333 4.35754 37.7333C4.65754 37.7333 4.85754 37.9333 5.05754 37.7333C5.25754 37.7333 5.55754 38.2333 5.75754 37.7333C5.95754 37.6333 6.15754 38.0333 6.45754 37.7333C6.65754 37.4333 6.85754 37.7333 7.05754 37.7333C7.25754 37.7333 7.45754 37.7333 7.65754 37.7333C9.65754 38.2333 10.6575 38.4333 10.5575 38.5333C10.5575 38.7333 9.45754 38.9333 7.45754 39.0333C7.25754 39.0333 7.05754 39.2333 6.85754 39.0333C6.65754 39.0333 6.45754 39.2333 6.15754 39.0333C5.95754 39.3333 5.65754 39.1333 5.45754 39.0333C5.25754 39.0333 4.95754 38.9333 4.75754 39.0333C4.45754 39.2333 4.25754 38.9333 3.95754 39.0333C3.65754 38.8333 3.45754 38.9333 3.15754 39.0333C3.05754 38.9333 2.85754 38.9333 2.75754 39.0333C2.65754 39.0333 2.65754 39.0333 2.55754 39.1333H2.45754C2.35754 39.0333 2.35754 38.9333 2.25754 39.0333C2.25754 39.0333 2.25754 39.1333 2.25754 39.2333C2.25754 39.3333 2.25754 39.3333 2.25754 39.3333V39.5333C2.25754 39.6333 2.25754 39.7333 2.25754 39.7333C2.25754 39.9333 2.25754 40.0333 2.25754 40.2333C2.35754 40.5333 2.45754 40.9333 2.25754 41.2333C2.35754 41.5333 2.25754 41.9333 2.25754 42.2333C2.35754 42.5333 2.25754 42.9333 2.25754 43.2333C2.35754 43.6333 1.95754 43.9333 2.25754 44.3333C2.25754 44.7333 2.25754 45.0333 2.25754 45.4333C2.25754 45.8333 2.15754 46.1333 2.25754 46.5333C2.25754 46.5333 2.25754 46.5333 2.25754 46.6333V46.7333C2.25754 46.7333 2.35754 46.7333 2.45754 46.7333C2.55754 46.7333 2.55754 46.6333 2.55754 46.7333H2.65754C3.05754 46.7333 3.35754 46.7333 3.75754 46.7333C4.15754 46.6333 4.45754 46.8333 4.85754 46.7333C5.25754 46.6333 5.55754 46.8333 5.95754 46.7333C6.35754 46.6333 6.65754 46.6333 6.95754 46.7333C7.25754 46.7333 7.65754 47.0333 7.95754 46.7333C8.25754 46.6333 8.65754 46.3333 8.95754 46.7333C9.15754 46.6333 9.25754 46.7333 9.45754 46.7333C9.55754 46.7333 9.65754 46.7333 9.65754 46.7333C9.65754 46.7333 9.65754 46.7333 9.65754 46.6333C9.75754 46.7333 9.75754 46.7333 9.85754 46.7333V46.6333C9.85754 46.6333 9.95754 46.6333 9.95754 46.5333C9.95754 46.5333 9.95754 46.4333 9.85754 46.4333C9.75754 46.1333 9.95754 45.8333 9.85754 45.5333C9.65754 45.2333 10.0575 44.9333 9.85754 44.7333C9.85754 44.4333 9.85754 44.2333 9.85754 43.9333C9.45754 43.6333 9.85754 43.4333 9.85754 43.2333C9.95754 43.0333 9.55754 42.7333 9.85754 42.5333C9.55754 42.3333 9.85754 42.1333 9.85754 41.8333C9.95754 41.6333 9.75754 41.4333 9.85754 41.2333C9.65754 41.0333 9.95754 40.8333 9.85754 40.6333C9.95754 40.4333 9.85754 40.3333 9.85754 40.1333C9.85754 39.9333 9.85754 39.8333 9.85754 39.6333C9.85754 39.5333 9.85754 39.3333 9.85754 39.2333C10.3575 39.0333 10.4575 38.5333 10.5575 38.5333Z" fill="#73523F"/>
<path d="M1.45754 50.5333C1.35754 50.5333 1.25754 50.3333 1.15754 50.0333C1.15754 49.9333 1.15754 49.9333 1.15754 49.8333C1.15754 49.7333 1.05754 49.7333 1.15754 49.6333C1.25754 49.5333 0.857542 49.5333 1.15754 49.4333C1.25754 49.3333 1.15754 49.2333 1.15754 49.2333C1.05754 49.1333 1.25754 49.0333 1.15754 48.9333C0.857542 48.8333 1.45754 48.7333 1.15754 48.6333C1.05754 48.5333 1.05754 48.4333 1.15754 48.3333C1.35754 48.2333 1.15754 48.1333 1.15754 48.0333C1.45754 47.9333 1.25754 47.8333 1.15754 47.7333C1.55754 47.6333 1.45754 47.5333 1.15754 47.4333C1.15754 47.3333 1.25754 47.2333 1.15754 47.0333C1.15754 46.9333 1.05754 46.8333 1.15754 46.6333C0.957542 46.5333 0.957542 46.3333 1.15754 46.2333C0.857542 46.1333 0.957542 45.9333 1.15754 45.8333C1.25754 45.7333 0.957542 45.5333 1.15754 45.4333C1.15754 45.3333 1.05754 45.1333 1.15754 45.0333C1.25754 44.9333 1.35754 44.7333 1.15754 44.6333C1.05754 44.5333 1.05754 44.3333 1.15754 44.1333C0.857542 43.9333 0.957542 43.8333 1.15754 43.6333C1.15754 43.4333 1.25754 43.3333 1.15754 43.1333C1.15754 42.9333 1.05754 42.8333 1.15754 42.6333C1.25754 42.4333 1.35754 42.3333 1.15754 42.1333C0.957542 41.9333 1.25754 41.8333 1.15754 41.6333C1.45754 41.4333 1.05754 41.3333 1.15754 41.1333C1.15754 40.9333 1.25754 40.8333 1.15754 40.7333C1.15754 40.6333 1.05754 40.4333 1.15754 40.3333C0.757542 40.2333 1.25754 40.0333 1.15754 39.9333C1.35754 39.8333 1.15754 39.6333 1.15754 39.5333C1.05754 39.4333 1.35754 39.2333 1.15754 39.1333C1.15754 39.0333 1.05754 38.8333 1.15754 38.7333C0.957542 38.6333 1.35754 38.4333 1.15754 38.3333C1.15754 38.2333 1.15754 38.1333 1.15754 37.9333C1.45754 37.8333 1.25754 37.7333 1.15754 37.6333C1.15754 37.5333 0.957542 37.4333 1.15754 37.3333C1.15754 37.2333 1.35754 37.1333 1.15754 37.0333C1.15754 36.9333 1.65754 36.8333 1.15754 36.7333C1.05754 36.6333 1.45754 36.5333 1.15754 36.4333C0.857542 36.3333 1.15754 36.2333 1.15754 36.1333C1.15754 36.0333 1.15754 35.9333 1.15754 35.9333C1.25754 35.2333 1.45754 34.8333 1.65754 34.8333C1.85754 34.8333 2.05754 35.3333 2.15754 36.1333C2.15754 36.2333 2.35754 36.3333 2.15754 36.4333C2.15754 36.5333 2.35754 36.6333 2.15754 36.7333C2.45754 36.8333 2.25754 36.9333 2.15754 37.0333C2.15754 37.1333 2.05754 37.2333 2.15754 37.3333C2.35754 37.4333 2.05754 37.5333 2.15754 37.6333C1.95754 37.7333 2.05754 37.8333 2.15754 37.9333C1.95754 38.0333 2.15754 38.1333 2.15754 38.3333C1.85754 38.4333 2.05754 38.5333 2.15754 38.7333C2.25754 38.8333 2.15754 39.0333 2.15754 39.1333C2.05754 39.2333 2.25754 39.4333 2.15754 39.5333C2.25754 39.6333 2.35754 39.8333 2.15754 39.9333C2.25754 40.0333 2.15754 40.2333 2.15754 40.3333C2.25754 40.4333 2.15754 40.6333 2.15754 40.7333C2.25754 40.8333 1.85754 41.0333 2.15754 41.1333C2.15754 41.3333 2.15754 41.4333 2.15754 41.6333C2.15754 41.8333 2.05754 41.9333 2.15754 42.1333C1.85754 42.3333 2.05754 42.4333 2.15754 42.6333C2.25754 42.8333 2.15754 42.9333 2.15754 43.1333C2.15754 43.3333 2.15754 43.4333 2.15754 43.6333C2.25754 43.8333 2.05754 43.9333 2.15754 44.1333C2.25754 44.3333 2.05754 44.4333 2.15754 44.6333C2.25754 44.7333 2.25754 44.9333 2.15754 45.0333C2.15754 45.1333 1.85754 45.3333 2.15754 45.4333C2.25754 45.5333 2.55754 45.7333 2.15754 45.8333C2.25754 45.9333 1.95754 46.1333 2.15754 46.2333C1.85754 46.3333 2.15754 46.5333 2.15754 46.6333C2.05754 46.7333 1.95754 46.9333 2.15754 47.0333C2.25754 47.1333 2.05754 47.2333 2.15754 47.4333C2.35754 47.5333 1.95754 47.6333 2.15754 47.7333C2.15754 47.8333 2.15754 47.9333 2.15754 48.0333C2.55754 48.1333 2.15754 48.2333 2.15754 48.3333C2.05754 48.4333 2.45754 48.5333 2.15754 48.6333C2.45754 48.7333 2.15754 48.8333 2.15754 48.9333C2.05754 49.0333 2.25754 49.1333 2.15754 49.2333C2.35754 49.3333 2.05754 49.4333 2.15754 49.4333C2.05754 49.5333 2.15754 49.5333 2.15754 49.6333C2.15754 49.7333 2.15754 49.7333 2.15754 49.8333C2.15754 49.9333 2.15754 49.9333 2.15754 50.0333C1.65754 50.3333 1.55754 50.5333 1.45754 50.5333Z" fill="#73523F"/>
</svg>
