<svg width="85" height="58" viewBox="0 0 85 58" fill="none" xmlns="http://www.w3.org/2000/svg">
<path d="M4.9 15.9C5 15.9 5.1 17.8 5.2 21.2C5.2 21.8 5.2 22.4 5.2 23C5.2 23.3 5.2 23.7 5.2 24C5.2 24.2 5.2 24.4 5.2 24.5C5.2 24.6 5.2 24.7 5.2 24.8C5.2 24.9 5.2 25 5.2 25C5.1 25.2 5.2 25.4 5.2 25.6C5.4 25.6 5.5 25.5 5.6 25.5C5.7 25.5 5.7 25.5 5.8 25.5C5.9 25.5 6 25.5 6.2 25.6C7 25.7 7.9 25.6 8.8 25.6C9.7 25.5 10.6 25.7 11.6 25.6C12.6 25.3 13.6 25.9 14.6 25.6C15.6 25.5 16.7 25.5 17.8 25.6C18.9 25.8 20 25.6 21.2 25.6C22.4 25.9 23.6 25.7 24.8 25.6C26 26 27.3 25.9 28.6 25.6C29.9 25.6 31.2 25.7 32.6 25.6C33.9 25.6 35.3 25.5 36.7 25.6C38.1 25.4 39.5 25.4 41 25.6C42.4 25.3 43.9 25.4 45.4 25.6C46.9 25.7 48.4 25.4 50 25.6C51.5 25.6 53.1 25.5 54.7 25.6C56.3 25.7 57.9 25.8 59.5 25.6C61.1 25.5 62.8 25.4 64.4 25.6C66.1 25.3 67.7 25.4 69.4 25.6C71.1 25.6 72.8 25.7 74.5 25.6C75.4 25.6 76.2 25.6 77.1 25.6C77.5 25.6 78 25.6 78.4 25.6H78.8C78.8 25.6 78.8 25.6 78.8 25.5V25.1C78.8 24.7 78.8 24.2 78.8 23.8C78.8 22.9 78.8 22.1 78.7 21.2C78.6 20.4 78.6 19.5 78.7 18.7C78.7 18.3 78.7 17.9 78.7 17.4C78.7 17.1 78.7 17.2 78.7 17.1V17C78.7 17 78.7 16.9 78.6 16.9C78.6 16.9 78.6 16.9 78.5 16.9C78.4 16.9 78.3 16.9 78.2 16.9C77.8 16.9 77.4 16.9 76.9 16.9C76.1 16.9 75.2 17 74.4 17C72.7 17 71.1 16.9 69.5 17C67.9 17 66.3 17.1 64.7 17C63.1 17.4 61.6 16.9 60 17C58.5 16.8 56.9 17 55.4 17C53.9 17.1 52.4 16.8 51 17C49.6 17 48.1 17.1 46.7 17C45.3 17.2 43.9 16.8 42.6 17C41.3 17 39.9 17 38.6 17C37.3 16.7 36 16.9 34.8 17C33.6 17 32.4 17.2 31.2 17C30 17 28.9 16.8 27.8 17C26.7 17 25.6 16.5 24.6 17C23.6 17.1 22.6 16.7 21.6 17C20.6 17.3 19.7 17 18.8 17C17.9 17 17 17 16.2 17C12.5 16.9 9.6 16.9 7.6 16.8C6 16.1 4.9 16 4.9 15.9C4.9 15.8 6.2 15.7 8.6 15.6C11 15.5 14.6 15.4 19.1 15.4C20 15.4 20.9 15.2 21.9 15.4C22.9 15.4 23.9 15.2 24.9 15.4C25.9 15.1 27 15.3 28.1 15.4C29.2 15.4 30.3 15.5 31.5 15.4C32.7 15.2 33.9 15.5 35.1 15.4C36.3 15.6 37.6 15.5 38.9 15.4C40.2 15.6 41.5 15.4 42.9 15.4C44.2 15.7 45.6 15.5 47 15.4C48.4 15.3 49.8 15.4 51.3 15.4C52.8 15.5 54.2 15.3 55.7 15.4C57.2 15.3 58.7 15.2 60.3 15.4C61.8 15.3 63.4 15.4 65 15.4C66.6 15.3 68.2 15.4 69.8 15.4C71.4 15.3 73.1 15.7 74.7 15.4C75.5 15.4 76.4 15.4 77.2 15.4C77.6 15.4 78 15.4 78.5 15.4C78.8 15.4 79.1 15.4 79.4 15.4C79.8 15.4 80.2 15.4 80.6 15.4H80.8C80.8 16.5 80.8 17.7 80.8 18.8C80.8 19.6 80.8 20.5 80.8 21.3C80.7 22.2 80.6 23 80.7 23.9C80.7 24.3 80.7 24.8 80.8 25.2V26.2C80.8 26.6 80.8 27 80.8 27.4C80.4 27.4 80 27.4 79.6 27.4C79.3 27.4 78.9 27.4 78.6 27.4C78.2 27.4 77.7 27.4 77.3 27.4C76.4 27.4 75.6 27.4 74.7 27.4C73 27.4 71.3 27.4 69.6 27.4C67.9 27.5 66.2 27.3 64.6 27.4C62.9 27.5 61.3 27.3 59.7 27.4C58.1 27.5 56.5 27.5 54.9 27.4C53.3 27.4 51.8 27.1 50.2 27.4C48.7 27.5 47.1 27.8 45.6 27.4C44.1 27.5 42.6 27.2 41.2 27.4C39.8 27.1 38.3 27.4 36.9 27.4C35.5 27.3 34.1 27.2 32.8 27.4C31.5 27.5 30.1 27.3 28.8 27.4C27.5 27.6 26.2 27.2 25 27.4C23.8 27.4 22.6 27.4 21.4 27.4C20.2 27.8 19.1 27.4 18 27.4C16.9 27.3 15.8 27.7 14.8 27.4C13.8 27.7 12.8 27.4 11.8 27.4C10.8 27.3 9.9 27.5 9 27.4C8.1 27.6 7.2 27.3 6.4 27.4C6.3 27.4 6.2 27.4 6 27.4C5.8 27.4 5.7 27.4 5.5 27.4C5.2 27.4 4.9 27.4 4.5 27.4C4.5 27 4.5 26.5 4.5 26.1C4.5 26 4.5 25.9 4.5 25.8C4.5 25.7 4.5 25.6 4.5 25.5C4.5 25.3 4.5 25.1 4.5 25C4.5 24.7 4.5 24.3 4.6 24C4.6 23.3 4.6 22.7 4.6 22.2C4.7 17.8 4.8 15.9 4.9 15.9Z" fill="#73523F"/>
<path d="M9.8 26.1C9.9 26.1 10 27.1 10.1 28.8C10.1 29.1 10.1 29.4 10.1 29.8C10.1 30.1 10.2 30.5 10.1 30.9C10 31.3 10.4 31.7 10.1 32.1C10 32.5 10.1 33 10.1 33.4C10.2 33.9 10 34.3 10.1 34.8C10.4 35.3 9.8 35.8 10.1 36.4C10.2 36.9 10.2 37.5 10.1 38.1C9.9 38.7 10.1 39.3 10.1 39.9C9.8 40.5 10 41.1 10.1 41.8C9.7 42.4 9.8 43.1 10.1 43.8C10.1 44.5 10 45.1 10.1 45.8C10.1 46.5 10.2 47.2 10.1 47.9C10.3 48.6 10.3 49.4 10.1 50.1C10.4 50.8 10.3 51.6 10.1 52.4C10 53.2 10.3 54 10.1 54.7C10.1 54.8 10.1 55 10.1 55.1V55.3C10.1 55.4 10.1 55.4 10.1 55.4H10.2C10.2 55.4 10.2 55.4 10.3 55.4C10.4 55.4 10.5 55.4 10.6 55.4C10.8 55.4 11 55.4 11.2 55.4C11.6 55.4 12 55.4 12.4 55.3C13.2 55.2 14.1 55.1 14.9 55.3C15.8 55 16.6 55.1 17.5 55.3C18.4 55.3 19.2 55.4 20.1 55.3C20.5 55.3 21 55.3 21.4 55.3H21.7C21.7 55.3 21.7 55.3 21.8 55.3C21.8 55.3 21.8 55.3 21.9 55.2C21.9 55.2 21.9 55.2 21.9 55.1V54.8C21.9 54.4 21.9 53.9 21.8 53.5C21.6 52.6 21.9 51.7 21.8 50.9C22.1 50 21.7 49.2 21.8 48.3C21.8 47.4 21.9 46.6 21.8 45.8C21.8 45 21.7 44.1 21.8 43.3C21.4 42.5 21.9 41.7 21.8 40.9C22 40.1 21.8 39.3 21.8 38.6C21.7 37.8 22 37.1 21.8 36.3C21.8 35.6 21.7 34.8 21.8 34.1C21.6 33.4 22 32.7 21.8 32C21.8 31.3 21.8 30.6 21.8 30C22.1 29.3 21.9 28.7 21.8 28C21.8 27.7 21.8 27.4 21.8 27.1C21.8 27 21.8 27 21.9 26.7V26.6C21.8 26.6 21.7 26.5 21.6 26.5H21.5C21.4 26.5 21.4 26.5 21.3 26.5C21.2 26.5 21 26.5 20.9 26.5C20.3 26.5 19.8 26 19.2 26.5C18.7 26.6 18.1 26.2 17.6 26.5C17.1 26.8 16.6 26.5 16.2 26.5C15.7 26.5 15.3 26.5 14.9 26.5C12 26.4 9.8 26.3 9.8 26.1C9.8 25.9 12.5 25.7 17.1 25.6C17.6 25.6 18 25.4 18.5 25.6C19 25.6 19.5 25.4 20.1 25.6C20.6 25.3 21.2 25.5 21.8 25.6C21.9 25.6 22.1 25.6 22.2 25.6H22.4C22.5 25.6 22.6 25.6 22.7 25.6C23.1 25.6 23.6 25.6 24.1 25.6C24.1 25.7 24.1 25.7 24.1 25.8C24.2 26.2 24.2 26.8 24.1 27.3C24.1 27.6 24 27.9 24.1 28.2C23.9 28.8 24 29.5 24.1 30.2C23.9 30.9 24.1 31.5 24.1 32.2C23.8 32.9 24 33.6 24.1 34.3C24.2 35 24.1 35.8 24.1 36.5C24 37.2 24.2 38 24.1 38.8C24.2 39.6 24.3 40.4 24.1 41.1C24.2 41.9 24.1 42.7 24.1 43.5C24.2 44.3 24.1 45.1 24.1 46C24.2 46.8 23.8 47.7 24.1 48.5C24.1 49.4 24.1 50.2 24.1 51.1C24.1 52 24 52.8 24.1 53.7C24 54.1 23.9 54.6 24 55C24.1 55.7 24.1 56.5 24.2 57.3C23.8 57.3 23.4 57.3 23 57.3H22C21.6 57.3 21.1 57.3 20.7 57.3C19.8 57.3 18.9 57.3 18.1 57.3C17.2 57.4 16.4 57.2 15.5 57.3C14.6 57.4 13.8 57.2 13 57.3C12.6 57.3 12.2 57.4 11.8 57.4C11.6 57.4 11.4 57.4 11.2 57.4C11.1 57.4 11 57.4 10.9 57.4C10.7 57.4 10.5 57.4 10.3 57.4C9.9 57.4 9.4 57.4 9 57.4C9 56.9 9.1 56.3 9.1 55.9V55.5C9.1 55.4 9.1 55.4 9.1 55.3C9.1 55.2 9.1 55 9 54.9C8.9 54.1 8.6 53.3 9 52.6C8.9 51.8 9.2 51.1 9 50.3C9.3 49.6 9 48.8 9 48.1C9.1 47.4 9.2 46.7 9 46C8.9 45.3 9.1 44.6 9 44C8.8 43.3 9.2 42.7 9 42C9 41.4 9 40.7 9 40.1C8.6 39.5 9 38.9 9 38.3C9.1 37.7 8.7 37.2 9 36.6C8.7 36.1 9 35.5 9 35C9.1 34.5 8.9 34 9 33.6C8.8 33.1 9.1 32.7 9 32.3C9.1 31.9 9 31.5 9 31.1C9 30.7 9 30.4 9 30C9 29.7 9 29.3 9 29C9.6 27.1 9.7 26.1 9.8 26.1Z" fill="#73523F"/>
<path d="M61.2 26.1C61.3 26.1 61.4 27.1 61.5 28.8C61.5 29.1 61.5 29.4 61.5 29.8C61.5 30.1 61.6 30.5 61.5 30.9C61.4 31.3 61.8 31.7 61.5 32.1C61.4 32.5 61.5 33 61.5 33.4C61.6 33.9 61.4 34.3 61.5 34.8C61.8 35.3 61.2 35.8 61.5 36.4C61.6 36.9 61.6 37.5 61.5 38.1C61.3 38.7 61.5 39.3 61.5 39.9C61.2 40.5 61.4 41.1 61.5 41.8C61.1 42.4 61.2 43.1 61.5 43.8C61.5 44.5 61.4 45.1 61.5 45.8C61.5 46.5 61.6 47.2 61.5 47.9C61.7 48.6 61.7 49.4 61.5 50.1C61.8 50.8 61.7 51.6 61.5 52.4C61.4 53.2 61.7 54 61.5 54.7C61.5 54.8 61.5 55 61.5 55.1V55.3C61.5 55.4 61.5 55.4 61.5 55.4H61.6C61.6 55.4 61.6 55.4 61.7 55.4C61.8 55.4 61.9 55.4 62 55.4C62.2 55.4 62.4 55.4 62.6 55.4C63 55.4 63.4 55.4 63.8 55.3C64.6 55.2 65.5 55.1 66.3 55.3C67.2 55 68 55.1 68.9 55.3C69.8 55.3 70.6 55.4 71.5 55.3C71.9 55.3 72.4 55.3 72.8 55.3H73.1C73.1 55.3 73.1 55.3 73.2 55.3C73.2 55.3 73.2 55.3 73.3 55.2C73.3 55.2 73.3 55.2 73.3 55.1V54.8C73.3 54.4 73.3 53.9 73.2 53.5C73 52.6 73.3 51.7 73.2 50.9C73.5 50 73.1 49.2 73.2 48.3C73.2 47.4 73.4 46.6 73.2 45.8C73.2 45 73.1 44.1 73.2 43.3C72.8 42.5 73.3 41.7 73.2 40.9C73.4 40.1 73.2 39.3 73.2 38.6C73.1 37.8 73.4 37.1 73.2 36.3C73.2 35.6 73.1 34.8 73.2 34.1C73 33.4 73.4 32.7 73.2 32C73.2 31.3 73.2 30.6 73.2 30C73.5 29.3 73.3 28.7 73.2 28C73.2 27.7 73.2 27.4 73.2 27.1C73.2 27 73.2 27 73.3 26.7V26.6C73.2 26.6 73.1 26.5 73 26.5H72.9C72.8 26.5 72.8 26.5 72.7 26.5C72.6 26.5 72.4 26.5 72.3 26.5C71.7 26.5 71.2 26 70.6 26.5C70.1 26.6 69.5 26.2 69 26.5C68.5 26.8 68 26.5 67.6 26.5C67.1 26.5 66.7 26.5 66.3 26.5C63.4 26.4 61.2 26.3 61.2 26.1C61.2 25.9 63.9 25.7 68.5 25.6C69 25.6 69.4 25.4 69.9 25.6C70.4 25.6 70.9 25.4 71.5 25.6C72 25.3 72.6 25.5 73.2 25.6C73.3 25.6 73.5 25.6 73.6 25.6H73.8C73.9 25.6 74 25.6 74.1 25.6C74.5 25.6 75 25.6 75.5 25.6C75.5 25.7 75.5 25.7 75.5 25.8C75.6 26.2 75.6 26.8 75.5 27.3C75.5 27.6 75.4 27.9 75.5 28.2C75.3 28.8 75.4 29.5 75.5 30.2C75.3 30.9 75.5 31.5 75.5 32.2C75.2 32.9 75.4 33.6 75.5 34.3C75.6 35 75.5 35.8 75.5 36.5C75.4 37.2 75.6 38 75.5 38.8C75.6 39.6 75.7 40.4 75.5 41.1C75.6 41.9 75.5 42.7 75.5 43.5C75.6 44.3 75.5 45.1 75.5 46C75.6 46.8 75.2 47.7 75.5 48.5C75.5 49.4 75.5 50.2 75.5 51.1C75.5 52 75.4 52.8 75.5 53.7C75.4 54.1 75.3 54.6 75.4 55C75.4 55.7 75.5 56.5 75.6 57.3C75.2 57.3 74.8 57.3 74.4 57.3H73.4C73 57.3 72.5 57.3 72.1 57.3C71.2 57.3 70.3 57.3 69.5 57.3C68.6 57.4 67.8 57.2 66.9 57.3C66 57.4 65.2 57.2 64.4 57.3C64 57.3 63.6 57.4 63.2 57.4C63 57.4 62.8 57.4 62.6 57.4C62.5 57.4 62.4 57.4 62.3 57.4C62.1 57.4 61.9 57.4 61.7 57.4C61.3 57.4 60.8 57.4 60.4 57.4C60.4 56.9 60.5 56.3 60.5 55.9V55.5C60.5 55.4 60.5 55.4 60.5 55.3C60.5 55.2 60.5 55 60.4 54.9C60.3 54.1 60 53.3 60.4 52.6C60.3 51.8 60.6 51.1 60.4 50.3C60.7 49.6 60.4 48.8 60.4 48.1C60.5 47.4 60.6 46.7 60.4 46C60.3 45.3 60.5 44.6 60.4 44C60.2 43.3 60.6 42.7 60.4 42C60.4 41.4 60.4 40.7 60.4 40.1C60 39.5 60.4 38.9 60.4 38.3C60.5 37.7 60.1 37.2 60.4 36.6C60.1 36.1 60.4 35.5 60.4 35C60.5 34.5 60.3 34 60.4 33.6C60.2 33.1 60.5 32.7 60.4 32.3C60.5 31.9 60.4 31.5 60.4 31.1C60.4 30.7 60.4 30.4 60.4 30C60.4 29.7 60.4 29.3 60.4 29C61 27.1 61.1 26.1 61.2 26.1Z" fill="#73523F"/>
<path d="M42.3 26.1C42.4 26.2 42.2 26.4 41.9 26.8C41.8 26.9 41.8 26.9 41.7 27C41.6 27.1 41.6 27.2 41.5 27.2C41.3 27.2 41.5 27.5 41.3 27.4C41.2 27.4 41.1 27.5 41 27.7C40.9 27.8 40.7 27.8 40.7 28C40.8 28.3 40.3 27.9 40.4 28.3C40.3 28.5 40.2 28.5 40.1 28.6C39.8 28.5 39.8 28.8 39.7 28.9C39.4 28.8 39.3 29 39.3 29.2C38.9 29 38.8 29.2 38.9 29.6C38.8 29.7 38.5 29.7 38.5 30C38.4 30.1 38.3 30.3 38.1 30.4C38.1 30.7 37.9 30.8 37.6 30.8C37.6 31.1 37.4 31.2 37.1 31.2C36.8 31.2 36.9 31.6 36.6 31.6C36.4 31.7 36.3 31.9 36.1 32C35.9 32.1 35.6 32.1 35.6 32.4C35.5 32.6 35.3 32.8 35.1 32.8C35.1 33.2 34.8 33.2 34.5 33.3C34.3 33.5 34 33.5 33.9 33.8C33.7 33.9 33.6 34.2 33.3 34.3C33.1 34.4 32.8 34.5 32.7 34.8C32.6 35.1 32.3 35 32.1 35.3C31.8 35.2 31.8 35.7 31.5 35.7C31.3 35.9 31 35.9 30.9 36.1C30.8 36.3 30.6 36.5 30.4 36.5C30.5 37 30 36.7 29.9 36.9C29.6 36.9 29.6 37.2 29.4 37.3C29.3 37.5 29 37.4 28.9 37.7C28.7 37.8 28.7 38.1 28.4 38.1C28.4 38.4 28 38.2 27.9 38.4C27.7 38.5 27.6 38.6 27.4 38.7C27.1 38.6 27.1 38.9 27 39C26.8 39.1 26.8 39.4 26.6 39.3C26.5 39.4 26.2 39.4 26.2 39.6C26.1 39.7 25.7 39.4 25.8 39.9C25.7 40 25.4 39.8 25.4 40.1C25.5 40.4 25.2 40.2 25.1 40.3C25 40.4 24.9 40.4 24.8 40.5C23.9 41.1 23.3 41.3 23.2 41.2C23.1 41.1 23.6 40.5 24.5 39.5C24.6 39.4 24.6 39.2 24.8 39.2C24.9 39.1 24.9 38.9 25.1 38.9C25 38.6 25.3 38.7 25.4 38.6C25.5 38.5 25.7 38.5 25.8 38.3C25.8 38.1 26.1 38.2 26.2 38C26.4 38 26.6 37.9 26.6 37.6C26.9 37.6 26.9 37.3 27 37.2C27.3 37.3 27.4 37 27.4 36.8C27.5 36.6 27.7 36.6 27.9 36.4C28.1 36.3 28.2 36.1 28.4 36C28.5 35.8 28.6 35.6 28.9 35.6C29 35.4 29.2 35.3 29.4 35.2C29.5 35 29.8 34.9 29.9 34.8C30 34.6 30.4 34.7 30.4 34.4C30.6 34.2 30.8 34.1 31 33.9C31.2 33.8 31.4 33.7 31.6 33.4C32 33.5 32.1 33.2 32.2 32.9C32.3 32.7 32.6 32.6 32.8 32.4C33 32.2 33.2 32.1 33.4 32C33.5 31.8 33.8 31.8 34 31.6C34.1 31.4 34.4 31.4 34.6 31.2C34.7 31 34.9 30.8 35.1 30.8C35.3 30.7 35.6 30.7 35.6 30.4C35.7 30.2 35.7 29.8 36.1 30C36.2 29.8 36.6 29.9 36.6 29.6C36.9 29.7 36.9 29.4 37.1 29.2C37.3 29.1 37.5 29.1 37.6 28.9C37.7 28.7 37.9 28.7 38.1 28.6C38.1 28.4 38.5 28.5 38.5 28.3C38.7 28.2 38.8 28.1 38.9 28C38.8 27.6 39.2 27.8 39.3 27.7C39.5 27.6 39.4 27.3 39.7 27.4C39.6 27.1 39.9 27.2 40.1 27.2C40.3 27.2 40.2 26.9 40.4 27C40.4 26.8 40.7 26.9 40.7 26.8C40.9 26.8 40.9 26.7 41 26.6C41.1 26.5 41.1 26.4 41.3 26.4C41.4 26.4 41.5 26.3 41.5 26.3C42 26.1 42.3 26 42.3 26.1Z" fill="#73523F"/>
<path d="M42.3 26.1C42.4 26 42.6 26.1 43.1 26.3C43.2 26.3 43.3 26.4 43.3 26.4C43.4 26.4 43.5 26.5 43.6 26.5C43.6 26.7 43.9 26.4 43.9 26.7C43.9 26.8 44.1 26.9 44.2 26.9C44.3 26.9 44.3 27.1 44.5 27.1C44.8 27 44.5 27.5 44.9 27.3C45.1 27.3 45.2 27.4 45.3 27.6C45.3 27.9 45.5 27.8 45.7 27.9C45.7 28.2 45.9 28.2 46.1 28.2C46 28.6 46.2 28.7 46.5 28.5C46.6 28.6 46.7 28.8 47 28.8C47.2 28.9 47.4 29 47.5 29.1C47.8 29 48 29.2 48 29.5C48.3 29.4 48.4 29.6 48.5 29.9C48.6 30.1 49 30 49 30.3C49.2 30.4 49.4 30.5 49.5 30.7C49.6 30.9 49.7 31.2 50 31.1C50.2 31.2 50.5 31.3 50.6 31.5C51 31.4 51.1 31.7 51.2 31.9C51.4 32 51.5 32.3 51.8 32.3C52 32.5 52.3 32.5 52.4 32.8C52.5 33 52.7 33.2 53 33.3C53.3 33.3 53.3 33.7 53.6 33.8C53.6 34.2 54 34 54.2 34.3C54.4 34.4 54.5 34.7 54.7 34.7C54.9 34.8 55.1 34.9 55.2 35.1C55.6 34.9 55.5 35.5 55.7 35.5C55.8 35.8 56.1 35.8 56.2 35.9C56.4 36 56.4 36.3 56.7 36.3C56.8 36.5 57.1 36.5 57.2 36.7C57.5 36.7 57.4 37.1 57.6 37.1C57.7 37.2 57.9 37.3 58 37.5C58 37.9 58.3 37.8 58.4 37.9C58.5 38 58.8 38 58.8 38.2C58.9 38.3 59 38.5 59.2 38.5C59.4 38.6 59.2 39 59.5 38.8C59.7 38.8 59.5 39.2 59.8 39.1C60.1 39 60 39.3 60.1 39.4C60.2 39.5 60.3 39.6 60.4 39.7C61.1 40.5 61.5 41 61.4 41.1C61.3 41.2 60.6 40.9 59.5 40.2C59.4 40.1 59.2 40.2 59.2 40C59.1 39.9 58.9 40 58.8 39.8C58.5 39.9 58.5 39.7 58.4 39.5C58.3 39.4 58.2 39.2 58 39.2C57.8 39.2 57.8 38.9 57.6 38.9C57.6 38.7 57.4 38.6 57.2 38.6C57.2 38.4 56.9 38.4 56.7 38.3C56.7 38 56.4 38 56.2 38C56 38 55.9 37.7 55.7 37.6C55.6 37.4 55.3 37.4 55.2 37.2C55 37.2 54.8 37.1 54.7 36.8C54.5 36.7 54.3 36.5 54.2 36.4C54 36.3 53.9 36.1 53.7 36C53.5 35.9 53.5 35.5 53.1 35.6C52.9 35.5 52.8 35.3 52.5 35.2C52.3 35 52.2 34.8 51.9 34.8C51.9 34.4 51.6 34.4 51.3 34.3C51.1 34.2 50.9 34 50.7 33.8C50.5 33.7 50.3 33.5 50.1 33.3C49.9 33.2 49.8 32.9 49.5 32.8C49.2 32.7 49.2 32.4 49 32.4C48.8 32.3 48.6 32.2 48.5 32C48.3 31.9 48.3 31.5 48 31.6C47.8 31.5 47.4 31.6 47.5 31.2C47.3 31.1 47.3 30.8 47 30.8C47 30.4 46.7 30.5 46.5 30.4C46.4 30.2 46.3 30 46.1 30C45.9 30 45.9 29.7 45.7 29.6C45.5 29.6 45.6 29.2 45.3 29.2C45.2 29.1 45 29 44.9 28.9C44.5 29.1 44.6 28.7 44.5 28.6C44.4 28.5 44.1 28.6 44.2 28.3C43.9 28.4 43.9 28.2 43.9 28C43.8 27.8 43.6 27.9 43.6 27.7C43.4 27.8 43.5 27.5 43.3 27.4C43.3 27.2 43.1 27.3 43.1 27.2C43 27.2 42.9 27.1 42.9 27C42.8 26.9 42.8 26.9 42.7 26.8C42.4 26.5 42.3 26.2 42.3 26.1Z" fill="#73523F"/>
<path d="M44.9 20.5C44.9 20.6 44.5 20.7 43.7 20.8C43.6 20.8 43.4 20.8 43.3 20.8C43.1 20.8 43 20.9 42.8 20.8C42.6 20.7 42.4 21.1 42.2 20.8C42 20.7 41.8 20.8 41.6 20.8C41.4 20.9 41.2 20.7 40.9 20.8C40.7 21.1 40.4 20.5 40.2 20.8C40 20.9 39.7 20.9 39.4 20.8C39.1 20.6 38.9 20.8 38.6 20.8C38.3 20.5 38 20.7 37.8 20.8C37.5 20.4 37.2 20.5 36.9 20.8C36.6 20.8 36.3 20.7 36 20.8C35.7 20.8 35.4 20.9 35 20.8C34.7 21 34.3 21 34 20.8C33.7 21.1 33.3 21 33 20.8C32.6 20.7 32.3 21 31.9 20.8C31.5 20.8 31.2 20.9 30.8 20.8C30.4 20.7 30.1 20.6 29.7 20.8C29.3 20.9 28.9 21 28.5 20.8C28.1 21.1 27.7 21 27.3 20.8C26.9 20.8 26.5 20.7 26.1 20.8C25.7 20.8 25.3 20.9 24.9 20.8C24.5 20.7 24.1 20.6 23.7 20.8C23.3 21 22.9 20.7 22.5 20.8C22.1 20.5 21.7 20.9 21.3 20.8C20.9 20.8 20.5 20.7 20.1 20.8C19.7 20.8 19.3 20.9 19 20.8C18.6 21.2 18.3 20.7 17.9 20.8C17.5 20.6 17.2 20.8 16.8 20.8C16.4 20.9 16.1 20.6 15.8 20.8C15.5 20.8 15.1 20.9 14.8 20.8C14.5 21 14.1 20.6 13.8 20.8C13.5 20.8 13.2 20.8 12.9 20.8C12.6 20.5 12.3 20.7 12 20.8C11.7 20.8 11.4 21 11.2 20.8C10.9 20.8 10.7 20.6 10.4 20.8C10.1 20.8 9.9 20.3 9.6 20.8C9.4 20.9 9.1 20.5 8.9 20.8C8.7 21.1 8.5 20.8 8.2 20.8C8 20.8 7.8 20.8 7.6 20.8C5.9 20.7 4.9 20.5 4.9 20.3C4.9 20.1 6.1 19.9 8.2 19.8C8.4 19.8 8.6 19.6 8.9 19.8C9.1 19.8 9.4 19.6 9.6 19.8C9.8 19.5 10.1 19.7 10.4 19.8C10.7 19.8 10.9 19.9 11.2 19.8C11.5 19.6 11.8 19.9 12 19.8C12.3 20 12.6 19.9 12.9 19.8C13.2 20 13.5 19.8 13.8 19.8C14.1 20.1 14.4 19.9 14.8 19.8C15.1 19.7 15.5 19.8 15.8 19.8C16.1 19.9 16.5 19.7 16.8 19.8C17.2 19.7 17.5 19.6 17.9 19.8C18.3 19.7 18.6 19.8 19 19.8C19.4 19.7 19.7 19.8 20.1 19.8C20.5 19.7 20.9 20.1 21.3 19.8C21.7 19.8 22.1 19.8 22.5 19.8C22.9 19.8 23.3 19.9 23.7 19.8C24.1 20.1 24.5 19.9 24.9 19.8C25.3 19.7 25.7 19.8 26.1 19.8C26.5 19.8 26.9 19.8 27.3 19.8C27.7 19.7 28.1 19.9 28.5 19.8C28.9 19.7 29.3 19.9 29.7 19.8C30.1 19.7 30.5 19.7 30.8 19.8C31.2 19.8 31.5 20.1 31.9 19.8C32.3 19.7 32.6 19.4 33 19.8C33.4 19.7 33.7 20 34 19.8C34.3 20.1 34.7 19.8 35 19.8C35.3 19.9 35.7 20 36 19.8C36.3 19.7 36.6 19.9 36.9 19.8C37.2 19.6 37.5 20 37.8 19.8C38.1 19.8 38.4 19.8 38.6 19.8C38.9 19.4 39.1 19.8 39.4 19.8C39.7 19.9 39.9 19.5 40.2 19.8C40.4 19.5 40.7 19.8 40.9 19.8C41.1 19.9 41.3 19.7 41.6 19.8C41.8 19.6 42 19.9 42.2 19.8C42.4 19.9 42.6 19.8 42.8 19.8C43 19.8 43.1 19.8 43.3 19.8C43.5 19.8 43.6 19.8 43.7 19.8C44.4 20.2 44.9 20.3 44.9 20.5Z" fill="#73523F"/>
<path d="M84.7 56.3C84.7 56.4 83.8 56.5 82.1 56.6C81.8 56.6 81.5 56.6 81.2 56.6C80.9 56.6 80.5 56.7 80.2 56.6C79.8 56.5 79.4 56.9 79 56.6C78.6 56.5 78.2 56.6 77.7 56.6C77.3 56.7 76.8 56.5 76.3 56.6C75.8 56.9 75.3 56.3 74.8 56.6C74.3 56.7 73.7 56.7 73.2 56.6C72.6 56.4 72.1 56.6 71.5 56.6C70.9 56.3 70.3 56.5 69.7 56.6C69.1 56.2 68.5 56.3 67.8 56.6C67.2 56.6 66.5 56.5 65.8 56.6C65.1 56.6 64.4 56.7 63.7 56.6C63 56.8 62.3 56.8 61.6 56.6C60.9 56.9 60.1 56.8 59.4 56.6C58.7 56.5 57.9 56.8 57.1 56.6C56.3 56.6 55.6 56.7 54.8 56.6C54 56.5 53.2 56.4 52.4 56.6C51.6 56.7 50.8 56.8 50 56.6C49.2 56.9 48.3 56.8 47.5 56.6C46.7 56.6 45.8 56.4 45 56.6C44.1 56.6 43.3 56.7 42.4 56.6C41.5 56.5 40.7 56.4 39.8 56.6C38.9 56.8 38.1 56.5 37.3 56.6C36.5 56.3 35.6 56.7 34.8 56.6C34 56.6 33.2 56.5 32.4 56.6C31.6 56.6 30.8 56.7 30 56.6C29.2 57 28.4 56.5 27.7 56.6C26.9 56.4 26.2 56.6 25.4 56.6C24.7 56.7 23.9 56.4 23.2 56.6C22.5 56.6 21.8 56.7 21.1 56.6C20.4 56.8 19.7 56.4 19 56.6C18.3 56.6 17.7 56.6 17 56.6C16.4 56.3 15.7 56.5 15.1 56.6C14.5 56.6 13.9 56.8 13.3 56.6C12.7 56.6 12.1 56.4 11.6 56.6C11 56.6 10.5 56.1 10 56.6C9.5 56.7 9 56.3 8.5 56.6C8 56.9 7.6 56.6 7.1 56.6C6.7 56.6 6.2 56.6 5.8 56.6C2.1 56.7 0 56.5 0 56.3C0 56.1 2.6 55.9 7.1 55.8C7.5 55.8 8 55.6 8.5 55.8C9 55.8 9.5 55.6 10 55.8C10.5 55.5 11.1 55.7 11.6 55.8C12.2 55.8 12.7 55.9 13.3 55.8C13.9 55.6 14.5 55.9 15.1 55.8C15.7 56 16.3 55.9 17 55.8C17.6 56 18.3 55.8 19 55.8C19.7 56.1 20.4 55.9 21.1 55.8C21.8 55.7 22.5 55.8 23.2 55.8C23.9 55.9 24.7 55.7 25.4 55.8C26.1 55.7 26.9 55.6 27.7 55.8C28.5 55.7 29.2 55.8 30 55.8C30.8 55.7 31.6 55.8 32.4 55.8C33.2 55.7 34 56.1 34.8 55.8C35.6 55.8 36.5 55.8 37.3 55.8C38.1 55.8 39 55.9 39.8 55.8C40.7 56.1 41.5 55.9 42.4 55.8C43.3 55.7 44.1 55.8 45 55.8C45.9 55.8 46.7 55.8 47.5 55.8C48.3 55.7 49.2 55.9 50 55.8C50.8 55.7 51.6 55.9 52.4 55.8C53.2 55.7 54 55.7 54.8 55.8C55.6 55.8 56.4 56.1 57.1 55.8C57.9 55.7 58.6 55.4 59.4 55.8C60.1 55.7 60.9 56 61.6 55.8C62.3 56.1 63 55.8 63.7 55.8C64.4 55.9 65.1 56 65.8 55.8C66.5 55.7 67.1 55.9 67.8 55.8C68.4 55.6 69.1 56 69.7 55.8C70.3 55.8 70.9 55.8 71.5 55.8C72.1 55.4 72.7 55.8 73.2 55.8C73.8 55.9 74.3 55.5 74.8 55.8C75.3 55.5 75.8 55.8 76.3 55.8C76.8 55.9 77.2 55.7 77.7 55.8C78.1 55.6 78.6 55.9 79 55.8C79.4 55.9 79.8 55.8 80.2 55.8C80.6 55.8 80.9 55.8 81.2 55.8C81.5 55.8 81.8 55.8 82.1 55.8C83.7 56.1 84.7 56.2 84.7 56.3Z" fill="#73523F"/>
<path d="M12.8 8.3C12.6 8.4 12.6 8.4 12.5 8.5C12.3 8.6 12 8.8 11.7 9.1C11.7 9.1 11.7 9.2 11.6 9.2C11.6 9.2 11.6 9.3 11.5 9.3C11.5 9.4 11.4 9.4 11.4 9.5C11.3 9.6 11.3 9.8 11.2 10C11.1 10.1 11.1 10.2 11.1 10.3C11.1 10.4 11.1 10.5 11 10.6C10.9 10.8 10.9 11 10.9 11.2C10.9 11.4 10.7 11.7 10.9 11.9C11 12 11 12.1 10.9 12.3C10.9 12.4 10.8 12.4 10.8 12.5C10.8 12.6 10.8 12.6 10.9 12.7C11 12.9 11 13.2 11.1 13.5C11 13.8 11.3 14 11.4 14.2C11.3 14.6 11.6 14.8 11.9 14.8C11.9 14.9 11.9 15 11.9 15.1C11.9 15.2 12 15.2 12 15.3C12.1 15.3 12.1 15.3 12.2 15.3C12.3 15.3 12.4 15.2 12.4 15.2C12.5 15.2 12.5 15.2 12.6 15.2H12.7C12.7 15.2 12.7 15.2 12.8 15.2C13 15.2 13.2 15.2 13.4 15.1C13.8 15.1 14.2 15 14.6 15.1C15 14.9 15.4 14.9 15.8 15.1C16.2 14.8 16.6 14.9 17 15.1C17.4 15.2 17.8 14.9 18.3 15.1C18.7 15.1 19.2 15 19.6 15.1C20 15.2 20.5 15.3 20.9 15.1C21.4 15 21.8 14.9 22.3 15.1C22.8 14.8 23.2 14.9 23.7 15.1C24.2 15.1 24.6 15.3 25.1 15.1C25.3 15.1 25.6 15.1 25.8 15.1C25.9 15.1 26 15.1 26.2 15.1H26.3C26.3 15.1 26.4 15.2 26.5 15.2H26.6L26.5 15.1C26.4 15 26.4 15 26.4 15C26.4 14.9 26.4 14.7 26.3 14.6C26.4 14.3 26.3 14.1 26.2 13.8C26.1 13.6 26 13.3 26.1 13C26.1 12.5 26.2 12 26.1 11.5C26.1 11 26.1 10.5 26.3 10.1C26.2 10 26.2 9.8 26.2 9.7C26.2 9.6 26.2 9.6 26.2 9.5C26.3 9.5 26.4 9.4 26.4 9.4C26.5 9.3 26.5 9.3 26.5 9.2H26.3C26.2 9.2 26.2 9.2 26.2 9.2C26 9.2 25.8 9.1 25.6 9.2C25.2 9.2 24.8 9.3 24.4 9.2C24 9.4 23.6 9 23.3 9.2C22.9 9.2 22.6 9.2 22.2 9.2C21.8 8.9 21.5 9.1 21.1 9.2C20.8 9.2 20.4 9.4 20.1 9.2C19.8 9.2 19.5 9 19.1 9.2C18.8 9.2 18.5 8.7 18.2 9.2C17.9 9.3 17.6 8.9 17.4 9.2C17.1 9.5 16.9 9.2 16.6 9.2C16.3 9.2 16.1 9.2 15.9 9.2C14 8.6 12.8 8.4 12.8 8.3C12.8 8.1 14.3 7.9 16.8 7.8C17.1 7.8 17.3 7.6 17.6 7.8C17.9 7.8 18.2 7.6 18.4 7.8C18.7 7.5 19 7.7 19.3 7.8C19.6 7.8 19.9 7.9 20.3 7.8C20.6 7.6 21 7.9 21.3 7.8C21.6 8 22 7.9 22.4 7.8C22.8 8 23.1 7.8 23.5 7.8C23.9 8.1 24.3 7.9 24.6 7.8C25 7.7 25.4 7.8 25.8 7.8C26 7.8 26.2 7.8 26.4 7.8C26.8 7.8 27.2 7.8 27.5 7.8C28 7.7 28.5 7.7 29 7.7C28.9 8 28.8 8.4 28.6 8.7C28.5 9.1 28.4 9.5 28.3 9.9C28.3 10 28.2 10.2 28.2 10.3C28.2 10.4 28.1 10.5 28.1 10.6C28.1 11 27.9 11.4 27.9 11.8C27.9 12 27.8 12.2 27.8 12.4C27.7 12.6 27.7 12.8 27.9 13C28 13.4 27.9 13.8 28.1 14.2V14.5C28.1 14.6 28.1 14.6 28.1 14.7V14.9L28.2 15.2C28.3 15.4 28.4 15.6 28.5 15.9C28.6 16.1 28.7 16.4 28.8 16.6C28.8 16.7 28.8 16.8 28.8 16.9C28.7 16.9 28.6 16.9 28.5 16.9C28.4 16.9 28.3 16.9 28.2 16.9C28 16.9 27.9 16.9 27.7 16.9C27.4 16.9 27 17 26.7 17C26.6 17 26.5 17 26.4 17C26.3 17 26.2 17 26.1 17C26 17 25.9 17 25.7 17C25.5 17 25.2 17 25 17C24.5 17 24 17 23.6 17C23.1 17.1 22.7 16.9 22.2 17C21.7 17.1 21.3 16.9 20.8 17C20.3 17.1 19.9 17.1 19.5 17C19.1 17 18.6 16.7 18.2 17C17.8 17.1 17.3 17.4 16.9 17C16.5 17.1 16.1 16.8 15.7 17C15.3 16.7 14.9 17 14.5 17C14.1 16.9 13.7 16.8 13.3 17C13.1 17.1 12.9 17.1 12.7 17C12.6 17 12.5 17 12.3 16.9C12.2 16.9 12.1 16.8 11.9 16.8C11.8 16.8 11.6 16.8 11.5 16.7C11.4 16.6 11.3 16.6 11.2 16.5C11.1 16.4 11 16.3 11 16.3C10.9 16.2 10.8 16.2 10.7 16.1C10.4 15.8 10.1 15.5 10 15.1C9.7 15 9.6 14.8 9.6 14.6C9.6 14.4 9.6 14.2 9.6 14C9.6 13.8 9.5 13.7 9.4 13.5C9.3 13.3 9.3 13.2 9.4 13C9.3 12.9 9.3 12.8 9.2 12.8C9.2 12.7 9.2 12.6 9.2 12.6C9.2 12.4 9.3 12.3 9.4 12.1C9.5 11.8 9.3 11.5 9.5 11.3C9.4 11.1 9.5 11 9.6 10.9C9.7 10.8 9.8 10.7 9.8 10.6C10 10.4 10 10.1 10.1 10C10.2 9.8 10.3 9.6 10.5 9.5C10.9 8.9 11 8.8 11 8.8L11.2 8.6C11.6 8.3 12.1 8.2 12.3 8.2C12.4 8.2 12.5 8.2 12.6 8.2C12.8 8.2 12.8 8.2 12.8 8.3Z" fill="#73523F"/>
<path d="M24.7 10.9C24.7 11 24.6 11.1 24.3 11.2H24.2C24.2 11.2 24.1 11.3 24.1 11.2C24.1 11.1 24 11.5 23.9 11.2C23.8 11.1 23.8 11.2 23.7 11.2C23.6 11.3 23.6 11.1 23.5 11.2C23.4 11.5 23.4 10.9 23.3 11.2C23.2 11.3 23.2 11.3 23.1 11.2C23 11 22.9 11.2 22.9 11.2C22.8 10.9 22.7 11.1 22.7 11.2C22.6 10.8 22.5 10.9 22.4 11.2C22.3 11.2 22.2 11.1 22.1 11.2C22 11.2 21.9 11.3 21.8 11.2C21.7 11.4 21.6 11.4 21.5 11.2C21.4 11.5 21.3 11.4 21.2 11.2C21.1 11.1 21 11.4 20.9 11.2C20.8 11.2 20.7 11.3 20.6 11.2C20.5 11.1 20.4 11 20.3 11.2C20.2 11.3 20.1 11.4 20 11.2C19.9 11.5 19.8 11.4 19.7 11.2C19.6 11.2 19.5 11.1 19.4 11.2C19.3 11.2 19.2 11.3 19.1 11.2C19 11.1 18.9 11 18.8 11.2C18.7 11.4 18.6 11.1 18.5 11.2C18.4 10.9 18.3 11.3 18.2 11.2C18.1 11.2 18 11 17.9 11.2C17.8 11.2 17.7 11.3 17.6 11.2C17.5 11.6 17.4 11.1 17.3 11.2C17.2 11 17.1 11.2 17 11.2C16.9 11.3 16.8 11 16.7 11.2C16.6 11.2 16.5 11.3 16.4 11.2C16.3 11.4 16.2 11 16.1 11.2C16 11.2 15.9 11.2 15.8 11.2C15.7 10.9 15.6 11.1 15.5 11.2C15.4 11.2 15.3 11.4 15.3 11.2C15.2 11.2 15.1 11 15.1 11.2C15 11.2 15 10.7 14.9 11.2C14.8 11.3 14.8 10.9 14.7 11.2C14.6 11.5 14.6 11.2 14.5 11.2C14.4 11.2 14.4 11.2 14.3 11.2C13.8 11.1 13.5 10.9 13.5 10.7C13.5 10.5 13.9 10.3 14.5 10.2C14.6 10.2 14.6 10 14.7 10.2C14.8 10.2 14.8 10 14.9 10.2C15 9.9 15 10.1 15.1 10.2C15.2 10.2 15.3 10.3 15.3 10.2C15.4 10 15.5 10.3 15.5 10.2C15.6 10.4 15.7 10.3 15.8 10.2C15.9 10.4 16 10.2 16.1 10.2C16.2 10.5 16.3 10.3 16.4 10.2C16.5 10.1 16.6 10.2 16.7 10.2C16.8 10.3 16.9 10.1 17 10.2C17.1 10.1 17.2 10 17.3 10.2C17.4 10.1 17.5 10.2 17.6 10.2C17.7 10.1 17.8 10.2 17.9 10.2C18 10.1 18.1 10.5 18.2 10.2C18.3 10.2 18.4 10.2 18.5 10.2C18.6 10.2 18.7 10.3 18.8 10.2C18.9 10.5 19 10.3 19.1 10.2C19.2 10.1 19.3 10.2 19.4 10.2C19.5 10.2 19.6 10.2 19.7 10.2C19.8 10.1 19.9 10.3 20 10.2C20.1 10.1 20.2 10.3 20.3 10.2C20.4 10.1 20.5 10.1 20.6 10.2C20.7 10.2 20.8 10.5 20.9 10.2C21 10.1 21.1 9.8 21.2 10.2C21.3 10.1 21.4 10.4 21.5 10.2C21.6 10.5 21.7 10.2 21.8 10.2C21.9 10.3 22 10.4 22.1 10.2C22.2 10.1 22.3 10.3 22.4 10.2C22.5 10 22.6 10.4 22.7 10.2C22.8 10.2 22.9 10.2 22.9 10.2C23 9.8 23.1 10.2 23.1 10.2C23.2 10.3 23.2 9.9 23.3 10.2C23.4 9.9 23.4 10.2 23.5 10.2C23.6 10.3 23.6 10.1 23.7 10.2C23.8 10 23.8 10.3 23.9 10.2C24 10.3 24 10.2 24.1 10.2H24.3C24.6 10.7 24.7 10.8 24.7 10.9Z" fill="#73523F"/>
<path d="M24.7 13.5C24.7 13.6 24.6 13.7 24.3 13.8H24.2C24.2 13.8 24.1 13.9 24.1 13.8C24.1 13.7 24 14.1 23.9 13.8C23.8 13.7 23.8 13.8 23.7 13.8C23.6 13.9 23.6 13.7 23.5 13.8C23.4 14.1 23.4 13.5 23.3 13.8C23.2 13.9 23.2 13.9 23.1 13.8C23 13.6 22.9 13.8 22.9 13.8C22.8 13.5 22.7 13.7 22.7 13.8C22.6 13.4 22.5 13.5 22.4 13.8C22.3 13.8 22.2 13.7 22.1 13.8C22 13.8 21.9 13.9 21.8 13.8C21.7 14 21.6 14 21.5 13.8C21.4 14.1 21.3 14 21.2 13.8C21.1 13.7 21 14 20.9 13.8C20.8 13.8 20.7 13.9 20.6 13.8C20.5 13.7 20.4 13.6 20.3 13.8C20.2 13.9 20.1 13.9 20 13.8C19.9 14.1 19.8 14 19.7 13.8C19.6 13.8 19.5 13.7 19.4 13.8C19.3 13.8 19.2 13.9 19.1 13.8C19 13.7 18.9 13.6 18.8 13.8C18.7 14 18.6 13.7 18.5 13.8C18.4 13.5 18.3 13.9 18.2 13.8C18.1 13.8 18 13.7 17.9 13.8C17.8 13.8 17.7 13.9 17.6 13.8C17.5 14.2 17.4 13.7 17.3 13.8C17.2 13.6 17.1 13.8 17 13.8C16.9 13.9 16.8 13.6 16.7 13.8C16.6 13.8 16.5 13.9 16.4 13.8C16.3 14 16.2 13.6 16.1 13.8C16 13.8 15.9 13.8 15.8 13.8C15.7 13.5 15.6 13.7 15.5 13.8C15.4 13.8 15.3 14 15.3 13.8C15.2 13.8 15.1 13.6 15.1 13.8C15 13.8 15 13.3 14.9 13.8C14.8 13.9 14.8 13.5 14.7 13.8C14.6 14.1 14.6 13.8 14.5 13.8C14.4 13.8 14.4 13.8 14.3 13.8C13.8 13.7 13.5 13.5 13.5 13.3C13.5 13.1 13.9 12.9 14.5 12.8C14.6 12.8 14.6 12.6 14.7 12.8C14.8 12.8 14.8 12.6 14.9 12.8C15 12.5 15 12.7 15.1 12.8C15.2 12.8 15.3 12.9 15.3 12.8C15.4 12.6 15.5 12.9 15.5 12.8C15.6 13 15.7 12.9 15.8 12.8C15.9 13 16 12.8 16.1 12.8C16.2 13.1 16.3 12.9 16.4 12.8C16.5 12.7 16.6 12.8 16.7 12.8C16.8 12.9 16.9 12.7 17 12.8C17.1 12.7 17.2 12.6 17.3 12.8C17.4 12.7 17.5 12.8 17.6 12.8C17.7 12.7 17.8 12.8 17.9 12.8C18 12.7 18.1 13.1 18.2 12.8C18.3 12.8 18.4 12.8 18.5 12.8C18.6 12.8 18.7 12.9 18.8 12.8C18.9 13.1 19 12.9 19.1 12.8C19.2 12.7 19.3 12.8 19.4 12.8C19.5 12.8 19.6 12.8 19.7 12.8C19.8 12.7 19.9 12.9 20 12.8C20.1 12.7 20.2 12.9 20.3 12.8C20.4 12.7 20.5 12.7 20.6 12.8C20.7 12.8 20.8 13.1 20.9 12.8C21 12.7 21.1 12.4 21.2 12.8C21.3 12.7 21.4 13 21.5 12.8C21.6 13.1 21.7 12.8 21.8 12.8C21.9 12.9 22 13 22.1 12.8C22.2 12.7 22.3 12.9 22.4 12.8C22.5 12.6 22.6 13 22.7 12.8C22.8 12.8 22.9 12.8 22.9 12.8C23 12.4 23.1 12.8 23.1 12.8C23.2 12.9 23.2 12.5 23.3 12.8C23.4 12.5 23.4 12.8 23.5 12.8C23.6 12.9 23.6 12.7 23.7 12.8C23.8 12.6 23.8 12.9 23.9 12.8C24 12.9 24 12.8 24.1 12.8H24.3C24.6 13.2 24.7 13.4 24.7 13.5Z" fill="#73523F"/>
<path d="M66 4C66 4.1 65.9 4.1 65.7 4.2C65.7 4.2 65.6 4.2 65.5 4.2C65.4 4.2 65.4 4.2 65.3 4.3C65.2 4.3 65.2 4.3 65.1 4.4C65 4.4 65 4.5 64.9 4.5C64.8 4.5 64.8 4.6 64.7 4.6C64.6 4.6 64.6 4.7 64.5 4.7C64.4 4.8 64.3 4.9 64.2 4.9C64.1 4.9 64.1 5 64 5.1C64 5.2 63.9 5.3 63.8 5.2C63.7 5.2 63.6 5.3 63.6 5.3C63.5 5.4 63.5 5.4 63.5 5.5L63.3 5.7C63.2 5.8 63.2 5.8 63.2 5.9C63.3 6.1 63.1 6.1 63 6.1C62.9 6.1 62.9 6.1 62.9 6.2C62.9 6.2 62.9 6.3 62.9 6.4C62.9 6.5 62.8 6.6 62.8 6.7C62.8 6.8 62.7 6.9 62.6 7C62.5 7 62.4 7.2 62.4 7.3C62.4 7.4 62.4 7.5 62.4 7.7C62.2 7.8 62.2 7.9 62.2 8C62.2 8.1 62.2 8.3 62.3 8.4C62.2 8.4 62.1 8.5 62.1 8.5C62.1 8.6 62 8.6 62 8.7C62 8.8 62.1 9 62.2 9.1C62.2 9.2 62.2 9.3 62.1 9.5C62.1 9.6 62.1 9.8 62.2 9.9C62.2 10 62.2 10 62.2 10.1C62.2 10.2 62.2 10.2 62.2 10.3C62.2 10.4 62.2 10.6 62.2 10.7C62.3 10.8 62.4 10.9 62.5 11C62.5 11.1 62.5 11.3 62.5 11.4C62.7 11.5 62.8 11.6 62.8 11.7C62.8 11.8 62.9 12 62.9 12.1C62.9 12.3 63 12.3 63.1 12.4C63.2 12.5 63.3 12.6 63.3 12.7C63.4 12.8 63.5 12.9 63.6 13C63.7 13.1 63.8 13.2 63.9 13.3C64 13.4 64.1 13.6 64.2 13.7C64.3 13.8 64.5 13.8 64.6 13.8C64.7 13.8 64.9 13.9 65 13.9C65.1 13.9 65.1 13.9 65.2 14C65.3 14 65.3 14.1 65.4 14.1C65.6 14 65.7 14 65.8 14H66C66.1 14 66.1 14.1 66.2 14.1C66.3 14.1 66.3 14.1 66.4 14.1C66.5 14.1 66.5 14.1 66.6 14.1H66.8C66.9 14.1 66.9 14.1 67 14H67.2C67.3 14 67.4 14 67.4 14H67.7C67.8 14 67.8 14 67.9 14C68 14 68.2 14 68.3 14.1C68.6 14.2 68.9 14.2 69.1 14C69.2 13.9 69.2 13.9 69.3 13.9C69.4 13.9 69.4 13.9 69.5 13.8H69.7C69.8 13.8 69.8 13.7 69.9 13.7C70.1 13.7 70.2 13.6 70.3 13.5C70.4 13.4 70.5 13.2 70.6 13.2C70.7 13.1 70.8 13 70.9 12.9C71 12.8 71.1 12.7 71.1 12.5C71.1 12.4 71.2 12.4 71.2 12.3C71.2 12.2 71.3 12.2 71.3 12.1C71.3 12 71.4 12 71.4 11.9C71.4 11.8 71.5 11.8 71.5 11.7C71.4 11.6 71.4 11.5 71.4 11.4C71.4 11.3 71.5 11.3 71.5 11.2C71.6 11.1 71.7 11 71.7 10.8C71.9 10.6 71.8 10.2 71.8 10C71.8 9.9 71.8 9.7 71.9 9.6C71.9 9.5 71.9 9.3 71.9 9.2C71.9 8.9 71.7 8.7 71.8 8.4C72.1 8.2 72 8.1 72 8.1C72 8 72 8 72 7.9C72 7.8 72 7.6 71.9 7.5C71.9 7.4 71.8 7.3 71.8 7.1C71.7 7 71.7 6.9 71.7 6.8C71.8 6.6 71.7 6.5 71.6 6.4C71.5 6.3 71.4 6.3 71.3 6.2C71.3 6.1 71.2 6.1 71.2 6.1L71.1 6C71 5.9 70.9 5.8 70.9 5.7C70.8 5.6 70.8 5.5 70.7 5.4C70.6 5.3 70.5 5.3 70.4 5.2C70.3 5.2 70.3 5 70.2 4.9C70.1 4.8 70.1 4.7 69.9 4.9C69.8 4.9 69.7 4.8 69.7 4.7C69.6 4.6 69.5 4.6 69.4 4.7C69.3 4.8 69.2 4.8 69.1 4.7C69 4.6 69 4.6 68.9 4.5C68.8 4.5 68.7 4.5 68.7 4.5H68.5C68.3 4.5 68.2 4.5 68 4.5C67.9 4.5 67.8 4.5 67.8 4.5H67.4C67.3 4.5 67.2 4.4 67.2 4.4C67.1 4.4 67 4.3 66.9 4.3C66.8 4.3 66.7 4.2 66.6 4.2C66.5 4.2 66.5 4.2 66.4 4.1C66 4.1 66 4 66 4C66 4 66.1 3.9 66.2 3.9C66.3 3.9 66.4 3.9 66.5 3.9C66.6 3.9 66.7 3.9 66.9 3.9C67 3.9 67 3.9 67.1 3.9C67.2 3.9 67.2 3.9 67.3 3.9C67.4 3.9 67.4 3.9 67.5 3.8H67.7C68 3.6 68.5 3.5 69 3.5C69.1 3.5 69.2 3.5 69.3 3.5C69.4 3.5 69.5 3.5 69.6 3.6C69.7 3.6 69.8 3.6 70 3.6C70.1 3.6 70.2 3.7 70.3 3.8C70.5 3.7 70.6 3.8 70.7 3.9C70.9 4 71 4.1 71.1 4.2C71.2 4.3 71.3 4.4 71.4 4.5C71.5 4.6 71.6 4.7 71.7 4.7C72 4.7 72 4.9 72.1 5C72.1 5.1 72.2 5.1 72.2 5.2C72.2 5.3 72.3 5.3 72.4 5.4C72.4 5.7 72.6 6 72.9 6.2C72.9 6.4 73 6.5 73.1 6.6C73.2 6.7 73.3 6.9 73.3 7C73.2 7.2 73.3 7.4 73.3 7.5C73.3 7.6 73.4 7.6 73.4 7.7C73.4 7.8 73.5 7.8 73.5 7.9C73.7 8.2 73.6 8.6 73.7 8.9C73.7 9.1 73.7 9.2 73.7 9.4C73.7 9.6 73.7 9.8 73.7 9.9C73.8 10.3 73.8 10.7 73.6 11C73.6 11.2 73.6 11.4 73.5 11.6C73.5 11.7 73.4 11.8 73.4 11.9C73.4 12 73.3 12.1 73.3 12.2C73.3 12.3 73.3 12.4 73.2 12.5C73.2 12.6 73.1 12.7 73.1 12.8C73 12.9 73 13 72.9 13.1C72.8 13.2 72.8 13.3 72.7 13.4C72.6 13.6 72.4 13.7 72.3 13.9C72.2 14 72 14.2 72 14.4C71.9 14.6 71.7 14.7 71.5 14.8C71.3 14.9 71.1 15.1 71 15.2L70.7 15.3L70.6 15.4L70.4 15.5C70.3 15.5 70.2 15.6 70.1 15.6C70 15.6 69.9 15.7 69.8 15.7C69.3 15.6 68.9 15.8 68.4 15.9C68.2 15.9 67.9 15.9 67.7 15.9C67.6 15.9 67.5 15.9 67.4 15.8L67.2 15.7C67.2 15.7 67.2 15.7 67.1 15.7C67 15.7 66.9 15.7 66.8 15.8C66.7 15.8 66.6 15.8 66.5 15.8C66.4 15.8 66.3 15.8 66.2 15.8C66.1 15.8 66.1 15.8 66 15.8C65.9 15.8 65.9 15.8 65.8 15.8C65.6 15.8 65.4 15.7 65.1 15.7C65 15.7 64.9 15.7 64.8 15.7C64.7 15.7 64.6 15.6 64.5 15.6C64.3 15.5 64.1 15.4 63.9 15.4C63.7 15.3 63.5 15.3 63.3 15.2C63.1 15.1 63 14.9 62.9 14.8C62.8 14.7 62.6 14.5 62.5 14.3C62.4 14.1 62.3 14 62.1 13.9C62 13.8 61.8 13.7 61.6 13.5C61.5 13.4 61.4 13.2 61.5 12.9C61.4 12.8 61.3 12.6 61.3 12.4C61.3 12.2 61.2 12 61.1 11.9C61.2 11.7 61.1 11.5 61.1 11.4C61 11.2 60.9 11.1 60.9 10.9C60.9 10.7 60.9 10.6 60.9 10.4C60.9 10.3 60.9 10.2 60.9 10.2C60.9 10.1 60.9 10 60.8 10C60.7 9.8 60.7 9.7 60.8 9.5C60.8 9.3 60.9 9.2 60.9 9C60.8 8.8 60.9 8.7 61 8.5C61 8.4 61.1 8.4 61.1 8.3C61.1 8.2 61.1 8.2 61.1 8.1C61 7.9 61 7.7 61.1 7.6C61.1 7.5 61.2 7.3 61.2 7.2C61.1 7 61.1 6.9 61.2 6.8C61.3 6.7 61.4 6.6 61.5 6.5C61.6 6.4 61.6 6.2 61.6 6.1C61.6 6 61.7 5.9 61.9 5.8C61.9 5.7 61.9 5.6 61.9 5.6C61.9 5.5 62 5.5 62 5.5C62.1 5.4 62.2 5.4 62.3 5.3C62.4 5.2 62.5 5.1 62.5 5L62.6 4.9C62.6 4.9 62.7 4.8 62.8 4.8C62.8 4.7 62.9 4.6 63 4.6C63.1 4.6 63.2 4.6 63.3 4.5C63.4 4.5 63.5 4.4 63.6 4.4C63.7 4.3 63.7 4.3 63.8 4.2C64 4 64.2 4 64.3 4C64.4 4 64.4 3.9 64.5 3.9C64.6 3.9 64.6 3.9 64.7 3.9C64.8 3.9 64.9 3.9 65 3.9C65.1 3.9 65.2 3.9 65.2 3.9C65.3 3.9 65.3 3.9 65.4 3.9C65.5 3.9 65.5 3.9 65.6 3.9C65.9 3.9 66 3.9 66 4Z" fill="#73523F"/>
<path d="M67.3 4.2C67.2 4.2 67.1 4.1 67 4.1C66.7 4.1 67.1 4.1 67 4.1C66.9 4.1 67.1 4.1 67 4.1C66.7 4.1 67.3 4 67 4.1C66.9 4.1 66.9 4.1 67 4.1C67.1 4 67.3 4 67 4.1C67.3 4 67.3 4 67 4.1C66.8 4.2 66.8 4.2 67 4.1C66.8 4.1 66.8 4.2 67 4.1C66.8 4.2 67.1 4 67 4.1C67.1 4 67.2 3.9 67 4.1C66.9 4.1 66.8 4.1 66.9 4C66.7 4.1 66.7 4.1 66.9 3.9C66.8 3.9 67 3.8 66.9 3.8C66.9 3.8 66.8 3.8 66.8 3.7C66.8 3.6 66.9 3.5 66.7 3.6C66.6 3.7 66.7 3.5 66.6 3.5C66.8 3.3 66.5 3.5 66.5 3.4C66.5 3.4 66.6 3.3 66.5 3.3C66.4 3.3 66.4 3.3 66.4 3.2C66.1 3.5 66.4 3.1 66.4 3.1C66.5 3 66.3 3.1 66.4 3C66.3 3 66.5 2.8 66.4 2.9C66.4 2.9 66.3 3 66.4 2.8C66.3 2.9 66.5 2.6 66.4 2.7C66.4 2.7 66.4 2.7 66.4 2.6C66.6 2.3 66.4 2.5 66.4 2.5C66.4 2.5 66.3 2.6 66.4 2.4C66.4 2.4 66.5 2.2 66.4 2.3C66.4 2.3 66.6 1.9 66.4 2.2C66.3 2.2 66.6 1.9 66.4 2.1C66.2 2.3 66.4 2.1 66.4 2C66.4 2 66.4 2 66.4 1.9C66.4 1.7 66.4 1.5 66.5 1.4C66.6 1.2 66.8 1.2 67 1.1C67 1.1 67.2 0.9 67.1 1.1C67.1 1.1 67.2 1 67.2 1.1C67.4 0.9 67.3 1.1 67.3 1.1C67.3 1.1 67.3 1.2 67.4 1.1C67.5 1 67.4 1.2 67.5 1.1C67.4 1.3 67.5 1.2 67.6 1.1C67.5 1.3 67.7 1.1 67.7 1.1C67.6 1.3 67.7 1.2 67.8 1.1C67.9 1 67.8 1.2 67.9 1.1C67.9 1.2 68 1.1 68 1.1C68.1 1 68.2 1 68.1 1.2C68.2 1.2 68.2 1.2 68.2 1.3C68.3 1.3 68.2 1.4 68.3 1.4C68.4 1.4 68.2 1.7 68.4 1.5C68.5 1.5 68.4 1.6 68.5 1.6C68.5 1.7 68.5 1.7 68.6 1.7C68.4 1.9 68.6 1.8 68.7 1.8C68.8 1.8 68.8 1.8 68.8 1.9L68.9 2C69 2 68.9 2.1 69 2.1C69.1 2.1 68.9 2.2 69.1 2.2C69.2 2.2 69.3 2.2 69.2 2.3C69.2 2.3 69 2.5 69.2 2.4C69.3 2.4 69.6 2.3 69.2 2.5C69.3 2.5 69.1 2.7 69.2 2.6C68.9 2.8 69.2 2.7 69.2 2.7C69.2 2.8 69.1 2.8 69.2 2.8C69.3 2.8 69.2 2.9 69.2 2.9C69.4 2.9 69 3 69.2 3V3.1C69.6 3.1 69.2 3.2 69.2 3.2C69.1 3.2 69.5 3.2 69.2 3.3C69.5 3.3 69.2 3.4 69.2 3.4C69.1 3.4 69.3 3.4 69.2 3.5C69.4 3.5 69.1 3.6 69.2 3.6C69.1 3.6 69.2 3.6 69.2 3.7C69.2 3.7 69.2 3.7 69.2 3.8C69.2 3.8 69.2 3.8 69.1 3.8C67.5 4.2 67.4 4.3 67.3 4.2Z" fill="#73523F"/>
<path d="M37.5 8.4C37.4 8.5 37.5 8.5 37.5 8.4C37.3 8.5 37.3 8.5 37.2 8.6C37 8.7 36.7 8.9 36.4 9.2C36.4 9.2 36.4 9.3 36.3 9.3C36.3 9.3 36.3 9.4 36.2 9.4C36.2 9.5 36.1 9.5 36.1 9.6C36 9.7 36 9.9 35.9 10.1C35.8 10.1 35.8 10.3 35.8 10.4C35.8 10.5 35.8 10.6 35.7 10.7C35.6 10.9 35.6 11.1 35.6 11.3C35.6 11.5 35.4 11.8 35.6 12C35.7 12.1 35.7 12.2 35.6 12.4C35.6 12.5 35.5 12.5 35.5 12.6C35.5 12.7 35.5 12.7 35.6 12.8C35.7 13 35.7 13.3 35.8 13.6C35.7 13.9 36 14.1 36.1 14.3C36 14.7 36.3 14.9 36.6 14.9C36.6 15.1 36.6 15.3 36.8 15.3C36.9 15.3 36.9 15.3 37 15.3C37.1 15.3 37.2 15.2 37.2 15.2C37.3 15.2 37.3 15.2 37.4 15.2H37.5C37.5 15.2 37.5 15.2 37.6 15.2C37.8 15.2 38 15.2 38.2 15.1C38.6 15.1 39 15 39.4 15.1C39.8 14.9 40.2 14.9 40.6 15.1C41 14.8 41.4 14.9 41.8 15.1C42.2 15.2 42.6 14.9 43.1 15.1C43.5 15.1 44 15 44.4 15.1C44.8 15.2 45.3 15.3 45.7 15.1C46.2 15 46.6 14.9 47.1 15.1C47.6 14.8 48 14.9 48.5 15.1C49 15.1 49.4 15.2 49.9 15.1C50.1 15.1 50.4 15.1 50.6 15.1C50.7 15.1 50.8 15.1 51 15.1C51 15.1 51.1 15.2 51.2 15.2H51.3L51.2 15.1C51.1 15 51.1 15 51.1 15C51.1 14.9 51.1 14.7 51 14.6C51.1 14.3 51 14.1 50.9 13.8C50.8 13.6 50.7 13.3 50.8 13C50.8 12.5 50.9 12 50.8 11.5C50.8 11 50.8 10.5 51 10.1C51 9.9 51 9.8 51 9.7C51 9.6 51 9.6 51 9.5C51.1 9.5 51.2 9.4 51.2 9.4C51.3 9.3 51.3 9.3 51.3 9.2H51.1C51 9.2 51 9.2 51 9.2C50.8 9.2 50.6 9.1 50.4 9.2C50 9.2 49.6 9.3 49.2 9.2C48.8 9.4 48.4 9 48 9.2C47.6 9.2 47.3 9.2 46.9 9.2C46.5 8.9 46.2 9.1 45.8 9.2C45.5 9.2 45.1 9.4 44.8 9.2C44.5 9.2 44.2 9 43.8 9.2C43.5 9.2 43.2 8.7 42.9 9.2C42.6 9.3 42.3 8.9 42.1 9.2C41.8 9.5 41.6 9.2 41.3 9.2C41 9.2 40.8 9.2 40.6 9.2C38.7 8.7 37.5 8.6 37.5 8.4C37.5 8.2 39 8 41.5 7.9C41.7 7.9 42 7.7 42.3 7.9C42.6 7.9 42.9 7.7 43.1 7.9C43.4 7.6 43.7 7.8 44 7.9C44.3 7.9 44.6 8 45 7.9C45.3 7.7 45.7 8 46 7.9C46.3 8.1 46.7 8 47.1 7.9C47.5 8.1 47.8 7.9 48.2 7.9C48.6 8.2 49 8 49.4 7.9C49.8 7.8 50.2 7.9 50.6 7.9C50.8 7.9 51 7.9 51.2 7.9C51.6 7.9 52 7.9 52.3 7.9C52.8 7.8 53.3 7.8 53.8 7.8C53.7 8.1 53.6 8.5 53.4 8.8C53.3 9.2 53.2 9.6 53.1 10C53.1 10.1 53 10.3 53 10.4C53 10.5 52.9 10.6 52.9 10.7C52.9 11.1 52.7 11.5 52.7 11.9C52.7 12.1 52.6 12.3 52.6 12.5C52.5 12.7 52.5 12.9 52.7 13.1C52.8 13.5 52.7 13.9 52.9 14.3V15L53 15.3C53.1 15.5 53.2 15.7 53.3 16C53.4 16.2 53.5 16.5 53.6 16.7C53.6 16.8 53.6 16.9 53.6 17C53.5 17 53.4 17 53.3 17C53.2 17 53.1 17 53 17C52.8 17 52.7 17 52.5 17C52.2 17 51.8 17.1 51.5 17.1C51.4 17.1 51.3 17.1 51.2 17.1C51.1 17.1 51 17.1 50.9 17.1C50.8 17.1 50.7 17.1 50.5 17.1C50.3 17.1 50 17.1 49.8 17.1C49.3 17.1 48.8 17.1 48.4 17.1C47.9 17.2 47.5 17 47 17.1C46.5 17.2 46.1 17 45.6 17.1C45.1 17.2 44.7 17.2 44.3 17.1C43.9 17.1 43.4 16.8 43 17.1C42.6 17.2 42.1 17.5 41.7 17.1C41.3 17.2 40.9 16.9 40.5 17.1C40.1 16.8 39.7 17.1 39.3 17.1C38.9 17 38.5 16.9 38.1 17.1C37.9 17.2 37.7 17.2 37.5 17.1C37.4 17.1 37.3 17.1 37.1 17C37 17 36.9 16.9 36.7 16.9C36.6 16.9 36.4 16.9 36.3 16.8C36.2 16.7 36.1 16.7 36 16.6C35.9 16.5 35.8 16.4 35.8 16.4C35.7 16.3 35.6 16.3 35.5 16.2C35.2 15.9 34.9 15.6 34.8 15.2C34.5 15.1 34.4 14.9 34.4 14.7C34.4 14.5 34.4 14.3 34.4 14.1C34.4 13.9 34.3 13.8 34.2 13.6C34.1 13.4 34.1 13.3 34.2 13.1C34.1 13 34.1 12.9 34 12.9C34 12.8 34 12.7 34 12.7C34 12.5 34.1 12.4 34.2 12.2C34.3 11.9 34.1 11.6 34.3 11.4C34.2 11.2 34.3 11.1 34.4 11C34.5 10.9 34.6 10.8 34.6 10.7C34.8 10.5 34.8 10.2 34.9 10.1C35 9.9 35.1 9.7 35.3 9.6C35.4 9.5 35.4 9.5 35.5 9.4L35.7 9.2C36.1 8.9 36.6 8.8 36.8 8.8C36.9 8.8 37 8.8 37.1 8.8C37.4 8.4 37.5 8.4 37.5 8.4Z" fill="#73523F"/>
<path d="M49.4 11C49.4 11.1 49.3 11.2 49 11.3H48.9C48.9 11.3 48.8 11.4 48.8 11.3C48.8 11.2 48.7 11.6 48.6 11.3C48.5 11.2 48.5 11.3 48.4 11.3C48.3 11.4 48.3 11.2 48.2 11.3C48.1 11.6 48.1 11 48 11.3C47.9 11.4 47.9 11.4 47.8 11.3C47.7 11.1 47.6 11.3 47.6 11.3C47.5 11 47.4 11.2 47.4 11.3C47.3 10.9 47.2 11 47.1 11.3C47 11.3 46.9 11.2 46.8 11.3C46.7 11.3 46.6 11.4 46.5 11.3C46.4 11.5 46.3 11.5 46.2 11.3C46.1 11.6 46 11.5 45.9 11.3C45.8 11.2 45.7 11.5 45.6 11.3C45.5 11.3 45.4 11.4 45.3 11.3C45.2 11.2 45.1 11.1 45 11.3C44.9 11.4 44.8 11.5 44.7 11.3C44.6 11.6 44.5 11.5 44.4 11.3C44.3 11.3 44.2 11.1 44.1 11.3C44 11.3 43.9 11.4 43.8 11.3C43.7 11.2 43.6 11.1 43.5 11.3C43.4 11.5 43.3 11.2 43.2 11.3C43.1 11 43 11.4 42.9 11.3C42.8 11.3 42.7 11.2 42.6 11.3C42.5 11.3 42.4 11.4 42.3 11.3C42.2 11.7 42.1 11.2 42 11.3C41.9 11.1 41.8 11.3 41.7 11.3C41.6 11.4 41.5 11.1 41.4 11.3C41.3 11.3 41.2 11.4 41.1 11.3C41 11.5 40.9 11.1 40.8 11.3C40.7 11.3 40.6 11.3 40.5 11.3C40.4 11 40.3 11.2 40.2 11.3C40.1 11.3 40 11.5 40 11.3C39.9 11.3 39.8 11.1 39.8 11.3C39.7 11.3 39.7 10.8 39.6 11.3C39.5 11.4 39.5 11 39.4 11.3C39.3 11.6 39.3 11.3 39.2 11.3C39.1 11.3 39.1 11.3 39 11.3C38.5 11.2 38.2 11 38.2 10.8C38.2 10.6 38.6 10.4 39.2 10.3C39.3 10.3 39.3 10.1 39.4 10.3C39.5 10.3 39.5 10.1 39.6 10.3C39.7 10 39.7 10.2 39.8 10.3C39.9 10.3 39.9 10.4 40 10.3C40.1 10.1 40.2 10.4 40.2 10.3C40.3 10.5 40.4 10.4 40.5 10.3C40.6 10.5 40.7 10.3 40.8 10.3C40.9 10.6 41 10.4 41.1 10.3C41.2 10.2 41.3 10.3 41.4 10.3C41.5 10.4 41.6 10.2 41.7 10.3C41.8 10.2 41.9 10.1 42 10.3C42.1 10.2 42.2 10.3 42.3 10.3C42.4 10.2 42.5 10.3 42.6 10.3C42.7 10.2 42.8 10.6 42.9 10.3C43 10.3 43.1 10.3 43.2 10.3C43.3 10.3 43.4 10.4 43.5 10.3C43.6 10.6 43.7 10.4 43.8 10.3C43.9 10.2 44 10.3 44.1 10.3C44.2 10.3 44.3 10.3 44.4 10.3C44.5 10.2 44.6 10.4 44.7 10.3C44.8 10.2 44.9 10.4 45 10.3C45.1 10.2 45.2 10.2 45.3 10.3C45.4 10.3 45.5 10.6 45.6 10.3C45.7 10.2 45.8 9.9 45.9 10.3C46 10.2 46.1 10.5 46.2 10.3C46.3 10.6 46.4 10.3 46.5 10.3C46.6 10.4 46.7 10.5 46.8 10.3C46.9 10.2 47 10.4 47.1 10.3C47.2 10.1 47.3 10.5 47.4 10.3C47.5 10.3 47.6 10.3 47.6 10.3C47.7 9.9 47.8 10.3 47.8 10.3C47.9 10.4 47.9 10 48 10.3C48.1 10 48.1 10.3 48.2 10.3C48.3 10.4 48.3 10.2 48.4 10.3C48.5 10.1 48.5 10.4 48.6 10.3C48.7 10.4 48.7 10.3 48.8 10.3H49C49.2 10.8 49.4 10.9 49.4 11Z" fill="#73523F"/>
<path d="M49.4 13.6C49.4 13.7 49.3 13.8 49 13.9H48.9C48.9 13.9 48.8 14 48.8 13.9C48.8 13.8 48.7 14.2 48.6 13.9C48.5 13.8 48.5 13.9 48.4 13.9C48.3 14 48.3 13.8 48.2 13.9C48.1 14.2 48.1 13.6 48 13.9C47.9 14 47.9 14 47.8 13.9C47.7 13.7 47.6 13.9 47.6 13.9C47.5 13.6 47.4 13.8 47.4 13.9C47.3 13.5 47.2 13.6 47.1 13.9C47 13.9 46.9 13.8 46.8 13.9C46.7 13.9 46.6 14 46.5 13.9C46.4 14.1 46.3 14.1 46.2 13.9C46.1 14.2 46 14.1 45.9 13.9C45.8 13.8 45.7 14.1 45.6 13.9C45.5 13.9 45.4 14 45.3 13.9C45.2 13.8 45.1 13.7 45 13.9C44.9 14 44.8 14.1 44.7 13.9C44.6 14.2 44.5 14.1 44.4 13.9C44.3 13.9 44.2 13.8 44.1 13.9C44 13.9 43.9 14 43.8 13.9C43.7 13.8 43.6 13.7 43.5 13.9C43.4 14.1 43.3 13.8 43.2 13.9C43.1 13.6 43 14 42.9 13.9C42.8 13.9 42.7 13.8 42.6 13.9C42.5 13.9 42.4 14 42.3 13.9C42.2 14.3 42.1 13.8 42 13.9C41.9 13.7 41.8 13.9 41.7 13.9C41.6 14 41.5 13.7 41.4 13.9C41.3 13.9 41.2 14 41.1 13.9C41 14.1 40.9 13.7 40.8 13.9C40.7 13.9 40.6 13.9 40.5 13.9C40.4 13.6 40.3 13.8 40.2 13.9C40.1 13.9 40 14.1 40 13.9C39.9 13.9 39.8 13.7 39.8 13.9C39.7 13.9 39.7 13.4 39.6 13.9C39.5 14 39.5 13.6 39.4 13.9C39.3 14.2 39.3 13.9 39.2 13.9C39.1 13.9 39.1 13.9 39 13.9C38.5 13.8 38.2 13.6 38.2 13.4C38.2 13.2 38.6 13 39.2 12.9C39.3 12.9 39.3 12.7 39.4 12.9C39.5 12.9 39.5 12.7 39.6 12.9C39.7 12.6 39.7 12.8 39.8 12.9C39.9 12.9 39.9 13 40 12.9C40.1 12.7 40.2 13 40.2 12.9C40.3 13.1 40.4 13 40.5 12.9C40.6 13.1 40.7 12.9 40.8 12.9C40.9 13.2 41 13 41.1 12.9C41.2 12.8 41.3 12.9 41.4 12.9C41.5 13 41.6 12.8 41.7 12.9C41.8 12.8 41.9 12.7 42 12.9C42.1 12.8 42.2 12.9 42.3 12.9C42.4 12.8 42.5 12.9 42.6 12.9C42.7 12.8 42.8 13.2 42.9 12.9C43 12.9 43.1 12.9 43.2 12.9C43.3 12.9 43.4 13 43.5 12.9C43.6 13.2 43.7 13 43.8 12.9C43.9 12.8 44 12.9 44.1 12.9C44.2 12.9 44.3 12.9 44.4 12.9C44.5 12.8 44.6 13 44.7 12.9C44.8 12.8 44.9 13 45 12.9C45.1 12.8 45.2 12.8 45.3 12.9C45.4 12.9 45.5 13.2 45.6 12.9C45.7 12.8 45.8 12.5 45.9 12.9C46 12.8 46.1 13.1 46.2 12.9C46.3 13.2 46.4 12.9 46.5 12.9C46.6 13 46.7 13.1 46.8 12.9C46.9 12.8 47 13 47.1 12.9C47.2 12.7 47.3 13.1 47.4 12.9C47.5 12.9 47.6 12.9 47.6 12.9C47.7 12.5 47.8 12.9 47.8 12.9C47.9 13 47.9 12.6 48 12.9C48.1 12.6 48.1 12.9 48.2 12.9C48.3 13 48.3 12.8 48.4 12.9C48.5 12.7 48.5 13 48.6 12.9C48.7 13 48.7 12.9 48.8 12.9H49C49.2 13.4 49.4 13.5 49.4 13.6Z" fill="#73523F"/>
<path d="M33.8 0.9C33.7 1 33.8 1 33.8 0.9C33.6 1 33.6 1 33.5 1.1C33.3 1.2 33 1.4 32.7 1.7C32.7 1.7 32.7 1.8 32.6 1.8C32.6 1.8 32.6 1.9 32.5 1.9C32.5 2 32.4 2 32.4 2.1C32.3 2.2 32.3 2.4 32.2 2.6C32 2.6 32 2.7 32 2.9C32 3 32 3.1 31.9 3.2C31.8 3.4 31.8 3.6 31.8 3.8C31.8 4 31.6 4.3 31.8 4.5C31.9 4.6 31.9 4.7 31.8 4.9C31.8 5 31.7 5 31.7 5.1C31.7 5.2 31.7 5.2 31.8 5.3C31.9 5.5 31.9 5.7 32 6C31.9 6.3 32.2 6.5 32.3 6.7C32.2 7.1 32.5 7.3 32.8 7.3C32.8 7.5 32.8 7.7 33 7.7C33.1 7.7 33.1 7.7 33.2 7.7C33.3 7.7 33.4 7.6 33.4 7.6C33.5 7.6 33.5 7.6 33.6 7.6H33.7C33.7 7.6 33.7 7.6 33.8 7.6C34 7.6 34.2 7.6 34.4 7.5C34.8 7.5 35.2 7.4 35.6 7.5C36 7.3 36.4 7.3 36.8 7.5C37.2 7.2 37.6 7.3 38 7.5C38.4 7.6 38.8 7.3 39.3 7.5C39.7 7.5 40.2 7.4 40.6 7.5C41 7.6 41.5 7.7 41.9 7.5C42.4 7.4 42.8 7.3 43.3 7.5C43.8 7.2 44.2 7.3 44.7 7.5C45.2 7.5 45.6 7.7 46.1 7.5C46.3 7.5 46.6 7.5 46.8 7.5C46.9 7.5 47 7.5 47.2 7.5C47.2 7.5 47.3 7.6 47.4 7.6H47.5L47.4 7.5C47.3 7.4 47.3 7.4 47.3 7.4C47.3 7.3 47.3 7.1 47.2 7C47.3 6.7 47.2 6.5 47.1 6.2C47 6 46.9 5.7 47 5.4C47 4.9 47.1 4.4 47 3.9C47 3.4 47 2.9 47.2 2.5C47.1 2.4 47.1 2.2 47.1 2.1C47.1 2 47.1 2 47.1 1.9C47.2 1.9 47.3 1.8 47.3 1.8C47.4 1.7 47.4 1.7 47.4 1.6H47.2C47.1 1.6 47.1 1.6 47.1 1.6C46.9 1.6 46.7 1.5 46.5 1.6C46.1 1.6 45.7 1.7 45.3 1.6C44.9 1.8 44.5 1.4 44.1 1.6C43.7 1.6 43.4 1.6 43 1.6C42.6 1.3 42.3 1.5 41.9 1.6C41.6 1.6 41.2 1.8 40.9 1.6C40.6 1.6 40.3 1.4 39.9 1.6C39.6 1.6 39.3 1.1 39 1.6C38.7 1.7 38.4 1.3 38.2 1.6C37.9 1.9 37.7 1.6 37.4 1.6C37.1 1.6 36.9 1.6 36.7 1.6C34.9 1.3 33.8 1.1 33.8 0.9C33.8 0.7 35.3 0.5 37.8 0.4C38 0.4 38.3 0.2 38.6 0.4C38.9 0.4 39.2 0.2 39.4 0.4C39.7 0.1 40 0.3 40.3 0.4C40.6 0.4 40.9 0.5 41.3 0.4C41.6 0.2 42 0.5 42.3 0.4C42.6 0.6 43 0.5 43.4 0.4C43.8 0.6 44.1 0.4 44.5 0.4C44.9 0.7 45.3 0.5 45.7 0.4C46.1 0.3 46.5 0.4 46.9 0.4C47.1 0.4 47.3 0.4 47.5 0.4C47.9 0.4 48.3 0.4 48.6 0.4C49 0 49.5 0 50 0C49.9 0.3 49.8 0.7 49.6 1C49.5 1.4 49.4 1.8 49.3 2.2C49.3 2.3 49.2 2.5 49.2 2.6C49.2 2.7 49.2 2.8 49.1 2.9C49.1 3.3 48.9 3.7 48.9 4.1C48.9 4.3 48.8 4.5 48.8 4.7C48.7 4.9 48.7 5.1 48.9 5.3C49 5.7 48.9 6.1 49.1 6.5V7.2L49.2 7.5C49.3 7.7 49.4 7.9 49.5 8.2C49.6 8.4 49.7 8.7 49.8 8.9C49.8 9 49.8 9.1 49.8 9.2C49.7 9.2 49.6 9.2 49.5 9.2C49.4 9.2 49.3 9.2 49.2 9.2C49 9.2 48.9 9.2 48.7 9.2C48.4 9.2 48 9.3 47.7 9.3C47.6 9.3 47.5 9.3 47.4 9.3C47.3 9.3 47.2 9.3 47.1 9.3C47 9.3 46.9 9.3 46.7 9.3C46.5 9.3 46.2 9.3 46 9.3C45.5 9.3 45 9.3 44.6 9.3C44.1 9.4 43.7 9.2 43.2 9.3C42.7 9.4 42.3 9.2 41.8 9.3C41.3 9.4 40.9 9.4 40.5 9.3C40.1 9.3 39.6 9 39.2 9.3C38.8 9.4 38.3 9.7 37.9 9.3C37.5 9.4 37.1 9.1 36.7 9.3C36.3 9 35.9 9.3 35.5 9.3C35.1 9.2 34.7 9.1 34.3 9.3C34.1 9.4 33.9 9.4 33.7 9.3C33.6 9.3 33.5 9.3 33.3 9.2C33.2 9.2 33.1 9.1 32.9 9.1C32.8 9.1 32.6 9.1 32.5 9C32.4 8.9 32.3 8.9 32.2 8.8C32.1 8.7 32 8.6 32 8.6C31.9 8.5 31.8 8.5 31.7 8.4C31.4 8.1 31.1 7.8 31 7.4C30.7 7.3 30.6 7.1 30.6 6.9C30.6 6.7 30.6 6.5 30.6 6.3C30.6 6.1 30.5 6 30.4 5.8C30.3 5.6 30.3 5.5 30.4 5.3C30.3 5.2 30.3 5.1 30.2 5.1C30.2 5 30.2 4.9 30.2 4.9C30.2 4.7 30.3 4.6 30.4 4.4C30.5 4.1 30.3 3.8 30.5 3.6C30.4 3.4 30.5 3.3 30.6 3.2C30.9 3.1 31 3 31 2.8C31.2 2.6 31.2 2.3 31.3 2.2C31.4 2 31.5 1.8 31.7 1.7C31.8 1.6 31.8 1.6 31.9 1.5L32.1 1.3C32.5 1 33 0.9 33.2 0.9C33.3 0.9 33.4 0.9 33.5 0.9C33.7 0.9 33.8 0.9 33.8 0.9Z" fill="#73523F"/>
<path d="M45.6 3.5C45.6 3.6 45.5 3.7 45.2 3.8H45.1C45.1 3.8 45 3.9 45 3.8C45 3.7 44.9 4.1 44.8 3.8C44.7 3.7 44.7 3.8 44.6 3.8C44.5 3.9 44.5 3.7 44.4 3.8C44.3 4.1 44.3 3.5 44.2 3.8C44.1 3.9 44.1 3.9 44 3.8C43.9 3.6 43.8 3.8 43.8 3.8C43.7 3.5 43.6 3.7 43.6 3.8C43.5 3.4 43.4 3.5 43.3 3.8C43.2 3.8 43.1 3.7 43 3.8C42.9 3.8 42.8 3.9 42.7 3.8C42.6 4 42.5 4 42.4 3.8C42.3 4.1 42.2 4 42.1 3.8C42 3.7 41.9 4 41.8 3.8C41.7 3.8 41.6 3.9 41.5 3.8C41.4 3.7 41.3 3.6 41.2 3.8C41.1 3.9 41 4 40.9 3.8C40.8 4.1 40.7 4 40.6 3.8C40.5 3.8 40.4 3.6 40.3 3.8C40.2 3.8 40.1 3.9 40 3.8C39.9 3.7 39.8 3.6 39.7 3.8C39.6 4 39.5 3.7 39.4 3.8C39.3 3.5 39.2 3.9 39.1 3.8C39 3.8 38.9 3.6 38.8 3.8C38.7 3.8 38.6 3.9 38.5 3.8C38.4 4.2 38.3 3.7 38.2 3.8C38.1 3.6 38 3.8 37.9 3.8C37.8 3.9 37.7 3.6 37.6 3.8C37.5 3.8 37.4 3.9 37.3 3.8C37.2 4 37.1 3.6 37 3.8C36.9 3.8 36.8 3.8 36.7 3.8C36.6 3.5 36.5 3.7 36.4 3.8C36.3 3.8 36.2 4 36.2 3.8C36.1 3.8 36 3.6 36 3.8C35.9 3.8 35.9 3.3 35.8 3.8C35.7 3.9 35.7 3.5 35.6 3.8C35.5 4.1 35.5 3.8 35.4 3.8C35.3 3.8 35.3 3.8 35.2 3.8C34.7 3.7 34.4 3.5 34.4 3.3C34.4 3.1 34.8 2.9 35.4 2.8C35.5 2.8 35.5 2.6 35.6 2.8C35.7 2.8 35.7 2.6 35.8 2.8C35.9 2.5 35.9 2.7 36 2.8C36.1 2.8 36.2 2.9 36.2 2.8C36.3 2.6 36.4 2.9 36.4 2.8C36.5 3 36.6 2.9 36.7 2.8C36.8 3 36.9 2.8 37 2.8C37.1 3.1 37.2 2.9 37.3 2.8C37.4 2.7 37.5 2.8 37.6 2.8C37.7 2.8 37.8 2.7 37.9 2.8C38 2.7 38.1 2.6 38.2 2.8C38.3 2.7 38.4 2.8 38.5 2.8C38.6 2.7 38.7 2.8 38.8 2.8C38.9 2.7 39 3.1 39.1 2.8C39.2 2.8 39.3 2.8 39.4 2.8C39.5 2.8 39.6 2.9 39.7 2.8C39.8 3.1 39.9 2.9 40 2.8C40.1 2.7 40.2 2.8 40.3 2.8C40.4 2.8 40.5 2.8 40.6 2.8C40.7 2.7 40.8 2.9 40.9 2.8C41 2.7 41.1 2.9 41.2 2.8C41.3 2.7 41.4 2.7 41.5 2.8C41.6 2.8 41.7 3.1 41.8 2.8C41.9 2.7 42 2.4 42.1 2.8C42.2 2.7 42.3 3 42.4 2.8C42.5 3.1 42.6 2.8 42.7 2.8C42.8 2.9 42.9 3 43 2.8C43.1 2.7 43.2 2.9 43.3 2.8C43.4 2.6 43.5 3 43.6 2.8C43.7 2.8 43.8 2.8 43.8 2.8C43.9 2.4 44 2.8 44 2.8C44.1 2.9 44.1 2.5 44.2 2.8C44.3 2.5 44.3 2.8 44.4 2.8C44.5 2.9 44.5 2.7 44.6 2.8C44.7 2.6 44.7 2.9 44.8 2.8C44.9 2.9 44.9 2.8 45 2.8H45.2C45.5 3.3 45.6 3.4 45.6 3.5Z" fill="#73523F"/>
<path d="M45.6 6.1C45.6 6.2 45.5 6.3 45.2 6.4H45.1C45.1 6.4 45 6.5 45 6.4C45 6.3 44.9 6.7 44.8 6.4C44.7 6.3 44.7 6.4 44.6 6.4C44.5 6.5 44.5 6.3 44.4 6.4C44.3 6.7 44.3 6.1 44.2 6.4C44.1 6.5 44.1 6.5 44 6.4C43.9 6.2 43.8 6.4 43.8 6.4C43.7 6.1 43.6 6.3 43.6 6.4C43.5 6 43.4 6.1 43.3 6.4C43.2 6.4 43.1 6.3 43 6.4C42.9 6.4 42.8 6.5 42.7 6.4C42.6 6.6 42.5 6.6 42.4 6.4C42.3 6.7 42.2 6.6 42.1 6.4C42 6.3 41.9 6.6 41.8 6.4C41.7 6.4 41.6 6.5 41.5 6.4C41.4 6.3 41.3 6.2 41.2 6.4C41.1 6.5 41 6.5 40.9 6.4C40.8 6.7 40.7 6.6 40.6 6.4C40.5 6.4 40.4 6.3 40.3 6.4C40.2 6.4 40.1 6.5 40 6.4C39.9 6.3 39.8 6.2 39.7 6.4C39.6 6.6 39.5 6.3 39.4 6.4C39.3 6.1 39.2 6.5 39.1 6.4C39 6.4 38.9 6.2 38.8 6.4C38.7 6.4 38.6 6.5 38.5 6.4C38.4 6.8 38.3 6.3 38.2 6.4C38.1 6.2 38 6.4 37.9 6.4C37.8 6.5 37.7 6.2 37.6 6.4C37.5 6.4 37.4 6.5 37.3 6.4C37.2 6.6 37.1 6.2 37 6.4C36.9 6.4 36.8 6.4 36.7 6.4C36.6 6.1 36.5 6.3 36.4 6.4C36.3 6.4 36.2 6.6 36.2 6.4C36.1 6.4 36 6.2 36 6.4C35.9 6.4 35.9 5.9 35.8 6.4C35.7 6.5 35.7 6.1 35.6 6.4C35.5 6.7 35.5 6.4 35.4 6.4C35.3 6.4 35.3 6.4 35.2 6.4C34.7 6.3 34.4 6.1 34.4 5.9C34.4 5.7 34.8 5.5 35.4 5.4C35.5 5.4 35.5 5.2 35.6 5.4C35.7 5.4 35.7 5.2 35.8 5.4C35.9 5.1 35.9 5.3 36 5.4C36.1 5.4 36.2 5.5 36.2 5.4C36.3 5.2 36.4 5.5 36.4 5.4C36.5 5.6 36.6 5.5 36.7 5.4C36.8 5.6 36.9 5.4 37 5.4C37.1 5.7 37.2 5.5 37.3 5.4C37.4 5.3 37.5 5.4 37.6 5.4C37.7 5.4 37.8 5.3 37.9 5.4C38 5.3 38.1 5.2 38.2 5.4C38.3 5.3 38.4 5.4 38.5 5.4C38.6 5.3 38.7 5.4 38.8 5.4C38.9 5.3 39 5.7 39.1 5.4C39.2 5.4 39.3 5.4 39.4 5.4C39.5 5.4 39.6 5.5 39.7 5.4C39.8 5.7 39.9 5.5 40 5.4C40.1 5.3 40.2 5.4 40.3 5.4C40.4 5.4 40.5 5.4 40.6 5.4C40.7 5.3 40.8 5.5 40.9 5.4C41 5.3 41.1 5.5 41.2 5.4C41.3 5.3 41.4 5.3 41.5 5.4C41.6 5.4 41.7 5.7 41.8 5.4C41.9 5.3 42 5 42.1 5.4C42.2 5.3 42.3 5.6 42.4 5.4C42.5 5.7 42.6 5.4 42.7 5.4C42.8 5.5 42.9 5.6 43 5.4C43.1 5.3 43.2 5.5 43.3 5.4C43.4 5.2 43.5 5.6 43.6 5.4C43.7 5.4 43.8 5.4 43.8 5.4C43.9 5 44 5.4 44 5.4C44.1 5.5 44.1 5.1 44.2 5.4C44.3 5.1 44.3 5.4 44.4 5.4C44.5 5.5 44.5 5.3 44.6 5.4C44.7 5.2 44.7 5.5 44.8 5.4C44.9 5.5 44.9 5.4 45 5.4H45.2C45.5 5.9 45.6 6 45.6 6.1Z" fill="#73523F"/>
</svg>
