<svg width="85" height="56" viewBox="0 0 85 56" fill="none" xmlns="http://www.w3.org/2000/svg">
<path d="M18.8 38.9C18.7 38.9 18.7 38.6 18.7 38.3C18.7 38.2 18.7 38.2 18.7 38.1C18.7 38 18.7 37.9 18.8 37.9C19 37.9 18.6 37.6 18.9 37.6C19 37.5 19 37.4 19 37.3C19 37.2 19.2 37.2 19.1 37C18.9 36.8 19.5 37 19.2 36.7C19.2 36.6 19.3 36.5 19.3 36.4C19.6 36.4 19.4 36.2 19.5 36.1C19.8 36.1 19.8 35.9 19.7 35.7C20.1 35.8 20.1 35.6 19.9 35.3C20 35.2 20.2 35.1 20.1 34.9C20.2 34.8 20.2 34.6 20.3 34.5C20.2 34.2 20.3 34.1 20.5 34.1C20.4 33.8 20.6 33.7 20.8 33.7C21 33.7 20.8 33.3 21.1 33.3C21.2 33.2 21.3 33 21.4 32.9C21.6 32.8 21.8 32.8 21.7 32.5C21.8 32.3 21.8 32.1 22.1 32.1C22 31.8 22.2 31.7 22.5 31.7C22.6 31.5 22.9 31.5 22.9 31.3C23.1 31.2 23.1 30.9 23.3 30.9C23.5 30.8 23.7 30.8 23.7 30.5C23.7 30.2 24 30.3 24.1 30.1C24.4 30.2 24.3 29.8 24.6 29.8C24.7 29.7 25 29.7 25 29.5C25.1 29.4 25.2 29.2 25.5 29.2C25.4 28.8 25.8 29.1 25.9 28.9C26.1 28.9 26.2 28.7 26.3 28.7C26.4 28.6 26.7 28.7 26.7 28.5C26.9 28.4 26.9 28.2 27.1 28.3C27.1 28.1 27.5 28.3 27.5 28.1C27.6 28 27.8 28 27.9 27.9C28.2 28.1 28.2 27.8 28.3 27.8C28.4 27.8 28.5 27.5 28.7 27.7C28.8 27.7 29 27.7 29.1 27.6C29.2 27.5 29.5 27.9 29.4 27.5C29.5 27.4 29.7 27.7 29.7 27.4C29.7 27.1 29.9 27.4 30 27.3C30.1 27.3 30.2 27.3 30.3 27.2C31.1 27.1 31.6 27.1 31.6 27.3C31.6 27.4 31.5 27.5 31.3 27.7C31.2 27.8 31.1 27.9 30.9 28C30.8 28 30.7 28.1 30.6 28.1C30.5 28.2 30.4 28.2 30.3 28.3C30.2 28.3 30.2 28.6 30 28.4C29.9 28.4 29.9 28.6 29.7 28.5C29.7 28.8 29.5 28.6 29.4 28.7C29.3 28.8 29.2 28.7 29.1 28.9C29.1 29.1 28.8 28.9 28.8 29.1C28.6 29 28.5 29.1 28.5 29.3C28.3 29.2 28.3 29.5 28.2 29.5C28.1 29 28 29.3 28 29.4C27.9 29.5 27.7 29.5 27.6 29.6C27.4 29.6 27.4 29.8 27.2 29.8C27.1 30 27 30.1 26.8 30.1C26.7 30.3 26.5 30.3 26.4 30.4C26.3 30.6 26.1 30.6 26 30.7C25.9 30.8 25.6 30.7 25.6 31C25.5 31.1 25.3 31.2 25.2 31.3C25 31.4 24.9 31.5 24.8 31.6C24.5 31.5 24.5 31.7 24.4 31.9C24.3 32.1 24.2 32.2 24 32.3C23.9 32.4 23.8 32.5 23.6 32.7C23.5 32.9 23.3 32.9 23.3 33.1C23.3 33.3 23 33.3 23 33.5C23 33.7 22.9 33.8 22.7 33.9C22.6 34 22.3 34 22.4 34.3C22.3 34.5 22.5 34.8 22.1 34.7C22.1 34.9 21.8 34.8 21.8 35.1C21.5 35.1 21.6 35.3 21.5 35.4C21.4 35.5 21.2 35.6 21.2 35.7C21.2 35.9 21 35.9 21 36C21.1 36.2 20.7 36.1 20.8 36.3C20.7 36.4 20.7 36.5 20.6 36.6C20.9 36.9 20.5 36.8 20.4 36.9C20.3 37 20.5 37.2 20.2 37.2C20.4 37.4 20.1 37.4 20 37.5C19.9 37.6 20 37.7 19.8 37.7C19.9 37.9 19.6 37.8 19.6 37.9C19.4 37.9 19.5 38.1 19.5 38.1C19.5 38.2 19.5 38.3 19.4 38.3C19.4 38.4 19.3 38.4 19.3 38.5C19 38.8 18.9 38.9 18.8 38.9Z" fill="#73523F"/>
<path d="M47.3 21.1C47.3 21 47.8 21 48.6 21.1C49 21.1 49.6 21.2 50.2 21.3C50.5 21.4 50.8 21.4 51.2 21.5C51.6 21.6 51.9 21.7 52.3 21.8C52.6 21.9 52.8 21.9 53.1 22C53.4 22.1 53.7 22.2 54 22.3C54.6 22.5 55.3 22.7 55.9 23C56.1 23.1 56.2 23.2 56.4 23.2C56.6 23.3 56.8 23.3 56.9 23.4C57.3 23.5 57.6 23.6 57.9 23.9C58.2 24.1 58.6 24.3 59 24.5C59.4 24.7 59.8 24.9 60.1 25.1C60.5 25.3 60.8 25.6 61.2 25.8C61.6 26.1 61.9 26.3 62.4 26.6C62.6 26.7 62.8 26.8 63 27C63.1 27.1 63.2 27.2 63.3 27.2C63.4 27.3 63.5 27.4 63.5 27.5C63.8 27.9 64.2 28.2 64.7 28.4C64.9 28.6 65.1 28.7 65.3 28.9C65.5 29.1 65.7 29.3 65.9 29.4C66.3 29.8 66.6 30.2 67 30.6C67.1 30.8 67.3 31.1 67.5 31.3C67.7 31.5 67.9 31.7 68 31.9C68.2 32.1 68.4 32.3 68.6 32.5C68.8 32.7 69 32.9 69.2 33.1C69.3 33.4 69.4 33.6 69.6 33.9C69.7 34.1 69.9 34.4 70.1 34.6C70.4 35.1 70.8 35.5 71.2 36C71.5 37.2 72.1 38.3 72.9 39.3C73 39.4 73 39.6 73.1 39.7C73.2 39.8 73.2 40 73.3 40.1C73.4 40.4 73.5 40.7 73.6 41C73.8 41.6 74 42.2 74.3 42.8C74.5 43.4 74.7 44.1 74.8 44.7C74.9 45 74.9 45.4 75 45.7C75 45.9 75.1 46 75.1 46.2C75.1 46.4 75.1 46.5 75.2 46.7C75.3 47 75.4 47.3 75.4 47.6C75.4 47.8 75.5 47.9 75.5 48.1V48.4L75.3 48.6C75.3 49 75.3 49.4 75.3 49.6C75.3 49.7 75.3 49.7 75.3 49.7V49.8C75.2 50 75.2 50.3 75.1 50.5H75C74.7 50.5 74.4 50.6 74.1 50.6H73.3C73 50.6 72.6 50.6 72.3 50.6C71.6 50.6 70.9 50.5 70.2 50.5C68.8 50.4 67.3 50.7 65.9 50.5C64.4 50.5 62.9 50.6 61.4 50.5C59.9 50.4 58.4 50.3 56.8 50.5C55.3 50.6 53.7 50.7 52.1 50.5C50.5 50.8 48.9 50.7 47.3 50.5C45.7 50.5 44.1 50.4 42.4 50.5C40.8 50.5 39.1 50.6 37.5 50.5C35.8 50.4 34.2 50.3 32.6 50.5C31 50.7 29.3 50.4 27.7 50.5C26.1 50.2 24.5 50.6 22.9 50.5C21.3 50.5 19.8 50.4 18.2 50.5C16.7 50.5 15.1 50.6 13.6 50.5C12.2 50.9 10.9 50.5 9.6 50.5L9.4 49C9.5 48.9 9.3 49 9.3 49C9.3 48.8 9.4 48.6 9.4 48.4C9.4 48.2 9.4 48 9.5 47.8V47.2C9.5 46.8 9.6 46.5 9.6 46.1C9.7 45.7 9.7 45.4 9.8 45C10 43.5 10.7 42.2 11 40.8C11.5 39.5 11.9 38.1 12.7 37C12.9 36.4 13.3 35.8 13.7 35.2C13.9 34.9 14.1 34.6 14.3 34.4C14.5 34.1 14.7 33.8 14.8 33.6C15.6 32.5 16.3 31.5 17.2 30.6C17.5 30.4 17.7 30.2 17.9 30C18 29.9 18.1 29.8 18.2 29.7C18.3 29.6 18.4 29.5 18.5 29.4C18.7 29.2 18.9 28.9 19.1 28.7C19.3 28.5 19.5 28.3 19.7 28.1C19.9 27.9 20.1 27.7 20.4 27.5C20.6 27.3 20.8 27.1 21.1 26.9C21.3 26.7 21.6 26.5 21.8 26.4C21.9 26.3 22 26.2 22.2 26.2C22.3 26.1 22.5 26.1 22.6 26C22.8 25.8 23.1 25.7 23.3 25.5C23.5 25.4 23.8 25.2 24 25.1C24.5 24.8 25 24.6 25.4 24.2C25.9 23.9 26.4 23.8 26.9 23.6C27.4 23.4 27.9 23.2 28.3 22.9C28.5 22.8 28.8 22.7 29 22.6C29.1 22.6 29.2 22.5 29.4 22.5C29.5 22.5 29.6 22.4 29.8 22.4C30.3 22.3 30.7 22.1 31.1 21.9C31.5 21.6 32 21.5 32.4 21.4C32.9 21.3 33.3 21.3 33.7 21.2C34.5 21 35.4 20.9 36.2 20.8C36.4 20.8 36.6 20.8 36.9 20.7C37 20.7 37.1 20.7 37.2 20.7H37.6C38 20.7 38.4 20.7 38.8 20.7C39.6 20.7 40.3 20.7 41 20.8C42.4 20.8 43.5 20.9 44.5 20.9C46.3 21 47.3 21 47.3 21.1C47.3 21.2 46.1 21.3 43.7 21.4C42.5 21.4 41.1 21.5 39.4 21.5C39 21.5 38.5 21.5 38.1 21.5C37.9 21.5 37.6 21.5 37.4 21.5C37.3 21.5 37.3 21.5 37.3 21.5H37.1C37 21.5 36.9 21.5 36.8 21.6C36.6 21.6 36.3 21.7 36.1 21.7C35.9 21.7 35.6 21.8 35.4 21.8C35.2 21.8 34.9 21.9 34.7 21.9C34.5 22 34.2 22 33.9 22.1C33.5 22.2 33.1 22.4 32.7 22.5C32.3 22.6 31.9 22.8 31.4 22.8C30.5 23.1 29.7 23.6 28.8 23.8C28.4 24.1 28 24.3 27.5 24.5C27 24.7 26.6 24.9 26.1 25.1C25.7 25.4 25.2 25.6 24.7 25.9C24.5 26 24.2 26.2 24 26.3C23.8 26.5 23.6 26.6 23.4 26.8C23.3 26.9 23.2 27 23.1 27.1C23 27.2 22.9 27.3 22.8 27.4C22.6 27.6 22.4 27.7 22.1 27.9C21.9 28.1 21.6 28.2 21.4 28.4C21.2 28.6 21 28.8 20.8 29C20.6 29.2 20.3 29.3 20.1 29.5C19.9 29.7 19.7 29.9 19.5 30.1C19.4 30.2 19.3 30.3 19.2 30.4C19.1 30.5 19 30.6 18.9 30.7C18.7 30.9 18.5 31.2 18.4 31.4C17.5 32.2 16.9 33.3 16.1 34.3C15.2 35.2 14.7 36.4 14.2 37.6C13.7 38.8 13 40 12.6 41.3C12.1 42.6 11.9 43.9 11.5 45.3C11.5 45.6 11.4 46 11.4 46.3C11.4 46.6 11.3 47 11.3 47.3V47.9C11.3 48.1 11.3 48.2 11.2 48.4C11.2 48.6 11.1 48.8 11.1 48.9V49.1C11.1 49.2 11.1 49.2 11 49.3C11 49.4 11 49.4 10.9 49.5C10.8 49.7 10.7 49.8 10.5 50C10.3 50.2 10 50.4 9.6 50.4C9.6 49.8 9.5 49.2 9.5 48.6C10.8 48.5 12.2 48.6 13.5 48.6C15 48.5 16.5 48.6 18.1 48.6C19.6 48.5 21.2 48.9 22.8 48.6C24.4 48.6 26 48.6 27.6 48.6C29.2 48.6 30.8 48.7 32.5 48.6C34.1 48.9 35.8 48.7 37.4 48.6C39.1 48.5 40.7 48.6 42.3 48.6C43.9 48.6 45.6 48.6 47.2 48.6C48.8 48.5 50.4 48.7 52 48.6C53.6 48.5 55.1 48.7 56.7 48.6C58.2 48.5 59.8 48.5 61.3 48.6C62.8 48.6 64.3 48.9 65.8 48.6C67.3 48.5 68.7 48.2 70.1 48.6C70.8 48.5 71.5 48.6 72.2 48.6C72.6 48.6 72.9 48.6 73.2 48.6H73.5C73.5 48.6 73.5 48.6 73.6 48.6H73.7C73.7 49 73.9 49 74 49C74 49 73.9 49 73.9 48.9C73.9 48.8 73.9 48.7 73.8 48.7V48.4C73.8 48.3 73.8 48.1 73.7 48C73.6 47.7 73.6 47.4 73.6 47.1C73.6 46.9 73.6 46.8 73.6 46.6C73.6 46.4 73.6 46.3 73.5 46.1C73.5 45.8 73.4 45.5 73.4 45.1C73.3 44.5 73.1 43.9 72.9 43.3C72.7 42.7 72.5 42.1 72.3 41.5C72.2 41.2 72.1 40.9 72 40.6C72 40.5 71.9 40.3 71.8 40.2C71.7 40.1 71.7 39.9 71.6 39.8C71.4 39.5 71.3 39.3 71.2 39C71.1 38.7 71 38.5 70.9 38.2C70.8 37.9 70.7 37.7 70.5 37.4C70.4 37.1 70.2 36.9 70 36.7C69.7 36.2 69.4 35.7 69.1 35.2C68.9 35 68.8 34.7 68.6 34.5C68.4 34.3 68.3 34 68.1 33.8C67.9 33.6 67.7 33.5 67.5 33.3C67.3 33.1 67.2 32.9 67 32.7C66.8 32.5 66.7 32.3 66.6 32C66.5 31.8 66.3 31.6 66.1 31.4C65.8 31 65.4 30.7 65 30.4C64.8 30.2 64.6 30.1 64.5 29.9C64.3 29.7 64.2 29.5 64 29.3C63.1 28.9 62.5 28.1 61.8 27.5C61.5 27.2 61.1 27 60.7 26.7C60.3 26.5 60 26.3 59.6 26C59.2 25.9 58.8 25.6 58.5 25.4C58.2 25.2 57.8 24.9 57.5 24.8C57.2 24.6 56.8 24.4 56.5 24.3C56.3 24.2 56.2 24.2 56 24.1C55.8 24 55.7 24 55.5 23.9C54.8 23.7 54.2 23.4 53.7 23.2C53.4 23.1 53.1 23 52.8 22.9C52.5 22.8 52.3 22.7 52 22.6C49.1 21.4 47.3 21.3 47.3 21.1Z" fill="#73523F"/>
<path d="M37.4 21.1C37.4 21 37.5 21 37.5 20.9C37.6 20.8 37.7 20.7 37.7 20.5V20.4C37.7 20.4 37.7 20.4 37.7 20.3C37.7 20.2 37.6 20.1 37.7 20C37.9 19.9 37.5 19.7 37.7 19.6C37.8 19.5 37.8 19.3 37.7 19.2C37.7 19 37.9 18.9 37.8 18.7C37.7 18.6 37.8 18.5 37.9 18.5C38 18.4 38.1 18.4 38 18.2C38 18 38.1 17.8 38.2 17.7C38.5 17.7 38.4 17.4 38.5 17.2C38.8 17.2 38.9 17 38.9 16.7C39.3 16.8 39.4 16.7 39.4 16.2C39.6 16.1 39.8 16.1 40 15.8C40.2 15.7 40.4 15.5 40.7 15.5C40.9 15.2 41.1 15.1 41.4 15.3C41.6 15 41.9 15.1 42.2 15.2C42.3 15.3 42.5 15.2 42.6 15.2C42.7 15.2 42.9 15.1 43 15.2C43.3 15.2 43.6 15.2 43.8 15.3C44.1 15.5 44.3 15.7 44.6 15.6C44.9 15.7 45.2 15.7 45.4 16C45.8 16 46 16.3 46.1 16.6C46.4 16.8 46.4 17.2 46.7 17.3C46.8 17.6 47.1 17.8 47.2 18.1C47.3 18.4 47.3 18.7 47.5 19C47.6 19.1 47.6 19.3 47.6 19.4C47.6 19.5 47.6 19.6 47.6 19.6V19.7C47.6 19.8 47.6 19.8 47.6 19.9V20C47.6 20 47.6 20 47.5 20C47.4 20 47.3 20.1 47.3 20.1C47.3 20.2 47.3 20.3 47.3 20.4C47.3 20.6 47.4 20.8 47.4 20.8C47.4 20.9 47.4 20.9 47.4 20.9C47.4 20.9 47.5 20.8 47.4 21C47.4 21.1 47.4 21.3 47.3 21.4C47.3 21.5 47.3 21.6 47.2 21.7C47.1 21.9 46.9 21.9 46.6 21.8C46.3 22 46 21.9 45.8 22C45.7 22 45.7 22 45.6 22C45.5 22 45.5 22 45.5 22C45.4 22 45.4 22 45.3 22C45.2 22 45.1 22.1 45 22C44.8 22.1 44.6 21.8 44.3 22C44.1 22 43.9 22.1 43.7 22C43.5 22.2 43.3 21.8 43.1 22C42.9 22 42.7 22 42.5 22C42.3 21.7 42.1 21.9 41.9 22C41.7 22 41.5 22.2 41.4 22C41.2 22 41.1 21.8 40.9 22C40.7 22 40.6 21.5 40.4 22C40.2 22.1 40.1 21.7 39.9 22C39.8 22.3 39.6 22 39.5 22C39.4 22 39.2 22 39.1 22C38 21.4 37.4 21.3 37.4 21.1C37.4 20.9 38.2 20.7 39.5 20.6C39.6 20.6 39.8 20.4 39.9 20.6C40 20.6 40.2 20.4 40.4 20.6C40.6 20.3 40.7 20.5 40.9 20.6C41.1 20.6 41.2 20.7 41.4 20.6C41.6 20.4 41.8 20.7 41.9 20.6C42.1 20.8 42.3 20.7 42.5 20.6C42.7 20.8 42.9 20.6 43.1 20.6C43.3 20.9 43.5 20.7 43.7 20.6C43.9 20.5 44.1 20.6 44.3 20.6C44.5 20.7 44.7 20.5 45 20.6C45.1 20.5 45.2 20.5 45.3 20.5C45.4 20.5 45.4 20.5 45.5 20.5C45.5 20.5 45.5 20.5 45.6 20.5H45.7C45.7 20.5 45.8 20.5 45.8 20.6C45.8 20.6 45.8 20.6 45.6 20.5V20.4C45.6 20.3 45.6 20.3 45.6 20.2C45.6 20.1 45.6 20 45.5 19.9C45.7 19.6 45.5 19.5 45.3 19.3C45.1 19.1 45.1 19 45 18.8C44.9 18.6 44.7 18.5 44.6 18.3C44.4 18.2 44.4 17.9 44.1 17.9C44 17.9 43.9 17.8 43.9 17.7C43.8 17.6 43.8 17.5 43.6 17.6C43.4 17.6 43.2 17.6 43.1 17.4C43 17.4 42.9 17.3 42.8 17.2C42.7 17.1 42.6 17.1 42.5 17.2C42.4 17.2 42.3 17.3 42.2 17.3C42.1 17.3 42 17.3 41.9 17.1C41.8 17.2 41.7 17.1 41.6 17.1C41.5 17.1 41.4 17.1 41.3 17.2C41.2 17.1 41.1 17.1 41 17.1C40.9 17.2 40.9 17.2 40.8 17.3C40.6 17.3 40.4 17.3 40.3 17.5C40.2 17.7 40 17.6 39.9 17.7C39.9 17.8 39.8 17.8 39.7 17.8C39.6 17.8 39.5 17.8 39.5 18C39.4 18.1 39.3 18.2 39.2 18.3C39.3 18.5 39.3 18.5 39.2 18.6C39.1 18.6 39 18.6 38.9 18.7C38.8 18.8 39 19.1 38.7 19C38.9 19.2 38.6 19.3 38.5 19.4C38.4 19.5 38.5 19.7 38.4 19.7C38.6 19.9 38.2 19.9 38.3 20C38.1 20.1 38.3 20.2 38.2 20.3C38.2 20.4 38.2 20.4 38.2 20.4C38.2 20.4 38.2 20.4 38.2 20.5V20.7C38.2 20.8 38.2 20.8 38.1 20.9C37.9 21.2 37.6 21.4 37.5 21.4C37.5 21.2 37.4 21.2 37.4 21.1Z" fill="#73523F"/>
<path d="M75.2 49.8C75.2 49.8 75.3 49.8 75.5 49.8C75.7 49.8 76 49.9 76.4 50.1C76.8 50.3 77.2 50.6 77.5 51.2C77.8 51.7 78 52.5 77.7 53.3C77.6 53.6 77.5 53.8 77.3 54.1C77.1 54.4 76.9 54.6 76.7 54.8C76.5 55 76.2 55.2 75.8 55.3C75.7 55.3 75.6 55.4 75.6 55.4C75.5 55.4 75.4 55.4 75.3 55.5C75.2 55.5 75.1 55.5 75 55.5C74.9 55.5 74.8 55.5 74.7 55.5C74.1 55.4 73.4 55.8 72.7 55.5C72 55.4 71.3 55.5 70.5 55.5C69.7 55.6 68.9 55.4 68.1 55.5C67.3 55.8 66.4 55.2 65.5 55.5C64.6 55.6 63.7 55.6 62.7 55.5C61.7 55.3 60.8 55.5 59.8 55.5C58.8 55.2 57.8 55.4 56.7 55.5C55.6 55.1 54.5 55.2 53.4 55.5C52.3 55.5 51.1 55.4 50 55.5C48.8 55.5 47.7 55.6 46.4 55.5C45.2 55.7 44 55.7 42.7 55.5C41.5 55.8 40.2 55.7 38.9 55.5C37.6 55.4 36.3 55.7 35 55.5C33.7 55.5 32.3 55.6 31 55.5C29.6 55.4 28.3 55.3 26.9 55.5C25.5 55.6 24.1 55.7 22.7 55.5C21.3 55.8 19.8 55.7 18.4 55.5C16.9 55.5 15.5 55.4 14 55.5C13.3 55.5 12.5 55.5 11.8 55.5C11.4 55.5 11.1 55.5 10.7 55.5C10.5 55.5 10.3 55.5 10.1 55.5H10C9.9 55.5 9.9 55.5 9.8 55.5C9.7 55.5 9.5 55.5 9.4 55.5C8.4 55.3 7.5 54.7 7 53.9C6.5 53.1 6.3 52.1 6.4 51.1C6.5 50.6 6.7 50.1 7 49.7C7.3 49.3 7.7 49 8.2 48.8C8.4 48.7 8.7 48.6 8.9 48.6C9 48.6 9.1 48.5 9.3 48.5C9.4 48.5 9.7 48.5 9.7 48.5C10.1 48.5 10.4 48.5 10.8 48.5C12.3 48.8 13.7 48.4 15.1 48.5C16.5 48.5 17.9 48.6 19.3 48.5C20.7 48.5 22.1 48.4 23.4 48.5C24.8 48.1 26.1 48.6 27.4 48.5C28.7 48.7 30 48.5 31.3 48.5C32.6 48.4 33.9 48.7 35.1 48.5C36.3 48.5 37.6 48.4 38.8 48.5C40 48.3 41.2 48.7 42.3 48.5C43.5 48.5 44.6 48.5 45.7 48.5C46.8 48.8 47.9 48.6 49 48.5C50.1 48.5 51.1 48.3 52.1 48.5C53.1 48.5 54.1 48.7 55 48.5C56 48.5 56.9 49 57.8 48.5C58.7 48.4 59.6 48.8 60.4 48.5C61.2 48.2 62 48.5 62.8 48.5C63.6 48.5 64.3 48.5 65 48.5C68.2 48.6 70.7 48.6 72.4 48.7C74.2 49.6 75.2 49.7 75.2 49.8C75.2 49.9 74.1 50 72 50.1C69.9 50.2 66.9 50.3 63 50.3C62.2 50.3 61.4 50.5 60.6 50.3C59.8 50.3 58.9 50.5 58 50.3C57.1 50.6 56.2 50.4 55.2 50.3C54.2 50.3 53.3 50.2 52.3 50.3C51.3 50.5 50.3 50.2 49.2 50.3C48.1 50.1 47 50.2 45.9 50.3C44.8 50.1 43.7 50.3 42.5 50.3C41.3 50 40.2 50.2 39 50.3C37.8 50.4 36.6 50.3 35.3 50.3C34.1 50.2 32.8 50.4 31.5 50.3C30.2 50.4 28.9 50.5 27.6 50.3C26.3 50.4 24.9 50.3 23.6 50.3C22.2 50.4 20.9 50.3 19.5 50.3C18.1 50.4 16.7 50 15.3 50.3C13.9 50.3 12.4 50.3 11 50.3C10.6 50.3 10.3 50.3 9.9 50.3C9.8 50.3 9.8 50.3 9.8 50.3C9.7 50.3 9.7 50.3 9.6 50.3C9.5 50.3 9.4 50.4 9.3 50.4C8.9 50.6 8.5 51.1 8.4 51.5C8 52.1 8 52.4 8 52.6C8 52.9 8.1 53.1 8.3 53.3C8.6 53.8 9.1 54 9.6 54C9.7 54 9.7 54 9.8 54H10.7C11.1 54 11.4 54 11.8 54C12.5 54 13.3 54 14 54C15.5 54 16.9 54 18.4 54C19.9 53.9 21.3 54.1 22.7 54C24.1 53.9 25.5 54.1 26.9 54C28.3 53.9 29.7 53.9 31 54C32.4 54 33.7 54.3 35 54C36.3 53.9 37.6 53.6 38.9 54C40.2 53.9 41.5 54.2 42.7 54C43.9 54.3 45.2 54 46.4 54C47.6 54.1 48.8 54.2 50 54C51.2 53.9 52.3 54.1 53.4 54C54.5 53.8 55.6 54.2 56.7 54C57.8 54 58.8 54 59.8 54C60.8 53.6 61.8 54 62.7 54C63.7 54.1 64.6 53.7 65.5 54C66.4 53.7 67.3 54 68.1 54C68.9 54.1 69.7 53.9 70.5 54C71.3 53.8 72 54.1 72.7 54C73.4 54.1 74.1 54 74.7 54C74.8 54 74.8 54 74.9 54C75 54 75 54 75.1 54C75.2 54 75.2 54 75.3 54C75.4 54 75.4 54 75.5 54C75.7 53.9 76 53.8 76.2 53.7C76.4 53.6 76.6 53.4 76.7 53.2C76.8 53 76.9 52.8 77 52.6C77.2 52 77.1 51.4 76.9 50.9C76.7 50.4 76.4 50.1 76.1 49.9C75.8 49.7 75.5 49.6 75.4 49.5C75.2 49.8 75.2 49.8 75.2 49.8Z" fill="#73523F"/>
<path d="M68.2 41.1C68.1 41.1 67.9 41 67.7 40.8L67.6 40.7C67.5 40.7 67.5 40.6 67.5 40.5C67.6 40.4 67.2 40.5 67.3 40.3C67.3 40.2 67.2 40.2 67.1 40.1C67 40 67.1 39.9 66.9 39.9C66.6 40 67.1 39.6 66.7 39.7C66.6 39.7 66.5 39.6 66.5 39.5C66.6 39.3 66.4 39.3 66.3 39.2C66.5 39 66.3 38.9 66.1 38.9C66.3 38.6 66.2 38.5 65.9 38.6C65.8 38.5 65.9 38.3 65.6 38.3C65.5 38.2 65.4 38.1 65.3 38C65 38 65 37.9 65 37.7C64.7 37.8 64.7 37.6 64.7 37.4C64.7 37.2 64.3 37.3 64.4 37.1C64.3 37 64.2 36.9 64.1 36.8C64.1 36.6 64.1 36.4 63.8 36.5C63.6 36.4 63.5 36.4 63.5 36.2C63.2 36.3 63.2 36.1 63.1 35.9C62.9 35.8 63 35.6 62.7 35.6C62.6 35.5 62.4 35.5 62.3 35.3C62.2 35.1 62.2 35 61.9 35C61.7 35 61.7 34.7 61.5 34.7C61.5 34.4 61.2 34.5 61.1 34.4C61 34.3 60.9 34.1 60.7 34.1C60.5 34 60.4 34 60.3 33.8C59.9 34 60.1 33.5 59.9 33.5C59.9 33.3 59.6 33.3 59.6 33.2C59.4 33.2 59.5 32.9 59.3 32.9C59.2 32.8 59 32.8 59 32.6C58.9 32.3 59 32 58.8 32C58.7 31.9 58.6 31.9 58.5 31.8C58.6 31.5 58.3 31.6 58.2 31.6C58.1 31.5 57.9 31.6 57.9 31.4C57.8 31.3 57.8 31.1 57.6 31.2C57.5 31.2 57.7 30.7 57.4 31C57.3 31 57.4 30.6 57.2 30.8C57 30.9 57 30.6 57 30.5C56.9 30.4 56.9 30.4 56.8 30.3C56.2 29.8 55.9 29.5 56 29.3C56.1 29.1 56.6 29.2 57.5 29.6C57.6 29.6 57.8 29.5 57.8 29.7C57.9 29.8 58.1 29.7 58.1 29.8C58.3 29.6 58.3 29.9 58.4 29.9C58.5 29.9 58.6 30.1 58.7 30.1C58.9 30 58.9 30.3 59 30.3C59 30.5 59.1 30.6 59.3 30.5C59.3 30.7 59.5 30.6 59.7 30.7C59.7 31 59.9 30.9 60.1 30.9C60.3 30.9 60.3 31.1 60.5 31.1C60.6 31.2 60.8 31.2 60.9 31.4C61.1 31.4 61.3 31.5 61.3 31.7C61.5 31.7 61.6 31.9 61.7 32C61.9 32 62 32.2 62.1 32.3C62.3 32.4 62.2 32.7 62.5 32.6C62.7 32.7 62.7 32.9 62.9 32.9C63 33 63.1 33.2 63.3 33.2C63.2 33.5 63.5 33.5 63.7 33.6C63.9 33.7 64 33.8 64.1 34C64.2 34.1 64.4 34.2 64.5 34.4C64.7 34.5 64.7 34.7 64.9 34.8C65.1 34.8 65 35.1 65.2 35.2C65.4 35.3 65.5 35.4 65.5 35.6C65.6 35.7 65.5 36 65.8 36C65.9 36.1 66.3 36 66.1 36.4C66.3 36.5 66.1 36.8 66.4 36.8C66.3 37.1 66.6 37 66.7 37.2C66.7 37.4 66.8 37.5 66.9 37.6C67.1 37.6 67 37.9 67.1 38C67.3 38 67.1 38.3 67.3 38.3C67.3 38.4 67.5 38.5 67.5 38.6C67.9 38.5 67.6 38.8 67.7 38.9C67.7 39 68 39 67.8 39.2C68.1 39.1 67.9 39.4 67.9 39.5C67.9 39.6 68.1 39.6 68 39.8C68.2 39.8 68 40 68.1 40.1C68 40.2 68.2 40.2 68.2 40.3C68.3 40.3 68.3 40.4 68.3 40.5C68.3 40.6 68.3 40.6 68.3 40.7C68.3 40.8 68.3 41.1 68.2 41.1Z" fill="#73523F"/>
<path d="M84.7 54.9C84.7 55 83.8 55.1 82.1 55.2C81.8 55.2 81.5 55.2 81.2 55.2C80.9 55.2 80.5 55.3 80.2 55.2C79.8 55.1 79.4 55.5 79 55.2C78.6 55.1 78.2 55.2 77.7 55.2C77.3 55.3 76.8 55.1 76.3 55.2C75.8 55.5 75.3 54.9 74.8 55.2C74.3 55.3 73.7 55.3 73.2 55.2C72.6 55 72.1 55.2 71.5 55.2C70.9 54.9 70.3 55.1 69.7 55.2C69.1 54.8 68.5 54.9 67.8 55.2C67.2 55.2 66.5 55.1 65.8 55.2C65.1 55.2 64.4 55.3 63.7 55.2C63 55.4 62.3 55.4 61.6 55.2C60.9 55.5 60.1 55.4 59.4 55.2C58.7 55.1 57.9 55.4 57.1 55.2C56.3 55.2 55.6 55.3 54.8 55.2C54 55.1 53.2 55 52.4 55.2C51.6 55.3 50.8 55.4 50 55.2C49.2 55.5 48.3 55.4 47.5 55.2C46.7 55.2 45.8 55.1 45 55.2C44.1 55.2 43.3 55.3 42.4 55.2C41.5 55.1 40.7 55 39.8 55.2C38.9 55.4 38.1 55.1 37.3 55.2C36.5 54.9 35.6 55.3 34.8 55.2C34 55.2 33.2 55.1 32.4 55.2C31.6 55.2 30.8 55.3 30 55.2C29.2 55.6 28.4 55.1 27.7 55.2C26.9 55 26.2 55.2 25.4 55.2C24.7 55.3 23.9 55 23.2 55.2C22.5 55.2 21.8 55.3 21.1 55.2C20.4 55.4 19.7 55 19 55.2C18.3 55.2 17.7 55.2 17 55.2C16.4 54.9 15.7 55.1 15.1 55.2C14.5 55.2 13.9 55.4 13.3 55.2C12.7 55.2 12.1 55 11.6 55.2C11 55.2 10.5 54.7 10 55.2C9.5 55.3 9 54.9 8.5 55.2C8 55.5 7.6 55.2 7.1 55.2C6.7 55.2 6.2 55.2 5.8 55.2C2.1 55.3 0 55.1 0 54.9C0 54.7 2.6 54.5 7.1 54.4C7.5 54.4 8 54.2 8.5 54.4C9 54.4 9.5 54.2 10 54.4C10.5 54.1 11.1 54.3 11.6 54.4C12.2 54.4 12.7 54.5 13.3 54.4C13.9 54.2 14.5 54.5 15.1 54.4C15.7 54.6 16.3 54.5 17 54.4C17.6 54.6 18.3 54.4 19 54.4C19.7 54.7 20.4 54.5 21.1 54.4C21.8 54.3 22.5 54.4 23.2 54.4C23.9 54.5 24.7 54.3 25.4 54.4C26.1 54.3 26.9 54.2 27.7 54.4C28.5 54.3 29.2 54.4 30 54.4C30.8 54.3 31.6 54.4 32.4 54.4C33.2 54.3 34 54.7 34.8 54.4C35.6 54.4 36.5 54.4 37.3 54.4C38.1 54.4 39 54.5 39.8 54.4C40.7 54.7 41.5 54.5 42.4 54.4C43.3 54.3 44.1 54.4 45 54.4C45.9 54.4 46.7 54.4 47.5 54.4C48.3 54.3 49.2 54.5 50 54.4C50.8 54.3 51.6 54.5 52.4 54.4C53.2 54.3 54 54.3 54.8 54.4C55.6 54.4 56.4 54.7 57.1 54.4C57.9 54.3 58.6 54 59.4 54.4C60.1 54.3 60.9 54.6 61.6 54.4C62.3 54.7 63 54.4 63.7 54.4C64.4 54.5 65.1 54.6 65.8 54.4C66.5 54.3 67.1 54.5 67.8 54.4C68.4 54.2 69.1 54.6 69.7 54.4C70.3 54.4 70.9 54.4 71.5 54.4C72.1 54 72.7 54.4 73.2 54.4C73.8 54.5 74.3 54.1 74.8 54.4C75.3 54.1 75.8 54.4 76.3 54.4C76.8 54.5 77.2 54.3 77.7 54.4C78.1 54.2 78.6 54.5 79 54.4C79.4 54.5 79.8 54.4 80.2 54.4C80.6 54.4 80.9 54.4 81.2 54.4C81.5 54.4 81.8 54.4 82.1 54.4C83.7 54.7 84.7 54.8 84.7 54.9Z" fill="#73523F"/>
<path d="M42.3 11C42.2 11 42.1 10.9 42 10.7V10.6C42 10.6 41.9 10.5 42 10.5C42.1 10.5 41.7 10.4 42 10.3C42.1 10.2 42 10.2 42 10.1C41.9 10 42.1 10 42 9.9C41.7 9.8 42.3 9.8 42 9.7C41.9 9.6 41.9 9.6 42 9.5C42.2 9.4 42 9.4 42 9.3C42.3 9.2 42.1 9.1 42 9.1C42.4 9 42.3 8.9 42 8.9C42 8.8 42.1 8.7 42 8.6C42 8.5 41.9 8.4 42 8.3C41.8 8.2 41.8 8.1 42 8C41.7 7.9 41.8 7.8 42 7.7C42.1 7.6 41.8 7.5 42 7.4C42 7.3 41.9 7.2 42 7.1C42.1 7 42.2 6.9 42 6.8C41.9 6.7 41.8 6.6 42 6.5C41.7 6.4 41.8 6.3 42 6.2C42 6.1 42.2 6 42 5.9C42 5.8 41.9 5.7 42 5.6C42.1 5.5 42.2 5.4 42 5.3C41.8 5.2 42.1 5.1 42 5C42.3 4.9 41.9 4.8 42 4.7C42 4.6 42.2 4.5 42 4.4C42 4.3 41.9 4.2 42 4.1C41.6 4 42.1 3.9 42 3.8C42.2 3.7 42 3.6 42 3.5C41.9 3.4 42.2 3.3 42 3.2C42 3.1 41.9 3 42 2.9C41.8 2.8 42.2 2.7 42 2.6C42 2.5 42 2.4 42 2.3C42.3 2.2 42.1 2.1 42 2.1C42 2 41.8 1.9 42 1.9C42 1.8 42.2 1.8 42 1.7C42 1.6 42.5 1.6 42 1.5C41.9 1.4 42.3 1.4 42 1.3C41.7 1.2 42 1.2 42 1.1C42 1 42 1 42 0.9C42 0.3 42.2 0 42.3 0C42.5 0 42.7 0.3 42.8 0.9C42.8 1 43 1 42.8 1.1C42.8 1.2 43 1.2 42.8 1.3C43.1 1.4 42.9 1.4 42.8 1.5C42.8 1.6 42.7 1.6 42.8 1.7C43 1.8 42.7 1.9 42.8 1.9C42.6 2 42.7 2.1 42.8 2.1C42.6 2.2 42.8 2.3 42.8 2.4C42.5 2.5 42.7 2.6 42.8 2.7C42.9 2.8 42.8 2.9 42.8 3C42.8 3.1 42.9 3.2 42.8 3.3C42.9 3.4 43 3.5 42.8 3.6C42.9 3.7 42.8 3.8 42.8 3.9C42.9 4 42.8 4.1 42.8 4.2C42.9 4.3 42.5 4.4 42.8 4.5C42.8 4.6 42.8 4.7 42.8 4.8C42.8 4.9 42.7 5 42.8 5.1C42.5 5.2 42.7 5.3 42.8 5.4C42.9 5.5 42.8 5.6 42.8 5.7C42.8 5.8 42.8 5.9 42.8 6C42.9 6.1 42.7 6.2 42.8 6.3C42.9 6.4 42.7 6.5 42.8 6.6C42.9 6.7 42.9 6.8 42.8 6.9C42.8 7 42.5 7.1 42.8 7.2C42.9 7.3 43.2 7.4 42.8 7.5C42.9 7.6 42.6 7.7 42.8 7.8C42.5 7.9 42.8 8 42.8 8.1C42.7 8.2 42.6 8.3 42.8 8.4C42.9 8.5 42.7 8.6 42.8 8.7C43 8.8 42.6 8.9 42.8 8.9C42.8 9 42.8 9.1 42.8 9.1C43.2 9.2 42.8 9.2 42.8 9.3C42.7 9.4 43.1 9.4 42.8 9.5C43.1 9.6 42.8 9.6 42.8 9.7C42.7 9.8 42.9 9.8 42.8 9.9C43 10 42.7 10 42.8 10.1C42.7 10.2 42.8 10.2 42.8 10.3V10.5C42.6 10.9 42.5 11 42.3 11Z" fill="#73523F"/>
<path d="M36.2 15.2C36.1 15.2 36 15.1 35.9 14.9V14.8C35.9 14.8 35.8 14.7 35.9 14.7C36 14.7 35.6 14.6 35.9 14.5C36 14.4 35.9 14.4 35.9 14.3C35.8 14.2 36 14.2 35.9 14.1C35.6 14 36.2 14 35.9 13.9C35.8 13.8 35.8 13.8 35.9 13.7C36.1 13.6 35.9 13.6 35.9 13.5C36.2 13.4 36 13.3 35.9 13.3C36.3 13.2 36.2 13.1 35.9 13.1C35.9 13 36 12.9 35.9 12.8C35.9 12.7 35.8 12.6 35.9 12.5C35.7 12.4 35.7 12.3 35.9 12.2C35.6 12.1 35.7 12 35.9 11.9C36 11.8 35.7 11.7 35.9 11.6C35.9 11.5 35.8 11.4 35.9 11.3C36 11.2 36.1 11.1 35.9 11C35.8 10.9 35.7 10.8 35.9 10.7C35.6 10.6 35.7 10.5 35.9 10.4C35.9 10.3 36 10.2 35.9 10.1C35.9 10 35.8 9.9 35.9 9.8C36 9.7 36.1 9.6 35.9 9.5C35.7 9.4 36 9.3 35.9 9.2C36.2 9.1 35.8 9 35.9 8.9C35.9 8.8 36 8.7 35.9 8.6C35.9 8.5 35.8 8.4 35.9 8.3C35.5 8.2 36 8.1 35.9 8C36.1 7.9 35.9 7.8 35.9 7.7C35.8 7.6 36.1 7.5 35.9 7.4C35.9 7.3 35.8 7.2 35.9 7.1C35.7 7 36.1 6.9 35.9 6.8C35.9 6.7 35.9 6.6 35.9 6.5C36.2 6.4 36 6.3 35.9 6.3C35.9 6.2 35.7 6.1 35.9 6.1C35.9 6 36.1 6 35.9 5.9C35.9 5.8 36.4 5.8 35.9 5.7C35.8 5.6 36.2 5.6 35.9 5.5C35.6 5.4 35.9 5.4 35.9 5.3C35.9 5.2 35.9 5.2 35.9 5.1C36 4.6 36.2 4.3 36.4 4.3C36.6 4.3 36.8 4.6 36.9 5.2C36.9 5.3 37.1 5.3 36.9 5.4C36.9 5.5 37.1 5.5 36.9 5.6C37.2 5.7 37 5.7 36.9 5.8C36.9 5.9 36.8 5.9 36.9 6C37.1 6.1 36.8 6.2 36.9 6.2C36.7 6.3 36.8 6.4 36.9 6.4C36.7 6.5 36.9 6.6 36.9 6.7C36.6 6.8 36.8 6.9 36.9 7C37 7.1 36.9 7.2 36.9 7.3C36.8 7.4 37 7.5 36.9 7.6C37 7.7 37.1 7.8 36.9 7.9C37 8 36.9 8.1 36.9 8.2C37 8.3 36.9 8.4 36.9 8.5C37 8.6 36.6 8.7 36.9 8.8C36.9 8.9 36.9 9 36.9 9.1C36.9 9.2 36.8 9.3 36.9 9.4C36.6 9.5 36.8 9.6 36.9 9.7C37 9.8 36.9 9.9 36.9 10C36.9 10.1 36.9 10.2 36.9 10.3C37 10.4 36.8 10.5 36.9 10.6C37 10.7 36.8 10.8 36.9 10.9C37 11 37 11.1 36.9 11.2C36.9 11.3 36.6 11.4 36.9 11.5C37 11.6 37.3 11.7 36.9 11.8C37 11.9 36.7 12 36.9 12.1C36.6 12.2 36.9 12.3 36.9 12.4C36.8 12.5 36.7 12.6 36.9 12.7C37 12.8 36.8 12.9 36.9 13C37.1 13.1 36.7 13.2 36.9 13.2C36.9 13.3 36.9 13.4 36.9 13.4C37.3 13.5 36.9 13.5 36.9 13.6C36.8 13.7 37.2 13.7 36.9 13.8C37.2 13.9 36.9 13.9 36.9 14C36.8 14.1 37 14.1 36.9 14.2C37.1 14.3 36.8 14.3 36.9 14.4C36.8 14.5 36.9 14.5 36.9 14.6V14.8C36.4 15.1 36.3 15.2 36.2 15.2Z" fill="#73523F"/>
<path d="M48.5 15.2C48.4 15.2 48.3 15.1 48.2 14.9V14.8C48.2 14.8 48.1 14.7 48.2 14.7C48.3 14.7 47.9 14.6 48.2 14.5C48.3 14.4 48.2 14.4 48.2 14.3C48.1 14.2 48.3 14.2 48.2 14.1C47.9 14 48.5 14 48.2 13.9C48.1 13.8 48.1 13.8 48.2 13.7C48.4 13.6 48.2 13.6 48.2 13.5C48.5 13.4 48.3 13.3 48.2 13.3C48.6 13.2 48.5 13.1 48.2 13.1C48.2 13 48.3 12.9 48.2 12.8C48.2 12.7 48.1 12.6 48.2 12.5C48 12.4 48 12.3 48.2 12.2C47.9 12.1 48 12 48.2 11.9C48.3 11.8 48 11.7 48.2 11.6C48.2 11.5 48.1 11.4 48.2 11.3C48.3 11.2 48.4 11.1 48.2 11C48.1 10.9 48 10.8 48.2 10.7C47.9 10.6 48 10.5 48.2 10.4C48.2 10.3 48.3 10.2 48.2 10.1C48.2 10 48.1 9.9 48.2 9.8C48.3 9.7 48.4 9.6 48.2 9.5C48 9.4 48.3 9.3 48.2 9.2C48.5 9.1 48.1 9 48.2 8.9C48.2 8.8 48.3 8.7 48.2 8.6C48.2 8.5 48.1 8.4 48.2 8.3C47.8 8.2 48.3 8.1 48.2 8C48.4 7.9 48.2 7.8 48.2 7.7C48.1 7.6 48.4 7.5 48.2 7.4C48.2 7.3 48.1 7.2 48.2 7.1C48 7 48.4 6.9 48.2 6.8C48.2 6.7 48.2 6.6 48.2 6.5C48.5 6.4 48.3 6.3 48.2 6.3C48.2 6.2 48 6.1 48.2 6.1C48.2 6 48.4 6 48.2 5.9C48.2 5.8 48.7 5.8 48.2 5.7C48.1 5.6 48.5 5.6 48.2 5.5C47.9 5.4 48.2 5.4 48.2 5.3C48.2 5.2 48.2 5.2 48.2 5.1C48.3 4.6 48.5 4.3 48.7 4.3C48.9 4.3 49.1 4.6 49.2 5.2C49.2 5.3 49.4 5.3 49.2 5.4C49.2 5.5 49.4 5.5 49.2 5.6C49.5 5.7 49.3 5.7 49.2 5.8C49.2 5.9 49.1 5.9 49.2 6C49.4 6.1 49.1 6.2 49.2 6.2C49 6.3 49.1 6.4 49.2 6.4C49 6.5 49.2 6.6 49.2 6.7C48.9 6.8 49.1 6.9 49.2 7C49.3 7.1 49.2 7.2 49.2 7.3C49.1 7.4 49.3 7.5 49.2 7.6C49.3 7.7 49.4 7.8 49.2 7.9C49.3 8 49.2 8.1 49.2 8.2C49.3 8.3 49.2 8.4 49.2 8.5C49.3 8.6 48.9 8.7 49.2 8.8C49.2 8.9 49.2 9 49.2 9.1C49.2 9.2 49.1 9.3 49.2 9.4C48.9 9.5 49.1 9.6 49.2 9.7C49.3 9.8 49.2 9.9 49.2 10C49.2 10.1 49.2 10.2 49.2 10.3C49.3 10.4 49.1 10.5 49.2 10.6C49.3 10.7 49.1 10.8 49.2 10.9C49.3 11 49.3 11.1 49.2 11.2C49.2 11.3 48.9 11.4 49.2 11.5C49.3 11.6 49.6 11.7 49.2 11.8C49.3 11.9 49 12 49.2 12.1C48.9 12.2 49.2 12.3 49.2 12.4C49.1 12.5 49 12.6 49.2 12.7C49.3 12.8 49.1 12.9 49.2 13C49.4 13.1 49 13.2 49.2 13.2C49.2 13.3 49.2 13.4 49.2 13.4C49.6 13.5 49.2 13.5 49.2 13.6C49.1 13.7 49.5 13.7 49.2 13.8C49.5 13.9 49.2 13.9 49.2 14C49.1 14.1 49.3 14.1 49.2 14.2C49.4 14.3 49.1 14.3 49.2 14.4C49.1 14.5 49.2 14.5 49.2 14.6V14.8C48.7 15.1 48.6 15.2 48.5 15.2Z" fill="#73523F"/>
</svg>
