<svg width="41" height="57" viewBox="0 0 41 57" fill="none" xmlns="http://www.w3.org/2000/svg">
<path d="M12.8667 17.3392C12.8667 17.4056 12.6667 17.4056 12.4 17.472C12.0667 17.5385 11.6 17.6713 11.0667 17.9371C11 18.0035 10.8667 18.0035 10.8 18.0699C10.7333 18.1364 10.6 18.2028 10.5333 18.2692C10.4667 18.3357 10.3333 18.4021 10.2667 18.535C10.1333 18.6014 10.0667 18.6014 10 18.6678C9.93333 18.7343 9.93333 18.7343 9.86667 18.8007C9.86667 18.8007 9.8 18.8007 9.8 18.8671L9.73333 18.9336C9.66667 19 9.66667 19.0664 9.6 19.1329C9.6 19.1329 9.6 19.1993 9.53333 19.1993C9.53333 19.1993 9.53333 19.2657 9.46667 19.2657C9.4 19.3322 9.4 19.3986 9.33333 19.3986L9.2 19.5315C9.13333 19.5979 9.13333 19.6643 9.06667 19.7308C9 19.7972 9 19.8636 9 19.9301C9 19.9965 8.93333 20.0629 8.93333 20.1294C8.86667 20.2622 8.8 20.3951 8.73333 20.5944C8.73333 20.6608 8.66667 20.7273 8.66667 20.8601C8.66667 20.9266 8.66667 20.9266 8.66667 20.993C8.66667 21.0594 8.66667 21.0594 8.66667 21.1259C8.66667 21.1923 8.66667 21.3252 8.66667 21.3916C8.66667 21.458 8.6 21.5245 8.6 21.6573C8.6 21.7238 8.53333 21.8566 8.53333 21.9231C8.53333 21.9895 8.53333 22.1224 8.6 22.1888C8.66667 22.5874 8.66667 22.986 8.6 23.3846C8.46667 23.7832 8.6 24.2483 8.6 24.6469C8.53333 24.8462 8.46667 25.1119 8.53333 25.3112C8.53333 25.4441 8.53333 25.5105 8.6 25.6434V25.7098C8.6 25.7098 8.6 25.7098 8.6 25.7762C8.6 25.7762 8.6 25.8427 8.66667 25.8427C8.6 25.9091 8.53333 26.042 8.53333 26.1084C8.6 26.1084 8.73333 26.1084 8.8 26.1084C8.86667 26.1084 9.06667 26.042 9.26667 25.9755C9.73333 25.9755 10.2667 26.042 10.7333 25.9755C11.2667 25.9755 11.7333 25.9091 12.2667 25.9755C12.8 25.8427 13.3333 25.8427 13.8667 25.9755C14.4 25.8427 14.9333 25.9091 15.5333 25.9755C16.0667 26.042 16.6667 25.8427 17.2 25.9755C17.8 25.9755 18.3333 25.9091 18.9333 25.9755C19.5333 26.042 20.1333 26.1084 20.7333 25.9755C21.3333 25.9091 21.9333 25.9091 22.5333 25.9755C23.1333 25.7762 23.8 25.9091 24.4 25.9755C25 25.9755 25.6667 26.042 26.3333 25.9755C27 25.9755 27.6 25.9091 28.2667 25.9755C28.9333 26.042 29.5333 26.1084 30.2 25.9755C30.8667 25.8427 31.4667 26.042 32.1333 25.9755H32.2C32.2 25.9755 32.2 25.9755 32.2667 25.9755H32.3333C32.3333 25.9091 32.3333 25.8427 32.2667 25.8427V25.7762C32.2667 25.7098 32.2667 25.7098 32.2667 25.6434C32.2667 25.5769 32.2667 25.4441 32.2667 25.3776C32.2667 24.7797 32.3333 24.1818 32.2667 23.5839C32.2667 23.2517 32.2667 22.986 32.2667 22.7203C32.2667 22.5874 32.2667 22.4545 32.2667 22.2552C32.2667 22.1888 32.2667 22.1224 32.2667 22.0559C32.2667 21.9895 32.2667 21.9231 32.2667 21.8566C32.2 21.7902 32.2 21.7238 32.2 21.6573C32.2 21.5909 32.1333 21.5245 32.1333 21.458C32.1333 21.3916 32.1333 21.3252 32.1333 21.2587C32.1333 21.1923 32.1333 21.1259 32.1333 21.0594V20.8601C32.1333 20.7937 32.1333 20.7273 32.1333 20.6608C32.1333 20.528 32.0667 20.3951 32 20.3287C32 20.1958 31.9333 20.0629 31.8667 19.9965C31.8 19.8636 31.7333 19.7972 31.6667 19.6643C31.5333 19.465 31.3333 19.2657 31.1333 19.1329C31.0667 19.0664 31.0667 19.0664 31 19C30.9333 18.9336 30.9333 18.9336 30.8667 18.8671C30.8 18.8007 30.6667 18.6678 30.6 18.6014C30.5333 18.535 30.4 18.4685 30.2667 18.4021C30.1333 18.3357 30.0667 18.3357 29.9333 18.2692C29.8 18.2028 29.7333 18.2028 29.6 18.1364C29.4667 18.1364 29.4 18.0699 29.2667 18.0699H29.1333C29.0667 18.0699 29 18.0699 28.9333 18.0699C28.8 18.0699 28.7333 18.0035 28.6 18.0035C28.5333 18.0035 28.4667 18.0035 28.4 18.0035C28.3333 18.0035 28.2667 18.0035 28.2 18.0035C28.0667 18.0035 27.9333 18.0035 27.8 18.0035C27.5333 18.0035 27.2667 17.9371 27.0667 18.0035C26.5333 18.0035 26.0667 18.0035 25.6 18.0035C25.1333 17.8042 24.6667 18.0035 24.2 18.0035C23.7333 18.0035 23.2667 18.1364 22.8667 18.0035C22.4 18.0035 22 17.8706 21.6 18.0035C21.2 18.0035 20.8 17.7378 20.4 18.0035C20 18.0699 19.6667 17.8042 19.2667 18.0035C18.9333 18.1364 18.5333 18.0035 18.2 18.0035C17.8667 18.0035 17.5333 18.0035 17.2667 18.0035C14.4 17.5385 12.8667 17.472 12.8667 17.3392C12.8667 17.2063 14.8 17.1399 18.1333 17.007C18.4667 17.007 18.8 16.8741 19.2 17.007C19.5333 17.007 19.9333 16.8741 20.3333 17.007C20.7333 16.8077 21.1333 16.9406 21.5333 17.007C21.9333 17.007 22.4 17.0734 22.8 17.007C23.2667 16.8741 23.6667 17.0734 24.1333 17.007C24.6 17.1399 25.0667 17.0734 25.5333 17.007C26 17.1399 26.5333 17.007 27 17.007C27.2667 17.0734 27.5333 17.0734 27.7333 17.0734C27.8667 17.0734 28 17.0734 28.1333 17.007C28.2 17.007 28.2667 17.007 28.3333 17.007H28.5333C28.6667 17.007 28.8 17.007 29 17.007C29.0667 17.007 29.1333 17.007 29.2 17.0734H29.3333C29.4 17.0734 29.4 17.0734 29.4667 17.0734C29.6 17.1399 29.7333 17.1399 29.8667 17.2063C30 17.2727 30.1333 17.3392 30.2667 17.3392C30.4 17.4056 30.5333 17.472 30.6667 17.5385C30.8 17.6049 30.9333 17.6713 31.0667 17.7378C31.2 17.8042 31.3333 17.9371 31.4667 18.0035C31.5333 18.0699 31.6 18.0699 31.6667 18.1364C31.7333 18.2028 31.8 18.2692 31.8667 18.2692C32.4 18.6678 32.8 19.1993 33 19.7972C33.3333 20.3287 33.4667 20.993 33.4667 21.6573C33.4667 21.7238 33.4667 21.7902 33.4667 21.9231C33.4667 21.9895 33.4667 22.0559 33.4667 22.1224C33.4667 22.2552 33.4667 22.3881 33.4667 22.5874C33.4667 22.8531 33.4667 23.1853 33.4667 23.451C33.5333 24.049 33.2667 24.6469 33.4667 25.2448C33.4667 25.3112 33.4667 25.4441 33.4667 25.5105C33.4667 25.6434 33.4667 25.7762 33.4667 25.8427C33.4667 26.1748 33.4667 26.5734 33.4667 26.9056C33.2667 26.9056 33 26.9056 32.8 26.9056H32.2C31.6 26.9056 30.9333 26.8392 30.2667 26.9056C29.6 26.7063 29 26.8392 28.3333 26.9056C27.6667 26.972 27.0667 26.9056 26.4 26.9056C25.7333 26.9056 25.1333 26.9056 24.4667 26.9056C23.8667 26.972 23.2 26.8392 22.6 26.9056C22 26.972 21.4 26.8392 20.8 26.9056C20.2 26.972 19.6 26.972 19 26.9056C18.4 26.9056 17.8 26.7063 17.2667 26.9056C16.6667 26.972 16.1333 27.1713 15.6 26.9056C15.0667 26.972 14.4667 26.7727 13.9333 26.9056C13.4 26.7063 12.8667 26.9056 12.3333 26.9056C11.8 26.8392 11.2667 26.8392 10.8 26.9056C10.2667 26.972 9.8 26.8392 9.33333 26.9056C9.26667 26.9056 9.13333 26.9056 9.06667 26.9056H8.93333C8.86667 26.9056 8.8 26.9056 8.73333 26.9056C8.46667 26.9056 8.2 26.8392 7.93333 26.8392C7.93333 26.6399 7.93333 26.3741 7.93333 26.1748C7.93333 26.1084 7.93333 25.9755 7.93333 25.9091C7.93333 25.8427 7.93333 25.7762 7.93333 25.7098C7.93333 25.5769 7.93333 25.5105 7.93333 25.3776C7.93333 25.1783 7.93333 24.9126 7.93333 24.7133C7.66667 24.2483 7.93333 23.8496 7.93333 23.451C8 23.0524 7.73333 22.6538 7.93333 22.2552C7.86667 22.1888 7.86667 22.0559 7.86667 21.9895C7.86667 21.9231 7.86667 21.7902 7.86667 21.6573C7.86667 21.5245 7.93333 21.458 7.93333 21.3916C8 21.3252 8 21.1923 8 21.1259C8 21.0594 8 21.0594 8.06667 20.993C8.06667 20.9266 8.06667 20.9266 8.13333 20.8601C8.13333 20.7937 8.2 20.6608 8.2 20.5944C8.26667 20.3951 8.33333 20.2622 8.4 20.0629C8.4 19.9965 8.46667 19.8636 8.46667 19.7972C8.53333 19.7308 8.53333 19.6643 8.6 19.5979C8.66667 19.5315 8.73333 19.465 8.8 19.3986C8.8 19.3986 8.86667 19.3322 8.86667 19.2657C8.86667 19.2657 8.93333 19.1993 8.93333 19.1329C9.2 18.9336 9.33333 18.6678 9.53333 18.4685C9.6 18.4021 9.6 18.3357 9.66667 18.3357C9.73333 18.2692 9.8 18.2692 9.8 18.2028C9.93333 18.1364 10 18.0699 10.1333 18.0035C10.2667 17.9371 10.3333 17.8706 10.4667 17.8042C10.6 17.7378 10.6667 17.7378 10.8 17.6713C11.4 17.4056 11.9333 17.3392 12.2667 17.3392C12.6667 17.2727 12.8667 17.2727 12.8667 17.3392Z" fill="#73523F"/>
<path d="M32.8667 23.6503C32.8667 23.7168 32.2667 23.7832 31.1333 23.8497C30.9333 23.8497 30.7333 23.8497 30.5333 23.8497C30.3333 23.8497 30.0667 23.9161 29.8667 23.8497C29.6 23.7832 29.4 24.049 29.1333 23.8497C28.8667 23.7832 28.6 23.8497 28.3333 23.8497C28.0667 23.8497 27.7333 23.7832 27.4 23.8497C27.0667 24.049 26.7333 23.6504 26.4 23.8497C26.0667 23.9161 25.7333 23.9161 25.3333 23.8497C25 23.7168 24.6 23.8497 24.2 23.8497C23.8 23.6504 23.4667 23.7832 23.0667 23.8497C22.6667 23.6504 22.2667 23.6504 21.8667 23.8497C21.4667 23.8497 21 23.7832 20.6 23.8497C20.2 23.8497 19.7333 23.9161 19.2667 23.8497C18.8 23.9825 18.3333 23.9825 17.8667 23.8497C17.4 23.9825 16.9333 23.9161 16.4667 23.8497C16 23.7832 15.4667 23.9825 15 23.8497C14.5333 23.8497 14 23.9161 13.4667 23.8497C12.9333 23.7832 12.4667 23.7168 11.9333 23.8497C11.4 23.9161 10.8667 23.9161 10.3333 23.8497C10.0667 23.9161 9.8 23.9825 9.53333 23.9825C9.4 23.9825 9.26667 23.9825 9.13333 23.9161C9 23.9161 8.8 23.8497 8.86667 23.8497H8.8V23.9825C8.8 24.049 8.8 24.049 8.8 24.1154C8.8 24.1818 8.8 24.3147 8.8 24.3811C8.8 24.6469 8.8 24.9126 8.8 25.1783V25.3776C8.8 25.3776 8.8 25.3776 8.8 25.4441C8.8 25.4441 8.8 25.4441 8.86667 25.5105C8.86667 25.5105 8.86667 25.5105 8.93333 25.5105H9.13333C9.4 25.5105 9.66667 25.5105 9.93333 25.4441C10.4667 25.3112 11 25.5105 11.6 25.4441C12.1333 25.5769 12.6667 25.3776 13.2 25.4441C13.7333 25.4441 14.2667 25.5105 14.8 25.4441C15.3333 25.4441 15.8667 25.3776 16.3333 25.4441C16.8667 25.1783 17.3333 25.5105 17.8667 25.4441C18.3333 25.5769 18.8667 25.4441 19.3333 25.4441C19.8 25.3776 20.2667 25.5769 20.7333 25.4441C21.2 25.4441 21.6667 25.3776 22.1333 25.4441C22.6 25.3112 23 25.5769 23.4667 25.4441C23.8667 25.4441 24.3333 25.4441 24.7333 25.4441C25.1333 25.6434 25.5333 25.5105 25.9333 25.4441C26.3333 25.4441 26.7333 25.3112 27.0667 25.4441C27.4667 25.4441 27.8 25.5769 28.1333 25.4441C28.4667 25.4441 28.8667 25.7098 29.2 25.4441C29.5333 25.3776 29.8667 25.6434 30.2 25.4441C30.5333 25.3112 30.8 25.4441 31.1333 25.4441C31.4 25.4441 31.6667 25.4441 31.9333 25.4441C32 25.4441 32.1333 25.4441 32.2 25.4441H32.3333C32.4667 25.4441 32.5333 25.4441 32.6 25.4441C32.6 25.3112 32.6 25.1783 32.6 25.0455C32.6 24.8462 32.6 24.6469 32.6 24.514C32.6 24.1818 32.6667 23.8496 32.6667 23.6503C32.8 23.9161 32.8 23.6503 32.8667 23.6503C32.9333 23.6503 32.9333 23.9161 33 24.3811C33 24.6469 33.0667 24.9126 33.0667 25.2448C33.0667 25.4441 33.0667 25.5769 33.0667 25.7762C33.0667 26.042 33.0667 26.3741 33.0667 26.6399C32.4667 26.6399 31.8 26.7063 31 26.7063C30.7333 26.7063 30.4 26.8392 30.0667 26.7063C29.7333 26.7063 29.4 26.8392 29.0667 26.7063C28.7333 26.9056 28.4 26.7727 28 26.7063C27.6667 26.7063 27.2667 26.6399 26.9333 26.7063C26.5333 26.8392 26.2 26.6399 25.8 26.7063C25.4 26.5734 25 26.6399 24.6 26.7063C24.2 26.5734 23.7333 26.7063 23.3333 26.7063C22.9333 26.507 22.4667 26.6399 22 26.7063C21.5333 26.7727 21.0667 26.7063 20.6 26.7063C20.1333 26.7063 19.6667 26.7727 19.2 26.7063C18.7333 26.7727 18.2 26.8392 17.7333 26.7063C17.2667 26.7727 16.7333 26.7063 16.2 26.7063C15.6667 26.7727 15.2 26.7063 14.6667 26.7063C14.1333 26.7727 13.6 26.507 13.0667 26.7063C12.5333 26.7063 12 26.7063 11.4667 26.7063C10.9333 26.7063 10.4 26.6399 9.8 26.7063C9.53333 26.6399 9.26667 26.5734 9 26.6399C8.53333 26.6399 8.06667 26.7063 7.6 26.7063C7.6 26.4406 7.6 26.1748 7.6 25.9091V25.2448C7.6 24.979 7.6 24.7133 7.6 24.4476V24.1818C7.6 24.049 7.6 23.9161 7.6 23.7832C7.6 23.451 7.6 23.1189 7.6 22.7203C7.93333 22.7203 8.26667 22.7203 8.6 22.7203C8.93333 22.7203 9 22.7203 9.13333 22.7203C9.26667 22.7203 9.4 22.7203 9.53333 22.7203C9.8 22.7203 10.0667 22.7203 10.3333 22.7203C10.8667 22.6538 11.4 22.7867 11.9333 22.7203C12.4667 22.6538 13 22.6538 13.4667 22.7203C14 22.7203 14.4667 22.9196 15 22.7203C15.4667 22.6538 16 22.4545 16.4667 22.7203C16.9333 22.6538 17.4 22.8531 17.8667 22.7203C18.3333 22.9196 18.8 22.7203 19.2667 22.7203C19.7333 22.7867 20.1333 22.7867 20.6 22.7203C21 22.6538 21.4667 22.7867 21.8667 22.7203C22.2667 22.5874 22.6667 22.8531 23.0667 22.7203C23.4667 22.7203 23.8667 22.7203 24.2 22.7203C24.6 22.4545 24.9333 22.7203 25.3333 22.7203C25.6667 22.7867 26.0667 22.521 26.4 22.7203C26.7333 22.521 27.0667 22.7203 27.4 22.7203C27.7333 22.7867 28 22.6538 28.3333 22.7203C28.6 22.5874 28.8667 22.7867 29.1333 22.7203C29.4 22.7867 29.6667 22.7203 29.8667 22.7203C30.1333 22.7203 30.3333 22.7203 30.5333 22.7203C30.7333 22.7203 30.9333 22.7203 31.1333 22.7203C32.2667 23.5175 32.8667 23.5839 32.8667 23.6503Z" fill="#73523F"/>
<path d="M12.9333 19.3322C12.9333 19.3986 12.8667 19.465 12.7333 19.5315C12.7333 19.5315 12.6667 19.5315 12.6667 19.5979L12.6 19.6643C12.5333 19.5979 12.6 19.8636 12.5333 19.7308C12.4667 19.7308 12.4667 19.7308 12.4667 19.7972C12.4667 19.8636 12.4 19.7972 12.4 19.8636C12.4667 19.9301 12.4 19.9301 12.3333 19.8636C12.2667 19.8636 12.2667 19.7972 12.3333 19.9301C12.3333 19.9965 12.3333 19.9965 12.2667 19.9965C12.1333 19.9301 12.2 20.0629 12.2 20.1294C12.0667 20.0629 12.0667 20.1294 12.1333 20.2622C11.9333 20.1958 11.9333 20.2622 12.1333 20.3951C12.1333 20.3951 12.1333 20.3951 12.0667 20.4615V20.528C12.0667 20.5944 12.1333 20.5944 12.0667 20.6608C12.2 20.7273 12.2 20.7273 12.0667 20.7937C12.2 20.7937 12.2 20.8601 12.1333 20.9266C12.0667 20.9266 12.1333 20.993 12.2 20.993C12.2667 20.993 12.2667 20.993 12.2 21.0594C12.2 21.1259 12.2667 21.1259 12.2667 21.1259C12.2667 21.1923 12.2667 21.1923 12.2667 21.2587C12.2667 21.2587 12.3333 21.2587 12.4 21.2587C12.4667 21.2587 12.5333 21.2587 12.5333 21.3252C12.6667 21.1923 12.6667 21.2587 12.6667 21.3916C12.6667 21.3916 12.7333 21.3916 12.7333 21.458C12.7333 21.458 12.8 21.5245 12.8 21.458H12.9333L13 21.5245C13 21.5245 13.0667 21.5245 13.0667 21.458C13.0667 21.3916 13.0667 21.3916 13.1333 21.3916H13.2C13.2667 21.458 13.2667 21.458 13.2667 21.3916C13.2667 21.3916 13.2667 21.3252 13.3333 21.3252C13.3333 21.2587 13.4667 21.3252 13.4667 21.2587V21.1923C13.4667 21.1923 13.4667 21.1923 13.5333 21.1923C13.4667 21.1259 13.4667 21.1259 13.5333 21.1259C13.6 21.1259 13.6667 21.1259 13.6 21.1259C13.6667 21.1259 13.6667 21.1259 13.6667 21.0594V20.993C13.6667 20.993 13.6667 20.9266 13.7333 20.9266C13.7333 20.9266 13.8 20.8601 13.7333 20.8601V20.7937C13.7333 20.7937 13.7333 20.7273 13.8 20.7273C13.7333 20.7273 13.7333 20.6608 13.8 20.6608C13.8 20.6608 13.8667 20.5944 13.8 20.5944C13.8 20.528 13.8 20.528 13.8 20.4615C13.8667 20.3951 13.8667 20.3951 13.8667 20.3951H13.8C13.8 20.3287 13.6667 20.3951 13.7333 20.2622C13.7333 20.1958 13.8 20.1294 13.6667 20.1294C13.6667 20.1294 13.6667 20.0629 13.7333 19.9965C13.7333 19.9301 13.7333 19.9301 13.6667 19.9965V19.9301C13.6667 19.8636 13.6667 19.8636 13.6 19.9301C13.4667 20.0629 13.5333 19.8636 13.5333 19.8636L13.4667 19.7972C13.1333 19.5315 12.9333 19.465 12.9333 19.3322C12.9333 19.2657 13 19.1993 13.1333 19.1993C13.2667 19.1329 13.4667 19.1329 13.7333 19.2657C13.8 19.2657 13.9333 19.1993 13.8667 19.3322C13.9333 19.3986 14 19.3322 14 19.3986C14.2 19.3322 14.1333 19.465 14.1333 19.5315C14.2 19.5979 14.2 19.6643 14.2667 19.6643C14.4 19.6643 14.3333 19.7972 14.4 19.8636C14.3333 19.9965 14.4 20.0629 14.5333 20.0629C14.4667 20.1294 14.5333 20.1294 14.5333 20.1958C14.5333 20.2622 14.6 20.2622 14.6 20.3287C14.5333 20.3951 14.5333 20.3951 14.5333 20.4615C14.5333 20.528 14.6 20.528 14.6667 20.5944C14.7333 20.6608 14.6667 20.6608 14.6667 20.7273C14.6667 20.7937 14.6667 20.7937 14.6667 20.8601C14.6 20.9266 14.6667 21.0594 14.6 21.1259C14.6667 21.2587 14.6 21.3916 14.4667 21.3916C14.4667 21.5245 14.4 21.5909 14.3333 21.6573C14.3333 21.7238 14.2667 21.7902 14.2667 21.7902C14.2 21.8566 14.2 21.8566 14.1333 21.9231C14.1333 21.9895 14.0667 21.9895 14 21.9895C13.9333 21.9895 13.8667 22.0559 13.9333 22.1224C13.8667 22.1888 13.7333 22.1888 13.6 22.2552C13.4667 22.2552 13.4 22.2552 13.2667 22.3881C13.2 22.3217 13.1333 22.3217 13.0667 22.3217C13 22.3217 12.9333 22.3881 12.9333 22.4545C12.8667 22.4545 12.8 22.4545 12.7333 22.4545C12.6667 22.4545 12.6 22.4545 12.5333 22.3881C12.4 22.3881 12.3333 22.3217 12.2 22.2552C12.1333 22.2552 12.0667 22.1888 12.0667 22.1888C12 22.1224 12 22.1224 11.9333 22.1224C11.8667 22.1224 11.8 22.0559 11.8 22.0559C11.8 21.9895 11.7333 21.9231 11.6667 21.9231C11.6 21.9231 11.5333 21.8566 11.5333 21.8566C11.4667 21.7902 11.4667 21.7902 11.4667 21.7238C11.4667 21.6573 11.4667 21.5909 11.4 21.5909C11.4 21.5245 11.4 21.5245 11.2667 21.458C11.2 21.3916 11.1333 21.3916 11.1333 21.3916C11.0667 21.3252 11.0667 21.3252 11.2 21.1923C11.1333 21.1259 11.2 21.1259 11.2 21.0594C11.2 20.993 11.2 20.9266 11.1333 20.9266C11.2 20.8601 11.2 20.7937 11.2 20.7937C11.2 20.7273 11.1333 20.7273 11.1333 20.6608C11.2 20.5944 11.2667 20.4615 11.2 20.3951C11.1333 20.3287 11.2 20.3287 11.2 20.2622C11.2 20.1958 11.2667 20.1958 11.2667 20.1294C11.2 20.0629 11.2667 20.0629 11.3333 19.9965C11.4 19.9965 11.4 19.9301 11.4 19.8636C11.4667 19.7972 11.4667 19.7308 11.5333 19.6643C11.4667 19.5315 11.4667 19.5315 11.5333 19.5315C11.6 19.5315 11.6667 19.5315 11.6667 19.5315C11.7333 19.5315 11.6667 19.465 11.7333 19.3986C11.7333 19.3322 11.7333 19.3322 11.8667 19.3986C11.8 19.1993 11.9333 19.2657 12 19.3322C12.0667 19.3322 12.0667 19.1993 12.1333 19.2657C12.1333 19.1329 12.2667 19.2657 12.2667 19.1993C12.3333 19.2657 12.3333 19.1993 12.4 19.1993C12.4 19.1329 12.4667 19.1329 12.5333 19.1993C12.6 19.1993 12.6 19.1993 12.6667 19.1993C12.7333 19.1993 12.8667 19.2657 12.8667 19.2657C12.9333 19.2657 12.9333 19.3322 12.9333 19.3322Z" fill="#73523F"/>
<path d="M28.2 19.3322C28.2 19.3986 28.1333 19.465 28 19.5315C28 19.5315 27.9333 19.5315 27.9333 19.5979L27.8667 19.6643C27.8 19.5979 27.8667 19.8636 27.8 19.7308C27.7333 19.7308 27.7333 19.7308 27.7333 19.7972C27.7333 19.8636 27.6667 19.7972 27.6667 19.8636C27.7333 19.9301 27.6667 19.9301 27.6 19.8636C27.5333 19.8636 27.5333 19.7972 27.6 19.9301C27.6 19.9965 27.6 19.9965 27.5333 19.9965C27.4 19.9301 27.4667 20.0629 27.4667 20.1294C27.3333 20.0629 27.3333 20.1294 27.4 20.2622C27.2 20.1958 27.2 20.2622 27.4 20.3951C27.4 20.4615 27.2667 20.4615 27.4 20.528C27.4 20.5944 27.4667 20.5944 27.4 20.6608C27.4667 20.6608 27.5333 20.7273 27.5333 20.7273C27.5333 20.7273 27.5333 20.7937 27.4667 20.7937C27.6667 20.7937 27.6 20.8601 27.5333 20.9266C27.4667 20.993 27.5333 20.993 27.6 20.993C27.6667 20.993 27.6667 20.993 27.6 21.0594C27.6 21.1259 27.6667 21.1259 27.6667 21.1259C27.6667 21.1923 27.6667 21.1923 27.6667 21.2587C27.6667 21.2587 27.7333 21.2587 27.8 21.2587C27.8667 21.2587 27.9333 21.2587 27.9333 21.3252C28.0667 21.1923 28.0667 21.2587 28.0667 21.3916C28.0667 21.3916 28.1333 21.3916 28.1333 21.458C28.1333 21.458 28.2 21.5245 28.2 21.458H28.3333L28.4 21.5245C28.4 21.5245 28.4667 21.5245 28.4667 21.458C28.4667 21.3916 28.4667 21.3916 28.5333 21.3916H28.6C28.6667 21.458 28.6667 21.458 28.6667 21.3916C28.6667 21.3916 28.6667 21.3252 28.7333 21.3252C28.7333 21.2587 28.8667 21.3252 28.8667 21.2587V21.1923C28.8667 21.1923 28.8667 21.1923 28.9333 21.1923C28.8667 21.1259 28.8667 21.1259 28.9333 21.1259C29 21.1259 29.0667 21.1259 29 21.1259C29.0667 21.1259 29.0667 21.1259 29.0667 21.0594V20.993C29.0667 20.993 29.0667 20.9266 29.1333 20.9266C29.1333 20.9266 29.2 20.8601 29.1333 20.8601V20.7937C29.1333 20.7937 29.1333 20.7273 29.2 20.7273C29.1333 20.7273 29.1333 20.6608 29.2 20.6608C29.2 20.6608 29.2667 20.5944 29.2 20.5944C29.2 20.528 29.2 20.528 29.2 20.4615C29.2667 20.3951 29.2667 20.3951 29.2667 20.3951H29.2C29.2 20.3287 29.0667 20.3951 29.1333 20.2622C29.1333 20.1958 29.2 20.1294 29.0667 20.1294C29.0667 20.1294 29.0667 20.0629 29.1333 19.9965C29.1333 19.9301 29.1333 19.9301 29.0667 19.9965V19.9301C29.0667 19.8636 29.0667 19.8636 29 19.9301C28.8667 20.0629 28.9333 19.8636 28.9333 19.8636L28.8667 19.7972C28.4 19.5315 28.2 19.465 28.2 19.3322C28.2 19.2657 28.2667 19.1993 28.4 19.1993C28.5333 19.1329 28.7333 19.1329 29 19.2657C29.0667 19.2657 29.2 19.1993 29.1333 19.3322C29.2 19.3322 29.2667 19.3322 29.2667 19.3986C29.4667 19.3322 29.4 19.465 29.4 19.5315C29.4667 19.5979 29.4667 19.6643 29.5333 19.6643C29.6667 19.6643 29.6 19.7972 29.6667 19.8636C29.6 19.9965 29.6667 20.0629 29.8 20.0629C29.7333 20.1294 29.8 20.1294 29.8 20.1958C29.8 20.2622 29.8667 20.2622 29.8667 20.3287C29.7333 20.4615 29.8667 20.528 29.9333 20.5944C29.9333 20.6608 29.9333 20.6608 29.9333 20.7273C29.9333 20.7937 29.9333 20.7937 29.9333 20.8601C29.8667 20.9266 29.9333 21.0594 29.8667 21.1259C29.9333 21.2587 29.8667 21.3916 29.7333 21.3916C29.7333 21.5245 29.6667 21.5909 29.6 21.6573C29.6 21.7238 29.5333 21.7902 29.5333 21.7902C29.4667 21.8566 29.4667 21.8566 29.4 21.9231C29.4 21.9895 29.3333 21.9895 29.2667 21.9895C29.2 21.9895 29.1333 22.0559 29.2 22.1224C29.1333 22.1888 29 22.1888 28.8667 22.2552C28.7333 22.2552 28.6667 22.2552 28.5333 22.3881C28.4667 22.3217 28.4 22.3217 28.3333 22.3217C28.2667 22.3217 28.2 22.3881 28.1333 22.4545C28.0667 22.4545 28 22.4545 27.9333 22.4545C27.8667 22.4545 27.8 22.4545 27.7333 22.3881C27.6 22.3881 27.5333 22.3217 27.4 22.2552C27.3333 22.2552 27.2667 22.1888 27.2667 22.1888C27.2 22.1224 27.2 22.1224 27.1333 22.1224C27.0667 22.1224 27 22.0559 27 22.0559C27 21.9895 26.9333 21.9231 26.8667 21.9231C26.8 21.9231 26.7333 21.8566 26.7333 21.8566C26.6667 21.7902 26.6667 21.7902 26.6667 21.7238C26.6667 21.6573 26.6667 21.5909 26.6 21.5909C26.6 21.5245 26.6 21.5245 26.4667 21.458C26.4 21.3916 26.3333 21.3916 26.3333 21.3916C26.2667 21.3252 26.2667 21.3252 26.4 21.1923C26.3333 21.1259 26.4 21.1259 26.4 21.0594C26.4 20.993 26.4 20.9266 26.3333 20.9266C26.4 20.8601 26.4 20.7937 26.4 20.7937C26.4 20.7273 26.3333 20.7273 26.3333 20.6608C26.4 20.5944 26.4667 20.528 26.4 20.3951C26.3333 20.3287 26.4 20.3287 26.4 20.2622C26.4 20.1958 26.4667 20.1958 26.4667 20.1294C26.4 20.0629 26.4667 20.0629 26.5333 19.9965C26.6667 19.9301 26.6667 19.9301 26.6667 19.8636C26.7333 19.7972 26.7333 19.7308 26.8 19.6643C26.7333 19.5315 26.7333 19.5315 26.8 19.5315C26.8667 19.5315 26.9333 19.5315 26.9333 19.5315C27 19.5315 26.9333 19.465 27 19.3986C27 19.3322 27 19.3322 27.1333 19.3986C27.0667 19.1993 27.2 19.2657 27.2667 19.3322C27.3333 19.3322 27.3333 19.1993 27.4 19.2657C27.4 19.1329 27.5333 19.2657 27.5333 19.1993C27.6 19.2657 27.6 19.1993 27.6667 19.1993C27.6667 19.1329 27.7333 19.1329 27.8 19.1993C27.8667 19.1993 27.8667 19.1993 27.9333 19.1993C28 19.1993 28.1333 19.2657 28.1333 19.2657C28.2 19.2657 28.2 19.3322 28.2 19.3322Z" fill="#73523F"/>
<path d="M22.8 20.7937C22.8 20.8601 22.7333 20.9266 22.6667 20.993C22.6667 20.993 22.6667 20.993 22.6 20.993C22.6 20.993 22.5333 21.0594 22.5333 20.993C22.5333 20.9266 22.4667 21.1923 22.4667 20.993C22.4667 20.9266 22.4 20.993 22.4 20.993C22.4 20.993 22.3333 20.9266 22.3333 20.993C22.3333 21.1923 22.2667 20.7937 22.2667 20.993C22.2667 21.0594 22.2 21.0594 22.2 20.993C22.2 20.8601 22.1333 20.993 22.1333 20.993C22.1333 20.7937 22.0667 20.9266 22.0667 20.993C22.0667 20.7937 22 20.7937 22 20.993C21.9333 20.993 21.9333 20.9266 21.8667 20.993C21.8 20.993 21.8 21.0594 21.7333 20.993C21.6667 21.1259 21.6667 21.1259 21.6 20.993C21.5333 21.1259 21.5333 21.0594 21.4667 20.993C21.4 20.9266 21.4 21.1259 21.3333 20.993C21.2667 20.993 21.2667 21.0594 21.2 20.993C21.1333 20.9266 21.1333 20.8601 21.0667 20.993C21 21.0594 21 21.0594 20.9333 20.993C20.8667 21.1923 20.8667 21.0594 20.8 20.993C20.7333 20.993 20.7333 20.9266 20.6667 20.993C20.6 20.993 20.6 21.0594 20.5333 20.993C20.4667 20.9266 20.4667 20.8601 20.4 20.993C20.3333 21.1259 20.3333 20.9266 20.2667 20.993C20.2 20.8601 20.2 21.0594 20.1333 20.993C20.0667 20.993 20.0667 20.9266 20 20.993C19.9333 20.993 19.9333 21.0594 19.8667 20.993C19.8 21.2587 19.8 20.9266 19.7333 20.993C19.6667 20.8601 19.6667 20.993 19.6 20.993C19.5333 21.0594 19.5333 20.8601 19.4667 20.993C19.4 20.993 19.4 21.0594 19.3333 20.993C19.2667 21.1259 19.2667 20.8601 19.2 20.993C19.1333 20.993 19.1333 20.993 19.0667 20.993C19 20.7937 19 20.993 19 20.993C19 20.993 18.9333 21.1259 18.9333 20.993C18.9333 20.993 18.8667 20.8601 18.8667 20.993C18.8667 20.993 18.8 20.7273 18.8 20.993C18.8 21.0594 18.7333 20.7937 18.7333 20.993C18.7333 21.1259 18.6667 20.993 18.6667 20.993H18.6C18.4 20.9266 18.3333 20.7937 18.3333 20.7273C18.3333 20.5944 18.4667 20.528 18.6667 20.3951C18.6667 20.3951 18.7333 20.2622 18.7333 20.3951C18.7333 20.3951 18.8 20.2622 18.8 20.3951C18.8 20.1958 18.8667 20.3287 18.8667 20.3951C18.8667 20.3951 18.9333 20.4615 18.9333 20.3951C18.9333 20.2622 19 20.4615 19 20.3951C19 20.528 19.0667 20.4615 19.0667 20.3951C19.0667 20.528 19.1333 20.3951 19.2 20.3951C19.2667 20.5944 19.2667 20.4615 19.3333 20.3951C19.4 20.3287 19.4 20.3951 19.4667 20.3951C19.5333 20.3951 19.5333 20.3287 19.6 20.3951C19.6667 20.3287 19.6667 20.2622 19.7333 20.3951C19.8 20.3287 19.8 20.3951 19.8667 20.3951C19.9333 20.3287 19.9333 20.3951 20 20.3951C20.0667 20.3287 20.0667 20.5944 20.1333 20.3951C20.2 20.3951 20.2 20.3951 20.2667 20.3951C20.3333 20.3951 20.3333 20.4615 20.4 20.3951C20.4667 20.5944 20.4667 20.4615 20.5333 20.3951C20.6 20.3287 20.6 20.3951 20.6667 20.3951C20.7333 20.3951 20.7333 20.3951 20.8 20.3951C20.8667 20.3287 20.8667 20.4615 20.9333 20.3951C21 20.3287 21 20.4615 21.0667 20.3951C21.1333 20.3287 21.1333 20.3287 21.2 20.3951C21.2667 20.3951 21.2667 20.5944 21.3333 20.3951C21.4 20.3287 21.4 20.1294 21.4667 20.3951C21.5333 20.3287 21.5333 20.528 21.6 20.3951C21.6667 20.5944 21.6667 20.3951 21.7333 20.3951C21.8 20.4615 21.8 20.4615 21.8667 20.3951C21.9333 20.3287 21.9333 20.4615 22 20.3951C22 20.2622 22.0667 20.528 22.0667 20.3951H22.1333C22.1333 20.1294 22.2 20.3951 22.2 20.3951C22.2 20.4615 22.2667 20.1958 22.2667 20.3951C22.2667 20.1958 22.3333 20.3951 22.3333 20.3951C22.3333 20.4615 22.4 20.3287 22.4 20.3951C22.4 20.2622 22.4667 20.4615 22.4667 20.3951C22.4667 20.4615 22.5333 20.3951 22.5333 20.3951H22.6C22.6 20.3951 22.6 20.3951 22.6667 20.3951C22.7333 20.6608 22.8 20.7273 22.8 20.7937Z" fill="#73523F"/>
<path d="M13.3333 10.9615C13.4 10.9615 13.4 11.4266 13.4 12.3566C13.4 12.4895 13.4 12.6888 13.4 12.8217C13.4 13.021 13.4 13.1538 13.4 13.3531C13.2667 13.5524 13.5333 13.7517 13.3333 13.951C13.2667 14.1503 13.2667 14.3497 13.2667 14.6154C13.2667 14.8147 13.1333 15.0804 13.2 15.3462C13.3333 15.6119 12.9333 15.8112 13.1333 16.1434C13.1333 16.2762 13.1333 16.4091 13.1333 16.542C13.1333 16.6084 13.1333 16.6748 13.1333 16.7413V16.8077C13.0667 16.8741 13.0667 17.007 13.0667 17.0734C13.1333 17.0734 13.2 17.007 13.2667 17.007C13.2667 17.0734 13.2667 17.0734 13.3333 17.0734H13.4667C13.6 17.0734 13.8 17.007 13.9333 16.9406C14.2667 17.1399 14.6 17.1399 14.9333 16.9406C15.2667 16.9406 15.6 17.007 15.9333 16.9406C16.2667 16.9406 16.6 16.8741 17 16.9406C17.3333 16.8077 17.7333 16.8077 18.0667 16.9406C18.4667 16.8077 18.8 16.8741 19.2 16.9406C19.6 17.007 20 16.8077 20.3333 16.9406C20.7333 16.9406 21.1333 16.8741 21.5333 16.9406C21.9333 17.007 22.3333 17.0734 22.7333 16.9406C23.1333 16.8741 23.5333 16.8741 24 16.9406C24.4 16.7413 24.8667 16.8741 25.2667 16.9406C25.6667 16.9406 26.1333 17.007 26.6 16.9406C27.0667 16.9406 27.4667 16.8741 27.9333 16.9406C27.9333 16.9406 28.0667 17.007 28.1333 17.007C28.1333 16.9406 28.1333 16.8741 28.0667 16.8741C28.0667 16.8077 28.0667 16.7413 28.0667 16.7413C28.0667 16.6084 28.0667 16.542 28.0667 16.4091C28.0667 16.2098 28.0667 15.9441 28 15.7448C28.1333 15.2797 27.8667 14.8811 27.8667 14.4825C27.8 14.0839 27.8667 13.6189 27.7333 13.2203C27.6667 12.8217 27.6 12.4231 27.6 12.0245C27.5333 11.958 27.5333 11.8916 27.4667 11.8252L27.5333 11.7587C27.5333 11.7587 27.5333 11.6923 27.4667 11.7587H27.4C27.3333 11.7587 27.2 11.7587 27.1333 11.7587C26.9333 11.7587 26.7333 11.8252 26.5333 11.7587C26.1333 11.8252 25.8 11.6259 25.4 11.7587C25 11.7587 24.6667 11.8252 24.3333 11.7587C24 11.8916 23.6 11.6259 23.2667 11.7587C22.9333 11.7587 22.6 11.7587 22.2667 11.7587C21.9333 11.5594 21.6 11.6923 21.2667 11.7587C20.9333 11.7587 20.6667 11.8916 20.3333 11.7587C20.0667 11.7587 19.7333 11.6259 19.4667 11.7587C19.2 11.7587 18.9333 11.493 18.6667 11.7587C18.4 11.8252 18.1333 11.5594 17.8667 11.7587C17.6 11.8916 17.4 11.7587 17.1333 11.7587C16.9333 11.7587 16.6667 11.7587 16.4667 11.7587C14.4 11.1608 13.3333 11.028 13.3333 10.9615C13.3333 10.8287 14.6667 10.6958 16.9333 10.6294C17.1333 10.6294 17.4 10.4965 17.6667 10.6294C17.9333 10.6294 18.2 10.4965 18.4667 10.6294C18.7333 10.4301 19 10.5629 19.2667 10.6294C19.5333 10.6294 19.8667 10.6958 20.1333 10.6294C20.4 10.4965 20.7333 10.6958 21.0667 10.6294C21.4 10.7622 21.7333 10.6958 22.0667 10.6294C22.4 10.7622 22.7333 10.6294 23.0667 10.6294C23.4 10.8287 23.7333 10.6958 24.1333 10.6294C24.4667 10.5629 24.8667 10.6294 25.2 10.6294C25.6 10.6294 25.9333 10.5629 26.3333 10.6294C26.5333 10.5629 26.7333 10.5629 26.9333 10.5629C27 10.5629 27.1333 10.5629 27.2 10.5629H27.4C27.4667 10.5629 27.6 10.5629 27.6667 10.5629C27.9333 10.5629 28.1333 10.5629 28.4 10.5629C28.4 10.8287 28.4667 11.0944 28.4667 11.2937C28.4667 11.493 28.5333 11.6923 28.5333 11.8252C28.6667 12.2238 28.6 12.6224 28.6667 13.021C28.7333 13.4196 28.6 13.8846 28.8 14.2832C28.8667 14.6818 28.8667 15.1469 28.9333 15.5455C28.9333 15.7448 28.9333 15.9441 29 16.2098C29 16.3427 29 16.4091 29.0667 16.542C29.0667 16.6748 29.1333 16.8741 29.1333 17.007C29.0667 17.3392 29.1333 17.6713 29.1333 18.0035C28.7333 18.0035 28.3333 18.0699 27.8667 18.0699C27.4 18.1364 27 18.0699 26.5333 18.0699C26.0667 18.0699 25.6667 18.0699 25.2 18.0699C24.8 18.1364 24.3333 18.0035 23.9333 18.0699C23.5333 18.1364 23.0667 18.0035 22.6667 18.0699C22.2667 18.1364 21.8667 18.1364 21.4667 18.0699C21.0667 18.0699 20.6667 17.8706 20.2667 18.0699C19.8667 18.1364 19.4667 18.3357 19.1333 18.0699C18.7333 18.1364 18.4 17.9371 18 18.0699C17.6 17.8706 17.2667 18.0699 16.9333 18.0699C16.6 18.0035 16.2 18.0035 15.8667 18.0699C15.5333 18.1364 15.2 18.0035 14.8667 18.0699C14.5333 18.2028 14.2 17.9371 13.8667 18.0699C13.7333 18.0699 13.5333 18.0699 13.4 18.0699H13.2667C13.2 18.0699 13.1333 18.0699 13.0667 18.0699C12.9333 18.0699 12.8 18.0699 12.6667 18.0699C12.4 18.1364 12.1333 18.2028 12 18.2028C12 18.0035 12.0667 17.8706 12.1333 17.6713C12.2 17.5385 12.2 17.3392 12.2667 17.2063C12.2667 17.0734 12.2667 17.007 12.2667 16.8741C12.2667 16.8077 12.2667 16.7413 12.2667 16.6748C12.2667 16.542 12.2667 16.4091 12.4 16.2762C12.2667 16.0105 12.4667 15.7448 12.5333 15.5455C12.6 15.2797 12.5333 15.0804 12.6667 14.8147C12.5333 14.549 12.8 14.3497 12.8 14.1503C12.9333 13.951 12.8667 13.7517 12.8667 13.5524C12.8667 13.3531 12.8667 13.1538 12.9333 13.021C12.9333 12.8881 13 12.6888 13 12.5559C13.1333 11.4266 13.2667 10.9615 13.3333 10.9615Z" fill="#73523F"/>
<path d="M16.3333 8.10489C16.4 8.10489 16.4667 8.37063 16.5333 8.83566C16.5333 8.9021 16.5333 8.96853 16.5333 9.1014C16.5333 9.16783 16.6 9.3007 16.5333 9.36713C16.4667 9.43357 16.7333 9.56643 16.5333 9.6993C16.4667 9.83217 16.5333 9.8986 16.5333 10.0315C16.5333 10.0979 16.5333 10.1643 16.5333 10.2308V10.3636C16.6 10.3636 16.6 10.4301 16.5333 10.4301C16.4667 10.4965 16.4667 10.5629 16.5333 10.4965C16.5333 10.4965 16.5333 10.4965 16.6 10.5629H16.6667C16.6667 10.6294 16.7333 10.6294 16.7333 10.6294C16.7333 10.6294 16.8 10.6294 16.8 10.5629C16.9333 10.7622 17.1333 10.6294 17.2667 10.5629C17.4 10.7622 17.6 10.7622 17.8 10.5629C18 10.5629 18.1333 10.6294 18.3333 10.5629C18.5333 10.5629 18.6667 10.4965 18.8667 10.5629C19.0667 10.4301 19.2667 10.4301 19.4 10.5629C19.6 10.4301 19.8 10.4965 20 10.5629C20.2 10.6294 20.4 10.4301 20.6 10.5629C20.8 10.5629 21 10.4965 21.2 10.5629C21.4 10.6294 21.6 10.6958 21.8667 10.5629C22.0667 10.4965 22.2667 10.4965 22.5333 10.5629C22.7333 10.3636 23 10.4965 23.2 10.5629C23.4 10.5629 23.6667 10.6294 23.8667 10.5629C23.8667 10.5629 23.8667 10.5629 23.9333 10.5629C24 10.5629 24.0667 10.4965 23.9333 10.4301C23.8 10.2308 24 9.96503 23.9333 9.76573C24.0667 9.56643 23.8667 9.3007 23.9333 9.1014C23.9333 9.03496 23.9333 8.96853 23.9333 8.96853C23.9333 8.96853 23.9333 8.96853 23.9333 8.9021V8.83566C23.8667 8.83566 23.8667 8.83566 23.8667 8.83566C23.8667 8.9021 23.8667 8.9021 23.8 8.9021C23.8 8.9021 23.7333 8.9021 23.6667 8.9021C23.5333 8.83566 23.4667 8.76923 23.3333 8.83566C23.1333 8.7028 22.9333 8.83566 22.7333 8.83566C22.5333 8.9021 22.3333 8.7028 22.1333 8.83566C21.9333 8.83566 21.7333 8.9021 21.6 8.83566C21.4 8.96853 21.2 8.7028 21.0667 8.83566C20.8667 8.83566 20.7333 8.83566 20.5333 8.83566C20.3333 8.63636 20.2 8.76923 20 8.83566C19.8667 8.83566 19.6667 8.96853 19.5333 8.83566C19.4 8.83566 19.2 8.7028 19.0667 8.83566C18.9333 8.83566 18.8 8.56993 18.6667 8.83566C18.5333 8.9021 18.4 8.63636 18.2667 8.83566C18.1333 8.96853 18 8.83566 17.8667 8.83566C17.7333 8.83566 17.6667 8.83566 17.5333 8.83566C16.9333 8.3042 16.4 8.23776 16.3333 8.10489C16.3333 7.97203 17.0667 7.83916 18.2 7.77273C18.3333 7.77273 18.4667 7.63986 18.6 7.77273C18.7333 7.77273 18.8667 7.63986 19 7.77273C19.1333 7.57343 19.2667 7.77273 19.4 7.77273C19.5333 7.77273 19.6667 7.83916 19.8667 7.77273C20 7.63986 20.2 7.83916 20.3333 7.77273C20.4667 7.90559 20.6667 7.83916 20.8667 7.77273C21.0667 7.90559 21.2 7.77273 21.4 7.77273C21.6 7.97203 21.7333 7.83916 21.9333 7.77273C22.1333 7.70629 22.3333 7.77273 22.4667 7.77273C22.6667 7.77273 22.8667 7.70629 23.0667 7.77273C23.2667 7.70629 23.4667 7.63986 23.6667 7.77273C23.8667 7.70629 24 7.77273 24.4667 7.77273C24.7333 7.70629 25.0667 7.77273 25.3333 7.77273C25.3333 7.90559 25.3333 7.97203 25.3333 8.10489C25.3333 8.3042 25.3333 8.5035 25.2667 8.7028C25.2667 8.76923 25.2667 8.9021 25.2667 8.96853C25.2667 9.03497 25.2667 9.1014 25.3333 9.1014C25.3333 9.3007 25.3333 9.56643 25.3333 9.76573C25.3333 9.96503 25.2667 10.2308 25.3333 10.4301C25.3333 10.4301 25.3333 10.4301 25.3333 10.4965V10.5629C25.3333 10.6294 25.3333 10.6294 25.3333 10.6958C25.3333 10.7622 25.3333 10.8951 25.3333 10.9615C25.3333 11.1608 25.4 11.4266 25.4 11.6259C25.2 11.6259 25 11.6259 24.7333 11.6259C24.6 11.6259 24.5333 11.6259 24.4 11.6259H24.1333C23.9333 11.6259 23.6667 11.6259 23.4667 11.6259C23.2667 11.6923 23 11.5594 22.8 11.6259C22.6 11.6923 22.3333 11.5594 22.1333 11.6259C21.9333 11.6923 21.7333 11.6923 21.4667 11.6259C21.2667 11.6259 21.0667 11.4266 20.8667 11.6259C20.6667 11.6923 20.4667 11.8916 20.2667 11.6259C20.0667 11.6923 19.8667 11.493 19.6667 11.6259C19.4667 11.4266 19.2667 11.6259 19.1333 11.6259C18.9333 11.5594 18.7333 11.5594 18.6 11.6259C18.4 11.6923 18.2667 11.5594 18.0667 11.6259C17.8667 11.7587 17.7333 11.493 17.5333 11.6259C17.4 11.6259 17.2 11.6259 17.0667 11.6259C17.0667 11.6259 17.0667 11.6259 17 11.6923H16.9333C16.8667 11.6923 16.8667 11.6923 16.8 11.7587C16.7333 11.7587 16.6667 11.7587 16.6 11.7587C16.4667 11.6923 16.4 11.6259 16.2667 11.6259C16.1333 11.6259 16 11.6259 15.8667 11.6923C15.8667 11.6259 15.8667 11.493 15.9333 11.2937C15.8667 11.2273 15.8 11.0944 15.8667 11.028C15.8667 10.8951 15.9333 10.7622 16 10.6958V10.4965C16 10.4301 16 10.3636 16 10.2972C15.8667 10.1643 16.0667 10.0979 16 9.96504C16.0667 9.83217 16 9.76573 16 9.63287C16 9.56643 16 9.43357 16 9.36713C16 9.3007 16 9.16783 16 9.1014C16.2 8.37063 16.2667 8.10489 16.3333 8.10489Z" fill="#73523F"/>
<path d="M10.7333 26.4406C10.8 26.4406 10.8667 26.5734 10.9333 26.7727C10.9333 26.8392 10.9333 26.8392 10.9333 26.9056C10.9333 26.972 11 26.972 10.9333 27.0385C10.8667 27.1049 11.1333 27.1049 10.9333 27.1713C10.8667 27.2378 10.9333 27.3042 10.9333 27.3042C10.9333 27.3706 10.8667 27.4371 10.9333 27.5035C11 27.5035 11 27.5699 10.9333 27.5699C10.8667 27.6364 10.8667 27.6364 10.9333 27.6364C11 27.6364 11 27.7028 10.9333 27.7028C10.8667 27.7692 10.8667 27.7692 10.8667 27.7692H10.9333C10.8 27.9021 10.8 27.9021 10.9333 27.8357C10.9333 27.8357 11 27.8357 11 27.7692C10.8 27.9685 10.9333 27.9685 11.0667 27.7692C11.0667 27.7692 11.0667 27.7692 11.1333 27.7028C11.1333 27.7028 11.1333 27.7028 11.2 27.7028C11.2 27.7028 11.2 27.7028 11.2667 27.7028H11.3333C11.4 27.5699 11.5333 27.5699 11.6 27.7028C11.6667 27.5699 11.8 27.6364 11.8667 27.7028C11.9333 27.7692 12.0667 27.5699 12.1333 27.7028C12.2 27.7028 12.3333 27.6364 12.4 27.7028C12.4667 27.7692 12.6 27.8357 12.6667 27.7028C12.8 27.6364 12.8667 27.6364 13 27.7028C13.0667 27.6364 13.1333 27.5699 13.1333 27.5699C13.1333 27.5699 13.2 27.5699 13.2 27.6364C13.2 27.6364 13.2 27.6364 13.2667 27.6364C13.2667 27.6364 13.2667 27.6364 13.3333 27.6364C13.4 27.7028 13.4667 27.6364 13.3333 27.5699C13.2667 27.5035 13.2667 27.5699 13.3333 27.5699C13.3333 27.5699 13.3333 27.5699 13.3333 27.5035V27.4371C13.3333 27.3706 13.2667 27.3042 13.2667 27.3042C13.2667 27.2378 13.2667 27.1713 13.2667 27.1713V27.1049C13.2667 27.1049 13.2667 27.1049 13.2 27.1049C13.2 27.1049 13.1333 27.1049 13.2 27.0385C13.0667 27.1049 13.0667 27.1049 13.1333 27.0385C13.2 26.972 13.2667 26.9056 13.2 26.972C13.2 26.9056 13.2667 26.9056 13.2 26.972C13.2 26.972 13.1333 27.0385 13.1333 26.972C13.1333 26.972 13.1333 26.9056 13.0667 26.972C13 26.972 13 26.972 12.9333 26.9056C12.8667 27.0385 12.7333 26.7727 12.6667 26.9056C12.6 26.9056 12.5333 26.9056 12.4 26.9056C12.3333 26.7063 12.2667 26.8392 12.1333 26.9056C12.0667 26.9056 12 27.0385 11.9333 26.9056C11.8667 26.9056 11.8 26.7727 11.7333 26.9056C11.6667 26.9056 11.6 26.6399 11.5333 26.9056C11.4667 26.972 11.4 26.7063 11.3333 26.9056C11.2667 27.0385 11.2 26.9056 11.1333 26.9056C11.0667 26.9056 11 26.9056 11 26.9056C11 26.6399 10.7333 26.507 10.7333 26.4406C10.7333 26.3077 11.0667 26.1748 11.6 26.1084C11.6667 26.1084 11.7333 25.9755 11.8 26.1084C11.8667 26.1084 11.9333 25.9755 12 26.1084C12.0667 25.9091 12.1333 26.042 12.2 26.1084C12.2667 26.1084 12.3333 26.1748 12.4 26.1084C12.4667 25.9755 12.5333 26.1748 12.6 26.1084C12.6667 26.2413 12.7333 26.1748 12.8667 26.1084C12.9333 26.2413 13 26.1084 13.1333 26.1084C13.2 26.3077 13.3333 26.1748 13.4 26.1084C13.4667 26.1084 13.4667 26.1084 13.5333 26.1084C13.5333 26.1084 13.5333 26.1084 13.6 26.1084H13.6667C13.7333 26.1084 13.7333 26.1084 13.8 26.1084C13.8667 26.1084 13.9333 26.1084 14.0667 26.1084C14.1333 26.1084 14.2667 26.1084 14.3333 26.1084C14.5333 26.042 14.8 25.9755 14.8667 26.1084C14.9333 26.2413 14.8667 26.4406 14.8667 26.6399C14.9333 26.7063 14.8667 26.8392 14.8667 26.9056C14.8667 26.972 14.8667 27.1049 14.8667 27.1713C14.8667 27.2378 14.8667 27.3042 14.8667 27.3042C14.8667 27.3042 14.8667 27.3706 14.8 27.3706C14.8 27.4371 14.8 27.5035 14.8667 27.5035C14.8667 27.5699 14.8667 27.6364 14.8667 27.6364V27.7028C14.8667 27.7028 14.8667 27.7028 14.8667 27.7692V27.8357C14.8667 28.035 14.8 28.2343 14.8667 28.4336C14.6667 28.3007 14.6667 28.3671 14.6667 28.5C14.6667 28.6329 14.7333 28.7657 14.7333 28.8986C14.6 28.965 14.3333 28.8986 14.1333 28.8986C13.9333 28.8986 13.7333 28.8986 13.5333 28.8986C13.5333 28.8986 13.5333 28.8986 13.4667 28.8986C13.4667 28.8986 13.4667 28.8986 13.4 28.8986H13.3333C13.2667 28.8986 13.2 28.8986 13.2 28.8986C13.0667 28.965 13 28.8322 12.8667 28.8986C12.7333 28.965 12.6667 28.965 12.6 28.8986C12.5333 28.8986 12.4 28.6993 12.3333 28.8986C12.2667 28.965 12.1333 29.1643 12.0667 28.8986C12 28.965 11.8667 28.7657 11.8 28.8986C11.7333 28.6993 11.6 28.8986 11.5333 28.8986H11.4C11.3333 28.8986 11.2667 28.8986 11.2 28.965C11.1333 29.0315 11.0667 28.965 11 28.965C10.9333 28.965 10.8667 28.8986 10.8 28.965C10.6667 29.0315 10.6667 28.965 10.6 28.965C10.5333 28.8986 10.5333 28.8986 10.4 28.965C10.4 28.965 10.4 28.965 10.3333 28.965C10.3333 28.8322 10.3333 28.7657 10.3333 28.6329C10.2 28.6329 10.2 28.5664 10.2667 28.5C10.3333 28.4336 10.4 28.3007 10.4 28.3007C10.4 28.2343 10.4 28.1678 10.3333 28.1678C10.3333 28.1014 10.3333 28.035 10.4 27.9685C10.3333 27.9685 10.3333 27.9021 10.3333 27.9021V27.8357C10.3333 27.8357 10.4 27.7692 10.4667 27.7692C10.5333 27.7028 10.4 27.6364 10.4667 27.5699C10.3333 27.5035 10.5333 27.4371 10.4667 27.4371C10.5333 27.3706 10.4667 27.3706 10.4667 27.3042C10.4667 27.2378 10.4667 27.2378 10.4667 27.1713C10.4667 27.1049 10.4667 27.1049 10.4667 27.0385C10.5333 26.507 10.6 26.4406 10.7333 26.4406Z" fill="#73523F"/>
<path d="M27 26.4406C27.0667 26.4406 27.1333 26.5734 27.2 26.7727C27.2 26.8392 27.2 26.8392 27.2 26.9056C27.2 26.972 27.2667 26.972 27.2 27.0385C27.1333 27.1049 27.4 27.1049 27.2 27.1713C27.1333 27.2378 27.2 27.3042 27.2 27.3042C27.2 27.3706 27.1333 27.4371 27.2 27.5035C27.2667 27.5035 27.2667 27.5699 27.2 27.5699C27.1333 27.6364 27.1333 27.6364 27.2 27.6364C27.2667 27.6364 27.2667 27.7028 27.2 27.7028C27.3333 27.7692 27.3333 27.7692 27.3333 27.7692H27.4C27.2667 27.9021 27.2667 27.9021 27.4 27.8357C27.4 27.8357 27.4667 27.8357 27.4667 27.7692C27.2667 27.9685 27.4 27.9685 27.5333 27.7692C27.5333 27.7692 27.5333 27.7692 27.6 27.7028C27.6 27.7028 27.6 27.7028 27.6667 27.7028H27.7333C27.8 27.5699 27.9333 27.5699 28 27.7028C28.0667 27.5699 28.2 27.6364 28.2667 27.7028C28.3333 27.7692 28.4667 27.5699 28.5333 27.7028C28.6 27.7028 28.7333 27.6364 28.8 27.7028C28.8667 27.7692 29 27.8357 29.0667 27.7028C29.2 27.6364 29.2667 27.6364 29.4 27.7028C29.4667 27.6364 29.5333 27.5699 29.5333 27.5699C29.5333 27.5699 29.6 27.5699 29.6 27.6364C29.6 27.6364 29.6 27.6364 29.6667 27.6364C29.6667 27.6364 29.6667 27.6364 29.7333 27.6364C29.8 27.7028 29.8667 27.6364 29.7333 27.5699C29.6667 27.5035 29.6667 27.5699 29.7333 27.5699C29.7333 27.5699 29.7333 27.5699 29.7333 27.5035V27.4371C29.7333 27.3706 29.6667 27.3042 29.6667 27.3042C29.6667 27.2378 29.6667 27.1713 29.6667 27.1713V27.1049C29.6667 27.1049 29.6667 27.1049 29.6 27.1049C29.6 27.1049 29.5333 27.1049 29.6 27.0385C29.4667 27.1049 29.4667 27.1049 29.5333 27.0385C29.6 26.972 29.6667 26.9056 29.6 26.972C29.6 26.9056 29.6667 26.9056 29.6 26.972C29.6 26.972 29.5333 27.0385 29.5333 26.972C29.5333 26.972 29.5333 26.9056 29.4667 26.972C29.4 26.972 29.4 26.972 29.3333 26.9056C29.2667 27.0385 29.1333 26.7727 29.0667 26.9056C29 26.9056 28.9333 26.9056 28.8 26.9056C28.7333 26.7063 28.6667 26.8392 28.5333 26.9056C28.4667 26.9056 28.4 27.0385 28.3333 26.9056C28.2667 26.9056 28.2 26.7727 28.1333 26.9056C28.0667 26.9056 28 26.6399 27.9333 26.9056C27.8667 26.972 27.8 26.7063 27.7333 26.9056C27.6667 27.0385 27.6 26.9056 27.5333 26.9056C27.4667 26.9056 27.4 26.9056 27.4 26.9056C27.2667 26.6399 27 26.507 27 26.4406C27 26.3077 27.3333 26.1748 27.8667 26.1084C27.9333 26.1084 28 25.9755 28.0667 26.1084C28.1333 26.1084 28.2 25.9755 28.2667 26.1084C28.3333 25.9091 28.4 26.042 28.4667 26.1084C28.5333 26.1084 28.6 26.1748 28.6667 26.1084C28.7333 25.9755 28.8 26.1748 28.8667 26.1084C28.9333 26.2413 29 26.1748 29.1333 26.1084C29.2 26.2413 29.2667 26.1084 29.4 26.1084C29.4667 26.3077 29.6 26.1748 29.6667 26.1084C29.7333 26.1084 29.7333 26.1084 29.8 26.1084C29.8 26.1084 29.8 26.1084 29.8667 26.1084H29.9333C30 26.1084 30 26.1084 30.0667 26.1084C30.1333 26.1084 30.2 26.1084 30.3333 26.1084C30.4 26.1084 30.5333 26.1084 30.6 26.1084C30.8 26.042 31.0667 25.9755 31.1333 26.1084C31.2 26.2413 31.1333 26.4406 31.1333 26.6399C31.1333 26.7063 31.1333 26.8392 31.1333 26.9056C31.1333 26.972 31.1333 27.1049 31.1333 27.1713C31.1333 27.2378 31.1333 27.2378 31.1333 27.3042C31.1333 27.3042 31.1333 27.3706 31.0667 27.3706C31.0667 27.4371 31.0667 27.5035 31.1333 27.5035C31.1333 27.5699 31.1333 27.6364 31.1333 27.6364V27.7028C31.1333 27.7028 31.1333 27.7028 31.1333 27.7692V27.8357C31.1333 28.035 31.0667 28.2343 31.1333 28.4336C31.0667 28.5 31 28.5664 31.0667 28.6329C31.0667 28.7657 31.1333 28.8986 31.1333 29.0315C31 29.0979 30.7333 29.0315 30.5333 29.0315C30.3333 29.0315 30.1333 29.0315 29.9333 29.0315C29.9333 29.0315 29.9333 29.0315 29.8667 29.0315C29.8667 29.0315 29.8667 29.0315 29.8 29.0315H29.7333C29.6667 29.0315 29.6 29.0315 29.6 29.0315C29.4667 29.0979 29.4 28.965 29.2667 29.0315C29.1333 29.0979 29.0667 29.0979 29 29.0315C28.9333 29.0315 28.8 28.8322 28.7333 29.0315C28.6667 29.0979 28.5333 29.2972 28.4667 29.0315C28.4 29.0979 28.2667 28.8986 28.2 29.0315C28.1333 28.8322 28 29.0315 27.9333 29.0315H27.8C27.7333 29.0315 27.6667 29.0315 27.6 29.0979C27.5333 29.1643 27.4667 29.0979 27.4 29.0979C27.3333 29.0979 27.2667 29.0315 27.2 29.0979C27.0667 29.1643 27.0667 29.0979 27 29.0979C26.9333 29.0315 26.9333 29.0315 26.8 29.0979C26.8 29.0979 26.8 29.0979 26.7333 29.0979C26.7333 28.965 26.7333 28.8986 26.7333 28.7657C26.6 28.7657 26.6 28.6993 26.6667 28.6329C26.7333 28.5664 26.8 28.4336 26.8 28.4336C26.8 28.3671 26.8 28.3007 26.7333 28.3007C26.7333 28.2343 26.7333 28.1678 26.8 28.1014C26.7333 28.1014 26.7333 28.035 26.7333 28.035V27.9685C26.7333 27.9685 26.8 27.9021 26.8667 27.9021C26.9333 27.8357 26.8 27.7692 26.8667 27.7028C26.7333 27.6364 26.9333 27.5699 26.8667 27.5699C26.9333 27.5035 26.8667 27.5035 26.8667 27.4371C26.8667 27.3706 26.8667 27.3706 26.8667 27.3042C26.8667 27.2378 26.8667 27.2378 26.8667 27.1713C26.8667 26.507 26.9333 26.4406 27 26.4406Z" fill="#73523F"/>
<path d="M20.6 0.0664336C20.6 0.0664336 20.4667 0.132867 20.3333 0.132867C20.2667 0.132867 20.1333 0.132867 19.9333 0.199301C19.8 0.199301 19.6 0.199301 19.4 0.265734C18.6667 0.332168 17.5333 0.465035 16.0667 0.863636C15.8 0.93007 15.6 0.996504 15.3333 1.06294C15.0667 1.12937 14.8 1.1958 14.5333 1.32867C14.2667 1.3951 14 1.52797 13.7333 1.66084C13.4667 1.79371 13.2 1.86014 12.8667 1.99301C12.5333 2.05944 12.2667 2.25874 12 2.39161C11.7333 2.59091 11.4667 2.72378 11.0667 2.85664C10.7333 2.98951 10.4667 3.18881 10.1333 3.38811C10 3.52098 9.8 3.58741 9.66667 3.72028C9.6 3.78671 9.53333 3.85315 9.46667 3.85315C9.4 3.91958 9.33333 3.98601 9.26667 4.05245C9.13333 4.18531 8.93333 4.25175 8.8 4.38462C8.66667 4.51748 8.46667 4.58392 8.33333 4.71678C8 4.91608 7.73333 5.24825 7.4 5.51399C7.26667 5.64685 7.13333 5.84615 7 5.97902C6.86667 5.97902 6.73333 6.11189 6.53333 6.24475C6.2 6.51049 5.86667 6.77622 5.66667 7.24126C5.4 7.57343 5.13333 7.97203 4.86667 8.3042C4.73333 8.5035 4.6 8.7028 4.46667 8.83566C4.4 8.9021 4.33333 9.03496 4.26667 9.1014C4.2 9.16783 4.13333 9.3007 4.06667 9.36713C3.93333 9.56643 3.73333 9.6993 3.66667 9.96504C3.53333 10.1643 3.4 10.3636 3.33333 10.5629C3.2 10.7622 3.13333 11.028 3 11.2273C2.93333 11.3601 2.93333 11.4266 2.86667 11.5594C2.8 11.6923 2.8 11.7587 2.73333 11.8916C2.66667 12.0245 2.6 12.0909 2.53333 12.2238C2.46667 12.3566 2.4 12.4231 2.33333 12.5559C2.2 12.7552 2.13333 13.021 2.06667 13.2867C1.93333 13.7517 1.8 14.2832 1.73333 14.8147C1.26667 15.7448 1.06667 16.8077 1.13333 17.9371V18.3357C1.13333 18.4685 1.13333 18.6014 1.06667 18.7343C1.06667 18.8671 1.06667 19 1 19.1329C1 19.2657 1 19.3986 1 19.5315C1 19.7972 1 20.0629 1 20.3287C1 20.4615 1 20.5944 1.06667 20.7273C1.06667 20.8601 1.13333 20.993 1.13333 21.1259C1.33333 22.1888 1.73333 23.3182 2.13333 24.3811C2.4 24.9126 2.66667 25.4441 2.93333 25.9755C3.2 26.507 3.4 27.1049 3.6 27.6364C4.26667 28.6993 4.8 29.8287 5.4 30.958C5.93333 32.0874 6.8 33.1503 7.33333 34.3462C8 35.4755 8.73333 36.6049 9.46667 37.7343C10.1333 38.9301 10.8 40.1259 11.6667 41.1888C12.4667 42.3182 13.2667 43.4476 14 44.7098C14.9333 45.7727 15.6667 47.035 16.4 48.2972C17.2 49.493 17.9333 50.7552 18.8 51.951C19.2 52.549 19.6 53.2133 20 53.8112C20.2 54.1434 20.4 54.4091 20.6 54.7413C20.6 54.8077 20.6 54.8077 20.6667 54.8741C20.6667 54.8741 20.7333 54.8077 20.8 54.7413C21 54.4091 21.2 54.1434 21.4 53.8112C21.8 53.2133 22.2 52.549 22.5333 51.8846C23.2667 50.5559 24.2 49.4266 24.9333 48.2308C25.8667 47.1014 26.4667 45.7727 27.3333 44.6434C28.0667 43.4476 28.9333 42.3182 29.6667 41.1224C30.4 39.9266 31.1333 38.7972 31.8667 37.6678C32.4 36.4056 33.3333 35.4091 34 34.2797C34.8 33.2168 35.3333 32.021 35.9333 30.8916C36.5333 29.7622 37.2667 28.6993 37.7333 27.5699C38 27.0385 38.2667 26.4406 38.5333 25.9091C38.8 25.3776 39 24.7797 39.2667 24.2483C39.4 23.6504 39.6667 23.1189 39.8667 22.5874C40.0667 22.0559 40.2667 21.5245 40.2667 20.9266C40.2667 20.7937 40.3333 20.6608 40.3333 20.528C40.3333 20.3951 40.3333 20.2622 40.3333 20.1294C40.3333 19.8636 40.3333 19.5979 40.3333 19.3322C40.3333 19.1993 40.3333 19.0664 40.3333 18.9336C40.3333 18.8007 40.3333 18.6678 40.3333 18.535C40.3333 18.4021 40.3333 18.2692 40.3333 18.1364V17.7378C40.3333 17.472 40.3333 17.2063 40.3333 16.9406C40.2667 16.6748 40.2667 16.4091 40.2 16.1434C40.2 16.0105 40.1333 15.8776 40.1333 15.7448C40.0667 15.6119 40.0667 15.479 40 15.3462C39.9333 15.2133 39.9333 15.0804 39.8667 14.9476C39.8 14.8147 39.8 14.6818 39.7333 14.549C39.6 14.0175 39.4 13.5524 39.2667 13.0874C39.2 12.8881 39.0667 12.6224 39 12.4231C38.9333 12.2902 38.9333 12.1573 38.8667 12.0909C38.8 11.958 38.8 11.8252 38.7333 11.7587C38.3333 10.8287 37.9333 9.96503 37.3333 9.23427C37.2667 9.16783 37.2 9.03497 37.1333 8.96853C37.0667 8.9021 37 8.76923 36.9333 8.7028C36.8 8.5035 36.7333 8.3042 36.6 8.10489C36.3333 7.70629 36.0667 7.37413 35.6667 7.10839C35.4 6.77622 35.1333 6.44406 34.8 6.11189C34.6667 5.91259 34.5333 5.77972 34.3333 5.64685C34.2 5.51399 34 5.38112 33.8667 5.24825C33.5333 5.04895 33.2 4.78322 32.9333 4.51748C32.8 4.38462 32.6667 4.25175 32.4667 4.11888C32.3333 3.98601 32.2 3.85315 32 3.78671C31.9333 3.72028 31.8667 3.65385 31.8 3.58741C31.7333 3.52098 31.6667 3.45455 31.5333 3.45455C31.4 3.32168 31.2 3.25524 31.0667 3.12238C30.7333 2.92308 30.4667 2.72378 30.1333 2.59091C28.6667 1.99301 27.3333 1.46154 26.2 1.12937C26.0667 1.06294 25.9333 1.06294 25.8 0.996503C25.7333 0.996503 25.6667 0.93007 25.6 0.93007C25.5333 0.93007 25.4667 0.863636 25.4 0.863636C25.1333 0.797203 24.8667 0.730769 24.6 0.664336C24.0667 0.531469 23.6 0.465035 23.2 0.398601C23 0.398601 22.8 0.332168 22.6 0.332168C22.4 0.332168 22.2667 0.265734 22.0667 0.265734C21.9333 0.265734 21.7333 0.199301 21.6 0.199301C21.4667 0.199301 21.3333 0.199301 21.2 0.199301C20.8 0.132867 20.6 0.0664336 20.6 0.0664336C20.6 0.0664336 20.8667 0 21.4 0C21.4667 0 21.5333 0 21.6 0C21.6667 0 21.7333 0 21.8667 0C22.0667 0 22.2 0 22.4 0C22.6 0 22.8 0 23.0667 0.0664336C23.2 0.0664336 23.3333 0.0664336 23.4 0.132867C23.5333 0.132867 23.6667 0.132867 23.8 0.199301C24.8667 0.332168 26.1333 0.597902 27.5333 1.06294C27.7333 1.12937 27.8667 1.1958 28.0667 1.26224C28.2667 1.32867 28.4667 1.3951 28.6667 1.46154C29.0667 1.59441 29.4 1.79371 29.8 1.99301C30.6 2.39161 31.4 2.85664 32.2 3.38811C32.3333 3.52098 32.5333 3.58741 32.6667 3.72028C32.8667 3.85315 33 3.91958 33.2 4.05245C33.5333 4.25175 33.8667 4.58392 34.1333 4.84965C34.3333 5.04895 34.4667 5.18182 34.6667 5.31469C34.8 5.44755 35 5.58042 35.1333 5.77972C35.4667 6.11189 35.8 6.37762 36 6.77622C36.4 7.04196 36.6667 7.44056 36.9333 7.77273C37.0667 7.97203 37.2 8.17133 37.3333 8.37063C37.4 8.5035 37.4667 8.56993 37.5333 8.7028C37.6 8.83566 37.6667 8.9021 37.7333 9.03497C38.2667 9.83217 38.7333 10.7622 39.2 11.6259C39.2667 11.7587 39.3333 11.8252 39.4 11.958C39.4667 12.0909 39.5333 12.2238 39.5333 12.2902C39.6 12.5559 39.7333 12.7552 39.8 13.021C39.9333 13.5524 40.1333 14.0175 40.2667 14.549C40.2667 14.6818 40.3333 14.8147 40.3333 14.9476C40.3333 15.0804 40.4 15.2133 40.4 15.3462C40.4 15.479 40.4667 15.6119 40.4667 15.7448C40.4667 15.8776 40.5333 16.0105 40.5333 16.1434C40.6 16.4091 40.6667 16.6748 40.7333 16.9406C40.8 17.2063 40.8667 17.472 40.9333 17.7378V18.1364C40.9333 18.2692 40.9333 18.4021 40.9333 18.535C40.9333 18.6678 40.9333 18.8007 40.9333 18.9336C40.9333 19.0664 40.9333 19.1993 40.9333 19.3322C40.9333 19.5979 41 19.9301 41 20.1958C41 20.3287 41 20.528 41 20.6608C41 20.7937 40.9333 20.993 40.9333 21.1259C40.7333 21.7238 40.6 22.2552 40.4 22.8531C40.2667 23.451 40.0667 24.049 39.8667 24.5804C39.6667 25.1783 39.4 25.7098 39.1333 26.3077C38.8667 26.8392 38.6 27.4371 38.3333 27.9685C37.7333 29.0979 37.2 30.2273 36.5333 31.3566C36 32.5524 35.3333 33.6818 34.6 34.7448C33.9333 35.9406 33.2 37.0035 32.4667 38.1993C31.8 39.3951 31 40.5245 30.2667 41.6538C29.5333 42.8497 28.6 43.9126 27.9333 45.1748C27.2 46.3706 26.3333 47.5664 25.6 48.7622C24.8 49.958 23.9333 51.1538 23.2 52.4161C22.7333 53.014 22.3333 53.6119 21.9333 54.2098C21.7333 54.542 21.5333 54.8741 21.4 55.1399C21.0667 55.7378 20.7333 56.3357 20.4 57C20.0667 56.4021 19.6667 55.8042 19.3333 55.2063C19.1333 54.8741 18.9333 54.6084 18.7333 54.2762C18.3333 53.6783 17.9333 53.014 17.6 52.4161C16.8 51.2203 16 49.958 15.2 48.7622C14.3333 47.5664 13.6667 46.3042 12.8667 45.1748C12 44.0455 11.4 42.7832 10.5333 41.6538C9.73333 40.5245 8.93333 39.3951 8.33333 38.1993C7.6 37.0699 7.06667 35.8077 6.2 34.7448C5.46667 33.6154 4.66667 32.6189 4.26667 31.3566C3.6 30.2273 3.13333 29.0315 2.46667 27.9685C2.26667 27.3706 2 26.7727 1.73333 26.2413C1.66667 25.9091 1.33333 25.3776 1.13333 24.7797C0.733333 23.6503 0.4 22.4545 0.133333 21.3252C0.133333 21.1923 0.0666667 21.0594 0.0666667 20.8601C0 20.7273 0 20.528 0 20.3951C0 20.0629 0 19.7972 0 19.5315C0 19.3986 0 19.2657 0 19.0664C0 18.9336 0 18.8007 0.0666667 18.6678C0.0666667 18.535 0.0666667 18.4021 0.133333 18.2692V17.8706C0.133333 17.6049 0.2 17.2727 0.2 17.007C0.266667 16.7413 0.333333 16.4755 0.4 16.2098C0.4 16.0769 0.466667 15.9441 0.533333 15.8112C0.6 15.6783 0.6 15.5455 0.666667 15.4126C0.733333 15.2797 0.733333 15.1469 0.733333 15.014C0.733333 14.8811 0.8 14.7483 0.8 14.6154C0.933333 14.0839 1.13333 13.6189 1.26667 13.0874C1.33333 12.8217 1.46667 12.6224 1.53333 12.3566C1.6 12.2238 1.6 12.0909 1.66667 12.0245C1.73333 11.8916 1.8 11.8252 1.86667 11.6923C1.86667 11.5594 1.93333 11.4266 1.93333 11.2937C2 11.1608 2 11.028 2.06667 10.9615C2.2 10.7622 2.26667 10.4965 2.4 10.2972C2.66667 9.96504 2.86667 9.76573 3 9.56643C3.13333 9.36713 3.26667 9.16783 3.4 8.96853C3.46667 8.9021 3.53333 8.76923 3.6 8.63636C3.66667 8.56993 3.73333 8.43706 3.8 8.3042C3.93333 8.1049 4.06667 7.90559 4.2 7.70629C4.46667 7.30769 4.73333 6.97552 5.13333 6.64336C5.33333 6.31119 5.66667 5.97902 6 5.71329C6.13333 5.58042 6.33333 5.44755 6.46667 5.31469C6.66667 5.18182 6.8 5.04895 7 4.91608C7.33333 4.65035 7.66667 4.38462 7.93333 4.11888C8.06667 3.98601 8.26667 3.85315 8.4 3.72028C8.53333 3.58741 8.73333 3.52098 8.93333 3.38811C9 3.32168 9.06667 3.25524 9.13333 3.18881C9.2 3.12238 9.26667 3.05594 9.4 3.05594C9.53333 2.92308 9.73333 2.85664 9.86667 2.79021C10.2 2.59091 10.5333 2.45804 10.8667 2.25874C11.2 2.12587 11.5333 1.99301 11.8 1.79371C12.1333 1.66084 12.4 1.52797 12.7333 1.3951C13 1.26224 13.3333 1.12937 13.6 1.06294C13.8667 0.996504 14.2 0.863636 14.4667 0.797203C14.7333 0.730769 15 0.664336 15.2667 0.597902C15.5333 0.531469 15.8 0.465035 16 0.398601C17.4667 0.0664336 18.6 0 19.4 0C19.6 0 19.7333 0 19.9333 0C20.0667 0 20.2 0 20.3333 0C20.4667 0.0664336 20.6 0.0664336 20.6 0.0664336Z" fill="#73523F"/>
<path d="M20.6 47.1678C20.5333 47.1678 20.4667 46.9685 20.4 46.6364C20.4 46.5699 20.4 46.5035 20.4 46.4371C20.4 46.3706 20.3333 46.3042 20.4 46.2378C20.4667 46.1713 20.2 46.1049 20.4 46.0385C20.4667 45.972 20.4 45.9056 20.4 45.7727C20.4 45.7063 20.4667 45.5734 20.4 45.507C20.2 45.4406 20.6 45.3077 20.4 45.2413C20.3333 45.1748 20.3333 45.042 20.4 44.9091C20.5333 44.7762 20.4 44.7098 20.4 44.5769C20.6 44.4441 20.4667 44.3776 20.4 44.2448C20.6 44.1119 20.6 43.979 20.4 43.9126C20.4 43.7797 20.4667 43.6469 20.4 43.514C20.4 43.3811 20.3333 43.2483 20.4 43.1154C20.2667 42.9825 20.2667 42.8497 20.4 42.7168C20.2667 42.5839 20.3333 42.451 20.4 42.3182C20.4667 42.1853 20.2667 42.0524 20.4 41.9196C20.4 41.7867 20.3333 41.6538 20.4 41.4545C20.4667 41.3217 20.5333 41.1888 20.4 40.9895C20.3333 40.8566 20.3333 40.6573 20.4 40.5245C20.2 40.3916 20.3333 40.1923 20.4 40.0594C20.4 39.9266 20.4667 39.7273 20.4 39.5944C20.4 39.4615 20.3333 39.2622 20.4 39.1294C20.4667 38.9965 20.5333 38.7972 20.4 38.6643C20.2667 38.5315 20.4667 38.3322 20.4 38.1993C20.5333 38.0664 20.3333 37.8671 20.4 37.7343C20.4 37.6014 20.4667 37.4021 20.4 37.2692C20.4 37.1364 20.3333 36.9371 20.4 36.8042C20.1333 36.6713 20.4667 36.5385 20.4 36.3392C20.5333 36.2063 20.4 36.0734 20.4 35.9406C20.3333 35.8077 20.5333 35.6748 20.4 35.542C20.4 35.4091 20.3333 35.2762 20.4 35.1434C20.2667 35.0105 20.5333 34.8776 20.4 34.7448C20.4 34.6119 20.4 34.479 20.4 34.3462C20.6 34.2133 20.4667 34.0804 20.4 34.014C20.4 33.8811 20.2667 33.8147 20.4 33.6818C20.4 33.549 20.5333 33.4825 20.4 33.3497C20.4 33.2168 20.6667 33.1503 20.4 33.0175C20.3333 32.951 20.6 32.8182 20.4 32.7517C20.2667 32.6853 20.4 32.5524 20.4 32.486C20.4 32.4196 20.4 32.3531 20.4 32.2203C20.4667 31.5559 20.6 31.1573 20.6667 31.1573C20.8 31.1573 20.8667 31.6224 21 32.486C21 32.5524 21.1333 32.6853 21 32.7517C21 32.8182 21.1333 32.951 21 33.0175C21.2 33.0839 21.0667 33.2168 21 33.3497C21 33.4825 20.9333 33.549 21 33.6818C21.1333 33.8147 20.9333 33.8811 21 34.014C20.8667 34.1469 20.9333 34.2797 21 34.3462C20.8667 34.479 21 34.6119 21 34.7448C20.8 34.8776 20.9333 35.0105 21 35.1434C21.0667 35.2762 21 35.4091 21 35.542C21 35.6748 21.0667 35.8077 21 35.9406C21.0667 36.0734 21.1333 36.2063 21 36.3392C21.0667 36.472 21 36.6049 21 36.8042C21.0667 36.9371 21 37.0699 21 37.2692C21.0667 37.4021 20.8 37.6014 21 37.7343C21 37.8671 21 38.0664 21 38.1993C21 38.3322 20.9333 38.5315 21 38.6643C20.8 38.7972 20.9333 38.9965 21 39.1294C21.0667 39.2622 21 39.4615 21 39.5944C21 39.7273 21 39.9266 21 40.0594C21.0667 40.1923 20.9333 40.3916 21 40.5245C21.0667 40.6573 20.9333 40.8566 21 40.9895C21.0667 41.1224 21.0667 41.3217 21 41.4545C21 41.5874 20.8 41.7203 21 41.9196C21.0667 42.0524 21.2667 42.1853 21 42.3182C21.0667 42.451 20.8667 42.5839 21 42.7168C20.8 42.8497 21 42.9825 21 43.1154C20.9333 43.2483 20.9333 43.3811 21 43.514C21.0667 43.6469 20.9333 43.7797 21 43.9126C21.1333 44.0455 20.8667 44.1783 21 44.2448C21 44.3776 21 44.4441 21 44.5769C21.2667 44.7098 21 44.7762 21 44.9091C20.9333 45.042 21.2 45.1084 21 45.2413C21.2 45.3077 21 45.4406 21 45.507C20.9333 45.5734 21.0667 45.7063 21 45.7727C21.1333 45.8392 20.9333 45.9056 21 46.0385C20.9333 46.1049 21 46.1713 21 46.2378C21 46.3042 21 46.3706 21 46.4371C21 46.5035 21 46.5699 21 46.6364C20.7333 46.9685 20.6667 47.1678 20.6 47.1678Z" fill="#73523F"/>
<path d="M40.5333 56.1364C40.5333 56.2028 40.0667 56.2692 39.2667 56.3357C39.1333 56.3357 39 56.3357 38.8667 56.3357C38.7333 56.3357 38.5333 56.4021 38.4 56.3357C38.2 56.2692 38.0667 56.535 37.8667 56.3357C37.6667 56.2692 37.4667 56.3357 37.2667 56.3357C37.0667 56.3357 36.8667 56.2692 36.6 56.3357C36.4 56.535 36.1333 56.1364 35.8667 56.3357C35.6 56.4021 35.4 56.4021 35.1333 56.3357C34.8667 56.2028 34.6 56.3357 34.3333 56.3357C34.0667 56.1364 33.8 56.2692 33.4667 56.3357C33.2 56.1364 32.8667 56.1364 32.6 56.3357C32.2667 56.3357 32 56.2692 31.6667 56.3357C31.3333 56.3357 31 56.4021 30.7333 56.3357C30.4 56.4685 30.0667 56.4685 29.7333 56.3357C29.4 56.4685 29.0667 56.4021 28.6667 56.3357C28.3333 56.2692 27.9333 56.4685 27.6 56.3357C27.2667 56.3357 26.8667 56.4021 26.5333 56.3357C26.1333 56.2692 25.8 56.2028 25.4 56.3357C25 56.4021 24.6667 56.4021 24.2667 56.3357C23.8667 56.535 23.4667 56.4021 23.0667 56.3357C22.6667 56.3357 22.2667 56.2692 21.8667 56.3357C21.4667 56.3357 21.0667 56.4021 20.6667 56.3357C20.2667 56.2692 19.8667 56.2028 19.4667 56.3357C19.0667 56.4685 18.6667 56.2692 18.2667 56.3357C17.8667 56.2028 17.4667 56.4021 17.0667 56.3357C16.6667 56.3357 16.2667 56.2692 15.9333 56.3357C15.5333 56.3357 15.2 56.4021 14.8 56.3357C14.4 56.6014 14.0667 56.2692 13.7333 56.3357C13.4 56.2028 13 56.3357 12.6667 56.3357C12.3333 56.4021 12 56.2028 11.6 56.3357C11.2667 56.3357 10.9333 56.4021 10.6 56.3357C10.2667 56.4685 9.93333 56.2028 9.66667 56.3357C9.33333 56.3357 9.06667 56.3357 8.73333 56.3357C8.4 56.1364 8.13333 56.2692 7.86667 56.3357C7.6 56.3357 7.26667 56.4685 7 56.3357C6.73333 56.3357 6.46667 56.2028 6.2 56.3357C5.93333 56.3357 5.66667 56.0699 5.46667 56.3357C5.2 56.4021 5 56.1364 4.73333 56.3357C4.53333 56.4685 4.26667 56.3357 4.06667 56.3357C3.86667 56.3357 3.66667 56.3357 3.46667 56.3357C1.66667 56.3357 0.666667 56.2028 0.666667 56.1364C0.666667 56.0035 1.86667 55.9371 4 55.8042C4.2 55.8042 4.4 55.6713 4.66667 55.8042C4.86667 55.8042 5.13333 55.6713 5.4 55.8042C5.66667 55.6049 5.86667 55.8042 6.13333 55.8042C6.4 55.8042 6.66667 55.8706 6.93333 55.8042C7.2 55.6713 7.46667 55.8706 7.8 55.8042C8.06667 55.9371 8.4 55.8706 8.66667 55.8042C9 55.9371 9.26667 55.8042 9.6 55.8042C9.93333 56.0035 10.2667 55.8706 10.5333 55.8042C10.8667 55.7378 11.2 55.8042 11.5333 55.8042C11.8667 55.8042 12.2 55.7378 12.6 55.8042C12.9333 55.7378 13.3333 55.6713 13.6667 55.8042C14 55.7378 14.4 55.8042 14.7333 55.8042C15.1333 55.7378 15.4667 55.8042 15.8667 55.8042C16.2667 55.7378 16.6 56.0035 17 55.8042C17.4 55.8042 17.8 55.8042 18.2 55.8042C18.6 55.8042 19 55.8706 19.4 55.8042C19.8 56.0035 20.2 55.8706 20.6 55.8042C21 55.7378 21.4 55.8042 21.8 55.8042C22.2 55.8042 22.6 55.8042 23 55.8042C23.4 55.7378 23.8 55.8706 24.2 55.8042C24.6 55.7378 25 55.8706 25.3333 55.8042C25.7333 55.7378 26.0667 55.7378 26.4667 55.8042C26.8667 55.8042 27.2 56.0035 27.5333 55.8042C27.8667 55.7378 28.2667 55.5385 28.6 55.8042C28.9333 55.7378 29.2667 55.9371 29.6667 55.8042C30 56.0035 30.3333 55.8042 30.6667 55.8042C31 55.8706 31.3333 55.8706 31.6 55.8042C31.9333 55.7378 32.2 55.8706 32.5333 55.8042C32.8667 55.6713 33.1333 55.9371 33.4 55.8042C33.6667 55.8042 34 55.8042 34.2667 55.8042C34.5333 55.5385 34.8 55.8042 35.0667 55.8042C35.3333 55.8706 35.6 55.6049 35.8 55.8042C36.0667 55.6049 36.2667 55.8042 36.5333 55.8042C36.7333 55.8706 37 55.7378 37.2 55.8042C37.4 55.6713 37.6 55.8706 37.8 55.8042C38 55.8706 38.2 55.8042 38.3333 55.8042C38.5333 55.8042 38.6667 55.8042 38.8 55.8042C38.9333 55.8042 39.0667 55.8042 39.2 55.8042C40.0667 56.0035 40.5333 56.0699 40.5333 56.1364Z" fill="#73523F"/>
</svg>
