<svg width="86" height="69" viewBox="0 0 86 69" fill="none" xmlns="http://www.w3.org/2000/svg">
<path d="M34.9 16.3C34.9 16.4 33.8 16.5 31.8 16.7C31.5 16.7 31.1 16.8 30.7 16.8C30.3 16.9 29.9 16.9 29.5 17C29.1 16.9 28.7 17.4 28.2 17.2C27.7 17.2 27.2 17.3 26.7 17.5C26.2 17.6 25.6 17.6 25.1 17.9C24.9 18 24.6 18 24.3 18C24 18 23.7 18 23.5 18.3C23.4 18.4 23.2 18.4 23.1 18.5C23 18.6 22.8 18.6 22.7 18.6C22.4 18.7 22.1 18.8 21.8 18.9C21.1 18.9 20.6 19.3 20 19.6C19.3 19.6 18.7 20 18.2 20.5C17.4 20.5 16.8 21 16.5 21.7C16.4 21.8 16.2 21.9 16.1 22C16 22.1 15.8 22.2 15.7 22.3C15.6 22.4 15.5 22.5 15.3 22.7C15.2 22.8 15.1 23 15 23.2C14.6 23.8 14.4 24.4 14.3 25.1C14.4 25.4 14.5 25.7 14.5 26.1C14.6 26.4 14.6 26.8 14.7 27.1C15 27.4 15.2 27.6 15.4 27.9C15.6 28.2 15.9 28.5 16.1 28.8C16.4 29.1 16.7 29.3 17.1 29.5L17.4 29.6C17.4 29.6 17.4 29.6 17.5 29.6C17.9 29.5 18.4 29.3 18.8 29.2C19.2 29.1 19.7 29 20.2 28.9C20.4 28.9 20.7 28.8 20.9 28.8C21.1 28.8 21.4 28.7 21.6 28.7C22.1 28.6 22.5 28.5 23 28.3C23.5 28.2 23.9 28.1 24.4 28C24.6 28 24.9 27.9 25.1 27.9C25.3 27.9 25.6 27.9 25.8 27.9C26.3 27.7 26.8 27.6 27.2 27.6C27.7 27.6 28.2 27.6 28.7 27.6C29.7 27.5 30.7 27.6 31.7 27.4C32.2 27.4 32.7 27.4 33.2 27.3C33.7 27.3 34.2 27.3 34.7 27.3C35.2 27.4 35.7 27.4 36.2 27.4C36.7 27.4 37.2 27.4 37.7 27.4C38.7 27.3 39.7 27.6 40.7 27.6C41.2 27.8 41.7 27.8 42.2 27.8C42.7 27.8 43.2 27.8 43.7 27.9C43.9 27.9 44.2 28 44.4 28C44.6 28.1 44.9 28.1 45.1 28.2C45.6 28.3 46 28.4 46.5 28.4C47 28.5 47.4 28.5 47.9 28.6C48.1 28.6 48.4 28.7 48.6 28.8C48.8 28.9 49.1 28.9 49.3 29C49.8 28.9 50.3 29.1 50.7 29.2C51.1 29.4 51.5 29.6 52 29.7C52 29.7 52.1 29.7 52.1 29.6L52.3 29.4C52.6 29.1 52.9 28.9 53.2 28.6C53.5 28.3 53.8 28.1 54.1 27.8C54.4 27.5 54.6 27.2 54.7 26.9C54.9 26.6 55 26.3 55 25.9C55.1 25.6 55.1 25.3 55.1 24.9C55 24.6 54.9 24.3 54.8 23.9C54.8 23.8 54.8 23.7 54.7 23.7C54.7 23.6 54.6 23.5 54.6 23.5C54.5 23.3 54.4 23.2 54.3 23.1C53.9 22.5 53.4 22.1 52.9 21.6C52.7 21.3 52.4 21 52.1 20.9C52 20.9 51.9 20.8 51.9 20.8L51.7 20.7C51.5 20.6 51.4 20.6 51.2 20.5C50.6 20.1 49.9 20 49.4 19.6C48.8 19.3 48.2 19 47.6 18.9C47.3 18.8 47 18.6 46.8 18.5C46.7 18.4 46.5 18.4 46.4 18.3C46.3 18.3 46.1 18.3 45.9 18.3C45.6 18.3 45.3 18.1 45.1 18C44.8 17.9 44.6 17.8 44.3 17.9C43.7 18 43.2 17.7 42.7 17.5C42.2 17.4 41.7 17.3 41.2 17.2C39.1 16.8 37.4 16.7 36.3 16.6C35.7 16.5 35.3 16.5 35 16.5C35 16.3 34.9 16.3 34.9 16.3C34.9 16.3 35.1 16.2 35.5 16.2C35.9 16.2 36.4 16.1 37.1 16.1C37.5 16.1 37.9 16.1 38.3 16.1C38.7 16.1 39.2 16.1 39.7 16.2C40.7 16.3 41.9 16.4 43.2 16.6C43.7 16.7 44.3 16.6 44.8 16.9C45.1 17 45.4 17 45.7 17C46 17 46.3 17.1 46.6 17.3C46.8 17.3 46.9 17.3 47.1 17.3C47.3 17.3 47.4 17.4 47.6 17.4C47.9 17.5 48.2 17.7 48.5 17.8C49.1 18 49.7 18.3 50.4 18.5C51.1 18.6 51.7 19.2 52.4 19.4C53 19.9 53.6 20.3 54.4 20.7C54.5 20.9 54.7 21 54.8 21.1C54.9 21.2 55.1 21.4 55.3 21.5C55.5 21.6 55.6 21.8 55.8 21.9C55.9 22.1 56.1 22.2 56.2 22.4C56.3 22.6 56.4 22.8 56.5 23C56.5 23.1 56.6 23.2 56.6 23.3C56.7 23.4 56.7 23.5 56.7 23.6C56.9 24 57.1 24.4 57.2 24.9C57.3 25.4 57.3 25.9 57.2 26.4C57.1 26.9 56.9 27.3 56.7 27.8C56.2 28.6 55.6 29.4 54.9 30C54.6 30.4 54.2 30.7 53.8 31H53.3C53.1 31.1 52.9 31.2 52.8 31.3L52.5 31.4C52.4 31.4 52.3 31.3 52.2 31.3L51.9 31.2L51.8 31.3C51.8 31.3 51.7 31.3 51.7 31.2C51.3 31.1 50.8 31 50.4 30.9C50 30.8 49.5 30.7 49.1 30.6C48.9 30.6 48.7 30.5 48.4 30.5C48.2 30.5 48 30.4 47.7 30.4C47.3 30.3 46.8 30.2 46.4 30.1C45.9 30.1 45.5 29.9 45 29.8C44.8 29.7 44.5 29.7 44.3 29.7C44.1 29.7 43.8 29.7 43.6 29.7C43.1 29.7 42.7 29.6 42.2 29.5C41.7 29.4 41.2 29.4 40.8 29.4C39.8 29.3 38.9 29.2 37.9 29.2C37.4 29 36.9 29 36.4 29C35.9 29 35.4 29.1 34.9 29.1C34.4 29.1 33.9 29.2 33.4 29.2C32.9 29.2 32.4 29.2 31.9 29.2C30.9 29.3 29.9 29.3 29 29.4C28.5 29.5 28 29.5 27.6 29.5C27.1 29.5 26.6 29.6 26.2 29.7C26 29.8 25.7 29.8 25.5 29.8C25.3 29.8 25 29.9 24.8 29.9C24.3 29.9 23.9 30 23.4 30.1C23 30.2 22.5 30.4 22.1 30.4C21.9 30.4 21.7 30.5 21.4 30.5C21.2 30.5 21 30.6 20.7 30.6C20.3 30.7 19.8 30.8 19.4 30.8C19 30.9 18.5 31 18.2 31.3L17.6 31.5C17.5 31.5 17.4 31.6 17.3 31.6L17 31.5C16.8 31.4 16.6 31.3 16.5 31.2L16.2 31L16 30.9C15.6 30.7 15.2 30.4 15 29.9C14.6 29.6 14.3 29.2 14 28.9C13.7 28.5 13.5 28.1 13.2 27.7C13.1 27.2 12.9 26.8 12.8 26.3C12.7 25.8 12.6 25.3 12.6 24.8C12.7 24.3 12.8 23.9 13 23.4C13 23.3 13.1 23.2 13.1 23.1C13.2 23 13.2 22.9 13.3 22.8C13.4 22.6 13.5 22.4 13.6 22.2C13.7 22 13.8 21.8 14 21.7C14.1 21.5 14.3 21.4 14.5 21.2C14.7 21.1 14.8 20.9 15 20.8C15.2 20.7 15.3 20.6 15.5 20.4C15.8 20.1 16.1 19.9 16.5 19.7C16.6 19.7 16.7 19.6 16.8 19.6C16.9 19.6 17 19.5 17.1 19.5C17.3 19.4 17.4 19.3 17.6 19.2C18.3 18.9 18.9 18.5 19.6 18.3C20.1 17.7 20.9 17.8 21.5 17.6C21.8 17.5 22.1 17.4 22.4 17.2C22.5 17.1 22.7 17.1 22.9 17C23.1 17 23.2 17 23.4 17C23.7 16.8 24 16.7 24.3 16.7C24.6 16.7 24.9 16.7 25.2 16.7C25.8 16.7 26.3 16.3 26.8 16.4C27.3 16.1 27.8 16.3 28.3 16.2C28.8 16.3 29.2 16.1 29.7 16.1C30.1 16 30.5 16 30.9 16C31.3 16 31.6 16 32 16C33.8 16 34.9 16.2 34.9 16.3Z" fill="#73523F"/>
<path d="M34.9 28.1C34.9 28.2 33.7 28.3 31.6 28.5C31.2 28.5 30.9 28.6 30.5 28.6C30.1 28.7 29.7 28.7 29.2 28.7C28.7 28.6 28.3 29.1 27.8 28.9C27.3 28.9 26.8 29 26.2 29.1C25.7 29.2 25.1 29.2 24.5 29.4C24 29.8 23.2 29.3 22.7 29.8C22.4 29.9 22.1 30 21.7 30.1C21.4 30.2 21 30.2 20.7 30.3C20.3 30.3 20 30.4 19.7 30.5C19.4 30.6 19 30.8 18.7 30.9C17.9 30.9 17.2 31.2 16.6 31.6C15.8 31.5 15 31.9 14.5 32.5C13.8 32.8 13 33.1 12.5 33.7C11.9 34.2 11.3 34.7 10.8 35.3C10.7 35.7 10.5 36 10.4 36.3C10.3 36.5 10.3 36.6 10.2 36.8C10.2 36.9 10.2 37 10.1 37V37.2C10.2 37.5 10.4 37.8 10.5 38.2C10.6 38.5 10.8 38.9 11 39.2C11.2 39.6 11.6 39.8 11.9 40C12.3 40.2 12.7 40.5 13 40.8L13.3 41L13.4 41.1H13.6C14.1 41 14.6 40.9 15.1 40.8C15.6 40.7 16.1 40.7 16.6 40.6C17.1 40.5 17.6 40.4 18.1 40.2C18.6 40.1 19.1 40 19.6 39.9C19.9 39.9 20.1 39.8 20.4 39.8C20.7 39.8 20.9 39.8 21.2 39.8C21.7 39.6 22.2 39.5 22.7 39.4C23 39.4 23.2 39.4 23.5 39.4C23.8 39.4 24 39.4 24.3 39.4C24.8 39.3 25.4 39.3 25.9 39.3C26.4 39.3 27 39.3 27.5 39.1C28 39.1 28.6 39 29.1 39C29.6 39 30.2 38.9 30.7 39C31.8 39 32.9 39.1 34 38.9C34.3 38.9 34.5 38.8 34.8 38.8C35.1 38.8 35.3 38.8 35.6 38.8C36.1 38.8 36.7 38.9 37.2 38.9C37.8 39 38.3 39 38.8 39C39.3 39 39.9 38.9 40.4 39C41.4 39 42.5 39.3 43.5 39.2H44L44.1 39.1V39C44.2 38.9 44.3 38.8 44.4 38.7C44.5 38.6 44.6 38.5 44.7 38.4C44.8 38.3 44.9 38.2 45 38.1C45.1 38 45.1 37.8 45.2 37.7C45.3 37.6 45.4 37.5 45.5 37.4C45.6 37.3 45.7 37.2 45.8 37.1C45.9 37 46 37 46.2 36.9L46.6 36.7C46.7 36.6 46.8 36.6 47 36.5C47.2 36.4 47.5 36.3 47.7 36.1C48 36 48.2 35.9 48.4 35.8C48.6 35.7 48.9 35.6 49.1 35.5C49.3 35.4 49.6 35.3 49.8 35.2C50 35.1 50.3 35.1 50.5 35C50.7 34.9 51 34.9 51.2 34.9H51.6C51.7 34.9 51.8 34.9 52 34.9C52.2 34.9 52.5 34.9 52.7 34.9C52.9 34.9 53.2 34.9 53.4 34.8C53.6 34.8 53.9 34.8 54.1 34.8H55.4C55.4 34.8 55.5 34.8 55.6 34.9C55.6 34.9 55.6 34.9 55.6 34.8V34.7C55.6 34.7 55.6 34.7 55.6 34.6C55.7 34.4 55.7 34.2 55.8 33.9C55.9 33.7 55.9 33.5 55.9 33.2L56 32.9V32.6C55.9 32.6 55.9 32.5 55.8 32.5H55.7L55.4 32.4C55.1 32.1 54.8 31.9 54.4 31.8C54.2 31.7 54 31.7 53.8 31.6C53.6 31.5 53.4 31.5 53.2 31.4C52.9 31.3 52.5 31.2 52.1 31.1C51.7 31 51.4 30.9 51.1 30.7C50.8 30.6 50.4 30.5 50.1 30.3C49.8 30.2 49.4 30.1 49.1 30.1C48.8 30 48.5 29.9 48.1 29.7C47.8 29.6 47.5 29.5 47.1 29.6C46.8 29.6 46.5 29.4 46.2 29.3C45.9 29.2 45.6 29.1 45.3 29.2C44.7 29.4 44.1 29 43.6 28.9C43.1 28.8 42.5 28.7 42 28.7C37.5 28.3 34.9 28.3 34.9 28.1C34.9 28.1 35.1 28 35.5 28C35.9 28 36.5 27.9 37.2 27.9C38.7 27.9 41 27.9 43.8 28.2C44.4 28.3 45 28.1 45.6 28.4C45.9 28.5 46.2 28.5 46.5 28.5C46.8 28.5 47.1 28.6 47.5 28.7C47.9 28.6 48.2 28.7 48.5 28.8C48.8 28.9 49.2 29 49.5 29.1C49.8 29.2 50.2 29.3 50.5 29.4C50.8 29.5 51.2 29.6 51.6 29.6C52 29.6 52.3 29.8 52.7 29.9C53.1 30 53.4 30.2 53.8 30.3C54 30.4 54.1 30.5 54.3 30.6C54.5 30.7 54.7 30.8 54.9 30.9C55.3 31 55.7 31.2 56.1 31.3C56.2 31.4 56.3 31.4 56.4 31.5L56.8 31.7C57.1 31.9 57.4 32 57.7 32.1L57.8 32.2H57.9C57.9 32.2 57.9 32.2 57.9 32.3L57.8 32.5C57.8 32.7 57.7 32.8 57.7 33L57.6 33.5V33.8C57.5 34 57.4 34.2 57.4 34.4C57.4 34.6 57.3 34.8 57.3 35V35.2C57.3 35.3 57.3 35.4 57.3 35.5C57.3 35.7 57.3 35.9 57.3 36.1C57.3 36.3 57.3 36.5 57.3 36.7V37H57C56.6 37 56.2 36.9 55.9 36.8C55.8 36.8 55.7 36.8 55.6 36.7H54.8C54.7 36.7 54.6 36.7 54.5 36.7C54.3 36.7 54.1 36.7 53.9 36.7C53 36.6 52.2 36.9 51.3 37C50.5 37.3 49.7 37.6 48.8 37.9C48.1 38.4 47.3 38.8 46.7 39.5C46.6 39.6 46.6 39.7 46.5 39.8C46.4 39.9 46.4 40 46.3 40.1C45.8 39.9 45.8 39.9 45.7 40C45.7 40 45.7 40.1 45.6 40.1L45.5 40.2L45.3 40.5L45 41C45 41.1 44.9 41 44.9 41H43.7C43.6 41 43.4 41 43.3 41C42.3 41 41.3 40.6 40.3 40.8C39.8 40.8 39.3 40.8 38.8 40.7C38.3 40.7 37.8 40.7 37.2 40.7C36.7 40.7 36.2 40.6 35.6 40.6C35.3 40.6 35.1 40.6 34.8 40.6C34.5 40.6 34.3 40.6 34 40.7C32.9 40.4 31.9 40.6 30.8 40.8C30.3 40.9 29.7 40.9 29.2 40.9C28.7 40.9 28.1 40.9 27.6 41C27.1 41.1 26.5 41.1 26 41.1C25.5 41.1 25 41.2 24.4 41.2C24.1 41.2 23.9 41.3 23.6 41.3C23.3 41.3 23.1 41.3 22.8 41.4C22.3 41.4 21.8 41.5 21.3 41.6C21.1 41.7 20.8 41.7 20.5 41.7C20.2 41.7 20 41.8 19.7 41.8C19.2 41.8 18.7 41.9 18.2 42C17.7 42.1 17.2 42.3 16.7 42.4C16.2 42.5 15.7 42.6 15.2 42.6C14.7 42.7 14.2 42.8 13.8 42.8H13.6L13 43H12.8L12.7 42.9C12.5 42.8 12.4 42.7 12.2 42.6H12C11.9 42.6 11.9 42.6 11.8 42.5C11.4 42.3 10.9 42 10.4 41.7C10 41.4 9.6 41 9.4 40.5C9.2 40 9 39.6 8.8 39C8.6 38.5 8.5 37.9 8.4 37.4C8.4 37.3 8.4 37.3 8.4 37.2C8.4 37.1 8.4 37.1 8.4 37C8.4 36.9 8.5 36.7 8.5 36.6C8.6 36.3 8.6 36.1 8.7 35.8C8.8 35.3 9.1 34.8 9.4 34.4C10.1 33.6 10.8 33.1 11.5 32.5C12.2 31.9 13 31.6 13.8 31.2C14 31.1 14.2 31 14.3 30.9C14.5 30.8 14.7 30.8 14.9 30.7C15.3 30.6 15.7 30.5 16 30.3C16.8 30.1 17.5 29.8 18.2 29.6C18.5 29.3 18.9 29.2 19.2 29.2C19.6 29.2 19.9 29.2 20.3 29.1C20.6 29 21 28.9 21.3 28.8C21.6 28.7 22 28.6 22.3 28.7C22.9 28.3 23.6 28.4 24.2 28.4C24.8 28.4 25.4 28.1 26 28.2C26.5 27.9 27.1 28.2 27.6 28.1C28.1 28.2 28.6 28 29.1 28C29.6 27.9 30 27.9 30.4 28C30.8 28 31.2 28 31.6 28C33.7 27.9 34.9 28 34.9 28.1Z" fill="#73523F"/>
<path d="M52.2 53.4C52.2 53.5 52.1 53.6 52.1 53.7C52 54 52.1 53.6 52.1 53.7C52 54 52.2 53.4 52.1 53.7C52.1 53.8 52.1 53.8 52.1 53.7C52.1 53.6 52.2 53.4 52.1 53.7C52.2 53.4 52.2 53.4 52.1 53.7C52 53.9 52 53.9 52.1 53.7C52 53.9 52.1 53.8 52.1 53.7C52 53.9 52.1 53.6 52.1 53.7C52.1 53.5 52.1 53.6 52.1 53.7C52.1 53.8 52.1 53.8 52.1 53.7C52 54 52.1 53.8 52.1 53.7C52.2 53.1 52.4 52.6 52.5 52C52.5 52.1 52.5 52.2 52.5 52C52.5 51.8 52.5 52.1 52.5 52C52.4 52.3 52.5 51.9 52.5 52C52.5 52.1 52.6 51.6 52.5 52C52.5 51.9 52.5 52.2 52.5 52C52.5 52.2 52.6 51.8 52.5 52C52.4 52.3 52.5 52.1 52.5 52C52.4 52.3 52.5 51.9 52.5 52C52.3 53.1 52.2 53.3 52.2 53.4C52.1 53.6 52.1 53.8 52 53.9C52 53.8 52 54.1 52 53.9C52 53.7 52 53.8 52 53.9C52 53.8 52.1 53.6 52 53.9C52 53.8 52 54 52 53.9C51.9 54.1 52 54 52 53.9C52 54 52.1 53.6 52 53.9C52 53.8 52.1 53.6 52 53.9C52.2 53.3 52.3 52.7 52.5 52.1C52.5 52 52.5 52 52.5 52.1C52.5 52 52.6 51.7 52.5 52.1C52.5 52 52.5 52.3 52.5 52.1C52.5 52.2 52.5 52.3 52.5 52.1C52.5 52 52.5 52.2 52.5 52.1C52.5 51.9 52.5 52.3 52.5 52.1C52.5 52.2 52.6 51.8 52.5 52.1C52.5 52 52.5 52.2 52.5 52.1C52.5 52.2 52.6 51.9 52.5 52.1C52.2 53.2 52.2 53.3 52.2 53.4Z" fill="#73523F"/>
<path d="M34.9 39.7C34.9 39.8 33.5 39.9 31 40.1C30.6 40.1 30.1 40.2 29.7 40.2C29.2 40.3 28.7 40.3 28.2 40.3C27.7 40.2 27.1 40.6 26.5 40.5C25.9 40.5 25.3 40.6 24.6 40.7C24 40.8 23.3 40.7 22.6 41C21.9 41.4 21.1 40.9 20.4 41.3C19.7 41.5 18.9 41.6 18.1 41.7C17.3 41.6 16.5 42 15.7 42.2C14.8 42.1 14 42.4 13.2 42.8C12.3 42.7 11.4 43 10.6 43.6C9.7 43.9 8.8 44.1 8 44.6C7.1 45 6.3 45.4 5.4 45.9C4.6 46.5 3.8 47 3 47.5C2.7 47.9 2.5 48.3 2.2 48.6C2 49 1.8 49.4 1.7 49.8C1.6 50 1.6 50.2 1.7 50.4C1.7 50.6 1.8 50.8 1.9 51C2 51.2 2.1 51.4 2.2 51.6C2.3 51.8 2.4 52 2.6 52.2C2.9 52.6 3.3 52.9 3.7 53.2C4.1 53.5 4.6 53.8 5 54.1C5.9 54.8 6.9 55.4 8 55.6C9.1 56 10.2 56.3 11.3 56.7C12.5 56.8 13.6 57.2 14.8 57.6C16 57.8 17.1 58.3 18.4 58.3C19.6 58.6 20.9 58.6 22.1 58.9C23.3 59.1 24.6 59.4 25.8 59.3C27 59.2 28.2 59.6 29.5 59.6C30.7 59.9 31.9 59.6 33.1 59.7C33.7 59.7 34.3 59.7 34.9 59.8C35.5 59.8 36.1 59.8 36.7 59.7C37.3 59.7 37.9 59.6 38.4 59.6C38.7 59.6 39 59.6 39.3 59.6C39.6 59.6 39.9 59.6 40.2 59.6C40.8 59.4 41.3 59.4 41.9 59.4C42.2 59.4 42.5 59.4 42.7 59.5C42.8 59.5 43 59.5 43.1 59.5C43.2 59.5 43.4 59.5 43.5 59.5C44.6 59.6 45.7 59.3 46.8 59.2C47.3 59.1 47.9 59.1 48.4 59C48.7 59 48.9 59 49.2 58.9H49.4C49.4 58.9 49.5 58.9 49.5 58.8H49.6V58.2C49.6 58.1 49.6 57.9 49.6 57.8C49.6 57.7 49.6 57.5 49.7 57.4C49.7 57.3 49.7 57.1 49.8 57C49.8 56.9 49.9 56.7 49.9 56.6C49.9 56.5 49.9 56.3 49.9 56.2C49.9 56.1 50 55.9 50 55.8C50.1 55.5 50.2 55.3 50.3 55C50.4 54.9 50.4 54.8 50.5 54.6C50.6 54.5 50.6 54.4 50.7 54.2C50.8 54.1 50.8 54 50.9 53.8C50.9 53.7 51 53.7 51 53.6C50.9 53.6 50.8 53.5 50.7 53.5C50.5 53.4 50.4 53.4 50.2 53.3C50 53.2 49.9 53.1 49.7 53.1C49.3 52.7 48.9 52.5 48.5 52.3C48.1 52.1 47.7 51.8 47.3 51.6C46.9 51.3 46.6 51 46.2 50.7C45.9 50.4 45.5 50 45.3 49.6C45.2 49.4 45 49.2 44.9 49C44.8 48.8 44.7 48.6 44.6 48.4C44.4 48 44.2 47.6 44 47.3C43.8 46.9 43.8 46.5 43.7 46.1C43.7 45.9 43.7 45.7 43.6 45.5C43.6 45.3 43.5 45.1 43.3 44.9C43.3 44.8 43.3 44.7 43.3 44.6C43.3 44.5 43.3 44.4 43.3 44.3C43.3 44.1 43.3 43.9 43.4 43.7C43.4 43.5 43.5 43.3 43.5 43.1C43.5 42.9 43.5 42.7 43.5 42.5C43.5 42.3 43.5 42.1 43.5 41.9C43.5 41.7 43.6 41.5 43.7 41.4L43.8 41.3V41.2L43.9 41.1C44 41 44 40.9 44.1 40.9C44.1 40.8 44.2 40.7 44.3 40.6H44.2C44.1 40.6 44.1 40.6 44 40.6C43.9 40.6 43.8 40.6 43.6 40.6C42.3 40.5 41.2 40.4 40.1 40.3C39.1 40.2 38.2 40.2 37.5 40.1C35.6 39.9 34.9 39.8 34.9 39.7C34.9 39.6 35.8 39.5 37.5 39.5C37.9 39.5 38.4 39.5 38.9 39.5C39.4 39.5 40 39.5 40.6 39.5C41.2 39.5 41.9 39.5 42.5 39.6C42.9 39.6 43.3 39.6 43.8 39.7C44.1 39.7 44.3 39.7 44.6 39.7C44.7 39.7 44.9 39.7 45 39.7H45.3C45.3 39.7 45.3 39.7 45.4 39.7C45.3 39.9 45.1 40.2 45 40.5C44.9 40.7 44.8 41 44.7 41.2C44.7 41.3 44.6 41.4 44.6 41.6V41.9C44.6 42.1 44.5 42.2 44.5 42.4C44.5 42.6 44.4 42.7 44.3 42.9C44.3 43.1 44.3 43.2 44.3 43.4C44.3 43.6 44.3 43.7 44.3 43.9C44.3 44.1 44.3 44.2 44.3 44.4C44.3 44.5 44.3 44.6 44.3 44.7C44.3 44.8 44.3 44.9 44.3 45C44.4 45.2 44.5 45.3 44.5 45.5C44.6 45.7 44.6 45.8 44.6 46C44.7 46.4 44.7 46.7 44.9 47.1C45.2 47.8 45.5 48.5 46.1 49.1C46.4 49.4 46.7 49.7 46.9 50C47.2 50.3 47.5 50.6 47.8 50.8C48.4 51.5 49.1 51.9 50 52.2C50.1 52.3 50.3 52.4 50.4 52.5C50.5 52.5 50.6 52.6 50.6 52.6H50.7C50.7 52.6 50.8 52.6 50.8 52.7C51.1 52.8 51.4 52.9 51.6 53C51.9 53.1 52.2 53.2 52.5 53.3C52.3 53.7 52.1 54.1 51.9 54.5C51.8 54.6 51.8 54.7 51.7 54.8L51.6 54.9C51.5 55 51.5 55.1 51.4 55.2C51.3 55.3 51.3 55.4 51.3 55.5C51.3 55.6 51.2 55.7 51.2 55.8C51.1 56 51.1 56.3 51.1 56.5C51.1 56.6 51.1 56.7 51.1 56.9V57.3C51.1 57.4 51.1 57.5 51.1 57.7C51.1 57.8 51.1 57.9 51.1 58.1V58V58.8C51.1 59 51.1 59.3 51.1 59.5C51.1 59.7 51.1 60 51.1 60.2H50.8L50.5 60.3C50.3 60.3 50 60.4 49.8 60.4C49.6 60.4 49.5 60.4 49.3 60.5C49 60.5 48.8 60.6 48.5 60.6C48 60.7 47.4 60.8 46.9 60.8C45.8 61 44.7 61.2 43.6 61.1C43.5 61.1 43.3 61.1 43.2 61.2C43.1 61.2 42.9 61.2 42.8 61.2C42.5 61.2 42.2 61.2 41.9 61.2C41.3 61.2 40.8 61.2 40.2 61.3C39.9 61.3 39.6 61.4 39.3 61.4C39 61.4 38.7 61.4 38.4 61.4C37.8 61.4 37.2 61.4 36.6 61.4C36 61.4 35.4 61.4 34.8 61.3C34.2 61.3 33.6 61.2 33 61.4C31.8 61.4 30.6 61.3 29.3 61.3C28.1 61.2 26.8 61.1 25.6 61C24.4 60.6 23.1 60.6 21.8 60.6C20.5 60.5 19.3 60.3 18 60C16.8 59.8 15.5 59.5 14.3 59.3C13.1 59.1 11.9 58.6 10.7 58.3C9.5 58.1 8.4 57.4 7.3 57.1C6.2 56.7 5 56.2 4.1 55.5C3.6 55.2 3.1 54.8 2.7 54.4C2.2 54 1.8 53.6 1.3 53.2C1.1 53 0.9 52.7 0.7 52.4C0.5 52.1 0.3 51.8 0.2 51.5C0.1 51.2 0 50.8 0 50.5C0 50.1 0.1 49.8 0.2 49.5C0.2 49.2 0.3 48.8 0.5 48.5C0.4 48.2 0.6 48 0.8 47.7C1.2 47.2 1.6 46.8 1.9 46.3C2.4 46 2.9 45.7 3.3 45.3C3.7 45 4.2 44.6 4.6 44.4C5.6 43.9 6.5 43.6 7.4 43.1C8.3 42.6 9.3 42.5 10.2 42.1C11.1 41.6 12.1 41.8 12.9 41.4C13.8 41.2 14.6 41 15.5 40.8C16.3 40.2 17.2 40.5 18 40.4C18.8 40.3 19.5 39.9 20.3 40.1C21 39.7 21.8 39.9 22.5 39.9C23.2 39.9 23.9 39.6 24.5 39.7C25.1 39.4 25.8 39.7 26.4 39.6C27 39.7 27.6 39.5 28.1 39.5C28.6 39.4 29.1 39.4 29.6 39.5C30.1 39.5 30.5 39.5 30.9 39.5C33.5 39.5 34.9 39.6 34.9 39.7Z" fill="#73523F"/>
<path d="M27.8 56.7C27.8 56.6 28 56.5 28.3 56.4C28.4 56.4 28.4 56.4 28.5 56.4C28.6 56.4 28.6 56.3 28.7 56.4C28.8 56.5 28.8 56.1 28.9 56.4C29 56.5 29 56.4 29.1 56.4C29.2 56.3 29.3 56.5 29.3 56.4C29.4 56.1 29.5 56.7 29.6 56.4C29.7 56.3 29.8 56.3 29.9 56.4C30 56.6 30.1 56.4 30.2 56.4C30.3 56.7 30.4 56.5 30.5 56.4C30.6 56.8 30.7 56.7 30.8 56.4C30.9 56.4 31 56.5 31.1 56.4C31.2 56.4 31.3 56.3 31.5 56.4C31.6 56.2 31.7 56.2 31.9 56.4C32 56.1 32.1 56.2 32.3 56.4C32.4 56.5 32.6 56.2 32.7 56.4C32.8 56.4 33 56.3 33.1 56.4C33.2 56.5 33.4 56.6 33.5 56.4C33.6 56.3 33.8 56.2 33.9 56.4C34 56.1 34.2 56.2 34.3 56.4C34.4 56.3 34.6 56.5 34.7 56.4C34.8 56.4 35 56.3 35.1 56.4C35.3 56.5 35.4 56.6 35.5 56.4C35.6 56.2 35.8 56.5 35.9 56.4C36.1 56.6 36.2 56.3 36.3 56.4C36.4 56.4 36.6 56.5 36.7 56.4C36.8 56.3 37 56.3 37.1 56.4C37.2 56 37.4 56.5 37.5 56.4C37.6 56.6 37.8 56.4 37.9 56.4C38 56.3 38.2 56.6 38.3 56.4C38.4 56.4 38.5 56.3 38.7 56.4C38.8 56.2 39 56.6 39.1 56.4C39.2 56.4 39.3 56.4 39.4 56.4C39.5 56.7 39.6 56.4 39.7 56.4C39.8 56.4 39.9 56.2 40 56.4C40.1 56.4 40.2 56.5 40.3 56.4C40.4 56.3 40.5 56.8 40.6 56.4C40.7 56.3 40.8 56.7 40.9 56.4C41 56.1 41.1 56.4 41.1 56.4C41.2 56.4 41.3 56.4 41.3 56.4C41.9 56.5 42.3 56.6 42.3 56.8C42.3 57 41.9 57.2 41.1 57.4C41 57.4 41 57.6 40.9 57.5C40.8 57.5 40.7 57.7 40.6 57.6C40.5 57.9 40.4 57.7 40.3 57.7C40.2 57.7 40.1 57.6 40 57.8C39.9 58 39.8 57.7 39.7 57.9C39.6 57.7 39.5 57.8 39.4 58C39.3 57.8 39.2 58.1 39.1 58.1C39 57.8 38.9 58 38.7 58.1C38.6 58.2 38.5 58.1 38.3 58.1C38.2 58.1 38 58.2 37.9 58.1C37.8 58.2 37.6 58.3 37.5 58.1C37.4 58.2 37.2 58.1 37.1 58.1C37 58.2 36.8 58.1 36.7 58.1C36.6 58.2 36.4 57.8 36.3 58.1C36.2 58.1 36 58.1 35.9 58.1C35.8 58.1 35.6 58 35.5 58.1C35.3 57.8 35.2 58 35 58.1C34.9 58.2 34.7 58.1 34.5 58.1C34.4 58.1 34.2 58.1 34.1 58.1C34 58.2 33.8 58 33.7 58.1C33.6 58.2 33.4 58 33.3 58.1C33.2 58.2 33 58.2 32.9 58.1C32.8 58.1 32.6 57.8 32.5 58.1C32.4 58.2 32.2 58.5 32.1 58.1C32 58.2 31.8 57.9 31.7 58.1C31.6 57.8 31.4 58.1 31.3 58.1C31.2 58 31.1 57.9 30.9 58.1C30.8 58.2 30.7 58 30.6 58.1C30.5 58.3 30.4 57.9 30.3 58.1C30.2 58.1 30.1 58.1 30 58.1C29.9 58.5 29.8 58.1 29.7 58.1C29.6 58 29.5 58.4 29.4 58.1C29.3 58.4 29.2 58.1 29.1 58.1C29 58 28.9 58.2 28.9 58.1C28.8 58.3 28.7 58 28.7 58.1C28.6 58 28.6 58.1 28.5 58.1C28.4 58.1 28.4 58.1 28.3 58.1C28.2 58.1 28.2 58.1 28.1 58.1C28 57 27.8 56.9 27.8 56.7Z" fill="#73523F"/>
<path d="M47.5 33.5C47.5 33.6 47.3 33.7 47.1 33.7H46.9C46.9 33.5 46.7 33.9 46.8 33.7C46.8 33.6 46.7 33.7 46.7 33.7C46.6 33.7 46.6 33.6 46.5 33.7C46.4 34 46.5 33.4 46.3 33.7C46.2 33.8 46.2 33.7 46.1 33.7C46.1 33.5 46 33.7 45.9 33.7C45.9 33.4 45.8 33.5 45.7 33.7C45.7 33.3 45.7 33.4 45.5 33.7C45.4 33.7 45.4 33.5 45.3 33.7C45.2 33.7 45.1 33.8 45.1 33.7C45 33.9 44.9 33.9 44.9 33.7C44.8 33.9 44.7 33.8 44.7 33.7C44.7 33.5 44.5 33.9 44.5 33.7C44.4 33.7 44.3 33.7 44.2 33.7C44.1 33.6 44.1 33.4 43.9 33.7C43.8 33.7 43.7 33.8 43.6 33.7C43.5 34 43.4 33.8 43.3 33.7C43.2 33.7 43.1 33.5 43 33.7C42.9 33.6 42.8 33.8 42.7 33.7C42.6 33.6 42.5 33.5 42.4 33.7C42.3 33.9 42.2 33.6 42.1 33.7C42 33.4 41.9 33.8 41.8 33.7C41.7 33.7 41.6 33.5 41.5 33.7C41.4 33.7 41.3 33.8 41.2 33.7C41.1 34.1 41 33.6 40.9 33.7C40.8 33.5 40.7 33.7 40.7 33.7C40.6 33.8 40.6 33.5 40.5 33.7C40.4 33.7 40.3 33.8 40.3 33.7C40.2 33.9 40.2 33.5 40.1 33.7C40 33.7 40 33.7 39.9 33.7C39.8 33.4 39.8 33.6 39.7 33.7C39.6 33.7 39.6 33.9 39.5 33.7C39.4 33.7 39.4 33.5 39.3 33.7C39.2 33.7 39.2 33.2 39.1 33.7C39 33.8 39 33.4 38.9 33.7C38.8 34 38.8 33.7 38.7 33.7H38.6C38.2 33.6 38 33.4 38 33.2C38 33 38.3 32.9 38.8 32.7C38.9 32.7 38.9 32.5 39 32.7C39.1 32.7 39.1 32.5 39.2 32.7C39.3 32.4 39.3 32.6 39.4 32.7C39.5 32.7 39.5 32.8 39.6 32.7C39.7 32.5 39.7 32.8 39.8 32.7C39.9 32.9 39.9 32.8 40 32.7C40.1 32.9 40.1 32.7 40.2 32.7C40.3 33 40.3 32.8 40.4 32.7C40.5 32.6 40.6 32.7 40.6 32.7C40.7 32.8 40.8 32.6 40.9 32.7C41 32.6 41.1 32.5 41.2 32.7C41.3 32.6 41.4 32.7 41.5 32.7C41.6 32.6 41.7 32.7 41.8 32.7C41.9 32.7 42 33 42.1 32.7C42.2 32.7 42.3 32.8 42.4 32.7C42.5 32.8 42.6 32.8 42.7 32.7C42.8 33 42.9 32.8 43 32.7C43.1 32.6 43.2 32.7 43.3 32.7C43.4 32.7 43.5 32.7 43.6 32.8C43.7 32.7 43.8 33 43.9 32.9C44 32.8 44.1 33.1 44.2 33C44.3 32.9 44.4 32.9 44.5 33.1C44.6 33.1 44.6 33.4 44.8 33.2C44.9 33.2 45.1 32.9 45.1 33.3C45.2 33.2 45.2 33.5 45.3 33.4C45.3 33.7 45.5 33.5 45.5 33.5C45.6 33.6 45.6 33.7 45.7 33.6C45.8 33.5 45.8 33.7 45.9 33.7C46 33.6 46 34 46.1 33.8C46.2 33.9 46.2 33.8 46.3 33.9C46.5 33.5 46.4 33.9 46.5 34C46.5 34.1 46.7 33.8 46.7 34.1C46.9 33.8 46.8 34.1 46.9 34.2C46.9 34.3 47 34.1 47 34.3C47.1 34.1 47.1 34.4 47.1 34.4C47.1 34.5 47.2 34.4 47.2 34.5C47.3 34.5 47.3 34.5 47.3 34.6L47.4 34.7C47.5 33.3 47.6 33.4 47.5 33.5Z" fill="#73523F"/>
<path d="M24 13.6C23.9 13.5 23.9 13.4 24 13.1V13C24 12.9 24 12.9 24 12.9C24.1 12.9 23.8 12.7 24 12.8C24.1 12.8 24.1 12.7 24.1 12.7C24.1 12.6 24.2 12.7 24.1 12.5C24 12.4 24.1 12.4 24.1 12.4C24.2 12.4 24.3 12.4 24.1 12.3C24 12.2 24.1 12.2 24.1 12.1C24.2 12.1 24.2 12.1 24.2 12L24.1 11.9C24.4 11.9 24.3 11.8 24.1 11.7C24.5 11.7 24.4 11.6 24.1 11.5C24.1 11.5 24.2 11.4 24 11.3C24 11.2 23.9 11.2 23.9 11.1C23.7 11.1 23.6 11.1 23.8 10.9C23.5 11 23.6 10.9 23.7 10.7C23.8 10.6 23.4 10.7 23.5 10.5L23.3 10.3C23.3 10.2 23.3 10 23.1 10.1C23 10.1 22.9 10.1 22.9 9.9C22.6 10 22.6 9.9 22.7 9.7C22.6 9.7 22.6 9.4 22.5 9.5C22.4 9.4 22.2 9.4 22.2 9.3C22.2 9.2 22.1 9 21.9 9.1C21.7 9.1 21.8 8.9 21.6 8.9C21.7 8.6 21.4 8.8 21.3 8.6C21.2 8.5 21.2 8.3 21.1 8.3C21 8.2 20.9 8.2 20.9 8C20.5 8.2 20.8 7.7 20.7 7.7C20.7 7.6 20.7 7.6 20.6 7.5C20.5 7.5 20.5 7.4 20.5 7.4C20.4 7.3 20.5 7.1 20.3 7.1C20.3 7 20.1 6.9 20.2 6.7C20.1 6.7 20.1 6.6 20.1 6.5C20.1 6.4 20.2 6.4 20.1 6.3C20.1 6.2 20 6.1 20.1 5.9C20.4 5.8 20.2 5.7 20.1 5.5C20.1 5.4 20.1 5.4 20.1 5.3C20.1 5.2 20.1 5.2 20.2 5.1C20.2 5 20.3 5 20.3 5C20.3 5 20.4 4.9 20.3 4.9C20.5 5 20.6 5 20.7 5C20.8 5 20.8 5 20.6 4.8C20.6 4.7 21 4.8 20.7 4.6C20.5 4.4 20.8 4.5 20.8 4.4C20.8 4.3 20.9 4.3 20.9 4.3C21 4.2 21.1 4.1 21.2 4.1C21.5 4 21.5 4 21.6 4C21.8 3.9 21.9 4 21.9 4C22 4.1 22 4.2 21.9 4.4C21.9 4.5 21.8 4.6 21.8 4.7C21.8 4.7 21.8 4.9 21.8 5C21.8 5.1 22 5.2 21.8 5.2C21.8 5.2 21.9 5.4 21.8 5.4C22 5.6 21.8 5.5 21.8 5.6C21.8 5.6 21.8 5.6 21.8 5.7V5.8C21.9 5.8 21.9 5.9 21.8 5.9C21.8 5.9 21.7 5.9 21.8 6C21.6 6 21.7 6.1 21.8 6.2C21.5 6 21.8 6.1 21.8 6.1C21.7 6.2 21.7 6.2 21.7 6.2C21.7 6.2 21.8 6.2 21.9 6.2C22 6.2 21.9 6.3 22 6.4C22 6.5 22.1 6.5 22.1 6.6C22.2 6.6 22.3 6.6 22.3 6.8C22.4 6.8 22.4 6.8 22.4 6.9C22.4 6.9 22.4 7 22.5 7C22.6 7 22.6 7.2 22.7 7.2C22.8 7.2 22.6 7.5 22.9 7.4C23 7.4 23 7.6 23.1 7.6C23.2 7.7 23.2 7.8 23.3 7.8C23.2 8.1 23.4 8 23.6 8C23.7 8 23.8 8.1 23.9 8.2C24 8.3 24.1 8.4 24.2 8.5C24.3 8.5 24.3 8.8 24.5 8.8C24.7 8.8 24.6 9.1 24.7 9.1C24.8 9.1 25 9.2 24.9 9.4C25 9.5 24.9 9.7 25.1 9.7C25.2 9.7 25.3 9.7 25.3 9.8C25.4 9.8 25.4 9.9 25.3 10.1C25.5 10.2 25.3 10.4 25.5 10.4C25.3 10.6 25.6 10.6 25.6 10.8C25.6 10.9 25.5 11.1 25.7 11.2C25.9 11.3 25.7 11.5 25.7 11.6C25.8 11.7 25.7 11.7 25.7 11.8C25.6 11.9 25.6 11.9 25.7 12C25.7 12.1 25.7 12.2 25.6 12.3C25.8 12.4 25.8 12.5 25.7 12.5C25.6 12.5 25.5 12.6 25.5 12.6C25.4 12.7 25.7 12.9 25.4 12.8C25.6 13 25.4 13 25.3 13C25.2 13 25.3 13.2 25.2 13.2C25.3 13.4 25 13.2 25.1 13.3C24.9 13.3 25 13.4 25 13.4C25 13.5 25 13.5 24.9 13.5C24.9 13.5 24.8 13.5 24.8 13.6C24.2 13.6 24 13.7 24 13.6Z" fill="#73523F"/>
<path d="M33.9 9.7C33.8 9.6 33.8 9.5 33.9 9.2V9C34 9 33.7 8.8 33.9 8.9C34 8.9 34 8.8 34 8.8C34 8.7 34.1 8.8 34 8.6C33.9 8.5 34 8.5 34 8.5C34.1 8.5 34.2 8.5 34 8.4C33.9 8.3 34 8.3 34 8.2C34.1 8.2 34.1 8.2 34.1 8.1L34 8C34.3 8 34.2 7.9 34 7.8C34.4 7.8 34.3 7.7 34 7.6C34 7.6 34.1 7.5 33.9 7.4C33.9 7.3 33.8 7.3 33.8 7.2C33.6 7.2 33.5 7.2 33.7 7C33.4 7.1 33.5 7 33.6 6.8C33.7 6.7 33.3 6.8 33.4 6.6C33.4 6.5 33.3 6.5 33.2 6.4C33.2 6.3 33.2 6.1 33 6.2C32.9 6.2 32.8 6.2 32.8 6C32.5 6.1 32.5 6 32.6 5.8C32.5 5.8 32.5 5.5 32.4 5.6C32.3 5.5 32.1 5.5 32.1 5.4C32.1 5.3 32 5.1 31.8 5.2C31.8 5.3 31.8 5 31.7 5C31.8 4.7 31.5 4.9 31.4 4.7C31.3 4.6 31.3 4.4 31.2 4.4C31.1 4.3 31 4.3 31 4.1C30.6 4.3 30.9 3.8 30.8 3.8C30.9 3.6 30.6 3.6 30.6 3.5C30.5 3.4 30.6 3.2 30.4 3.2C30.4 3.1 30.2 3 30.3 2.8C30.2 2.8 30.2 2.7 30.2 2.6C30.2 2.5 30.3 2.5 30.2 2.4C30.2 2.3 30.1 2.2 30.2 2C30.5 1.9 30.3 1.8 30.2 1.6C30.2 1.5 30.2 1.5 30.2 1.4C30.2 1.3 30.2 1.3 30.3 1.3C30.3 1.2 30.4 1.2 30.4 1.2C30.4 1.2 30.5 1.1 30.4 1.1C30.4 1 30.5 1 30.6 1C30.7 1 30.7 1 30.5 0.8C30.5 0.7 30.9 0.8 30.6 0.6C30.5 0.5 30.8 0.6 30.8 0.5C30.8 0.4 30.9 0.4 30.9 0.4C31 0.3 31.1 0.2 31.2 0.2C31.3 0.1 31.4 0.1 31.5 0.1C31.7 0 31.8 0 31.8 0C31.9 0.1 31.9 0.2 31.8 0.4C31.8 0.5 31.8 0.6 31.8 0.7C31.8 0.8 31.7 0.9 31.7 1.1C31.7 1.2 31.9 1.3 31.7 1.3C31.7 1.3 31.8 1.5 31.7 1.5C31.9 1.7 31.7 1.6 31.7 1.7C31.7 1.7 31.7 1.7 31.7 1.8V1.9C31.8 1.9 31.8 2 31.7 2C31.7 2 31.6 2 31.7 2.1C31.5 2.1 31.6 2.2 31.7 2.3C31.5 2.4 31.8 2.4 31.8 2.5C31.7 2.6 31.7 2.6 31.7 2.6C31.7 2.6 31.8 2.6 31.9 2.6C32 2.6 31.9 2.7 32 2.8C32 2.9 32.1 2.9 32.1 3C32.2 3 32.3 3 32.3 3.2C32.4 3.2 32.4 3.2 32.4 3.3C32.4 3.3 32.4 3.4 32.5 3.4C32.6 3.4 32.6 3.5 32.7 3.6C32.8 3.6 32.6 3.9 32.9 3.8C33 3.8 33 4 33.1 4C33.2 4.1 33.2 4.2 33.3 4.2C33.2 4.5 33.4 4.4 33.6 4.4C33.7 4.4 33.8 4.5 33.9 4.6C34 4.7 34.1 4.8 34.2 4.9C34.3 4.9 34.3 5.2 34.5 5.2C34.7 5.2 34.6 5.5 34.7 5.5C34.8 5.5 35 5.6 34.9 5.8C35 5.9 34.8 6.2 35.1 6.1C35.2 6.1 35.3 6.1 35.3 6.2C35.4 6.2 35.4 6.3 35.3 6.5C35.5 6.6 35.3 6.8 35.5 6.8C35.3 7 35.6 7 35.6 7.2C35.6 7.3 35.5 7.5 35.7 7.6C35.9 7.7 35.7 7.9 35.7 8C35.8 8.1 35.7 8.1 35.7 8.2C35.6 8.3 35.6 8.3 35.7 8.4C35.7 8.5 35.7 8.6 35.6 8.7C35.8 8.8 35.8 8.9 35.7 8.9C35.6 8.9 35.5 9 35.5 9C35.4 9.1 35.7 9.3 35.4 9.3C35.4 9 35.1 9 35 9C34.9 9 35 9.2 34.9 9.2C35 9.4 34.7 9.2 34.8 9.3C34.6 9.3 34.7 9.4 34.7 9.4C34.7 9.5 34.7 9.5 34.6 9.5C34.6 9.5 34.5 9.5 34.5 9.6C34.1 9.7 33.9 9.7 33.9 9.7Z" fill="#73523F"/>
<path d="M43.8 13.6C43.7 13.5 43.7 13.4 43.8 13.1V13C43.8 12.9 43.8 12.9 43.8 12.9C43.9 12.9 43.6 12.7 43.8 12.8C43.9 12.8 43.9 12.7 43.9 12.7C43.9 12.6 44 12.7 43.9 12.5C43.8 12.4 43.9 12.4 43.9 12.4C44 12.4 44.1 12.4 43.9 12.3C43.8 12.2 43.9 12.2 43.9 12.1C44 12.1 44 12.1 44 12L43.9 11.9C44.2 11.9 44.1 11.8 43.9 11.7C44.3 11.7 44.2 11.6 43.9 11.5C43.9 11.5 44 11.4 43.8 11.3C43.8 11.2 43.7 11.2 43.7 11.1C43.5 11.1 43.4 11.1 43.6 10.9C43.3 11 43.4 10.9 43.5 10.7C43.6 10.6 43.2 10.7 43.3 10.5L43.1 10.3C43.1 10.2 43.1 10 42.9 10.1C42.8 10.1 42.7 10.1 42.7 9.9C42.4 10 42.4 9.9 42.5 9.7C42.4 9.7 42.4 9.4 42.3 9.5C42.2 9.4 42 9.4 42 9.3C42 9.2 41.9 9 41.7 9.1C41.5 9.1 41.6 8.9 41.4 8.9C41.5 8.6 41.2 8.8 41.1 8.6C41 8.5 41 8.3 40.9 8.3C40.8 8.2 40.7 8.2 40.7 8C40.3 8.2 40.6 7.7 40.5 7.7C40.6 7.5 40.3 7.5 40.3 7.4C40.2 7.3 40.3 7.1 40.1 7.1C40.1 7 39.9 6.9 40 6.7C39.9 6.7 39.9 6.6 39.9 6.5C39.9 6.4 40 6.4 39.9 6.3C39.9 6.2 39.8 6.1 39.9 5.9C40.2 5.8 40 5.7 39.9 5.5C39.9 5.4 39.9 5.4 39.9 5.3C39.9 5.2 39.9 5.2 40 5.2L40.1 5.1C40.1 5.1 40.2 5 40.1 5C40.3 5 40.4 5 40.5 5C40.6 5 40.6 5 40.4 4.8C40.4 4.7 40.8 4.8 40.5 4.6C40.3 4.4 40.6 4.5 40.6 4.4C40.6 4.3 40.7 4.3 40.7 4.3C40.8 4.2 40.9 4.1 41 4.1C41.3 4 41.3 4 41.4 4C41.6 3.9 41.7 4 41.7 4C41.8 4 41.8 4.2 41.8 4.3C41.8 4.4 41.7 4.5 41.7 4.6C41.7 4.7 41.6 4.8 41.6 5C41.6 5.1 41.8 5.2 41.6 5.2C41.6 5.2 41.7 5.4 41.6 5.4C41.8 5.6 41.6 5.5 41.6 5.6C41.6 5.6 41.6 5.6 41.6 5.7V5.8C41.7 5.8 41.7 5.9 41.6 5.9C41.6 5.9 41.5 5.9 41.6 6C41.4 6 41.5 6.1 41.6 6.2C41.4 6.3 41.7 6.3 41.7 6.4C41.6 6.5 41.6 6.5 41.6 6.5C41.6 6.5 41.7 6.5 41.8 6.5C41.9 6.5 41.8 6.6 41.9 6.7C41.9 6.8 42 6.8 42 6.9C42.1 6.9 42.2 6.9 42.2 7.1C42.3 7.1 42.3 7.1 42.3 7.2C42.3 7.2 42.3 7.3 42.4 7.3C42.5 7.3 42.5 7.5 42.6 7.5C42.7 7.5 42.5 7.8 42.8 7.7C42.9 7.7 42.9 7.9 43 7.9C43.1 8 43.1 8.1 43.2 8.1C43.1 8.4 43.3 8.3 43.5 8.3C43.6 8.3 43.7 8.4 43.8 8.5C43.9 8.6 44 8.7 44.1 8.7C44.2 8.7 44.2 9 44.4 9C44.6 9 44.5 9.3 44.6 9.3C44.7 9.3 44.9 9.4 44.8 9.6C44.9 9.7 44.8 9.9 45 9.9C45.1 9.9 45.2 9.9 45.2 10C45.3 10 45.3 10.1 45.2 10.3C45.4 10.4 45.2 10.6 45.4 10.6C45.2 10.8 45.5 10.8 45.5 11C45.5 11.1 45.4 11.3 45.6 11.4C45.8 11.5 45.6 11.7 45.6 11.8C45.7 11.9 45.6 11.9 45.6 12C45.5 12.1 45.5 12.1 45.6 12.2C45.6 12.3 45.6 12.4 45.5 12.5C45.7 12.6 45.7 12.7 45.6 12.7C45.5 12.7 45.4 12.8 45.4 12.8C45.3 12.9 45.6 13.1 45.3 13C45.5 13.2 45.3 13.2 45.2 13.2C45.1 13.2 45.2 13.4 45.1 13.4C45.2 13.6 44.9 13.4 44.9 13.5C44.7 13.5 44.8 13.6 44.8 13.6C44.8 13.7 44.8 13.7 44.7 13.7C44.7 13.7 44.6 13.7 44.6 13.8C44 13.6 43.8 13.7 43.8 13.6Z" fill="#73523F"/>
<path d="M65.2 25.4C65.2 25.5 64.5 25.6 63.3 26C63.2 26 63.1 26.1 63 26.1C62.9 26.1 62.8 26.2 62.7 26.2C62.5 26.3 62.3 26.4 62 26.5C61.8 26.5 61.8 26.6 61.7 26.7C61.6 26.8 61.5 26.9 61.3 26.9C61.2 26.9 61 27 60.9 27.1C60.8 27.2 60.7 27.3 60.6 27.4C60.4 27.6 60 27.8 59.9 28.1C59.9 28.3 59.7 28.4 59.5 28.5C59.3 28.6 59.2 28.7 59.2 28.9C59.1 29.1 59 29.2 58.9 29.4C58.8 29.6 58.7 29.7 58.6 29.9C58.4 30 58.3 30.2 58.2 30.4C58.1 30.6 58.1 30.8 58 31C57.6 31.3 57.5 31.7 57.5 32.2C57 32.5 56.9 33 57.2 33.5C57.1 33.9 56.9 34.4 57 34.9C57 35.4 57 35.9 56.9 36.4C57.1 36.9 57.1 37.4 57 37.9C57.3 38.4 57.3 38.9 57.3 39.4C57.3 39.5 57.3 39.7 57.4 39.8C57.4 39.9 57.5 40 57.6 40.2C57.7 40.4 57.9 40.7 57.8 41C58 41.5 58.3 42 58.5 42.5C58.7 43 58.9 43.6 59.4 43.9C59.8 44.3 60.2 44.6 60.6 45.1C61.2 45.2 61.6 45.6 62 46C62.1 46.1 62.3 46.1 62.4 46.2C62.5 46.3 62.7 46.3 62.8 46.4C62.9 46.5 63.1 46.5 63.2 46.6C63.3 46.6 63.5 46.7 63.6 46.7C64.1 46.9 64.6 46.8 65.1 46.9C64.9 47 64.7 47.1 64.5 47.2L64.6 47.1L64.8 47.3C64.9 47.4 64.9 47.4 64.9 47.4C64.9 47.4 64.9 47.4 64.9 47.5C64.9 47.5 64.9 47.5 64.9 47.6C64.9 47.6 64.9 47.6 64.9 47.7C64.9 47.7 64.9 47.8 65 47.8C65.1 47.8 65.1 47.8 65.1 47.8C65.1 47.8 65.1 47.8 65.2 47.8V47.7C65.2 47.7 65.2 47.6 65.1 47.6L65.2 47.7L65.3 47.8C65.4 47.9 65.4 47.9 65.5 48L65.8 48.3L65.7 48.4L64.7 49.1L64.3 48.2C64 47.6 63.8 47 63.5 46.4C63.4 46.2 63.4 46.1 63.3 45.9C63.3 45.7 63.2 45.5 63.2 45.4C63.2 45.2 63.2 45 63.2 44.9C63.2 44.7 63.2 44.5 63.2 44.4C63.3 44.2 63.3 44.1 63.3 43.9C63.3 43.7 63.3 43.6 63.3 43.4C63.3 43.2 63.3 43.1 63.3 42.9C63.3 42.7 63.3 42.6 63.4 42.4C63.5 41.7 63.8 41.1 64 40.5C64.2 39.9 64.4 39.3 64.9 38.8C64.9 38.6 64.9 38.5 65 38.3C65.1 38.2 65.2 38 65.3 37.9C65.5 37.7 65.8 37.5 66 37.2C66.5 36.8 66.8 36.3 67.2 35.9C67.6 35.4 68.2 35.3 68.6 34.8C69.1 34.5 69.5 34 70 33.9C70.2 33.7 70.5 33.6 70.7 33.5C71 33.4 71.2 33.4 71.4 33.2C71.6 33.1 71.9 33 72.1 32.9L72.3 32.8H72.5C72.6 32.9 72.7 32.9 72.8 32.9H72.9C72.8 32.8 72.7 32.7 72.7 32.6C72.7 32.6 72.7 32.6 72.7 32.5V32.4C72.6 32.3 72.6 32.2 72.5 32.1C72.4 31.9 72.3 31.7 72.3 31.5C72.3 31.4 72.2 31.3 72.2 31.2C72.2 31.1 72.1 31 72.1 30.9C72 30.7 71.9 30.5 71.8 30.4C71.7 30.2 71.7 30 71.6 29.8C71.5 29.6 71.4 29.4 71.2 29.4C71.1 29.3 71 29.1 70.9 28.9C70.8 28.7 70.7 28.6 70.5 28.6C70.3 28.6 70.2 28.5 70.1 28.3C70 28.2 69.9 28 69.8 27.9C69.7 27.8 69.7 27.8 69.6 27.7C69.5 27.7 69.5 27.6 69.4 27.6C69.3 27.5 69.2 27.4 69 27.3C67.9 26.5 66.9 26.2 66.2 26C66 26 65.9 25.9 65.7 25.9C65.6 25.9 65.4 25.8 65.4 25.8C65.3 25.5 65.2 25.5 65.2 25.4C65.2 25.4 65.3 25.3 65.6 25.3C65.7 25.3 65.9 25.3 66.1 25.3C66.3 25.3 66.5 25.3 66.7 25.3C66.9 25.3 67.2 25.4 67.5 25.4C67.6 25.4 67.8 25.5 67.9 25.5C68.1 25.5 68.2 25.6 68.4 25.7C68.6 25.8 68.7 25.8 68.9 25.9C69.1 26 69.2 26.1 69.4 26.2C69.6 26.3 69.7 26.4 69.9 26.5C70.1 26.6 70.3 26.7 70.4 26.9C70.5 27 70.7 27.1 70.9 27.2C71.1 27.3 71.2 27.4 71.3 27.6C71.4 27.7 71.6 27.8 71.7 28C71.8 28.1 72 28.3 72.1 28.5C72.3 28.6 72.5 28.7 72.6 28.9C72.7 29.1 72.8 29.3 72.9 29.5C73 29.7 73.1 29.9 73.2 30.1C73.3 30.2 73.3 30.3 73.4 30.4C73.5 30.5 73.5 30.6 73.6 30.7C73.8 30.9 73.9 31.1 73.9 31.3C73.9 31.4 74 31.5 74 31.6V31.8C74 31.9 74.1 32 74.1 32.1C74.1 32.5 74.2 32.8 74.3 33.2V33.4C74.2 33.4 74.1 33.5 74.1 33.5C73.9 33.6 73.8 33.7 73.6 33.7C73.4 33.7 73.2 33.8 73 33.8H72.8C72.7 33.8 72.7 33.8 72.6 33.9C72.4 34 72.2 34.1 72 34.2C71.7 34.2 71.5 34.3 71.3 34.4C71.1 34.5 70.9 34.7 70.7 34.9C70.3 35.2 69.8 35.4 69.5 35.7C69.1 36 68.7 36.4 68.3 36.7C68 37.2 67.7 37.6 67.2 37.9C66.9 38.4 66.6 38.8 66.3 39.2C66.1 39.7 65.8 40.2 65.6 40.7C65.6 40.8 65.5 41 65.4 41.1C65.3 41.2 65.3 41.4 65.2 41.5C65.1 41.6 65.1 41.8 65.1 41.9C65.1 42 65.1 42.2 65.1 42.3C65 42.9 64.9 43.4 65 44C65 44.6 65 45.1 65.3 45.7C65.2 46.3 65.5 46.7 65.9 47.1C65.4 47 65 47 64.5 46.9L64.6 46.8C64.6 46.8 64.6 46.8 64.7 46.7C64.7 46.7 64.7 46.7 64.8 46.6C64.8 46.6 64.8 46.6 64.9 46.6C64.9 46.6 65 46.6 65.1 46.5C65.2 46.5 65.2 46.5 65.4 46.5C65.5 46.5 65.7 46.6 65.9 46.7L66.1 47L66.2 47.3C66.2 47.5 66.2 47.6 66.2 47.6C66.2 47.7 66.1 47.8 66.1 47.8C66.1 47.8 66.1 47.9 66 47.9C66 47.9 66 47.9 66 48L65.7 48.3H65.2C64.5 48.4 63.9 48.2 63.3 48C62.6 47.9 61.9 47.6 61.3 47.2C61.1 47.1 61 47.1 60.8 47C60.7 46.9 60.5 46.8 60.4 46.7C60.3 46.6 60.1 46.5 60 46.4C59.9 46.3 59.7 46.2 59.6 46.1C59.5 46 59.3 45.9 59.2 45.8C59.1 45.7 59 45.6 58.9 45.4C58.8 45.3 58.7 45.1 58.6 45C58.5 44.9 58.4 44.8 58.3 44.6C57.8 44.1 57.4 43.6 57.2 43C56.9 42.4 56.9 41.8 56.4 41.3C56.3 41 56.1 40.8 55.9 40.5C55.8 40.7 55.8 40.5 55.8 40.4C55.8 40.2 55.8 40.1 55.9 39.9C55.7 39.3 55.9 38.7 55.6 38.2C55.8 37.6 55.5 37.1 55.5 36.5C55.6 35.9 55.7 35.4 55.6 34.9C55.5 34.4 55.8 33.9 55.9 33.4C55.9 33.1 56 32.9 56.1 32.7C56.2 32.5 56.3 32.3 56.3 32C56.5 31.6 56.6 31.1 56.9 30.7C56.8 30.4 56.9 30.2 57.1 30C57.3 29.8 57.5 29.7 57.6 29.5C57.7 29.3 57.8 29.1 57.9 28.9C58 28.7 58.1 28.5 58.4 28.5C58.4 28.2 58.5 28.1 58.7 28C58.9 27.9 59.1 27.8 59.2 27.7C59.5 27.5 59.7 27.1 60 27C60.1 26.8 60.2 26.7 60.4 26.7C60.6 26.6 60.7 26.6 60.9 26.5C61.1 26.5 61.2 26.4 61.3 26.3C61.4 26.2 61.5 26.1 61.7 26.1C61.9 25.9 62.2 25.8 62.5 25.8C62.6 25.8 62.7 25.7 62.9 25.7C63 25.7 63.1 25.6 63.2 25.6C63.9 25.5 64.4 25.5 64.7 25.5C65.1 25.3 65.2 25.4 65.2 25.4Z" fill="#73523F"/>
<path d="M43.8 41.9C43.9 41.9 43.8 42.6 43.9 43.9C43.9 44 43.9 44.1 43.9 44.2C43.9 44.3 43.9 44.4 44 44.5C44.1 44.7 44.1 45 44.2 45.2C44.2 45.3 44.2 45.5 44.3 45.6C44.4 45.7 44.5 45.8 44.4 46C44.4 46.1 44.4 46.1 44.4 46.2C44.4 46.3 44.5 46.3 44.5 46.4C44.6 46.5 44.6 46.7 44.7 46.8C44.9 47.1 44.9 47.4 45.2 47.7C45.4 47.8 45.4 48 45.5 48.1C45.5 48.3 45.6 48.5 45.8 48.5C46.1 48.7 46.3 49 46.6 49.3C46.7 49.7 47.2 49.9 47.5 50.1C47.6 50.6 48.1 50.8 48.5 50.8C48.6 51.1 48.7 51.3 48.9 51.4C49.1 51.5 49.3 51.5 49.6 51.5C50 51.7 50.4 52 50.9 52.1C51.4 52.3 51.8 52.3 52.3 52.5C52.8 52.4 53.3 52.5 53.8 52.8C54.3 52.6 54.8 52.8 55.3 52.9C55.6 53 55.8 52.9 56.1 52.9C56.2 52.9 56.4 52.8 56.5 52.8C56.6 52.8 56.8 52.8 56.9 52.8C57.4 52.8 58 52.6 58.5 52.5C59 52.5 59.6 52.4 60.1 52C60.6 51.7 61 51.4 61.6 51.2C61.9 50.7 62.4 50.4 62.9 50.1C63 50 63.1 49.9 63.2 49.8C63.3 49.7 63.4 49.6 63.5 49.5C63.7 49.3 63.9 49.1 63.9 48.8C63.9 48.7 64 48.7 64 48.6V48.3C64 48.3 64 48.3 64.1 48.2C64.1 48.2 64.1 48.2 64 48.2H63.9C63.9 48.2 63.9 48.2 63.8 48.2H63.7C63.5 48.2 63.4 48.2 63.2 48.2C62.8 48.2 62.5 48.1 62.2 47.9C62 47.8 61.9 47.7 61.7 47.6C61.5 47.5 61.4 47.4 61.2 47.4C61.1 47.3 60.9 47.2 60.8 47.1C60.7 47 60.5 46.9 60.4 46.8C60.2 46.7 60.1 46.6 60 46.5C59.9 46.4 59.7 46.3 59.6 46.2C59.1 45.8 58.8 45.2 58.2 44.8C57.8 44.3 57.4 43.8 57.2 43.2C56.9 43 56.7 42.7 56.7 42.4C56.7 42.2 56.6 42.1 56.6 41.9C56.6 41.7 56.5 41.6 56.5 41.5C56.4 40.9 56.1 40.4 56 39.8C55.9 39.5 55.9 39.2 55.9 38.9C55.9 38.6 55.9 38.3 55.8 38C55.8 37.7 55.7 37.4 55.7 37.2C55.7 37.1 55.7 37.1 55.7 37V36.8C55.7 36.8 55.7 36.7 55.8 36.7C55.8 36.7 55.7 36.7 55.7 36.6C55.7 36.6 55.7 36.6 55.7 36.5C55.7 36.5 55.7 36.4 55.6 36.4C55.5 36.4 55.5 36.4 55.4 36.4C54.9 36.3 54.5 36.3 54 36.3C53.5 36 53.1 36.2 52.7 36.3C52.3 36.3 51.9 36.6 51.4 36.4C51 36.5 50.6 36.4 50.2 36.7C50 36.8 49.8 36.7 49.6 36.7C49.4 36.7 49.2 36.8 49.1 37C49 37.1 48.9 37.1 48.8 37.1C48.7 37.1 48.6 37.1 48.5 37.1C48.3 37.1 48.1 37.2 48.1 37.4C48 37.6 47.9 37.7 47.7 37.7C47.5 37.8 47.4 37.8 47.2 37.9C46.9 38.1 46.7 38.3 46.5 38.4C45.5 39.2 44.9 40.1 44.6 40.7C44 41.5 43.9 41.9 43.8 41.9C43.7 41.9 43.7 41.4 44 40.5C44.2 40.1 44.4 39.5 44.8 39C45.2 38.4 45.7 37.9 46.4 37.3C46.5 37.2 46.7 37 46.8 36.9C46.9 36.8 47.1 36.7 47.3 36.7C47.5 36.6 47.6 36.5 47.8 36.4C47.9 36.3 48 36.3 48.1 36.2C48.2 36.2 48.3 36.1 48.4 36.1C48.5 35.9 48.7 35.8 48.9 35.7C49.1 35.7 49.3 35.6 49.5 35.6C49.9 35.5 50.4 35.4 50.8 35.2C51 35.1 51.2 35.1 51.5 35.1C51.7 35.1 52 35.1 52.2 35C52.7 35.1 53.2 35.1 53.7 34.9C54.2 35.1 54.7 34.9 55.2 35C55.3 35 55.3 35.1 55.4 35.1H55.6C55.8 35.2 56 35.2 56.2 35.2C56.3 35.2 56.4 35.2 56.5 35.2H56.9C56.9 35.4 57 35.6 57 35.8C57 36 57 36.3 57 36.5V36.7C57 36.8 57 36.8 57 36.9C57 37.1 57 37.4 57.1 37.7C57.1 38 57.2 38.2 57.2 38.5C57.3 38.7 57.3 39 57.4 39.3C57.6 39.8 57.8 40.3 57.9 40.8C58.2 41.3 58.3 41.8 58.6 42.3C59 42.7 59.2 43.2 59.5 43.7C59.7 43.9 59.8 44.2 60 44.4C60.1 44.5 60.2 44.6 60.3 44.7C60.4 44.8 60.5 44.9 60.7 44.9C61.1 45.2 61.5 45.6 62.1 45.9C62.6 46.2 63.1 46.5 63.6 46.5C63.7 46.6 63.8 46.7 64 46.7C64 46.7 64 46.7 64.1 46.7H64.3C64.4 46.7 64.5 46.7 64.7 46.7C64.8 46.7 64.8 46.7 64.9 46.7H65.1C65.3 46.7 65.4 46.7 65.6 46.7C65.9 46.7 66.2 46.7 66.6 46.6V46.7C66.5 47 66.5 47.2 66.4 47.5C66.3 47.8 66.2 48.1 66.1 48.3C66 48.6 65.9 48.9 65.7 49.1C65.7 49.2 65.6 49.2 65.6 49.2L65.5 49.3C65.5 49.4 65.4 49.5 65.4 49.5C65.1 50.1 64.6 50.7 64.1 51.2C64 51.3 63.9 51.5 63.7 51.6C63.6 51.7 63.4 51.8 63.3 51.9C63.2 52 63 52.1 62.9 52.2C62.8 52.3 62.6 52.4 62.5 52.5C62.4 52.6 62.2 52.7 62.1 52.8C62 52.9 61.8 53 61.6 53C61.3 53.1 61 53.2 60.7 53.4C60.1 53.7 59.5 54 58.9 54C58.3 54.2 57.6 54 57.1 54.3C56.9 54.3 56.8 54.4 56.6 54.4C56.5 54.4 56.3 54.5 56.1 54.5C55.8 54.5 55.5 54.5 55.2 54.3C54.9 54.3 54.6 54.3 54.3 54.2C54 54.1 53.7 54.1 53.4 54.1C52.9 53.7 52.3 53.9 51.8 53.7C51.3 53.5 50.8 53.2 50.3 53.2C49.8 53.1 49.4 52.7 48.9 52.5C48.6 52.5 48.4 52.3 48.3 52.1C48.1 51.9 47.9 51.8 47.7 51.7C47.3 51.4 46.9 51.2 46.6 50.8C46.3 50.8 46.1 50.6 46 50.4C45.9 50.2 45.8 50 45.7 49.8C45.6 49.7 45.6 49.6 45.5 49.6C45.4 49.5 45.3 49.5 45.2 49.4C45 49.3 44.9 49.1 44.9 48.8C44.7 48.7 44.5 48.6 44.5 48.4C44.4 48.2 44.4 48 44.3 47.8C44.2 47.4 43.8 47.2 43.8 46.8C43.6 46.7 43.6 46.5 43.6 46.3C43.6 46.2 43.6 46.1 43.6 46C43.6 45.9 43.6 45.8 43.5 45.8C43.5 45.6 43.5 45.5 43.4 45.3C43.4 45.2 43.3 45 43.3 44.9C43.2 44.6 43.2 44.3 43.2 44.1C43.2 44 43.2 43.8 43.2 43.7C43.2 43.6 43.2 43.5 43.2 43.4C43.2 42.7 43.4 42.2 43.5 41.9C43.6 42 43.7 41.9 43.8 41.9Z" fill="#73523F"/>
<path d="M54.1 66.9C54.2 66.8 54.8 67.1 56 67.3C56.1 67.3 56.2 67.3 56.3 67.4C56.4 67.4 56.5 67.4 56.6 67.4C56.8 67.4 57.1 67.4 57.3 67.4C57.4 67.5 57.6 67.4 57.7 67.4C57.8 67.3 58 67.3 58.1 67.4C58.2 67.4 58.4 67.4 58.5 67.4C58.7 67.4 58.8 67.3 59 67.3C59.3 67.2 59.7 67.3 60 67.1C60.1 66.9 60.3 66.9 60.5 67C60.7 67 60.9 67 61 66.8C61.2 66.7 61.3 66.6 61.5 66.5C61.7 66.4 61.8 66.3 62 66.3C62.2 66.3 62.4 66.2 62.6 66.1C62.8 66 62.9 65.8 63.1 65.7C63.6 65.7 63.9 65.3 64.1 64.9C64.7 64.9 65 64.5 65 63.9C65.3 63.6 65.7 63.3 65.9 62.8C66.2 62.4 66.4 62 66.7 61.6C66.7 61 67 60.6 67.4 60.2C67.4 59.6 67.6 59.2 67.9 58.7C68 58.6 68 58.5 68 58.3C68 58.2 68 58 68 57.9C68 57.6 68 57.4 68.2 57.1C68.3 56.6 68.3 56 68.3 55.5C68.4 55 68.5 54.4 68.2 53.9C68.1 53.4 67.8 52.9 67.8 52.3C67.4 51.9 67.2 51.4 67.1 50.8C67 50.7 66.9 50.6 66.9 50.5C66.8 50.4 66.7 50.3 66.7 50.1C66.6 50 66.5 49.9 66.4 49.8C66.3 49.7 66.2 49.6 66.1 49.5C65.8 49.1 65.3 48.9 64.9 48.6L65.4 48.7H65.2V46.9H65.4L66.6 47.1L66.2 48C66 48.6 65.7 49.2 65.5 49.8C65.5 50 65.4 50.1 65.3 50.3C65.2 50.5 65.1 50.6 65 50.7C64.9 50.8 64.8 51 64.6 51.1C64.5 51.2 64.4 51.4 64.3 51.5C64.1 51.6 64 51.7 63.9 51.8C63.8 51.9 63.7 52 63.5 52.2C63.4 52.3 63.3 52.5 63.1 52.6C63 52.7 62.8 52.8 62.7 52.9C62.2 53.3 61.5 53.5 61 53.9C60.4 54.2 59.8 54.5 59.2 54.5C59.1 54.6 58.9 54.7 58.8 54.8C58.6 54.8 58.5 54.9 58.3 54.9C58 54.9 57.7 54.8 57.4 54.9C56.8 54.8 56.2 55 55.6 55C55 55.1 54.4 54.7 53.9 54.8C53.8 54.8 53.6 54.8 53.5 54.7C53.4 54.7 53.2 54.7 53.1 54.6C53 54.6 52.8 54.6 52.7 54.5C52.6 54.5 52.6 54.5 52.6 54.5C52.6 54.5 52.6 54.5 52.6 54.4C52.6 54.5 52.5 54.4 52.4 54.4H52.3C52.3 54.4 52.3 54.4 52.3 54.5V54.6C52.1 55 52 55.5 51.8 55.9C51.6 56.1 51.5 56.3 51.5 56.5C51.5 56.7 51.5 57 51.5 57.2C51.4 57.6 51.5 58.1 51.3 58.5C51.2 58.9 51.1 59.3 51.2 59.7C51.2 59.9 51.1 60.1 51.1 60.3C51.1 60.5 51.1 60.7 51.3 60.8C51.4 61 51.3 61.2 51.3 61.4C51.3 61.6 51.3 61.8 51.5 61.9C51.7 62 51.7 62.2 51.7 62.4C51.7 62.6 51.7 62.7 51.7 62.9C51.8 63 51.8 63.2 51.9 63.3C52 63.4 52 63.6 52.1 63.7C52.6 64.9 53.3 65.7 53.9 66.2C53.9 66.5 54.2 66.8 54.1 66.9C54.1 67 53.6 66.8 52.8 66.3C52.4 66 52 65.6 51.5 65.1C51.1 64.6 50.6 63.9 50.3 63.1C50.2 62.8 49.8 62.5 49.9 62.1C49.9 61.9 49.8 61.7 49.7 61.5C49.6 61.3 49.6 61.1 49.6 60.9C49.4 60.7 49.4 60.5 49.4 60.3C49.4 60.1 49.5 59.9 49.5 59.6C49.5 59.2 49.6 58.7 49.5 58.2C49.4 57.7 49.7 57.3 49.7 56.8C50 56.4 50 55.9 50 55.3C50.3 54.9 50.3 54.3 50.5 53.8C50.5 53.8 50.6 53.8 50.6 53.7V53.6C50.7 53.5 50.7 53.4 50.8 53.3C50.9 53.1 51 52.9 51.1 52.7C51.1 52.6 51.2 52.5 51.2 52.4V52.3H51.3C51.5 52.3 51.7 52.3 51.9 52.4C52 52.4 52.1 52.4 52.2 52.5L52.5 52.6C52.6 52.6 52.7 52.7 52.9 52.7C53 52.7 53.1 52.8 53.3 52.8C53.4 52.8 53.6 52.8 53.7 52.8C54.2 52.9 54.7 52.9 55.2 52.9C55.7 52.8 56.2 52.7 56.8 52.8C57.3 52.7 57.9 52.6 58.4 52.5C58.9 52.3 59.5 52.2 59.9 51.9C60 51.8 60.1 51.8 60.3 51.7C60.4 51.7 60.6 51.6 60.7 51.6C60.8 51.5 61 51.5 61.1 51.4C61.2 51.3 61.3 51.2 61.4 51.1C61.8 50.8 62.3 50.5 62.7 50C63.1 49.6 63.5 49.2 63.7 48.6C64.2 48.3 64.3 47.7 64.3 47.2C64.6 47.6 64.9 47.9 65.2 48.3H65V46.5H65.1H65.4L65.7 46.6C66.3 46.9 66.8 47.3 67.2 47.8C67.7 48.3 68.2 48.8 68.5 49.4C68.6 49.5 68.7 49.7 68.8 49.8C68.9 50 68.9 50.1 69 50.3C69.1 50.5 69.1 50.6 69.2 50.8C69.3 51 69.3 51.1 69.4 51.3C69.5 51.5 69.5 51.6 69.6 51.8C69.6 52 69.7 52.1 69.7 52.3C69.7 52.5 69.7 52.6 69.8 52.8C69.8 53 69.9 53.1 69.9 53.3C70.1 53.9 70.2 54.6 70 55.2C70 55.8 69.7 56.4 69.8 57.1C69.8 57.4 69.8 57.7 69.8 58C69.8 58.2 69.8 58.3 69.7 58.4C69.6 58.5 69.5 58.7 69.4 58.8C69.3 59.4 68.8 59.8 68.8 60.4C68.3 60.8 68.3 61.4 68 61.9C67.7 62.3 67.3 62.7 67.1 63.2C66.9 63.7 66.4 64 66.1 64.4C66 64.6 65.8 64.8 65.6 64.9C65.4 65 65.2 65.2 65 65.4C64.6 65.7 64.3 66 63.9 66.2C63.8 66.8 63.6 67 63.4 67C63.2 67.1 62.9 67.1 62.7 67.2C62.5 67.3 62.3 67.4 62.2 67.6C62 67.7 61.8 67.8 61.6 67.7C61.5 67.9 61.3 68 61.1 68C60.9 68 60.7 68 60.5 68C60.1 68 59.8 68.3 59.4 68.2C59.2 68.3 59.1 68.3 58.9 68.3C58.7 68.3 58.6 68.2 58.4 68.3C58.2 68.2 58.1 68.2 57.9 68.2C57.7 68.2 57.6 68.2 57.5 68.2C57.2 68.2 56.9 68.2 56.7 68.1C56.6 68.1 56.5 68 56.3 68C56.2 68 56.1 67.9 56 67.9C55.4 67.7 54.9 67.4 54.6 67.2C54.2 67 54.1 66.9 54.1 66.9Z" fill="#73523F"/>
<path d="M81 63.3C80.9 63.2 81.4 62.7 81.9 61.6C81.9 61.5 82 61.4 82 61.3C82 61.2 82.1 61.1 82.1 61C82.2 60.8 82.2 60.5 82.3 60.3C82.4 60.2 82.4 60 82.4 59.9C82.4 59.8 82.4 59.6 82.5 59.5C82.6 59.4 82.6 59.2 82.6 59.1C82.6 58.9 82.6 58.8 82.6 58.6C82.6 58.3 82.7 58 82.6 57.6C82.5 57.4 82.5 57.3 82.6 57.1C82.7 56.9 82.7 56.7 82.5 56.6C82.4 56.4 82.4 56.2 82.4 56.1C82.4 55.9 82.3 55.7 82.3 55.5C82.4 55.3 82.3 55.1 82.2 54.9C82.1 54.7 82 54.5 81.9 54.3C82 53.8 81.7 53.4 81.4 53.1C81.5 52.6 81.3 52.1 80.7 51.9C80.5 51.5 80.3 51.1 79.9 50.8C79.6 50.4 79.2 50.1 78.9 49.7C78.4 49.5 78 49.2 77.8 48.7C77.2 48.6 76.9 48.2 76.5 47.8C76.4 47.7 76.3 47.6 76.2 47.6C76.1 47.5 76 47.5 75.8 47.5C75.5 47.4 75.3 47.3 75.1 47.1C74.6 46.9 74.1 46.8 73.6 46.6C73.1 46.4 72.6 46.1 72 46.3C71.4 46.3 70.9 46.4 70.3 46.3C69.8 46.6 69.2 46.6 68.7 46.6C68.6 46.7 68.4 46.7 68.3 46.7C68.2 46.7 68 46.8 67.9 46.8C67.8 46.9 67.6 46.9 67.5 47C67.4 47 67.4 47.1 67.3 47.1C67.2 47.1 67.2 47.2 67.2 47.2C67.1 47.2 67.1 47.3 67.1 47.3H67C67 47.3 67 47.3 67 47.4C67 47.4 67 47.4 66.9 47.4C66.9 47.4 66.9 47.5 67 47.5L67.1 47.6C67.1 47.6 67.2 47.7 67.3 47.7C67.4 47.7 67.4 47.8 67.5 47.8C67.7 47.9 67.8 48 67.9 48.1C68 48.2 68.1 48.4 68.2 48.5C68.3 48.7 68.4 48.8 68.5 49C68.6 49.2 68.7 49.3 68.8 49.4C68.8 49.6 68.9 49.7 69 49.9C69.1 50.1 69.2 50.2 69.3 50.3C69.4 50.4 69.5 50.6 69.6 50.7C69.7 50.9 69.7 51 69.8 51.2C70.1 51.8 70 52.5 70.3 53.1C70.4 53.7 70.5 54.4 70.4 55C70.5 55.2 70.5 55.3 70.5 55.5C70.5 55.7 70.5 55.8 70.4 56C70.3 56.3 70.2 56.6 70.2 56.9C69.9 57.5 70 58.1 69.8 58.7C69.7 59.3 69.3 59.8 69.2 60.3C68.8 60.8 68.8 60.9 68.7 61C68.6 61.1 68.6 61.3 68.5 61.4C68.4 61.5 68.4 61.7 68.3 61.8C68.3 61.8 68.3 61.8 68.2 61.8C68.3 61.9 68.2 61.9 68.2 62V62.1H68.3C68.7 62.4 69.1 62.7 69.4 62.9C69.5 63.2 69.7 63.3 69.9 63.4C70.1 63.5 70.3 63.5 70.5 63.6C70.9 63.8 71.3 63.8 71.7 64.1C72.1 64.3 72.4 64.5 72.8 64.5C73 64.5 73.2 64.7 73.3 64.8C73.5 64.9 73.7 64.9 73.9 64.8C74.1 64.8 74.3 64.9 74.4 64.9C74.6 65 74.8 65 74.9 64.9C75.1 64.8 75.2 64.8 75.4 64.8C75.6 64.8 75.7 64.9 75.9 64.9C76.1 64.9 76.2 64.9 76.4 64.9C76.5 64.9 76.7 64.9 76.8 64.8C78.1 64.6 79 64.1 79.7 63.8C80.6 63.5 80.9 63.3 81 63.3C81.1 63.4 80.8 63.8 80.1 64.4C79.7 64.7 79.2 65 78.6 65.3C78 65.6 77.2 65.8 76.3 66C76 66 75.6 66.3 75.2 66.1C75 66.1 74.8 66.1 74.6 66.1C74.4 66.1 74.2 66.1 74 66C73.8 66.1 73.6 66.1 73.4 66C73.2 65.9 73 65.8 72.8 65.8C72.4 65.7 72 65.5 71.5 65.5C71 65.5 70.7 65.1 70.2 65C69.8 64.6 69.4 64.4 68.9 64.3C68.6 63.9 68 63.8 67.6 63.4V63.3L67.5 63.2C67.4 63.1 67.4 63 67.3 63C67.2 62.9 67 62.7 66.8 62.6C66.7 62.5 66.6 62.5 66.5 62.4L66.4 62.3L66.5 62.2C66.6 62 66.6 61.8 66.7 61.6C66.7 61.5 66.8 61.4 66.8 61.3L66.9 61C67 60.9 67 60.8 67.1 60.7C67.2 60.6 67.2 60.5 67.3 60.4C67.4 60.3 67.4 60.2 67.4 60C67.6 59.6 67.7 59 67.9 58.5C67.9 58 68 57.5 68.2 56.9C68.2 56.4 68.3 55.8 68.3 55.3C68.2 54.8 68.3 54.2 68.2 53.7C68.2 53.6 68.1 53.4 68.1 53.3C68.1 53.2 68.1 53 68.1 52.9C68.1 52.8 68.1 52.6 68 52.5C67.9 52.4 67.9 52.2 67.8 52.1C67.6 51.6 67.4 51 67.1 50.6C66.8 50.1 66.5 49.6 66 49.3C66 49.2 65.9 49.2 65.9 49.1C65.9 49 65.9 49 65.7 48.9C65.6 48.8 65.5 48.7 65.4 48.7L65.3 48.6L65.2 48.5C65.2 48.5 65.2 48.5 65.2 48.4C65.2 48.3 65.1 48.2 65.1 48.1L65 48V47.9C64.8 47.8 64.6 47.7 64.4 47.6L64.3 47.8V47.9C64.2 47.9 64.3 47.8 64.2 47.8V47.7C64.2 47.6 64.2 47.6 64.3 47.5L64.5 47.2C64.6 47.1 64.6 47 64.7 46.9L64.9 46.6L65 46.4L65.1 46.3L65.5 46L65.7 45.9L65.8 46L66.1 45.8C66.2 45.7 66.3 45.7 66.3 45.6L66.5 45.5C66.7 45.4 66.8 45.3 67 45.3C67.2 45.2 67.3 45.2 67.5 45.1C67.7 45 67.8 45 68 44.9C68.2 44.8 68.3 44.8 68.5 44.7C68.7 44.7 68.8 44.6 69 44.6C69.2 44.6 69.3 44.6 69.5 44.5C69.7 44.5 69.8 44.5 70 44.4C70.2 44.4 70.3 44.3 70.5 44.3C70.7 44.3 70.8 44.3 71 44.3C71.2 44.3 71.3 44.3 71.5 44.4C71.7 44.4 71.8 44.4 72 44.4C72.7 44.4 73.3 44.5 73.9 44.8C74.5 45 75 45.4 75.7 45.4C76 45.5 76.3 45.5 76.6 45.7C76.7 45.8 76.9 45.8 77 45.9C77.1 46 77.2 46.1 77.3 46.3C77.4 46.4 77.6 46.4 77.7 46.5C77.8 46.6 77.9 46.7 78 46.8C78.2 47 78.4 47.2 78.7 47.3C79 47.9 79.5 48 79.9 48.4C80.2 48.8 80.5 49.3 81 49.6C81.4 49.9 81.6 50.5 81.9 50.9C82.1 51.1 82.2 51.3 82.3 51.6C82.4 51.8 82.4 52.1 82.6 52.3C82.8 52.8 83 53.2 83.1 53.6C83.4 53.8 83.4 54 83.5 54.2C83.5 54.4 83.5 54.7 83.5 54.9C83.5 55.1 83.6 55.3 83.7 55.5C83.8 55.7 83.8 55.9 83.7 56.1C83.9 56.3 83.9 56.5 83.9 56.7C83.9 56.9 83.8 57.1 83.8 57.3C83.7 57.7 83.9 58.1 83.7 58.4C83.8 58.6 83.7 58.8 83.7 58.9C83.6 59.1 83.5 59.2 83.5 59.4C83.4 59.5 83.4 59.7 83.3 59.8C83.3 59.9 83.3 60.1 83.2 60.2C83.2 60.5 83 60.7 82.9 61C82.8 61.1 82.8 61.2 82.7 61.3C82.6 61.4 82.6 61.5 82.5 61.6C82.1 62.2 81.8 62.5 81.5 62.8C81.2 63.3 81 63.4 81 63.3Z" fill="#73523F"/>
<path d="M84.5 36.5C84.4 36.6 84 36 83.1 35.2C83 35.1 82.9 35.1 82.9 35C82.8 34.9 82.7 34.9 82.6 34.8C82.4 34.7 82.2 34.6 82 34.4C81.9 34.3 81.8 34.3 81.6 34.2C81.5 34.2 81.3 34.2 81.2 34C81.1 33.9 81 33.8 80.8 33.8C80.7 33.7 80.5 33.7 80.3 33.7C80 33.6 79.7 33.4 79.3 33.4C79.1 33.5 79 33.4 78.8 33.3C78.6 33.2 78.5 33.1 78.3 33.3C78.1 33.3 77.9 33.3 77.7 33.3C77.5 33.3 77.3 33.3 77.1 33.2C76.9 33.1 76.7 33.1 76.5 33.1C76.3 33.1 76.1 33.2 75.9 33.2C75.5 33 75 33.1 74.6 33.4C74.1 33.1 73.6 33.3 73.3 33.8C72.9 33.9 72.4 34 72 34.3C71.6 34.5 71.2 34.8 70.7 35C70.4 35.5 70 35.7 69.5 35.8C69.2 36.3 68.8 36.5 68.3 36.8C68.2 36.9 68.1 37 68 37.1C67.9 37.2 67.8 37.3 67.8 37.4C67.7 37.6 67.5 37.9 67.3 38C67 38.4 66.7 38.9 66.4 39.3C66 39.7 65.7 40.2 65.7 40.8C65.6 41.3 65.5 41.9 65.3 42.4C65.5 43 65.3 43.5 65.2 44.1C65.2 44.2 65.2 44.4 65.2 44.5C65.2 44.6 65.2 44.8 65.2 44.9C65.2 45 65.2 45.2 65.3 45.3C65.3 45.4 65.4 45.6 65.5 45.7C65.6 46.2 65.9 46.6 66.1 47.1L65.8 46.8L65.9 46.9C65.9 46.9 65.9 46.9 66 47C66 47 66.1 47.1 66.2 47.2C66.2 47.3 66.3 47.4 66.3 47.7L66.2 48.2L65.9 48.5C65.7 48.6 65.6 48.6 65.5 48.6C65.4 48.6 65.4 48.6 65.3 48.6C65.2 48.6 65.2 48.6 65.2 48.6C65.1 48.6 65.1 48.6 65.1 48.6H65L64.8 48.4L63.9 47.7L64.7 47.1C65.2 46.7 65.7 46.3 66.2 45.9C66.3 45.8 66.5 45.7 66.6 45.6C66.8 45.5 66.9 45.5 67.1 45.4C67.3 45.3 67.4 45.3 67.6 45.2C67.8 45.2 67.9 45.1 68.1 45C68.3 45 68.5 45 68.6 45C68.8 45 68.9 44.9 69.1 44.9C69.3 44.9 69.4 44.8 69.6 44.8C69.8 44.8 69.9 44.7 70.1 44.7C70.8 44.6 71.4 44.8 72.1 44.7C72.8 44.7 73.4 44.8 74 45.1C74.2 45 74.3 45 74.5 45.1C74.7 45.1 74.8 45.2 74.9 45.3C75.2 45.5 75.4 45.7 75.7 45.8C76.2 46.2 76.8 46.3 77.3 46.7C77.9 46.9 78.2 47.5 78.7 47.7C78.8 47.8 78.9 47.9 79 48C79.1 48.1 79.2 48.2 79.3 48.3C79.4 48.4 79.5 48.5 79.6 48.6C79.7 48.7 79.7 48.7 79.7 48.7C79.7 48.7 79.7 48.7 79.7 48.8H79.8C79.8 48.8 79.8 48.8 79.9 48.8H80C80 48.8 80 48.8 80.1 48.7C80.5 48.4 80.8 48.1 81.2 47.8C81.5 47.8 81.6 47.6 81.8 47.4C81.9 47.2 82 47 82.2 46.8C82.5 46.5 82.6 46 83 45.8C83.2 45.5 83.6 45.2 83.7 44.8C83.8 44.6 84 44.5 84.1 44.4C84.2 44.3 84.3 44.1 84.2 43.8C84.2 43.6 84.4 43.5 84.5 43.3C84.6 43.1 84.7 43 84.6 42.8C84.4 42.4 84.8 42.2 84.9 41.8C84.9 41.6 85 41.5 85 41.3C85 41.1 85 41 85.1 40.9C85.2 39.6 85 38.6 84.8 37.9C84.6 37 84.4 36.6 84.5 36.5C84.6 36.5 84.9 36.8 85.3 37.7C85.5 38.1 85.7 38.7 85.8 39.4C85.9 40.1 85.9 40.9 85.9 41.8C85.9 42.1 86 42.6 85.7 42.9C85.6 43.1 85.6 43.3 85.6 43.5C85.6 43.7 85.5 43.9 85.4 44.1C85.5 44.3 85.4 44.5 85.3 44.7C85.2 44.9 85 45.1 84.9 45.2C84.7 45.6 84.4 45.9 84.2 46.4C84.1 46.9 83.6 47.1 83.4 47.5C83 47.8 82.6 48.1 82.4 48.6C81.9 48.8 81.6 49.3 81.2 49.6C81.1 49.6 80.9 49.7 80.7 49.8C80.5 49.9 80.4 50 80.2 50.1C80.1 50.2 80 50.2 79.9 50.3L79.8 50.4L79.7 50.3C79.5 50.2 79.4 50.1 79.2 49.9C79.1 49.8 79 49.8 78.9 49.7L78.7 49.5C78.6 49.4 78.5 49.3 78.4 49.2C78.3 49.1 78.2 49 78.1 48.9C78 48.8 77.9 48.7 77.8 48.7C77.4 48.3 76.9 48.1 76.5 47.8C76 47.6 75.5 47.4 75.1 47.1C74.6 47 74.1 46.7 73.6 46.6C73.1 46.6 72.5 46.3 72 46.3C71.9 46.3 71.7 46.3 71.6 46.2C71.5 46.2 71.3 46.1 71.2 46.1C71.1 46.1 70.9 46.1 70.8 46.1C70.7 46.1 70.5 46.2 70.4 46.2C69.9 46.3 69.3 46.3 68.8 46.5C68.3 46.6 67.7 46.8 67.3 47.2C66.7 47.2 66.4 47.7 66.1 48.1C66 47.6 66 47.2 65.9 46.7H66L65.8 47V47.2C65.8 47.3 65.7 47.3 65.7 47.4C65.7 47.5 65.6 47.5 65.6 47.6C65.6 47.6 65.6 47.6 65.6 47.5C65.6 47.5 65.6 47.5 65.5 47.5L65.4 47.6V47.8L65.3 47.9L65.1 48.2C64.9 48.5 65 48.4 65 48.4H64.9L64.7 48.3L64.5 48C64.1 47.5 63.9 46.8 63.8 46.2C63.6 45.5 63.5 44.8 63.5 44.1C63.5 43.9 63.5 43.8 63.5 43.6C63.5 43.4 63.5 43.3 63.6 43.1C63.6 42.9 63.7 42.8 63.7 42.6C63.7 42.4 63.7 42.3 63.7 42.1C63.7 41.9 63.7 41.8 63.8 41.6C63.8 41.4 63.9 41.3 64 41.1C64.1 40.9 64.1 40.8 64.2 40.6C64.3 40.4 64.3 40.3 64.3 40.1C64.5 39.5 64.7 38.8 65.2 38.4C65.5 37.8 66.1 37.5 66.3 36.9C66.5 36.6 66.6 36.3 66.8 36.1C66.9 36 67 35.9 67.1 35.8C67.2 35.7 67.4 35.6 67.5 35.6C67.9 35.1 68.5 35 68.9 34.5C69.5 34.4 69.8 33.9 70.3 33.6C70.8 33.4 71.3 33.2 71.8 32.9C72.2 32.6 72.8 32.6 73.3 32.4C73.5 32.2 73.8 32.2 74 32.2C74.3 32.2 74.5 32.2 74.7 32.1C75.2 32 75.6 31.9 76.1 31.9C76.3 31.7 76.6 31.7 76.8 31.7C77 31.8 77.3 31.9 77.5 31.9C77.7 31.9 77.9 31.9 78.2 31.9C78.4 31.9 78.6 31.9 78.8 32.1C79 32 79.2 32 79.4 32.1C79.6 32.2 79.8 32.3 79.9 32.4C80.2 32.6 80.7 32.5 80.9 32.8C81.1 32.8 81.3 32.9 81.4 33C81.5 33.1 81.7 33.2 81.8 33.3C81.9 33.4 82 33.5 82.2 33.6C82.3 33.7 82.5 33.7 82.6 33.8C82.9 33.9 83.1 34.1 83.2 34.3C83.3 34.4 83.4 34.5 83.5 34.6C83.6 34.7 83.7 34.8 83.7 34.9C84.1 35.4 84.4 35.9 84.6 36.2C84.5 36.3 84.5 36.5 84.5 36.5Z" fill="#73523F"/>
<path d="M81.1 38.6C81 38.7 80.9 38.6 80.7 38.5H80.6C80.6 38.5 80.5 38.5 80.5 38.4C80.6 38.3 80.2 38.5 80.4 38.3C80.4 38.2 80.3 38.2 80.3 38.2C80.2 38.2 80.3 38.1 80.2 38.1C80 38.3 80.4 37.8 80.1 38C80 38 80 38 80 37.9C80.1 37.7 79.9 37.8 79.9 37.8C80 37.6 79.9 37.6 79.8 37.7C80 37.4 79.9 37.4 79.6 37.6C79.5 37.6 79.6 37.4 79.4 37.5C79.3 37.5 79.2 37.5 79.2 37.4C79 37.6 79 37.5 79 37.3C78.8 37.5 78.8 37.4 78.8 37.2C78.8 37 78.6 37.4 78.6 37.1C78.5 37.1 78.5 37.1 78.4 37C78.4 36.9 78.3 36.7 78.2 36.9C78.1 36.9 78 37 78 36.8C77.9 37.1 77.8 36.9 77.8 36.8C77.7 36.8 77.7 36.6 77.6 36.8C77.5 36.7 77.4 36.9 77.4 36.8C77.3 36.7 77.3 36.6 77.2 36.8C77.1 37 77 36.7 77 36.8C76.9 36.5 76.8 36.9 76.8 36.8C76.7 36.8 76.6 36.7 76.6 36.8C76.5 36.9 76.5 36.9 76.4 36.8C76.4 37.2 76.2 36.7 76.2 36.8C76.1 36.6 76.1 36.8 76 36.8C75.9 36.9 75.8 36.6 75.8 36.8C75.7 36.8 75.7 37 75.6 36.8C75.6 37 75.4 36.7 75.4 36.8C75.3 36.8 75.3 36.8 75.2 36.8C75.1 36.5 75.1 36.8 75 36.8C74.9 36.8 74.9 37 74.8 36.8C74.7 36.8 74.6 36.7 74.6 36.8C74.6 36.9 74.3 36.4 74.4 36.8C74.4 36.9 74.2 36.5 74.2 36.8C74.3 37.1 74.1 36.8 74.1 36.8H74C73.6 36.9 73.3 36.8 73.2 36.7C73.1 36.5 73.3 36.2 73.7 35.9C73.7 35.9 73.7 35.6 73.8 35.8C73.9 35.8 73.8 35.6 73.9 35.7C73.8 35.4 74 35.6 74.1 35.6C74.2 35.6 74.3 35.6 74.3 35.5C74.3 35.3 74.5 35.5 74.5 35.4C74.6 35.5 74.7 35.5 74.7 35.3C74.8 35.4 74.8 35.2 74.9 35.2C75 35.4 75.1 35.2 75.1 35.1C75.2 35 75.3 35.1 75.3 35C75.4 35 75.5 34.9 75.6 34.9C75.7 34.8 75.8 34.7 75.9 34.8C76 34.7 76.1 34.8 76.2 34.7C76.3 34.6 76.4 34.7 76.5 34.7C76.6 34.6 76.7 35 76.8 34.7C76.9 34.7 77 34.7 77.1 34.7C77.2 34.7 77.3 34.8 77.4 34.7C77.5 35 77.6 34.8 77.7 34.7C77.8 34.6 77.9 34.7 78 34.7C78.1 34.7 78.2 34.7 78.3 34.8C78.4 34.7 78.5 35 78.6 34.9C78.7 34.8 78.8 35.1 78.9 35C79 35 79.1 34.9 79.2 35.1C79.3 35.1 79.3 35.4 79.5 35.2C79.6 35.2 79.8 34.9 79.8 35.3C79.9 35.2 79.9 35.6 80 35.4C79.9 35.7 80.1 35.5 80.2 35.6C80.2 35.7 80.3 35.8 80.4 35.8C80.5 35.7 80.5 36 80.6 36C80.8 35.9 80.6 36.3 80.8 36.2C80.8 36.3 80.9 36.3 80.9 36.4C81.2 36.2 81 36.5 81 36.6C81 36.7 81.3 36.5 81.1 36.8C81.4 36.6 81.2 36.9 81.2 37C81.2 37.1 81.4 37 81.3 37.2C81.5 37.1 81.3 37.4 81.4 37.3C81.3 37.4 81.5 37.4 81.5 37.4C81.6 37.4 81.6 37.5 81.5 37.5V37.6C81.2 38.4 81.1 38.6 81.1 38.6Z" fill="#73523F"/>
<path d="M78 60.3C77.9 60.2 77.9 60.1 78 59.9V59.7C78.1 59.8 77.8 59.5 78 59.6C78.1 59.6 78.1 59.5 78 59.5C78 59.4 78.1 59.5 78 59.4C77.8 59.2 78.3 59.5 78 59.3C78 59.2 78 59.2 78 59.1C78.2 59.2 78.1 59 78 58.9C78.3 59 78.2 58.9 78 58.7C78.4 58.8 78.3 58.7 78 58.5C78 58.4 78.2 58.4 78 58.3C78 58.2 77.9 58.2 78 58.1C77.8 58 77.8 57.9 78 57.9C77.8 57.8 77.9 57.7 78 57.7C78.2 57.7 77.8 57.5 78 57.5C78 57.4 78 57.4 78 57.3C78.1 57.2 78.2 57.2 78 57.1C77.9 57 77.9 57 78 56.9C77.7 56.8 77.8 56.8 78 56.7C77.9 56.6 78.1 56.5 78 56.5C78 56.4 77.9 56.4 78 56.3C78.1 56.2 78.1 56.1 78 56.1C77.8 56.1 78 55.9 77.9 55.9C78.1 55.8 77.8 55.8 77.9 55.7C77.9 55.6 78 55.5 77.8 55.5C77.7 55.4 77.7 55.4 77.7 55.3C77.3 55.4 77.7 55.1 77.6 55.1C77.7 55 77.5 55 77.5 54.9C77.4 54.9 77.6 54.7 77.4 54.7C77.4 54.6 77.2 54.6 77.3 54.5C77.1 54.5 77.4 54.3 77.2 54.3C77.2 54.2 77.1 54.2 77.1 54.1C77.3 53.9 77.1 54 77 53.9C77 53.8 76.8 53.9 76.9 53.7C76.9 53.6 77 53.5 76.8 53.5C76.7 53.5 77.1 53.1 76.7 53.4C76.6 53.4 76.9 53.1 76.6 53.3C76.4 53.4 76.6 53.2 76.5 53.2V53.1C76.3 52.7 76.3 52.5 76.4 52.3C76.5 52.2 76.9 52.3 77.3 52.6C77.3 52.6 77.5 52.5 77.4 52.7C77.4 52.7 77.6 52.7 77.5 52.8C77.8 52.7 77.6 52.9 77.6 52.9C77.7 52.9 77.6 53.1 77.7 53C77.9 53 77.7 53.2 77.8 53.2C77.7 53.4 77.8 53.4 78 53.4C77.9 53.6 78.1 53.5 78.1 53.6C77.9 53.8 78.1 53.8 78.2 53.8C78.3 53.8 78.2 54 78.3 54C78.3 54.1 78.4 54.1 78.4 54.2C78.5 54.2 78.6 54.3 78.5 54.4C78.6 54.5 78.6 54.6 78.6 54.7C78.7 54.8 78.7 54.9 78.7 55C78.8 55.1 78.5 55.3 78.8 55.3C78.9 55.4 78.8 55.5 78.9 55.6C78.9 55.7 78.9 55.8 79 55.9C78.7 56.1 78.9 56.1 79.1 56.2C79.2 56.3 79.2 56.4 79.1 56.5C79.1 56.6 79.1 56.7 79.1 56.8C79.2 56.9 79 57 79.1 57.1C79.2 57.2 79 57.3 79.1 57.4C79.2 57.5 79.2 57.6 79.1 57.7C79.1 57.8 78.8 57.9 79.1 58C79.1 58.1 79.5 58.3 79 58.3C79.1 58.4 78.8 58.4 78.9 58.6C78.6 58.6 78.8 58.8 78.8 58.9C78.7 59 78.6 59 78.7 59.1C78.8 59.2 78.6 59.2 78.6 59.3C78.7 59.4 78.3 59.4 78.5 59.5C78.4 59.6 78.5 59.6 78.4 59.7C78.7 59.9 78.3 59.8 78.3 59.9C78.2 59.9 78.5 60.2 78.2 60.1C78.4 60.3 78.2 60.2 78.1 60.2C78 60.2 78.1 60.4 78 60.3C78.1 60.5 77.8 60.3 77.9 60.4C77.8 60.4 77.8 60.5 77.8 60.5C77.8 60.6 77.8 60.6 77.7 60.6H77.6C78.3 60.4 78.1 60.4 78 60.3Z" fill="#73523F"/>
<path d="M56.3 63C56.4 62.9 56.5 62.9 56.7 62.8H56.9C56.9 63 57.1 62.6 57 62.8C57 62.9 57.1 62.8 57.1 62.8C57.2 62.8 57.2 62.9 57.2 62.8C57.3 62.5 57.2 63.1 57.3 62.8C57.4 62.7 57.4 62.8 57.5 62.8C57.5 63 57.6 62.8 57.7 62.8C57.7 63.1 57.8 63 57.9 62.8C57.9 63.2 58 63.1 58.1 62.8C58.2 62.8 58.2 62.9 58.3 62.8C58.4 62.8 58.4 62.7 58.5 62.8C58.6 62.6 58.6 62.6 58.7 62.8C58.8 62.5 58.8 62.6 58.9 62.8C59 62.9 59 62.6 59.1 62.8C59.2 62.8 59.2 62.7 59.3 62.8C59.4 62.9 59.5 63 59.5 62.7C59.6 62.6 59.6 62.5 59.7 62.6C59.7 62.3 59.8 62.4 59.9 62.5C60 62.4 60.1 62.6 60.1 62.4C60.2 62.4 60.2 62.2 60.3 62.3C60.4 62.3 60.5 62.4 60.5 62.2C60.5 62 60.7 62.2 60.7 62.1C60.9 62.3 60.8 62 60.9 62C61 61.9 61.1 62 61.1 61.9C61.1 61.8 61.2 61.7 61.3 61.8C61.1 61.4 61.5 61.8 61.5 61.7C61.7 61.8 61.6 61.6 61.7 61.6C61.7 61.5 61.9 61.7 61.9 61.5C62 61.5 61.9 61.3 62.1 61.4C62 61.2 62.3 61.4 62.3 61.3C62.4 61.3 62.4 61.2 62.5 61.2C62.8 61.4 62.6 61.1 62.6 61.1C62.7 61.1 62.5 60.9 62.7 61C62.8 61 62.9 61 62.8 60.9C62.8 60.8 63.2 61.1 62.9 60.8C62.9 60.7 63.2 60.9 63 60.7C62.8 60.5 63.1 60.6 63.1 60.6L63.2 60.5C63.5 60.3 63.8 60.1 63.9 60.2C64.1 60.3 64.1 60.6 63.9 61.1C63.9 61.1 64 61.3 63.8 61.3C63.8 61.3 63.9 61.5 63.7 61.5C63.9 61.7 63.7 61.6 63.6 61.7C63.6 61.8 63.5 61.8 63.5 61.9C63.6 62.1 63.3 62 63.4 62.1C63.2 62 63.2 62.1 63.3 62.3C63.1 62.2 63.2 62.4 63.2 62.5C63 62.4 63 62.6 63 62.7C63 62.8 62.9 62.8 62.8 62.9C62.7 62.9 62.7 63.1 62.6 63.1C62.6 63.3 62.6 63.3 62.4 63.3C62.4 63.4 62.3 63.4 62.2 63.5C62.2 63.6 62 63.6 62 63.7C61.9 63.8 61.7 63.6 61.8 63.9C61.7 64 61.6 64 61.5 64.1C61.4 64.1 61.3 64.1 61.2 64.3C61 64.1 61 64.3 60.9 64.4C61 64 60.9 64 60.8 64C60.7 64.1 60.6 64.1 60.5 64.1C60.4 64.2 60.3 64 60.2 64.2C60.1 64.4 60 64.1 59.9 64.3C59.8 64.4 59.7 64.5 59.6 64.4C59.5 64.4 59.4 64.2 59.3 64.4C59.2 64.5 59.1 64.8 59 64.4C58.9 64.5 58.8 64.2 58.7 64.4C58.6 64.1 58.5 64.4 58.4 64.4C58.3 64.3 58.2 64.3 58.1 64.4C58 64.5 57.9 64.3 57.9 64.3C57.8 64.5 57.8 64.1 57.7 64.2C57.6 64.2 57.5 64.2 57.5 64.1C57.4 64.5 57.4 64.1 57.3 64C57.2 63.9 57.1 64.2 57.1 63.9C57 64.2 57 63.9 56.9 63.8C56.9 63.7 56.7 63.9 56.8 63.7C56.7 63.9 56.7 63.6 56.7 63.6C56.7 63.5 56.6 63.6 56.6 63.5C56.5 63.5 56.5 63.5 56.5 63.4L56.4 63.3C56.3 63.3 56.2 63.1 56.3 63Z" fill="#73523F"/>
<path d="M48 42.7C48.1 42.7 48.2 42.9 48.3 43V43.2C48.1 43.2 48.6 43.3 48.3 43.3C48.2 43.3 48.3 43.4 48.3 43.4C48.3 43.4 48.2 43.5 48.3 43.5C48.6 43.6 48 43.6 48.3 43.6C48.4 43.6 48.4 43.7 48.3 43.8C48.1 43.9 48.3 43.9 48.3 44C48 44.1 48.2 44.1 48.3 44.2C48 44.3 48 44.4 48.4 44.4C48.4 44.5 48.3 44.5 48.5 44.6C48.5 44.7 48.6 44.7 48.6 44.8C48.9 44.8 48.9 44.9 48.7 45C49 45 48.9 45.1 48.8 45.2C48.7 45.3 49.1 45.2 48.9 45.4C48.9 45.5 49 45.5 49 45.6C48.9 45.7 48.9 45.8 49.1 45.8C49.2 45.8 49.3 45.9 49.2 46C49.5 45.9 49.4 46 49.3 46.2C49.4 46.2 49.3 46.4 49.4 46.4C49.4 46.5 49.6 46.4 49.6 46.6C49.6 46.7 49.6 46.8 49.8 46.8C50 46.7 49.9 47 50 47C49.9 47.2 50.2 47.1 50.2 47.2C50.3 47.2 50.2 47.4 50.4 47.4C50.5 47.4 50.6 47.4 50.6 47.6C50.9 47.3 50.7 47.8 50.8 47.8C50.8 48 50.9 47.9 51 47.9C51.1 47.9 51 48.1 51.2 48C51.2 48.1 51.4 48 51.4 48.1C51.6 48 51.4 48.3 51.6 48.2C51.7 48.2 51.7 48.3 51.8 48.3C51.7 48.6 51.9 48.4 52 48.4C52 48.5 52.2 48.3 52.1 48.5C52.1 48.5 52.1 48.7 52.2 48.6C52.3 48.6 52.1 49.1 52.3 48.7C52.4 48.7 52.3 49 52.4 48.8C52.5 48.6 52.5 48.9 52.5 48.9L52.6 49C52.9 49.2 53.1 49.5 53.1 49.6C53.1 49.8 52.7 49.9 52.2 49.8C52.1 49.8 52 50 52 49.8C51.9 49.8 51.8 49.9 51.8 49.8C51.6 50 51.7 49.8 51.6 49.8C51.5 49.8 51.5 49.7 51.4 49.7C51.3 49.8 51.3 49.6 51.2 49.6C51.2 49.4 51.1 49.4 51 49.5C51 49.3 50.8 49.5 50.8 49.4C50.9 49.1 50.7 49.2 50.6 49.3C50.5 49.3 50.5 49.2 50.4 49.2C50.4 49.1 50.2 49.2 50.2 49.1C50.1 49.1 50 49.1 50 49C49.9 49 49.8 48.9 49.8 48.8C49.7 48.8 49.7 48.7 49.6 48.6C49.5 48.6 49.6 48.3 49.4 48.4C49.3 48.4 49.3 48.2 49.2 48.2C49.2 48.1 49.1 48 49 48C49.1 47.7 49 47.8 48.8 47.8C48.7 47.8 48.6 47.7 48.6 47.5C48.5 47.4 48.5 47.3 48.4 47.2C48.3 47.2 48.4 47 48.2 46.9C48 46.9 48.2 46.7 48.1 46.6C48 46.5 47.9 46.5 48 46.3C47.5 46.2 47.8 46 47.5 46C47.4 45.9 47.1 46 47.4 45.7C47.3 45.6 47.5 45.5 47.3 45.4C47.6 45.2 47.3 45.2 47.2 45.1C47.2 45 47.3 44.9 47.2 44.8C47 44.7 47.2 44.6 47.2 44.5C47 44.4 47.4 44.3 47.2 44.3C47.2 44.2 47.2 44.1 47.2 44.1C46.8 44.1 47.2 44 47.2 43.9C47.3 43.8 46.9 43.8 47.2 43.7C46.9 43.6 47.2 43.6 47.3 43.5C47.4 43.4 47.2 43.4 47.4 43.3C47.2 43.2 47.5 43.2 47.5 43.1C47.6 43.1 47.5 43 47.6 43C47.6 42.9 47.6 42.9 47.7 42.9C47.7 42.9 47.7 42.8 47.8 42.8C47.8 42.7 47.9 42.7 48 42.7Z" fill="#73523F"/>
<path d="M65.5 29.5C65.5 29.6 65.4 29.7 65.2 29.8C65.2 29.8 65.1 29.8 65.1 29.9L65 30C64.9 29.9 65 30.3 64.9 30.1C64.9 30 64.8 30.1 64.8 30.2C64.8 30.3 64.7 30.1 64.7 30.3C64.7 30.6 64.5 30 64.6 30.4C64.6 30.5 64.5 30.5 64.5 30.5C64.4 30.3 64.4 30.5 64.4 30.6C64.3 30.4 64.2 30.5 64.3 30.7C64.1 30.4 64.1 30.5 64.2 30.8C64.2 30.8 64 30.7 64 30.9C64 30.9 63.9 31 63.8 31C63.9 31.2 63.8 31.3 63.6 31.1C63.7 31.4 63.6 31.3 63.4 31.2C63.3 31.1 63.4 31.5 63.2 31.3C63.1 31.3 63.1 31.4 63 31.4C62.9 31.4 62.7 31.3 62.8 31.6C62.8 31.7 62.8 31.8 62.6 31.8C62.7 32 62.6 32 62.5 32C62.5 32.1 62.3 32 62.3 32.2C62.2 32.2 62.3 32.4 62.2 32.4C62.1 32.4 62 32.4 62.1 32.6C62.2 32.8 62 32.7 62 32.8C61.7 32.7 62 33 61.9 33C61.9 33.1 61.7 33.1 61.8 33.2C61.8 33.3 61.8 33.4 61.7 33.4C62 33.6 61.5 33.5 61.6 33.6C61.4 33.6 61.6 33.7 61.5 33.8C61.5 33.9 61.3 33.9 61.4 34C61.3 34.1 61.5 34.2 61.3 34.2C61.5 34.3 61.1 34.3 61.2 34.4C61.2 34.5 61.2 34.5 61.1 34.6C60.8 34.6 61 34.7 61 34.8C61 34.9 61.1 35 60.9 35C60.9 35.1 60.7 35.1 60.8 35.2C60.8 35.3 60.3 35.2 60.7 35.4C60.8 35.5 60.4 35.5 60.6 35.5C60.8 35.6 60.6 35.6 60.5 35.6C60.5 35.6 60.5 35.7 60.4 35.7C60.3 36.1 60.1 36.3 59.9 36.3C59.7 36.3 59.5 36 59.4 35.5C59.4 35.4 59.2 35.4 59.4 35.3C59.4 35.2 59.2 35.2 59.4 35.1C59.1 35 59.4 35 59.4 34.9C59.4 34.8 59.5 34.8 59.4 34.7C59.3 34.6 59.5 34.6 59.4 34.5C59.6 34.5 59.6 34.4 59.4 34.3C59.6 34.3 59.4 34.1 59.4 34.1C59.7 34.1 59.5 34 59.4 33.9C59.3 33.8 59.5 33.7 59.4 33.6C59.5 33.5 59.4 33.4 59.5 33.3C59.4 33.2 59.4 33.1 59.6 33C59.6 32.9 59.6 32.8 59.7 32.7C59.6 32.6 59.8 32.5 59.8 32.4C59.8 32.3 60.1 32.4 59.9 32.1C59.9 32 60 31.9 60.1 31.8C60.2 31.7 60.3 31.7 60.3 31.5C60.6 31.6 60.5 31.4 60.5 31.2C60.5 31.1 60.6 31 60.7 30.9C60.7 30.8 60.8 30.7 60.9 30.7C60.9 30.6 61.1 30.6 61.1 30.5C61.1 30.3 61.3 30.5 61.3 30.3C61.3 30.2 61.4 30.1 61.5 30.1C61.6 30 61.8 30.2 61.7 29.9C61.7 29.8 61.6 29.5 61.9 29.7C61.9 29.6 62.2 29.8 62.1 29.6C62.3 29.8 62.3 29.5 62.3 29.5C62.4 29.5 62.5 29.5 62.5 29.4C62.5 29.2 62.7 29.4 62.7 29.3C62.7 29.1 62.9 29.4 62.9 29.2C63 29.2 63 29.1 63.1 29.2C63 28.8 63.2 29.2 63.3 29.2C63.4 29.2 63.4 28.9 63.5 29.2C63.5 28.9 63.6 29.1 63.7 29.2C63.8 29.3 63.8 29.1 63.9 29.2C63.9 29 64 29.3 64.1 29.2C64.2 29.3 64.2 29.2 64.2 29.2H64.4C65.4 29.3 65.5 29.4 65.5 29.5Z" fill="#73523F"/>
</svg>
