<svg width="85" height="59" viewBox="0 0 85 59" fill="none" xmlns="http://www.w3.org/2000/svg">
<path d="M7.7 57.8584C7.6 57.8584 7.7 57.2584 7.8 56.0584C7.9 54.8584 8.1 53.1584 8.6 51.0584C8.8 50.3584 8.9 49.5584 9.1 48.7584C9.2 48.3584 9.3 47.9584 9.4 47.4584C9.5 47.2584 9.5 47.0584 9.6 46.7584C9.7 46.5584 9.7 46.3584 9.8 46.0584C10 45.6584 10.1 45.1584 10.2 44.6584C10.3 44.1584 10.5 43.6584 10.8 43.1584C11 42.6584 11.3 42.1584 11.5 41.6584C11.7 41.1584 11.9 40.6584 12.2 40.0584C12.3 39.7584 12.4 39.5584 12.6 39.2584C12.7 38.9584 12.9 38.7584 13 38.4584C13.1 38.1584 13.3 37.9584 13.4 37.6584C13.6 37.3584 13.7 37.1584 13.8 36.8584C13.9 36.5584 14 36.2584 14.2 35.9584C14.4 35.6584 14.6 35.4584 14.8 35.1584C15 34.8584 15.2 34.6584 15.4 34.3584C15.6 34.0584 15.8 33.7584 15.9 33.4584C16.3 32.8584 16.7 32.3584 17.1 31.7584C17.3 31.4584 17.6 31.2584 17.8 30.9584C18 30.6584 18.3 30.4584 18.5 30.1584C18.8 29.9584 19.1 29.6584 19.3 29.4584C19.4 29.3584 19.6 29.1584 19.7 29.0584C19.8 28.9584 20 28.7584 20.1 28.6584C20.4 28.3584 20.6 28.1584 20.9 27.8584C21.2 27.5584 21.4 27.3584 21.7 27.0584C21.9 26.9584 22 26.8584 22.2 26.7584C22.4 26.6584 22.5 26.5584 22.7 26.4584C23 26.2584 23.3 25.9584 23.6 25.7584C24.2 25.2584 24.8 24.7584 25.5 24.2584C25.9 24.1584 26.3 23.9584 26.6 23.7584C27 23.5584 27.3 23.3584 27.7 23.1584C28.1 22.9584 28.4 22.7584 28.8 22.5584C29 22.4584 29.2 22.3584 29.3 22.2584C29.5 22.1584 29.7 22.0584 29.8 21.8584C31.4 21.1584 33 20.7584 34.7 20.1584C36.4 19.6584 38.2 19.3584 40 19.2584C41.8 18.8584 43.7 18.9584 45.6 19.3584C47.5 19.2584 49.5 19.7584 51.3 20.4584C51.8 20.6584 52.2 20.7584 52.7 20.9584C53.2 21.1584 53.6 21.2584 54.1 21.4584C54.6 21.6584 55 21.8584 55.5 22.0584C56 22.2584 56.4 22.5584 56.8 22.7584C58.6 23.7584 60.4 24.7584 62 26.0584C63.6 27.4584 65 28.9584 66.6 30.3584C68.1 31.8584 69.4 33.5584 70.5 35.5584C71.9 37.2584 72.8 39.2584 73.6 41.3584C73.7 41.5584 73.8 41.8584 73.9 42.1584C74 42.4584 74.1 42.6584 74.2 42.9584C74.4 43.4584 74.6 43.9584 74.8 44.5584C75.1 45.6584 75.5 46.6584 75.9 47.7584C76 48.0584 76 48.2584 76.1 48.5584C76.2 48.8584 76.2 49.0584 76.3 49.3584C76.4 49.8584 76.6 50.4584 76.7 50.9584C76.8 51.4584 76.9 52.0584 77.1 52.6584L77.3 53.4584C77.3 53.7584 77.4 54.0584 77.4 54.2584C77.5 54.8584 77.6 55.3584 77.6 55.9584V56.3584L77.7 56.9584C77.8 57.4584 77.8 57.9584 77.9 58.4584V58.5584H75.5C74.9 58.5584 74.4 58.5584 73.8 58.6584C71.6 58.8584 69.4 58.5584 67.3 58.6584C65.1 58.3584 63 58.7584 60.9 58.6584C60.4 58.6584 59.8 58.6584 59.3 58.6584H58.9C58.8 58.6584 58.6 58.6584 58.5 58.6584C58.4 58.6584 58.2 58.6584 58.1 58.5584L57.7 58.4584C56.6 58.1584 55.5 57.7584 54.5 57.1584C53.5 56.5584 52.7 55.8584 51.9 55.0584C51.1 54.2584 50.5 53.4584 49.9 52.5584C49.1 51.7584 48.6 50.8584 48.2 49.9584C47.8 49.0584 47.4 48.0584 46.9 47.1584C46.2 45.2584 45.3 43.4584 44.7 41.6584C44 39.8584 43.7 37.9584 43.1 36.1584C42.7 34.3584 42.1 32.5584 41.9 30.7584C41.8 30.3584 41.7 29.9584 41.6 29.5584C42.1 29.5584 42.7 29.5584 43.2 29.5584C43 30.9584 42.5 32.2584 42.3 33.6584C41.9 35.3584 41.5 37.0584 41 38.5584C40.2 40.0584 40 41.6584 39.4 43.1584C38.8 44.6584 38.4 46.1584 37.6 47.4584C36.9 48.8584 36.1 50.0584 35.4 51.3584C35 51.9584 34.5 52.5584 34.1 53.0584C33.6 53.5584 33.2 54.0584 32.9 54.7584C32.5 55.2584 31.9 55.7584 31.4 56.0584C30.8 56.4584 30.3 56.7584 29.8 57.2584C29.3 57.6584 28.6 57.9584 28 58.0584C27.4 58.1584 26.7 58.1584 26.1 58.1584C24.9 58.1584 23.8 58.1584 22.8 58.1584C18.1 58.0584 14.3 58.0584 11.8 57.9584C9 58.0584 7.7 57.9584 7.7 57.8584C7.7 57.7584 8.1 57.7584 8.9 57.6584C9.7 57.6584 10.9 57.5584 12.5 57.5584C15.6 57.4584 20.2 57.3584 25.9 57.3584C26.4 57.3584 27 57.2584 27.5 57.0584C28 56.8584 28.5 56.6584 29.1 56.4584C29.6 56.1584 30.1 55.7584 30.5 55.3584C31 54.9584 31.4 54.5584 31.9 54.0584C32.2 53.4584 32.6 52.9584 33.1 52.4584C33.5 51.9584 34 51.4584 34.3 50.8584C35 49.6584 35.8 48.4584 36.3 47.0584C36.8 45.6584 37.6 44.3584 38 42.8584C38.7 41.4584 39.2 39.8584 39.5 38.2584C40.1 36.7584 40.4 35.0584 40.8 33.3584C41.3 32.0584 41.5 30.7584 41.7 29.3584H43C43.1 29.7584 43.2 30.1584 43.3 30.4584C43.7 32.1584 44 33.9584 44.5 35.7584C44.9 37.5584 45.6 39.3584 46.1 41.1584C46.8 42.9584 47.6 44.6584 48.2 46.4584C49.1 48.1584 50 49.9584 51.1 51.5584C51.7 52.3584 52.3 53.0584 53 53.8584C53.7 54.5584 54.4 55.2584 55.2 55.7584C56 56.2584 56.8 56.6584 57.8 56.8584L58.1 56.9584C58.2 56.9584 58.3 56.9584 58.4 56.9584C58.5 56.9584 58.6 56.9584 58.8 56.9584H59.2C59.7 56.9584 60.3 56.9584 60.8 56.8584C62.9 56.8584 65.1 56.8584 67.2 56.8584C69.4 56.8584 71.5 56.9584 73.7 56.8584C74.3 56.9584 74.8 56.9584 75.4 56.9584H76.1C76.1 56.8584 76.1 56.7584 76 56.7584V56.2584C75.9 55.7584 75.8 55.1584 75.7 54.6584C75.6 54.3584 75.6 54.1584 75.5 53.8584L75.3 53.0584C75.2 52.5584 75.1 51.9584 75 51.4584C74.9 50.9584 74.8 50.3584 74.6 49.8584C74.5 49.5584 74.5 49.3584 74.4 49.0584L74.2 48.2584C73.9 47.2584 73.5 46.1584 73.2 45.1584C73 44.6584 72.8 44.1584 72.6 43.6584C72.5 43.3584 72.4 43.1584 72.3 42.9584L72 42.2584C71.1 40.3584 70.3 38.3584 69.1 36.6584C68.8 36.2584 68.5 35.8584 68.2 35.3584C67.9 34.9584 67.6 34.5584 67.3 34.0584C66.7 33.2584 66.1 32.3584 65.4 31.6584C64 30.1584 62.5 28.8584 61.1 27.5584C60.7 27.2584 60.3 26.9584 59.9 26.6584L59.3 26.1584C59.2 26.0584 59.1 25.9584 59 25.9584L58.7 25.7584C57.9 25.1584 57.1 24.6584 56.2 24.3584C55.8 24.1584 55.3 23.9584 54.9 23.7584C54.5 23.5584 54 23.4584 53.6 23.2584C53.2 23.1584 52.7 22.9584 52.3 22.7584C51.9 22.5584 51.4 22.3584 51 22.1584C50.5 22.0584 50.1 21.9584 49.7 21.7584C49.3 21.6584 48.8 21.5584 48.4 21.3584C48 21.2584 47.5 21.1584 47.1 21.0584C46.6 20.9584 46.2 20.9584 45.7 20.9584C44.8 20.7584 43.9 20.6584 43 20.6584C42.6 20.6584 42.1 20.6584 41.7 20.7584C41.5 20.7584 41.3 20.7584 41 20.7584C40.8 20.7584 40.6 20.7584 40.3 20.8584C38.6 20.9584 36.8 21.1584 35.2 21.6584C33.6 22.2584 32 22.5584 30.5 23.2584C30.3 23.3584 30.1 23.4584 30 23.5584C29.8 23.6584 29.6 23.7584 29.5 23.8584C29.1 24.0584 28.8 24.1584 28.4 24.3584C28 24.5584 27.7 24.6584 27.3 24.8584C27 25.0584 26.6 25.2584 26.3 25.5584C25.6 25.9584 25 26.3584 24.4 26.8584C24.1 27.0584 23.8 27.3584 23.5 27.5584C23.4 27.6584 23.2 27.7584 23.1 27.8584C23 27.9584 22.8 28.0584 22.7 28.1584C22.5 28.4584 22.2 28.7584 22 28.9584C21.7 29.2584 21.5 29.4584 21.2 29.6584C21.1 29.7584 20.9 29.8584 20.8 29.9584C20.7 30.0584 20.5 30.1584 20.4 30.2584C20.1 30.4584 19.9 30.7584 19.6 30.9584C19.4 31.2584 19.1 31.4584 18.9 31.7584C18.7 32.0584 18.5 32.2584 18.3 32.5584C17.9 33.1584 17.5 33.6584 17 34.0584C16.9 34.3584 16.7 34.6584 16.5 34.9584C16.3 35.2584 16.2 35.4584 16 35.7584C15.8 36.0584 15.6 36.2584 15.4 36.4584C15.2 36.7584 15 36.9584 14.9 37.2584C14.7 37.5584 14.6 37.7584 14.4 38.0584C14.3 38.3584 14.1 38.5584 14 38.8584C13.9 39.1584 13.7 39.3584 13.6 39.6584C13.5 39.9584 13.3 40.1584 13.2 40.3584C13 40.9584 12.8 41.3584 12.5 41.8584C12.2 42.3584 12 42.7584 11.8 43.2584C11.5 43.7584 11.4 44.1584 11.2 44.6584C11 45.1584 10.9 45.5584 10.7 46.0584C10.6 46.2584 10.6 46.5584 10.5 46.7584C10.4 46.9584 10.4 47.1584 10.3 47.4584C10.2 47.8584 10 48.2584 9.9 48.6584C9.7 49.4584 9.5 50.2584 9.3 50.9584C8.8 53.0584 8.4 54.7584 8.2 55.8584C7.9 57.2584 7.7 57.8584 7.7 57.8584Z" fill="#73523F"/>
<path d="M84.7 57.8584C84.7 57.9584 83.8 58.0584 82.1 58.1584C81.8 58.1584 81.5 58.1584 81.2 58.1584C80.9 58.1584 80.5 58.2584 80.2 58.1584C79.8 58.0584 79.4 58.4584 79 58.1584C78.6 58.0584 78.2 58.1584 77.7 58.1584C77.3 58.2584 76.8 58.0584 76.3 58.1584C75.8 58.4584 75.3 57.8584 74.8 58.1584C74.3 58.2584 73.7 58.2584 73.2 58.1584C72.6 57.9584 72.1 58.1584 71.5 58.1584C70.9 57.8584 70.3 58.0584 69.7 58.1584C69.1 57.7584 68.5 57.8584 67.8 58.1584C67.2 58.1584 66.5 58.0584 65.8 58.1584C65.1 58.1584 64.4 58.2584 63.7 58.1584C63 58.3584 62.3 58.3584 61.6 58.1584C60.9 58.4584 60.1 58.3584 59.4 58.1584C58.7 58.0584 57.9 58.3584 57.1 58.1584C56.3 58.1584 55.6 58.2584 54.8 58.1584C54 58.0584 53.2 57.9584 52.4 58.1584C51.6 58.2584 50.8 58.3584 50 58.1584C49.2 58.4584 48.3 58.3584 47.5 58.1584C46.7 58.1584 45.8 57.9584 45 58.1584C44.1 58.1584 43.3 58.2584 42.4 58.1584C41.5 58.0584 40.7 57.9584 39.8 58.1584C38.9 58.3584 38.1 58.0584 37.3 58.1584C36.5 57.8584 35.6 58.2584 34.8 58.1584C34 58.1584 33.2 58.0584 32.4 58.1584C31.6 58.1584 30.8 58.2584 30 58.1584C29.2 58.5584 28.4 58.0584 27.7 58.1584C26.9 57.9584 26.2 58.1584 25.4 58.1584C24.7 58.2584 23.9 57.9584 23.2 58.1584C22.5 58.1584 21.8 58.2584 21.1 58.1584C20.4 58.3584 19.7 57.9584 19 58.1584C18.3 58.1584 17.7 58.1584 17 58.1584C16.4 57.8584 15.7 58.0584 15.1 58.1584C14.5 58.1584 13.9 58.3584 13.3 58.1584C12.7 58.1584 12.1 57.9584 11.6 58.1584C11 58.1584 10.5 57.6584 10 58.1584C9.5 58.2584 9 57.8584 8.5 58.1584C8 58.4584 7.6 58.1584 7.1 58.1584C6.7 58.1584 6.2 58.1584 5.8 58.1584C2.1 58.1584 0 58.0584 0 57.8584C0 57.6584 2.6 57.4584 7.1 57.3584C7.5 57.3584 8 57.1584 8.5 57.3584C9 57.3584 9.5 57.1584 10 57.3584C10.5 57.0584 11.1 57.2584 11.6 57.3584C12.2 57.3584 12.7 57.4584 13.3 57.3584C13.9 57.1584 14.5 57.4584 15.1 57.3584C15.7 57.5584 16.3 57.4584 17 57.3584C17.6 57.5584 18.3 57.3584 19 57.3584C19.7 57.6584 20.4 57.4584 21.1 57.3584C21.8 57.2584 22.5 57.3584 23.2 57.3584C23.9 57.4584 24.7 57.2584 25.4 57.3584C26.1 57.2584 26.9 57.1584 27.7 57.3584C28.5 57.2584 29.2 57.3584 30 57.3584C30.8 57.2584 31.6 57.3584 32.4 57.3584C33.2 57.2584 34 57.6584 34.8 57.3584C35.6 57.3584 36.5 57.3584 37.3 57.3584C38.1 57.3584 39 57.4584 39.8 57.3584C40.7 57.6584 41.5 57.4584 42.4 57.3584C43.3 57.2584 44.1 57.3584 45 57.3584C45.9 57.3584 46.7 57.3584 47.5 57.3584C48.3 57.2584 49.2 57.4584 50 57.3584C50.8 57.2584 51.6 57.4584 52.4 57.3584C53.2 57.2584 54 57.2584 54.8 57.3584C55.6 57.3584 56.4 57.6584 57.1 57.3584C57.9 57.2584 58.6 56.9584 59.4 57.3584C60.1 57.2584 60.9 57.5584 61.6 57.3584C62.3 57.6584 63 57.3584 63.7 57.3584C64.4 57.4584 65.1 57.5584 65.8 57.3584C66.5 57.2584 67.1 57.4584 67.8 57.3584C68.4 57.1584 69.1 57.5584 69.7 57.3584C70.3 57.3584 70.9 57.3584 71.5 57.3584C72.1 56.9584 72.7 57.3584 73.2 57.3584C73.8 57.4584 74.3 57.0584 74.8 57.3584C75.3 57.0584 75.8 57.3584 76.3 57.3584C76.8 57.4584 77.2 57.2584 77.7 57.3584C78.1 57.1584 78.6 57.4584 79 57.3584C79.4 57.4584 79.8 57.3584 80.2 57.3584C80.6 57.3584 80.9 57.3584 81.2 57.3584C81.5 57.3584 81.8 57.3584 82.1 57.3584C83.7 57.6584 84.7 57.7584 84.7 57.8584Z" fill="#73523F"/>
<path d="M42.3 20.0584C42.2 20.0584 42.1 19.8584 42 19.4584C42 19.3584 42 19.3584 42 19.2584C42 19.1584 41.9 19.0584 42 19.0584C42.1 18.9584 41.7 18.8584 42 18.7584C42.1 18.6584 42 18.5584 42 18.4584C41.9 18.3584 42.1 18.2584 42 18.1584C41.7 18.0584 42.3 17.9584 42 17.8584C41.9 17.7584 41.9 17.6584 42 17.4584C42.2 17.3584 42 17.1584 42 17.0584C42.3 16.9584 42.1 16.7584 42 16.6584C42.4 16.5584 42.3 16.3584 42 16.2584C42 16.1584 42.1 15.9584 42 15.7584C42 15.5584 41.9 15.4584 42 15.2584C41.8 15.0584 41.8 14.9584 42 14.7584C41.7 14.5584 41.8 14.4584 42 14.2584C42.1 14.0584 41.8 13.9584 42 13.7584C42 13.5584 41.9 13.3584 42 13.2584C42.1 13.0584 42.2 12.8584 42 12.7584C41.9 12.5584 41.9 12.3584 42 12.1584C41.7 11.9584 41.8 11.7584 42 11.5584C42 11.3584 42.1 11.1584 42 10.9584C42 10.7584 41.9 10.5584 42 10.3584C42.1 10.1584 42.2 9.95845 42 9.75845C41.8 9.55845 42.1 9.35845 42 9.15845C42.3 8.95845 41.9 8.75845 42 8.55845C42 8.35845 42.1 8.15845 42 7.95845C42 7.75845 41.9 7.55845 42 7.45845C41.6 7.25845 42.1 7.05845 42 6.95845C42.2 6.75845 42 6.65845 42 6.45845C41.9 6.25845 42.2 6.15845 42 5.95845C42 5.75845 41.9 5.65845 42 5.45845C41.8 5.25845 42.2 5.15845 42 4.95845C42 4.75845 42 4.65845 42 4.45845C42.3 4.35845 42.1 4.15845 42 4.05845C42 3.95845 41.8 3.75845 42 3.65845C42 3.55845 42.2 3.35845 42 3.25845C42 3.15845 42.5 3.05845 42 2.85845C41.9 2.75845 42.3 2.65845 42 2.55845C41.7 2.45845 42 2.35845 42 2.25845C42 2.15845 42 2.05845 42 1.95845C42.1 1.15845 42.3 0.658446 42.5 0.658446C42.7 0.658446 42.9 1.25845 43 2.25845C43 2.35845 43.2 2.45845 43 2.55845C43 2.65845 43.2 2.75845 43 2.85845C43.3 2.95845 43.1 3.05845 43 3.25845C43 3.35845 42.9 3.55845 43 3.65845C43.2 3.75845 42.9 3.95845 43 4.05845C42.8 4.15845 42.9 4.35845 43 4.45845C42.8 4.55845 43 4.75845 43 4.95845C42.7 5.15845 42.9 5.25845 43 5.45845C43.1 5.65845 43 5.75845 43 5.95845C42.9 6.15845 43.1 6.25845 43 6.45845C43.1 6.65845 43.2 6.75845 43 6.95845C43.1 7.15845 43 7.35845 43 7.45845C43.1 7.65845 43 7.85845 43 7.95845C43.1 8.15845 42.7 8.35845 43 8.55845C43 8.75845 43 8.95845 43 9.15845C43 9.35845 42.9 9.55845 43 9.75845C42.7 9.95845 42.9 10.1584 43 10.3584C43.1 10.5584 43 10.7584 43 10.9584C43 11.1584 43 11.3584 43 11.5584C43.1 11.7584 42.9 11.9584 43 12.1584C43.1 12.3584 42.9 12.5584 43 12.7584C43.1 12.9584 43.1 13.1584 43 13.2584C43 13.4584 42.7 13.6584 43 13.7584C43.1 13.9584 43.4 14.0584 43 14.2584C43.1 14.4584 42.8 14.5584 43 14.7584C42.7 14.9584 43 15.0584 43 15.2584C42.9 15.4584 42.8 15.5584 43 15.7584C43.1 15.9584 42.9 16.0584 43 16.2584C43.2 16.3584 42.8 16.5584 43 16.6584C43 16.7584 43 16.9584 43 17.0584C43.4 17.1584 43 17.3584 43 17.4584C42.9 17.5584 43.3 17.6584 43 17.8584C43.3 17.9584 43 18.0584 43 18.1584C42.9 18.2584 43.1 18.3584 43 18.4584C43.2 18.5584 42.9 18.6584 43 18.7584C42.9 18.8584 43 18.9584 43 19.0584C43 19.1584 43 19.2584 43 19.2584C43 19.3584 43 19.3584 43 19.4584C42.6 19.8584 42.5 20.0584 42.3 20.0584Z" fill="#73523F"/>
<path d="M42.3 0.658446C42.4 0.658446 42.5 1.15845 42.6 1.95845C42.6 2.05845 42.6 2.25845 42.6 2.35845C42.6 2.55845 42.7 2.65845 42.6 2.85845C42.5 3.05845 42.9 3.25845 42.6 3.45845C42.5 3.65845 42.6 3.85845 42.6 4.05845C42.7 4.25845 42.5 4.45845 42.6 4.75845C42.9 4.95845 42.3 5.25845 42.6 5.45845C42.7 5.75845 42.7 5.95845 42.6 6.25845C42.4 6.55845 42.6 6.75845 42.6 7.05845C42.3 7.35845 42.5 7.65845 42.6 7.95845C42.4 8.05845 42.3 8.25845 42.4 8.45845C42.4 8.65845 42.5 8.65845 42.7 8.65845V8.75845C42.7 8.85845 42.7 8.85845 42.7 8.85845C42.7 8.85845 42.8 8.85845 42.8 8.75845C42.9 8.75845 42.9 8.75845 43 8.75845C43 8.75845 43 8.75845 43.1 8.75845H43.3C43.6 8.55845 44 8.55845 44.3 8.75845C44.7 8.45845 45 8.55845 45.4 8.75845C45.8 8.85845 46.1 8.55845 46.5 8.75845C46.9 8.75845 47.2 8.65845 47.6 8.75845C48 8.85845 48.4 8.95845 48.8 8.75845C49.2 8.65845 49.6 8.55845 50 8.75845C50.4 8.45845 50.8 8.55845 51.2 8.75845C51.6 8.75845 52 8.95845 52.4 8.75845C52.7 8.75845 52.6 8.75845 52.7 8.75845C52.7 8.75845 52.7 8.75845 52.8 8.75845C52.8 8.75845 52.9 8.75845 52.9 8.65845C52.9 8.55845 52.9 8.65845 52.8 8.35845C52.6 7.95845 52.9 7.55845 52.8 7.15845C53.1 6.75845 52.7 6.35845 52.8 5.95845C52.8 5.55845 52.9 5.15845 52.8 4.75845C52.8 4.35845 52.7 3.95845 52.8 3.55845C52.4 3.15845 52.9 2.75845 52.8 2.45845C53 2.15845 52.8 1.55845 52.8 1.65845C52.8 1.65845 52.8 1.65845 52.8 1.55845C52.8 1.55845 52.8 1.45845 52.9 1.45845H52.6C52.5 1.45845 52.4 1.45845 52.3 1.35845C52 1.55845 51.6 1.15845 51.3 1.35845C51 1.35845 50.7 1.35845 50.3 1.35845C50 1.05845 49.7 1.25845 49.4 1.35845C49.1 1.35845 48.8 1.55845 48.5 1.35845C48.2 1.35845 47.9 1.15845 47.7 1.35845C47.4 1.35845 47.2 0.858446 46.9 1.35845C46.6 1.45845 46.4 1.05845 46.2 1.35845C46 1.65845 45.7 1.35845 45.5 1.35845C45.3 1.35845 45.1 1.35845 44.9 1.35845C43.4 0.958446 42.3 0.858446 42.3 0.658446C42.3 0.458446 43.6 0.258446 45.7 0.158446C45.9 0.158446 46.1 -0.0415541 46.4 0.158446C46.6 0.158446 46.9 -0.0415541 47.1 0.158446C47.4 -0.141554 47.6 0.0584459 47.9 0.158446C48.2 0.158446 48.4 0.258446 48.7 0.158446C49 -0.0415541 49.3 0.258446 49.6 0.158446C49.9 0.358446 50.2 0.258446 50.5 0.158446C50.8 0.358446 51.1 0.158446 51.5 0.158446C51.8 0.458446 52.2 0.258446 52.5 0.158446C52.6 0.158446 52.7 0.158446 52.8 0.158446H53.1C53.4 0.158446 53.7 0.158446 54 0.158446C54.2 0.158446 54.4 0.158446 54.7 0.158446C54.7 0.558446 54.8 0.958446 54.7 1.35845C54.8 1.65845 54.8 2.05845 54.8 2.15845C54.8 2.35845 54.8 2.55845 54.7 2.75845C54.8 3.15845 54.7 3.45845 54.7 3.85845C54.8 4.25845 54.7 4.65845 54.7 5.05845C54.8 5.45845 54.4 5.85845 54.7 6.25845C54.7 6.65845 54.7 7.05845 54.7 7.45845C54.7 7.85845 54.6 8.25845 54.7 8.65845C54.6 8.75845 54.5 9.25845 54.6 9.55845C54.6 9.95845 54.7 10.3584 54.8 10.7584C54.4 10.7584 54 10.8584 53.6 10.7584C53.4 10.7584 53.2 10.7584 53 10.7584C52.8 10.7584 52.7 10.7584 52.6 10.7584C52.2 10.7584 51.8 10.7584 51.4 10.7584C51 10.8584 50.6 10.6584 50.2 10.7584C49.8 10.8584 49.4 10.6584 49 10.7584C48.6 10.8584 48.2 10.8584 47.8 10.7584C47.4 10.7584 47 10.4584 46.7 10.7584C46.3 10.8584 46 11.1584 45.6 10.7584C45.2 10.8584 44.9 10.5584 44.5 10.7584C44.1 10.4584 43.8 10.7584 43.5 10.7584H43.2C43.1 10.7584 42.9 10.7584 42.8 10.7584C42.5 10.7584 42.3 10.7584 41.9 10.8584C41.7 10.8584 41.6 10.8584 41.5 10.8584C41.5 10.6584 41.5 10.3584 41.6 10.1584C41.6 9.95845 41.6 9.75845 41.6 9.55845C41.5 9.35845 41.6 8.95845 41.6 8.85845C41.7 8.65845 41.7 8.55845 41.6 8.35845C41.6 8.05845 41.6 7.75845 41.6 7.45845C41.2 7.15845 41.6 6.85845 41.6 6.65845C41.7 6.35845 41.3 6.15845 41.6 5.85845C41.3 5.55845 41.6 5.35845 41.6 5.15845C41.7 4.95845 41.5 4.65845 41.6 4.45845C41.4 4.25845 41.7 4.05845 41.6 3.85845C41.7 3.65845 41.6 3.45845 41.6 3.25845C41.6 3.05845 41.6 2.95845 41.6 2.75845C41.6 2.55845 41.6 2.45845 41.6 2.35845C42.1 1.15845 42.2 0.658446 42.3 0.658446Z" fill="#73523F"/>
<path d="M21.5 3.75845C21.5 3.85845 21.4 3.85845 21.2 3.95845C21.1 3.95845 21 4.05845 20.8 4.05845C20.6 4.15845 20.5 4.15845 20.3 4.25845C20.2 4.25845 20 4.35845 19.9 4.45845C19.8 4.45845 19.8 4.55845 19.7 4.55845C19.6 4.55845 19.5 4.65845 19.5 4.65845C19.3 4.55845 19.3 5.05845 19 4.85845C18.8 4.85845 18.6 5.05845 18.5 5.15845C18.4 5.35845 18.1 5.25845 18 5.55845C18 5.75845 17.9 5.75845 17.7 5.75845C17.6 5.75845 17.4 5.85845 17.5 6.05845C17.4 6.15845 17.4 6.25845 17.3 6.35845C17.2 6.45845 17.1 6.55845 17 6.65845C16.8 6.65845 16.7 6.75845 16.7 6.95845C16.6 7.05845 16.6 7.25845 16.6 7.35845C16 7.25845 15.9 7.55845 16 7.95845C15.8 7.95845 15.6 8.05845 15.6 8.25845C15.6 8.35845 15.6 8.55845 15.7 8.75845C15.7 8.85845 15.6 9.05845 15.5 9.15845C15.5 9.25845 15.5 9.25845 15.4 9.35845C15.4 9.45845 15.4 9.55845 15.4 9.55845C15.4 9.75845 15.4 9.85845 15.4 10.0584C15.4 10.2584 15.4 10.3584 15.4 10.5584C15.5 10.7584 15.6 10.8584 15.6 11.0584C15.6 11.1584 15.6 11.2584 15.6 11.2584C15.6 11.3584 15.6 11.4584 15.5 11.4584C15.8 11.7584 15.8 12.0584 15.7 12.4584C15.7 12.6584 15.8 12.7584 15.9 12.9584C16 13.0584 16.1 13.2584 16.1 13.4584C16.1 13.4584 16.1 13.5584 16.2 13.5584L16.3 13.6584L16.4 13.8584C16.5 13.9584 16.6 14.1584 16.7 14.2584C16.7 14.3584 16.8 14.4584 16.8 14.5584C16.8 14.6584 16.9 14.7584 16.9 14.7584C17 14.8584 17 14.8584 17.1 14.9584C17.2 14.9584 17.3 15.0584 17.4 15.0584C17.6 15.1584 17.7 15.2584 17.9 15.3584C18.1 15.4584 18.2 15.5584 18.3 15.7584C18.7 15.7584 19 15.9584 19.3 16.2584C19.5 16.2584 19.6 16.3584 19.8 16.4584C20 16.5584 20.2 16.5584 20.4 16.5584C20.6 16.5584 20.8 16.6584 21 16.6584C21.2 16.6584 21.4 16.6584 21.6 16.7584C21.8 16.7584 22 16.8584 22.2 16.8584C22.4 16.8584 22.6 16.7584 22.8 16.6584C23 16.5584 23.1 16.4584 23.3 16.4584C23.5 16.4584 23.7 16.3584 23.8 16.3584C23.9 16.3584 24 16.3584 24.1 16.3584C24.2 16.3584 24.3 16.2584 24.3 16.2584L24.5 16.0584C24.6 15.9584 24.6 15.9584 24.7 15.9584C24.9 15.8584 25 15.7584 25.2 15.6584C25.4 15.5584 25.5 15.4584 25.6 15.2584C25.7 15.1584 25.7 15.1584 25.8 15.0584C25.9 14.9584 25.9 14.9584 26 14.8584C26.1 14.7584 26.1 14.7584 26.2 14.6584C26.3 14.5584 26.3 14.5584 26.4 14.4584C26.3 14.1584 26.5 14.0584 26.6 13.9584C26.7 13.8584 26.8 13.8584 26.8 13.7584L26.9 13.6584V13.5584C27 13.4584 27.1 13.2584 27.2 13.1584C27.2 12.9584 27.3 12.8584 27.3 12.6584C27.3 12.4584 27.4 12.3584 27.5 12.1584C27.5 12.1584 27.5 12.0584 27.6 12.0584V11.9584C27.6 11.8584 27.6 11.7584 27.6 11.6584C27.6 11.5584 27.6 11.4584 27.6 11.4584C27.6 11.3584 27.6 11.2584 27.6 11.2584C27.6 11.0584 27.6 10.9584 27.7 10.7584C27.6 10.5584 27.6 10.4584 27.7 10.2584C27.7 10.0584 27.8 9.95845 27.7 9.75845C27.7 9.65845 27.7 9.65845 27.7 9.55845C27.7 9.45845 27.7 9.45845 27.6 9.35845C27.6 9.25845 27.5 9.05845 27.5 8.95845C27.6 8.75845 27.6 8.65845 27.5 8.45845C27.4 8.35845 27.3 8.25845 27.2 8.15845C27.1 7.85845 26.8 7.75845 26.8 7.45845C26.7 7.35845 26.7 7.25845 26.6 7.05845C26.5 6.95845 26.5 6.85845 26.3 6.75845C26.2 6.65845 26.2 6.55845 26.2 6.35845C26.2 6.25845 26.1 6.15845 25.8 6.15845C25.7 6.05845 25.7 5.95845 25.6 5.85845C25.5 5.75845 25.5 5.65845 25.3 5.65845C25 5.75845 25 5.35845 24.8 5.25845C24.6 5.15845 24.4 5.05845 24.3 4.95845C23.5 4.55845 22.9 4.35845 22.4 4.15845C21.8 3.95845 21.5 3.85845 21.5 3.75845C21.5 3.75845 21.6 3.65845 21.7 3.65845C21.8 3.65845 21.9 3.65845 22 3.55845C22.1 3.55845 22.1 3.55845 22.2 3.55845C22.3 3.55845 22.3 3.55845 22.4 3.55845C23 3.55845 24 3.65845 25.1 4.25845C25.3 4.35845 25.7 4.35845 25.8 4.65845C26 4.75845 26.1 4.75845 26.2 4.85845C26.3 4.95845 26.4 5.05845 26.5 5.15845C26.7 5.15845 26.8 5.25845 26.9 5.35845C27 5.45845 27 5.65845 27.1 5.75845C27.2 5.85845 27.3 5.95845 27.4 6.15845C27.5 6.25845 27.6 6.35845 27.7 6.55845C28 6.75845 28 7.15845 28.2 7.45845C28.2 7.65845 28.2 7.85845 28.3 7.95845C28.4 8.15845 28.5 8.25845 28.6 8.35845C28.6 8.55845 28.6 8.75845 28.7 8.85845C28.7 8.95845 28.8 9.05845 28.8 9.15845C29 9.15845 29 9.25845 29 9.35845C28.9 9.55845 28.9 9.75845 29 9.95845C29 10.1584 29.1 10.3584 29.2 10.5584C29.3 10.7584 29.2 10.9584 29.2 11.1584C29.2 11.2584 29.2 11.3584 29.2 11.4584C29.2 11.5584 29.2 11.6584 29.2 11.7584C29.1 12.1584 29.1 12.5584 29 12.9584C29 13.1584 29 13.3584 28.9 13.5584C28.8 13.7584 28.7 13.9584 28.5 14.1584C28.5 14.2584 28.5 14.2584 28.5 14.3584C28.5 14.4584 28.5 14.4584 28.4 14.4584C28.3 14.5584 28.3 14.6584 28.2 14.7584C28.1 14.9584 27.9 15.1584 27.8 15.2584C27.8 15.3584 27.7 15.4584 27.6 15.5584C27.5 15.6584 27.4 15.7584 27.4 15.7584L27 16.0584C26.9 16.1584 26.8 16.2584 26.7 16.2584C26.5 16.4584 26.3 16.5584 26.1 16.6584C25.9 16.7584 25.7 16.8584 25.6 17.1584C25.2 17.4584 24.8 17.5584 24.3 17.8584C24.1 17.9584 23.8 17.9584 23.6 18.0584C23.4 18.1584 23.1 18.1584 22.9 18.2584C22.6 18.1584 22.4 18.1584 22.2 18.2584C22 18.2584 21.7 18.3584 21.5 18.4584C21.3 18.4584 21 18.4584 20.8 18.4584C20.6 18.4584 20.3 18.3584 20.1 18.2584C19.9 18.2584 19.6 18.1584 19.4 18.0584C19.2 17.9584 18.9 17.8584 18.7 17.7584C18.6 17.7584 18.5 17.6584 18.4 17.6584C18.3 17.5584 18.2 17.5584 18.1 17.4584L17.9 17.3584L17.8 17.2584C17.7 17.1584 17.6 17.1584 17.5 17.0584C17.3 16.9584 17.1 16.8584 16.9 16.6584C16.7 16.4584 16.6 16.3584 16.4 16.1584C16.3 16.0584 16.2 16.0584 16.1 15.9584C16 15.8584 15.9 15.7584 15.8 15.7584C15.7 15.6584 15.6 15.5584 15.6 15.4584C15.5 15.3584 15.5 15.2584 15.5 15.1584C15.4 14.9584 15.3 14.7584 15.2 14.5584C15.2 14.4584 15.1 14.3584 15 14.2584L14.8 14.0584C14.7 13.8584 14.5 13.7584 14.4 13.5584C14.3 13.3584 14.2 13.1584 14.3 12.8584C14.2 12.6584 14.2 12.4584 14.2 12.2584C14.2 12.1584 14.2 12.1584 14.2 12.0584C14.2 11.9584 14.2 11.9584 14.2 11.8584C14.2 11.7584 14.2 11.6584 14.1 11.5584C14.2 11.4584 14.2 11.3584 14.2 11.2584C14.2 11.1584 14.2 11.0584 14.2 10.9584C14.2 10.7584 14.1 10.5584 14.1 10.3584C14.1 10.1584 14.2 9.95845 14.2 9.75845C14.2 9.55845 14.3 9.35845 14.2 9.15845C14.2 9.05845 14.2 8.95845 14.2 8.85845C14.2 8.75845 14.3 8.65845 14.3 8.55845C14.4 8.35845 14.5 8.25845 14.5 8.05845C14.5 7.85845 14.6 7.65845 14.7 7.55845C14.8 7.45845 14.9 7.25845 14.9 7.05845C15.1 6.75845 15.2 6.45845 15.4 6.15845C15.3 5.95845 15.4 5.75845 15.6 5.65845C15.6 5.85845 15.8 5.85845 15.9 5.75845C16 5.65845 16.1 5.55845 16.2 5.35845C16.3 5.25845 16.4 5.15845 16.6 5.15845C16.6 4.95845 16.7 4.85845 16.8 4.75845C16.9 4.65845 17.1 4.65845 17.2 4.65845C17.5 4.55845 17.6 4.25845 17.9 4.25845C18 4.05845 18.1 4.05845 18.2 4.05845C18.3 4.05845 18.5 4.05845 18.5 3.95845C18.8 3.95845 18.9 3.75845 19.1 3.75845C19.2 3.65845 19.3 3.65845 19.4 3.65845C19.5 3.65845 19.6 3.65845 19.7 3.65845C19.9 3.65845 20 3.55845 20.2 3.55845C20.4 3.55845 20.6 3.55845 20.8 3.55845C21 3.55845 21.1 3.55845 21.2 3.55845C21.4 3.65845 21.5 3.75845 21.5 3.75845Z" fill="#73523F"/>
<path d="M15.5 48.6584C15.4 48.6584 15.3 48.4584 15.2 48.0584C15.2 47.9584 15.2 47.9584 15.2 47.8584C15.2 47.7584 15.2 47.6584 15.2 47.6584C15.4 47.5584 15 47.4584 15.2 47.3584C15.3 47.2584 15.2 47.1584 15.2 47.0584C15.2 46.9584 15.3 46.8584 15.2 46.7584C14.9 46.5584 15.6 46.6584 15.2 46.4584C15.2 46.3584 15.2 46.2584 15.3 46.1584C15.5 46.1584 15.4 45.9584 15.4 45.7584C15.7 45.7584 15.6 45.5584 15.5 45.3584C15.9 45.3584 15.9 45.2584 15.6 44.9584C15.6 44.8584 15.8 44.7584 15.7 44.5584C15.7 44.4584 15.7 44.2584 15.8 44.1584C15.7 44.0584 15.8 43.8584 16 43.8584C15.8 43.6584 16 43.4584 16.2 43.4584C16.4 43.3584 16.1 43.0584 16.4 43.0584C16.5 42.9584 16.5 42.7584 16.6 42.6584C16.8 42.5584 17 42.4584 16.8 42.1584C16.8 41.9584 16.8 41.7584 17 41.6584C16.8 41.3584 17 41.2584 17.3 41.1584C17.3 40.9584 17.6 40.9584 17.6 40.6584C17.7 40.5584 17.7 40.2584 17.9 40.1584C18.1 40.0584 18.2 39.9584 18.2 39.6584C18.1 39.4584 18.5 39.3584 18.5 39.2584C18.8 39.2584 18.6 38.9584 18.8 38.8584C18.9 38.6584 19.1 38.6584 19.1 38.4584C19.2 38.2584 19.2 38.1584 19.4 38.0584C19.2 37.6584 19.7 37.8584 19.7 37.6584C19.9 37.6584 19.9 37.3584 20 37.2584C20 37.0584 20.3 37.1584 20.3 36.8584C20.4 36.7584 20.4 36.5584 20.6 36.5584C20.5 36.3584 20.9 36.4584 20.9 36.2584C21 36.1584 21.1 36.0584 21.2 35.9584C21.5 36.0584 21.4 35.7584 21.5 35.6584C21.6 35.5584 21.5 35.3584 21.8 35.3584C21.9 35.2584 22.1 35.2584 22 35.0584C22 34.9584 22.5 35.1584 22.2 34.8584C22.2 34.7584 22.6 34.8584 22.4 34.6584C22.3 34.4584 22.5 34.5584 22.6 34.4584C22.7 34.3584 22.7 34.3584 22.8 34.2584C23.4 33.7584 23.8 33.5584 23.9 33.6584C24 33.7584 23.8 34.2584 23.3 35.0584C23.3 35.1584 23.4 35.3584 23.2 35.2584C23.1 35.3584 23.2 35.5584 23 35.5584C23.2 35.8584 22.9 35.7584 22.8 35.8584C22.7 35.9584 22.6 35.9584 22.6 36.1584C22.7 36.3584 22.4 36.2584 22.4 36.4584C22.2 36.4584 22.1 36.5584 22.2 36.7584C22 36.7584 22.1 36.9584 22 37.0584C21.7 36.9584 21.8 37.2584 21.8 37.3584C21.8 37.5584 21.6 37.5584 21.6 37.7584C21.5 37.8584 21.5 38.0584 21.4 38.1584C21.4 38.3584 21.4 38.4584 21.1 38.5584C21.1 38.7584 20.9 38.8584 20.8 38.9584C20.8 39.1584 20.6 39.2584 20.5 39.3584C20.5 39.5584 20.1 39.4584 20.2 39.7584C20.1 39.9584 20 40.0584 19.9 40.1584C19.8 40.2584 19.6 40.3584 19.6 40.5584C19.3 40.5584 19.3 40.7584 19.3 40.9584C19.3 41.1584 19.2 41.2584 19 41.3584C18.9 41.5584 18.8 41.6584 18.7 41.7584C18.7 41.9584 18.4 41.9584 18.4 42.1584C18.4 42.3584 18.1 42.3584 18.2 42.5584C18.2 42.7584 18.2 42.8584 18 42.9584C17.9 43.0584 17.6 43.1584 17.8 43.3584C17.8 43.5584 18 43.7584 17.6 43.7584C17.6 43.9584 17.3 43.9584 17.4 44.1584C17.1 44.1584 17.3 44.4584 17.2 44.5584C17.1 44.6584 17 44.7584 17 44.9584C17.1 45.1584 16.8 45.1584 16.8 45.2584C16.9 45.4584 16.5 45.4584 16.6 45.5584C16.5 45.6584 16.6 45.7584 16.5 45.8584C16.8 46.0584 16.4 46.0584 16.4 46.1584C16.3 46.2584 16.6 46.4584 16.3 46.4584C16.6 46.6584 16.3 46.6584 16.2 46.7584C16.1 46.8584 16.3 46.9584 16.1 47.0584C16.3 47.1584 16 47.1584 16 47.2584C15.8 47.3584 16 47.4584 15.9 47.4584C15.9 47.5584 15.9 47.5584 15.8 47.6584C15.8 47.7584 15.8 47.7584 15.7 47.8584C15.7 48.4584 15.6 48.6584 15.5 48.6584Z" fill="#73523F"/>
<path d="M67.8 42.0584C67.7 42.0584 67.5 41.9584 67.4 41.7584L67.2 41.5584C67.3 41.4584 66.9 41.5584 67.1 41.3584C67.1 41.2584 67.1 41.2584 67 41.1584C66.9 41.1584 67 40.9584 66.9 40.9584C66.6 41.0584 67.1 40.6584 66.8 40.7584C66.7 40.7584 66.7 40.6584 66.6 40.5584C66.7 40.3584 66.5 40.3584 66.4 40.3584C66.6 40.1584 66.4 40.1584 66.2 40.1584C66.5 39.8584 66.4 39.8584 66 39.9584C65.9 39.8584 66 39.7584 65.8 39.7584C65.7 39.6584 65.6 39.6584 65.6 39.4584C65.3 39.4584 65.3 39.4584 65.4 39.1584C65.1 39.2584 65.1 39.0584 65.2 38.8584C65.2 38.6584 64.9 38.7584 65 38.5584C64.9 38.4584 64.8 38.3584 64.8 38.2584C64.8 38.0584 64.8 37.9584 64.6 37.9584C64.5 37.8584 64.3 37.8584 64.3 37.6584C64 37.7584 64 37.5584 64 37.3584C63.9 37.2584 63.9 37.0584 63.7 37.0584C63.6 36.9584 63.4 36.9584 63.4 36.7584C63.4 36.5584 63.3 36.4584 63.1 36.4584C62.9 36.4584 63 36.1584 62.8 36.1584C62.9 35.8584 62.6 36.0584 62.5 35.8584C62.4 35.7584 62.4 35.5584 62.2 35.5584C62.1 35.4584 62 35.4584 61.9 35.2584C61.5 35.4584 61.8 34.9584 61.7 34.9584C61.7 34.7584 61.5 34.7584 61.5 34.6584C61.4 34.6584 61.5 34.3584 61.3 34.3584C61.2 34.2584 61 34.2584 61.1 34.0584C60.9 34.1584 61.1 33.7584 60.9 33.7584C60.8 33.6584 60.7 33.6584 60.7 33.5584C60.8 33.2584 60.6 33.3584 60.5 33.3584C60.5 33.2584 60.2 33.3584 60.3 33.1584C60.2 33.0584 60.3 32.9584 60.1 32.9584C60 32.9584 60.3 32.5584 59.9 32.7584C59.8 32.7584 60 32.4584 59.7 32.5584C59.5 32.6584 59.6 32.4584 59.6 32.3584C59.6 32.2584 59.5 32.2584 59.5 32.1584C59.1 31.6584 59 31.3584 59.1 31.1584C59.2 31.0584 59.7 31.1584 60.3 31.5584C60.4 31.5584 60.6 31.4584 60.5 31.6584C60.6 31.7584 60.7 31.6584 60.7 31.7584C61 31.5584 60.9 31.8584 60.9 31.9584C61 32.0584 61 32.1584 61.1 32.1584C61.3 32.0584 61.2 32.3584 61.3 32.3584C61.3 32.5584 61.4 32.5584 61.5 32.5584C61.5 32.7584 61.7 32.6584 61.8 32.7584C61.7 33.0584 61.9 32.9584 62.1 32.9584C62.3 32.9584 62.2 33.1584 62.4 33.1584C62.4 33.2584 62.6 33.2584 62.7 33.3584C62.9 33.3584 63 33.4584 63 33.6584C63.2 33.6584 63.2 33.8584 63.3 33.9584C63.5 33.9584 63.5 34.1584 63.6 34.2584C63.7 34.3584 63.6 34.6584 63.9 34.5584C64 34.6584 64.1 34.7584 64.2 34.8584C64.3 34.9584 64.3 35.1584 64.5 35.1584C64.4 35.4584 64.6 35.4584 64.8 35.4584C65 35.5584 65 35.6584 65.1 35.7584C65.2 35.8584 65.3 35.9584 65.4 36.0584C65.6 36.1584 65.5 36.3584 65.7 36.3584C65.9 36.3584 65.8 36.6584 65.9 36.6584C66.1 36.7584 66.2 36.7584 66.1 36.9584C66.2 37.0584 66.1 37.3584 66.3 37.2584C66.4 37.3584 66.8 37.2584 66.5 37.5584C66.7 37.5584 66.5 37.8584 66.7 37.8584C66.5 38.1584 66.8 38.0584 66.9 38.1584C66.9 38.2584 66.9 38.4584 67.1 38.4584C67.3 38.4584 67.2 38.6584 67.3 38.7584C67.5 38.7584 67.2 39.0584 67.4 39.0584C67.4 39.1584 67.5 39.2584 67.5 39.3584C67.9 39.2584 67.6 39.5584 67.6 39.6584C67.6 39.7584 67.9 39.6584 67.7 39.9584C68 39.8584 67.8 40.0584 67.8 40.1584C67.8 40.2584 68 40.2584 67.9 40.3584C68.1 40.3584 67.9 40.5584 68 40.5584C67.9 40.6584 68 40.6584 68 40.7584C68.1 40.7584 68.1 40.8584 68 40.9584C68 41.0584 68 41.0584 68 41.1584C67.9 41.7584 67.9 41.9584 67.8 42.0584Z" fill="#73523F"/>
</svg>
