<svg width="211" height="82" viewBox="0 0 211 82" fill="none" xmlns="http://www.w3.org/2000/svg">
<path d="M111.507 62.782C110.828 62.782 110.003 62.782 109.178 62.782C109.13 62.7497 109.081 62.7012 109.049 62.6689C109.89 62.5398 109.777 61.9746 109.777 61.4579C109.777 57.5017 109.777 53.5456 109.777 49.5733C109.777 47.0704 109.777 44.5675 109.777 42.0647C109.777 41.5964 109.777 41.225 109.049 41.4188C109.065 41.3703 109.081 41.3057 109.081 41.2573C109.696 40.9505 110.31 40.6437 111.006 40.2884C111.006 41.2734 111.006 42.1454 111.006 43.0335C111.054 43.0497 111.087 43.0658 111.135 43.0981C111.232 42.9689 111.329 42.8398 111.426 42.6944C112.607 41.1604 114.062 40.1431 116.116 40.3853C117.475 40.5468 118.51 41.2896 119.367 42.3069C122.019 45.5202 122.068 51.0589 119.496 54.3207C117.2 57.2434 113.642 57.1626 111.459 54.1592C111.362 54.0139 111.248 53.8685 111.07 53.6425C111.054 53.8524 111.038 53.9331 111.038 54.0139C111.038 56.5975 111.022 59.1649 111.054 61.7485C111.087 62.1038 111.345 62.4106 111.507 62.782ZM119.755 47.9747C119.69 47.4418 119.626 46.3922 119.415 45.3749C119.124 43.9216 118.623 42.533 117.507 41.4511C116.876 40.8375 116.132 40.5307 115.227 40.6114C113.755 40.7567 112.655 41.4995 111.814 42.6298C110.165 44.8259 109.68 47.3288 110.084 50.0093C110.391 52.0761 111.184 53.9331 112.866 55.2895C114.936 56.9688 117.087 56.5652 118.429 54.2722C118.526 54.1107 118.607 53.9493 118.688 53.7716C119.48 52.0923 119.707 50.2999 119.755 47.9747Z" fill="white"/>
<path d="M106.575 56.0323C106.138 56.5006 105.701 56.5329 105.232 56.4037C104.715 56.2584 104.424 55.887 104.327 55.3702C104.294 55.1765 104.294 54.9666 104.294 54.7566C104.294 51.7693 104.31 48.782 104.278 45.7948C104.278 45.1004 104.197 44.3738 103.971 43.6956C102.823 40.127 99.4586 39.7717 97.0328 41.8063C96.8549 41.9678 96.6932 42.1454 96.5153 42.323C96.0301 42.8398 95.7875 43.3403 96.1109 44.1154C96.3535 44.6967 96.3535 45.3911 96.3535 46.037C96.3697 49.0889 96.3697 52.1246 96.3535 55.1765C96.3535 55.6609 96.4021 56.0646 96.9358 56.2907C96.1271 56.2907 95.3023 56.2907 94.4937 56.2907C95.2215 56.0161 95.0597 55.3864 95.0597 54.8374C95.0597 51.8339 95.1083 48.8143 95.0436 45.8109C95.0274 44.8743 94.8333 43.9055 94.4775 43.0497C93.5395 40.8052 91.3886 40.0139 89.1406 40.9666C88.9627 41.0474 88.7848 41.112 88.5422 41.2089C89.6743 39.3842 93.8468 40.4499 95.7228 43.0012C95.8199 42.8559 95.9169 42.7429 96.0139 42.6137C97.243 40.8375 99.5072 39.9816 101.593 40.4984C103.761 41.0312 105.297 42.759 105.572 44.9712C105.62 45.3265 105.637 45.6817 105.637 46.037C105.637 49.0889 105.637 52.1246 105.637 55.1765C105.62 55.9838 105.669 56.0323 106.575 56.0323Z" fill="white"/>
<path d="M150.936 56.2745C151.388 56.0484 151.485 55.6932 151.485 55.2249C151.469 47.8132 151.485 40.3853 151.469 32.9736C151.469 32.8121 151.453 32.6507 151.437 32.4246C149.383 32.4246 147.329 32.3277 145.388 33.0544C145.033 33.1835 144.725 33.4903 144.321 33.7648C144.321 33.3127 144.305 32.8283 144.337 32.36C144.337 32.2954 144.499 32.2147 144.58 32.1985C144.725 32.1662 144.871 32.1824 145.033 32.1824C149.771 32.1824 154.51 32.1985 159.232 32.1662C159.798 32.1662 160.024 32.2954 159.944 32.8767C159.911 33.1835 159.944 33.4903 159.879 33.8133C159.394 33.0705 158.617 32.9413 157.89 32.7637C156.24 32.3762 154.558 32.4246 152.828 32.4407C152.812 32.6345 152.795 32.796 152.795 32.9575C152.795 40.4015 152.795 47.8293 152.795 55.2734C152.795 55.7093 152.812 56.113 153.345 56.3068C152.537 56.2745 151.744 56.2745 150.936 56.2745Z" fill="white"/>
<path d="M209.124 33.0705C208.881 33.0544 208.72 33.0544 208.558 33.0382C208.542 32.9898 208.509 32.9575 208.493 32.909C209.092 32.6022 209.706 32.2954 210.434 31.924C210.434 32.2308 210.434 32.4407 210.434 32.6507C210.434 40.1431 210.434 47.6356 210.434 55.1119C210.434 55.5802 210.402 56.0484 211 56.2422C210.191 56.2422 209.383 56.2422 208.574 56.2422C209.27 56 209.124 55.4187 209.124 54.902C209.124 47.8778 209.124 40.8536 209.124 33.8294C209.124 33.6034 209.124 33.3612 209.124 33.0705Z" fill="white"/>
<path d="M126.645 56.2907C125.836 56.2907 125.027 56.2907 124.219 56.2907C124.866 56.0646 124.785 55.5317 124.785 55.0311C124.785 47.9747 124.785 40.9182 124.785 33.8456C124.785 33.6034 124.785 33.3612 124.785 33.0866C124.558 33.0705 124.38 33.0544 124.219 33.0382C124.202 33.0059 124.186 32.9575 124.17 32.9252C124.785 32.6184 125.383 32.3116 126.111 31.9402C126.111 32.2631 126.111 32.473 126.111 32.683C126.111 40.1593 126.111 47.6194 126.111 55.0957C126.078 55.5963 126.095 56.0323 126.645 56.2907Z" fill="white"/>
<path d="M65.2054 50.4614C65.2216 50.5421 65.2377 50.6067 65.2377 50.6552C65.1084 53.4325 66.4183 55.2734 69.0868 56.0646C72.0949 56.9527 75.1676 55.2895 75.9277 52.3668C76.4453 50.3322 75.6528 48.12 73.8577 46.9735C71.8846 45.6979 69.8469 44.503 67.8415 43.2757C65.0437 41.548 64.041 38.2539 65.4318 35.3796C66.4183 33.3773 68.0518 32.2793 70.2674 32.0209C70.3968 32.0048 70.5261 32.0048 70.6555 32.0209C70.704 32.0209 70.7525 32.0532 70.9466 32.1339C70.6879 32.1824 70.5585 32.2308 70.4453 32.247C68.1973 32.4407 66.3698 33.9586 65.8038 36.1062C65.2377 38.2539 66.0625 40.5468 67.9224 41.7579C69.8307 42.9851 71.8038 44.1477 73.7606 45.3103C75.3132 46.2307 76.3967 47.5064 76.7687 49.2988C77.545 53.0611 74.6339 56.549 70.7687 56.5006C67.4049 56.4683 64.882 54.2076 64.5747 50.9781C64.5423 50.4937 64.6717 50.2999 65.2054 50.4614Z" fill="white"/>
<path d="M142.429 52.0277C142.332 52.2376 142.251 52.4475 142.138 52.6575C140.892 54.9827 139.033 56.436 136.316 56.4844C133.696 56.5167 131.852 55.1603 130.558 53.0127C128.504 49.6056 129.103 44.8421 131.852 42.1939C134.86 39.3196 139.291 39.8686 141.653 43.4372C142.655 44.9551 143.124 46.6344 143.124 48.5075C140.343 48.5075 137.577 48.5075 134.828 48.5075C134.828 48.4591 134.828 48.4107 134.828 48.3461C137.124 48.3461 139.437 48.3461 141.798 48.3461C141.782 46.2792 141.281 44.4707 140.149 42.8559C139.599 42.0647 138.903 41.4188 138.014 40.9989C136.073 40.0785 133.89 40.7083 132.45 42.6783C130.591 45.1973 130.283 48.0231 130.963 50.9943C131.27 52.3668 131.868 53.594 132.839 54.6436C134.391 56.3229 136.413 56.7428 138.515 55.8224C140.019 55.1765 141.087 54.0461 141.863 52.6413C141.992 52.4152 142.122 52.173 142.251 51.947C142.316 51.9631 142.364 51.9954 142.429 52.0277Z" fill="white"/>
<path d="M205.938 48.5237C203.14 48.5237 200.391 48.5237 197.658 48.5237C197.658 48.4753 197.658 48.4107 197.658 48.3622C199.954 48.3622 202.251 48.3622 204.531 48.3622C204.919 45.7948 203.205 42.2907 201.054 41.112C199.097 40.0301 196.784 40.5953 195.28 42.6298C193.404 45.1489 193.081 48.007 193.76 50.9943C194.067 52.3668 194.682 53.594 195.636 54.6436C197.173 56.3068 199.178 56.7266 201.264 55.8385C202.784 55.1926 203.868 54.0623 204.66 52.6252C204.79 52.3991 204.919 52.1569 205.162 51.9793C205.162 52.0439 205.194 52.1084 205.178 52.173C204.078 54.7405 201.62 56.7912 198.434 56.4683C196.461 56.2745 194.973 55.2572 193.825 53.7071C191.496 50.5906 191.625 45.7625 194.1 42.8075C197.027 39.3035 201.927 39.5941 204.483 43.4534C205.469 44.9551 205.938 46.6506 205.938 48.5237Z" fill="white"/>
<path d="M177.669 49.7671C177.685 50.0739 177.701 50.2676 177.701 50.4614C177.701 51.9954 177.701 53.5294 177.701 55.0634C177.701 56.0161 177.733 56.0323 178.704 56.0161C178.283 56.4683 177.83 56.549 177.313 56.4037C176.359 56.113 176.359 55.3218 176.391 54.3691C176.148 54.6598 175.987 54.8374 175.825 55.015C174.45 56.549 172.72 56.7912 170.844 56.2907C169.049 55.8062 167.803 54.6759 167.48 52.7866C167.221 51.2849 167.836 50.0416 168.903 49.0243C169.954 48.0393 171.216 47.5225 172.655 47.5064C173.496 47.5064 174.337 47.5548 175.178 47.5871C175.566 47.6033 175.954 47.5871 176.359 47.5871C176.375 46.0693 176.488 44.6483 175.922 43.2919C175.033 41.1281 173.27 40.2077 171.07 40.789C170.181 41.0151 169.55 41.548 169.146 42.4684C168.968 42.3069 168.806 42.1616 168.661 42.0162C170.375 39.9655 173.836 39.8202 175.906 41.6933C177.086 42.759 177.636 44.0993 177.669 45.6656C177.669 45.8916 177.669 46.1177 177.669 46.3438C177.669 47.4741 177.475 47.7325 176.326 47.8132C175.679 47.8616 175.016 47.8132 174.369 47.7971C173.9 47.7809 173.431 47.7648 172.962 47.7486C170.262 47.6194 168.968 49.7671 168.984 51.8178C169 53.1257 169.437 54.3207 170.391 55.2572C171.685 56.5329 173.512 56.6298 174.968 55.4671C176.504 54.2399 177.151 52.5444 177.361 50.639C177.394 50.413 177.41 50.203 177.442 49.977C177.491 49.9124 177.539 49.8801 177.669 49.7671Z" fill="white"/>
<path d="M161.06 56.2907C160.235 56.2907 159.426 56.2907 158.601 56.2907C159.313 56.0646 159.2 55.4994 159.2 54.9827C159.2 50.6713 159.2 46.3438 159.2 42.0324C159.2 41.3703 159.2 41.3703 158.537 41.2573C159.151 40.9505 159.766 40.6275 160.493 40.2562C160.493 41.0312 160.493 41.6771 160.493 42.3553C161.06 41.9678 161.545 41.5964 162.062 41.2896C163.162 40.676 164.359 40.4015 165.604 40.3369C166.461 40.2884 166.51 40.3369 166.316 41.2734C165.911 41.1281 165.539 40.9343 165.119 40.8698C163.291 40.6275 161.868 41.4511 160.623 42.6783C160.51 42.7913 160.493 43.0174 160.493 43.195C160.493 47.2157 160.493 51.2203 160.477 55.2411C160.477 55.7255 160.574 56.0969 161.06 56.2907Z" fill="white"/>
<path d="M185.221 56.4521C185.156 56.2745 185.076 56.0807 185.027 55.9031C183.507 51.2365 181.987 46.586 180.483 41.9193C180.305 41.338 180.175 40.7406 179.383 40.6437C179.415 40.5952 179.448 40.5468 179.464 40.5145C180.305 40.5145 181.146 40.5145 182.181 40.5145C181.437 40.8213 181.615 41.225 181.76 41.661C183.086 45.714 184.38 49.7832 185.755 53.8201C186.111 54.8535 185.593 55.5802 185.221 56.4521Z" fill="white"/>
<path d="M79.6797 41.2411C80.2943 40.9343 80.9088 40.6275 81.6366 40.2723C81.6366 40.6114 81.6366 40.8375 81.6366 41.0474C81.6366 45.7302 81.6366 50.4291 81.6366 55.1119C81.6366 55.5963 81.6366 56.0646 82.235 56.2745C81.4102 56.2745 80.5854 56.2745 79.7606 56.2745C80.4722 56.0646 80.359 55.4833 80.359 54.9666C80.359 50.6552 80.359 46.3438 80.359 42.0324C80.3428 41.3703 80.3428 41.3703 79.6797 41.2411Z" fill="white"/>
<path d="M87.7175 56.3068C86.8927 56.3068 86.084 56.3068 85.2592 56.3068C85.987 56.0646 85.8414 55.4671 85.8414 54.9504C85.8414 50.6552 85.8414 46.3599 85.8414 42.0647C85.8414 41.6448 85.8738 41.225 85.1622 41.4349C85.1622 41.3703 85.1622 41.3219 85.1784 41.2573C85.7929 40.9505 86.4075 40.6275 87.1352 40.2562C87.1352 40.6114 87.1352 40.8213 87.1352 41.0312C87.1352 45.7302 87.1352 50.4452 87.1352 55.1442C87.1352 55.6125 87.1352 56.0646 87.7983 56.1615C87.7821 56.2099 87.7498 56.2584 87.7175 56.3068Z" fill="white"/>
<path d="M191.189 40.5145C190.574 40.7406 190.38 41.2412 190.202 41.774C189.135 45.052 188.051 48.3299 186.984 51.6079C186.919 51.7855 186.855 51.9631 186.79 52.1569C186.741 52.1407 186.677 52.1246 186.628 52.1084C186.677 51.8985 186.709 51.6725 186.774 51.4787C187.857 48.1684 188.941 44.8582 190.024 41.5318C190.138 41.1604 190.315 40.789 189.798 40.5145C190.251 40.5145 190.72 40.5145 191.189 40.5145Z" fill="white"/>
<path d="M80.9897 35.7187C80.4075 35.7187 79.9547 35.2666 79.9547 34.7014C79.9547 34.1524 80.4075 33.7003 80.9574 33.6841C81.5234 33.668 82.0086 34.1362 82.0247 34.6853C82.0409 35.2504 81.5719 35.7187 80.9897 35.7187Z" fill="white"/>
<path d="M76.607 38.1085C76.4129 38.1085 76.235 38.1085 75.9924 38.1085C76.3482 36.2516 75.7822 34.7498 74.2943 33.458C75.5719 33.781 76.8819 36.5261 76.607 38.1085Z" fill="white"/>
<path d="M0.143642 58.8097C4.05737 58.8097 7.74469 58.8097 11.4967 58.8097C12.0951 62.9111 13.2595 66.7543 15.4428 70.2421C19.0169 75.9584 24.1921 78.9779 30.936 79.2686C35.723 79.4624 40.4777 79.1717 45.0707 77.7184C53.254 75.1348 55.7607 69.0472 54.0302 61.3125C53.0275 56.8558 49.9548 53.9977 46.1866 51.7855C40.9952 48.7336 35.2379 47.1996 29.5128 45.5525C23.4805 43.8248 17.3511 42.3392 11.6746 39.5457C7.90642 37.6887 4.36465 35.4442 2.34309 31.6334C-1.55447 24.2539 -0.357704 17.1329 4.2191 10.5285C7.64766 5.60354 12.8067 3.05223 18.4994 1.72813C28.8336 -0.661701 39.1678 -0.887767 49.1623 3.06838C57.8631 6.5078 63.0221 13.0153 64.3806 22.3647C64.4129 22.5907 64.3806 22.8168 64.3806 23.1236C60.6286 23.1236 56.9251 23.1236 53.3672 23.1236C52.6071 20.7176 52.0572 18.2794 51.0869 16.0348C47.723 8.15485 41.626 4.10182 33.0546 3.85961C28.4616 3.73043 23.901 4.08567 19.5021 5.53895C14.7959 7.08912 11.0924 9.73731 10.3485 15.0498C9.6207 20.3139 11.1571 24.8353 15.4104 28.2424C19.2433 31.3104 23.7554 32.9736 28.3646 34.3946C34.9629 36.4292 41.6098 38.27 48.1596 40.4338C50.9251 41.3542 53.6421 42.6621 56.1165 44.2284C63.8469 49.105 66.3213 56.7751 63.2971 65.414C61.0814 71.7439 56.731 76.1844 50.5855 78.5258C38.9413 82.9987 27.0708 83.2247 15.3943 78.7842C6.98459 75.587 1.93878 69.241 0.321539 60.3114C0.240676 59.8754 0.208331 59.4071 0.143642 58.8097Z" fill="url(#paint0_linear_728_716)"/>
<path d="M130.882 23.8987C130.267 15.0498 126.03 8.41321 118.122 4.27944C112.963 1.58281 107.415 0.210266 101.626 0.145676C92.3266 0.0487903 83.0274 0.11338 73.7283 0.129528C73.3563 0.129528 73.0005 0.177971 72.58 0.210266V27.9517H83.9654V2.6324H85.518C89.9007 2.6324 94.2996 2.77772 98.6662 2.6001C103.502 2.39018 107.48 4.27944 111.135 7.10526C115.89 10.803 118.445 15.8088 119.205 21.7026C119.48 23.8018 119.61 25.8848 119.577 27.9517H130.93C130.995 26.6276 130.979 25.2712 130.882 23.8987ZM72.58 60.5698V81.723H83.9654V60.5698H72.58Z" fill="url(#paint1_linear_728_716)"/>
<defs>
<linearGradient id="paint0_linear_728_716" x1="-0.00624494" y1="41.0117" x2="211.021" y2="41.0117" gradientUnits="userSpaceOnUse">
<stop offset="0.000190769" stop-color="#F8E1B7"/>
<stop offset="0.9998" stop-color="#91DDCF"/>
</linearGradient>
<linearGradient id="paint1_linear_728_716" x1="72.5849" y1="40.9087" x2="130.969" y2="40.9087" gradientUnits="userSpaceOnUse">
<stop offset="0.000190769" stop-color="#F8E1B7"/>
<stop offset="0.9998" stop-color="#91DDCF"/>
</linearGradient>
</defs>
</svg>
