<svg width="183" height="71" viewBox="0 0 183 71" fill="none" xmlns="http://www.w3.org/2000/svg">
<path d="M96.4835 54.36C95.8958 54.36 95.1821 54.36 94.4684 54.36C94.4264 54.332 94.3844 54.2901 94.3565 54.2621C95.0841 54.1503 94.9862 53.6609 94.9862 53.2135C94.9862 49.7881 94.9862 46.3626 94.9862 42.9232C94.9862 40.7561 94.9862 38.589 94.9862 36.4219C94.9862 36.0164 94.9862 35.6948 94.3565 35.8626C94.3705 35.8207 94.3844 35.7647 94.3844 35.7228C94.9162 35.4571 95.448 35.1915 96.0497 34.8839C96.0497 35.7368 96.0497 36.4918 96.0497 37.2607C96.0917 37.2747 96.1196 37.2887 96.1616 37.3167C96.2456 37.2048 96.3295 37.093 96.4135 36.9671C97.435 35.6389 98.6945 34.7581 100.472 34.9678C101.647 35.1076 102.543 35.7507 103.284 36.6316C105.579 39.4139 105.621 44.2095 103.396 47.0337C101.409 49.5644 98.3306 49.4945 96.4415 46.8939C96.3575 46.7681 96.2596 46.6423 96.1057 46.4465C96.0917 46.6283 96.0777 46.6982 96.0777 46.7681C96.0777 49.0051 96.0637 51.2282 96.0917 53.4652C96.1196 53.7728 96.3435 54.0384 96.4835 54.36ZM103.62 41.539C103.564 41.0777 103.508 40.1689 103.326 39.288C103.074 38.0297 102.641 36.8273 101.675 35.8906C101.129 35.3593 100.486 35.0936 99.702 35.1635C98.4286 35.2894 97.477 35.9325 96.7494 36.9112C95.322 38.8127 94.9022 40.9798 95.2521 43.3007C95.5179 45.0903 96.2036 46.6982 97.6589 47.8726C99.4501 49.3267 101.311 48.9772 102.473 46.9918C102.557 46.852 102.627 46.7122 102.697 46.5584C103.382 45.1043 103.578 43.5524 103.62 41.539Z" fill="url(#paint0_linear_594_806)"/>
<path d="M92.2155 48.5158C91.8376 48.9212 91.4598 48.9492 91.054 48.8373C90.6062 48.7115 90.3543 48.3899 90.2704 47.9425C90.2424 47.7747 90.2424 47.593 90.2424 47.4112C90.2424 44.8247 90.2564 42.2381 90.2284 39.6516C90.2284 39.0504 90.1584 38.4212 89.9625 37.834C88.969 34.7441 86.0583 34.4365 83.9593 36.1982C83.8054 36.338 83.6654 36.4918 83.5115 36.6456C83.0917 37.093 82.8818 37.5264 83.1617 38.1975C83.3716 38.7008 83.3716 39.302 83.3716 39.8613C83.3856 42.5038 83.3856 45.1323 83.3716 47.7747C83.3716 48.1942 83.4136 48.5437 83.8753 48.7395C83.1757 48.7395 82.462 48.7395 81.7623 48.7395C82.392 48.5018 82.2521 47.9565 82.2521 47.4811C82.2521 44.8806 82.2941 42.2661 82.2381 39.6655C82.2241 38.8546 82.0562 38.0157 81.7483 37.2747C80.9367 35.3313 79.0756 34.6462 77.1305 35.4711C76.9765 35.541 76.8226 35.597 76.6127 35.6808C77.5923 34.1009 81.2026 35.0237 82.8258 37.2328C82.9098 37.1069 82.9938 37.0091 83.0777 36.8972C84.1412 35.3593 86.1003 34.6183 87.9055 35.0657C89.7806 35.527 91.11 37.0231 91.3479 38.9385C91.3898 39.2461 91.4038 39.5537 91.4038 39.8613C91.4038 42.5038 91.4038 45.1323 91.4038 47.7747C91.3899 48.4738 91.4318 48.5158 92.2155 48.5158Z" fill="url(#paint1_linear_594_806)"/>
<path d="M130.6 48.7255C130.991 48.5297 131.075 48.2222 131.075 47.8167C131.061 41.3992 131.075 34.9678 131.061 28.5503C131.061 28.4105 131.047 28.2707 131.033 28.075C129.256 28.075 127.479 27.9911 125.8 28.6202C125.492 28.7321 125.226 28.9977 124.876 29.2354C124.876 28.8439 124.862 28.4245 124.89 28.019C124.89 27.9631 125.03 27.8932 125.1 27.8792C125.226 27.8513 125.352 27.8652 125.492 27.8652C129.592 27.8652 133.692 27.8792 137.778 27.8513C138.268 27.8513 138.464 27.9631 138.394 28.4664C138.366 28.7321 138.394 28.9977 138.338 29.2774C137.918 28.6342 137.247 28.5224 136.617 28.3686C135.189 28.033 133.734 28.075 132.237 28.0889C132.223 28.2567 132.209 28.3965 132.209 28.5363C132.209 34.9818 132.209 41.4132 132.209 47.8586C132.209 48.2361 132.223 48.5857 132.685 48.7535C131.985 48.7255 131.299 48.7255 130.6 48.7255Z" fill="url(#paint2_linear_594_806)"/>
<path d="M180.948 28.6342C180.738 28.6202 180.598 28.6202 180.458 28.6062C180.444 28.5643 180.416 28.5363 180.402 28.4944C180.92 28.2288 181.452 27.9631 182.082 27.6415C182.082 27.9072 182.082 28.0889 182.082 28.2707C182.082 34.7581 182.082 41.2454 182.082 47.7188C182.082 48.1243 182.054 48.5297 182.571 48.6975C181.872 48.6975 181.172 48.6975 180.472 48.6975C181.074 48.4878 180.948 47.9845 180.948 47.5371C180.948 41.4552 180.948 35.3732 180.948 29.2913C180.948 29.0956 180.948 28.8859 180.948 28.6342Z" fill="url(#paint3_linear_594_806)"/>
<path d="M109.581 48.7395C108.882 48.7395 108.182 48.7395 107.482 48.7395C108.042 48.5437 107.972 48.0823 107.972 47.6489C107.972 41.539 107.972 35.4292 107.972 29.3053C107.972 29.0956 107.972 28.8859 107.972 28.6482C107.776 28.6342 107.622 28.6202 107.482 28.6062C107.468 28.5783 107.454 28.5363 107.44 28.5084C107.972 28.2427 108.49 27.9771 109.12 27.6555C109.12 27.9351 109.12 28.1169 109.12 28.2987C109.12 34.772 109.12 41.2315 109.12 47.7048C109.092 48.1383 109.106 48.5158 109.581 48.7395Z" fill="url(#paint4_linear_594_806)"/>
<path d="M56.4201 43.6922C56.4341 43.7621 56.4481 43.818 56.4481 43.86C56.3361 46.2648 57.4696 47.8586 59.7785 48.5437C62.3813 49.3127 65.0401 47.8726 65.6978 45.342C66.1456 43.5803 65.4599 41.6649 63.9066 40.6722C62.1994 39.5677 60.4362 38.533 58.701 37.4705C56.2802 35.9744 55.4126 33.1222 56.616 30.6336C57.4696 28.8999 58.883 27.9491 60.8001 27.7254C60.912 27.7114 61.024 27.7114 61.1359 27.7254C61.1779 27.7254 61.2199 27.7534 61.3878 27.8233C61.1639 27.8652 61.052 27.9072 60.954 27.9212C59.0089 28.0889 57.4276 29.4032 56.9379 31.2627C56.4481 33.1222 57.1618 35.1076 58.771 36.1562C60.4222 37.2188 62.1294 38.2255 63.8227 39.2321C65.166 40.0291 66.1036 41.1336 66.4254 42.6855C67.0971 45.9432 64.5783 48.9632 61.2339 48.9212C58.3232 48.8933 56.1402 46.9359 55.8744 44.1396C55.8464 43.7201 55.9583 43.5524 56.4201 43.6922Z" fill="url(#paint5_linear_594_806)"/>
<path d="M123.239 45.0484C123.155 45.2301 123.085 45.4119 122.987 45.5937C121.91 47.607 120.3 48.8653 117.949 48.9072C115.683 48.9352 114.087 47.7608 112.968 45.9012C111.191 42.9512 111.708 38.8267 114.087 36.5337C116.69 34.045 120.524 34.5204 122.567 37.6103C123.435 38.9245 123.841 40.3786 123.841 42.0004C121.434 42.0004 119.041 42.0004 116.662 42.0004C116.662 41.9585 116.662 41.9165 116.662 41.8606C118.649 41.8606 120.65 41.8606 122.693 41.8606C122.679 40.071 122.245 38.5051 121.266 37.1069C120.79 36.4219 120.188 35.8626 119.419 35.4991C117.74 34.7021 115.85 35.2474 114.605 36.9531C112.996 39.1342 112.73 41.581 113.318 44.1536C113.584 45.342 114.101 46.4046 114.941 47.3134C116.284 48.7674 118.033 49.1309 119.853 48.334C121.154 47.7748 122.078 46.7961 122.749 45.5797C122.861 45.3839 122.973 45.1742 123.085 44.9785C123.141 44.9925 123.183 45.0204 123.239 45.0484Z" fill="url(#paint6_linear_594_806)"/>
<path d="M178.191 42.0144C175.771 42.0144 173.392 42.0144 171.027 42.0144C171.027 41.9725 171.027 41.9165 171.027 41.8746C173.014 41.8746 175.001 41.8746 176.974 41.8746C177.31 39.6516 175.827 36.6176 173.965 35.597C172.272 34.6602 170.271 35.1495 168.97 36.9112C167.347 39.0923 167.067 41.567 167.654 44.1536C167.92 45.342 168.452 46.4046 169.278 47.3134C170.607 48.7535 172.342 49.117 174.147 48.348C175.463 47.7887 176.4 46.81 177.086 45.5657C177.198 45.3699 177.31 45.1602 177.52 45.0064C177.52 45.0624 177.548 45.1183 177.534 45.1742C176.582 47.3973 174.455 49.1729 171.699 48.8933C169.991 48.7255 168.704 47.8447 167.71 46.5024C165.695 43.804 165.807 39.6236 167.948 37.065C170.481 34.031 174.721 34.2827 176.932 37.6243C177.786 38.9245 178.191 40.3926 178.191 42.0144Z" fill="url(#paint7_linear_594_806)"/>
<path d="M153.731 43.091C153.745 43.3566 153.759 43.5244 153.759 43.6922C153.759 45.0204 153.759 46.3486 153.759 47.6769C153.759 48.5018 153.787 48.5158 154.626 48.5018C154.263 48.8933 153.871 48.9632 153.423 48.8373C152.597 48.5857 152.597 47.9006 152.625 47.0757C152.415 47.3274 152.275 47.4811 152.136 47.6349C150.946 48.9632 149.449 49.1729 147.826 48.7395C146.272 48.32 145.195 47.3413 144.915 45.7055C144.691 44.4052 145.223 43.3287 146.146 42.4478C147.056 41.595 148.147 41.1476 149.393 41.1336C150.121 41.1336 150.848 41.1755 151.576 41.2035C151.912 41.2175 152.248 41.2035 152.597 41.2035C152.611 39.8892 152.709 38.6589 152.22 37.4844C151.45 35.6109 149.925 34.814 148.021 35.3173C147.252 35.5131 146.706 35.9745 146.356 36.7714C146.202 36.6316 146.062 36.5057 145.936 36.3799C147.42 34.6043 150.414 34.4784 152.206 36.1003C153.227 37.0231 153.703 38.1835 153.731 39.5397C153.731 39.7354 153.731 39.9312 153.731 40.1269C153.731 41.1056 153.563 41.3293 152.569 41.3992C152.01 41.4412 151.436 41.3992 150.876 41.3853C150.47 41.3713 150.065 41.3573 149.659 41.3433C147.322 41.2315 146.202 43.091 146.216 44.8666C146.23 45.9991 146.608 47.0337 147.434 47.8447C148.553 48.9492 150.135 49.0331 151.394 48.0264C152.723 46.9638 153.283 45.4958 153.465 43.846C153.493 43.6502 153.507 43.4685 153.535 43.2727C153.577 43.2168 153.619 43.1889 153.731 43.091Z" fill="url(#paint8_linear_594_806)"/>
<path d="M139.36 48.7395C138.646 48.7395 137.946 48.7395 137.233 48.7395C137.848 48.5437 137.75 48.0544 137.75 47.607C137.75 43.8739 137.75 40.1269 137.75 36.3939C137.75 35.8206 137.75 35.8207 137.177 35.7228C137.708 35.4571 138.24 35.1775 138.87 34.8559C138.87 35.527 138.87 36.0863 138.87 36.6735C139.36 36.338 139.779 36.0164 140.227 35.7507C141.179 35.2195 142.214 34.9818 143.292 34.9258C144.033 34.8839 144.075 34.9258 143.907 35.7368C143.558 35.6109 143.236 35.4432 142.872 35.3872C141.291 35.1775 140.059 35.8906 138.982 36.9531C138.884 37.051 138.87 37.2468 138.87 37.4006C138.87 40.8819 138.87 44.3493 138.856 47.8307C138.856 48.2501 138.94 48.5717 139.36 48.7395Z" fill="url(#paint9_linear_594_806)"/>
<path d="M160.266 48.8793C160.21 48.7255 160.14 48.5577 160.098 48.4039C158.783 44.3633 157.467 40.3366 156.166 36.296C156.012 35.7927 155.9 35.2754 155.214 35.1915C155.242 35.1495 155.27 35.1076 155.284 35.0796C156.012 35.0796 156.739 35.0796 157.635 35.0796C156.991 35.3453 157.145 35.6948 157.271 36.0723C158.419 39.5816 159.538 43.105 160.728 46.6003C161.035 47.4951 160.588 48.1243 160.266 48.8793Z" fill="url(#paint10_linear_594_806)"/>
<path d="M68.9443 35.7088C69.476 35.4432 70.0078 35.1775 70.6375 34.8699C70.6375 35.1635 70.6375 35.3593 70.6375 35.541C70.6375 39.5956 70.6375 43.6642 70.6375 47.7188C70.6375 48.1383 70.6375 48.5437 71.1553 48.7255C70.4416 48.7255 69.7279 48.7255 69.0143 48.7255C69.63 48.5437 69.532 48.0404 69.532 47.593C69.532 43.86 69.532 40.1269 69.532 36.3939C69.518 35.8206 69.518 35.8207 68.9443 35.7088Z" fill="url(#paint11_linear_594_806)"/>
<path d="M75.899 48.7535C75.1854 48.7535 74.4857 48.7535 73.772 48.7535C74.4017 48.5437 74.2758 48.0264 74.2758 47.579C74.2758 43.86 74.2758 40.1409 74.2758 36.4219C74.2758 36.0583 74.3038 35.6948 73.6881 35.8766C73.6881 35.8207 73.6881 35.7787 73.7021 35.7228C74.2338 35.4571 74.7656 35.1775 75.3953 34.8559C75.3953 35.1635 75.3953 35.3453 75.3953 35.527C75.3953 39.5956 75.3953 43.6782 75.3953 47.7468C75.3953 48.1523 75.3953 48.5437 75.969 48.6276C75.955 48.6696 75.927 48.7115 75.899 48.7535Z" fill="url(#paint12_linear_594_806)"/>
<path d="M165.429 35.0796C164.898 35.2754 164.73 35.7088 164.576 36.1702C163.652 39.0084 162.715 41.8466 161.791 44.6849C161.735 44.8387 161.679 44.9925 161.623 45.1602C161.581 45.1462 161.525 45.1323 161.483 45.1183C161.525 44.9365 161.553 44.7408 161.609 44.573C162.547 41.7068 163.484 38.8406 164.422 35.9605C164.52 35.6389 164.674 35.3173 164.226 35.0796C164.618 35.0796 165.024 35.0796 165.429 35.0796Z" fill="url(#paint13_linear_594_806)"/>
<path d="M70.0778 30.9272C69.574 30.9272 69.1822 30.5357 69.1822 30.0463C69.1822 29.571 69.574 29.1795 70.0498 29.1655C70.5395 29.1515 70.9593 29.557 70.9733 30.0324C70.9873 30.5217 70.5815 30.9272 70.0778 30.9272Z" fill="url(#paint14_linear_594_806)"/>
<path d="M66.2855 32.9964C66.1176 32.9964 65.9637 32.9964 65.7538 32.9964C66.0616 31.3885 65.5718 30.0883 64.2844 28.9698C65.3899 29.2494 66.5234 31.6262 66.2855 32.9964Z" fill="url(#paint15_linear_594_806)"/>
<path d="M0.124288 50.9206C3.51071 50.9206 6.70123 50.9206 9.94772 50.9206C10.4655 54.4718 11.473 57.7994 13.3621 60.8194C16.4547 65.7688 20.9326 68.3833 26.7679 68.635C30.91 68.8028 35.0241 68.5511 38.9982 67.2928C46.0789 65.0558 48.2479 59.7848 46.7506 53.0877C45.883 49.2288 43.2242 46.7541 39.9638 44.8387C35.4719 42.1962 30.4902 40.8679 25.5365 39.4418C20.3169 37.9458 15.0134 36.6595 10.1016 34.2407C6.84116 32.6329 3.77659 30.6895 2.0274 27.3899C-1.34503 21.0004 -0.30951 14.8346 3.65065 9.11617C6.61727 4.85185 11.0812 2.64279 16.0069 1.49631C24.9487 -0.572936 33.8906 -0.768676 42.5386 2.65677C50.0671 5.63481 54.531 11.2693 55.7064 19.3645C55.7344 19.5603 55.7064 19.756 55.7064 20.0217C52.4599 20.0217 49.2554 20.0217 46.1769 20.0217C45.5192 17.9384 45.0434 15.8272 44.2038 13.8838C41.2931 7.06091 36.0176 3.55158 28.601 3.34186C24.6269 3.23001 20.6807 3.5376 16.8745 4.79592C12.8024 6.13814 9.59788 8.43108 8.95418 13.031C8.32447 17.5889 9.65386 21.5037 13.3341 24.4538C16.6506 27.1102 20.5548 28.5503 24.5429 29.7807C30.2523 31.5423 36.0036 33.1362 41.671 35.0097C44.0639 35.8067 46.4148 36.9392 48.5558 38.2954C55.2447 42.5177 57.3857 49.1589 54.7689 56.639C52.8518 62.1197 49.0875 65.9646 43.77 67.9919C33.6947 71.8647 23.4235 72.0604 13.3202 68.2156C6.04354 65.4472 1.67757 59.9526 0.278217 52.2208C0.208249 51.8433 0.180262 51.4379 0.124288 50.9206Z" fill="url(#paint16_linear_594_806)"/>
<path d="M113.248 20.6928C112.716 13.031 109.05 7.28461 102.207 3.70537C97.7429 1.37048 92.9431 0.182059 87.9335 0.126134C79.8872 0.0422453 71.8409 0.0981709 63.7947 0.112152C63.4728 0.112152 63.165 0.154097 62.8011 0.182059V24.2021H72.6526V2.27927H73.9959C77.7882 2.27927 81.5944 2.4051 85.3726 2.25131C89.5567 2.06955 92.9991 3.70537 96.1616 6.15212C100.276 9.35386 102.487 13.6881 103.144 18.7913C103.382 20.6089 103.494 22.4125 103.466 24.2021H113.29C113.346 23.0556 113.332 21.8812 113.248 20.6928ZM62.8011 52.4445V70.7602H72.6526V52.4445H62.8011Z" fill="url(#paint17_linear_594_806)"/>
<path d="M92.2155 48.5158C91.8376 48.9212 91.4598 48.9492 91.054 48.8373C90.6062 48.7115 90.3543 48.3899 90.2704 47.9425C90.2424 47.7747 90.2424 47.593 90.2424 47.4112C90.2424 44.8247 90.2564 42.2381 90.2284 39.6516C90.2284 39.0504 90.1584 38.4212 89.9625 37.834C88.969 34.7441 86.0583 34.4365 83.9593 36.1982C83.8054 36.338 83.6654 36.4918 83.5115 36.6456C83.0917 37.093 82.8818 37.5264 83.1617 38.1975C83.3716 38.7008 83.3716 39.302 83.3716 39.8613C83.3856 42.5038 83.3856 45.1323 83.3716 47.7747C83.3716 48.1942 83.4136 48.5437 83.8753 48.7395C83.1757 48.7395 82.462 48.7395 81.7623 48.7395C82.392 48.5018 82.2521 47.9565 82.2521 47.4811C82.2521 44.8806 82.2941 42.2661 82.2381 39.6655C82.2241 38.8546 82.0562 38.0157 81.7483 37.2747C80.9367 35.3313 79.0756 34.6462 77.1305 35.4711C76.9765 35.541 76.8226 35.597 76.6127 35.6808C77.5923 34.1009 81.2026 35.0237 82.8258 37.2328C82.9098 37.1069 82.9938 37.0091 83.0777 36.8972C84.1412 35.3593 86.1003 34.6183 87.9055 35.0657C89.7806 35.527 91.11 37.0231 91.3479 38.9385C91.3898 39.2461 91.4038 39.5537 91.4038 39.8613C91.4038 42.5038 91.4038 45.1323 91.4038 47.7747C91.3899 48.4738 91.4318 48.5158 92.2155 48.5158Z" fill="url(#paint18_linear_594_806)"/>
<path d="M130.6 48.7255C130.991 48.5297 131.075 48.2222 131.075 47.8167C131.061 41.3992 131.075 34.9678 131.061 28.5503C131.061 28.4105 131.047 28.2707 131.033 28.075C129.256 28.075 127.479 27.9911 125.8 28.6202C125.492 28.7321 125.226 28.9977 124.876 29.2354C124.876 28.8439 124.862 28.4245 124.89 28.019C124.89 27.9631 125.03 27.8932 125.1 27.8792C125.226 27.8513 125.352 27.8652 125.492 27.8652C129.592 27.8652 133.692 27.8792 137.778 27.8513C138.268 27.8513 138.464 27.9631 138.394 28.4664C138.366 28.7321 138.394 28.9977 138.338 29.2774C137.918 28.6342 137.247 28.5224 136.617 28.3686C135.189 28.033 133.734 28.075 132.237 28.0889C132.223 28.2567 132.209 28.3965 132.209 28.5363C132.209 34.9818 132.209 41.4132 132.209 47.8586C132.209 48.2361 132.223 48.5857 132.685 48.7535C131.985 48.7255 131.299 48.7255 130.6 48.7255Z" fill="url(#paint19_linear_594_806)"/>
<path d="M180.948 28.6342C180.738 28.6202 180.598 28.6202 180.458 28.6062C180.444 28.5643 180.416 28.5363 180.402 28.4944C180.92 28.2288 181.452 27.9631 182.082 27.6415C182.082 27.9072 182.082 28.0889 182.082 28.2707C182.082 34.7581 182.082 41.2454 182.082 47.7188C182.082 48.1243 182.054 48.5297 182.571 48.6975C181.872 48.6975 181.172 48.6975 180.472 48.6975C181.074 48.4878 180.948 47.9845 180.948 47.5371C180.948 41.4552 180.948 35.3732 180.948 29.2913C180.948 29.0956 180.948 28.8859 180.948 28.6342Z" fill="url(#paint20_linear_594_806)"/>
<path d="M109.581 48.7395C108.882 48.7395 108.182 48.7395 107.482 48.7395C108.042 48.5437 107.972 48.0823 107.972 47.6489C107.972 41.539 107.972 35.4292 107.972 29.3053C107.972 29.0956 107.972 28.8859 107.972 28.6482C107.776 28.6342 107.622 28.6202 107.482 28.6062C107.468 28.5783 107.454 28.5363 107.44 28.5084C107.972 28.2427 108.49 27.9771 109.12 27.6555C109.12 27.9351 109.12 28.1169 109.12 28.2987C109.12 34.772 109.12 41.2315 109.12 47.7048C109.092 48.1383 109.106 48.5158 109.581 48.7395Z" fill="url(#paint21_linear_594_806)"/>
<path d="M56.4201 43.6922C56.4341 43.7621 56.4481 43.818 56.4481 43.86C56.3361 46.2648 57.4696 47.8586 59.7785 48.5437C62.3813 49.3127 65.0401 47.8726 65.6978 45.342C66.1456 43.5803 65.4599 41.6649 63.9066 40.6722C62.1994 39.5677 60.4362 38.533 58.701 37.4705C56.2802 35.9744 55.4126 33.1222 56.616 30.6336C57.4696 28.8999 58.883 27.9491 60.8001 27.7254C60.912 27.7114 61.024 27.7114 61.1359 27.7254C61.1779 27.7254 61.2199 27.7534 61.3878 27.8233C61.1639 27.8652 61.052 27.9072 60.954 27.9212C59.0089 28.0889 57.4276 29.4032 56.9379 31.2627C56.4481 33.1222 57.1618 35.1076 58.771 36.1562C60.4222 37.2188 62.1294 38.2255 63.8227 39.2321C65.166 40.0291 66.1036 41.1336 66.4254 42.6855C67.0971 45.9432 64.5783 48.9632 61.2339 48.9212C58.3232 48.8933 56.1402 46.9359 55.8744 44.1396C55.8464 43.7201 55.9583 43.5524 56.4201 43.6922Z" fill="url(#paint22_linear_594_806)"/>
<path d="M123.239 45.0484C123.155 45.2301 123.085 45.4119 122.987 45.5937C121.91 47.607 120.3 48.8653 117.949 48.9072C115.683 48.9352 114.087 47.7608 112.968 45.9012C111.191 42.9512 111.708 38.8267 114.087 36.5337C116.69 34.045 120.524 34.5204 122.567 37.6103C123.435 38.9245 123.841 40.3786 123.841 42.0004C121.434 42.0004 119.041 42.0004 116.662 42.0004C116.662 41.9585 116.662 41.9165 116.662 41.8606C118.649 41.8606 120.65 41.8606 122.693 41.8606C122.679 40.071 122.245 38.5051 121.266 37.1069C120.79 36.4219 120.188 35.8626 119.419 35.4991C117.74 34.7021 115.85 35.2474 114.605 36.9531C112.996 39.1342 112.73 41.581 113.318 44.1536C113.584 45.342 114.101 46.4046 114.941 47.3134C116.284 48.7674 118.033 49.1309 119.853 48.334C121.154 47.7748 122.078 46.7961 122.749 45.5797C122.861 45.3839 122.973 45.1742 123.085 44.9785C123.141 44.9925 123.183 45.0204 123.239 45.0484Z" fill="url(#paint23_linear_594_806)"/>
<path d="M178.191 42.0144C175.771 42.0144 173.392 42.0144 171.027 42.0144C171.027 41.9725 171.027 41.9165 171.027 41.8746C173.014 41.8746 175.001 41.8746 176.974 41.8746C177.31 39.6516 175.827 36.6176 173.965 35.597C172.272 34.6602 170.271 35.1495 168.97 36.9112C167.347 39.0923 167.067 41.567 167.654 44.1536C167.92 45.342 168.452 46.4046 169.278 47.3134C170.607 48.7535 172.342 49.117 174.147 48.348C175.463 47.7887 176.4 46.81 177.086 45.5657C177.198 45.3699 177.31 45.1602 177.52 45.0064C177.52 45.0624 177.548 45.1183 177.534 45.1742C176.582 47.3973 174.455 49.1729 171.699 48.8933C169.991 48.7255 168.704 47.8447 167.71 46.5024C165.695 43.804 165.807 39.6236 167.948 37.065C170.481 34.031 174.721 34.2827 176.932 37.6243C177.786 38.9245 178.191 40.3926 178.191 42.0144Z" fill="url(#paint24_linear_594_806)"/>
<path d="M153.731 43.091C153.745 43.3566 153.759 43.5244 153.759 43.6922C153.759 45.0204 153.759 46.3486 153.759 47.6769C153.759 48.5018 153.787 48.5158 154.626 48.5018C154.263 48.8933 153.871 48.9632 153.423 48.8373C152.597 48.5857 152.597 47.9006 152.625 47.0757C152.415 47.3274 152.275 47.4811 152.136 47.6349C150.946 48.9632 149.449 49.1729 147.826 48.7395C146.272 48.32 145.195 47.3413 144.915 45.7055C144.691 44.4052 145.223 43.3287 146.146 42.4478C147.056 41.595 148.147 41.1476 149.393 41.1336C150.121 41.1336 150.848 41.1755 151.576 41.2035C151.912 41.2175 152.248 41.2035 152.597 41.2035C152.611 39.8892 152.709 38.6589 152.22 37.4844C151.45 35.6109 149.925 34.814 148.021 35.3173C147.252 35.5131 146.706 35.9745 146.356 36.7714C146.202 36.6316 146.062 36.5057 145.936 36.3799C147.42 34.6043 150.414 34.4784 152.206 36.1003C153.227 37.0231 153.703 38.1835 153.731 39.5397C153.731 39.7354 153.731 39.9312 153.731 40.1269C153.731 41.1056 153.563 41.3293 152.569 41.3992C152.01 41.4412 151.436 41.3992 150.876 41.3853C150.47 41.3713 150.065 41.3573 149.659 41.3433C147.322 41.2315 146.202 43.091 146.216 44.8666C146.23 45.9991 146.608 47.0337 147.434 47.8447C148.553 48.9492 150.135 49.0331 151.394 48.0264C152.723 46.9638 153.283 45.4958 153.465 43.846C153.493 43.6502 153.507 43.4685 153.535 43.2727C153.577 43.2168 153.619 43.1889 153.731 43.091Z" fill="url(#paint25_linear_594_806)"/>
<path d="M139.36 48.7395C138.646 48.7395 137.946 48.7395 137.233 48.7395C137.848 48.5437 137.75 48.0544 137.75 47.607C137.75 43.8739 137.75 40.1269 137.75 36.3939C137.75 35.8206 137.75 35.8207 137.177 35.7228C137.708 35.4571 138.24 35.1775 138.87 34.8559C138.87 35.527 138.87 36.0863 138.87 36.6735C139.36 36.338 139.779 36.0164 140.227 35.7507C141.179 35.2195 142.214 34.9818 143.292 34.9258C144.033 34.8839 144.075 34.9258 143.907 35.7368C143.558 35.6109 143.236 35.4432 142.872 35.3872C141.291 35.1775 140.059 35.8906 138.982 36.9531C138.884 37.051 138.87 37.2468 138.87 37.4006C138.87 40.8819 138.87 44.3493 138.856 47.8307C138.856 48.2501 138.94 48.5717 139.36 48.7395Z" fill="url(#paint26_linear_594_806)"/>
<path d="M160.266 48.8793C160.21 48.7255 160.14 48.5577 160.098 48.4039C158.783 44.3633 157.467 40.3366 156.166 36.296C156.012 35.7927 155.9 35.2754 155.214 35.1915C155.242 35.1495 155.27 35.1076 155.284 35.0796C156.012 35.0796 156.739 35.0796 157.635 35.0796C156.991 35.3453 157.145 35.6948 157.271 36.0723C158.419 39.5816 159.538 43.105 160.728 46.6003C161.035 47.4951 160.588 48.1243 160.266 48.8793Z" fill="url(#paint27_linear_594_806)"/>
<path d="M68.9443 35.7088C69.476 35.4432 70.0078 35.1775 70.6375 34.8699C70.6375 35.1635 70.6375 35.3593 70.6375 35.541C70.6375 39.5956 70.6375 43.6642 70.6375 47.7188C70.6375 48.1383 70.6375 48.5437 71.1553 48.7255C70.4416 48.7255 69.7279 48.7255 69.0143 48.7255C69.63 48.5437 69.532 48.0404 69.532 47.593C69.532 43.86 69.532 40.1269 69.532 36.3939C69.518 35.8206 69.518 35.8207 68.9443 35.7088Z" fill="url(#paint28_linear_594_806)"/>
<path d="M75.899 48.7535C75.1854 48.7535 74.4857 48.7535 73.772 48.7535C74.4017 48.5437 74.2758 48.0264 74.2758 47.579C74.2758 43.86 74.2758 40.1409 74.2758 36.4219C74.2758 36.0583 74.3038 35.6948 73.6881 35.8766C73.6881 35.8207 73.6881 35.7787 73.7021 35.7228C74.2338 35.4571 74.7656 35.1775 75.3953 34.8559C75.3953 35.1635 75.3953 35.3453 75.3953 35.527C75.3953 39.5956 75.3953 43.6782 75.3953 47.7468C75.3953 48.1523 75.3953 48.5437 75.969 48.6276C75.955 48.6696 75.927 48.7115 75.899 48.7535Z" fill="url(#paint29_linear_594_806)"/>
<path d="M165.429 35.0796C164.898 35.2754 164.73 35.7088 164.576 36.1702C163.652 39.0084 162.715 41.8466 161.791 44.6849C161.735 44.8387 161.679 44.9925 161.623 45.1602C161.581 45.1462 161.525 45.1323 161.483 45.1183C161.525 44.9365 161.553 44.7408 161.609 44.573C162.547 41.7068 163.484 38.8406 164.422 35.9605C164.52 35.6389 164.674 35.3173 164.226 35.0796C164.618 35.0796 165.024 35.0796 165.429 35.0796Z" fill="url(#paint30_linear_594_806)"/>
<path d="M70.0778 30.9272C69.574 30.9272 69.1822 30.5357 69.1822 30.0463C69.1822 29.571 69.574 29.1795 70.0498 29.1655C70.5395 29.1515 70.9593 29.557 70.9733 30.0324C70.9873 30.5217 70.5815 30.9272 70.0778 30.9272Z" fill="url(#paint31_linear_594_806)"/>
<path d="M66.2855 32.9964C66.1176 32.9964 65.9637 32.9964 65.7538 32.9964C66.0616 31.3885 65.5718 30.0883 64.2844 28.9698C65.3899 29.2494 66.5234 31.6262 66.2855 32.9964Z" fill="url(#paint32_linear_594_806)"/>
<path d="M96.4842 54.36C95.8965 54.36 95.1828 54.36 94.4692 54.36C94.4272 54.332 94.3852 54.2901 94.3572 54.2621C95.0849 54.1503 94.9869 53.6609 94.9869 53.2135C94.9869 49.7881 94.9869 46.3626 94.9869 42.9232C94.9869 40.7561 94.9869 38.589 94.9869 36.4219C94.9869 36.0164 94.9869 35.6948 94.3572 35.8626C94.3712 35.8207 94.3852 35.7647 94.3852 35.7228C94.9169 35.4571 95.4487 35.1915 96.0504 34.8839C96.0504 35.7368 96.0504 36.4918 96.0504 37.2607C96.0924 37.2747 96.1204 37.2887 96.1624 37.3167C96.2463 37.2048 96.3303 37.093 96.4142 36.9671C97.4358 35.6389 98.6952 34.7581 100.472 34.9678C101.648 35.1076 102.543 35.7507 103.285 36.6316C105.58 39.4139 105.622 44.2095 103.397 47.0337C101.41 49.5644 98.3314 49.4945 96.4422 46.8939C96.3583 46.7681 96.2603 46.6423 96.1064 46.4465C96.0924 46.6283 96.0784 46.6982 96.0784 46.7681C96.0784 49.0051 96.0644 51.2282 96.0924 53.4652C96.1204 53.7728 96.3443 54.0384 96.4842 54.36ZM103.621 41.5391C103.565 41.0777 103.509 40.1689 103.327 39.288C103.075 38.0297 102.641 36.8273 101.676 35.8906C101.13 35.3593 100.486 35.0936 99.7027 35.1635C98.4293 35.2894 97.4778 35.9325 96.7501 36.9112C95.3228 38.8127 94.903 40.9798 95.2528 43.3007C95.5187 45.0903 96.2044 46.6982 97.6597 47.8726C99.4508 49.3267 101.312 48.9772 102.473 46.9918C102.557 46.852 102.627 46.7122 102.697 46.5584C103.383 45.1043 103.579 43.5524 103.621 41.5391Z" fill="#73523F"/>
<path d="M92.2162 48.5158C91.8384 48.9212 91.4606 48.9492 91.0547 48.8373C90.607 48.7115 90.3551 48.3899 90.2711 47.9425C90.2431 47.7747 90.2431 47.593 90.2431 47.4112C90.2431 44.8247 90.2571 42.2381 90.2291 39.6516C90.2291 39.0504 90.1592 38.4212 89.9633 37.834C88.9697 34.7441 86.0591 34.4365 83.96 36.1981C83.8061 36.338 83.6662 36.4918 83.5123 36.6456C83.0924 37.093 82.8825 37.5264 83.1624 38.1975C83.3723 38.7008 83.3723 39.302 83.3723 39.8613C83.3863 42.5038 83.3863 45.1323 83.3723 47.7748C83.3723 48.1942 83.4143 48.5437 83.8761 48.7395C83.1764 48.7395 82.4627 48.7395 81.7631 48.7395C82.3928 48.5018 82.2528 47.9565 82.2528 47.4811C82.2528 44.8806 82.2948 42.2661 82.2388 39.6655C82.2249 38.8546 82.0569 38.0157 81.7491 37.2747C80.9375 35.3313 79.0763 34.6462 77.1312 35.4711C76.9773 35.541 76.8234 35.597 76.6135 35.6808C77.593 34.1009 81.2033 35.0237 82.8266 37.2328C82.9105 37.1069 82.9945 37.0091 83.0785 36.8972C84.142 35.3593 86.1011 34.6183 87.9062 35.0657C89.7813 35.527 91.1107 37.0231 91.3486 38.9385C91.3906 39.2461 91.4046 39.5537 91.4046 39.8613C91.4046 42.5038 91.4046 45.1323 91.4046 47.7748C91.3906 48.4738 91.4326 48.5158 92.2162 48.5158Z" fill="#73523F"/>
<path d="M130.6 48.7255C130.992 48.5297 131.076 48.2222 131.076 47.8167C131.062 41.3992 131.076 34.9678 131.062 28.5503C131.062 28.4105 131.048 28.2707 131.034 28.075C129.257 28.075 127.48 27.9911 125.801 28.6202C125.493 28.7321 125.227 28.9977 124.877 29.2354C124.877 28.8439 124.863 28.4245 124.891 28.019C124.891 27.9631 125.031 27.8932 125.101 27.8792C125.227 27.8513 125.353 27.8652 125.493 27.8652C129.593 27.8652 133.693 27.8792 137.779 27.8513C138.269 27.8513 138.465 27.9631 138.395 28.4664C138.367 28.7321 138.395 28.9977 138.339 29.2774C137.919 28.6342 137.247 28.5224 136.618 28.3686C135.19 28.033 133.735 28.075 132.238 28.0889C132.224 28.2567 132.21 28.3965 132.21 28.5363C132.21 34.9818 132.21 41.4132 132.21 47.8586C132.21 48.2361 132.224 48.5857 132.685 48.7535C131.986 48.7255 131.3 48.7255 130.6 48.7255Z" fill="#73523F"/>
<path d="M180.949 28.6342C180.739 28.6202 180.599 28.6202 180.459 28.6063C180.445 28.5643 180.417 28.5363 180.403 28.4944C180.921 28.2288 181.453 27.9631 182.082 27.6415C182.082 27.9072 182.082 28.0889 182.082 28.2707C182.082 34.7581 182.082 41.2454 182.082 47.7188C182.082 48.1243 182.054 48.5297 182.572 48.6975C181.872 48.6975 181.173 48.6975 180.473 48.6975C181.075 48.4878 180.949 47.9845 180.949 47.5371C180.949 41.4552 180.949 35.3732 180.949 29.2913C180.949 29.0956 180.949 28.8859 180.949 28.6342Z" fill="#73523F"/>
<path d="M109.582 48.7395C108.882 48.7395 108.183 48.7395 107.483 48.7395C108.043 48.5437 107.973 48.0823 107.973 47.6489C107.973 41.539 107.973 35.4292 107.973 29.3053C107.973 29.0956 107.973 28.8859 107.973 28.6482C107.777 28.6342 107.623 28.6202 107.483 28.6063C107.469 28.5783 107.455 28.5363 107.441 28.5084C107.973 28.2427 108.491 27.9771 109.12 27.6555C109.12 27.9351 109.12 28.1169 109.12 28.2987C109.12 34.772 109.12 41.2315 109.12 47.7048C109.092 48.1383 109.106 48.5158 109.582 48.7395Z" fill="#73523F"/>
<path d="M56.4209 43.6922C56.4348 43.7621 56.4488 43.818 56.4488 43.86C56.3369 46.2648 57.4704 47.8586 59.7793 48.5437C62.3821 49.3127 65.0408 47.8726 65.6985 45.342C66.1463 43.5803 65.4606 41.6649 63.9074 40.6722C62.2002 39.5677 60.437 38.533 58.7018 37.4705C56.2809 35.9745 55.4133 33.1222 56.6168 30.6336C57.4704 28.8999 58.8837 27.9491 60.8008 27.7254C60.9128 27.7114 61.0247 27.7114 61.1367 27.7254C61.1786 27.7254 61.2206 27.7534 61.3885 27.8233C61.1646 27.8652 61.0527 27.9072 60.9547 27.9212C59.0097 28.0889 57.4284 29.4032 56.9386 31.2627C56.4488 33.1222 57.1625 35.1076 58.7718 36.1562C60.423 37.2188 62.1302 38.2255 63.8234 39.2321C65.1668 40.0291 66.1043 41.1336 66.4262 42.6855C67.0979 45.9432 64.5791 48.9632 61.2346 48.9212C58.324 48.8933 56.141 46.9359 55.8751 44.1396C55.8471 43.7201 55.9591 43.5524 56.4209 43.6922Z" fill="#73523F"/>
<path d="M123.24 45.0484C123.156 45.2301 123.086 45.4119 122.988 45.5937C121.91 47.607 120.301 48.8653 117.95 48.9072C115.683 48.9352 114.088 47.7608 112.969 45.9012C111.191 42.9512 111.709 38.8267 114.088 36.5337C116.691 34.045 120.525 34.5204 122.568 37.6103C123.436 38.9245 123.841 40.3786 123.841 42.0004C121.435 42.0004 119.042 42.0004 116.663 42.0004C116.663 41.9585 116.663 41.9165 116.663 41.8606C118.65 41.8606 120.651 41.8606 122.694 41.8606C122.68 40.071 122.246 38.5051 121.267 37.1069C120.791 36.4219 120.189 35.8626 119.42 35.4991C117.74 34.7021 115.851 35.2474 114.606 36.9531C112.997 39.1342 112.731 41.581 113.318 44.1536C113.584 45.342 114.102 46.4046 114.942 47.3134C116.285 48.7674 118.034 49.131 119.853 48.334C121.155 47.7748 122.078 46.7961 122.75 45.5797C122.862 45.3839 122.974 45.1742 123.086 44.9785C123.142 44.9925 123.184 45.0204 123.24 45.0484Z" fill="#73523F"/>
<path d="M178.192 42.0144C175.771 42.0144 173.392 42.0144 171.028 42.0144C171.028 41.9725 171.028 41.9165 171.028 41.8746C173.015 41.8746 175.002 41.8746 176.975 41.8746C177.311 39.6516 175.827 36.6176 173.966 35.597C172.273 34.6602 170.272 35.1495 168.97 36.9112C167.347 39.0923 167.067 41.567 167.655 44.1536C167.921 45.342 168.453 46.4046 169.278 47.3134C170.608 48.7535 172.343 49.117 174.148 48.348C175.463 47.7887 176.401 46.81 177.087 45.5657C177.199 45.3699 177.311 45.1602 177.521 45.0064C177.521 45.0624 177.549 45.1183 177.535 45.1742C176.583 47.3973 174.456 49.1729 171.699 48.8933C169.992 48.7255 168.705 47.8447 167.711 46.5024C165.696 43.804 165.808 39.6236 167.949 37.065C170.482 34.031 174.722 34.2827 176.933 37.6243C177.786 38.9245 178.192 40.3926 178.192 42.0144Z" fill="#73523F"/>
<path d="M153.732 43.091C153.746 43.3566 153.76 43.5244 153.76 43.6922C153.76 45.0204 153.76 46.3487 153.76 47.6769C153.76 48.5018 153.788 48.5158 154.627 48.5018C154.263 48.8933 153.872 48.9632 153.424 48.8373C152.598 48.5857 152.598 47.9006 152.626 47.0757C152.416 47.3274 152.276 47.4811 152.136 47.6349C150.947 48.9632 149.45 49.1729 147.826 48.7395C146.273 48.32 145.196 47.3413 144.916 45.7055C144.692 44.4052 145.224 43.3287 146.147 42.4478C147.057 41.595 148.148 41.1476 149.394 41.1336C150.121 41.1336 150.849 41.1755 151.577 41.2035C151.912 41.2175 152.248 41.2035 152.598 41.2035C152.612 39.8892 152.71 38.6589 152.22 37.4844C151.451 35.6109 149.925 34.814 148.022 35.3173C147.253 35.5131 146.707 35.9745 146.357 36.7714C146.203 36.6316 146.063 36.5057 145.937 36.3799C147.421 34.6043 150.415 34.4784 152.206 36.1003C153.228 37.0231 153.704 38.1835 153.732 39.5397C153.732 39.7354 153.732 39.9312 153.732 40.1269C153.732 41.1056 153.564 41.3293 152.57 41.3992C152.01 41.4412 151.437 41.3992 150.877 41.3853C150.471 41.3713 150.065 41.3573 149.659 41.3433C147.323 41.2315 146.203 43.091 146.217 44.8666C146.231 45.9991 146.609 47.0337 147.435 47.8447C148.554 48.9492 150.135 49.0331 151.395 48.0264C152.724 46.9638 153.284 45.4958 153.466 43.846C153.494 43.6502 153.508 43.4685 153.536 43.2727C153.578 43.2168 153.62 43.1889 153.732 43.091Z" fill="#73523F"/>
<path d="M139.36 48.7395C138.647 48.7395 137.947 48.7395 137.233 48.7395C137.849 48.5437 137.751 48.0544 137.751 47.607C137.751 43.8739 137.751 40.1269 137.751 36.3939C137.751 35.8207 137.751 35.8207 137.177 35.7228C137.709 35.4571 138.241 35.1775 138.871 34.8559C138.871 35.527 138.871 36.0863 138.871 36.6735C139.36 36.338 139.78 36.0164 140.228 35.7507C141.179 35.2195 142.215 34.9818 143.292 34.9258C144.034 34.8839 144.076 34.9258 143.908 35.7368C143.558 35.6109 143.236 35.4432 142.873 35.3872C141.291 35.1775 140.06 35.8906 138.982 36.9531C138.885 37.051 138.871 37.2468 138.871 37.4006C138.871 40.8819 138.871 44.3493 138.857 47.8307C138.857 48.2501 138.94 48.5717 139.36 48.7395Z" fill="#73523F"/>
<path d="M160.267 48.8793C160.211 48.7255 160.141 48.5577 160.099 48.4039C158.783 44.3633 157.468 40.3366 156.166 36.296C156.013 35.7927 155.901 35.2754 155.215 35.1915C155.243 35.1495 155.271 35.1076 155.285 35.0796C156.013 35.0796 156.74 35.0796 157.636 35.0796C156.992 35.3453 157.146 35.6948 157.272 36.0723C158.419 39.5817 159.539 43.105 160.728 46.6003C161.036 47.4951 160.588 48.1243 160.267 48.8793Z" fill="#73523F"/>
<path d="M68.945 35.7088C69.4768 35.4432 70.0085 35.1775 70.6382 34.8699C70.6382 35.1635 70.6382 35.3593 70.6382 35.541C70.6382 39.5956 70.6382 43.6642 70.6382 47.7188C70.6382 48.1383 70.6382 48.5437 71.156 48.7255C70.4423 48.7255 69.7287 48.7255 69.015 48.7255C69.6307 48.5437 69.5328 48.0404 69.5328 47.593C69.5328 43.86 69.5328 40.1269 69.5328 36.3939C69.5188 35.8207 69.5188 35.8207 68.945 35.7088Z" fill="#73523F"/>
<path d="M75.8998 48.7535C75.1861 48.7535 74.4864 48.7535 73.7728 48.7535C74.4025 48.5437 74.2766 48.0264 74.2766 47.579C74.2766 43.86 74.2766 40.1409 74.2766 36.4219C74.2766 36.0583 74.3045 35.6948 73.6888 35.8766C73.6888 35.8207 73.6888 35.7787 73.7028 35.7228C74.2346 35.4571 74.7663 35.1775 75.396 34.8559C75.396 35.1635 75.396 35.3453 75.396 35.527C75.396 39.5956 75.396 43.6782 75.396 47.7468C75.396 48.1523 75.396 48.5437 75.9698 48.6276C75.9558 48.6696 75.9278 48.7115 75.8998 48.7535Z" fill="#73523F"/>
<path d="M165.43 35.0796C164.898 35.2754 164.73 35.7088 164.577 36.1702C163.653 39.0084 162.715 41.8466 161.792 44.6849C161.736 44.8387 161.68 44.9925 161.624 45.1602C161.582 45.1463 161.526 45.1323 161.484 45.1183C161.526 44.9365 161.554 44.7408 161.61 44.573C162.548 41.7068 163.485 38.8406 164.423 35.9605C164.521 35.6389 164.674 35.3173 164.227 35.0796C164.619 35.0796 165.024 35.0796 165.43 35.0796Z" fill="#73523F"/>
<path d="M70.0785 30.9272C69.5747 30.9272 69.1829 30.5357 69.1829 30.0463C69.1829 29.571 69.5747 29.1795 70.0505 29.1655C70.5403 29.1515 70.9601 29.557 70.9741 30.0324C70.9881 30.5217 70.5823 30.9272 70.0785 30.9272Z" fill="#73523F"/>
<path d="M66.2863 32.9964C66.1183 32.9964 65.9644 32.9964 65.7545 32.9964C66.0624 31.3886 65.5726 30.0883 64.2852 28.9698C65.3907 29.2494 66.5242 31.6262 66.2863 32.9964Z" fill="#73523F"/>
<path d="M92.2162 48.5158C91.8384 48.9212 91.4606 48.9492 91.0547 48.8373C90.607 48.7115 90.3551 48.3899 90.2711 47.9425C90.2431 47.7747 90.2431 47.593 90.2431 47.4112C90.2431 44.8247 90.2571 42.2381 90.2291 39.6516C90.2291 39.0504 90.1592 38.4212 89.9633 37.834C88.9697 34.7441 86.0591 34.4365 83.96 36.1981C83.8061 36.338 83.6662 36.4918 83.5123 36.6456C83.0924 37.093 82.8825 37.5264 83.1624 38.1975C83.3723 38.7008 83.3723 39.302 83.3723 39.8613C83.3863 42.5038 83.3863 45.1323 83.3723 47.7748C83.3723 48.1942 83.4143 48.5437 83.8761 48.7395C83.1764 48.7395 82.4627 48.7395 81.7631 48.7395C82.3928 48.5018 82.2528 47.9565 82.2528 47.4811C82.2528 44.8806 82.2948 42.2661 82.2388 39.6655C82.2249 38.8546 82.0569 38.0157 81.7491 37.2747C80.9375 35.3313 79.0763 34.6462 77.1312 35.4711C76.9773 35.541 76.8234 35.597 76.6135 35.6808C77.593 34.1009 81.2033 35.0237 82.8266 37.2328C82.9105 37.1069 82.9945 37.0091 83.0785 36.8972C84.142 35.3593 86.1011 34.6183 87.9062 35.0657C89.7813 35.527 91.1107 37.0231 91.3486 38.9385C91.3906 39.2461 91.4046 39.5537 91.4046 39.8613C91.4046 42.5038 91.4046 45.1323 91.4046 47.7748C91.3906 48.4738 91.4326 48.5158 92.2162 48.5158Z" fill="#73523F"/>
<path d="M130.6 48.7255C130.992 48.5297 131.076 48.2222 131.076 47.8167C131.062 41.3992 131.076 34.9678 131.062 28.5503C131.062 28.4105 131.048 28.2707 131.034 28.075C129.257 28.075 127.48 27.9911 125.801 28.6202C125.493 28.7321 125.227 28.9977 124.877 29.2354C124.877 28.8439 124.863 28.4245 124.891 28.019C124.891 27.9631 125.031 27.8932 125.101 27.8792C125.227 27.8513 125.353 27.8652 125.493 27.8652C129.593 27.8652 133.693 27.8792 137.779 27.8513C138.269 27.8513 138.465 27.9631 138.395 28.4664C138.367 28.7321 138.395 28.9977 138.339 29.2774C137.919 28.6342 137.247 28.5224 136.618 28.3686C135.19 28.033 133.735 28.075 132.238 28.0889C132.224 28.2567 132.21 28.3965 132.21 28.5363C132.21 34.9818 132.21 41.4132 132.21 47.8586C132.21 48.2361 132.224 48.5857 132.685 48.7535C131.986 48.7255 131.3 48.7255 130.6 48.7255Z" fill="#73523F"/>
<path d="M180.949 28.6342C180.739 28.6202 180.599 28.6202 180.459 28.6063C180.445 28.5643 180.417 28.5363 180.403 28.4944C180.921 28.2288 181.453 27.9631 182.082 27.6415C182.082 27.9072 182.082 28.0889 182.082 28.2707C182.082 34.7581 182.082 41.2454 182.082 47.7188C182.082 48.1243 182.054 48.5297 182.572 48.6975C181.872 48.6975 181.173 48.6975 180.473 48.6975C181.075 48.4878 180.949 47.9845 180.949 47.5371C180.949 41.4552 180.949 35.3732 180.949 29.2913C180.949 29.0956 180.949 28.8859 180.949 28.6342Z" fill="#73523F"/>
<path d="M109.582 48.7395C108.882 48.7395 108.183 48.7395 107.483 48.7395C108.043 48.5437 107.973 48.0823 107.973 47.6489C107.973 41.539 107.973 35.4292 107.973 29.3053C107.973 29.0956 107.973 28.8859 107.973 28.6482C107.777 28.6342 107.623 28.6202 107.483 28.6063C107.469 28.5783 107.455 28.5363 107.441 28.5084C107.973 28.2427 108.491 27.9771 109.12 27.6555C109.12 27.9351 109.12 28.1169 109.12 28.2987C109.12 34.772 109.12 41.2315 109.12 47.7048C109.092 48.1383 109.106 48.5158 109.582 48.7395Z" fill="#73523F"/>
<path d="M56.4209 43.6922C56.4348 43.7621 56.4488 43.818 56.4488 43.86C56.3369 46.2648 57.4704 47.8586 59.7793 48.5437C62.3821 49.3127 65.0408 47.8726 65.6985 45.342C66.1463 43.5803 65.4606 41.6649 63.9074 40.6722C62.2002 39.5677 60.437 38.533 58.7018 37.4705C56.2809 35.9745 55.4133 33.1222 56.6168 30.6336C57.4704 28.8999 58.8837 27.9491 60.8008 27.7254C60.9128 27.7114 61.0247 27.7114 61.1367 27.7254C61.1786 27.7254 61.2206 27.7534 61.3885 27.8233C61.1646 27.8652 61.0527 27.9072 60.9547 27.9212C59.0097 28.0889 57.4284 29.4032 56.9386 31.2627C56.4488 33.1222 57.1625 35.1076 58.7718 36.1562C60.423 37.2188 62.1302 38.2255 63.8234 39.2321C65.1668 40.0291 66.1043 41.1336 66.4262 42.6855C67.0979 45.9432 64.5791 48.9632 61.2346 48.9212C58.324 48.8933 56.141 46.9359 55.8751 44.1396C55.8471 43.7201 55.9591 43.5524 56.4209 43.6922Z" fill="#73523F"/>
<path d="M123.24 45.0484C123.156 45.2301 123.086 45.4119 122.988 45.5937C121.91 47.607 120.301 48.8653 117.95 48.9072C115.683 48.9352 114.088 47.7608 112.969 45.9012C111.191 42.9512 111.709 38.8267 114.088 36.5337C116.691 34.045 120.525 34.5204 122.568 37.6103C123.436 38.9245 123.841 40.3786 123.841 42.0004C121.435 42.0004 119.042 42.0004 116.663 42.0004C116.663 41.9585 116.663 41.9165 116.663 41.8606C118.65 41.8606 120.651 41.8606 122.694 41.8606C122.68 40.071 122.246 38.5051 121.267 37.1069C120.791 36.4219 120.189 35.8626 119.42 35.4991C117.74 34.7021 115.851 35.2474 114.606 36.9531C112.997 39.1342 112.731 41.581 113.318 44.1536C113.584 45.342 114.102 46.4046 114.942 47.3134C116.285 48.7674 118.034 49.131 119.853 48.334C121.155 47.7748 122.078 46.7961 122.75 45.5797C122.862 45.3839 122.974 45.1742 123.086 44.9785C123.142 44.9925 123.184 45.0204 123.24 45.0484Z" fill="#73523F"/>
<path d="M178.192 42.0144C175.771 42.0144 173.392 42.0144 171.028 42.0144C171.028 41.9725 171.028 41.9165 171.028 41.8746C173.015 41.8746 175.002 41.8746 176.975 41.8746C177.311 39.6516 175.827 36.6176 173.966 35.597C172.273 34.6602 170.272 35.1495 168.97 36.9112C167.347 39.0923 167.067 41.567 167.655 44.1536C167.921 45.342 168.453 46.4046 169.278 47.3134C170.608 48.7535 172.343 49.117 174.148 48.348C175.463 47.7887 176.401 46.81 177.087 45.5657C177.199 45.3699 177.311 45.1602 177.521 45.0064C177.521 45.0624 177.549 45.1183 177.535 45.1742C176.583 47.3973 174.456 49.1729 171.699 48.8933C169.992 48.7255 168.705 47.8447 167.711 46.5024C165.696 43.804 165.808 39.6236 167.949 37.065C170.482 34.031 174.722 34.2827 176.933 37.6243C177.786 38.9245 178.192 40.3926 178.192 42.0144Z" fill="#73523F"/>
<path d="M153.732 43.091C153.746 43.3566 153.76 43.5244 153.76 43.6922C153.76 45.0204 153.76 46.3487 153.76 47.6769C153.76 48.5018 153.788 48.5158 154.627 48.5018C154.263 48.8933 153.872 48.9632 153.424 48.8373C152.598 48.5857 152.598 47.9006 152.626 47.0757C152.416 47.3274 152.276 47.4811 152.136 47.6349C150.947 48.9632 149.45 49.1729 147.826 48.7395C146.273 48.32 145.196 47.3413 144.916 45.7055C144.692 44.4052 145.224 43.3287 146.147 42.4478C147.057 41.595 148.148 41.1476 149.394 41.1336C150.121 41.1336 150.849 41.1755 151.577 41.2035C151.912 41.2175 152.248 41.2035 152.598 41.2035C152.612 39.8892 152.71 38.6589 152.22 37.4844C151.451 35.6109 149.925 34.814 148.022 35.3173C147.253 35.5131 146.707 35.9745 146.357 36.7714C146.203 36.6316 146.063 36.5057 145.937 36.3799C147.421 34.6043 150.415 34.4784 152.206 36.1003C153.228 37.0231 153.704 38.1835 153.732 39.5397C153.732 39.7354 153.732 39.9312 153.732 40.1269C153.732 41.1056 153.564 41.3293 152.57 41.3992C152.01 41.4412 151.437 41.3992 150.877 41.3853C150.471 41.3713 150.065 41.3573 149.659 41.3433C147.323 41.2315 146.203 43.091 146.217 44.8666C146.231 45.9991 146.609 47.0337 147.435 47.8447C148.554 48.9492 150.135 49.0331 151.395 48.0264C152.724 46.9638 153.284 45.4958 153.466 43.846C153.494 43.6502 153.508 43.4685 153.536 43.2727C153.578 43.2168 153.62 43.1889 153.732 43.091Z" fill="#73523F"/>
<path d="M139.36 48.7395C138.647 48.7395 137.947 48.7395 137.233 48.7395C137.849 48.5437 137.751 48.0544 137.751 47.607C137.751 43.8739 137.751 40.1269 137.751 36.3939C137.751 35.8207 137.751 35.8207 137.177 35.7228C137.709 35.4571 138.241 35.1775 138.871 34.8559C138.871 35.527 138.871 36.0863 138.871 36.6735C139.36 36.338 139.78 36.0164 140.228 35.7507C141.179 35.2195 142.215 34.9818 143.292 34.9258C144.034 34.8839 144.076 34.9258 143.908 35.7368C143.558 35.6109 143.236 35.4432 142.873 35.3872C141.291 35.1775 140.06 35.8906 138.982 36.9531C138.885 37.051 138.871 37.2468 138.871 37.4006C138.871 40.8819 138.871 44.3493 138.857 47.8307C138.857 48.2501 138.94 48.5717 139.36 48.7395Z" fill="#73523F"/>
<path d="M160.267 48.8793C160.211 48.7255 160.141 48.5577 160.099 48.4039C158.783 44.3633 157.468 40.3366 156.166 36.296C156.013 35.7927 155.901 35.2754 155.215 35.1915C155.243 35.1495 155.271 35.1076 155.285 35.0796C156.013 35.0796 156.74 35.0796 157.636 35.0796C156.992 35.3453 157.146 35.6948 157.272 36.0723C158.419 39.5817 159.539 43.105 160.728 46.6003C161.036 47.4951 160.588 48.1243 160.267 48.8793Z" fill="#73523F"/>
<path d="M68.945 35.7088C69.4768 35.4432 70.0085 35.1775 70.6382 34.8699C70.6382 35.1635 70.6382 35.3593 70.6382 35.541C70.6382 39.5956 70.6382 43.6642 70.6382 47.7188C70.6382 48.1383 70.6382 48.5437 71.156 48.7255C70.4423 48.7255 69.7287 48.7255 69.015 48.7255C69.6307 48.5437 69.5328 48.0404 69.5328 47.593C69.5328 43.86 69.5328 40.1269 69.5328 36.3939C69.5188 35.8207 69.5188 35.8207 68.945 35.7088Z" fill="#73523F"/>
<path d="M75.8998 48.7535C75.1861 48.7535 74.4864 48.7535 73.7728 48.7535C74.4025 48.5437 74.2766 48.0264 74.2766 47.579C74.2766 43.86 74.2766 40.1409 74.2766 36.4219C74.2766 36.0583 74.3045 35.6948 73.6888 35.8766C73.6888 35.8207 73.6888 35.7787 73.7028 35.7228C74.2346 35.4571 74.7663 35.1775 75.396 34.8559C75.396 35.1635 75.396 35.3453 75.396 35.527C75.396 39.5956 75.396 43.6782 75.396 47.7468C75.396 48.1523 75.396 48.5437 75.9698 48.6276C75.9558 48.6696 75.9278 48.7115 75.8998 48.7535Z" fill="#73523F"/>
<path d="M165.43 35.0796C164.898 35.2754 164.73 35.7088 164.577 36.1702C163.653 39.0084 162.715 41.8466 161.792 44.6849C161.736 44.8387 161.68 44.9925 161.624 45.1602C161.582 45.1463 161.526 45.1323 161.484 45.1183C161.526 44.9365 161.554 44.7408 161.61 44.573C162.548 41.7068 163.485 38.8406 164.423 35.9605C164.521 35.6389 164.674 35.3173 164.227 35.0796C164.619 35.0796 165.024 35.0796 165.43 35.0796Z" fill="#73523F"/>
<path d="M70.0785 30.9272C69.5747 30.9272 69.1829 30.5357 69.1829 30.0463C69.1829 29.571 69.5747 29.1795 70.0505 29.1655C70.5403 29.1515 70.9601 29.557 70.9741 30.0324C70.9881 30.5217 70.5823 30.9272 70.0785 30.9272Z" fill="#73523F"/>
<path d="M66.2863 32.9964C66.1183 32.9964 65.9644 32.9964 65.7545 32.9964C66.0624 31.3886 65.5726 30.0883 64.2852 28.9698C65.3907 29.2494 66.5242 31.6262 66.2863 32.9964Z" fill="#73523F"/>
<path d="M96.4842 54.36C95.8965 54.36 95.1828 54.36 94.4692 54.36C94.4272 54.332 94.3852 54.2901 94.3572 54.2621C95.0849 54.1503 94.9869 53.6609 94.9869 53.2135C94.9869 49.7881 94.9869 46.3626 94.9869 42.9232C94.9869 40.7561 94.9869 38.589 94.9869 36.4219C94.9869 36.0164 94.9869 35.6948 94.3572 35.8626C94.3712 35.8207 94.3852 35.7647 94.3852 35.7228C94.9169 35.4571 95.4487 35.1915 96.0504 34.8839C96.0504 35.7368 96.0504 36.4918 96.0504 37.2607C96.0924 37.2747 96.1204 37.2887 96.1624 37.3167C96.2463 37.2048 96.3303 37.093 96.4142 36.9671C97.4358 35.6389 98.6952 34.7581 100.472 34.9678C101.648 35.1076 102.543 35.7507 103.285 36.6316C105.58 39.4139 105.622 44.2095 103.397 47.0337C101.41 49.5644 98.3314 49.4945 96.4422 46.8939C96.3583 46.7681 96.2603 46.6423 96.1064 46.4465C96.0924 46.6283 96.0784 46.6982 96.0784 46.7681C96.0784 49.0051 96.0644 51.2282 96.0924 53.4652C96.1204 53.7728 96.3443 54.0384 96.4842 54.36ZM103.621 41.5391C103.565 41.0777 103.509 40.1689 103.327 39.288C103.075 38.0297 102.641 36.8273 101.676 35.8906C101.13 35.3593 100.486 35.0936 99.7027 35.1635C98.4293 35.2894 97.4778 35.9325 96.7501 36.9112C95.3228 38.8127 94.903 40.9798 95.2528 43.3007C95.5187 45.0903 96.2044 46.6982 97.6597 47.8726C99.4508 49.3267 101.312 48.9772 102.473 46.9918C102.557 46.852 102.627 46.7122 102.697 46.5584C103.383 45.1043 103.579 43.5524 103.621 41.5391Z" stroke="#73523F"/>
<path d="M92.2162 48.5158C91.8384 48.9212 91.4606 48.9492 91.0547 48.8373C90.607 48.7115 90.3551 48.3899 90.2711 47.9425C90.2431 47.7747 90.2431 47.593 90.2431 47.4112C90.2431 44.8247 90.2571 42.2381 90.2291 39.6516C90.2291 39.0504 90.1592 38.4212 89.9633 37.834C88.9697 34.7441 86.0591 34.4365 83.96 36.1981C83.8061 36.338 83.6662 36.4918 83.5123 36.6456C83.0924 37.093 82.8825 37.5264 83.1624 38.1975C83.3723 38.7008 83.3723 39.302 83.3723 39.8613C83.3863 42.5038 83.3863 45.1323 83.3723 47.7748C83.3723 48.1942 83.4143 48.5437 83.8761 48.7395C83.1764 48.7395 82.4627 48.7395 81.7631 48.7395C82.3928 48.5018 82.2528 47.9565 82.2528 47.4811C82.2528 44.8806 82.2948 42.2661 82.2388 39.6655C82.2249 38.8546 82.0569 38.0157 81.7491 37.2747C80.9375 35.3313 79.0763 34.6462 77.1312 35.4711C76.9773 35.541 76.8234 35.597 76.6135 35.6808C77.593 34.1009 81.2033 35.0237 82.8266 37.2328C82.9105 37.1069 82.9945 37.0091 83.0785 36.8972C84.142 35.3593 86.1011 34.6183 87.9062 35.0657C89.7813 35.527 91.1107 37.0231 91.3486 38.9385C91.3906 39.2461 91.4046 39.5537 91.4046 39.8613C91.4046 42.5038 91.4046 45.1323 91.4046 47.7748C91.3906 48.4738 91.4326 48.5158 92.2162 48.5158Z" stroke="#73523F"/>
<path d="M130.6 48.7255C130.992 48.5297 131.076 48.2222 131.076 47.8167C131.062 41.3992 131.076 34.9678 131.062 28.5503C131.062 28.4105 131.048 28.2707 131.034 28.075C129.257 28.075 127.48 27.9911 125.801 28.6202C125.493 28.7321 125.227 28.9977 124.877 29.2354C124.877 28.8439 124.863 28.4245 124.891 28.019C124.891 27.9631 125.031 27.8932 125.101 27.8792C125.227 27.8513 125.353 27.8652 125.493 27.8652C129.593 27.8652 133.693 27.8792 137.779 27.8513C138.269 27.8513 138.465 27.9631 138.395 28.4664C138.367 28.7321 138.395 28.9977 138.339 29.2774C137.919 28.6342 137.247 28.5224 136.618 28.3686C135.19 28.033 133.735 28.075 132.238 28.0889C132.224 28.2567 132.21 28.3965 132.21 28.5363C132.21 34.9818 132.21 41.4132 132.21 47.8586C132.21 48.2361 132.224 48.5857 132.685 48.7535C131.986 48.7255 131.3 48.7255 130.6 48.7255Z" stroke="#73523F"/>
<path d="M180.949 28.6342C180.739 28.6202 180.599 28.6202 180.459 28.6063C180.445 28.5643 180.417 28.5363 180.403 28.4944C180.921 28.2288 181.453 27.9631 182.082 27.6415C182.082 27.9072 182.082 28.0889 182.082 28.2707C182.082 34.7581 182.082 41.2454 182.082 47.7188C182.082 48.1243 182.054 48.5297 182.572 48.6975C181.872 48.6975 181.173 48.6975 180.473 48.6975C181.075 48.4878 180.949 47.9845 180.949 47.5371C180.949 41.4552 180.949 35.3732 180.949 29.2913C180.949 29.0956 180.949 28.8859 180.949 28.6342Z" stroke="#73523F"/>
<path d="M109.582 48.7395C108.882 48.7395 108.183 48.7395 107.483 48.7395C108.043 48.5437 107.973 48.0823 107.973 47.6489C107.973 41.539 107.973 35.4292 107.973 29.3053C107.973 29.0956 107.973 28.8859 107.973 28.6482C107.777 28.6342 107.623 28.6202 107.483 28.6063C107.469 28.5783 107.455 28.5363 107.441 28.5084C107.973 28.2427 108.491 27.9771 109.12 27.6555C109.12 27.9351 109.12 28.1169 109.12 28.2987C109.12 34.772 109.12 41.2315 109.12 47.7048C109.092 48.1383 109.106 48.5158 109.582 48.7395Z" stroke="#73523F"/>
<path d="M56.4209 43.6922C56.4348 43.7621 56.4488 43.818 56.4488 43.86C56.3369 46.2648 57.4704 47.8586 59.7793 48.5437C62.3821 49.3127 65.0408 47.8726 65.6985 45.342C66.1463 43.5803 65.4606 41.6649 63.9074 40.6722C62.2002 39.5677 60.437 38.533 58.7018 37.4705C56.2809 35.9745 55.4133 33.1222 56.6168 30.6336C57.4704 28.8999 58.8837 27.9491 60.8008 27.7254C60.9128 27.7114 61.0247 27.7114 61.1367 27.7254C61.1786 27.7254 61.2206 27.7534 61.3885 27.8233C61.1646 27.8652 61.0527 27.9072 60.9547 27.9212C59.0097 28.0889 57.4284 29.4032 56.9386 31.2627C56.4488 33.1222 57.1625 35.1076 58.7718 36.1562C60.423 37.2188 62.1302 38.2255 63.8234 39.2321C65.1668 40.0291 66.1043 41.1336 66.4262 42.6855C67.0979 45.9432 64.5791 48.9632 61.2346 48.9212C58.324 48.8933 56.141 46.9359 55.8751 44.1396C55.8471 43.7201 55.9591 43.5524 56.4209 43.6922Z" stroke="#73523F"/>
<path d="M123.24 45.0484C123.156 45.2301 123.086 45.4119 122.988 45.5937C121.91 47.607 120.301 48.8653 117.95 48.9072C115.683 48.9352 114.088 47.7608 112.969 45.9012C111.191 42.9512 111.709 38.8267 114.088 36.5337C116.691 34.045 120.525 34.5204 122.568 37.6103C123.436 38.9245 123.841 40.3786 123.841 42.0004C121.435 42.0004 119.042 42.0004 116.663 42.0004C116.663 41.9585 116.663 41.9165 116.663 41.8606C118.65 41.8606 120.651 41.8606 122.694 41.8606C122.68 40.071 122.246 38.5051 121.267 37.1069C120.791 36.4219 120.189 35.8626 119.42 35.4991C117.74 34.7021 115.851 35.2474 114.606 36.9531C112.997 39.1342 112.731 41.581 113.318 44.1536C113.584 45.342 114.102 46.4046 114.942 47.3134C116.285 48.7674 118.034 49.131 119.853 48.334C121.155 47.7748 122.078 46.7961 122.75 45.5797C122.862 45.3839 122.974 45.1742 123.086 44.9785C123.142 44.9925 123.184 45.0204 123.24 45.0484Z" stroke="#73523F"/>
<path d="M178.192 42.0144C175.771 42.0144 173.392 42.0144 171.028 42.0144C171.028 41.9725 171.028 41.9165 171.028 41.8746C173.015 41.8746 175.002 41.8746 176.975 41.8746C177.311 39.6516 175.827 36.6176 173.966 35.597C172.273 34.6602 170.272 35.1495 168.97 36.9112C167.347 39.0923 167.067 41.567 167.655 44.1536C167.921 45.342 168.453 46.4046 169.278 47.3134C170.608 48.7535 172.343 49.117 174.148 48.348C175.463 47.7887 176.401 46.81 177.087 45.5657C177.199 45.3699 177.311 45.1602 177.521 45.0064C177.521 45.0624 177.549 45.1183 177.535 45.1742C176.583 47.3973 174.456 49.1729 171.699 48.8933C169.992 48.7255 168.705 47.8447 167.711 46.5024C165.696 43.804 165.808 39.6236 167.949 37.065C170.482 34.031 174.722 34.2827 176.933 37.6243C177.786 38.9245 178.192 40.3926 178.192 42.0144Z" stroke="#73523F"/>
<path d="M153.732 43.091C153.746 43.3566 153.76 43.5244 153.76 43.6922C153.76 45.0204 153.76 46.3487 153.76 47.6769C153.76 48.5018 153.788 48.5158 154.627 48.5018C154.263 48.8933 153.872 48.9632 153.424 48.8373C152.598 48.5857 152.598 47.9006 152.626 47.0757C152.416 47.3274 152.276 47.4811 152.136 47.6349C150.947 48.9632 149.45 49.1729 147.826 48.7395C146.273 48.32 145.196 47.3413 144.916 45.7055C144.692 44.4052 145.224 43.3287 146.147 42.4478C147.057 41.595 148.148 41.1476 149.394 41.1336C150.121 41.1336 150.849 41.1755 151.577 41.2035C151.912 41.2175 152.248 41.2035 152.598 41.2035C152.612 39.8892 152.71 38.6589 152.22 37.4844C151.451 35.6109 149.925 34.814 148.022 35.3173C147.253 35.5131 146.707 35.9745 146.357 36.7714C146.203 36.6316 146.063 36.5057 145.937 36.3799C147.421 34.6043 150.415 34.4784 152.206 36.1003C153.228 37.0231 153.704 38.1835 153.732 39.5397C153.732 39.7354 153.732 39.9312 153.732 40.1269C153.732 41.1056 153.564 41.3293 152.57 41.3992C152.01 41.4412 151.437 41.3992 150.877 41.3853C150.471 41.3713 150.065 41.3573 149.659 41.3433C147.323 41.2315 146.203 43.091 146.217 44.8666C146.231 45.9991 146.609 47.0337 147.435 47.8447C148.554 48.9492 150.135 49.0331 151.395 48.0264C152.724 46.9638 153.284 45.4958 153.466 43.846C153.494 43.6502 153.508 43.4685 153.536 43.2727C153.578 43.2168 153.62 43.1889 153.732 43.091Z" stroke="#73523F"/>
<path d="M139.36 48.7395C138.647 48.7395 137.947 48.7395 137.233 48.7395C137.849 48.5437 137.751 48.0544 137.751 47.607C137.751 43.8739 137.751 40.1269 137.751 36.3939C137.751 35.8207 137.751 35.8207 137.177 35.7228C137.709 35.4571 138.241 35.1775 138.871 34.8559C138.871 35.527 138.871 36.0863 138.871 36.6735C139.36 36.338 139.78 36.0164 140.228 35.7507C141.179 35.2195 142.215 34.9818 143.292 34.9258C144.034 34.8839 144.076 34.9258 143.908 35.7368C143.558 35.6109 143.236 35.4432 142.873 35.3872C141.291 35.1775 140.06 35.8906 138.982 36.9531C138.885 37.051 138.871 37.2468 138.871 37.4006C138.871 40.8819 138.871 44.3493 138.857 47.8307C138.857 48.2501 138.94 48.5717 139.36 48.7395Z" stroke="#73523F"/>
<path d="M160.267 48.8793C160.211 48.7255 160.141 48.5577 160.099 48.4039C158.783 44.3633 157.468 40.3366 156.166 36.296C156.013 35.7927 155.901 35.2754 155.215 35.1915C155.243 35.1495 155.271 35.1076 155.285 35.0796C156.013 35.0796 156.74 35.0796 157.636 35.0796C156.992 35.3453 157.146 35.6948 157.272 36.0723C158.419 39.5817 159.539 43.105 160.728 46.6003C161.036 47.4951 160.588 48.1243 160.267 48.8793Z" stroke="#73523F"/>
<path d="M68.945 35.7088C69.4768 35.4432 70.0085 35.1775 70.6382 34.8699C70.6382 35.1635 70.6382 35.3593 70.6382 35.541C70.6382 39.5956 70.6382 43.6642 70.6382 47.7188C70.6382 48.1383 70.6382 48.5437 71.156 48.7255C70.4423 48.7255 69.7287 48.7255 69.015 48.7255C69.6307 48.5437 69.5328 48.0404 69.5328 47.593C69.5328 43.86 69.5328 40.1269 69.5328 36.3939C69.5188 35.8207 69.5188 35.8207 68.945 35.7088Z" stroke="#73523F"/>
<path d="M75.8998 48.7535C75.1861 48.7535 74.4864 48.7535 73.7728 48.7535C74.4025 48.5437 74.2766 48.0264 74.2766 47.579C74.2766 43.86 74.2766 40.1409 74.2766 36.4219C74.2766 36.0583 74.3045 35.6948 73.6888 35.8766C73.6888 35.8207 73.6888 35.7787 73.7028 35.7228C74.2346 35.4571 74.7663 35.1775 75.396 34.8559C75.396 35.1635 75.396 35.3453 75.396 35.527C75.396 39.5956 75.396 43.6782 75.396 47.7468C75.396 48.1523 75.396 48.5437 75.9698 48.6276C75.9558 48.6696 75.9278 48.7115 75.8998 48.7535Z" stroke="#73523F"/>
<path d="M165.43 35.0796C164.898 35.2754 164.73 35.7088 164.577 36.1702C163.653 39.0084 162.715 41.8466 161.792 44.6849C161.736 44.8387 161.68 44.9925 161.624 45.1602C161.582 45.1463 161.526 45.1323 161.484 45.1183C161.526 44.9365 161.554 44.7408 161.61 44.573C162.548 41.7068 163.485 38.8406 164.423 35.9605C164.521 35.6389 164.674 35.3173 164.227 35.0796C164.619 35.0796 165.024 35.0796 165.43 35.0796Z" stroke="#73523F"/>
<path d="M70.0785 30.9272C69.5747 30.9272 69.1829 30.5357 69.1829 30.0463C69.1829 29.571 69.5747 29.1795 70.0505 29.1655C70.5403 29.1515 70.9601 29.557 70.9741 30.0324C70.9881 30.5217 70.5823 30.9272 70.0785 30.9272Z" stroke="#73523F"/>
<path d="M66.2863 32.9964C66.1183 32.9964 65.9644 32.9964 65.7545 32.9964C66.0624 31.3886 65.5726 30.0883 64.2852 28.9698C65.3907 29.2494 66.5242 31.6262 66.2863 32.9964Z" stroke="#73523F"/>
<path d="M92.2162 48.5158C91.8384 48.9212 91.4606 48.9492 91.0547 48.8373C90.607 48.7115 90.3551 48.3899 90.2711 47.9425C90.2431 47.7747 90.2431 47.593 90.2431 47.4112C90.2431 44.8247 90.2571 42.2381 90.2291 39.6516C90.2291 39.0504 90.1592 38.4212 89.9633 37.834C88.9697 34.7441 86.0591 34.4365 83.96 36.1981C83.8061 36.338 83.6662 36.4918 83.5123 36.6456C83.0924 37.093 82.8825 37.5264 83.1624 38.1975C83.3723 38.7008 83.3723 39.302 83.3723 39.8613C83.3863 42.5038 83.3863 45.1323 83.3723 47.7748C83.3723 48.1942 83.4143 48.5437 83.8761 48.7395C83.1764 48.7395 82.4627 48.7395 81.7631 48.7395C82.3928 48.5018 82.2528 47.9565 82.2528 47.4811C82.2528 44.8806 82.2948 42.2661 82.2388 39.6655C82.2249 38.8546 82.0569 38.0157 81.7491 37.2747C80.9375 35.3313 79.0763 34.6462 77.1312 35.4711C76.9773 35.541 76.8234 35.597 76.6135 35.6808C77.593 34.1009 81.2033 35.0237 82.8266 37.2328C82.9105 37.1069 82.9945 37.0091 83.0785 36.8972C84.142 35.3593 86.1011 34.6183 87.9062 35.0657C89.7813 35.527 91.1107 37.0231 91.3486 38.9385C91.3906 39.2461 91.4046 39.5537 91.4046 39.8613C91.4046 42.5038 91.4046 45.1323 91.4046 47.7748C91.3906 48.4738 91.4326 48.5158 92.2162 48.5158Z" stroke="#73523F"/>
<path d="M130.6 48.7255C130.992 48.5297 131.076 48.2222 131.076 47.8167C131.062 41.3992 131.076 34.9678 131.062 28.5503C131.062 28.4105 131.048 28.2707 131.034 28.075C129.257 28.075 127.48 27.9911 125.801 28.6202C125.493 28.7321 125.227 28.9977 124.877 29.2354C124.877 28.8439 124.863 28.4245 124.891 28.019C124.891 27.9631 125.031 27.8932 125.101 27.8792C125.227 27.8513 125.353 27.8652 125.493 27.8652C129.593 27.8652 133.693 27.8792 137.779 27.8513C138.269 27.8513 138.465 27.9631 138.395 28.4664C138.367 28.7321 138.395 28.9977 138.339 29.2774C137.919 28.6342 137.247 28.5224 136.618 28.3686C135.19 28.033 133.735 28.075 132.238 28.0889C132.224 28.2567 132.21 28.3965 132.21 28.5363C132.21 34.9818 132.21 41.4132 132.21 47.8586C132.21 48.2361 132.224 48.5857 132.685 48.7535C131.986 48.7255 131.3 48.7255 130.6 48.7255Z" stroke="#73523F"/>
<path d="M180.949 28.6342C180.739 28.6202 180.599 28.6202 180.459 28.6063C180.445 28.5643 180.417 28.5363 180.403 28.4944C180.921 28.2288 181.453 27.9631 182.082 27.6415C182.082 27.9072 182.082 28.0889 182.082 28.2707C182.082 34.7581 182.082 41.2454 182.082 47.7188C182.082 48.1243 182.054 48.5297 182.572 48.6975C181.872 48.6975 181.173 48.6975 180.473 48.6975C181.075 48.4878 180.949 47.9845 180.949 47.5371C180.949 41.4552 180.949 35.3732 180.949 29.2913C180.949 29.0956 180.949 28.8859 180.949 28.6342Z" stroke="#73523F"/>
<path d="M109.582 48.7395C108.882 48.7395 108.183 48.7395 107.483 48.7395C108.043 48.5437 107.973 48.0823 107.973 47.6489C107.973 41.539 107.973 35.4292 107.973 29.3053C107.973 29.0956 107.973 28.8859 107.973 28.6482C107.777 28.6342 107.623 28.6202 107.483 28.6063C107.469 28.5783 107.455 28.5363 107.441 28.5084C107.973 28.2427 108.491 27.9771 109.12 27.6555C109.12 27.9351 109.12 28.1169 109.12 28.2987C109.12 34.772 109.12 41.2315 109.12 47.7048C109.092 48.1383 109.106 48.5158 109.582 48.7395Z" stroke="#73523F"/>
<path d="M56.4209 43.6922C56.4348 43.7621 56.4488 43.818 56.4488 43.86C56.3369 46.2648 57.4704 47.8586 59.7793 48.5437C62.3821 49.3127 65.0408 47.8726 65.6985 45.342C66.1463 43.5803 65.4606 41.6649 63.9074 40.6722C62.2002 39.5677 60.437 38.533 58.7018 37.4705C56.2809 35.9745 55.4133 33.1222 56.6168 30.6336C57.4704 28.8999 58.8837 27.9491 60.8008 27.7254C60.9128 27.7114 61.0247 27.7114 61.1367 27.7254C61.1786 27.7254 61.2206 27.7534 61.3885 27.8233C61.1646 27.8652 61.0527 27.9072 60.9547 27.9212C59.0097 28.0889 57.4284 29.4032 56.9386 31.2627C56.4488 33.1222 57.1625 35.1076 58.7718 36.1562C60.423 37.2188 62.1302 38.2255 63.8234 39.2321C65.1668 40.0291 66.1043 41.1336 66.4262 42.6855C67.0979 45.9432 64.5791 48.9632 61.2346 48.9212C58.324 48.8933 56.141 46.9359 55.8751 44.1396C55.8471 43.7201 55.9591 43.5524 56.4209 43.6922Z" stroke="#73523F"/>
<path d="M123.24 45.0484C123.156 45.2301 123.086 45.4119 122.988 45.5937C121.91 47.607 120.301 48.8653 117.95 48.9072C115.683 48.9352 114.088 47.7608 112.969 45.9012C111.191 42.9512 111.709 38.8267 114.088 36.5337C116.691 34.045 120.525 34.5204 122.568 37.6103C123.436 38.9245 123.841 40.3786 123.841 42.0004C121.435 42.0004 119.042 42.0004 116.663 42.0004C116.663 41.9585 116.663 41.9165 116.663 41.8606C118.65 41.8606 120.651 41.8606 122.694 41.8606C122.68 40.071 122.246 38.5051 121.267 37.1069C120.791 36.4219 120.189 35.8626 119.42 35.4991C117.74 34.7021 115.851 35.2474 114.606 36.9531C112.997 39.1342 112.731 41.581 113.318 44.1536C113.584 45.342 114.102 46.4046 114.942 47.3134C116.285 48.7674 118.034 49.131 119.853 48.334C121.155 47.7748 122.078 46.7961 122.75 45.5797C122.862 45.3839 122.974 45.1742 123.086 44.9785C123.142 44.9925 123.184 45.0204 123.24 45.0484Z" stroke="#73523F"/>
<path d="M178.192 42.0144C175.771 42.0144 173.392 42.0144 171.028 42.0144C171.028 41.9725 171.028 41.9165 171.028 41.8746C173.015 41.8746 175.002 41.8746 176.975 41.8746C177.311 39.6516 175.827 36.6176 173.966 35.597C172.273 34.6602 170.272 35.1495 168.97 36.9112C167.347 39.0923 167.067 41.567 167.655 44.1536C167.921 45.342 168.453 46.4046 169.278 47.3134C170.608 48.7535 172.343 49.117 174.148 48.348C175.463 47.7887 176.401 46.81 177.087 45.5657C177.199 45.3699 177.311 45.1602 177.521 45.0064C177.521 45.0624 177.549 45.1183 177.535 45.1742C176.583 47.3973 174.456 49.1729 171.699 48.8933C169.992 48.7255 168.705 47.8447 167.711 46.5024C165.696 43.804 165.808 39.6236 167.949 37.065C170.482 34.031 174.722 34.2827 176.933 37.6243C177.786 38.9245 178.192 40.3926 178.192 42.0144Z" stroke="#73523F"/>
<path d="M153.732 43.091C153.746 43.3566 153.76 43.5244 153.76 43.6922C153.76 45.0204 153.76 46.3487 153.76 47.6769C153.76 48.5018 153.788 48.5158 154.627 48.5018C154.263 48.8933 153.872 48.9632 153.424 48.8373C152.598 48.5857 152.598 47.9006 152.626 47.0757C152.416 47.3274 152.276 47.4811 152.136 47.6349C150.947 48.9632 149.45 49.1729 147.826 48.7395C146.273 48.32 145.196 47.3413 144.916 45.7055C144.692 44.4052 145.224 43.3287 146.147 42.4478C147.057 41.595 148.148 41.1476 149.394 41.1336C150.121 41.1336 150.849 41.1755 151.577 41.2035C151.912 41.2175 152.248 41.2035 152.598 41.2035C152.612 39.8892 152.71 38.6589 152.22 37.4844C151.451 35.6109 149.925 34.814 148.022 35.3173C147.253 35.5131 146.707 35.9745 146.357 36.7714C146.203 36.6316 146.063 36.5057 145.937 36.3799C147.421 34.6043 150.415 34.4784 152.206 36.1003C153.228 37.0231 153.704 38.1835 153.732 39.5397C153.732 39.7354 153.732 39.9312 153.732 40.1269C153.732 41.1056 153.564 41.3293 152.57 41.3992C152.01 41.4412 151.437 41.3992 150.877 41.3853C150.471 41.3713 150.065 41.3573 149.659 41.3433C147.323 41.2315 146.203 43.091 146.217 44.8666C146.231 45.9991 146.609 47.0337 147.435 47.8447C148.554 48.9492 150.135 49.0331 151.395 48.0264C152.724 46.9638 153.284 45.4958 153.466 43.846C153.494 43.6502 153.508 43.4685 153.536 43.2727C153.578 43.2168 153.62 43.1889 153.732 43.091Z" stroke="#73523F"/>
<path d="M139.36 48.7395C138.647 48.7395 137.947 48.7395 137.233 48.7395C137.849 48.5437 137.751 48.0544 137.751 47.607C137.751 43.8739 137.751 40.1269 137.751 36.3939C137.751 35.8207 137.751 35.8207 137.177 35.7228C137.709 35.4571 138.241 35.1775 138.871 34.8559C138.871 35.527 138.871 36.0863 138.871 36.6735C139.36 36.338 139.78 36.0164 140.228 35.7507C141.179 35.2195 142.215 34.9818 143.292 34.9258C144.034 34.8839 144.076 34.9258 143.908 35.7368C143.558 35.6109 143.236 35.4432 142.873 35.3872C141.291 35.1775 140.06 35.8906 138.982 36.9531C138.885 37.051 138.871 37.2468 138.871 37.4006C138.871 40.8819 138.871 44.3493 138.857 47.8307C138.857 48.2501 138.94 48.5717 139.36 48.7395Z" stroke="#73523F"/>
<path d="M160.267 48.8793C160.211 48.7255 160.141 48.5577 160.099 48.4039C158.783 44.3633 157.468 40.3366 156.166 36.296C156.013 35.7927 155.901 35.2754 155.215 35.1915C155.243 35.1495 155.271 35.1076 155.285 35.0796C156.013 35.0796 156.74 35.0796 157.636 35.0796C156.992 35.3453 157.146 35.6948 157.272 36.0723C158.419 39.5817 159.539 43.105 160.728 46.6003C161.036 47.4951 160.588 48.1243 160.267 48.8793Z" stroke="#73523F"/>
<path d="M68.945 35.7088C69.4768 35.4432 70.0085 35.1775 70.6382 34.8699C70.6382 35.1635 70.6382 35.3593 70.6382 35.541C70.6382 39.5956 70.6382 43.6642 70.6382 47.7188C70.6382 48.1383 70.6382 48.5437 71.156 48.7255C70.4423 48.7255 69.7287 48.7255 69.015 48.7255C69.6307 48.5437 69.5328 48.0404 69.5328 47.593C69.5328 43.86 69.5328 40.1269 69.5328 36.3939C69.5188 35.8207 69.5188 35.8207 68.945 35.7088Z" stroke="#73523F"/>
<path d="M75.8998 48.7535C75.1861 48.7535 74.4864 48.7535 73.7728 48.7535C74.4025 48.5437 74.2766 48.0264 74.2766 47.579C74.2766 43.86 74.2766 40.1409 74.2766 36.4219C74.2766 36.0583 74.3045 35.6948 73.6888 35.8766C73.6888 35.8207 73.6888 35.7787 73.7028 35.7228C74.2346 35.4571 74.7663 35.1775 75.396 34.8559C75.396 35.1635 75.396 35.3453 75.396 35.527C75.396 39.5956 75.396 43.6782 75.396 47.7468C75.396 48.1523 75.396 48.5437 75.9698 48.6276C75.9558 48.6696 75.9278 48.7115 75.8998 48.7535Z" stroke="#73523F"/>
<path d="M165.43 35.0796C164.898 35.2754 164.73 35.7088 164.577 36.1702C163.653 39.0084 162.715 41.8466 161.792 44.6849C161.736 44.8387 161.68 44.9925 161.624 45.1602C161.582 45.1463 161.526 45.1323 161.484 45.1183C161.526 44.9365 161.554 44.7408 161.61 44.573C162.548 41.7068 163.485 38.8406 164.423 35.9605C164.521 35.6389 164.674 35.3173 164.227 35.0796C164.619 35.0796 165.024 35.0796 165.43 35.0796Z" stroke="#73523F"/>
<path d="M70.0785 30.9272C69.5747 30.9272 69.1829 30.5357 69.1829 30.0463C69.1829 29.571 69.5747 29.1795 70.0505 29.1655C70.5403 29.1515 70.9601 29.557 70.9741 30.0324C70.9881 30.5217 70.5823 30.9272 70.0785 30.9272Z" stroke="#73523F"/>
<path d="M66.2863 32.9964C66.1183 32.9964 65.9644 32.9964 65.7545 32.9964C66.0624 31.3886 65.5726 30.0883 64.2852 28.9698C65.3907 29.2494 66.5242 31.6262 66.2863 32.9964Z" stroke="#73523F"/>
<defs>
<linearGradient id="paint0_linear_594_806" x1="0" y1="35.5" x2="118.333" y2="36.0635" gradientUnits="userSpaceOnUse">
<stop stop-color="#F8E1B7"/>
<stop offset="1" stop-color="#91DDCF"/>
</linearGradient>
<linearGradient id="paint1_linear_594_806" x1="0" y1="35.5" x2="118.333" y2="36.0635" gradientUnits="userSpaceOnUse">
<stop stop-color="#F8E1B7"/>
<stop offset="1" stop-color="#91DDCF"/>
</linearGradient>
<linearGradient id="paint2_linear_594_806" x1="0" y1="35.5" x2="118.333" y2="36.0635" gradientUnits="userSpaceOnUse">
<stop stop-color="#F8E1B7"/>
<stop offset="1" stop-color="#91DDCF"/>
</linearGradient>
<linearGradient id="paint3_linear_594_806" x1="0" y1="35.5" x2="118.333" y2="36.0635" gradientUnits="userSpaceOnUse">
<stop stop-color="#F8E1B7"/>
<stop offset="1" stop-color="#91DDCF"/>
</linearGradient>
<linearGradient id="paint4_linear_594_806" x1="0" y1="35.5" x2="118.333" y2="36.0635" gradientUnits="userSpaceOnUse">
<stop stop-color="#F8E1B7"/>
<stop offset="1" stop-color="#91DDCF"/>
</linearGradient>
<linearGradient id="paint5_linear_594_806" x1="0" y1="35.5" x2="118.333" y2="36.0635" gradientUnits="userSpaceOnUse">
<stop stop-color="#F8E1B7"/>
<stop offset="1" stop-color="#91DDCF"/>
</linearGradient>
<linearGradient id="paint6_linear_594_806" x1="0" y1="35.5" x2="118.333" y2="36.0635" gradientUnits="userSpaceOnUse">
<stop stop-color="#F8E1B7"/>
<stop offset="1" stop-color="#91DDCF"/>
</linearGradient>
<linearGradient id="paint7_linear_594_806" x1="0" y1="35.5" x2="118.333" y2="36.0635" gradientUnits="userSpaceOnUse">
<stop stop-color="#F8E1B7"/>
<stop offset="1" stop-color="#91DDCF"/>
</linearGradient>
<linearGradient id="paint8_linear_594_806" x1="0" y1="35.5" x2="118.333" y2="36.0635" gradientUnits="userSpaceOnUse">
<stop stop-color="#F8E1B7"/>
<stop offset="1" stop-color="#91DDCF"/>
</linearGradient>
<linearGradient id="paint9_linear_594_806" x1="0" y1="35.5" x2="118.333" y2="36.0635" gradientUnits="userSpaceOnUse">
<stop stop-color="#F8E1B7"/>
<stop offset="1" stop-color="#91DDCF"/>
</linearGradient>
<linearGradient id="paint10_linear_594_806" x1="0" y1="35.5" x2="118.333" y2="36.0635" gradientUnits="userSpaceOnUse">
<stop stop-color="#F8E1B7"/>
<stop offset="1" stop-color="#91DDCF"/>
</linearGradient>
<linearGradient id="paint11_linear_594_806" x1="0" y1="35.5" x2="118.333" y2="36.0635" gradientUnits="userSpaceOnUse">
<stop stop-color="#F8E1B7"/>
<stop offset="1" stop-color="#91DDCF"/>
</linearGradient>
<linearGradient id="paint12_linear_594_806" x1="0" y1="35.5" x2="118.333" y2="36.0635" gradientUnits="userSpaceOnUse">
<stop stop-color="#F8E1B7"/>
<stop offset="1" stop-color="#91DDCF"/>
</linearGradient>
<linearGradient id="paint13_linear_594_806" x1="0" y1="35.5" x2="118.333" y2="36.0635" gradientUnits="userSpaceOnUse">
<stop stop-color="#F8E1B7"/>
<stop offset="1" stop-color="#91DDCF"/>
</linearGradient>
<linearGradient id="paint14_linear_594_806" x1="0" y1="35.5" x2="118.333" y2="36.0635" gradientUnits="userSpaceOnUse">
<stop stop-color="#F8E1B7"/>
<stop offset="1" stop-color="#91DDCF"/>
</linearGradient>
<linearGradient id="paint15_linear_594_806" x1="0" y1="35.5" x2="118.333" y2="36.0635" gradientUnits="userSpaceOnUse">
<stop stop-color="#F8E1B7"/>
<stop offset="1" stop-color="#91DDCF"/>
</linearGradient>
<linearGradient id="paint16_linear_594_806" x1="0" y1="35.5" x2="118.333" y2="36.0635" gradientUnits="userSpaceOnUse">
<stop stop-color="#F8E1B7"/>
<stop offset="1" stop-color="#91DDCF"/>
</linearGradient>
<linearGradient id="paint17_linear_594_806" x1="0" y1="35.5" x2="118.333" y2="36.0635" gradientUnits="userSpaceOnUse">
<stop stop-color="#F8E1B7"/>
<stop offset="1" stop-color="#91DDCF"/>
</linearGradient>
<linearGradient id="paint18_linear_594_806" x1="0" y1="35.5" x2="118.333" y2="36.0635" gradientUnits="userSpaceOnUse">
<stop stop-color="#F8E1B7"/>
<stop offset="1" stop-color="#91DDCF"/>
</linearGradient>
<linearGradient id="paint19_linear_594_806" x1="0" y1="35.5" x2="118.333" y2="36.0635" gradientUnits="userSpaceOnUse">
<stop stop-color="#F8E1B7"/>
<stop offset="1" stop-color="#91DDCF"/>
</linearGradient>
<linearGradient id="paint20_linear_594_806" x1="0" y1="35.5" x2="118.333" y2="36.0635" gradientUnits="userSpaceOnUse">
<stop stop-color="#F8E1B7"/>
<stop offset="1" stop-color="#91DDCF"/>
</linearGradient>
<linearGradient id="paint21_linear_594_806" x1="0" y1="35.5" x2="118.333" y2="36.0635" gradientUnits="userSpaceOnUse">
<stop stop-color="#F8E1B7"/>
<stop offset="1" stop-color="#91DDCF"/>
</linearGradient>
<linearGradient id="paint22_linear_594_806" x1="0" y1="35.5" x2="118.333" y2="36.0635" gradientUnits="userSpaceOnUse">
<stop stop-color="#F8E1B7"/>
<stop offset="1" stop-color="#91DDCF"/>
</linearGradient>
<linearGradient id="paint23_linear_594_806" x1="0" y1="35.5" x2="118.333" y2="36.0635" gradientUnits="userSpaceOnUse">
<stop stop-color="#F8E1B7"/>
<stop offset="1" stop-color="#91DDCF"/>
</linearGradient>
<linearGradient id="paint24_linear_594_806" x1="0" y1="35.5" x2="118.333" y2="36.0635" gradientUnits="userSpaceOnUse">
<stop stop-color="#F8E1B7"/>
<stop offset="1" stop-color="#91DDCF"/>
</linearGradient>
<linearGradient id="paint25_linear_594_806" x1="0" y1="35.5" x2="118.333" y2="36.0635" gradientUnits="userSpaceOnUse">
<stop stop-color="#F8E1B7"/>
<stop offset="1" stop-color="#91DDCF"/>
</linearGradient>
<linearGradient id="paint26_linear_594_806" x1="0" y1="35.5" x2="118.333" y2="36.0635" gradientUnits="userSpaceOnUse">
<stop stop-color="#F8E1B7"/>
<stop offset="1" stop-color="#91DDCF"/>
</linearGradient>
<linearGradient id="paint27_linear_594_806" x1="0" y1="35.5" x2="118.333" y2="36.0635" gradientUnits="userSpaceOnUse">
<stop stop-color="#F8E1B7"/>
<stop offset="1" stop-color="#91DDCF"/>
</linearGradient>
<linearGradient id="paint28_linear_594_806" x1="0" y1="35.5" x2="118.333" y2="36.0635" gradientUnits="userSpaceOnUse">
<stop stop-color="#F8E1B7"/>
<stop offset="1" stop-color="#91DDCF"/>
</linearGradient>
<linearGradient id="paint29_linear_594_806" x1="0" y1="35.5" x2="118.333" y2="36.0635" gradientUnits="userSpaceOnUse">
<stop stop-color="#F8E1B7"/>
<stop offset="1" stop-color="#91DDCF"/>
</linearGradient>
<linearGradient id="paint30_linear_594_806" x1="0" y1="35.5" x2="118.333" y2="36.0635" gradientUnits="userSpaceOnUse">
<stop stop-color="#F8E1B7"/>
<stop offset="1" stop-color="#91DDCF"/>
</linearGradient>
<linearGradient id="paint31_linear_594_806" x1="0" y1="35.5" x2="118.333" y2="36.0635" gradientUnits="userSpaceOnUse">
<stop stop-color="#F8E1B7"/>
<stop offset="1" stop-color="#91DDCF"/>
</linearGradient>
<linearGradient id="paint32_linear_594_806" x1="0" y1="35.5" x2="118.333" y2="36.0635" gradientUnits="userSpaceOnUse">
<stop stop-color="#F8E1B7"/>
<stop offset="1" stop-color="#91DDCF"/>
</linearGradient>
</defs>
</svg>
