<svg width="255" height="99" viewBox="0 0 255 99" fill="none" xmlns="http://www.w3.org/2000/svg">
<path d="M134.533 75.7977C133.714 75.7977 132.719 75.7977 131.724 75.7977C131.665 75.7587 131.606 75.7003 131.567 75.6613C132.582 75.5053 132.446 74.823 132.446 74.1991C132.446 69.4228 132.446 64.6465 132.446 59.8507C132.446 56.8289 132.446 53.8072 132.446 50.7854C132.446 50.22 132.445 49.7717 131.567 50.0056C131.587 49.9471 131.606 49.8691 131.606 49.8106C132.348 49.4402 133.089 49.0698 133.928 48.6409C133.928 49.8301 133.928 50.8829 133.928 51.9551C133.987 51.9746 134.026 51.9941 134.085 52.0331C134.202 51.8771 134.319 51.7212 134.436 51.5457C135.86 49.6937 137.616 48.4655 140.094 48.7579C141.733 48.9529 142.982 49.8496 144.016 51.0778C147.216 54.9574 147.275 61.6442 144.172 65.5823C141.402 69.1109 137.109 69.0134 134.475 65.3873C134.358 65.2118 134.221 65.0364 134.006 64.7635C133.987 65.0169 133.967 65.1144 133.967 65.2118C133.967 68.3311 133.948 71.4308 133.987 74.55C134.026 74.9789 134.338 75.3493 134.533 75.7977ZM144.484 57.9206C144.406 57.2773 144.328 56.0101 144.075 54.7819C143.723 53.0274 143.119 51.3508 141.772 50.0446C141.011 49.3038 140.114 48.9334 139.021 49.0308C137.245 49.2063 135.919 50.1031 134.904 51.4677C132.914 54.1191 132.328 57.1408 132.816 60.377C133.187 62.8724 134.143 65.1144 136.172 66.752C138.67 68.7795 141.265 68.2921 142.884 65.5238C143.002 65.3288 143.099 65.1339 143.197 64.9194C144.153 62.8919 144.426 60.728 144.484 57.9206Z" fill="url(#paint0_linear_92_464)"/>
<path d="M128.582 67.6487C128.055 68.2141 127.528 68.2531 126.963 68.0971C126.338 67.9217 125.987 67.4733 125.87 66.8494C125.831 66.6155 125.831 66.3621 125.831 66.1086C125.831 62.502 125.85 58.8954 125.811 55.2888C125.811 54.4505 125.714 53.5732 125.441 52.7544C124.055 48.446 119.997 48.0171 117.07 50.4735C116.855 50.6684 116.66 50.8829 116.446 51.0973C115.86 51.7212 115.568 52.3255 115.958 53.2613C116.251 53.9631 116.251 54.8014 116.251 55.5812C116.27 59.2658 116.27 62.9309 116.251 66.6155C116.251 67.2004 116.309 67.6877 116.953 67.9607C115.977 67.9607 114.982 67.9607 114.007 67.9607C114.885 67.6292 114.69 66.8689 114.69 66.2061C114.69 62.58 114.748 58.9344 114.67 55.3083C114.651 54.1776 114.416 53.0078 113.987 51.9746C112.855 49.2648 110.26 48.3095 107.548 49.4597C107.333 49.5572 107.119 49.6352 106.826 49.7522C108.192 47.5492 113.226 48.8359 115.49 51.9161C115.607 51.7407 115.724 51.6042 115.841 51.4482C117.324 49.3038 120.055 48.2705 122.572 48.8944C125.187 49.5377 127.041 51.6237 127.372 54.2945C127.431 54.7234 127.45 55.1523 127.45 55.5812C127.45 59.2658 127.45 62.9309 127.45 66.6155C127.431 67.5903 127.489 67.6487 128.582 67.6487Z" fill="url(#paint1_linear_92_464)"/>
<path d="M182.104 67.9412C182.65 67.6682 182.767 67.2393 182.767 66.674C182.748 57.7257 182.767 48.7579 182.748 39.8096C182.748 39.6147 182.728 39.4197 182.709 39.1468C180.231 39.1468 177.752 39.0298 175.411 39.9071C174.982 40.063 174.611 40.4335 174.123 40.7649C174.123 40.219 174.104 39.6342 174.143 39.0688C174.143 38.9908 174.338 38.8933 174.435 38.8738C174.611 38.8348 174.787 38.8543 174.982 38.8543C180.699 38.8543 186.416 38.8738 192.113 38.8348C192.796 38.8348 193.069 38.9908 192.972 39.6926C192.933 40.063 192.972 40.4334 192.894 40.8234C192.308 39.9266 191.372 39.7706 190.494 39.5562C188.504 39.0883 186.474 39.1468 184.387 39.1663C184.367 39.4002 184.348 39.5952 184.348 39.7901C184.348 48.7774 184.348 57.7452 184.348 66.7325C184.348 67.2588 184.367 67.7462 185.011 67.9802C184.035 67.9412 183.079 67.9412 182.104 67.9412Z" fill="url(#paint2_linear_92_464)"/>
<path d="M252.308 39.9266C252.015 39.9071 251.82 39.9071 251.625 39.8876C251.606 39.8291 251.567 39.7901 251.547 39.7316C252.269 39.3612 253.01 38.9908 253.888 38.5424C253.888 38.9128 253.888 39.1663 253.888 39.4197C253.888 48.4655 253.888 57.5112 253.888 66.5375C253.888 67.1029 253.849 67.6682 254.571 67.9022C253.596 67.9022 252.62 67.9022 251.645 67.9022C252.484 67.6097 252.308 66.9079 252.308 66.2841C252.308 57.8037 252.308 49.3233 252.308 40.8428C252.308 40.5699 252.308 40.2775 252.308 39.9266Z" fill="url(#paint3_linear_92_464)"/>
<path d="M152.797 67.9607C151.821 67.9607 150.845 67.9607 149.87 67.9607C150.65 67.6877 150.553 67.0444 150.553 66.44C150.553 57.9206 150.553 49.4012 150.553 40.8623C150.553 40.5699 150.553 40.2775 150.553 39.9461C150.28 39.9266 150.065 39.9071 149.87 39.8876C149.85 39.8486 149.831 39.7901 149.811 39.7511C150.553 39.3807 151.275 39.0103 152.153 38.5619C152.153 38.9518 152.153 39.2053 152.153 39.4587C152.153 48.485 152.153 57.4918 152.153 66.518C152.114 67.1224 152.133 67.6488 152.797 67.9607Z" fill="url(#paint4_linear_92_464)"/>
<path d="M78.6703 60.9229C78.6898 61.0204 78.7093 61.0984 78.7093 61.1568C78.5532 64.51 80.1337 66.7325 83.3532 67.6877C86.9824 68.76 90.6897 66.752 91.6068 63.2233C92.2312 60.7669 91.2751 58.0961 89.1092 56.7119C86.7288 55.1718 84.2702 53.7292 81.8508 52.2475C78.4752 50.1616 77.2654 46.1845 78.9435 42.7144C80.1337 40.297 82.1044 38.9713 84.7776 38.6594C84.9337 38.6399 85.0898 38.6399 85.2458 38.6594C85.3044 38.6594 85.3629 38.6984 85.5971 38.7959C85.2849 38.8543 85.1288 38.9128 84.9922 38.9323C82.28 39.1663 80.0752 40.9988 79.3922 43.5917C78.7093 46.1845 79.7044 48.9529 81.9483 50.415C84.2507 51.8966 86.6312 53.3003 88.9922 54.7039C90.8653 55.8152 92.1726 57.3553 92.6214 59.5192C93.558 64.0616 90.0458 68.2726 85.3824 68.2141C81.3239 68.1751 78.28 65.4458 77.9093 61.5468C77.8703 60.9619 78.0264 60.728 78.6703 60.9229Z" fill="url(#paint5_linear_92_464)"/>
<path d="M171.84 62.8139C171.723 63.0674 171.626 63.3208 171.489 63.5742C169.987 66.3816 167.743 68.1361 164.465 68.1946C161.304 68.2336 159.079 66.596 157.518 64.0031C155.04 59.8897 155.762 54.1386 159.079 50.9414C162.709 47.4712 168.055 48.1341 170.904 52.4425C172.113 54.275 172.679 56.3025 172.679 58.564C169.323 58.564 165.987 58.564 162.67 58.564C162.67 58.5055 162.67 58.447 162.67 58.369C165.44 58.369 168.231 58.369 171.079 58.369C171.06 55.8736 170.455 53.6902 169.089 51.7407C168.426 50.7854 167.587 50.0056 166.514 49.4987C164.172 48.3875 161.538 49.1478 159.801 51.5262C157.558 54.5675 157.187 57.9791 158.006 61.5662C158.377 63.2233 159.099 64.705 160.27 65.9722C162.143 67.9997 164.582 68.5065 167.118 67.3953C168.933 66.6155 170.221 65.2508 171.157 63.5548C171.314 63.2818 171.47 62.9894 171.626 62.7165C171.704 62.736 171.762 62.7749 171.84 62.8139Z" fill="url(#paint6_linear_92_464)"/>
<path d="M248.464 58.5835C245.089 58.5835 241.771 58.5835 238.474 58.5835C238.474 58.525 238.474 58.447 238.474 58.3885C241.245 58.3885 244.015 58.3885 246.767 58.3885C247.235 55.2888 245.167 51.0583 242.572 49.6352C240.211 48.329 237.42 49.0113 235.606 51.4677C233.342 54.509 232.952 57.9596 233.772 61.5662C234.142 63.2233 234.884 64.705 236.035 65.9722C237.889 67.9802 240.308 68.487 242.825 67.4148C244.659 66.635 245.967 65.2703 246.923 63.5353C247.079 63.2623 247.235 62.9699 247.528 62.7555C247.528 62.8334 247.567 62.9114 247.547 62.9894C246.22 66.0891 243.254 68.565 239.411 68.1751C237.03 67.9412 235.235 66.713 233.85 64.8414C231.04 61.0789 231.196 55.2498 234.181 51.6822C237.713 47.4517 243.625 47.8026 246.708 52.462C247.898 54.275 248.464 56.322 248.464 58.5835Z" fill="url(#paint7_linear_92_464)"/>
<path d="M214.357 60.0846C214.377 60.455 214.396 60.689 214.396 60.9229C214.396 62.7749 214.396 64.627 214.396 66.479C214.396 67.6292 214.435 67.6487 215.606 67.6292C215.099 68.1751 214.552 68.2726 213.928 68.0971C212.777 67.7462 212.777 66.791 212.816 65.6407C212.523 65.9917 212.328 66.2061 212.133 66.4206C210.474 68.2726 208.386 68.565 206.123 67.9607C203.957 67.3758 202.455 66.0111 202.064 63.7302C201.752 61.9172 202.494 60.416 203.782 59.1878C205.05 57.9986 206.572 57.3748 208.308 57.3553C209.323 57.3553 210.338 57.4138 211.352 57.4528C211.821 57.4723 212.289 57.4528 212.777 57.4528C212.796 55.6202 212.933 53.9046 212.25 52.267C211.177 49.6547 209.05 48.5435 206.396 49.2453C205.323 49.5182 204.562 50.1616 204.074 51.2728C203.86 51.0778 203.664 50.9024 203.489 50.7269C205.557 48.251 209.733 48.0756 212.23 50.337C213.655 51.6237 214.318 53.2418 214.357 55.1328C214.357 55.4058 214.357 55.6787 214.357 55.9516C214.357 57.3163 214.123 57.6282 212.738 57.7257C211.957 57.7842 211.157 57.7257 210.377 57.7062C209.811 57.6867 209.245 57.6672 208.679 57.6477C205.421 57.4917 203.86 60.0846 203.879 62.5605C203.899 64.1396 204.425 65.5823 205.577 66.713C207.138 68.2531 209.342 68.3701 211.099 66.9664C212.952 65.4848 213.733 63.4378 213.986 61.1373C214.025 60.8644 214.045 60.611 214.084 60.3381C214.142 60.2601 214.201 60.2211 214.357 60.0846Z" fill="url(#paint8_linear_92_464)"/>
<path d="M194.318 67.9607C193.323 67.9607 192.348 67.9607 191.352 67.9607C192.211 67.6877 192.074 67.0054 192.074 66.3816C192.074 61.1763 192.074 55.9516 192.074 50.7464C192.074 49.9471 192.074 49.9471 191.274 49.8106C192.016 49.4402 192.757 49.0503 193.635 48.6019C193.635 49.5377 193.635 50.3175 193.635 51.1363C194.318 50.6684 194.904 50.22 195.528 49.8496C196.855 49.1088 198.299 48.7774 199.801 48.6994C200.835 48.6409 200.894 48.6994 200.66 49.8301C200.172 49.6547 199.723 49.4207 199.216 49.3428C197.011 49.0503 195.294 50.0446 193.791 51.5262C193.655 51.6627 193.635 51.9356 193.635 52.1501C193.635 57.0044 193.635 61.8392 193.616 66.6935C193.616 67.2783 193.733 67.7267 194.318 67.9607Z" fill="url(#paint9_linear_92_464)"/>
<path d="M223.469 68.1556C223.391 67.9412 223.294 67.7072 223.235 67.4928C221.401 61.8587 219.567 56.2441 217.752 50.6099C217.538 49.9081 217.381 49.1868 216.425 49.0698C216.464 49.0113 216.503 48.9529 216.523 48.9139C217.538 48.9139 218.552 48.9139 219.801 48.9139C218.903 49.2843 219.118 49.7717 219.294 50.298C220.894 55.1913 222.455 60.1041 224.113 64.9779C224.542 66.2256 223.918 67.1029 223.469 68.1556Z" fill="url(#paint10_linear_92_464)"/>
<path d="M96.1336 49.7911C96.875 49.4207 97.6165 49.0503 98.4945 48.6214C98.4945 49.0308 98.4945 49.3038 98.4945 49.5572C98.4945 55.2108 98.4945 60.8839 98.4945 66.5375C98.4945 67.1224 98.4945 67.6877 99.2165 67.9412C98.2214 67.9412 97.2263 67.9412 96.2311 67.9412C97.0897 67.6877 96.9531 66.9859 96.9531 66.3621C96.9531 61.1568 96.9531 55.9516 96.9531 50.7464C96.9336 49.9471 96.9336 49.9471 96.1336 49.7911Z" fill="url(#paint11_linear_92_464)"/>
<path d="M105.831 67.9802C104.836 67.9802 103.86 67.9802 102.865 67.9802C103.743 67.6877 103.568 66.9664 103.568 66.3426C103.568 61.1568 103.568 55.9711 103.568 50.7854C103.568 50.2785 103.607 49.7717 102.748 50.0251C102.748 49.9471 102.748 49.8886 102.768 49.8106C103.509 49.4402 104.251 49.0503 105.129 48.6019C105.129 49.0308 105.129 49.2843 105.129 49.5377C105.129 55.2108 105.129 60.9034 105.129 66.5765C105.129 67.1419 105.129 67.6877 105.929 67.8047C105.909 67.8632 105.87 67.9217 105.831 67.9802Z" fill="url(#paint12_linear_92_464)"/>
<path d="M230.669 48.9139C229.928 49.1868 229.694 49.7911 229.479 50.4345C228.191 54.392 226.884 58.3495 225.596 62.3071C225.518 62.5215 225.44 62.736 225.362 62.9699C225.303 62.9504 225.225 62.9309 225.167 62.9114C225.225 62.658 225.264 62.385 225.342 62.1511C226.65 58.1546 227.957 54.1581 229.264 50.1421C229.401 49.6937 229.615 49.2453 228.991 48.9139C229.537 48.9139 230.103 48.9139 230.669 48.9139Z" fill="url(#paint13_linear_92_464)"/>
<path d="M97.7141 43.1238C97.0116 43.1238 96.4653 42.5779 96.4653 41.8956C96.4653 41.2327 97.0116 40.6869 97.675 40.6674C98.3579 40.6479 98.9433 41.2133 98.9628 41.8761C98.9823 42.5584 98.4165 43.1238 97.7141 43.1238Z" fill="url(#paint14_linear_92_464)"/>
<path d="M92.4263 46.0091C92.1921 46.0091 91.9775 46.0091 91.6848 46.0091C92.1141 43.7671 91.4312 41.9541 89.6361 40.3945C91.1775 40.7844 92.758 44.0985 92.4263 46.0091Z" fill="url(#paint15_linear_92_464)"/>
<path d="M0.173304 71.0019C4.89522 71.0019 9.34397 71.0019 13.8708 71.0019C14.5927 75.9537 15.9976 80.5936 18.6317 84.8045C22.9439 91.7058 29.1877 95.3514 37.3242 95.7023C43.0998 95.9363 48.8364 95.5854 54.3778 93.8308C64.2509 90.7116 67.2752 83.3619 65.1875 74.0237C63.9777 68.643 60.2704 65.1924 55.7241 62.5215C49.4608 58.8369 42.5145 56.9849 35.6072 54.9964C28.3292 52.9104 20.9341 51.1168 14.0854 47.7441C9.53909 45.5022 5.26595 42.7924 2.82694 38.1915C-1.87546 29.2822 -0.431571 20.6848 5.09034 12.7113C9.2269 6.76525 15.4512 3.68501 22.3195 2.08641C34.7877 -0.798883 47.2559 -1.07182 59.3143 3.70451C69.8118 7.85698 76.0362 15.7135 77.6752 27.0013C77.7142 27.2742 77.6752 27.5471 77.6752 27.9175C73.1484 27.9175 68.6801 27.9175 64.3875 27.9175C63.4704 25.0128 62.807 22.069 61.6363 19.3591C57.5778 9.84549 50.2217 4.9522 39.8803 4.65977C34.3389 4.50381 28.8365 4.9327 23.5292 6.68727C17.8512 8.55881 13.383 11.756 12.4854 18.1699C11.6074 24.5254 13.461 29.984 18.5927 34.0975C23.217 37.8016 28.6609 39.8096 34.2218 41.5252C42.1828 43.9816 50.2022 46.204 58.1046 48.8164C61.4411 49.9276 64.7192 51.5067 67.7045 53.3978C77.0313 59.2853 80.0166 68.5455 76.3679 78.9754C73.6947 86.6176 68.446 91.9787 61.0314 94.8055C46.9827 100.206 32.6609 100.479 18.5732 95.1175C8.4269 91.2574 2.33914 83.5958 0.387936 72.815C0.290376 72.2886 0.251352 71.7232 0.173304 71.0019Z" fill="url(#paint16_linear_92_464)"/>
<path d="M157.909 28.8533C157.167 18.1699 152.055 10.1574 142.514 5.16665C136.289 1.91095 129.597 0.253857 122.611 0.175877C111.392 0.0589055 100.173 0.136886 88.9531 0.156381C88.5044 0.156381 88.0751 0.214867 87.5678 0.253857V33.7466H101.304V3.17814H103.177C108.465 3.17814 113.772 3.35359 119.041 3.13915C124.875 2.88571 129.675 5.16665 134.085 8.57831C139.821 13.0427 142.904 19.0862 143.821 26.202C144.153 28.7363 144.309 31.2512 144.27 33.7466H157.967C158.045 32.148 158.026 30.5104 157.909 28.8533ZM87.5678 73.1269V98.6656H101.304V73.1269H87.5678Z" fill="url(#paint17_linear_92_464)"/>
<path d="M128.582 67.6487C128.055 68.2141 127.528 68.2531 126.963 68.0971C126.338 67.9217 125.987 67.4733 125.87 66.8494C125.831 66.6155 125.831 66.3621 125.831 66.1086C125.831 62.502 125.85 58.8954 125.811 55.2888C125.811 54.4505 125.714 53.5732 125.441 52.7544C124.055 48.446 119.997 48.0171 117.07 50.4735C116.855 50.6684 116.66 50.8829 116.446 51.0973C115.86 51.7212 115.568 52.3255 115.958 53.2613C116.251 53.9631 116.251 54.8014 116.251 55.5812C116.27 59.2658 116.27 62.9309 116.251 66.6155C116.251 67.2004 116.309 67.6877 116.953 67.9607C115.977 67.9607 114.982 67.9607 114.007 67.9607C114.885 67.6292 114.69 66.8689 114.69 66.2061C114.69 62.58 114.748 58.9344 114.67 55.3083C114.651 54.1776 114.416 53.0078 113.987 51.9746C112.855 49.2648 110.26 48.3095 107.548 49.4597C107.333 49.5572 107.119 49.6352 106.826 49.7522C108.192 47.5492 113.226 48.8359 115.49 51.9161C115.607 51.7407 115.724 51.6042 115.841 51.4482C117.324 49.3038 120.055 48.2705 122.572 48.8944C125.187 49.5377 127.041 51.6237 127.372 54.2945C127.431 54.7234 127.45 55.1523 127.45 55.5812C127.45 59.2658 127.45 62.9309 127.45 66.6155C127.431 67.5903 127.489 67.6487 128.582 67.6487Z" fill="url(#paint18_linear_92_464)"/>
<path d="M182.104 67.9412C182.65 67.6682 182.767 67.2393 182.767 66.674C182.748 57.7257 182.767 48.7579 182.748 39.8096C182.748 39.6147 182.728 39.4197 182.709 39.1468C180.231 39.1468 177.752 39.0298 175.411 39.9071C174.982 40.063 174.611 40.4335 174.123 40.7649C174.123 40.219 174.104 39.6342 174.143 39.0688C174.143 38.9908 174.338 38.8933 174.435 38.8738C174.611 38.8348 174.787 38.8543 174.982 38.8543C180.699 38.8543 186.416 38.8738 192.113 38.8348C192.796 38.8348 193.069 38.9908 192.972 39.6926C192.933 40.063 192.972 40.4334 192.894 40.8234C192.308 39.9266 191.372 39.7706 190.494 39.5562C188.504 39.0883 186.474 39.1468 184.387 39.1663C184.367 39.4002 184.348 39.5952 184.348 39.7901C184.348 48.7774 184.348 57.7452 184.348 66.7325C184.348 67.2588 184.367 67.7462 185.011 67.9802C184.035 67.9412 183.079 67.9412 182.104 67.9412Z" fill="url(#paint19_linear_92_464)"/>
<path d="M252.308 39.9266C252.015 39.9071 251.82 39.9071 251.625 39.8876C251.606 39.8291 251.567 39.7901 251.547 39.7316C252.269 39.3612 253.01 38.9908 253.888 38.5424C253.888 38.9128 253.888 39.1663 253.888 39.4197C253.888 48.4655 253.888 57.5112 253.888 66.5375C253.888 67.1029 253.849 67.6682 254.571 67.9022C253.596 67.9022 252.62 67.9022 251.645 67.9022C252.484 67.6097 252.308 66.9079 252.308 66.2841C252.308 57.8037 252.308 49.3233 252.308 40.8428C252.308 40.5699 252.308 40.2775 252.308 39.9266Z" fill="url(#paint20_linear_92_464)"/>
<path d="M152.797 67.9607C151.821 67.9607 150.845 67.9607 149.87 67.9607C150.65 67.6877 150.553 67.0444 150.553 66.44C150.553 57.9206 150.553 49.4012 150.553 40.8623C150.553 40.5699 150.553 40.2775 150.553 39.9461C150.28 39.9266 150.065 39.9071 149.87 39.8876C149.85 39.8486 149.831 39.7901 149.811 39.7511C150.553 39.3807 151.275 39.0103 152.153 38.5619C152.153 38.9518 152.153 39.2053 152.153 39.4587C152.153 48.485 152.153 57.4918 152.153 66.518C152.114 67.1224 152.133 67.6488 152.797 67.9607Z" fill="url(#paint21_linear_92_464)"/>
<path d="M78.6703 60.9229C78.6898 61.0204 78.7093 61.0984 78.7093 61.1568C78.5532 64.51 80.1337 66.7325 83.3532 67.6877C86.9824 68.76 90.6897 66.752 91.6068 63.2233C92.2312 60.7669 91.2751 58.0961 89.1092 56.7119C86.7288 55.1718 84.2702 53.7292 81.8508 52.2475C78.4752 50.1616 77.2654 46.1845 78.9435 42.7144C80.1337 40.297 82.1044 38.9713 84.7776 38.6594C84.9337 38.6399 85.0898 38.6399 85.2458 38.6594C85.3044 38.6594 85.3629 38.6984 85.5971 38.7959C85.2849 38.8543 85.1288 38.9128 84.9922 38.9323C82.28 39.1663 80.0752 40.9988 79.3922 43.5917C78.7093 46.1845 79.7044 48.9529 81.9483 50.415C84.2507 51.8966 86.6312 53.3003 88.9922 54.7039C90.8653 55.8152 92.1726 57.3553 92.6214 59.5192C93.558 64.0616 90.0458 68.2726 85.3824 68.2141C81.3239 68.1751 78.28 65.4458 77.9093 61.5468C77.8703 60.9619 78.0264 60.728 78.6703 60.9229Z" fill="url(#paint22_linear_92_464)"/>
<path d="M171.84 62.8139C171.723 63.0674 171.626 63.3208 171.489 63.5742C169.987 66.3816 167.743 68.1361 164.465 68.1946C161.304 68.2336 159.079 66.596 157.518 64.0031C155.04 59.8897 155.762 54.1386 159.079 50.9414C162.709 47.4712 168.055 48.1341 170.904 52.4425C172.113 54.275 172.679 56.3025 172.679 58.564C169.323 58.564 165.987 58.564 162.67 58.564C162.67 58.5055 162.67 58.447 162.67 58.369C165.44 58.369 168.231 58.369 171.079 58.369C171.06 55.8736 170.455 53.6902 169.089 51.7407C168.426 50.7854 167.587 50.0056 166.514 49.4987C164.172 48.3875 161.538 49.1478 159.801 51.5262C157.558 54.5675 157.187 57.9791 158.006 61.5662C158.377 63.2233 159.099 64.705 160.27 65.9722C162.143 67.9997 164.582 68.5065 167.118 67.3953C168.933 66.6155 170.221 65.2508 171.157 63.5548C171.314 63.2818 171.47 62.9894 171.626 62.7165C171.704 62.736 171.762 62.7749 171.84 62.8139Z" fill="url(#paint23_linear_92_464)"/>
<path d="M248.464 58.5835C245.089 58.5835 241.771 58.5835 238.474 58.5835C238.474 58.525 238.474 58.447 238.474 58.3885C241.245 58.3885 244.015 58.3885 246.767 58.3885C247.235 55.2888 245.167 51.0583 242.572 49.6352C240.211 48.329 237.42 49.0113 235.606 51.4677C233.342 54.509 232.952 57.9596 233.772 61.5662C234.142 63.2233 234.884 64.705 236.035 65.9722C237.889 67.9802 240.308 68.487 242.825 67.4148C244.659 66.635 245.967 65.2703 246.923 63.5353C247.079 63.2623 247.235 62.9699 247.528 62.7555C247.528 62.8334 247.567 62.9114 247.547 62.9894C246.22 66.0891 243.254 68.565 239.411 68.1751C237.03 67.9412 235.235 66.713 233.85 64.8414C231.04 61.0789 231.196 55.2498 234.181 51.6822C237.713 47.4517 243.625 47.8026 246.708 52.462C247.898 54.275 248.464 56.322 248.464 58.5835Z" fill="url(#paint24_linear_92_464)"/>
<path d="M214.357 60.0846C214.377 60.455 214.396 60.689 214.396 60.9229C214.396 62.7749 214.396 64.627 214.396 66.479C214.396 67.6292 214.435 67.6487 215.606 67.6292C215.099 68.1751 214.552 68.2726 213.928 68.0971C212.777 67.7462 212.777 66.791 212.816 65.6407C212.523 65.9917 212.328 66.2061 212.133 66.4206C210.474 68.2726 208.386 68.565 206.123 67.9607C203.957 67.3758 202.455 66.0111 202.064 63.7302C201.752 61.9172 202.494 60.416 203.782 59.1878C205.05 57.9986 206.572 57.3748 208.308 57.3553C209.323 57.3553 210.338 57.4138 211.352 57.4528C211.821 57.4723 212.289 57.4528 212.777 57.4528C212.796 55.6202 212.933 53.9046 212.25 52.267C211.177 49.6547 209.05 48.5435 206.396 49.2453C205.323 49.5182 204.562 50.1616 204.074 51.2728C203.86 51.0778 203.664 50.9024 203.489 50.7269C205.557 48.251 209.733 48.0756 212.23 50.337C213.655 51.6237 214.318 53.2418 214.357 55.1328C214.357 55.4058 214.357 55.6787 214.357 55.9516C214.357 57.3163 214.123 57.6282 212.738 57.7257C211.957 57.7842 211.157 57.7257 210.377 57.7062C209.811 57.6867 209.245 57.6672 208.679 57.6477C205.421 57.4917 203.86 60.0846 203.879 62.5605C203.899 64.1396 204.425 65.5823 205.577 66.713C207.138 68.2531 209.342 68.3701 211.099 66.9664C212.952 65.4848 213.733 63.4378 213.986 61.1373C214.025 60.8644 214.045 60.611 214.084 60.3381C214.142 60.2601 214.201 60.2211 214.357 60.0846Z" fill="url(#paint25_linear_92_464)"/>
<path d="M194.318 67.9607C193.323 67.9607 192.348 67.9607 191.352 67.9607C192.211 67.6877 192.074 67.0054 192.074 66.3816C192.074 61.1763 192.074 55.9516 192.074 50.7464C192.074 49.9471 192.074 49.9471 191.274 49.8106C192.016 49.4402 192.757 49.0503 193.635 48.6019C193.635 49.5377 193.635 50.3175 193.635 51.1363C194.318 50.6684 194.904 50.22 195.528 49.8496C196.855 49.1088 198.299 48.7774 199.801 48.6994C200.835 48.6409 200.894 48.6994 200.66 49.8301C200.172 49.6547 199.723 49.4207 199.216 49.3428C197.011 49.0503 195.294 50.0446 193.791 51.5262C193.655 51.6627 193.635 51.9356 193.635 52.1501C193.635 57.0044 193.635 61.8392 193.616 66.6935C193.616 67.2783 193.733 67.7267 194.318 67.9607Z" fill="url(#paint26_linear_92_464)"/>
<path d="M223.469 68.1556C223.391 67.9412 223.294 67.7072 223.235 67.4928C221.401 61.8587 219.567 56.2441 217.752 50.6099C217.538 49.9081 217.381 49.1868 216.425 49.0698C216.464 49.0113 216.503 48.9529 216.523 48.9139C217.538 48.9139 218.552 48.9139 219.801 48.9139C218.903 49.2843 219.118 49.7717 219.294 50.298C220.894 55.1913 222.455 60.1041 224.113 64.9779C224.542 66.2256 223.918 67.1029 223.469 68.1556Z" fill="url(#paint27_linear_92_464)"/>
<path d="M96.1336 49.7911C96.875 49.4207 97.6165 49.0503 98.4945 48.6214C98.4945 49.0308 98.4945 49.3038 98.4945 49.5572C98.4945 55.2108 98.4945 60.8839 98.4945 66.5375C98.4945 67.1224 98.4945 67.6877 99.2165 67.9412C98.2214 67.9412 97.2263 67.9412 96.2311 67.9412C97.0897 67.6877 96.9531 66.9859 96.9531 66.3621C96.9531 61.1568 96.9531 55.9516 96.9531 50.7464C96.9336 49.9471 96.9336 49.9471 96.1336 49.7911Z" fill="url(#paint28_linear_92_464)"/>
<path d="M105.831 67.9802C104.836 67.9802 103.86 67.9802 102.865 67.9802C103.743 67.6877 103.568 66.9664 103.568 66.3426C103.568 61.1568 103.568 55.9711 103.568 50.7854C103.568 50.2785 103.607 49.7717 102.748 50.0251C102.748 49.9471 102.748 49.8886 102.768 49.8106C103.509 49.4402 104.251 49.0503 105.129 48.6019C105.129 49.0308 105.129 49.2843 105.129 49.5377C105.129 55.2108 105.129 60.9034 105.129 66.5765C105.129 67.1419 105.129 67.6877 105.929 67.8047C105.909 67.8632 105.87 67.9217 105.831 67.9802Z" fill="url(#paint29_linear_92_464)"/>
<path d="M230.669 48.9139C229.928 49.1868 229.694 49.7911 229.479 50.4345C228.191 54.392 226.884 58.3495 225.596 62.3071C225.518 62.5215 225.44 62.736 225.362 62.9699C225.303 62.9504 225.225 62.9309 225.167 62.9114C225.225 62.658 225.264 62.385 225.342 62.1511C226.65 58.1546 227.957 54.1581 229.264 50.1421C229.401 49.6937 229.615 49.2453 228.991 48.9139C229.537 48.9139 230.103 48.9139 230.669 48.9139Z" fill="url(#paint30_linear_92_464)"/>
<path d="M97.7141 43.1238C97.0116 43.1238 96.4653 42.5779 96.4653 41.8956C96.4653 41.2327 97.0116 40.6869 97.675 40.6674C98.3579 40.6479 98.9433 41.2133 98.9628 41.8761C98.9823 42.5584 98.4165 43.1238 97.7141 43.1238Z" fill="url(#paint31_linear_92_464)"/>
<path d="M92.4263 46.0091C92.1921 46.0091 91.9775 46.0091 91.6848 46.0091C92.1141 43.7671 91.4312 41.9541 89.6361 40.3945C91.1775 40.7844 92.758 44.0985 92.4263 46.0091Z" fill="url(#paint32_linear_92_464)"/>
<path d="M134.534 75.7977C133.714 75.7977 132.719 75.7977 131.724 75.7977C131.666 75.7588 131.607 75.7003 131.568 75.6613C132.583 75.5053 132.446 74.823 132.446 74.1991C132.446 69.4228 132.446 64.6465 132.446 59.8507C132.446 56.8289 132.446 53.8072 132.446 50.7854C132.446 50.22 132.446 49.7717 131.568 50.0056C131.588 49.9471 131.607 49.8691 131.607 49.8106C132.349 49.4402 133.09 49.0698 133.929 48.6409C133.929 49.8301 133.929 50.8829 133.929 51.9551C133.988 51.9746 134.027 51.9941 134.085 52.0331C134.202 51.8771 134.319 51.7212 134.436 51.5457C135.861 49.6937 137.617 48.4655 140.095 48.7579C141.734 48.9529 142.983 49.8496 144.017 51.0778C147.217 54.9574 147.275 61.6442 144.173 65.5823C141.402 69.1109 137.109 69.0134 134.475 65.3873C134.358 65.2119 134.222 65.0364 134.007 64.7635C133.988 65.0169 133.968 65.1144 133.968 65.2118C133.968 68.3311 133.949 71.4308 133.988 74.55C134.027 74.9789 134.339 75.3493 134.534 75.7977ZM144.485 57.9206C144.407 57.2773 144.329 56.0101 144.075 54.7819C143.724 53.0274 143.119 51.3508 141.773 50.0446C141.012 49.3038 140.114 48.9334 139.022 49.0308C137.246 49.2063 135.919 50.1031 134.905 51.4677C132.914 54.1191 132.329 57.1408 132.817 60.377C133.188 62.8724 134.144 65.1144 136.173 66.752C138.67 68.7795 141.266 68.2921 142.885 65.5238C143.002 65.3288 143.1 65.1339 143.197 64.9194C144.153 62.8919 144.426 60.728 144.485 57.9206Z" fill="white"/>
<path d="M128.583 67.6487C128.056 68.2141 127.529 68.2531 126.963 68.0971C126.339 67.9217 125.988 67.4733 125.871 66.8494C125.831 66.6155 125.832 66.3621 125.832 66.1086C125.832 62.502 125.851 58.8954 125.812 55.2888C125.812 54.4505 125.714 53.5732 125.441 52.7544C124.056 48.446 119.997 48.0171 117.071 50.4735C116.856 50.6684 116.661 50.8829 116.446 51.0973C115.861 51.7212 115.568 52.3255 115.958 53.2613C116.251 53.9631 116.251 54.8014 116.251 55.5812C116.271 59.2658 116.271 62.9309 116.251 66.6155C116.251 67.2004 116.31 67.6877 116.954 67.9607C115.978 67.9607 114.983 67.9607 114.007 67.9607C114.885 67.6292 114.69 66.8689 114.69 66.2061C114.69 62.58 114.749 58.9344 114.671 55.3083C114.651 54.1776 114.417 53.0078 113.988 51.9746C112.856 49.2648 110.261 48.3095 107.549 49.4597C107.334 49.5572 107.119 49.6352 106.827 49.7522C108.193 47.5492 113.227 48.8359 115.49 51.9161C115.607 51.7407 115.724 51.6042 115.841 51.4482C117.324 49.3038 120.056 48.2705 122.573 48.8944C125.188 49.5377 127.041 51.6237 127.373 54.2945C127.431 54.7234 127.451 55.1523 127.451 55.5812C127.451 59.2658 127.451 62.9309 127.451 66.6155C127.431 67.5903 127.49 67.6487 128.583 67.6487Z" fill="white"/>
<path d="M182.104 67.9412C182.651 67.6682 182.768 67.2393 182.768 66.674C182.748 57.7257 182.768 48.7579 182.748 39.8096C182.748 39.6147 182.729 39.4197 182.709 39.1468C180.231 39.1468 177.753 39.0298 175.412 39.9071C174.982 40.063 174.612 40.4335 174.124 40.7649C174.124 40.219 174.104 39.6342 174.143 39.0688C174.143 38.9908 174.338 38.8933 174.436 38.8738C174.612 38.8348 174.787 38.8543 174.982 38.8543C180.699 38.8543 186.416 38.8738 192.114 38.8349C192.797 38.8349 193.07 38.9908 192.972 39.6926C192.933 40.063 192.972 40.4335 192.894 40.8234C192.309 39.9266 191.372 39.7706 190.494 39.5562C188.504 39.0883 186.475 39.1468 184.387 39.1663C184.368 39.4002 184.348 39.5952 184.348 39.7901C184.348 48.7774 184.348 57.7452 184.348 66.7325C184.348 67.2588 184.368 67.7462 185.012 67.9802C184.036 67.9412 183.08 67.9412 182.104 67.9412Z" fill="white"/>
<path d="M252.309 39.9266C252.016 39.9071 251.821 39.9071 251.626 39.8876C251.606 39.8291 251.567 39.7901 251.548 39.7316C252.27 39.3612 253.011 38.9908 253.889 38.5424C253.889 38.9128 253.889 39.1663 253.889 39.4197C253.889 48.4655 253.889 57.5112 253.889 66.5375C253.889 67.1029 253.85 67.6682 254.572 67.9022C253.596 67.9022 252.621 67.9022 251.645 67.9022C252.484 67.6098 252.309 66.9079 252.309 66.2841C252.309 57.8037 252.309 49.3233 252.309 40.8429C252.309 40.5699 252.309 40.2775 252.309 39.9266Z" fill="white"/>
<path d="M152.797 67.9607C151.822 67.9607 150.846 67.9607 149.87 67.9607C150.651 67.6877 150.553 67.0444 150.553 66.44C150.553 57.9206 150.553 49.4012 150.553 40.8624C150.553 40.5699 150.553 40.2775 150.553 39.9461C150.28 39.9266 150.065 39.9071 149.87 39.8876C149.851 39.8486 149.831 39.7901 149.812 39.7511C150.553 39.3807 151.275 39.0103 152.153 38.5619C152.153 38.9518 152.153 39.2053 152.153 39.4587C152.153 48.485 152.153 57.4918 152.153 66.518C152.114 67.1224 152.134 67.6488 152.797 67.9607Z" fill="white"/>
<path d="M78.6709 60.9229C78.6904 61.0204 78.7099 61.0984 78.7099 61.1568C78.5538 64.51 80.1343 66.7325 83.3538 67.6877C86.983 68.76 90.6903 66.752 91.6074 63.2233C92.2317 60.7669 91.2756 58.0961 89.1098 56.7119C86.7293 55.1718 84.2708 53.7292 81.8513 52.2475C78.4757 50.1616 77.266 46.1845 78.944 42.7144C80.1343 40.297 82.105 38.9713 84.7781 38.6594C84.9342 38.6399 85.0903 38.6399 85.2464 38.6594C85.305 38.6594 85.3635 38.6984 85.5976 38.7959C85.2854 38.8543 85.1294 38.9128 84.9928 38.9323C82.2806 39.1663 80.0757 40.9988 79.3928 43.5917C78.7099 46.1845 79.705 48.9529 81.9489 50.415C84.2513 51.8966 86.6318 53.3003 88.9927 54.7039C90.8659 55.8152 92.1732 57.3553 92.622 59.5192C93.5586 64.0616 90.0464 68.2726 85.383 68.2141C81.3245 68.1751 78.2806 65.4458 77.9099 61.5468C77.8709 60.9619 78.027 60.728 78.6709 60.9229Z" fill="white"/>
<path d="M171.841 62.8139C171.724 63.0674 171.626 63.3208 171.49 63.5743C169.987 66.3816 167.743 68.1361 164.465 68.1946C161.304 68.2336 159.08 66.596 157.519 64.0031C155.041 59.8897 155.763 54.1386 159.08 50.9414C162.709 47.4712 168.056 48.1341 170.904 52.4425C172.114 54.275 172.68 56.3025 172.68 58.564C169.324 58.564 165.987 58.564 162.67 58.564C162.67 58.5055 162.67 58.447 162.67 58.369C165.441 58.369 168.231 58.369 171.08 58.369C171.06 55.8736 170.456 53.6902 169.09 51.7407C168.426 50.7854 167.587 50.0056 166.514 49.4987C164.173 48.3875 161.539 49.1478 159.802 51.5262C157.558 54.5675 157.187 57.9791 158.007 61.5662C158.378 63.2233 159.1 64.705 160.27 65.9722C162.143 67.9997 164.582 68.5065 167.119 67.3953C168.934 66.6155 170.221 65.2508 171.158 63.5548C171.314 63.2818 171.47 62.9894 171.626 62.7165C171.704 62.736 171.763 62.775 171.841 62.8139Z" fill="white"/>
<path d="M248.465 58.5835C245.089 58.5835 241.772 58.5835 238.475 58.5835C238.475 58.525 238.475 58.447 238.475 58.3885C241.245 58.3885 244.016 58.3885 246.767 58.3885C247.235 55.2888 245.167 51.0583 242.572 49.6352C240.211 48.329 237.421 49.0113 235.606 51.4677C233.343 54.509 232.953 57.9596 233.772 61.5662C234.143 63.2233 234.884 64.705 236.036 65.9722C237.889 67.9802 240.309 68.487 242.826 67.4148C244.66 66.635 245.967 65.2703 246.923 63.5353C247.079 63.2623 247.235 62.9699 247.528 62.7555C247.528 62.8334 247.567 62.9114 247.548 62.9894C246.221 66.0891 243.255 68.565 239.411 68.1751C237.031 67.9412 235.236 66.713 233.85 64.8414C231.04 61.0789 231.197 55.2498 234.182 51.6822C237.714 47.4517 243.626 47.8026 246.709 52.462C247.899 54.275 248.465 56.322 248.465 58.5835Z" fill="white"/>
<path d="M214.358 60.0846C214.377 60.455 214.397 60.689 214.397 60.9229C214.397 62.7749 214.397 64.627 214.397 66.479C214.397 67.6293 214.436 67.6487 215.606 67.6293C215.099 68.1751 214.553 68.2726 213.928 68.0971C212.777 67.7462 212.777 66.791 212.816 65.6407C212.524 65.9917 212.328 66.2061 212.133 66.4206C210.475 68.2726 208.387 68.565 206.124 67.9607C203.958 67.3758 202.455 66.0111 202.065 63.7302C201.753 61.9172 202.494 60.416 203.782 59.1878C205.05 57.9986 206.572 57.3748 208.309 57.3553C209.324 57.3553 210.338 57.4138 211.353 57.4528C211.821 57.4723 212.289 57.4528 212.777 57.4528C212.797 55.6202 212.933 53.9046 212.25 52.267C211.177 49.6547 209.05 48.5435 206.397 49.2453C205.324 49.5182 204.563 50.1616 204.075 51.2728C203.86 51.0778 203.665 50.9024 203.489 50.7269C205.558 48.251 209.733 48.0756 212.231 50.337C213.655 51.6237 214.319 53.2418 214.358 55.1328C214.358 55.4058 214.358 55.6787 214.358 55.9516C214.358 57.3163 214.124 57.6282 212.738 57.7257C211.958 57.7842 211.158 57.7257 210.377 57.7062C209.811 57.6867 209.246 57.6672 208.68 57.6477C205.421 57.4917 203.86 60.0846 203.88 62.5605C203.899 64.1396 204.426 65.5823 205.577 66.713C207.138 68.2531 209.343 68.3701 211.099 66.9664C212.953 65.4848 213.733 63.4378 213.987 61.1374C214.026 60.8644 214.045 60.611 214.084 60.3381C214.143 60.2601 214.202 60.2211 214.358 60.0846Z" fill="white"/>
<path d="M194.319 67.9607C193.324 67.9607 192.348 67.9607 191.353 67.9607C192.212 67.6877 192.075 67.0054 192.075 66.3816C192.075 61.1763 192.075 55.9516 192.075 50.7464C192.075 49.9471 192.075 49.9471 191.275 49.8106C192.016 49.4402 192.758 49.0503 193.636 48.6019C193.636 49.5377 193.636 50.3175 193.636 51.1363C194.319 50.6684 194.904 50.22 195.529 49.8496C196.855 49.1088 198.299 48.7774 199.802 48.6994C200.836 48.6409 200.894 48.6994 200.66 49.8301C200.172 49.6547 199.724 49.4207 199.216 49.3428C197.011 49.0503 195.294 50.0446 193.792 51.5262C193.655 51.6627 193.636 51.9356 193.636 52.1501C193.636 57.0044 193.636 61.8392 193.616 66.6935C193.616 67.2783 193.733 67.7267 194.319 67.9607Z" fill="white"/>
<path d="M223.47 68.1556C223.392 67.9412 223.294 67.7072 223.236 67.4928C221.402 61.8587 219.567 56.2441 217.753 50.6099C217.538 49.9081 217.382 49.1868 216.426 49.0698C216.465 49.0113 216.504 48.9529 216.523 48.9139C217.538 48.9139 218.553 48.9139 219.802 48.9139C218.904 49.2843 219.119 49.7717 219.294 50.298C220.894 55.1913 222.455 60.1041 224.114 64.9779C224.543 66.2256 223.919 67.1029 223.47 68.1556Z" fill="white"/>
<path d="M96.1341 49.7911C96.8756 49.4207 97.6171 49.0503 98.4951 48.6214C98.4951 49.0308 98.4951 49.3038 98.4951 49.5572C98.4951 55.2108 98.4951 60.8839 98.4951 66.5375C98.4951 67.1224 98.4951 67.6877 99.2171 67.9412C98.2219 67.9412 97.2268 67.9412 96.2317 67.9412C97.0902 67.6877 96.9537 66.9859 96.9537 66.3621C96.9537 61.1568 96.9537 55.9516 96.9537 50.7464C96.9341 49.9471 96.9341 49.9471 96.1341 49.7911Z" fill="white"/>
<path d="M105.832 67.9802C104.837 67.9802 103.861 67.9802 102.866 67.9802C103.744 67.6877 103.568 66.9664 103.568 66.3426C103.568 61.1568 103.568 55.9711 103.568 50.7854C103.568 50.2785 103.607 49.7717 102.749 50.0251C102.749 49.9471 102.749 49.8886 102.768 49.8106C103.51 49.4402 104.251 49.0503 105.129 48.6019C105.129 49.0308 105.129 49.2843 105.129 49.5377C105.129 55.2108 105.129 60.9034 105.129 66.5765C105.129 67.1419 105.129 67.6877 105.929 67.8047C105.91 67.8632 105.871 67.9217 105.832 67.9802Z" fill="white"/>
<path d="M230.67 48.9139C229.928 49.1868 229.694 49.7911 229.48 50.4345C228.192 54.392 226.884 58.3495 225.597 62.3071C225.519 62.5215 225.441 62.736 225.362 62.9699C225.304 62.9504 225.226 62.9309 225.167 62.9114C225.226 62.658 225.265 62.385 225.343 62.1511C226.65 58.1546 227.958 54.1581 229.265 50.1421C229.401 49.6937 229.616 49.2453 228.992 48.9139C229.538 48.9139 230.104 48.9139 230.67 48.9139Z" fill="white"/>
<path d="M97.7146 43.1238C97.0122 43.1238 96.4659 42.5779 96.4659 41.8956C96.4659 41.2328 97.0122 40.6869 97.6756 40.6674C98.3585 40.6479 98.9439 41.2133 98.9634 41.8761C98.9829 42.5584 98.4171 43.1238 97.7146 43.1238Z" fill="white"/>
<path d="M92.4269 46.0091C92.1927 46.0091 91.9781 46.0091 91.6854 46.0091C92.1147 43.7671 91.4317 41.9541 89.6366 40.3945C91.1781 40.7844 92.7586 44.0986 92.4269 46.0091Z" fill="white"/>
<path d="M128.583 67.6487C128.056 68.2141 127.529 68.2531 126.963 68.0971C126.339 67.9217 125.988 67.4733 125.871 66.8494C125.831 66.6155 125.832 66.3621 125.832 66.1086C125.832 62.502 125.851 58.8954 125.812 55.2888C125.812 54.4505 125.714 53.5732 125.441 52.7544C124.056 48.446 119.997 48.0171 117.071 50.4735C116.856 50.6684 116.661 50.8829 116.446 51.0973C115.861 51.7212 115.568 52.3255 115.958 53.2613C116.251 53.9631 116.251 54.8014 116.251 55.5812C116.271 59.2658 116.271 62.9309 116.251 66.6155C116.251 67.2004 116.31 67.6877 116.954 67.9607C115.978 67.9607 114.983 67.9607 114.007 67.9607C114.885 67.6292 114.69 66.8689 114.69 66.2061C114.69 62.58 114.749 58.9344 114.671 55.3083C114.651 54.1776 114.417 53.0078 113.988 51.9746C112.856 49.2648 110.261 48.3095 107.549 49.4597C107.334 49.5572 107.119 49.6352 106.827 49.7522C108.193 47.5492 113.227 48.8359 115.49 51.9161C115.607 51.7407 115.724 51.6042 115.841 51.4482C117.324 49.3038 120.056 48.2705 122.573 48.8944C125.188 49.5377 127.041 51.6237 127.373 54.2945C127.431 54.7234 127.451 55.1523 127.451 55.5812C127.451 59.2658 127.451 62.9309 127.451 66.6155C127.431 67.5903 127.49 67.6487 128.583 67.6487Z" fill="white"/>
<path d="M182.104 67.9412C182.651 67.6682 182.768 67.2393 182.768 66.674C182.748 57.7257 182.768 48.7579 182.748 39.8096C182.748 39.6147 182.729 39.4197 182.709 39.1468C180.231 39.1468 177.753 39.0298 175.412 39.9071C174.982 40.063 174.612 40.4335 174.124 40.7649C174.124 40.219 174.104 39.6342 174.143 39.0688C174.143 38.9908 174.338 38.8933 174.436 38.8738C174.612 38.8348 174.787 38.8543 174.982 38.8543C180.699 38.8543 186.416 38.8738 192.114 38.8349C192.797 38.8349 193.07 38.9908 192.972 39.6926C192.933 40.063 192.972 40.4335 192.894 40.8234C192.309 39.9266 191.372 39.7706 190.494 39.5562C188.504 39.0883 186.475 39.1468 184.387 39.1663C184.368 39.4002 184.348 39.5952 184.348 39.7901C184.348 48.7774 184.348 57.7452 184.348 66.7325C184.348 67.2588 184.368 67.7462 185.012 67.9802C184.036 67.9412 183.08 67.9412 182.104 67.9412Z" fill="white"/>
<path d="M252.309 39.9266C252.016 39.9071 251.821 39.9071 251.626 39.8876C251.606 39.8291 251.567 39.7901 251.548 39.7316C252.27 39.3612 253.011 38.9908 253.889 38.5424C253.889 38.9128 253.889 39.1663 253.889 39.4197C253.889 48.4655 253.889 57.5112 253.889 66.5375C253.889 67.1029 253.85 67.6682 254.572 67.9022C253.596 67.9022 252.621 67.9022 251.645 67.9022C252.484 67.6098 252.309 66.9079 252.309 66.2841C252.309 57.8037 252.309 49.3233 252.309 40.8429C252.309 40.5699 252.309 40.2775 252.309 39.9266Z" fill="white"/>
<path d="M152.797 67.9607C151.822 67.9607 150.846 67.9607 149.87 67.9607C150.651 67.6877 150.553 67.0444 150.553 66.44C150.553 57.9206 150.553 49.4012 150.553 40.8624C150.553 40.5699 150.553 40.2775 150.553 39.9461C150.28 39.9266 150.065 39.9071 149.87 39.8876C149.851 39.8486 149.831 39.7901 149.812 39.7511C150.553 39.3807 151.275 39.0103 152.153 38.5619C152.153 38.9518 152.153 39.2053 152.153 39.4587C152.153 48.485 152.153 57.4918 152.153 66.518C152.114 67.1224 152.134 67.6488 152.797 67.9607Z" fill="white"/>
<path d="M78.6709 60.9229C78.6904 61.0204 78.7099 61.0984 78.7099 61.1568C78.5538 64.51 80.1343 66.7325 83.3538 67.6877C86.983 68.76 90.6903 66.752 91.6074 63.2233C92.2317 60.7669 91.2756 58.0961 89.1098 56.7119C86.7293 55.1718 84.2708 53.7292 81.8513 52.2475C78.4757 50.1616 77.266 46.1845 78.944 42.7144C80.1343 40.297 82.105 38.9713 84.7781 38.6594C84.9342 38.6399 85.0903 38.6399 85.2464 38.6594C85.305 38.6594 85.3635 38.6984 85.5976 38.7959C85.2854 38.8543 85.1294 38.9128 84.9928 38.9323C82.2806 39.1663 80.0757 40.9988 79.3928 43.5917C78.7099 46.1845 79.705 48.9529 81.9489 50.415C84.2513 51.8966 86.6318 53.3003 88.9927 54.7039C90.8659 55.8152 92.1732 57.3553 92.622 59.5192C93.5586 64.0616 90.0464 68.2726 85.383 68.2141C81.3245 68.1751 78.2806 65.4458 77.9099 61.5468C77.8709 60.9619 78.027 60.728 78.6709 60.9229Z" fill="white"/>
<path d="M171.841 62.8139C171.724 63.0674 171.626 63.3208 171.49 63.5743C169.987 66.3816 167.743 68.1361 164.465 68.1946C161.304 68.2336 159.08 66.596 157.519 64.0031C155.041 59.8897 155.763 54.1386 159.08 50.9414C162.709 47.4712 168.056 48.1341 170.904 52.4425C172.114 54.275 172.68 56.3025 172.68 58.564C169.324 58.564 165.987 58.564 162.67 58.564C162.67 58.5055 162.67 58.447 162.67 58.369C165.441 58.369 168.231 58.369 171.08 58.369C171.06 55.8736 170.456 53.6902 169.09 51.7407C168.426 50.7854 167.587 50.0056 166.514 49.4987C164.173 48.3875 161.539 49.1478 159.802 51.5262C157.558 54.5675 157.187 57.9791 158.007 61.5662C158.378 63.2233 159.1 64.705 160.27 65.9722C162.143 67.9997 164.582 68.5065 167.119 67.3953C168.934 66.6155 170.221 65.2508 171.158 63.5548C171.314 63.2818 171.47 62.9894 171.626 62.7165C171.704 62.736 171.763 62.775 171.841 62.8139Z" fill="white"/>
<path d="M248.465 58.5835C245.089 58.5835 241.772 58.5835 238.475 58.5835C238.475 58.525 238.475 58.447 238.475 58.3885C241.245 58.3885 244.016 58.3885 246.767 58.3885C247.235 55.2888 245.167 51.0583 242.572 49.6352C240.211 48.329 237.421 49.0113 235.606 51.4677C233.343 54.509 232.953 57.9596 233.772 61.5662C234.143 63.2233 234.884 64.705 236.036 65.9722C237.889 67.9802 240.309 68.487 242.826 67.4148C244.66 66.635 245.967 65.2703 246.923 63.5353C247.079 63.2623 247.235 62.9699 247.528 62.7555C247.528 62.8334 247.567 62.9114 247.548 62.9894C246.221 66.0891 243.255 68.565 239.411 68.1751C237.031 67.9412 235.236 66.713 233.85 64.8414C231.04 61.0789 231.197 55.2498 234.182 51.6822C237.714 47.4517 243.626 47.8026 246.709 52.462C247.899 54.275 248.465 56.322 248.465 58.5835Z" fill="white"/>
<path d="M214.358 60.0846C214.377 60.455 214.397 60.689 214.397 60.9229C214.397 62.7749 214.397 64.627 214.397 66.479C214.397 67.6293 214.436 67.6487 215.606 67.6293C215.099 68.1751 214.553 68.2726 213.928 68.0971C212.777 67.7462 212.777 66.791 212.816 65.6407C212.524 65.9917 212.328 66.2061 212.133 66.4206C210.475 68.2726 208.387 68.565 206.124 67.9607C203.958 67.3758 202.455 66.0111 202.065 63.7302C201.753 61.9172 202.494 60.416 203.782 59.1878C205.05 57.9986 206.572 57.3748 208.309 57.3553C209.324 57.3553 210.338 57.4138 211.353 57.4528C211.821 57.4723 212.289 57.4528 212.777 57.4528C212.797 55.6202 212.933 53.9046 212.25 52.267C211.177 49.6547 209.05 48.5435 206.397 49.2453C205.324 49.5182 204.563 50.1616 204.075 51.2728C203.86 51.0778 203.665 50.9024 203.489 50.7269C205.558 48.251 209.733 48.0756 212.231 50.337C213.655 51.6237 214.319 53.2418 214.358 55.1328C214.358 55.4058 214.358 55.6787 214.358 55.9516C214.358 57.3163 214.124 57.6282 212.738 57.7257C211.958 57.7842 211.158 57.7257 210.377 57.7062C209.811 57.6867 209.246 57.6672 208.68 57.6477C205.421 57.4917 203.86 60.0846 203.88 62.5605C203.899 64.1396 204.426 65.5823 205.577 66.713C207.138 68.2531 209.343 68.3701 211.099 66.9664C212.953 65.4848 213.733 63.4378 213.987 61.1374C214.026 60.8644 214.045 60.611 214.084 60.3381C214.143 60.2601 214.202 60.2211 214.358 60.0846Z" fill="white"/>
<path d="M194.319 67.9607C193.324 67.9607 192.348 67.9607 191.353 67.9607C192.212 67.6877 192.075 67.0054 192.075 66.3816C192.075 61.1763 192.075 55.9516 192.075 50.7464C192.075 49.9471 192.075 49.9471 191.275 49.8106C192.016 49.4402 192.758 49.0503 193.636 48.6019C193.636 49.5377 193.636 50.3175 193.636 51.1363C194.319 50.6684 194.904 50.22 195.529 49.8496C196.855 49.1088 198.299 48.7774 199.802 48.6994C200.836 48.6409 200.894 48.6994 200.66 49.8301C200.172 49.6547 199.724 49.4207 199.216 49.3428C197.011 49.0503 195.294 50.0446 193.792 51.5262C193.655 51.6627 193.636 51.9356 193.636 52.1501C193.636 57.0044 193.636 61.8392 193.616 66.6935C193.616 67.2783 193.733 67.7267 194.319 67.9607Z" fill="white"/>
<path d="M223.47 68.1556C223.392 67.9412 223.294 67.7072 223.236 67.4928C221.402 61.8587 219.567 56.2441 217.753 50.6099C217.538 49.9081 217.382 49.1868 216.426 49.0698C216.465 49.0113 216.504 48.9529 216.523 48.9139C217.538 48.9139 218.553 48.9139 219.802 48.9139C218.904 49.2843 219.119 49.7717 219.294 50.298C220.894 55.1913 222.455 60.1041 224.114 64.9779C224.543 66.2256 223.919 67.1029 223.47 68.1556Z" fill="white"/>
<path d="M96.1341 49.7911C96.8756 49.4207 97.6171 49.0503 98.4951 48.6214C98.4951 49.0308 98.4951 49.3038 98.4951 49.5572C98.4951 55.2108 98.4951 60.8839 98.4951 66.5375C98.4951 67.1224 98.4951 67.6877 99.2171 67.9412C98.2219 67.9412 97.2268 67.9412 96.2317 67.9412C97.0902 67.6877 96.9537 66.9859 96.9537 66.3621C96.9537 61.1568 96.9537 55.9516 96.9537 50.7464C96.9341 49.9471 96.9341 49.9471 96.1341 49.7911Z" fill="white"/>
<path d="M105.832 67.9802C104.837 67.9802 103.861 67.9802 102.866 67.9802C103.744 67.6877 103.568 66.9664 103.568 66.3426C103.568 61.1568 103.568 55.9711 103.568 50.7854C103.568 50.2785 103.607 49.7717 102.749 50.0251C102.749 49.9471 102.749 49.8886 102.768 49.8106C103.51 49.4402 104.251 49.0503 105.129 48.6019C105.129 49.0308 105.129 49.2843 105.129 49.5377C105.129 55.2108 105.129 60.9034 105.129 66.5765C105.129 67.1419 105.129 67.6877 105.929 67.8047C105.91 67.8632 105.871 67.9217 105.832 67.9802Z" fill="white"/>
<path d="M230.67 48.9139C229.928 49.1868 229.694 49.7911 229.48 50.4345C228.192 54.392 226.884 58.3495 225.597 62.3071C225.519 62.5215 225.441 62.736 225.362 62.9699C225.304 62.9504 225.226 62.9309 225.167 62.9114C225.226 62.658 225.265 62.385 225.343 62.1511C226.65 58.1546 227.958 54.1581 229.265 50.1421C229.401 49.6937 229.616 49.2453 228.992 48.9139C229.538 48.9139 230.104 48.9139 230.67 48.9139Z" fill="white"/>
<path d="M97.7146 43.1238C97.0122 43.1238 96.4659 42.5779 96.4659 41.8956C96.4659 41.2328 97.0122 40.6869 97.6756 40.6674C98.3585 40.6479 98.9439 41.2133 98.9634 41.8761C98.9829 42.5584 98.4171 43.1238 97.7146 43.1238Z" fill="white"/>
<path d="M92.4269 46.0091C92.1927 46.0091 91.9781 46.0091 91.6854 46.0091C92.1147 43.7671 91.4317 41.9541 89.6366 40.3945C91.1781 40.7844 92.7586 44.0986 92.4269 46.0091Z" fill="white"/>
<path d="M134.534 75.7977C133.714 75.7977 132.719 75.7977 131.724 75.7977C131.666 75.7588 131.607 75.7003 131.568 75.6613C132.583 75.5053 132.446 74.823 132.446 74.1991C132.446 69.4228 132.446 64.6465 132.446 59.8507C132.446 56.8289 132.446 53.8072 132.446 50.7854C132.446 50.22 132.446 49.7717 131.568 50.0056C131.588 49.9471 131.607 49.8691 131.607 49.8106C132.349 49.4402 133.09 49.0698 133.929 48.6409C133.929 49.8301 133.929 50.8829 133.929 51.9551C133.988 51.9746 134.027 51.9941 134.085 52.0331C134.202 51.8771 134.319 51.7212 134.436 51.5457C135.861 49.6937 137.617 48.4655 140.095 48.7579C141.734 48.9529 142.983 49.8496 144.017 51.0778C147.217 54.9574 147.275 61.6442 144.173 65.5823C141.402 69.1109 137.109 69.0134 134.475 65.3873C134.358 65.2119 134.222 65.0364 134.007 64.7635C133.988 65.0169 133.968 65.1144 133.968 65.2118C133.968 68.3311 133.949 71.4308 133.988 74.55C134.027 74.9789 134.339 75.3493 134.534 75.7977ZM144.485 57.9206C144.407 57.2773 144.329 56.0101 144.075 54.7819C143.724 53.0274 143.119 51.3508 141.773 50.0446C141.012 49.3038 140.114 48.9334 139.022 49.0308C137.246 49.2063 135.919 50.1031 134.905 51.4677C132.914 54.1191 132.329 57.1408 132.817 60.377C133.188 62.8724 134.144 65.1144 136.173 66.752C138.67 68.7795 141.266 68.2921 142.885 65.5238C143.002 65.3288 143.1 65.1339 143.197 64.9194C144.153 62.8919 144.426 60.728 144.485 57.9206Z" stroke="white"/>
<path d="M128.583 67.6487C128.056 68.2141 127.529 68.2531 126.963 68.0971C126.339 67.9217 125.988 67.4733 125.871 66.8494C125.831 66.6155 125.832 66.3621 125.832 66.1086C125.832 62.502 125.851 58.8954 125.812 55.2888C125.812 54.4505 125.714 53.5732 125.441 52.7544C124.056 48.446 119.997 48.0171 117.071 50.4735C116.856 50.6684 116.661 50.8829 116.446 51.0973C115.861 51.7212 115.568 52.3255 115.958 53.2613C116.251 53.9631 116.251 54.8014 116.251 55.5812C116.271 59.2658 116.271 62.9309 116.251 66.6155C116.251 67.2004 116.31 67.6877 116.954 67.9607C115.978 67.9607 114.983 67.9607 114.007 67.9607C114.885 67.6292 114.69 66.8689 114.69 66.2061C114.69 62.58 114.749 58.9344 114.671 55.3083C114.651 54.1776 114.417 53.0078 113.988 51.9746C112.856 49.2648 110.261 48.3095 107.549 49.4597C107.334 49.5572 107.119 49.6352 106.827 49.7522C108.193 47.5492 113.227 48.8359 115.49 51.9161C115.607 51.7407 115.724 51.6042 115.841 51.4482C117.324 49.3038 120.056 48.2705 122.573 48.8944C125.188 49.5377 127.041 51.6237 127.373 54.2945C127.431 54.7234 127.451 55.1523 127.451 55.5812C127.451 59.2658 127.451 62.9309 127.451 66.6155C127.431 67.5903 127.49 67.6487 128.583 67.6487Z" stroke="white"/>
<path d="M182.104 67.9412C182.651 67.6682 182.768 67.2393 182.768 66.674C182.748 57.7257 182.768 48.7579 182.748 39.8096C182.748 39.6147 182.729 39.4197 182.709 39.1468C180.231 39.1468 177.753 39.0298 175.412 39.9071C174.982 40.063 174.612 40.4335 174.124 40.7649C174.124 40.219 174.104 39.6342 174.143 39.0688C174.143 38.9908 174.338 38.8933 174.436 38.8738C174.612 38.8348 174.787 38.8543 174.982 38.8543C180.699 38.8543 186.416 38.8738 192.114 38.8349C192.797 38.8349 193.07 38.9908 192.972 39.6926C192.933 40.063 192.972 40.4335 192.894 40.8234C192.309 39.9266 191.372 39.7706 190.494 39.5562C188.504 39.0883 186.475 39.1468 184.387 39.1663C184.368 39.4002 184.348 39.5952 184.348 39.7901C184.348 48.7774 184.348 57.7452 184.348 66.7325C184.348 67.2588 184.368 67.7462 185.012 67.9802C184.036 67.9412 183.08 67.9412 182.104 67.9412Z" stroke="white"/>
<path d="M252.309 39.9266C252.016 39.9071 251.821 39.9071 251.626 39.8876C251.606 39.8291 251.567 39.7901 251.548 39.7316C252.27 39.3612 253.011 38.9908 253.889 38.5424C253.889 38.9128 253.889 39.1663 253.889 39.4197C253.889 48.4655 253.889 57.5112 253.889 66.5375C253.889 67.1029 253.85 67.6682 254.572 67.9022C253.596 67.9022 252.621 67.9022 251.645 67.9022C252.484 67.6098 252.309 66.9079 252.309 66.2841C252.309 57.8037 252.309 49.3233 252.309 40.8429C252.309 40.5699 252.309 40.2775 252.309 39.9266Z" stroke="white"/>
<path d="M152.797 67.9607C151.822 67.9607 150.846 67.9607 149.87 67.9607C150.651 67.6877 150.553 67.0444 150.553 66.44C150.553 57.9206 150.553 49.4012 150.553 40.8624C150.553 40.5699 150.553 40.2775 150.553 39.9461C150.28 39.9266 150.065 39.9071 149.87 39.8876C149.851 39.8486 149.831 39.7901 149.812 39.7511C150.553 39.3807 151.275 39.0103 152.153 38.5619C152.153 38.9518 152.153 39.2053 152.153 39.4587C152.153 48.485 152.153 57.4918 152.153 66.518C152.114 67.1224 152.134 67.6488 152.797 67.9607Z" stroke="white"/>
<path d="M78.6709 60.9229C78.6904 61.0204 78.7099 61.0984 78.7099 61.1568C78.5538 64.51 80.1343 66.7325 83.3538 67.6877C86.983 68.76 90.6903 66.752 91.6074 63.2233C92.2317 60.7669 91.2756 58.0961 89.1098 56.7119C86.7293 55.1718 84.2708 53.7292 81.8513 52.2475C78.4757 50.1616 77.266 46.1845 78.944 42.7144C80.1343 40.297 82.105 38.9713 84.7781 38.6594C84.9342 38.6399 85.0903 38.6399 85.2464 38.6594C85.305 38.6594 85.3635 38.6984 85.5976 38.7959C85.2854 38.8543 85.1294 38.9128 84.9928 38.9323C82.2806 39.1663 80.0757 40.9988 79.3928 43.5917C78.7099 46.1845 79.705 48.9529 81.9489 50.415C84.2513 51.8966 86.6318 53.3003 88.9927 54.7039C90.8659 55.8152 92.1732 57.3553 92.622 59.5192C93.5586 64.0616 90.0464 68.2726 85.383 68.2141C81.3245 68.1751 78.2806 65.4458 77.9099 61.5468C77.8709 60.9619 78.027 60.728 78.6709 60.9229Z" stroke="white"/>
<path d="M171.841 62.8139C171.724 63.0674 171.626 63.3208 171.49 63.5743C169.987 66.3816 167.743 68.1361 164.465 68.1946C161.304 68.2336 159.08 66.596 157.519 64.0031C155.041 59.8897 155.763 54.1386 159.08 50.9414C162.709 47.4712 168.056 48.1341 170.904 52.4425C172.114 54.275 172.68 56.3025 172.68 58.564C169.324 58.564 165.987 58.564 162.67 58.564C162.67 58.5055 162.67 58.447 162.67 58.369C165.441 58.369 168.231 58.369 171.08 58.369C171.06 55.8736 170.456 53.6902 169.09 51.7407C168.426 50.7854 167.587 50.0056 166.514 49.4987C164.173 48.3875 161.539 49.1478 159.802 51.5262C157.558 54.5675 157.187 57.9791 158.007 61.5662C158.378 63.2233 159.1 64.705 160.27 65.9722C162.143 67.9997 164.582 68.5065 167.119 67.3953C168.934 66.6155 170.221 65.2508 171.158 63.5548C171.314 63.2818 171.47 62.9894 171.626 62.7165C171.704 62.736 171.763 62.775 171.841 62.8139Z" stroke="white"/>
<path d="M248.465 58.5835C245.089 58.5835 241.772 58.5835 238.475 58.5835C238.475 58.525 238.475 58.447 238.475 58.3885C241.245 58.3885 244.016 58.3885 246.767 58.3885C247.235 55.2888 245.167 51.0583 242.572 49.6352C240.211 48.329 237.421 49.0113 235.606 51.4677C233.343 54.509 232.953 57.9596 233.772 61.5662C234.143 63.2233 234.884 64.705 236.036 65.9722C237.889 67.9802 240.309 68.487 242.826 67.4148C244.66 66.635 245.967 65.2703 246.923 63.5353C247.079 63.2623 247.235 62.9699 247.528 62.7555C247.528 62.8334 247.567 62.9114 247.548 62.9894C246.221 66.0891 243.255 68.565 239.411 68.1751C237.031 67.9412 235.236 66.713 233.85 64.8414C231.04 61.0789 231.197 55.2498 234.182 51.6822C237.714 47.4517 243.626 47.8026 246.709 52.462C247.899 54.275 248.465 56.322 248.465 58.5835Z" stroke="white"/>
<path d="M214.358 60.0846C214.377 60.455 214.397 60.689 214.397 60.9229C214.397 62.7749 214.397 64.627 214.397 66.479C214.397 67.6293 214.436 67.6487 215.606 67.6293C215.099 68.1751 214.553 68.2726 213.928 68.0971C212.777 67.7462 212.777 66.791 212.816 65.6407C212.524 65.9917 212.328 66.2061 212.133 66.4206C210.475 68.2726 208.387 68.565 206.124 67.9607C203.958 67.3758 202.455 66.0111 202.065 63.7302C201.753 61.9172 202.494 60.416 203.782 59.1878C205.05 57.9986 206.572 57.3748 208.309 57.3553C209.324 57.3553 210.338 57.4138 211.353 57.4528C211.821 57.4723 212.289 57.4528 212.777 57.4528C212.797 55.6202 212.933 53.9046 212.25 52.267C211.177 49.6547 209.05 48.5435 206.397 49.2453C205.324 49.5182 204.563 50.1616 204.075 51.2728C203.86 51.0778 203.665 50.9024 203.489 50.7269C205.558 48.251 209.733 48.0756 212.231 50.337C213.655 51.6237 214.319 53.2418 214.358 55.1328C214.358 55.4058 214.358 55.6787 214.358 55.9516C214.358 57.3163 214.124 57.6282 212.738 57.7257C211.958 57.7842 211.158 57.7257 210.377 57.7062C209.811 57.6867 209.246 57.6672 208.68 57.6477C205.421 57.4917 203.86 60.0846 203.88 62.5605C203.899 64.1396 204.426 65.5823 205.577 66.713C207.138 68.2531 209.343 68.3701 211.099 66.9664C212.953 65.4848 213.733 63.4378 213.987 61.1374C214.026 60.8644 214.045 60.611 214.084 60.3381C214.143 60.2601 214.202 60.2211 214.358 60.0846Z" stroke="white"/>
<path d="M194.319 67.9607C193.324 67.9607 192.348 67.9607 191.353 67.9607C192.212 67.6877 192.075 67.0054 192.075 66.3816C192.075 61.1763 192.075 55.9516 192.075 50.7464C192.075 49.9471 192.075 49.9471 191.275 49.8106C192.016 49.4402 192.758 49.0503 193.636 48.6019C193.636 49.5377 193.636 50.3175 193.636 51.1363C194.319 50.6684 194.904 50.22 195.529 49.8496C196.855 49.1088 198.299 48.7774 199.802 48.6994C200.836 48.6409 200.894 48.6994 200.66 49.8301C200.172 49.6547 199.724 49.4207 199.216 49.3428C197.011 49.0503 195.294 50.0446 193.792 51.5262C193.655 51.6627 193.636 51.9356 193.636 52.1501C193.636 57.0044 193.636 61.8392 193.616 66.6935C193.616 67.2783 193.733 67.7267 194.319 67.9607Z" stroke="white"/>
<path d="M223.47 68.1556C223.392 67.9412 223.294 67.7072 223.236 67.4928C221.402 61.8587 219.567 56.2441 217.753 50.6099C217.538 49.9081 217.382 49.1868 216.426 49.0698C216.465 49.0113 216.504 48.9529 216.523 48.9139C217.538 48.9139 218.553 48.9139 219.802 48.9139C218.904 49.2843 219.119 49.7717 219.294 50.298C220.894 55.1913 222.455 60.1041 224.114 64.9779C224.543 66.2256 223.919 67.1029 223.47 68.1556Z" stroke="white"/>
<path d="M96.1341 49.7911C96.8756 49.4207 97.6171 49.0503 98.4951 48.6214C98.4951 49.0308 98.4951 49.3038 98.4951 49.5572C98.4951 55.2108 98.4951 60.8839 98.4951 66.5375C98.4951 67.1224 98.4951 67.6877 99.2171 67.9412C98.2219 67.9412 97.2268 67.9412 96.2317 67.9412C97.0902 67.6877 96.9537 66.9859 96.9537 66.3621C96.9537 61.1568 96.9537 55.9516 96.9537 50.7464C96.9341 49.9471 96.9341 49.9471 96.1341 49.7911Z" stroke="white"/>
<path d="M105.832 67.9802C104.837 67.9802 103.861 67.9802 102.866 67.9802C103.744 67.6877 103.568 66.9664 103.568 66.3426C103.568 61.1568 103.568 55.9711 103.568 50.7854C103.568 50.2785 103.607 49.7717 102.749 50.0251C102.749 49.9471 102.749 49.8886 102.768 49.8106C103.51 49.4402 104.251 49.0503 105.129 48.6019C105.129 49.0308 105.129 49.2843 105.129 49.5377C105.129 55.2108 105.129 60.9034 105.129 66.5765C105.129 67.1419 105.129 67.6877 105.929 67.8047C105.91 67.8632 105.871 67.9217 105.832 67.9802Z" stroke="white"/>
<path d="M230.67 48.9139C229.928 49.1868 229.694 49.7911 229.48 50.4345C228.192 54.392 226.884 58.3495 225.597 62.3071C225.519 62.5215 225.441 62.736 225.362 62.9699C225.304 62.9504 225.226 62.9309 225.167 62.9114C225.226 62.658 225.265 62.385 225.343 62.1511C226.65 58.1546 227.958 54.1581 229.265 50.1421C229.401 49.6937 229.616 49.2453 228.992 48.9139C229.538 48.9139 230.104 48.9139 230.67 48.9139Z" stroke="white"/>
<path d="M97.7146 43.1238C97.0122 43.1238 96.4659 42.5779 96.4659 41.8956C96.4659 41.2328 97.0122 40.6869 97.6756 40.6674C98.3585 40.6479 98.9439 41.2133 98.9634 41.8761C98.9829 42.5584 98.4171 43.1238 97.7146 43.1238Z" stroke="white"/>
<path d="M92.4269 46.0091C92.1927 46.0091 91.9781 46.0091 91.6854 46.0091C92.1147 43.7671 91.4317 41.9541 89.6366 40.3945C91.1781 40.7844 92.7586 44.0986 92.4269 46.0091Z" stroke="white"/>
<path d="M128.583 67.6487C128.056 68.2141 127.529 68.2531 126.963 68.0971C126.339 67.9217 125.988 67.4733 125.871 66.8494C125.831 66.6155 125.832 66.3621 125.832 66.1086C125.832 62.502 125.851 58.8954 125.812 55.2888C125.812 54.4505 125.714 53.5732 125.441 52.7544C124.056 48.446 119.997 48.0171 117.071 50.4735C116.856 50.6684 116.661 50.8829 116.446 51.0973C115.861 51.7212 115.568 52.3255 115.958 53.2613C116.251 53.9631 116.251 54.8014 116.251 55.5812C116.271 59.2658 116.271 62.9309 116.251 66.6155C116.251 67.2004 116.31 67.6877 116.954 67.9607C115.978 67.9607 114.983 67.9607 114.007 67.9607C114.885 67.6292 114.69 66.8689 114.69 66.2061C114.69 62.58 114.749 58.9344 114.671 55.3083C114.651 54.1776 114.417 53.0078 113.988 51.9746C112.856 49.2648 110.261 48.3095 107.549 49.4597C107.334 49.5572 107.119 49.6352 106.827 49.7522C108.193 47.5492 113.227 48.8359 115.49 51.9161C115.607 51.7407 115.724 51.6042 115.841 51.4482C117.324 49.3038 120.056 48.2705 122.573 48.8944C125.188 49.5377 127.041 51.6237 127.373 54.2945C127.431 54.7234 127.451 55.1523 127.451 55.5812C127.451 59.2658 127.451 62.9309 127.451 66.6155C127.431 67.5903 127.49 67.6487 128.583 67.6487Z" stroke="white"/>
<path d="M182.104 67.9412C182.651 67.6682 182.768 67.2393 182.768 66.674C182.748 57.7257 182.768 48.7579 182.748 39.8096C182.748 39.6147 182.729 39.4197 182.709 39.1468C180.231 39.1468 177.753 39.0298 175.412 39.9071C174.982 40.063 174.612 40.4335 174.124 40.7649C174.124 40.219 174.104 39.6342 174.143 39.0688C174.143 38.9908 174.338 38.8933 174.436 38.8738C174.612 38.8348 174.787 38.8543 174.982 38.8543C180.699 38.8543 186.416 38.8738 192.114 38.8349C192.797 38.8349 193.07 38.9908 192.972 39.6926C192.933 40.063 192.972 40.4335 192.894 40.8234C192.309 39.9266 191.372 39.7706 190.494 39.5562C188.504 39.0883 186.475 39.1468 184.387 39.1663C184.368 39.4002 184.348 39.5952 184.348 39.7901C184.348 48.7774 184.348 57.7452 184.348 66.7325C184.348 67.2588 184.368 67.7462 185.012 67.9802C184.036 67.9412 183.08 67.9412 182.104 67.9412Z" stroke="white"/>
<path d="M252.309 39.9266C252.016 39.9071 251.821 39.9071 251.626 39.8876C251.606 39.8291 251.567 39.7901 251.548 39.7316C252.27 39.3612 253.011 38.9908 253.889 38.5424C253.889 38.9128 253.889 39.1663 253.889 39.4197C253.889 48.4655 253.889 57.5112 253.889 66.5375C253.889 67.1029 253.85 67.6682 254.572 67.9022C253.596 67.9022 252.621 67.9022 251.645 67.9022C252.484 67.6098 252.309 66.9079 252.309 66.2841C252.309 57.8037 252.309 49.3233 252.309 40.8429C252.309 40.5699 252.309 40.2775 252.309 39.9266Z" stroke="white"/>
<path d="M152.797 67.9607C151.822 67.9607 150.846 67.9607 149.87 67.9607C150.651 67.6877 150.553 67.0444 150.553 66.44C150.553 57.9206 150.553 49.4012 150.553 40.8624C150.553 40.5699 150.553 40.2775 150.553 39.9461C150.28 39.9266 150.065 39.9071 149.87 39.8876C149.851 39.8486 149.831 39.7901 149.812 39.7511C150.553 39.3807 151.275 39.0103 152.153 38.5619C152.153 38.9518 152.153 39.2053 152.153 39.4587C152.153 48.485 152.153 57.4918 152.153 66.518C152.114 67.1224 152.134 67.6488 152.797 67.9607Z" stroke="white"/>
<path d="M78.6709 60.9229C78.6904 61.0204 78.7099 61.0984 78.7099 61.1568C78.5538 64.51 80.1343 66.7325 83.3538 67.6877C86.983 68.76 90.6903 66.752 91.6074 63.2233C92.2317 60.7669 91.2756 58.0961 89.1098 56.7119C86.7293 55.1718 84.2708 53.7292 81.8513 52.2475C78.4757 50.1616 77.266 46.1845 78.944 42.7144C80.1343 40.297 82.105 38.9713 84.7781 38.6594C84.9342 38.6399 85.0903 38.6399 85.2464 38.6594C85.305 38.6594 85.3635 38.6984 85.5976 38.7959C85.2854 38.8543 85.1294 38.9128 84.9928 38.9323C82.2806 39.1663 80.0757 40.9988 79.3928 43.5917C78.7099 46.1845 79.705 48.9529 81.9489 50.415C84.2513 51.8966 86.6318 53.3003 88.9927 54.7039C90.8659 55.8152 92.1732 57.3553 92.622 59.5192C93.5586 64.0616 90.0464 68.2726 85.383 68.2141C81.3245 68.1751 78.2806 65.4458 77.9099 61.5468C77.8709 60.9619 78.027 60.728 78.6709 60.9229Z" stroke="white"/>
<path d="M171.841 62.8139C171.724 63.0674 171.626 63.3208 171.49 63.5743C169.987 66.3816 167.743 68.1361 164.465 68.1946C161.304 68.2336 159.08 66.596 157.519 64.0031C155.041 59.8897 155.763 54.1386 159.08 50.9414C162.709 47.4712 168.056 48.1341 170.904 52.4425C172.114 54.275 172.68 56.3025 172.68 58.564C169.324 58.564 165.987 58.564 162.67 58.564C162.67 58.5055 162.67 58.447 162.67 58.369C165.441 58.369 168.231 58.369 171.08 58.369C171.06 55.8736 170.456 53.6902 169.09 51.7407C168.426 50.7854 167.587 50.0056 166.514 49.4987C164.173 48.3875 161.539 49.1478 159.802 51.5262C157.558 54.5675 157.187 57.9791 158.007 61.5662C158.378 63.2233 159.1 64.705 160.27 65.9722C162.143 67.9997 164.582 68.5065 167.119 67.3953C168.934 66.6155 170.221 65.2508 171.158 63.5548C171.314 63.2818 171.47 62.9894 171.626 62.7165C171.704 62.736 171.763 62.775 171.841 62.8139Z" stroke="white"/>
<path d="M248.465 58.5835C245.089 58.5835 241.772 58.5835 238.475 58.5835C238.475 58.525 238.475 58.447 238.475 58.3885C241.245 58.3885 244.016 58.3885 246.767 58.3885C247.235 55.2888 245.167 51.0583 242.572 49.6352C240.211 48.329 237.421 49.0113 235.606 51.4677C233.343 54.509 232.953 57.9596 233.772 61.5662C234.143 63.2233 234.884 64.705 236.036 65.9722C237.889 67.9802 240.309 68.487 242.826 67.4148C244.66 66.635 245.967 65.2703 246.923 63.5353C247.079 63.2623 247.235 62.9699 247.528 62.7555C247.528 62.8334 247.567 62.9114 247.548 62.9894C246.221 66.0891 243.255 68.565 239.411 68.1751C237.031 67.9412 235.236 66.713 233.85 64.8414C231.04 61.0789 231.197 55.2498 234.182 51.6822C237.714 47.4517 243.626 47.8026 246.709 52.462C247.899 54.275 248.465 56.322 248.465 58.5835Z" stroke="white"/>
<path d="M214.358 60.0846C214.377 60.455 214.397 60.689 214.397 60.9229C214.397 62.7749 214.397 64.627 214.397 66.479C214.397 67.6293 214.436 67.6487 215.606 67.6293C215.099 68.1751 214.553 68.2726 213.928 68.0971C212.777 67.7462 212.777 66.791 212.816 65.6407C212.524 65.9917 212.328 66.2061 212.133 66.4206C210.475 68.2726 208.387 68.565 206.124 67.9607C203.958 67.3758 202.455 66.0111 202.065 63.7302C201.753 61.9172 202.494 60.416 203.782 59.1878C205.05 57.9986 206.572 57.3748 208.309 57.3553C209.324 57.3553 210.338 57.4138 211.353 57.4528C211.821 57.4723 212.289 57.4528 212.777 57.4528C212.797 55.6202 212.933 53.9046 212.25 52.267C211.177 49.6547 209.05 48.5435 206.397 49.2453C205.324 49.5182 204.563 50.1616 204.075 51.2728C203.86 51.0778 203.665 50.9024 203.489 50.7269C205.558 48.251 209.733 48.0756 212.231 50.337C213.655 51.6237 214.319 53.2418 214.358 55.1328C214.358 55.4058 214.358 55.6787 214.358 55.9516C214.358 57.3163 214.124 57.6282 212.738 57.7257C211.958 57.7842 211.158 57.7257 210.377 57.7062C209.811 57.6867 209.246 57.6672 208.68 57.6477C205.421 57.4917 203.86 60.0846 203.88 62.5605C203.899 64.1396 204.426 65.5823 205.577 66.713C207.138 68.2531 209.343 68.3701 211.099 66.9664C212.953 65.4848 213.733 63.4378 213.987 61.1374C214.026 60.8644 214.045 60.611 214.084 60.3381C214.143 60.2601 214.202 60.2211 214.358 60.0846Z" stroke="white"/>
<path d="M194.319 67.9607C193.324 67.9607 192.348 67.9607 191.353 67.9607C192.212 67.6877 192.075 67.0054 192.075 66.3816C192.075 61.1763 192.075 55.9516 192.075 50.7464C192.075 49.9471 192.075 49.9471 191.275 49.8106C192.016 49.4402 192.758 49.0503 193.636 48.6019C193.636 49.5377 193.636 50.3175 193.636 51.1363C194.319 50.6684 194.904 50.22 195.529 49.8496C196.855 49.1088 198.299 48.7774 199.802 48.6994C200.836 48.6409 200.894 48.6994 200.66 49.8301C200.172 49.6547 199.724 49.4207 199.216 49.3428C197.011 49.0503 195.294 50.0446 193.792 51.5262C193.655 51.6627 193.636 51.9356 193.636 52.1501C193.636 57.0044 193.636 61.8392 193.616 66.6935C193.616 67.2783 193.733 67.7267 194.319 67.9607Z" stroke="white"/>
<path d="M223.47 68.1556C223.392 67.9412 223.294 67.7072 223.236 67.4928C221.402 61.8587 219.567 56.2441 217.753 50.6099C217.538 49.9081 217.382 49.1868 216.426 49.0698C216.465 49.0113 216.504 48.9529 216.523 48.9139C217.538 48.9139 218.553 48.9139 219.802 48.9139C218.904 49.2843 219.119 49.7717 219.294 50.298C220.894 55.1913 222.455 60.1041 224.114 64.9779C224.543 66.2256 223.919 67.1029 223.47 68.1556Z" stroke="white"/>
<path d="M96.1341 49.7911C96.8756 49.4207 97.6171 49.0503 98.4951 48.6214C98.4951 49.0308 98.4951 49.3038 98.4951 49.5572C98.4951 55.2108 98.4951 60.8839 98.4951 66.5375C98.4951 67.1224 98.4951 67.6877 99.2171 67.9412C98.2219 67.9412 97.2268 67.9412 96.2317 67.9412C97.0902 67.6877 96.9537 66.9859 96.9537 66.3621C96.9537 61.1568 96.9537 55.9516 96.9537 50.7464C96.9341 49.9471 96.9341 49.9471 96.1341 49.7911Z" stroke="white"/>
<path d="M105.832 67.9802C104.837 67.9802 103.861 67.9802 102.866 67.9802C103.744 67.6877 103.568 66.9664 103.568 66.3426C103.568 61.1568 103.568 55.9711 103.568 50.7854C103.568 50.2785 103.607 49.7717 102.749 50.0251C102.749 49.9471 102.749 49.8886 102.768 49.8106C103.51 49.4402 104.251 49.0503 105.129 48.6019C105.129 49.0308 105.129 49.2843 105.129 49.5377C105.129 55.2108 105.129 60.9034 105.129 66.5765C105.129 67.1419 105.129 67.6877 105.929 67.8047C105.91 67.8632 105.871 67.9217 105.832 67.9802Z" stroke="white"/>
<path d="M230.67 48.9139C229.928 49.1868 229.694 49.7911 229.48 50.4345C228.192 54.392 226.884 58.3495 225.597 62.3071C225.519 62.5215 225.441 62.736 225.362 62.9699C225.304 62.9504 225.226 62.9309 225.167 62.9114C225.226 62.658 225.265 62.385 225.343 62.1511C226.65 58.1546 227.958 54.1581 229.265 50.1421C229.401 49.6937 229.616 49.2453 228.992 48.9139C229.538 48.9139 230.104 48.9139 230.67 48.9139Z" stroke="white"/>
<path d="M97.7146 43.1238C97.0122 43.1238 96.4659 42.5779 96.4659 41.8956C96.4659 41.2328 97.0122 40.6869 97.6756 40.6674C98.3585 40.6479 98.9439 41.2133 98.9634 41.8761C98.9829 42.5584 98.4171 43.1238 97.7146 43.1238Z" stroke="white"/>
<path d="M92.4269 46.0091C92.1927 46.0091 91.9781 46.0091 91.6854 46.0091C92.1147 43.7671 91.4317 41.9541 89.6366 40.3945C91.1781 40.7844 92.7586 44.0986 92.4269 46.0091Z" stroke="white"/>
<defs>
<linearGradient id="paint0_linear_92_464" x1="0" y1="49.5" x2="165" y2="50.2857" gradientUnits="userSpaceOnUse">
<stop stop-color="#F8E1B7"/>
<stop offset="1" stop-color="#91DDCF"/>
</linearGradient>
<linearGradient id="paint1_linear_92_464" x1="0" y1="49.5" x2="165" y2="50.2857" gradientUnits="userSpaceOnUse">
<stop stop-color="#F8E1B7"/>
<stop offset="1" stop-color="#91DDCF"/>
</linearGradient>
<linearGradient id="paint2_linear_92_464" x1="0" y1="49.5" x2="165" y2="50.2857" gradientUnits="userSpaceOnUse">
<stop stop-color="#F8E1B7"/>
<stop offset="1" stop-color="#91DDCF"/>
</linearGradient>
<linearGradient id="paint3_linear_92_464" x1="0" y1="49.5" x2="165" y2="50.2857" gradientUnits="userSpaceOnUse">
<stop stop-color="#F8E1B7"/>
<stop offset="1" stop-color="#91DDCF"/>
</linearGradient>
<linearGradient id="paint4_linear_92_464" x1="0" y1="49.5" x2="165" y2="50.2857" gradientUnits="userSpaceOnUse">
<stop stop-color="#F8E1B7"/>
<stop offset="1" stop-color="#91DDCF"/>
</linearGradient>
<linearGradient id="paint5_linear_92_464" x1="0" y1="49.5" x2="165" y2="50.2857" gradientUnits="userSpaceOnUse">
<stop stop-color="#F8E1B7"/>
<stop offset="1" stop-color="#91DDCF"/>
</linearGradient>
<linearGradient id="paint6_linear_92_464" x1="0" y1="49.5" x2="165" y2="50.2857" gradientUnits="userSpaceOnUse">
<stop stop-color="#F8E1B7"/>
<stop offset="1" stop-color="#91DDCF"/>
</linearGradient>
<linearGradient id="paint7_linear_92_464" x1="0" y1="49.5" x2="165" y2="50.2857" gradientUnits="userSpaceOnUse">
<stop stop-color="#F8E1B7"/>
<stop offset="1" stop-color="#91DDCF"/>
</linearGradient>
<linearGradient id="paint8_linear_92_464" x1="0" y1="49.5" x2="165" y2="50.2857" gradientUnits="userSpaceOnUse">
<stop stop-color="#F8E1B7"/>
<stop offset="1" stop-color="#91DDCF"/>
</linearGradient>
<linearGradient id="paint9_linear_92_464" x1="0" y1="49.5" x2="165" y2="50.2857" gradientUnits="userSpaceOnUse">
<stop stop-color="#F8E1B7"/>
<stop offset="1" stop-color="#91DDCF"/>
</linearGradient>
<linearGradient id="paint10_linear_92_464" x1="0" y1="49.5" x2="165" y2="50.2857" gradientUnits="userSpaceOnUse">
<stop stop-color="#F8E1B7"/>
<stop offset="1" stop-color="#91DDCF"/>
</linearGradient>
<linearGradient id="paint11_linear_92_464" x1="0" y1="49.5" x2="165" y2="50.2857" gradientUnits="userSpaceOnUse">
<stop stop-color="#F8E1B7"/>
<stop offset="1" stop-color="#91DDCF"/>
</linearGradient>
<linearGradient id="paint12_linear_92_464" x1="0" y1="49.5" x2="165" y2="50.2857" gradientUnits="userSpaceOnUse">
<stop stop-color="#F8E1B7"/>
<stop offset="1" stop-color="#91DDCF"/>
</linearGradient>
<linearGradient id="paint13_linear_92_464" x1="0" y1="49.5" x2="165" y2="50.2857" gradientUnits="userSpaceOnUse">
<stop stop-color="#F8E1B7"/>
<stop offset="1" stop-color="#91DDCF"/>
</linearGradient>
<linearGradient id="paint14_linear_92_464" x1="0" y1="49.5" x2="165" y2="50.2857" gradientUnits="userSpaceOnUse">
<stop stop-color="#F8E1B7"/>
<stop offset="1" stop-color="#91DDCF"/>
</linearGradient>
<linearGradient id="paint15_linear_92_464" x1="0" y1="49.5" x2="165" y2="50.2857" gradientUnits="userSpaceOnUse">
<stop stop-color="#F8E1B7"/>
<stop offset="1" stop-color="#91DDCF"/>
</linearGradient>
<linearGradient id="paint16_linear_92_464" x1="0" y1="49.5" x2="165" y2="50.2857" gradientUnits="userSpaceOnUse">
<stop stop-color="#F8E1B7"/>
<stop offset="1" stop-color="#91DDCF"/>
</linearGradient>
<linearGradient id="paint17_linear_92_464" x1="0" y1="49.5" x2="165" y2="50.2857" gradientUnits="userSpaceOnUse">
<stop stop-color="#F8E1B7"/>
<stop offset="1" stop-color="#91DDCF"/>
</linearGradient>
<linearGradient id="paint18_linear_92_464" x1="0" y1="49.5" x2="165" y2="50.2857" gradientUnits="userSpaceOnUse">
<stop stop-color="#F8E1B7"/>
<stop offset="1" stop-color="#91DDCF"/>
</linearGradient>
<linearGradient id="paint19_linear_92_464" x1="0" y1="49.5" x2="165" y2="50.2857" gradientUnits="userSpaceOnUse">
<stop stop-color="#F8E1B7"/>
<stop offset="1" stop-color="#91DDCF"/>
</linearGradient>
<linearGradient id="paint20_linear_92_464" x1="0" y1="49.5" x2="165" y2="50.2857" gradientUnits="userSpaceOnUse">
<stop stop-color="#F8E1B7"/>
<stop offset="1" stop-color="#91DDCF"/>
</linearGradient>
<linearGradient id="paint21_linear_92_464" x1="0" y1="49.5" x2="165" y2="50.2857" gradientUnits="userSpaceOnUse">
<stop stop-color="#F8E1B7"/>
<stop offset="1" stop-color="#91DDCF"/>
</linearGradient>
<linearGradient id="paint22_linear_92_464" x1="0" y1="49.5" x2="165" y2="50.2857" gradientUnits="userSpaceOnUse">
<stop stop-color="#F8E1B7"/>
<stop offset="1" stop-color="#91DDCF"/>
</linearGradient>
<linearGradient id="paint23_linear_92_464" x1="0" y1="49.5" x2="165" y2="50.2857" gradientUnits="userSpaceOnUse">
<stop stop-color="#F8E1B7"/>
<stop offset="1" stop-color="#91DDCF"/>
</linearGradient>
<linearGradient id="paint24_linear_92_464" x1="0" y1="49.5" x2="165" y2="50.2857" gradientUnits="userSpaceOnUse">
<stop stop-color="#F8E1B7"/>
<stop offset="1" stop-color="#91DDCF"/>
</linearGradient>
<linearGradient id="paint25_linear_92_464" x1="0" y1="49.5" x2="165" y2="50.2857" gradientUnits="userSpaceOnUse">
<stop stop-color="#F8E1B7"/>
<stop offset="1" stop-color="#91DDCF"/>
</linearGradient>
<linearGradient id="paint26_linear_92_464" x1="0" y1="49.5" x2="165" y2="50.2857" gradientUnits="userSpaceOnUse">
<stop stop-color="#F8E1B7"/>
<stop offset="1" stop-color="#91DDCF"/>
</linearGradient>
<linearGradient id="paint27_linear_92_464" x1="0" y1="49.5" x2="165" y2="50.2857" gradientUnits="userSpaceOnUse">
<stop stop-color="#F8E1B7"/>
<stop offset="1" stop-color="#91DDCF"/>
</linearGradient>
<linearGradient id="paint28_linear_92_464" x1="0" y1="49.5" x2="165" y2="50.2857" gradientUnits="userSpaceOnUse">
<stop stop-color="#F8E1B7"/>
<stop offset="1" stop-color="#91DDCF"/>
</linearGradient>
<linearGradient id="paint29_linear_92_464" x1="0" y1="49.5" x2="165" y2="50.2857" gradientUnits="userSpaceOnUse">
<stop stop-color="#F8E1B7"/>
<stop offset="1" stop-color="#91DDCF"/>
</linearGradient>
<linearGradient id="paint30_linear_92_464" x1="0" y1="49.5" x2="165" y2="50.2857" gradientUnits="userSpaceOnUse">
<stop stop-color="#F8E1B7"/>
<stop offset="1" stop-color="#91DDCF"/>
</linearGradient>
<linearGradient id="paint31_linear_92_464" x1="0" y1="49.5" x2="165" y2="50.2857" gradientUnits="userSpaceOnUse">
<stop stop-color="#F8E1B7"/>
<stop offset="1" stop-color="#91DDCF"/>
</linearGradient>
<linearGradient id="paint32_linear_92_464" x1="0" y1="49.5" x2="165" y2="50.2857" gradientUnits="userSpaceOnUse">
<stop stop-color="#F8E1B7"/>
<stop offset="1" stop-color="#91DDCF"/>
</linearGradient>
</defs>
</svg>
