<svg width="341" height="133" viewBox="0 0 341 133" fill="none" xmlns="http://www.w3.org/2000/svg">
<path d="M179.679 101.234C178.585 101.234 177.256 101.234 175.927 101.234C175.848 101.181 175.77 101.103 175.718 101.051C177.073 100.843 176.891 99.9317 176.891 99.0985C176.891 92.7194 176.891 86.3402 176.891 79.9351C176.891 75.8993 176.891 71.8635 176.891 67.8277C176.891 67.0726 176.891 66.4738 175.718 66.7862C175.744 66.7081 175.77 66.604 175.77 66.5258C176.761 66.0311 177.751 65.5364 178.871 64.9636C178.871 66.5519 178.871 67.9579 178.871 69.39C178.95 69.416 179.002 69.442 179.08 69.4941C179.236 69.2858 179.393 69.0775 179.549 68.8432C181.451 66.3696 183.797 64.7293 187.106 65.1198C189.295 65.3802 190.963 66.5779 192.344 68.2183C196.618 73.3997 196.696 82.3305 192.553 87.59C188.852 92.3028 183.119 92.1726 179.601 87.3297C179.445 87.0953 179.262 86.861 178.976 86.4965C178.95 86.8349 178.924 86.9651 178.924 87.0953C178.924 91.2613 178.898 95.4012 178.95 99.5672C179.002 100.14 179.419 100.635 179.679 101.234ZM192.97 77.3574C192.866 76.4981 192.761 74.8057 192.423 73.1654C191.953 70.822 191.146 68.5828 189.347 66.8383C188.331 65.8489 187.132 65.3542 185.673 65.4844C183.302 65.7187 181.53 66.9164 180.174 68.739C177.516 72.2801 176.735 76.3159 177.386 80.6381C177.881 83.9708 179.158 86.9651 181.868 89.1523C185.204 91.8601 188.67 91.2092 190.833 87.5119C190.989 87.2515 191.12 86.9912 191.25 86.7048C192.527 83.9969 192.892 81.1067 192.97 77.3574Z" fill="url(#paint0_linear_114_5252)"/>
<path d="M171.731 90.35C171.027 91.105 170.324 91.1571 169.568 90.9488C168.734 90.7145 168.265 90.1156 168.109 89.2824C168.057 88.97 168.057 88.6315 168.057 88.293C168.057 83.4761 168.083 78.6592 168.031 73.8423C168.031 72.7227 167.9 71.551 167.535 70.4575C165.685 64.7032 160.265 64.1304 156.356 67.4111C156.069 67.6715 155.809 67.9579 155.522 68.2443C154.74 69.0775 154.349 69.8847 154.87 71.1345C155.261 72.0718 155.261 73.1914 155.261 74.2329C155.287 79.1539 155.287 84.049 155.261 88.97C155.261 89.7511 155.339 90.402 156.199 90.7666C154.896 90.7666 153.567 90.7666 152.264 90.7666C153.437 90.3239 153.176 89.3085 153.176 88.4232C153.176 83.5803 153.255 78.7113 153.15 73.8684C153.124 72.3582 152.812 70.796 152.238 69.416C150.727 65.7968 147.261 64.521 143.639 66.0572C143.352 66.1874 143.065 66.2915 142.674 66.4477C144.499 63.5055 151.222 65.224 154.245 69.3379C154.401 69.1035 154.558 68.9213 154.714 68.713C156.695 65.8489 160.343 64.4689 163.705 65.3021C167.197 66.1613 169.672 68.9473 170.115 72.5144C170.194 73.0872 170.22 73.6601 170.22 74.2329C170.22 79.1539 170.22 84.049 170.22 88.97C170.194 90.2719 170.272 90.35 171.731 90.35Z" fill="url(#paint1_linear_114_5252)"/>
<path d="M243.213 90.7405C243.943 90.376 244.099 89.8032 244.099 89.0481C244.073 77.097 244.099 65.1198 244.073 53.1687C244.073 52.9083 244.047 52.648 244.021 52.2834C240.711 52.2834 237.402 52.1272 234.275 53.2989C233.701 53.5072 233.206 54.0019 232.555 54.4445C232.555 53.7155 232.529 52.9344 232.581 52.1793C232.581 52.0752 232.841 51.945 232.972 51.9189C233.206 51.8669 233.441 51.8929 233.701 51.8929C241.337 51.8929 248.972 51.9189 256.582 51.8669C257.494 51.8669 257.859 52.0752 257.728 53.0125C257.676 53.5072 257.728 54.0019 257.624 54.5227C256.842 53.3249 255.592 53.1166 254.419 52.8302C251.761 52.2053 249.051 52.2834 246.262 52.3095C246.236 52.6219 246.21 52.8823 246.21 53.1427C246.21 65.1459 246.21 77.123 246.21 89.1262C246.21 89.8292 246.236 90.4802 247.096 90.7926C245.793 90.7405 244.516 90.7405 243.213 90.7405Z" fill="url(#paint2_linear_114_5252)"/>
<path d="M336.976 53.3249C336.585 53.2989 336.325 53.2989 336.064 53.2729C336.038 53.1948 335.986 53.1427 335.96 53.0646C336.924 52.5699 337.914 52.0751 339.087 51.4763C339.087 51.971 339.087 52.3095 339.087 52.648C339.087 64.7293 339.087 76.8106 339.087 88.8659C339.087 89.6209 339.035 90.376 339.999 90.6885C338.696 90.6885 337.393 90.6885 336.09 90.6885C337.211 90.2979 336.976 89.3606 336.976 88.5274C336.976 77.2011 336.976 65.8749 336.976 54.5487C336.976 54.1842 336.976 53.7936 336.976 53.3249Z" fill="url(#paint3_linear_114_5252)"/>
<path d="M204.071 90.7666C202.768 90.7666 201.465 90.7666 200.162 90.7666C201.205 90.4021 201.074 89.5428 201.074 88.7357C201.074 77.3574 201.074 65.9791 201.074 54.5747C201.074 54.1842 201.074 53.7936 201.074 53.351C200.71 53.3249 200.423 53.2989 200.162 53.2729C200.136 53.2208 200.11 53.1427 200.084 53.0906C201.074 52.5959 202.039 52.1012 203.211 51.5023C203.211 52.0231 203.211 52.3616 203.211 52.7C203.211 64.7553 203.211 76.7846 203.211 88.8398C203.159 89.647 203.185 90.35 204.071 90.7666Z" fill="url(#paint4_linear_114_5252)"/>
<path d="M105.07 81.3671C105.096 81.4973 105.122 81.6014 105.122 81.6796C104.914 86.158 107.025 89.1262 111.324 90.4021C116.172 91.8341 121.123 89.1523 122.348 84.4395C123.182 81.1588 121.905 77.5917 119.012 75.7431C115.833 73.6861 112.549 71.7594 109.318 69.7805C104.809 66.9945 103.194 61.6829 105.435 57.0483C107.025 53.8197 109.657 52.0491 113.227 51.6325C113.435 51.6065 113.644 51.6065 113.852 51.6325C113.93 51.6325 114.009 51.6846 114.321 51.8148C113.904 51.8929 113.696 51.971 113.513 51.997C109.891 52.3095 106.946 54.757 106.034 58.22C105.122 61.6829 106.451 65.3802 109.448 67.333C112.523 69.3118 115.702 71.1865 118.856 73.0612C121.357 74.5453 123.103 76.6023 123.703 79.4924C124.954 85.5591 120.263 91.1832 114.035 91.1051C108.614 91.053 104.549 87.4078 104.054 82.2003C104.002 81.4192 104.21 81.1067 105.07 81.3671Z" fill="url(#paint5_linear_114_5252)"/>
<path d="M229.506 83.8927C229.349 84.2312 229.219 84.5697 229.037 84.9082C227.03 88.6576 224.033 91.0009 219.655 91.079C215.433 91.1311 212.463 88.944 210.378 85.481C207.068 79.9871 208.032 72.3061 212.463 68.036C217.31 63.4014 224.45 64.2866 228.255 70.0409C229.87 72.4884 230.626 75.1963 230.626 78.2166C226.144 78.2166 221.688 78.2166 217.258 78.2166C217.258 78.1385 217.258 78.0604 217.258 77.9562C220.958 77.9562 224.685 77.9562 228.489 77.9562C228.463 74.6235 227.655 71.7073 225.831 69.1035C224.945 67.8277 223.825 66.7862 222.391 66.1093C219.264 64.6251 215.746 65.6406 213.427 68.8171C210.43 72.8789 209.935 77.4355 211.029 82.2263C211.524 84.4395 212.489 86.4184 214.052 88.1108C216.554 90.8186 219.811 91.4956 223.199 90.0115C225.623 88.97 227.343 87.1474 228.594 84.8821C228.802 84.5176 229.01 84.1271 229.219 83.7626C229.323 83.7886 229.401 83.8407 229.506 83.8927Z" fill="url(#paint6_linear_114_5252)"/>
<path d="M331.842 78.2426C327.334 78.2426 322.904 78.2426 318.5 78.2426C318.5 78.1645 318.5 78.0604 318.5 77.9823C322.2 77.9823 325.901 77.9823 329.575 77.9823C330.201 73.8423 327.438 68.1922 323.972 66.2915C320.819 64.547 317.093 65.4583 314.669 68.739C311.646 72.8008 311.125 77.4094 312.219 82.2263C312.715 84.4395 313.705 86.4184 315.242 88.1108C317.718 90.7926 320.949 91.4696 324.311 90.0375C326.761 88.996 328.507 87.1734 329.784 84.8561C329.992 84.4916 330.201 84.101 330.592 83.8146C330.592 83.9188 330.644 84.0229 330.618 84.1271C328.846 88.267 324.885 91.5737 319.751 91.053C316.571 90.7405 314.174 89.1002 312.324 86.6006C308.571 81.5754 308.78 73.7903 312.767 69.0254C317.484 63.3753 325.38 63.844 329.497 70.0669C331.087 72.4884 331.842 75.2223 331.842 78.2426Z" fill="url(#paint7_linear_114_5252)"/>
<path d="M286.29 80.2475C286.316 80.7422 286.342 81.0547 286.342 81.3671C286.342 83.8407 286.342 86.3142 286.342 88.7877C286.342 90.3239 286.394 90.35 287.958 90.3239C287.28 91.053 286.551 91.1832 285.717 90.9488C284.179 90.4802 284.179 89.2043 284.231 87.6681C283.84 88.1368 283.58 88.4232 283.319 88.7096C281.104 91.1832 278.316 91.5737 275.293 90.7666C272.4 89.9855 270.393 88.1628 269.872 85.1165C269.455 82.695 270.446 80.6901 272.166 79.0498C273.859 77.4615 275.892 76.6283 278.211 76.6023C279.567 76.6023 280.922 76.6804 282.277 76.7325C282.902 76.7585 283.528 76.7325 284.179 76.7325C284.205 74.285 284.388 71.9937 283.476 69.8065C282.042 66.3176 279.202 64.8334 275.658 65.7708C274.224 66.1353 273.208 66.9945 272.556 68.4787C272.27 68.2183 272.009 67.9839 271.775 67.7496C274.537 64.4429 280.114 64.2085 283.449 67.2289C285.352 68.9473 286.238 71.1084 286.29 73.634C286.29 73.9986 286.29 74.3631 286.29 74.7276C286.29 76.5502 285.977 76.9668 284.127 77.097C283.085 77.1751 282.016 77.097 280.974 77.071C280.218 77.0449 279.462 77.0189 278.707 76.9928C274.355 76.7845 272.27 80.2475 272.296 83.5542C272.322 85.6633 273.025 87.59 274.563 89.1002C276.648 91.1571 279.593 91.3134 281.938 89.4387C284.414 87.4598 285.456 84.7259 285.795 81.6535C285.847 81.289 285.873 80.9505 285.925 80.586C286.003 80.4818 286.081 80.4298 286.29 80.2475Z" fill="url(#paint8_linear_114_5252)"/>
<path d="M259.527 90.7666C258.198 90.7666 256.895 90.7666 255.565 90.7666C256.712 90.4021 256.53 89.4907 256.53 88.6576C256.53 81.7056 256.53 74.7276 256.53 67.7756C256.53 66.7081 256.53 66.7081 255.461 66.5258C256.452 66.0311 257.442 65.5104 258.614 64.9115C258.614 66.1613 258.614 67.2028 258.614 68.2964C259.527 67.6715 260.308 67.0726 261.142 66.5779C262.914 65.5885 264.843 65.1459 266.849 65.0417C268.23 64.9636 268.309 65.0417 267.996 66.5519C267.345 66.3176 266.745 66.0051 266.068 65.901C263.123 65.5104 260.83 66.8383 258.823 68.8171C258.641 68.9994 258.614 69.3639 258.614 69.6503C258.614 76.1336 258.614 82.5909 258.588 89.0742C258.588 89.8553 258.745 90.4541 259.527 90.7666Z" fill="url(#paint9_linear_114_5252)"/>
<path d="M298.46 91.0269C298.356 90.7405 298.225 90.4281 298.147 90.1417C295.698 82.6169 293.248 75.1182 290.824 67.5934C290.538 66.656 290.329 65.6927 289.052 65.5364C289.104 65.4583 289.157 65.3802 289.183 65.3281C290.538 65.3281 291.893 65.3281 293.561 65.3281C292.362 65.8228 292.649 66.4738 292.883 67.1768C295.02 73.7121 297.105 80.2735 299.32 86.7829C299.893 88.4492 299.059 89.6209 298.46 91.0269Z" fill="url(#paint10_linear_114_5252)"/>
<path d="M128.394 66.4998C129.384 66.0051 130.374 65.5104 131.547 64.9376C131.547 65.4844 131.547 65.8489 131.547 66.1874C131.547 73.7382 131.547 81.315 131.547 88.8659C131.547 89.647 131.547 90.402 132.511 90.7405C131.182 90.7405 129.853 90.7405 128.524 90.7405C129.671 90.402 129.488 89.4647 129.488 88.6315C129.488 81.6796 129.488 74.7276 129.488 67.7756C129.462 66.7081 129.462 66.7081 128.394 66.4998Z" fill="url(#paint11_linear_114_5252)"/>
<path d="M141.345 90.7926C140.016 90.7926 138.713 90.7926 137.384 90.7926C138.557 90.4021 138.322 89.4387 138.322 88.6055C138.322 81.6796 138.322 74.7536 138.322 67.8277C138.322 67.1507 138.374 66.4738 137.228 66.8123C137.228 66.7081 137.228 66.63 137.254 66.5258C138.244 66.0311 139.234 65.5104 140.407 64.9115C140.407 65.4844 140.407 65.8228 140.407 66.1613C140.407 73.7382 140.407 81.3411 140.407 88.9179C140.407 89.673 140.407 90.402 141.476 90.5583C141.45 90.6364 141.397 90.7145 141.345 90.7926Z" fill="url(#paint12_linear_114_5252)"/>
<path d="M308.076 65.3281C307.086 65.6926 306.773 66.4998 306.486 67.359C304.766 72.6446 303.02 77.9302 301.3 83.2158C301.196 83.5022 301.092 83.7886 300.988 84.101C300.91 84.075 300.805 84.049 300.727 84.0229C300.805 83.6844 300.857 83.3199 300.962 83.0075C302.708 77.6698 304.454 72.3322 306.2 66.9685C306.382 66.3696 306.669 65.7708 305.835 65.3281C306.564 65.3281 307.32 65.3281 308.076 65.3281Z" fill="url(#paint13_linear_114_5252)"/>
<path d="M130.504 57.5951C129.566 57.5951 128.837 56.866 128.837 55.9547C128.837 55.0694 129.566 54.3404 130.452 54.3144C131.364 54.2883 132.146 55.0434 132.172 55.9287C132.198 56.84 131.443 57.5951 130.504 57.5951Z" fill="url(#paint14_linear_114_5252)"/>
<path d="M123.442 61.4486C123.13 61.4486 122.843 61.4486 122.452 61.4486C123.025 58.4543 122.113 56.0328 119.716 53.9498C121.774 54.4706 123.885 58.8969 123.442 61.4486Z" fill="url(#paint15_linear_114_5252)"/>
<path d="M0.23146 94.8284C6.53793 94.8284 12.4796 94.8284 18.5254 94.8284C19.4897 101.442 21.366 107.639 24.884 113.263C30.6433 122.48 38.9824 127.349 49.8493 127.818C57.563 128.13 65.2246 127.661 72.6256 125.318C85.8119 121.152 89.8511 111.336 87.0627 98.8642C85.447 91.6779 80.4957 87.0693 74.4237 83.5022C66.0585 78.5811 56.7812 76.1076 47.5561 73.4518C37.8358 70.6658 27.9591 68.2703 18.8121 63.7659C12.7402 60.7716 7.03307 57.1524 3.77559 51.0076C-2.50482 39.1086 -0.576395 27.6261 6.79853 16.9769C12.3232 9.0355 20.6363 4.92161 29.8093 2.78655C46.4616 -1.06697 63.1138 -1.43149 79.2187 4.94765C93.2389 10.4936 101.552 20.9866 103.741 36.0622C103.793 36.4267 103.741 36.7913 103.741 37.286C97.6951 37.286 91.7274 37.286 85.9943 37.286C84.7695 33.4064 83.8834 29.4748 82.3198 25.8556C76.8994 13.1494 67.0749 6.61403 53.2632 6.22347C45.8622 6.01518 38.5133 6.588 31.425 8.93135C23.8416 11.4309 17.8739 15.701 16.6752 24.2673C15.5025 32.7555 17.9782 40.0459 24.8319 45.5398C31.0081 50.4869 38.2788 53.1687 45.7058 55.46C56.3382 58.7407 67.0488 61.709 77.603 65.1979C82.0592 66.6821 86.4373 68.7911 90.4245 71.3167C102.881 79.18 106.868 91.5477 101.995 105.478C98.4248 115.684 91.4147 122.845 81.512 126.62C62.7489 133.832 43.621 134.197 24.8059 127.037C11.2548 121.881 3.1241 111.648 0.518118 97.2499C0.387819 96.5469 0.335699 95.7918 0.23146 94.8284Z" fill="url(#paint16_linear_114_5252)"/>
<path d="M210.899 38.5358C209.909 24.2673 203.081 13.566 190.338 6.90044C182.025 2.55222 173.086 0.339046 163.757 0.234896C148.772 0.0786727 133.788 0.182822 118.804 0.208859C118.204 0.208859 117.631 0.286971 116.953 0.339046V45.0711H135.299V4.24464H137.801C144.863 4.24464 151.952 4.47898 158.988 4.19256C166.78 3.85408 173.19 6.90044 179.08 11.457C186.742 17.4195 190.859 25.4911 192.084 34.9947C192.527 38.3795 192.735 41.7383 192.683 45.0711H210.977C211.081 42.9361 211.055 40.7489 210.899 38.5358ZM116.953 97.6665V131.775H135.299V97.6665H116.953Z" fill="url(#paint17_linear_114_5252)"/>
<path d="M171.731 90.35C171.027 91.105 170.324 91.1571 169.568 90.9488C168.734 90.7145 168.265 90.1156 168.109 89.2824C168.057 88.97 168.057 88.6315 168.057 88.293C168.057 83.4761 168.083 78.6592 168.031 73.8423C168.031 72.7227 167.9 71.551 167.535 70.4575C165.685 64.7032 160.265 64.1304 156.356 67.4111C156.069 67.6715 155.809 67.9579 155.522 68.2443C154.74 69.0775 154.349 69.8847 154.87 71.1345C155.261 72.0718 155.261 73.1914 155.261 74.2329C155.287 79.1539 155.287 84.049 155.261 88.97C155.261 89.7511 155.339 90.402 156.199 90.7666C154.896 90.7666 153.567 90.7666 152.264 90.7666C153.437 90.3239 153.176 89.3085 153.176 88.4232C153.176 83.5803 153.255 78.7113 153.15 73.8684C153.124 72.3582 152.812 70.796 152.238 69.416C150.727 65.7968 147.261 64.521 143.639 66.0572C143.352 66.1874 143.065 66.2915 142.674 66.4477C144.499 63.5055 151.222 65.224 154.245 69.3379C154.401 69.1035 154.558 68.9213 154.714 68.713C156.695 65.8489 160.343 64.4689 163.705 65.3021C167.197 66.1613 169.672 68.9473 170.115 72.5144C170.194 73.0872 170.22 73.6601 170.22 74.2329C170.22 79.1539 170.22 84.049 170.22 88.97C170.194 90.2719 170.272 90.35 171.731 90.35Z" fill="url(#paint18_linear_114_5252)"/>
<path d="M243.213 90.7405C243.943 90.376 244.099 89.8032 244.099 89.0481C244.073 77.097 244.099 65.1198 244.073 53.1687C244.073 52.9083 244.047 52.648 244.021 52.2834C240.711 52.2834 237.402 52.1272 234.275 53.2989C233.701 53.5072 233.206 54.0019 232.555 54.4445C232.555 53.7155 232.529 52.9344 232.581 52.1793C232.581 52.0752 232.841 51.945 232.972 51.9189C233.206 51.8669 233.441 51.8929 233.701 51.8929C241.337 51.8929 248.972 51.9189 256.582 51.8669C257.494 51.8669 257.859 52.0752 257.728 53.0125C257.676 53.5072 257.728 54.0019 257.624 54.5227C256.842 53.3249 255.592 53.1166 254.419 52.8302C251.761 52.2053 249.051 52.2834 246.262 52.3095C246.236 52.6219 246.21 52.8823 246.21 53.1427C246.21 65.1459 246.21 77.123 246.21 89.1262C246.21 89.8292 246.236 90.4802 247.096 90.7926C245.793 90.7405 244.516 90.7405 243.213 90.7405Z" fill="url(#paint19_linear_114_5252)"/>
<path d="M336.976 53.3249C336.585 53.2989 336.325 53.2989 336.064 53.2729C336.038 53.1948 335.986 53.1427 335.96 53.0646C336.924 52.5699 337.914 52.0751 339.087 51.4763C339.087 51.971 339.087 52.3095 339.087 52.648C339.087 64.7293 339.087 76.8106 339.087 88.8659C339.087 89.6209 339.035 90.376 339.999 90.6885C338.696 90.6885 337.393 90.6885 336.09 90.6885C337.211 90.2979 336.976 89.3606 336.976 88.5274C336.976 77.2011 336.976 65.8749 336.976 54.5487C336.976 54.1842 336.976 53.7936 336.976 53.3249Z" fill="url(#paint20_linear_114_5252)"/>
<path d="M204.071 90.7666C202.768 90.7666 201.465 90.7666 200.162 90.7666C201.205 90.4021 201.074 89.5428 201.074 88.7357C201.074 77.3574 201.074 65.9791 201.074 54.5747C201.074 54.1842 201.074 53.7936 201.074 53.351C200.71 53.3249 200.423 53.2989 200.162 53.2729C200.136 53.2208 200.11 53.1427 200.084 53.0906C201.074 52.5959 202.039 52.1012 203.211 51.5023C203.211 52.0231 203.211 52.3616 203.211 52.7C203.211 64.7553 203.211 76.7846 203.211 88.8398C203.159 89.647 203.185 90.35 204.071 90.7666Z" fill="url(#paint21_linear_114_5252)"/>
<path d="M105.07 81.3671C105.096 81.4973 105.122 81.6014 105.122 81.6796C104.914 86.158 107.025 89.1262 111.324 90.4021C116.172 91.8341 121.123 89.1523 122.348 84.4395C123.182 81.1588 121.905 77.5917 119.012 75.7431C115.833 73.6861 112.549 71.7594 109.318 69.7805C104.809 66.9945 103.194 61.6829 105.435 57.0483C107.025 53.8197 109.657 52.0491 113.227 51.6325C113.435 51.6065 113.644 51.6065 113.852 51.6325C113.93 51.6325 114.009 51.6846 114.321 51.8148C113.904 51.8929 113.696 51.971 113.513 51.997C109.891 52.3095 106.946 54.757 106.034 58.22C105.122 61.6829 106.451 65.3802 109.448 67.333C112.523 69.3118 115.702 71.1865 118.856 73.0612C121.357 74.5453 123.103 76.6023 123.703 79.4924C124.954 85.5591 120.263 91.1832 114.035 91.1051C108.614 91.053 104.549 87.4078 104.054 82.2003C104.002 81.4192 104.21 81.1067 105.07 81.3671Z" fill="url(#paint22_linear_114_5252)"/>
<path d="M229.506 83.8927C229.349 84.2312 229.219 84.5697 229.037 84.9082C227.03 88.6576 224.033 91.0009 219.655 91.079C215.433 91.1311 212.463 88.944 210.378 85.481C207.068 79.9871 208.032 72.3061 212.463 68.036C217.31 63.4014 224.45 64.2866 228.255 70.0409C229.87 72.4884 230.626 75.1963 230.626 78.2166C226.144 78.2166 221.688 78.2166 217.258 78.2166C217.258 78.1385 217.258 78.0604 217.258 77.9562C220.958 77.9562 224.685 77.9562 228.489 77.9562C228.463 74.6235 227.655 71.7073 225.831 69.1035C224.945 67.8277 223.825 66.7862 222.391 66.1093C219.264 64.6251 215.746 65.6406 213.427 68.8171C210.43 72.8789 209.935 77.4355 211.029 82.2263C211.524 84.4395 212.489 86.4184 214.052 88.1108C216.554 90.8186 219.811 91.4956 223.199 90.0115C225.623 88.97 227.343 87.1474 228.594 84.8821C228.802 84.5176 229.01 84.1271 229.219 83.7626C229.323 83.7886 229.401 83.8407 229.506 83.8927Z" fill="url(#paint23_linear_114_5252)"/>
<path d="M331.842 78.2426C327.334 78.2426 322.904 78.2426 318.5 78.2426C318.5 78.1645 318.5 78.0604 318.5 77.9823C322.2 77.9823 325.901 77.9823 329.575 77.9823C330.201 73.8423 327.438 68.1922 323.972 66.2915C320.819 64.547 317.093 65.4583 314.669 68.739C311.646 72.8008 311.125 77.4094 312.219 82.2263C312.715 84.4395 313.705 86.4184 315.242 88.1108C317.718 90.7926 320.949 91.4696 324.311 90.0375C326.761 88.996 328.507 87.1734 329.784 84.8561C329.992 84.4916 330.201 84.101 330.592 83.8146C330.592 83.9188 330.644 84.0229 330.618 84.1271C328.846 88.267 324.885 91.5737 319.751 91.053C316.571 90.7405 314.174 89.1002 312.324 86.6006C308.571 81.5754 308.78 73.7903 312.767 69.0254C317.484 63.3753 325.38 63.844 329.497 70.0669C331.087 72.4884 331.842 75.2223 331.842 78.2426Z" fill="url(#paint24_linear_114_5252)"/>
<path d="M286.29 80.2475C286.316 80.7422 286.342 81.0547 286.342 81.3671C286.342 83.8407 286.342 86.3142 286.342 88.7877C286.342 90.3239 286.394 90.35 287.958 90.3239C287.28 91.053 286.551 91.1832 285.717 90.9488C284.179 90.4802 284.179 89.2043 284.231 87.6681C283.84 88.1368 283.58 88.4232 283.319 88.7096C281.104 91.1832 278.316 91.5737 275.293 90.7666C272.4 89.9855 270.393 88.1628 269.872 85.1165C269.455 82.695 270.446 80.6901 272.166 79.0498C273.859 77.4615 275.892 76.6283 278.211 76.6023C279.567 76.6023 280.922 76.6804 282.277 76.7325C282.902 76.7585 283.528 76.7325 284.179 76.7325C284.205 74.285 284.388 71.9937 283.476 69.8065C282.042 66.3176 279.202 64.8334 275.658 65.7708C274.224 66.1353 273.208 66.9945 272.556 68.4787C272.27 68.2183 272.009 67.9839 271.775 67.7496C274.537 64.4429 280.114 64.2085 283.449 67.2289C285.352 68.9473 286.238 71.1084 286.29 73.634C286.29 73.9986 286.29 74.3631 286.29 74.7276C286.29 76.5502 285.977 76.9668 284.127 77.097C283.085 77.1751 282.016 77.097 280.974 77.071C280.218 77.0449 279.462 77.0189 278.707 76.9928C274.355 76.7845 272.27 80.2475 272.296 83.5542C272.322 85.6633 273.025 87.59 274.563 89.1002C276.648 91.1571 279.593 91.3134 281.938 89.4387C284.414 87.4598 285.456 84.7259 285.795 81.6535C285.847 81.289 285.873 80.9505 285.925 80.586C286.003 80.4818 286.081 80.4298 286.29 80.2475Z" fill="url(#paint25_linear_114_5252)"/>
<path d="M259.527 90.7666C258.198 90.7666 256.895 90.7666 255.565 90.7666C256.712 90.4021 256.53 89.4907 256.53 88.6576C256.53 81.7056 256.53 74.7276 256.53 67.7756C256.53 66.7081 256.53 66.7081 255.461 66.5258C256.452 66.0311 257.442 65.5104 258.614 64.9115C258.614 66.1613 258.614 67.2028 258.614 68.2964C259.527 67.6715 260.308 67.0726 261.142 66.5779C262.914 65.5885 264.843 65.1459 266.849 65.0417C268.23 64.9636 268.309 65.0417 267.996 66.5519C267.345 66.3176 266.745 66.0051 266.068 65.901C263.123 65.5104 260.83 66.8383 258.823 68.8171C258.641 68.9994 258.614 69.3639 258.614 69.6503C258.614 76.1336 258.614 82.5909 258.588 89.0742C258.588 89.8553 258.745 90.4541 259.527 90.7666Z" fill="url(#paint26_linear_114_5252)"/>
<path d="M298.46 91.0269C298.356 90.7405 298.225 90.4281 298.147 90.1417C295.698 82.6169 293.248 75.1182 290.824 67.5934C290.538 66.656 290.329 65.6927 289.052 65.5364C289.104 65.4583 289.157 65.3802 289.183 65.3281C290.538 65.3281 291.893 65.3281 293.561 65.3281C292.362 65.8228 292.649 66.4738 292.883 67.1768C295.02 73.7121 297.105 80.2735 299.32 86.7829C299.893 88.4492 299.059 89.6209 298.46 91.0269Z" fill="url(#paint27_linear_114_5252)"/>
<path d="M128.394 66.4998C129.384 66.0051 130.374 65.5104 131.547 64.9376C131.547 65.4844 131.547 65.8489 131.547 66.1874C131.547 73.7382 131.547 81.315 131.547 88.8659C131.547 89.647 131.547 90.402 132.511 90.7405C131.182 90.7405 129.853 90.7405 128.524 90.7405C129.671 90.402 129.488 89.4647 129.488 88.6315C129.488 81.6796 129.488 74.7276 129.488 67.7756C129.462 66.7081 129.462 66.7081 128.394 66.4998Z" fill="url(#paint28_linear_114_5252)"/>
<path d="M141.345 90.7926C140.016 90.7926 138.713 90.7926 137.384 90.7926C138.557 90.4021 138.322 89.4387 138.322 88.6055C138.322 81.6796 138.322 74.7536 138.322 67.8277C138.322 67.1507 138.374 66.4738 137.228 66.8123C137.228 66.7081 137.228 66.63 137.254 66.5258C138.244 66.0311 139.234 65.5104 140.407 64.9115C140.407 65.4844 140.407 65.8228 140.407 66.1613C140.407 73.7382 140.407 81.3411 140.407 88.9179C140.407 89.673 140.407 90.402 141.476 90.5583C141.45 90.6364 141.397 90.7145 141.345 90.7926Z" fill="url(#paint29_linear_114_5252)"/>
<path d="M308.076 65.3281C307.086 65.6926 306.773 66.4998 306.486 67.359C304.766 72.6446 303.02 77.9302 301.3 83.2158C301.196 83.5022 301.092 83.7886 300.988 84.101C300.91 84.075 300.805 84.049 300.727 84.0229C300.805 83.6844 300.857 83.3199 300.962 83.0075C302.708 77.6698 304.454 72.3322 306.2 66.9685C306.382 66.3696 306.669 65.7708 305.835 65.3281C306.564 65.3281 307.32 65.3281 308.076 65.3281Z" fill="url(#paint30_linear_114_5252)"/>
<path d="M130.504 57.5951C129.566 57.5951 128.837 56.866 128.837 55.9547C128.837 55.0694 129.566 54.3404 130.452 54.3144C131.364 54.2883 132.146 55.0434 132.172 55.9287C132.198 56.84 131.443 57.5951 130.504 57.5951Z" fill="url(#paint31_linear_114_5252)"/>
<path d="M123.442 61.4486C123.13 61.4486 122.843 61.4486 122.452 61.4486C123.025 58.4543 122.113 56.0328 119.716 53.9498C121.774 54.4706 123.885 58.8969 123.442 61.4486Z" fill="url(#paint32_linear_114_5252)"/>
<path d="M179.68 101.233C178.585 101.233 177.256 101.233 175.927 101.233C175.849 101.181 175.771 101.103 175.719 101.051C177.074 100.842 176.892 99.9311 176.892 99.0979C176.892 92.7188 176.892 86.3396 176.892 79.9345C176.892 75.8987 176.892 71.8629 176.892 67.8271C176.892 67.072 176.892 66.4732 175.719 66.7856C175.745 66.7075 175.771 66.6034 175.771 66.5253C176.761 66.0306 177.751 65.5358 178.872 64.963C178.872 66.5513 178.872 67.9573 178.872 69.3894C178.95 69.4154 179.002 69.4414 179.081 69.4935C179.237 69.2852 179.393 69.0769 179.55 68.8426C181.452 66.369 183.797 64.7287 187.107 65.1193C189.296 65.3796 190.964 66.5773 192.345 68.2177C196.619 73.3991 196.697 82.3299 192.553 87.5894C188.853 92.3022 183.12 92.172 179.602 87.3291C179.445 87.0947 179.263 86.8604 178.976 86.4959C178.95 86.8344 178.924 86.9645 178.924 87.0947C178.924 91.2607 178.898 95.4006 178.95 99.5666C179.002 100.139 179.419 100.634 179.68 101.233ZM192.97 77.3568C192.866 76.4976 192.762 74.8051 192.423 73.1648C191.954 70.8214 191.146 68.5822 189.348 66.8377C188.332 65.8483 187.133 65.3536 185.674 65.4838C183.302 65.7181 181.53 66.9158 180.175 68.7384C177.517 72.2795 176.735 76.3153 177.387 80.6375C177.882 83.9703 179.159 86.9645 181.869 89.1517C185.205 91.8596 188.671 91.2086 190.834 87.5113C190.99 87.251 191.12 86.9906 191.25 86.7042C192.527 83.9963 192.892 81.1062 192.97 77.3568Z" fill="#73523F"/>
<path d="M171.732 90.3494C171.028 91.1045 170.324 91.1565 169.569 90.9482C168.735 90.7139 168.266 90.115 168.109 89.2819C168.057 88.9694 168.057 88.6309 168.057 88.2924C168.057 83.4755 168.083 78.6586 168.031 73.8417C168.031 72.7221 167.901 71.5505 167.536 70.4569C165.686 64.7027 160.265 64.1298 156.356 67.4105C156.07 67.6709 155.809 67.9573 155.522 68.2437C154.741 69.0769 154.35 69.8841 154.871 71.1339C155.262 72.0712 155.262 73.1908 155.262 74.2323C155.288 79.1534 155.288 84.0484 155.262 88.9694C155.262 89.7505 155.34 90.4015 156.2 90.766C154.897 90.766 153.568 90.766 152.265 90.766C153.438 90.3233 153.177 89.3079 153.177 88.4226C153.177 83.5797 153.255 78.7107 153.151 73.8678C153.125 72.3576 152.812 70.7954 152.239 69.4154C150.727 65.7962 147.262 64.5204 143.639 66.0566C143.353 66.1868 143.066 66.2909 142.675 66.4472C144.499 63.5049 151.223 65.2234 154.246 69.3373C154.402 69.103 154.558 68.9207 154.715 68.7124C156.695 65.8483 160.344 64.4683 163.705 65.3015C167.197 66.1607 169.673 68.9467 170.116 72.5138C170.194 73.0867 170.22 73.6595 170.22 74.2323C170.22 79.1534 170.22 84.0484 170.22 88.9694C170.194 90.2713 170.272 90.3494 171.732 90.3494Z" fill="#73523F"/>
<path d="M243.214 90.7399C243.943 90.3754 244.1 89.8026 244.1 89.0475C244.074 77.0964 244.1 65.1193 244.074 53.1681C244.074 52.9078 244.048 52.6474 244.022 52.2829C240.712 52.2829 237.402 52.1266 234.275 53.2983C233.702 53.5066 233.207 54.0013 232.555 54.444C232.555 53.7149 232.529 52.9338 232.581 52.1787C232.581 52.0746 232.842 51.9444 232.972 51.9183C233.207 51.8663 233.441 51.8923 233.702 51.8923C241.337 51.8923 248.973 51.9183 256.582 51.8663C257.494 51.8663 257.859 52.0746 257.729 53.0119C257.677 53.5066 257.729 54.0013 257.625 54.5221C256.843 53.3244 255.592 53.1161 254.419 52.8296C251.761 52.2048 249.051 52.2829 246.263 52.3089C246.237 52.6214 246.211 52.8817 246.211 53.1421C246.211 65.1453 246.211 77.1224 246.211 89.1256C246.211 89.8286 246.237 90.4796 247.097 90.792C245.794 90.74 244.517 90.7399 243.214 90.7399Z" fill="#73523F"/>
<path d="M336.977 53.3244C336.586 53.2983 336.325 53.2983 336.065 53.2723C336.039 53.1942 335.987 53.1421 335.961 53.064C336.925 52.5693 337.915 52.0746 339.088 51.4757C339.088 51.9704 339.088 52.3089 339.088 52.6474C339.088 64.7287 339.088 76.81 339.088 88.8653C339.088 89.6203 339.036 90.3754 340 90.6879C338.697 90.6879 337.394 90.6879 336.091 90.6879C337.211 90.2973 336.977 89.36 336.977 88.5268C336.977 77.2006 336.977 65.8743 336.977 54.5481C336.977 54.1836 336.977 53.793 336.977 53.3244Z" fill="#73523F"/>
<path d="M204.072 90.766C202.769 90.766 201.466 90.766 200.163 90.766C201.205 90.4015 201.075 89.5422 201.075 88.7351C201.075 77.3568 201.075 65.9785 201.075 54.5742C201.075 54.1836 201.075 53.793 201.075 53.3504C200.71 53.3244 200.424 53.2983 200.163 53.2723C200.137 53.2202 200.111 53.1421 200.085 53.09C201.075 52.5953 202.039 52.1006 203.212 51.5017C203.212 52.0225 203.212 52.361 203.212 52.6995C203.212 64.7547 203.212 76.784 203.212 88.8392C203.16 89.6464 203.186 90.3494 204.072 90.766Z" fill="#73523F"/>
<path d="M105.071 81.3665C105.097 81.4967 105.123 81.6009 105.123 81.679C104.914 86.1574 107.025 89.1256 111.325 90.4015C116.172 91.8335 121.124 89.1517 122.348 84.4389C123.182 81.1582 121.905 77.5911 119.013 75.7425C115.833 73.6855 112.55 71.7588 109.318 69.7799C104.81 66.9939 103.194 61.6823 105.436 57.0477C107.025 53.8191 109.657 52.0485 113.227 51.6319C113.436 51.6059 113.644 51.6059 113.853 51.6319C113.931 51.6319 114.009 51.684 114.322 51.8142C113.905 51.8923 113.696 51.9704 113.514 51.9965C109.892 52.3089 106.947 54.7564 106.035 58.2194C105.123 61.6823 106.452 65.3796 109.449 67.3324C112.524 69.3113 115.703 71.1859 118.856 73.0606C121.358 74.5448 123.104 76.6017 123.703 79.4918C124.954 85.5585 120.264 91.1826 114.035 91.1045C108.615 91.0524 104.549 87.4072 104.054 82.1997C104.002 81.4186 104.211 81.1061 105.071 81.3665Z" fill="#73523F"/>
<path d="M229.506 83.8921C229.35 84.2306 229.22 84.5691 229.037 84.9076C227.031 88.657 224.034 91.0003 219.656 91.0784C215.434 91.1305 212.463 88.9434 210.378 85.4804C207.069 79.9865 208.033 72.3055 212.463 68.0354C217.31 63.4008 224.451 64.2861 228.255 70.0403C229.871 72.4878 230.627 75.1957 230.627 78.216C226.145 78.216 221.688 78.216 217.258 78.216C217.258 78.1379 217.258 78.0598 217.258 77.9556C220.959 77.9556 224.685 77.9556 228.49 77.9556C228.464 74.6229 227.656 71.7067 225.832 69.103C224.946 67.8271 223.825 66.7856 222.392 66.1087C219.265 64.6245 215.747 65.64 213.427 68.8165C210.43 72.8784 209.935 77.4349 211.03 82.2258C211.525 84.4389 212.489 86.4178 214.053 88.1102C216.555 90.8181 219.812 91.495 223.2 90.0109C225.623 88.9694 227.343 87.1468 228.594 84.8816C228.803 84.517 229.011 84.1265 229.22 83.762C229.324 83.788 229.402 83.8401 229.506 83.8921Z" fill="#73523F"/>
<path d="M331.843 78.242C327.335 78.242 322.905 78.242 318.5 78.242C318.5 78.1639 318.5 78.0598 318.5 77.9817C322.201 77.9817 325.901 77.9817 329.576 77.9817C330.201 73.8417 327.439 68.1917 323.973 66.2909C320.82 64.5464 317.093 65.4577 314.67 68.7384C311.647 72.8003 311.126 77.4089 312.22 82.2258C312.715 84.4389 313.705 86.4178 315.243 88.1102C317.719 90.792 320.95 91.469 324.312 90.0369C326.761 88.9955 328.507 87.1728 329.784 84.8555C329.993 84.491 330.201 84.1004 330.592 83.814C330.592 83.9182 330.644 84.0223 330.618 84.1265C328.846 88.2664 324.885 91.5731 319.751 91.0524C316.572 90.74 314.175 89.0996 312.324 86.6C308.572 81.5748 308.78 73.7897 312.767 69.0248C317.484 63.3748 325.38 63.8434 329.498 70.0663C331.087 72.4878 331.843 75.2217 331.843 78.242Z" fill="#73523F"/>
<path d="M286.291 80.2469C286.317 80.7416 286.343 81.0541 286.343 81.3665C286.343 83.8401 286.343 86.3136 286.343 88.7872C286.343 90.3234 286.395 90.3494 287.958 90.3234C287.281 91.0524 286.551 91.1826 285.717 90.9482C284.18 90.4796 284.18 89.2038 284.232 87.6676C283.841 88.1362 283.58 88.4226 283.32 88.709C281.105 91.1826 278.316 91.5731 275.293 90.766C272.401 89.9849 270.394 88.1623 269.873 85.1159C269.456 82.6944 270.446 80.6896 272.166 79.0492C273.86 77.4609 275.893 76.6277 278.212 76.6017C279.567 76.6017 280.922 76.6798 282.277 76.7319C282.903 76.7579 283.528 76.7319 284.18 76.7319C284.206 74.2844 284.388 71.9931 283.476 69.806C282.043 66.317 279.202 64.8328 275.658 65.7702C274.225 66.1347 273.209 66.9939 272.557 68.4781C272.27 68.2177 272.01 67.9834 271.775 67.749C274.538 64.4423 280.114 64.208 283.45 67.2283C285.352 68.9467 286.238 71.1078 286.291 73.6335C286.291 73.998 286.291 74.3625 286.291 74.727C286.291 76.5496 285.978 76.9662 284.128 77.0964C283.085 77.1745 282.017 77.0964 280.974 77.0704C280.219 77.0443 279.463 77.0183 278.707 76.9923C274.355 76.784 272.27 80.2469 272.296 83.5537C272.323 85.6627 273.026 87.5894 274.564 89.0996C276.648 91.1565 279.593 91.3128 281.939 89.4381C284.414 87.4593 285.457 84.7253 285.795 81.6529C285.848 81.2884 285.874 80.9499 285.926 80.5854C286.004 80.4813 286.082 80.4292 286.291 80.2469Z" fill="#73523F"/>
<path d="M259.527 90.766C258.198 90.766 256.895 90.766 255.566 90.766C256.713 90.4015 256.53 89.4902 256.53 88.657C256.53 81.705 256.53 74.727 256.53 67.775C256.53 66.7075 256.53 66.7075 255.462 66.5253C256.452 66.0306 257.442 65.5098 258.615 64.9109C258.615 66.1607 258.615 67.2022 258.615 68.2958C259.527 67.6709 260.309 67.072 261.143 66.5773C262.915 65.5879 264.843 65.1453 266.85 65.0411C268.231 64.963 268.309 65.0411 267.997 66.5513C267.345 66.317 266.746 66.0045 266.068 65.9004C263.123 65.5098 260.83 66.8377 258.824 68.8165C258.641 68.9988 258.615 69.3633 258.615 69.6497C258.615 76.133 258.615 82.5903 258.589 89.0736C258.589 89.8547 258.745 90.4535 259.527 90.766Z" fill="#73523F"/>
<path d="M298.461 91.0264C298.356 90.7399 298.226 90.4275 298.148 90.1411C295.698 82.6163 293.249 75.1176 290.825 67.5928C290.538 66.6555 290.33 65.6921 289.053 65.5358C289.105 65.4577 289.157 65.3796 289.183 65.3275C290.538 65.3275 291.893 65.3275 293.561 65.3275C292.363 65.8223 292.649 66.4732 292.884 67.1762C295.021 73.7116 297.105 80.2729 299.32 86.7823C299.894 88.4487 299.06 89.6203 298.461 91.0264Z" fill="#73523F"/>
<path d="M128.394 66.4992C129.384 66.0045 130.375 65.5098 131.547 64.937C131.547 65.4838 131.547 65.8483 131.547 66.1868C131.547 73.7376 131.547 81.3145 131.547 88.8653C131.547 89.6464 131.547 90.4015 132.512 90.7399C131.183 90.7399 129.854 90.7399 128.525 90.7399C129.671 90.4015 129.489 89.4641 129.489 88.6309C129.489 81.679 129.489 74.727 129.489 67.775C129.463 66.7075 129.463 66.7075 128.394 66.4992Z" fill="#73523F"/>
<path d="M141.346 90.792C140.017 90.792 138.714 90.792 137.385 90.792C138.558 90.4015 138.323 89.4381 138.323 88.6049C138.323 81.679 138.323 74.753 138.323 67.8271C138.323 67.1502 138.375 66.4732 137.228 66.8117C137.228 66.7075 137.228 66.6294 137.255 66.5253C138.245 66.0306 139.235 65.5098 140.408 64.9109C140.408 65.4838 140.408 65.8223 140.408 66.1607C140.408 73.7376 140.408 81.3405 140.408 88.9173C140.408 89.6724 140.408 90.4015 141.476 90.5577C141.45 90.6358 141.398 90.7139 141.346 90.792Z" fill="#73523F"/>
<path d="M308.077 65.3275C307.086 65.6921 306.774 66.4992 306.487 67.3585C304.767 72.644 303.021 77.9296 301.301 83.2152C301.197 83.5016 301.093 83.788 300.988 84.1004C300.91 84.0744 300.806 84.0484 300.728 84.0223C300.806 83.6838 300.858 83.3193 300.962 83.0069C302.708 77.6692 304.454 72.3316 306.2 66.9679C306.383 66.369 306.669 65.7702 305.835 65.3275C306.565 65.3275 307.321 65.3275 308.077 65.3275Z" fill="#73523F"/>
<path d="M130.505 57.5945C129.567 57.5945 128.837 56.8654 128.837 55.9541C128.837 55.0689 129.567 54.3398 130.453 54.3138C131.365 54.2877 132.147 55.0428 132.173 55.9281C132.199 56.8394 131.443 57.5945 130.505 57.5945Z" fill="#73523F"/>
<path d="M123.443 61.448C123.13 61.448 122.843 61.448 122.453 61.448C123.026 58.4537 122.114 56.0322 119.716 53.9493C121.775 54.47 123.886 58.8963 123.443 61.448Z" fill="#73523F"/>
<path d="M171.732 90.3494C171.028 91.1045 170.324 91.1565 169.569 90.9482C168.735 90.7139 168.266 90.115 168.109 89.2819C168.057 88.9694 168.057 88.6309 168.057 88.2924C168.057 83.4755 168.083 78.6586 168.031 73.8417C168.031 72.7221 167.901 71.5505 167.536 70.4569C165.686 64.7027 160.265 64.1298 156.356 67.4105C156.07 67.6709 155.809 67.9573 155.522 68.2437C154.741 69.0769 154.35 69.8841 154.871 71.1339C155.262 72.0712 155.262 73.1908 155.262 74.2323C155.288 79.1534 155.288 84.0484 155.262 88.9694C155.262 89.7505 155.34 90.4015 156.2 90.766C154.897 90.766 153.568 90.766 152.265 90.766C153.438 90.3233 153.177 89.3079 153.177 88.4226C153.177 83.5797 153.255 78.7107 153.151 73.8678C153.125 72.3576 152.812 70.7954 152.239 69.4154C150.727 65.7962 147.262 64.5204 143.639 66.0566C143.353 66.1868 143.066 66.2909 142.675 66.4472C144.499 63.5049 151.223 65.2234 154.246 69.3373C154.402 69.103 154.558 68.9207 154.715 68.7124C156.695 65.8483 160.344 64.4683 163.705 65.3015C167.197 66.1607 169.673 68.9467 170.116 72.5138C170.194 73.0867 170.22 73.6595 170.22 74.2323C170.22 79.1534 170.22 84.0484 170.22 88.9694C170.194 90.2713 170.272 90.3494 171.732 90.3494Z" fill="#73523F"/>
<path d="M243.214 90.7399C243.943 90.3754 244.1 89.8026 244.1 89.0475C244.074 77.0964 244.1 65.1193 244.074 53.1681C244.074 52.9078 244.048 52.6474 244.022 52.2829C240.712 52.2829 237.402 52.1266 234.275 53.2983C233.702 53.5066 233.207 54.0013 232.555 54.444C232.555 53.7149 232.529 52.9338 232.581 52.1787C232.581 52.0746 232.842 51.9444 232.972 51.9183C233.207 51.8663 233.441 51.8923 233.702 51.8923C241.337 51.8923 248.973 51.9183 256.582 51.8663C257.494 51.8663 257.859 52.0746 257.729 53.0119C257.677 53.5066 257.729 54.0013 257.625 54.5221C256.843 53.3244 255.592 53.1161 254.419 52.8296C251.761 52.2048 249.051 52.2829 246.263 52.3089C246.237 52.6214 246.211 52.8817 246.211 53.1421C246.211 65.1453 246.211 77.1224 246.211 89.1256C246.211 89.8286 246.237 90.4796 247.097 90.792C245.794 90.74 244.517 90.7399 243.214 90.7399Z" fill="#73523F"/>
<path d="M336.977 53.3244C336.586 53.2983 336.325 53.2983 336.065 53.2723C336.039 53.1942 335.987 53.1421 335.961 53.064C336.925 52.5693 337.915 52.0746 339.088 51.4757C339.088 51.9704 339.088 52.3089 339.088 52.6474C339.088 64.7287 339.088 76.81 339.088 88.8653C339.088 89.6203 339.036 90.3754 340 90.6879C338.697 90.6879 337.394 90.6879 336.091 90.6879C337.211 90.2973 336.977 89.36 336.977 88.5268C336.977 77.2006 336.977 65.8743 336.977 54.5481C336.977 54.1836 336.977 53.793 336.977 53.3244Z" fill="#73523F"/>
<path d="M204.072 90.766C202.769 90.766 201.466 90.766 200.163 90.766C201.205 90.4015 201.075 89.5422 201.075 88.7351C201.075 77.3568 201.075 65.9785 201.075 54.5742C201.075 54.1836 201.075 53.793 201.075 53.3504C200.71 53.3244 200.424 53.2983 200.163 53.2723C200.137 53.2202 200.111 53.1421 200.085 53.09C201.075 52.5953 202.039 52.1006 203.212 51.5017C203.212 52.0225 203.212 52.361 203.212 52.6995C203.212 64.7547 203.212 76.784 203.212 88.8392C203.16 89.6464 203.186 90.3494 204.072 90.766Z" fill="#73523F"/>
<path d="M105.071 81.3665C105.097 81.4967 105.123 81.6009 105.123 81.679C104.914 86.1574 107.025 89.1256 111.325 90.4015C116.172 91.8335 121.124 89.1517 122.348 84.4389C123.182 81.1582 121.905 77.5911 119.013 75.7425C115.833 73.6855 112.55 71.7588 109.318 69.7799C104.81 66.9939 103.194 61.6823 105.436 57.0477C107.025 53.8191 109.657 52.0485 113.227 51.6319C113.436 51.6059 113.644 51.6059 113.853 51.6319C113.931 51.6319 114.009 51.684 114.322 51.8142C113.905 51.8923 113.696 51.9704 113.514 51.9965C109.892 52.3089 106.947 54.7564 106.035 58.2194C105.123 61.6823 106.452 65.3796 109.449 67.3324C112.524 69.3113 115.703 71.1859 118.856 73.0606C121.358 74.5448 123.104 76.6017 123.703 79.4918C124.954 85.5585 120.264 91.1826 114.035 91.1045C108.615 91.0524 104.549 87.4072 104.054 82.1997C104.002 81.4186 104.211 81.1061 105.071 81.3665Z" fill="#73523F"/>
<path d="M229.506 83.8921C229.35 84.2306 229.22 84.5691 229.037 84.9076C227.031 88.657 224.034 91.0003 219.656 91.0784C215.434 91.1305 212.463 88.9434 210.378 85.4804C207.069 79.9865 208.033 72.3055 212.463 68.0354C217.31 63.4008 224.451 64.2861 228.255 70.0403C229.871 72.4878 230.627 75.1957 230.627 78.216C226.145 78.216 221.688 78.216 217.258 78.216C217.258 78.1379 217.258 78.0598 217.258 77.9556C220.959 77.9556 224.685 77.9556 228.49 77.9556C228.464 74.6229 227.656 71.7067 225.832 69.103C224.946 67.8271 223.825 66.7856 222.392 66.1087C219.265 64.6245 215.747 65.64 213.427 68.8165C210.43 72.8784 209.935 77.4349 211.03 82.2258C211.525 84.4389 212.489 86.4178 214.053 88.1102C216.555 90.8181 219.812 91.495 223.2 90.0109C225.623 88.9694 227.343 87.1468 228.594 84.8816C228.803 84.517 229.011 84.1265 229.22 83.762C229.324 83.788 229.402 83.8401 229.506 83.8921Z" fill="#73523F"/>
<path d="M331.843 78.242C327.335 78.242 322.905 78.242 318.5 78.242C318.5 78.1639 318.5 78.0598 318.5 77.9817C322.201 77.9817 325.901 77.9817 329.576 77.9817C330.201 73.8417 327.439 68.1917 323.973 66.2909C320.82 64.5464 317.093 65.4577 314.67 68.7384C311.647 72.8003 311.126 77.4089 312.22 82.2258C312.715 84.4389 313.705 86.4178 315.243 88.1102C317.719 90.792 320.95 91.469 324.312 90.0369C326.761 88.9955 328.507 87.1728 329.784 84.8555C329.993 84.491 330.201 84.1004 330.592 83.814C330.592 83.9182 330.644 84.0223 330.618 84.1265C328.846 88.2664 324.885 91.5731 319.751 91.0524C316.572 90.74 314.175 89.0996 312.324 86.6C308.572 81.5748 308.78 73.7897 312.767 69.0248C317.484 63.3748 325.38 63.8434 329.498 70.0663C331.087 72.4878 331.843 75.2217 331.843 78.242Z" fill="#73523F"/>
<path d="M286.291 80.2469C286.317 80.7416 286.343 81.0541 286.343 81.3665C286.343 83.8401 286.343 86.3136 286.343 88.7872C286.343 90.3234 286.395 90.3494 287.958 90.3234C287.281 91.0524 286.551 91.1826 285.717 90.9482C284.18 90.4796 284.18 89.2038 284.232 87.6676C283.841 88.1362 283.58 88.4226 283.32 88.709C281.105 91.1826 278.316 91.5731 275.293 90.766C272.401 89.9849 270.394 88.1623 269.873 85.1159C269.456 82.6944 270.446 80.6896 272.166 79.0492C273.86 77.4609 275.893 76.6277 278.212 76.6017C279.567 76.6017 280.922 76.6798 282.277 76.7319C282.903 76.7579 283.528 76.7319 284.18 76.7319C284.206 74.2844 284.388 71.9931 283.476 69.806C282.043 66.317 279.202 64.8328 275.658 65.7702C274.225 66.1347 273.209 66.9939 272.557 68.4781C272.27 68.2177 272.01 67.9834 271.775 67.749C274.538 64.4423 280.114 64.208 283.45 67.2283C285.352 68.9467 286.238 71.1078 286.291 73.6335C286.291 73.998 286.291 74.3625 286.291 74.727C286.291 76.5496 285.978 76.9662 284.128 77.0964C283.085 77.1745 282.017 77.0964 280.974 77.0704C280.219 77.0443 279.463 77.0183 278.707 76.9923C274.355 76.784 272.27 80.2469 272.296 83.5537C272.323 85.6627 273.026 87.5894 274.564 89.0996C276.648 91.1565 279.593 91.3128 281.939 89.4381C284.414 87.4593 285.457 84.7253 285.795 81.6529C285.848 81.2884 285.874 80.9499 285.926 80.5854C286.004 80.4813 286.082 80.4292 286.291 80.2469Z" fill="#73523F"/>
<path d="M259.527 90.766C258.198 90.766 256.895 90.766 255.566 90.766C256.713 90.4015 256.53 89.4902 256.53 88.657C256.53 81.705 256.53 74.727 256.53 67.775C256.53 66.7075 256.53 66.7075 255.462 66.5253C256.452 66.0306 257.442 65.5098 258.615 64.9109C258.615 66.1607 258.615 67.2022 258.615 68.2958C259.527 67.6709 260.309 67.072 261.143 66.5773C262.915 65.5879 264.843 65.1453 266.85 65.0411C268.231 64.963 268.309 65.0411 267.997 66.5513C267.345 66.317 266.746 66.0045 266.068 65.9004C263.123 65.5098 260.83 66.8377 258.824 68.8165C258.641 68.9988 258.615 69.3633 258.615 69.6497C258.615 76.133 258.615 82.5903 258.589 89.0736C258.589 89.8547 258.745 90.4535 259.527 90.766Z" fill="#73523F"/>
<path d="M298.461 91.0264C298.356 90.7399 298.226 90.4275 298.148 90.1411C295.698 82.6163 293.249 75.1176 290.825 67.5928C290.538 66.6555 290.33 65.6921 289.053 65.5358C289.105 65.4577 289.157 65.3796 289.183 65.3275C290.538 65.3275 291.893 65.3275 293.561 65.3275C292.363 65.8223 292.649 66.4732 292.884 67.1762C295.021 73.7116 297.105 80.2729 299.32 86.7823C299.894 88.4487 299.06 89.6203 298.461 91.0264Z" fill="#73523F"/>
<path d="M128.394 66.4992C129.384 66.0045 130.375 65.5098 131.547 64.937C131.547 65.4838 131.547 65.8483 131.547 66.1868C131.547 73.7376 131.547 81.3145 131.547 88.8653C131.547 89.6464 131.547 90.4015 132.512 90.7399C131.183 90.7399 129.854 90.7399 128.525 90.7399C129.671 90.4015 129.489 89.4641 129.489 88.6309C129.489 81.679 129.489 74.727 129.489 67.775C129.463 66.7075 129.463 66.7075 128.394 66.4992Z" fill="#73523F"/>
<path d="M141.346 90.792C140.017 90.792 138.714 90.792 137.385 90.792C138.558 90.4015 138.323 89.4381 138.323 88.6049C138.323 81.679 138.323 74.753 138.323 67.8271C138.323 67.1502 138.375 66.4732 137.228 66.8117C137.228 66.7075 137.228 66.6294 137.255 66.5253C138.245 66.0306 139.235 65.5098 140.408 64.9109C140.408 65.4838 140.408 65.8223 140.408 66.1607C140.408 73.7376 140.408 81.3405 140.408 88.9173C140.408 89.6724 140.408 90.4015 141.476 90.5577C141.45 90.6358 141.398 90.7139 141.346 90.792Z" fill="#73523F"/>
<path d="M308.077 65.3275C307.086 65.6921 306.774 66.4992 306.487 67.3585C304.767 72.644 303.021 77.9296 301.301 83.2152C301.197 83.5016 301.093 83.788 300.988 84.1004C300.91 84.0744 300.806 84.0484 300.728 84.0223C300.806 83.6838 300.858 83.3193 300.962 83.0069C302.708 77.6692 304.454 72.3316 306.2 66.9679C306.383 66.369 306.669 65.7702 305.835 65.3275C306.565 65.3275 307.321 65.3275 308.077 65.3275Z" fill="#73523F"/>
<path d="M130.505 57.5945C129.567 57.5945 128.837 56.8654 128.837 55.9541C128.837 55.0689 129.567 54.3398 130.453 54.3138C131.365 54.2877 132.147 55.0428 132.173 55.9281C132.199 56.8394 131.443 57.5945 130.505 57.5945Z" fill="#73523F"/>
<path d="M123.443 61.448C123.13 61.448 122.843 61.448 122.453 61.448C123.026 58.4537 122.114 56.0322 119.716 53.9493C121.775 54.47 123.886 58.8963 123.443 61.448Z" fill="#73523F"/>
<path d="M179.68 101.233C178.585 101.233 177.256 101.233 175.927 101.233C175.849 101.181 175.771 101.103 175.719 101.051C177.074 100.842 176.892 99.9311 176.892 99.0979C176.892 92.7188 176.892 86.3396 176.892 79.9345C176.892 75.8987 176.892 71.8629 176.892 67.8271C176.892 67.072 176.892 66.4732 175.719 66.7856C175.745 66.7075 175.771 66.6034 175.771 66.5253C176.761 66.0306 177.751 65.5358 178.872 64.963C178.872 66.5513 178.872 67.9573 178.872 69.3894C178.95 69.4154 179.002 69.4414 179.081 69.4935C179.237 69.2852 179.393 69.0769 179.55 68.8426C181.452 66.369 183.797 64.7287 187.107 65.1193C189.296 65.3796 190.964 66.5773 192.345 68.2177C196.619 73.3991 196.697 82.3299 192.553 87.5894C188.853 92.3022 183.12 92.172 179.602 87.3291C179.445 87.0947 179.263 86.8604 178.976 86.4959C178.95 86.8344 178.924 86.9645 178.924 87.0947C178.924 91.2607 178.898 95.4006 178.95 99.5666C179.002 100.139 179.419 100.634 179.68 101.233ZM192.97 77.3568C192.866 76.4976 192.762 74.8051 192.423 73.1648C191.954 70.8214 191.146 68.5822 189.348 66.8377C188.332 65.8483 187.133 65.3536 185.674 65.4838C183.302 65.7181 181.53 66.9158 180.175 68.7384C177.517 72.2795 176.735 76.3153 177.387 80.6375C177.882 83.9703 179.159 86.9645 181.869 89.1517C185.205 91.8596 188.671 91.2086 190.834 87.5113C190.99 87.251 191.12 86.9906 191.25 86.7042C192.527 83.9963 192.892 81.1062 192.97 77.3568Z" stroke="#73523F"/>
<path d="M171.732 90.3494C171.028 91.1045 170.324 91.1565 169.569 90.9482C168.735 90.7139 168.266 90.115 168.109 89.2819C168.057 88.9694 168.057 88.6309 168.057 88.2924C168.057 83.4755 168.083 78.6586 168.031 73.8417C168.031 72.7221 167.901 71.5505 167.536 70.4569C165.686 64.7027 160.265 64.1298 156.356 67.4105C156.07 67.6709 155.809 67.9573 155.522 68.2437C154.741 69.0769 154.35 69.8841 154.871 71.1339C155.262 72.0712 155.262 73.1908 155.262 74.2323C155.288 79.1534 155.288 84.0484 155.262 88.9694C155.262 89.7505 155.34 90.4015 156.2 90.766C154.897 90.766 153.568 90.766 152.265 90.766C153.438 90.3233 153.177 89.3079 153.177 88.4226C153.177 83.5797 153.255 78.7107 153.151 73.8678C153.125 72.3576 152.812 70.7954 152.239 69.4154C150.727 65.7962 147.262 64.5204 143.639 66.0566C143.353 66.1868 143.066 66.2909 142.675 66.4472C144.499 63.5049 151.223 65.2234 154.246 69.3373C154.402 69.103 154.558 68.9207 154.715 68.7124C156.695 65.8483 160.344 64.4683 163.705 65.3015C167.197 66.1607 169.673 68.9467 170.116 72.5138C170.194 73.0867 170.22 73.6595 170.22 74.2323C170.22 79.1534 170.22 84.0484 170.22 88.9694C170.194 90.2713 170.272 90.3494 171.732 90.3494Z" stroke="#73523F"/>
<path d="M243.214 90.7399C243.943 90.3754 244.1 89.8026 244.1 89.0475C244.074 77.0964 244.1 65.1193 244.074 53.1681C244.074 52.9078 244.048 52.6474 244.022 52.2829C240.712 52.2829 237.402 52.1266 234.275 53.2983C233.702 53.5066 233.207 54.0013 232.555 54.444C232.555 53.7149 232.529 52.9338 232.581 52.1787C232.581 52.0746 232.842 51.9444 232.972 51.9183C233.207 51.8663 233.441 51.8923 233.702 51.8923C241.337 51.8923 248.973 51.9183 256.582 51.8663C257.494 51.8663 257.859 52.0746 257.729 53.0119C257.677 53.5066 257.729 54.0013 257.625 54.5221C256.843 53.3244 255.592 53.1161 254.419 52.8296C251.761 52.2048 249.051 52.2829 246.263 52.3089C246.237 52.6214 246.211 52.8817 246.211 53.1421C246.211 65.1453 246.211 77.1224 246.211 89.1256C246.211 89.8286 246.237 90.4796 247.097 90.792C245.794 90.74 244.517 90.7399 243.214 90.7399Z" stroke="#73523F"/>
<path d="M336.977 53.3244C336.586 53.2983 336.325 53.2983 336.065 53.2723C336.039 53.1942 335.987 53.1421 335.961 53.064C336.925 52.5693 337.915 52.0746 339.088 51.4757C339.088 51.9704 339.088 52.3089 339.088 52.6474C339.088 64.7287 339.088 76.81 339.088 88.8653C339.088 89.6203 339.036 90.3754 340 90.6879C338.697 90.6879 337.394 90.6879 336.091 90.6879C337.211 90.2973 336.977 89.36 336.977 88.5268C336.977 77.2006 336.977 65.8743 336.977 54.5481C336.977 54.1836 336.977 53.793 336.977 53.3244Z" stroke="#73523F"/>
<path d="M204.072 90.766C202.769 90.766 201.466 90.766 200.163 90.766C201.205 90.4015 201.075 89.5422 201.075 88.7351C201.075 77.3568 201.075 65.9785 201.075 54.5742C201.075 54.1836 201.075 53.793 201.075 53.3504C200.71 53.3244 200.424 53.2983 200.163 53.2723C200.137 53.2202 200.111 53.1421 200.085 53.09C201.075 52.5953 202.039 52.1006 203.212 51.5017C203.212 52.0225 203.212 52.361 203.212 52.6995C203.212 64.7547 203.212 76.784 203.212 88.8392C203.16 89.6464 203.186 90.3494 204.072 90.766Z" stroke="#73523F"/>
<path d="M105.071 81.3665C105.097 81.4967 105.123 81.6009 105.123 81.679C104.914 86.1574 107.025 89.1256 111.325 90.4015C116.172 91.8335 121.124 89.1517 122.348 84.4389C123.182 81.1582 121.905 77.5911 119.013 75.7425C115.833 73.6855 112.55 71.7588 109.318 69.7799C104.81 66.9939 103.194 61.6823 105.436 57.0477C107.025 53.8191 109.657 52.0485 113.227 51.6319C113.436 51.6059 113.644 51.6059 113.853 51.6319C113.931 51.6319 114.009 51.684 114.322 51.8142C113.905 51.8923 113.696 51.9704 113.514 51.9965C109.892 52.3089 106.947 54.7564 106.035 58.2194C105.123 61.6823 106.452 65.3796 109.449 67.3324C112.524 69.3113 115.703 71.1859 118.856 73.0606C121.358 74.5448 123.104 76.6017 123.703 79.4918C124.954 85.5585 120.264 91.1826 114.035 91.1045C108.615 91.0524 104.549 87.4072 104.054 82.1997C104.002 81.4186 104.211 81.1061 105.071 81.3665Z" stroke="#73523F"/>
<path d="M229.506 83.8921C229.35 84.2306 229.22 84.5691 229.037 84.9076C227.031 88.657 224.034 91.0003 219.656 91.0784C215.434 91.1305 212.463 88.9434 210.378 85.4804C207.069 79.9865 208.033 72.3055 212.463 68.0354C217.31 63.4008 224.451 64.2861 228.255 70.0403C229.871 72.4878 230.627 75.1957 230.627 78.216C226.145 78.216 221.688 78.216 217.258 78.216C217.258 78.1379 217.258 78.0598 217.258 77.9556C220.959 77.9556 224.685 77.9556 228.49 77.9556C228.464 74.6229 227.656 71.7067 225.832 69.103C224.946 67.8271 223.825 66.7856 222.392 66.1087C219.265 64.6245 215.747 65.64 213.427 68.8165C210.43 72.8784 209.935 77.4349 211.03 82.2258C211.525 84.4389 212.489 86.4178 214.053 88.1102C216.555 90.8181 219.812 91.495 223.2 90.0109C225.623 88.9694 227.343 87.1468 228.594 84.8816C228.803 84.517 229.011 84.1265 229.22 83.762C229.324 83.788 229.402 83.8401 229.506 83.8921Z" stroke="#73523F"/>
<path d="M331.843 78.242C327.335 78.242 322.905 78.242 318.5 78.242C318.5 78.1639 318.5 78.0598 318.5 77.9817C322.201 77.9817 325.901 77.9817 329.576 77.9817C330.201 73.8417 327.439 68.1917 323.973 66.2909C320.82 64.5464 317.093 65.4577 314.67 68.7384C311.647 72.8003 311.126 77.4089 312.22 82.2258C312.715 84.4389 313.705 86.4178 315.243 88.1102C317.719 90.792 320.95 91.469 324.312 90.0369C326.761 88.9955 328.507 87.1728 329.784 84.8555C329.993 84.491 330.201 84.1004 330.592 83.814C330.592 83.9182 330.644 84.0223 330.618 84.1265C328.846 88.2664 324.885 91.5731 319.751 91.0524C316.572 90.74 314.175 89.0996 312.324 86.6C308.572 81.5748 308.78 73.7897 312.767 69.0248C317.484 63.3748 325.38 63.8434 329.498 70.0663C331.087 72.4878 331.843 75.2217 331.843 78.242Z" stroke="#73523F"/>
<path d="M286.291 80.2469C286.317 80.7416 286.343 81.0541 286.343 81.3665C286.343 83.8401 286.343 86.3136 286.343 88.7872C286.343 90.3234 286.395 90.3494 287.958 90.3234C287.281 91.0524 286.551 91.1826 285.717 90.9482C284.18 90.4796 284.18 89.2038 284.232 87.6676C283.841 88.1362 283.58 88.4226 283.32 88.709C281.105 91.1826 278.316 91.5731 275.293 90.766C272.401 89.9849 270.394 88.1623 269.873 85.1159C269.456 82.6944 270.446 80.6896 272.166 79.0492C273.86 77.4609 275.893 76.6277 278.212 76.6017C279.567 76.6017 280.922 76.6798 282.277 76.7319C282.903 76.7579 283.528 76.7319 284.18 76.7319C284.206 74.2844 284.388 71.9931 283.476 69.806C282.043 66.317 279.202 64.8328 275.658 65.7702C274.225 66.1347 273.209 66.9939 272.557 68.4781C272.27 68.2177 272.01 67.9834 271.775 67.749C274.538 64.4423 280.114 64.208 283.45 67.2283C285.352 68.9467 286.238 71.1078 286.291 73.6335C286.291 73.998 286.291 74.3625 286.291 74.727C286.291 76.5496 285.978 76.9662 284.128 77.0964C283.085 77.1745 282.017 77.0964 280.974 77.0704C280.219 77.0443 279.463 77.0183 278.707 76.9923C274.355 76.784 272.27 80.2469 272.296 83.5537C272.323 85.6627 273.026 87.5894 274.564 89.0996C276.648 91.1565 279.593 91.3128 281.939 89.4381C284.414 87.4593 285.457 84.7253 285.795 81.6529C285.848 81.2884 285.874 80.9499 285.926 80.5854C286.004 80.4813 286.082 80.4292 286.291 80.2469Z" stroke="#73523F"/>
<path d="M259.527 90.766C258.198 90.766 256.895 90.766 255.566 90.766C256.713 90.4015 256.53 89.4902 256.53 88.657C256.53 81.705 256.53 74.727 256.53 67.775C256.53 66.7075 256.53 66.7075 255.462 66.5253C256.452 66.0306 257.442 65.5098 258.615 64.9109C258.615 66.1607 258.615 67.2022 258.615 68.2958C259.527 67.6709 260.309 67.072 261.143 66.5773C262.915 65.5879 264.843 65.1453 266.85 65.0411C268.231 64.963 268.309 65.0411 267.997 66.5513C267.345 66.317 266.746 66.0045 266.068 65.9004C263.123 65.5098 260.83 66.8377 258.824 68.8165C258.641 68.9988 258.615 69.3633 258.615 69.6497C258.615 76.133 258.615 82.5903 258.589 89.0736C258.589 89.8547 258.745 90.4535 259.527 90.766Z" stroke="#73523F"/>
<path d="M298.461 91.0264C298.356 90.7399 298.226 90.4275 298.148 90.1411C295.698 82.6163 293.249 75.1176 290.825 67.5928C290.538 66.6555 290.33 65.6921 289.053 65.5358C289.105 65.4577 289.157 65.3796 289.183 65.3275C290.538 65.3275 291.893 65.3275 293.561 65.3275C292.363 65.8223 292.649 66.4732 292.884 67.1762C295.021 73.7116 297.105 80.2729 299.32 86.7823C299.894 88.4487 299.06 89.6203 298.461 91.0264Z" stroke="#73523F"/>
<path d="M128.394 66.4992C129.384 66.0045 130.375 65.5098 131.547 64.937C131.547 65.4838 131.547 65.8483 131.547 66.1868C131.547 73.7376 131.547 81.3145 131.547 88.8653C131.547 89.6464 131.547 90.4015 132.512 90.7399C131.183 90.7399 129.854 90.7399 128.525 90.7399C129.671 90.4015 129.489 89.4641 129.489 88.6309C129.489 81.679 129.489 74.727 129.489 67.775C129.463 66.7075 129.463 66.7075 128.394 66.4992Z" stroke="#73523F"/>
<path d="M141.346 90.792C140.017 90.792 138.714 90.792 137.385 90.792C138.558 90.4015 138.323 89.4381 138.323 88.6049C138.323 81.679 138.323 74.753 138.323 67.8271C138.323 67.1502 138.375 66.4732 137.228 66.8117C137.228 66.7075 137.228 66.6294 137.255 66.5253C138.245 66.0306 139.235 65.5098 140.408 64.9109C140.408 65.4838 140.408 65.8223 140.408 66.1607C140.408 73.7376 140.408 81.3405 140.408 88.9173C140.408 89.6724 140.408 90.4015 141.476 90.5577C141.45 90.6358 141.398 90.7139 141.346 90.792Z" stroke="#73523F"/>
<path d="M308.077 65.3275C307.086 65.6921 306.774 66.4992 306.487 67.3585C304.767 72.644 303.021 77.9296 301.301 83.2152C301.197 83.5016 301.093 83.788 300.988 84.1004C300.91 84.0744 300.806 84.0484 300.728 84.0223C300.806 83.6838 300.858 83.3193 300.962 83.0069C302.708 77.6692 304.454 72.3316 306.2 66.9679C306.383 66.369 306.669 65.7702 305.835 65.3275C306.565 65.3275 307.321 65.3275 308.077 65.3275Z" stroke="#73523F"/>
<path d="M130.505 57.5945C129.567 57.5945 128.837 56.8654 128.837 55.9541C128.837 55.0689 129.567 54.3398 130.453 54.3138C131.365 54.2877 132.147 55.0428 132.173 55.9281C132.199 56.8394 131.443 57.5945 130.505 57.5945Z" stroke="#73523F"/>
<path d="M123.443 61.448C123.13 61.448 122.843 61.448 122.453 61.448C123.026 58.4537 122.114 56.0322 119.716 53.9493C121.775 54.47 123.886 58.8963 123.443 61.448Z" stroke="#73523F"/>
<path d="M171.732 90.3494C171.028 91.1045 170.324 91.1565 169.569 90.9482C168.735 90.7139 168.266 90.115 168.109 89.2819C168.057 88.9694 168.057 88.6309 168.057 88.2924C168.057 83.4755 168.083 78.6586 168.031 73.8417C168.031 72.7221 167.901 71.5505 167.536 70.4569C165.686 64.7027 160.265 64.1298 156.356 67.4105C156.07 67.6709 155.809 67.9573 155.522 68.2437C154.741 69.0769 154.35 69.8841 154.871 71.1339C155.262 72.0712 155.262 73.1908 155.262 74.2323C155.288 79.1534 155.288 84.0484 155.262 88.9694C155.262 89.7505 155.34 90.4015 156.2 90.766C154.897 90.766 153.568 90.766 152.265 90.766C153.438 90.3233 153.177 89.3079 153.177 88.4226C153.177 83.5797 153.255 78.7107 153.151 73.8678C153.125 72.3576 152.812 70.7954 152.239 69.4154C150.727 65.7962 147.262 64.5204 143.639 66.0566C143.353 66.1868 143.066 66.2909 142.675 66.4472C144.499 63.5049 151.223 65.2234 154.246 69.3373C154.402 69.103 154.558 68.9207 154.715 68.7124C156.695 65.8483 160.344 64.4683 163.705 65.3015C167.197 66.1607 169.673 68.9467 170.116 72.5138C170.194 73.0867 170.22 73.6595 170.22 74.2323C170.22 79.1534 170.22 84.0484 170.22 88.9694C170.194 90.2713 170.272 90.3494 171.732 90.3494Z" stroke="#73523F"/>
<path d="M243.214 90.7399C243.943 90.3754 244.1 89.8026 244.1 89.0475C244.074 77.0964 244.1 65.1193 244.074 53.1681C244.074 52.9078 244.048 52.6474 244.022 52.2829C240.712 52.2829 237.402 52.1266 234.275 53.2983C233.702 53.5066 233.207 54.0013 232.555 54.444C232.555 53.7149 232.529 52.9338 232.581 52.1787C232.581 52.0746 232.842 51.9444 232.972 51.9183C233.207 51.8663 233.441 51.8923 233.702 51.8923C241.337 51.8923 248.973 51.9183 256.582 51.8663C257.494 51.8663 257.859 52.0746 257.729 53.0119C257.677 53.5066 257.729 54.0013 257.625 54.5221C256.843 53.3244 255.592 53.1161 254.419 52.8296C251.761 52.2048 249.051 52.2829 246.263 52.3089C246.237 52.6214 246.211 52.8817 246.211 53.1421C246.211 65.1453 246.211 77.1224 246.211 89.1256C246.211 89.8286 246.237 90.4796 247.097 90.792C245.794 90.74 244.517 90.7399 243.214 90.7399Z" stroke="#73523F"/>
<path d="M336.977 53.3244C336.586 53.2983 336.325 53.2983 336.065 53.2723C336.039 53.1942 335.987 53.1421 335.961 53.064C336.925 52.5693 337.915 52.0746 339.088 51.4757C339.088 51.9704 339.088 52.3089 339.088 52.6474C339.088 64.7287 339.088 76.81 339.088 88.8653C339.088 89.6203 339.036 90.3754 340 90.6879C338.697 90.6879 337.394 90.6879 336.091 90.6879C337.211 90.2973 336.977 89.36 336.977 88.5268C336.977 77.2006 336.977 65.8743 336.977 54.5481C336.977 54.1836 336.977 53.793 336.977 53.3244Z" stroke="#73523F"/>
<path d="M204.072 90.766C202.769 90.766 201.466 90.766 200.163 90.766C201.205 90.4015 201.075 89.5422 201.075 88.7351C201.075 77.3568 201.075 65.9785 201.075 54.5742C201.075 54.1836 201.075 53.793 201.075 53.3504C200.71 53.3244 200.424 53.2983 200.163 53.2723C200.137 53.2202 200.111 53.1421 200.085 53.09C201.075 52.5953 202.039 52.1006 203.212 51.5017C203.212 52.0225 203.212 52.361 203.212 52.6995C203.212 64.7547 203.212 76.784 203.212 88.8392C203.16 89.6464 203.186 90.3494 204.072 90.766Z" stroke="#73523F"/>
<path d="M105.071 81.3665C105.097 81.4967 105.123 81.6009 105.123 81.679C104.914 86.1574 107.025 89.1256 111.325 90.4015C116.172 91.8335 121.124 89.1517 122.348 84.4389C123.182 81.1582 121.905 77.5911 119.013 75.7425C115.833 73.6855 112.55 71.7588 109.318 69.7799C104.81 66.9939 103.194 61.6823 105.436 57.0477C107.025 53.8191 109.657 52.0485 113.227 51.6319C113.436 51.6059 113.644 51.6059 113.853 51.6319C113.931 51.6319 114.009 51.684 114.322 51.8142C113.905 51.8923 113.696 51.9704 113.514 51.9965C109.892 52.3089 106.947 54.7564 106.035 58.2194C105.123 61.6823 106.452 65.3796 109.449 67.3324C112.524 69.3113 115.703 71.1859 118.856 73.0606C121.358 74.5448 123.104 76.6017 123.703 79.4918C124.954 85.5585 120.264 91.1826 114.035 91.1045C108.615 91.0524 104.549 87.4072 104.054 82.1997C104.002 81.4186 104.211 81.1061 105.071 81.3665Z" stroke="#73523F"/>
<path d="M229.506 83.8921C229.35 84.2306 229.22 84.5691 229.037 84.9076C227.031 88.657 224.034 91.0003 219.656 91.0784C215.434 91.1305 212.463 88.9434 210.378 85.4804C207.069 79.9865 208.033 72.3055 212.463 68.0354C217.31 63.4008 224.451 64.2861 228.255 70.0403C229.871 72.4878 230.627 75.1957 230.627 78.216C226.145 78.216 221.688 78.216 217.258 78.216C217.258 78.1379 217.258 78.0598 217.258 77.9556C220.959 77.9556 224.685 77.9556 228.49 77.9556C228.464 74.6229 227.656 71.7067 225.832 69.103C224.946 67.8271 223.825 66.7856 222.392 66.1087C219.265 64.6245 215.747 65.64 213.427 68.8165C210.43 72.8784 209.935 77.4349 211.03 82.2258C211.525 84.4389 212.489 86.4178 214.053 88.1102C216.555 90.8181 219.812 91.495 223.2 90.0109C225.623 88.9694 227.343 87.1468 228.594 84.8816C228.803 84.517 229.011 84.1265 229.22 83.762C229.324 83.788 229.402 83.8401 229.506 83.8921Z" stroke="#73523F"/>
<path d="M331.843 78.242C327.335 78.242 322.905 78.242 318.5 78.242C318.5 78.1639 318.5 78.0598 318.5 77.9817C322.201 77.9817 325.901 77.9817 329.576 77.9817C330.201 73.8417 327.439 68.1917 323.973 66.2909C320.82 64.5464 317.093 65.4577 314.67 68.7384C311.647 72.8003 311.126 77.4089 312.22 82.2258C312.715 84.4389 313.705 86.4178 315.243 88.1102C317.719 90.792 320.95 91.469 324.312 90.0369C326.761 88.9955 328.507 87.1728 329.784 84.8555C329.993 84.491 330.201 84.1004 330.592 83.814C330.592 83.9182 330.644 84.0223 330.618 84.1265C328.846 88.2664 324.885 91.5731 319.751 91.0524C316.572 90.74 314.175 89.0996 312.324 86.6C308.572 81.5748 308.78 73.7897 312.767 69.0248C317.484 63.3748 325.38 63.8434 329.498 70.0663C331.087 72.4878 331.843 75.2217 331.843 78.242Z" stroke="#73523F"/>
<path d="M286.291 80.2469C286.317 80.7416 286.343 81.0541 286.343 81.3665C286.343 83.8401 286.343 86.3136 286.343 88.7872C286.343 90.3234 286.395 90.3494 287.958 90.3234C287.281 91.0524 286.551 91.1826 285.717 90.9482C284.18 90.4796 284.18 89.2038 284.232 87.6676C283.841 88.1362 283.58 88.4226 283.32 88.709C281.105 91.1826 278.316 91.5731 275.293 90.766C272.401 89.9849 270.394 88.1623 269.873 85.1159C269.456 82.6944 270.446 80.6896 272.166 79.0492C273.86 77.4609 275.893 76.6277 278.212 76.6017C279.567 76.6017 280.922 76.6798 282.277 76.7319C282.903 76.7579 283.528 76.7319 284.18 76.7319C284.206 74.2844 284.388 71.9931 283.476 69.806C282.043 66.317 279.202 64.8328 275.658 65.7702C274.225 66.1347 273.209 66.9939 272.557 68.4781C272.27 68.2177 272.01 67.9834 271.775 67.749C274.538 64.4423 280.114 64.208 283.45 67.2283C285.352 68.9467 286.238 71.1078 286.291 73.6335C286.291 73.998 286.291 74.3625 286.291 74.727C286.291 76.5496 285.978 76.9662 284.128 77.0964C283.085 77.1745 282.017 77.0964 280.974 77.0704C280.219 77.0443 279.463 77.0183 278.707 76.9923C274.355 76.784 272.27 80.2469 272.296 83.5537C272.323 85.6627 273.026 87.5894 274.564 89.0996C276.648 91.1565 279.593 91.3128 281.939 89.4381C284.414 87.4593 285.457 84.7253 285.795 81.6529C285.848 81.2884 285.874 80.9499 285.926 80.5854C286.004 80.4813 286.082 80.4292 286.291 80.2469Z" stroke="#73523F"/>
<path d="M259.527 90.766C258.198 90.766 256.895 90.766 255.566 90.766C256.713 90.4015 256.53 89.4902 256.53 88.657C256.53 81.705 256.53 74.727 256.53 67.775C256.53 66.7075 256.53 66.7075 255.462 66.5253C256.452 66.0306 257.442 65.5098 258.615 64.9109C258.615 66.1607 258.615 67.2022 258.615 68.2958C259.527 67.6709 260.309 67.072 261.143 66.5773C262.915 65.5879 264.843 65.1453 266.85 65.0411C268.231 64.963 268.309 65.0411 267.997 66.5513C267.345 66.317 266.746 66.0045 266.068 65.9004C263.123 65.5098 260.83 66.8377 258.824 68.8165C258.641 68.9988 258.615 69.3633 258.615 69.6497C258.615 76.133 258.615 82.5903 258.589 89.0736C258.589 89.8547 258.745 90.4535 259.527 90.766Z" stroke="#73523F"/>
<path d="M298.461 91.0264C298.356 90.7399 298.226 90.4275 298.148 90.1411C295.698 82.6163 293.249 75.1176 290.825 67.5928C290.538 66.6555 290.33 65.6921 289.053 65.5358C289.105 65.4577 289.157 65.3796 289.183 65.3275C290.538 65.3275 291.893 65.3275 293.561 65.3275C292.363 65.8223 292.649 66.4732 292.884 67.1762C295.021 73.7116 297.105 80.2729 299.32 86.7823C299.894 88.4487 299.06 89.6203 298.461 91.0264Z" stroke="#73523F"/>
<path d="M128.394 66.4992C129.384 66.0045 130.375 65.5098 131.547 64.937C131.547 65.4838 131.547 65.8483 131.547 66.1868C131.547 73.7376 131.547 81.3145 131.547 88.8653C131.547 89.6464 131.547 90.4015 132.512 90.7399C131.183 90.7399 129.854 90.7399 128.525 90.7399C129.671 90.4015 129.489 89.4641 129.489 88.6309C129.489 81.679 129.489 74.727 129.489 67.775C129.463 66.7075 129.463 66.7075 128.394 66.4992Z" stroke="#73523F"/>
<path d="M141.346 90.792C140.017 90.792 138.714 90.792 137.385 90.792C138.558 90.4015 138.323 89.4381 138.323 88.6049C138.323 81.679 138.323 74.753 138.323 67.8271C138.323 67.1502 138.375 66.4732 137.228 66.8117C137.228 66.7075 137.228 66.6294 137.255 66.5253C138.245 66.0306 139.235 65.5098 140.408 64.9109C140.408 65.4838 140.408 65.8223 140.408 66.1607C140.408 73.7376 140.408 81.3405 140.408 88.9173C140.408 89.6724 140.408 90.4015 141.476 90.5577C141.45 90.6358 141.398 90.7139 141.346 90.792Z" stroke="#73523F"/>
<path d="M308.077 65.3275C307.086 65.6921 306.774 66.4992 306.487 67.3585C304.767 72.644 303.021 77.9296 301.301 83.2152C301.197 83.5016 301.093 83.788 300.988 84.1004C300.91 84.0744 300.806 84.0484 300.728 84.0223C300.806 83.6838 300.858 83.3193 300.962 83.0069C302.708 77.6692 304.454 72.3316 306.2 66.9679C306.383 66.369 306.669 65.7702 305.835 65.3275C306.565 65.3275 307.321 65.3275 308.077 65.3275Z" stroke="#73523F"/>
<path d="M130.505 57.5945C129.567 57.5945 128.837 56.8654 128.837 55.9541C128.837 55.0689 129.567 54.3398 130.453 54.3138C131.365 54.2877 132.147 55.0428 132.173 55.9281C132.199 56.8394 131.443 57.5945 130.505 57.5945Z" stroke="#73523F"/>
<path d="M123.443 61.448C123.13 61.448 122.843 61.448 122.453 61.448C123.026 58.4537 122.114 56.0322 119.716 53.9493C121.775 54.47 123.886 58.8963 123.443 61.448Z" stroke="#73523F"/>
<defs>
<linearGradient id="paint0_linear_114_5252" x1="0" y1="66.111" x2="220.37" y2="67.1603" gradientUnits="userSpaceOnUse">
<stop stop-color="#F8E1B7"/>
<stop offset="1" stop-color="#91DDCF"/>
</linearGradient>
<linearGradient id="paint1_linear_114_5252" x1="0" y1="66.111" x2="220.37" y2="67.1603" gradientUnits="userSpaceOnUse">
<stop stop-color="#F8E1B7"/>
<stop offset="1" stop-color="#91DDCF"/>
</linearGradient>
<linearGradient id="paint2_linear_114_5252" x1="0" y1="66.111" x2="220.37" y2="67.1603" gradientUnits="userSpaceOnUse">
<stop stop-color="#F8E1B7"/>
<stop offset="1" stop-color="#91DDCF"/>
</linearGradient>
<linearGradient id="paint3_linear_114_5252" x1="0" y1="66.111" x2="220.37" y2="67.1603" gradientUnits="userSpaceOnUse">
<stop stop-color="#F8E1B7"/>
<stop offset="1" stop-color="#91DDCF"/>
</linearGradient>
<linearGradient id="paint4_linear_114_5252" x1="0" y1="66.111" x2="220.37" y2="67.1603" gradientUnits="userSpaceOnUse">
<stop stop-color="#F8E1B7"/>
<stop offset="1" stop-color="#91DDCF"/>
</linearGradient>
<linearGradient id="paint5_linear_114_5252" x1="0" y1="66.111" x2="220.37" y2="67.1603" gradientUnits="userSpaceOnUse">
<stop stop-color="#F8E1B7"/>
<stop offset="1" stop-color="#91DDCF"/>
</linearGradient>
<linearGradient id="paint6_linear_114_5252" x1="0" y1="66.111" x2="220.37" y2="67.1603" gradientUnits="userSpaceOnUse">
<stop stop-color="#F8E1B7"/>
<stop offset="1" stop-color="#91DDCF"/>
</linearGradient>
<linearGradient id="paint7_linear_114_5252" x1="0" y1="66.111" x2="220.37" y2="67.1603" gradientUnits="userSpaceOnUse">
<stop stop-color="#F8E1B7"/>
<stop offset="1" stop-color="#91DDCF"/>
</linearGradient>
<linearGradient id="paint8_linear_114_5252" x1="0" y1="66.111" x2="220.37" y2="67.1603" gradientUnits="userSpaceOnUse">
<stop stop-color="#F8E1B7"/>
<stop offset="1" stop-color="#91DDCF"/>
</linearGradient>
<linearGradient id="paint9_linear_114_5252" x1="0" y1="66.111" x2="220.37" y2="67.1603" gradientUnits="userSpaceOnUse">
<stop stop-color="#F8E1B7"/>
<stop offset="1" stop-color="#91DDCF"/>
</linearGradient>
<linearGradient id="paint10_linear_114_5252" x1="0" y1="66.111" x2="220.37" y2="67.1603" gradientUnits="userSpaceOnUse">
<stop stop-color="#F8E1B7"/>
<stop offset="1" stop-color="#91DDCF"/>
</linearGradient>
<linearGradient id="paint11_linear_114_5252" x1="0" y1="66.111" x2="220.37" y2="67.1603" gradientUnits="userSpaceOnUse">
<stop stop-color="#F8E1B7"/>
<stop offset="1" stop-color="#91DDCF"/>
</linearGradient>
<linearGradient id="paint12_linear_114_5252" x1="0" y1="66.111" x2="220.37" y2="67.1603" gradientUnits="userSpaceOnUse">
<stop stop-color="#F8E1B7"/>
<stop offset="1" stop-color="#91DDCF"/>
</linearGradient>
<linearGradient id="paint13_linear_114_5252" x1="0" y1="66.111" x2="220.37" y2="67.1603" gradientUnits="userSpaceOnUse">
<stop stop-color="#F8E1B7"/>
<stop offset="1" stop-color="#91DDCF"/>
</linearGradient>
<linearGradient id="paint14_linear_114_5252" x1="0" y1="66.111" x2="220.37" y2="67.1603" gradientUnits="userSpaceOnUse">
<stop stop-color="#F8E1B7"/>
<stop offset="1" stop-color="#91DDCF"/>
</linearGradient>
<linearGradient id="paint15_linear_114_5252" x1="0" y1="66.111" x2="220.37" y2="67.1603" gradientUnits="userSpaceOnUse">
<stop stop-color="#F8E1B7"/>
<stop offset="1" stop-color="#91DDCF"/>
</linearGradient>
<linearGradient id="paint16_linear_114_5252" x1="0" y1="66.111" x2="220.37" y2="67.1603" gradientUnits="userSpaceOnUse">
<stop stop-color="#F8E1B7"/>
<stop offset="1" stop-color="#91DDCF"/>
</linearGradient>
<linearGradient id="paint17_linear_114_5252" x1="0" y1="66.111" x2="220.37" y2="67.1603" gradientUnits="userSpaceOnUse">
<stop stop-color="#F8E1B7"/>
<stop offset="1" stop-color="#91DDCF"/>
</linearGradient>
<linearGradient id="paint18_linear_114_5252" x1="0" y1="66.111" x2="220.37" y2="67.1603" gradientUnits="userSpaceOnUse">
<stop stop-color="#F8E1B7"/>
<stop offset="1" stop-color="#91DDCF"/>
</linearGradient>
<linearGradient id="paint19_linear_114_5252" x1="0" y1="66.111" x2="220.37" y2="67.1603" gradientUnits="userSpaceOnUse">
<stop stop-color="#F8E1B7"/>
<stop offset="1" stop-color="#91DDCF"/>
</linearGradient>
<linearGradient id="paint20_linear_114_5252" x1="0" y1="66.111" x2="220.37" y2="67.1603" gradientUnits="userSpaceOnUse">
<stop stop-color="#F8E1B7"/>
<stop offset="1" stop-color="#91DDCF"/>
</linearGradient>
<linearGradient id="paint21_linear_114_5252" x1="0" y1="66.111" x2="220.37" y2="67.1603" gradientUnits="userSpaceOnUse">
<stop stop-color="#F8E1B7"/>
<stop offset="1" stop-color="#91DDCF"/>
</linearGradient>
<linearGradient id="paint22_linear_114_5252" x1="0" y1="66.111" x2="220.37" y2="67.1603" gradientUnits="userSpaceOnUse">
<stop stop-color="#F8E1B7"/>
<stop offset="1" stop-color="#91DDCF"/>
</linearGradient>
<linearGradient id="paint23_linear_114_5252" x1="0" y1="66.111" x2="220.37" y2="67.1603" gradientUnits="userSpaceOnUse">
<stop stop-color="#F8E1B7"/>
<stop offset="1" stop-color="#91DDCF"/>
</linearGradient>
<linearGradient id="paint24_linear_114_5252" x1="0" y1="66.111" x2="220.37" y2="67.1603" gradientUnits="userSpaceOnUse">
<stop stop-color="#F8E1B7"/>
<stop offset="1" stop-color="#91DDCF"/>
</linearGradient>
<linearGradient id="paint25_linear_114_5252" x1="0" y1="66.111" x2="220.37" y2="67.1603" gradientUnits="userSpaceOnUse">
<stop stop-color="#F8E1B7"/>
<stop offset="1" stop-color="#91DDCF"/>
</linearGradient>
<linearGradient id="paint26_linear_114_5252" x1="0" y1="66.111" x2="220.37" y2="67.1603" gradientUnits="userSpaceOnUse">
<stop stop-color="#F8E1B7"/>
<stop offset="1" stop-color="#91DDCF"/>
</linearGradient>
<linearGradient id="paint27_linear_114_5252" x1="0" y1="66.111" x2="220.37" y2="67.1603" gradientUnits="userSpaceOnUse">
<stop stop-color="#F8E1B7"/>
<stop offset="1" stop-color="#91DDCF"/>
</linearGradient>
<linearGradient id="paint28_linear_114_5252" x1="0" y1="66.111" x2="220.37" y2="67.1603" gradientUnits="userSpaceOnUse">
<stop stop-color="#F8E1B7"/>
<stop offset="1" stop-color="#91DDCF"/>
</linearGradient>
<linearGradient id="paint29_linear_114_5252" x1="0" y1="66.111" x2="220.37" y2="67.1603" gradientUnits="userSpaceOnUse">
<stop stop-color="#F8E1B7"/>
<stop offset="1" stop-color="#91DDCF"/>
</linearGradient>
<linearGradient id="paint30_linear_114_5252" x1="0" y1="66.111" x2="220.37" y2="67.1603" gradientUnits="userSpaceOnUse">
<stop stop-color="#F8E1B7"/>
<stop offset="1" stop-color="#91DDCF"/>
</linearGradient>
<linearGradient id="paint31_linear_114_5252" x1="0" y1="66.111" x2="220.37" y2="67.1603" gradientUnits="userSpaceOnUse">
<stop stop-color="#F8E1B7"/>
<stop offset="1" stop-color="#91DDCF"/>
</linearGradient>
<linearGradient id="paint32_linear_114_5252" x1="0" y1="66.111" x2="220.37" y2="67.1603" gradientUnits="userSpaceOnUse">
<stop stop-color="#F8E1B7"/>
<stop offset="1" stop-color="#91DDCF"/>
</linearGradient>
</defs>
</svg>
