<svg width="34" height="30" viewBox="0 0 34 30" fill="none" xmlns="http://www.w3.org/2000/svg">
<path d="M2.71299 0.212983C2.71299 0.212983 2.6341 0.251122 2.43687 0.251122C2.27909 0.28926 2.00297 0.365537 1.72685 0.518091C1.6874 0.518091 1.64796 0.55623 1.60851 0.594368C1.56907 0.594368 1.52962 0.632507 1.49017 0.632507C1.41128 0.708784 1.33239 0.785061 1.2535 0.8232C1.17461 0.899477 1.09572 0.975754 1.01682 1.09017C0.977379 1.12831 0.937933 1.16645 0.898487 1.20458C0.859041 1.28086 0.859041 1.319 0.819596 1.35714C0.701258 1.58597 0.582921 1.85294 0.543475 2.11991C0.543475 2.15805 0.543475 2.19619 0.543475 2.23433C0.543475 2.27246 0.543475 2.3106 0.543475 2.34874C0.543475 2.38688 0.543475 2.42502 0.543475 2.46316C0.543475 2.5013 0.543475 2.53943 0.543475 2.57757C0.543475 2.73013 0.543475 2.88268 0.543475 3.07337C0.543475 3.53104 0.543475 3.9887 0.543475 4.4845C0.543475 4.9803 0.582921 5.51424 0.543475 6.08632C0.504029 6.6584 0.661812 7.26861 0.543475 7.87883C0.504029 8.48904 0.543475 9.17554 0.543475 9.86203C0.543475 10.5485 0.504029 11.2732 0.543475 11.9978C0.661812 12.7224 0.425138 13.5233 0.543475 14.3242C0.582921 15.1251 0.582921 15.9261 0.543475 16.8032C0.464584 17.6423 0.543475 18.5195 0.543475 19.4348C0.425138 20.3501 0.504029 21.2655 0.543475 22.1808C0.464584 22.6384 0.464584 23.1342 0.464584 23.63C0.464584 23.8589 0.464584 24.1258 0.504029 24.3547C0.504029 24.4691 0.504029 24.5835 0.543475 24.7361C0.543475 24.8123 0.543475 24.8505 0.582921 24.8886C0.582921 24.9268 0.582921 24.9268 0.582921 24.9649L0.622367 25.0412C0.661812 25.27 0.740704 25.4607 0.819596 25.6514C0.937933 25.8421 1.05627 26.0328 1.2535 26.1853C1.41128 26.3379 1.60851 26.4523 1.84519 26.5667C2.16075 26.6048 2.39743 26.643 2.6341 26.643C2.75244 26.643 2.87078 26.643 3.02856 26.643C3.1469 26.643 3.30468 26.643 3.42302 26.643C3.69914 26.643 3.97526 26.643 4.25138 26.643C4.80362 26.643 5.35586 26.643 5.9081 26.643C7.01258 26.5667 8.15651 26.5667 9.30044 26.643C10.4444 26.5667 11.6277 26.6048 12.8111 26.643C13.9945 26.6811 15.2173 26.5667 16.4401 26.643C17.6629 26.643 18.8858 26.6048 20.148 26.643C21.4103 26.6811 22.6726 26.7193 23.9348 26.643C25.2365 26.6048 26.4988 26.6048 27.84 26.643C27.9977 26.643 28.1555 26.6048 28.3133 26.6048H28.55C28.5894 26.6048 28.6289 26.6048 28.6683 26.6048L28.7866 26.5667C29.0628 26.5286 29.2994 26.4142 29.5361 26.2616C30.0095 25.9565 30.325 25.4988 30.4434 24.9268C30.4434 24.8505 30.4434 24.7742 30.4434 24.7361V24.5072C30.4434 24.3547 30.4434 24.2021 30.4434 24.0114C30.4434 23.6682 30.4434 23.3631 30.4434 23.0198C30.4434 22.3715 30.4434 21.7231 30.4434 21.0748C30.4434 20.9222 30.4434 20.7697 30.4434 20.6171V20.4645H29.97C29.6939 20.4645 29.4572 20.4645 29.1811 20.4645C28.6683 20.4645 28.1161 20.4645 27.6033 20.4645C27.1694 20.4645 26.7355 20.4645 26.3016 20.4264C26.1043 20.4264 25.8677 20.4264 25.6704 20.4264C25.3549 20.4264 25.0393 20.4264 24.7237 20.4264C24.7237 20.1976 24.7237 20.0069 24.7237 19.7781V19.3967C24.7237 19.1678 24.7237 18.9009 24.6843 18.672C24.6843 18.3669 24.6448 18.0618 24.6448 17.7567C24.6448 17.6042 24.6448 17.4516 24.6448 17.299C24.6448 17.0321 24.6448 16.7651 24.6448 16.4981H25.5521C25.7493 16.4981 25.9071 16.4981 26.1043 16.4981C26.4594 16.4981 26.8144 16.4981 27.1694 16.4981C27.7611 16.5363 28.3922 16.5363 28.9839 16.5363C29.2994 16.5363 29.5756 16.5363 29.8911 16.4981C30.0489 16.4981 30.2067 16.4981 30.325 16.4981H30.4039V16.46C30.4039 16.3074 30.4039 16.1549 30.4039 16.0023C30.4039 15.8498 30.4039 15.6972 30.4039 15.5447C30.4039 15.2396 30.4039 14.9345 30.4039 14.5912C30.4039 13.981 30.4039 13.3326 30.4039 12.7224C30.4039 12.3029 30.4039 11.9215 30.4039 11.502C30.4039 11.3113 30.4039 11.0825 30.4039 10.8918V10.6248H30.1278C29.8911 10.6248 29.6939 10.6248 29.4967 10.6248C28.2344 10.7774 27.0116 10.5867 25.7888 10.6248H25.3943C25.1971 10.6248 24.9604 10.6248 24.7632 10.6248C24.7632 10.4341 24.7632 10.2053 24.7632 10.0146C24.7632 9.90017 24.7632 9.78576 24.7632 9.6332C24.7632 9.40437 24.7632 9.17554 24.7632 8.94671C24.7632 8.48905 24.7632 8.03138 24.7632 7.57372V7.23047C24.7632 7.07792 24.7632 6.92536 24.7632 6.77281C24.9999 6.77281 25.1971 6.77281 25.4338 6.77281C25.5521 6.77281 25.7099 6.77281 25.8282 6.77281C26.0649 6.77281 26.341 6.77281 26.5777 6.77281C27.0905 6.77281 27.5638 6.77281 28.0372 6.77281C28.5105 6.77281 28.9839 6.77281 29.4178 6.77281C29.6545 6.77281 29.8911 6.77281 30.1278 6.77281C30.2461 6.77281 30.325 6.77281 30.4434 6.77281C30.4828 6.77281 30.4828 6.77281 30.5223 6.77281C30.5223 6.77281 30.5223 6.73467 30.5223 6.69653V6.4677C30.4434 5.39982 30.6012 4.33194 30.5223 3.3022C30.5223 3.03523 30.5223 2.8064 30.5223 2.53943C30.5223 2.5013 30.5223 2.46316 30.5223 2.46316V2.38688C30.5223 2.34874 30.5223 2.27246 30.5223 2.23433V2.15805C30.5223 2.11991 30.5223 2.11991 30.4828 2.08177C30.4828 2.04363 30.4434 1.96736 30.4434 1.92922C30.4039 1.89108 30.4039 1.8148 30.3645 1.77666L30.2856 1.62411L30.0884 1.35714C30.0489 1.319 30.0095 1.28086 29.97 1.20458C29.8122 1.01389 29.6545 0.861338 29.4572 0.746923C29.2994 0.594368 29.0628 0.518091 28.8655 0.441814C28.8261 0.441814 28.8261 0.441814 28.7866 0.403676H28.7078C28.6683 0.403676 28.5894 0.365537 28.55 0.365537C28.5105 0.365537 28.4316 0.365537 28.3922 0.365537H28.195C27.6822 0.365537 27.2088 0.403676 26.696 0.403676C25.7099 0.403676 24.7632 0.479953 23.8559 0.403676C22.9092 0.403676 22.0414 0.327399 21.1342 0.403676C20.2664 0.403676 19.3986 0.251122 18.5702 0.403676C17.7418 0.441814 16.9529 0.28926 16.164 0.403676C15.4145 0.479953 14.6651 0.403676 13.955 0.403676C13.245 0.403676 12.5744 0.403676 11.9039 0.403676C8.98487 0.365537 6.69702 0.327399 5.11918 0.28926C4.33027 0.28926 3.73858 0.251122 3.34413 0.251122C2.94967 0.251122 2.71299 0.212983 2.71299 0.212983C2.71299 0.212983 2.98911 0.174845 3.46246 0.174845C3.97526 0.174845 4.68528 0.136706 5.67143 0.136706C7.60427 0.0985675 10.4049 0.0604289 13.955 0.0604289C14.6651 0.0604289 15.4145 -0.0158481 16.164 0.0604289C16.9135 0.0604289 17.7418 -0.0158481 18.5702 0.0604289C19.3986 -0.0539867 20.2269 0.0222904 21.1342 0.0604289C22.002 0.0604289 22.9092 0.0985675 23.8559 0.0604289C24.8026 -0.0158481 25.7493 0.0985675 26.696 0.0604289C27.1694 0.0985675 27.6822 0.0985675 28.195 0.0985675H28.3922C28.4711 0.0985675 28.5105 0.0985675 28.5894 0.0985675C28.6683 0.0985675 28.7472 0.0985675 28.7866 0.0985675H28.905C28.9444 0.0985675 28.9839 0.0985675 29.0233 0.136706C29.2994 0.174845 29.5756 0.28926 29.8122 0.441814C30.0489 0.594368 30.2461 0.785061 30.4434 1.01389C30.4434 0.975754 30.4828 1.01389 30.5223 1.09017L30.6406 1.28086L30.7195 1.47155C30.7589 1.54783 30.7589 1.58597 30.7984 1.66225C30.8378 1.70039 30.8773 1.77666 30.8773 1.85294C30.8773 1.89108 30.9167 1.92922 30.9167 1.96736V2.08177C30.9167 2.15805 30.9562 2.23433 30.9562 2.3106V2.42502C30.9562 2.46316 30.9562 2.5013 30.9562 2.53943C30.9562 2.8064 30.9562 3.03523 30.9562 3.3022C30.8378 4.33194 30.9167 5.39982 30.9562 6.4677V6.84909C30.9562 7.03978 30.9562 7.19233 30.9562 7.38303C30.6406 7.38303 30.2856 7.38303 29.97 7.38303C29.7333 7.38303 29.4967 7.38303 29.26 7.38303C28.7867 7.38303 28.3133 7.38303 27.8794 7.38303C27.4061 7.38303 26.8933 7.38303 26.4199 7.38303C26.0254 7.38303 25.631 7.38303 25.2365 7.38303V7.57372C25.2365 8.03138 25.276 8.48905 25.276 8.94671C25.276 9.17554 25.276 9.40437 25.276 9.6332C25.276 9.74762 25.276 9.86203 25.276 9.97645V10.0146H25.3154C25.4338 10.0146 25.5521 10.0146 25.6704 10.0146C26.8933 9.97645 28.1161 10.0146 29.3783 10.0146C29.5756 10.0146 29.8122 10.0146 30.0095 10.0146C30.1278 10.0146 30.2461 10.0146 30.4039 10.0146C30.6012 10.0146 30.7984 10.0146 31.0351 10.0146C31.0351 10.3197 31.0351 10.6248 31.0351 10.9681C31.0351 11.1587 31.0351 11.3876 31.0351 11.5783C31.0351 11.9978 31.0351 12.3792 31.0351 12.7987C31.0351 13.4089 31.0351 14.0573 30.9956 14.6675C30.9956 14.9726 30.9956 15.2777 30.9956 15.6209C30.9956 15.7735 30.9956 15.9261 30.9956 16.0786V16.3074C30.9956 16.3837 30.9956 16.46 30.9956 16.5363C30.9956 16.7651 30.9956 16.9939 30.9956 17.2228C30.6012 17.2228 30.1673 17.2228 29.7728 17.2228C29.4572 17.2228 29.1811 17.2228 28.8655 17.2228C28.2739 17.2228 27.6822 17.2228 27.051 17.2228C26.4594 17.2228 25.8282 17.2228 25.2365 17.2228C25.2365 17.4135 25.2365 17.6042 25.2365 17.7948C25.2365 18.1 25.2365 18.4051 25.2365 18.7102C25.1971 18.939 25.1971 19.206 25.1971 19.4348V19.7781C25.1971 19.8162 25.1971 19.8543 25.1971 19.8925C25.2365 19.8925 25.2365 19.8925 25.276 19.8925H25.5521C25.7493 19.8925 25.986 19.8925 26.1832 19.8925C26.6171 19.8925 27.051 19.8543 27.4849 19.8543C27.9977 19.8543 28.55 19.8543 29.0628 19.8543C29.6939 19.8543 30.3645 19.8543 30.9956 19.8543C30.9956 20.1213 30.9956 20.3883 30.9956 20.6552C30.9956 20.8078 30.9956 20.9603 30.9956 21.1129C30.9956 21.7613 30.9956 22.4096 30.9956 23.058C30.9956 23.4012 30.9956 23.7063 30.9956 24.0496C30.9956 24.2021 30.9956 24.3547 30.9956 24.5454V24.7742C30.9956 24.8505 30.9956 24.9649 30.9956 25.0412C30.9562 25.4226 30.8378 25.7658 30.6406 26.0709C30.4434 26.376 30.1673 26.643 29.8517 26.8718C29.5361 27.0625 29.1811 27.2151 28.7866 27.2532L28.6289 27.2913C28.5894 27.2913 28.55 27.2913 28.4711 27.2913H28.195C28.0372 27.2913 27.8794 27.2913 27.7216 27.2913C26.4199 27.3295 25.1182 27.2532 23.8165 27.2913C22.5148 27.3295 21.2525 27.3295 20.0297 27.2913C18.7674 27.2913 17.5446 27.1769 16.3218 27.2913C15.099 27.3295 13.9156 27.4439 12.6928 27.2913C11.5094 27.3295 10.326 27.2151 9.1821 27.2913C8.03817 27.1769 6.89425 27.2913 5.78976 27.2913C5.23752 27.2913 4.68528 27.2532 4.13304 27.2532C3.85692 27.2532 3.5808 27.2532 3.30468 27.2532C3.18634 27.2532 3.02856 27.2532 2.91022 27.2532H2.71299C2.67355 27.2532 2.6341 27.2532 2.59466 27.2532H2.47632C2.16075 27.2532 1.88463 27.1769 1.60851 27.0625C1.33239 26.9481 1.09572 26.7955 0.859041 26.6048C0.661812 26.4142 0.464584 26.1853 0.346246 25.9184C0.227909 25.6514 0.109572 25.3844 0.0701258 25.1174L0.0306801 25.003C0.0306801 24.9649 0.0306801 24.9268 0.0306801 24.8886V24.7742C0.0306801 24.7361 0.0306801 24.6979 0.0306801 24.6598C0.0306801 24.5454 0.0306801 24.431 0.0306801 24.2784C0.0306801 24.0496 0.0306801 23.7826 0.0701258 23.5538C0.109572 23.058 0.109572 22.6003 0.0701258 22.1045C0.0701258 21.151 0.0701258 20.2357 0.0701258 19.3585C-0.0876573 18.4432 0.0701258 17.6042 0.0701258 16.727C0.109572 15.8879 -0.0482115 15.0489 0.0701258 14.248C-0.0482115 13.4471 0.0701258 12.6843 0.0701258 11.9215C0.109572 11.1969 0.0306801 10.4722 0.0701258 9.78576C-0.00876573 9.09926 0.109572 8.45091 0.0701258 7.80255C0.109572 7.19234 0.0701258 6.58212 0.0701258 6.01004C0.0701258 5.43796 0.0701258 4.90402 0.0701258 4.40822C0.0701258 3.91242 0.0701258 3.41662 0.0701258 2.9971C0.0701258 2.84454 0.0701258 2.65385 0.0701258 2.5013C0.0701258 2.46316 0.0701258 2.42502 0.0701258 2.38688C0.0701258 2.34874 0.0701258 2.3106 0.0701258 2.27246C0.0701258 2.23433 0.0701258 2.19619 0.0701258 2.15805C0.0701258 2.11991 0.0701258 2.08177 0.0701258 2.04363C0.385692 1.77666 0.504029 1.50969 0.661812 1.28086C0.701258 1.24272 0.740704 1.16645 0.78015 1.12831C0.819596 1.09017 0.859041 1.01389 0.898487 0.975754C0.977379 0.899477 1.05627 0.785061 1.13516 0.746923C1.21405 0.670645 1.29294 0.632507 1.41128 0.55623C1.45073 0.518091 1.49017 0.518091 1.52962 0.479953C1.56907 0.441814 1.60851 0.441814 1.64796 0.403676C1.96352 0.251122 2.27909 0.212983 2.43687 0.212983C2.6341 0.174845 2.71299 0.212983 2.71299 0.212983Z" fill="#73523F"/>
<path d="M5.04029 3.87428C5.04029 3.87428 4.9614 3.91242 4.84307 3.91242C4.72473 3.95056 4.5275 3.9887 4.29082 4.10311C4.25138 4.14125 4.17249 4.17939 4.13304 4.21753C4.0936 4.25567 4.0147 4.29381 3.97526 4.37008C3.93581 4.40822 3.85692 4.4845 3.81747 4.52264C3.77803 4.59892 3.69914 4.63705 3.65969 4.71333C3.5808 4.86588 3.50191 5.05658 3.46246 5.24727C3.46246 5.28541 3.46246 5.36169 3.46246 5.39982C3.46246 5.43796 3.46246 5.51424 3.46246 5.55238C3.46246 5.66679 3.46246 5.78121 3.46246 5.89563C3.46246 6.20073 3.46246 6.54398 3.46246 6.92537C3.46246 7.30675 3.50191 7.68814 3.46246 8.06952C3.42302 8.48905 3.5808 8.90857 3.46246 9.36623C3.42302 9.82389 3.46246 10.2816 3.46246 10.7774C3.46246 11.2732 3.42302 11.8071 3.46246 12.341C3.5808 12.875 3.34413 13.4471 3.46246 14.0191C3.50191 14.5912 3.50191 15.2014 3.46246 15.8116C3.38357 16.4219 3.46246 17.0702 3.46246 17.7186C3.34413 18.3669 3.42302 19.0153 3.46246 19.7018C3.38357 20.045 3.38357 20.3883 3.38357 20.7315C3.38357 20.9222 3.38357 21.0748 3.42302 21.2655C3.42302 21.3417 3.42302 21.4561 3.46246 21.5324C3.46246 21.5706 3.46246 21.6087 3.50191 21.685L3.54135 21.7994C3.65969 22.0664 3.77803 22.3715 3.97526 22.6003C4.17249 22.8291 4.48805 22.9817 4.84307 22.9817C4.88251 22.9817 4.92196 22.9817 4.9614 22.9817H5.11919C5.19808 22.9817 5.31641 22.9817 5.39531 22.9817C5.59253 22.9817 5.78976 22.9817 5.98699 22.9817C6.38145 22.9817 6.77591 22.9817 7.17037 22.9817C7.95928 22.9054 8.78764 22.9054 9.616 22.9817C10.4444 22.9054 11.2727 22.9436 12.1405 22.9817C13.0083 23.0198 13.8761 22.9054 14.744 22.9817C15.6118 22.9817 16.519 22.9436 17.4263 22.9817C18.3335 23.0198 19.2408 23.058 20.1875 22.9817C21.0947 22.9436 22.0414 22.9436 22.9881 22.9817C23.9348 22.8673 24.8815 22.9436 25.8677 22.9817C25.986 22.9817 26.1043 22.9817 26.2227 22.9817C26.3016 22.9817 26.4199 22.9436 26.4988 22.9436C26.696 22.9054 26.8538 22.791 27.0116 22.6766C27.1694 22.5622 27.2877 22.4096 27.3666 22.2189C27.3666 22.1808 27.406 22.1426 27.406 22.0664C27.406 22.0282 27.4455 21.9901 27.4455 21.9138V21.8375C27.4455 21.7994 27.4455 21.7994 27.4455 21.7613C27.4455 21.7231 27.4455 21.685 27.4455 21.6087C27.4455 21.3799 27.4455 21.1129 27.4455 20.8841C27.4455 20.7697 27.4455 20.6552 27.4455 20.5408V20.5027H27.0905C26.8538 20.5027 26.6171 20.5027 26.3805 20.5027C26.1438 20.5027 25.9071 20.5027 25.7099 20.4645H25.3549C25.1576 20.4645 24.9604 20.4645 24.7632 20.4645C24.7632 20.2357 24.7632 20.0069 24.7632 19.7781C24.7632 19.6636 24.7632 19.5111 24.7632 19.3967C24.7632 19.1297 24.7632 18.9009 24.7237 18.6339C24.6843 18.3288 24.6843 18.0618 24.6843 17.7567C24.6843 17.3372 24.6843 16.9558 24.6843 16.5363C24.9999 16.5363 25.276 16.5363 25.5915 16.5363C25.7888 16.5363 25.9466 16.5363 26.1438 16.5363C26.4199 16.5744 26.7355 16.5744 27.0116 16.5744C27.1694 16.5744 27.2877 16.5744 27.4455 16.5744C27.4849 16.5744 27.4849 16.5744 27.4849 16.5744H27.5638V16.3456C27.5638 16.1549 27.5638 15.9642 27.5638 15.7735C27.5638 14.8582 27.6033 13.9429 27.5638 13.0657C27.5638 12.608 27.5638 12.1885 27.5638 11.7308C27.5638 11.502 27.5638 11.2732 27.5638 11.0825C27.5638 10.9681 27.5638 10.8536 27.5638 10.7392V10.7011C27.5244 10.7011 27.5244 10.7392 27.5244 10.7392H27.406C27.3666 10.7392 27.2877 10.7392 27.2483 10.7392C27.0116 10.7392 26.8144 10.7392 26.5777 10.7392C26.341 10.7392 26.1438 10.7011 25.9071 10.7011C25.7888 10.7011 25.7099 10.7011 25.5915 10.7011H25.1182C24.9999 10.7011 24.8815 10.7011 24.7632 10.7011C24.7632 10.5104 24.7632 10.3578 24.7632 10.1671C24.7632 10.0527 24.7632 9.93831 24.7632 9.82389C24.7632 9.6332 24.7632 9.44251 24.7632 9.25182C24.7632 8.87043 24.7237 8.48905 24.7632 8.10766C24.7632 7.95511 24.7632 7.80255 24.7632 7.61186C24.7632 7.34489 24.7632 7.07792 24.7632 6.84909C25.1182 6.84909 25.4732 6.84909 25.8282 6.88723C26.0649 6.88723 26.341 6.88723 26.5777 6.88723C26.8144 6.88723 27.0116 6.88723 27.2088 6.88723H27.5244C27.5244 6.84909 27.5244 6.84909 27.5244 6.81095C27.5244 6.73467 27.5244 6.6584 27.5244 6.62026C27.5244 6.42956 27.5244 6.23887 27.5638 6.04818C27.5638 5.93376 27.5638 5.85749 27.5638 5.74307V5.66679C27.5638 5.62866 27.5638 5.62866 27.5638 5.59052V5.4761C27.5638 5.32355 27.5244 5.17099 27.4455 5.01844C27.3272 4.71333 27.0905 4.4845 26.7749 4.37008C26.6171 4.29381 26.4594 4.25567 26.3016 4.25567L26.1438 4.14125H25.9071C25.8282 4.14125 25.7099 4.14125 25.631 4.14125C25.2365 4.14125 24.8815 4.14125 24.5265 4.14125C23.777 4.02684 23.067 4.10311 22.357 4.14125C21.647 4.14125 20.9764 4.21753 20.3058 4.14125C19.6352 4.14125 18.9647 4.06498 18.3335 4.14125C17.7024 4.14125 17.0713 3.9887 16.4796 4.14125C15.8879 4.17939 15.2962 4.02684 14.744 4.14125C14.1917 4.21753 13.6395 4.14125 13.1267 4.14125C12.6139 4.14125 12.1405 4.14125 11.6672 4.14125C9.53711 4.10311 7.88039 4.10311 6.77591 4.06498C6.22367 4.06498 5.78976 4.02684 5.4742 4.02684C5.15863 3.87428 5.04029 3.87428 5.04029 3.87428C5.04029 3.87428 5.23752 3.83614 5.59254 3.83614C5.94755 3.83614 6.49979 3.79801 7.17037 3.79801C8.55097 3.75987 10.6021 3.72173 13.1661 3.72173C13.6789 3.72173 14.2312 3.64545 14.7834 3.72173C15.3356 3.72173 15.9273 3.64545 16.519 3.72173C17.1107 3.60731 17.7418 3.72173 18.373 3.72173C19.0041 3.72173 19.6747 3.75987 20.3453 3.72173C21.0158 3.64545 21.6864 3.75987 22.3964 3.72173C23.1065 3.79801 23.8165 3.75987 24.566 3.72173C24.921 3.75987 25.3154 3.75987 25.6704 3.72173C25.7493 3.72173 25.8677 3.72173 25.9466 3.72173H26.2621C26.4988 3.72173 26.696 3.75987 26.9327 3.87428C27.3272 4.10311 27.6427 4.40822 27.8794 4.78961C27.9977 4.9803 28.0766 5.20913 28.0766 5.39982C28.0766 5.43796 28.0766 5.51424 28.0766 5.55238C28.0766 5.59052 28.0766 5.59052 28.0766 5.62865V5.70493C28.0766 5.81935 28.0766 5.89563 28.0766 6.01004C28.0766 6.20073 28.0766 6.39143 28.0766 6.58212C28.0766 6.84909 28.0766 7.1542 28.0766 7.45931C27.7611 7.45931 27.4455 7.45931 27.1299 7.45931C26.9327 7.45931 26.696 7.45931 26.4988 7.45931C26.2621 7.45931 25.986 7.45931 25.7493 7.45931C25.631 7.45931 25.5127 7.45931 25.3549 7.45931H25.276V7.65C25.276 7.80255 25.276 7.95511 25.276 8.1458C25.3154 8.52718 25.3154 8.90857 25.3154 9.28996C25.3154 9.48065 25.3154 9.67134 25.3154 9.86203L25.3154 10.0146L25.3154 10.129C25.3154 10.129 25.3154 10.129 25.3549 10.129H25.5127C25.631 10.129 25.7099 10.129 25.8282 10.129C26.0254 10.129 26.2621 10.129 26.4988 10.129C26.7355 10.129 26.9327 10.129 27.1694 10.129C27.4849 10.129 27.84 10.129 28.1555 10.129C28.1555 10.1671 28.1555 10.2053 28.1555 10.2434C28.1555 10.4341 28.1555 10.6248 28.1555 10.8536C28.1555 10.9681 28.1555 11.0825 28.1555 11.1969C28.1555 11.4257 28.1555 11.6545 28.1555 11.8452C28.1555 12.3029 28.1555 12.7224 28.1555 13.1801C28.195 14.0573 28.0372 14.9726 28.1555 15.8879C28.1555 16.0786 28.1555 16.2693 28.1555 16.46C28.1555 16.7651 28.1555 17.0321 28.1555 17.3372C27.7611 17.3372 27.3666 17.3372 26.9721 17.3372C26.696 17.3372 26.3805 17.3372 26.1043 17.3372C25.9071 17.3372 25.7493 17.3372 25.5521 17.3372H25.3943C25.3549 17.3372 25.3549 17.3372 25.3549 17.3372H25.3154V17.4516C25.3154 17.6042 25.3154 17.7567 25.3154 17.8711C25.3154 18.1762 25.3154 18.4432 25.3154 18.7483C25.276 19.0153 25.276 19.2441 25.276 19.5111C25.276 19.6255 25.276 19.7781 25.276 19.8925L25.276 20.0069C25.3154 20.0069 25.3549 20.0069 25.3549 20.0069H25.631C25.8677 20.0069 26.1043 19.9687 26.3016 19.9687C26.5382 19.9687 26.7749 19.9687 27.0116 19.9687C27.1299 19.9687 27.2877 19.9687 27.406 19.9687C27.6427 19.9687 27.8794 19.9687 28.1161 19.9687C28.1161 20.1976 28.1161 20.4264 28.1161 20.6934C28.1161 20.8078 28.1161 20.9603 28.1161 21.0748C28.1161 21.3036 28.1161 21.5706 28.1161 21.7994C28.1161 21.8375 28.1161 21.9519 28.1161 21.9901C28.1161 22.0282 28.1161 22.0664 28.1161 22.1045V22.2189C28.1161 22.2952 28.0766 22.3715 28.0766 22.4096C28.0372 22.4859 28.0372 22.5622 27.9977 22.6003C27.8794 22.8673 27.7216 23.0961 27.4849 23.2868C27.2483 23.4775 27.0116 23.63 26.7355 23.7063C26.5382 23.5538 26.3805 23.5919 26.2621 23.5919C26.1043 23.5919 25.986 23.5919 25.8677 23.5919C24.921 23.63 23.9348 23.5538 22.9881 23.5919C22.0414 23.63 21.0947 23.5538 20.1875 23.5919C19.2802 23.63 18.3335 23.63 17.4263 23.5919C16.519 23.5919 15.6118 23.4775 14.744 23.5919C13.8761 23.63 13.0083 23.7445 12.1405 23.5919C11.2727 23.63 10.4444 23.5156 9.616 23.5919C8.78764 23.4775 7.95928 23.5919 7.17037 23.5919C6.77591 23.5919 6.38145 23.5538 5.98699 23.5538C5.78976 23.5538 5.59253 23.5538 5.39531 23.5538C5.31641 23.5538 5.19808 23.5538 5.11919 23.5538H4.9614C4.92196 23.5538 4.84307 23.5538 4.80362 23.5538C4.56694 23.5538 4.36972 23.4775 4.17249 23.3631C3.97526 23.2487 3.77803 23.1342 3.65969 22.9817C3.34413 22.6766 3.18634 22.2571 3.1469 21.8375C3.1469 21.7994 3.1469 21.7231 3.1469 21.685C3.1469 21.6468 3.1469 21.6087 3.1469 21.5324C3.1469 21.4561 3.1469 21.3417 3.1469 21.2655C3.1469 21.0748 3.1469 20.9222 3.18634 20.7315C3.22579 20.3883 3.22579 20.045 3.18634 19.7018C3.18634 19.0153 3.18634 18.3669 3.18634 17.7186C3.02856 17.0702 3.18634 16.4219 3.18634 15.8116C3.22579 15.2014 3.06801 14.5912 3.18634 14.0191C3.06801 13.4471 3.18634 12.875 3.18634 12.341C3.22579 11.8071 3.1469 11.2732 3.18634 10.7774C3.10745 10.2816 3.22579 9.82389 3.18634 9.36623C3.22579 8.90857 3.18634 8.48905 3.18634 8.06952C3.18634 7.65 3.18634 7.26861 3.18634 6.92537C3.18634 6.54398 3.18634 6.20073 3.18634 5.89563C3.18634 5.78121 3.18634 5.66679 3.18634 5.55238C3.18634 5.51424 3.18634 5.43796 3.18634 5.36169C3.18634 5.28541 3.18634 5.24727 3.22579 5.20913C3.26523 4.9803 3.34413 4.78961 3.46246 4.63705C3.54135 4.52264 3.62025 4.44636 3.65969 4.40822C3.73858 4.33195 3.77803 4.29381 3.85692 4.21753C3.93581 4.17939 3.97526 4.14125 4.05415 4.06498C4.13304 4.02684 4.17249 3.9887 4.25138 3.95056C4.48805 3.83614 4.68528 3.79801 4.84307 3.79801C4.9614 3.83614 5.04029 3.83614 5.04029 3.87428Z" fill="#73523F"/>
<path d="M15.5723 8.98485C15.5723 9.02299 15.2568 9.06112 14.6651 9.17554C14.6256 9.17554 14.5862 9.21368 14.5073 9.21368C14.4678 9.21368 14.3889 9.25182 14.3495 9.25182C14.3101 9.28996 14.2312 9.28996 14.1917 9.32809C14.1523 9.36623 14.0734 9.36623 14.0339 9.40437C13.955 9.40437 13.9156 9.44251 13.8762 9.48065C13.8367 9.51879 13.7578 9.55692 13.6789 9.55692C13.6 9.55692 13.5606 9.59506 13.4817 9.6332C13.4028 9.67134 13.3634 9.70948 13.2845 9.74762C13.2056 9.78576 13.1661 9.82389 13.0872 9.86203C13.0083 9.90017 12.9689 9.93831 12.89 10.0146C12.8506 10.0909 12.7717 10.129 12.6928 10.1671C12.6139 10.2053 12.535 10.2434 12.4955 10.3578C12.3772 10.5104 12.2589 10.6248 12.1405 10.7392C11.9433 10.8155 11.9039 11.0062 11.825 11.1969C11.6277 11.3113 11.5488 11.502 11.5488 11.6927C11.3516 11.8071 11.2727 12.0359 11.3122 12.2648C11.2727 12.4555 11.1544 12.6461 11.1544 12.875C11.1544 13.0657 11.1544 13.2945 11.1149 13.4852C11.1938 13.714 11.1938 13.9047 11.1544 14.1717C11.2727 14.4005 11.3122 14.5912 11.3122 14.8582C11.3122 14.9345 11.3516 14.9726 11.3516 15.0489C11.3911 15.087 11.3911 15.1633 11.4305 15.2014C11.5094 15.3158 11.5488 15.3921 11.5883 15.5447C11.7066 15.7735 11.8644 15.9642 11.9828 16.1549C12.1011 16.3837 12.2589 16.6126 12.4955 16.727C12.6928 16.8795 12.9295 17.0321 13.1267 17.1846C13.4028 17.2228 13.6 17.3753 13.8367 17.5279C14.1128 17.6042 14.3495 17.7567 14.6256 17.7567C14.9017 17.833 15.1779 17.7948 15.454 17.833C15.7301 17.8711 16.0457 17.8711 16.2823 17.7567C16.4007 17.6804 16.5585 17.6804 16.6768 17.6423C16.7557 17.6423 16.7951 17.6042 16.874 17.6042C16.9529 17.6042 16.9924 17.566 17.0713 17.5279C17.1501 17.5279 17.229 17.4897 17.2685 17.4897C17.3079 17.4897 17.3474 17.4516 17.3474 17.4516C17.3868 17.4516 17.3868 17.4135 17.4263 17.4135L17.5052 17.3753L17.5841 17.299C17.6235 17.2609 17.7024 17.2228 17.7418 17.1846C17.9785 17.0321 18.2152 16.9177 18.373 16.727C18.5702 16.5363 18.728 16.3456 18.8858 16.1549C18.8858 16.0023 18.9647 15.9261 19.083 15.8116C19.1224 15.7735 19.1619 15.7354 19.2013 15.6591C19.2408 15.621 19.2408 15.621 19.2408 15.5828C19.2408 15.5447 19.2802 15.5447 19.2802 15.5065C19.438 15.3158 19.4774 15.0489 19.5563 14.8582C19.5958 14.7438 19.6352 14.6294 19.6747 14.5149L19.7141 14.4387C19.7141 14.4005 19.7141 14.3624 19.7536 14.3624C19.7536 14.3242 19.7536 14.248 19.7536 14.1717C19.793 13.9429 19.7536 13.714 19.793 13.4852C19.7536 13.4471 19.7536 13.3708 19.7536 13.3326C19.7536 13.2945 19.7536 13.2182 19.7536 13.1801C19.7536 13.1419 19.7536 13.0657 19.7536 13.0275C19.7536 12.9894 19.7536 12.9131 19.7141 12.875C19.6747 12.6461 19.6352 12.4555 19.5563 12.2648C19.5563 12.1885 19.5563 12.1503 19.5563 12.1122C19.5563 12.0741 19.5169 11.9978 19.5169 11.9597C19.4774 11.9215 19.4775 11.8834 19.438 11.8452C19.3986 11.8071 19.3986 11.769 19.3591 11.7308C19.2802 11.5401 19.1224 11.4257 19.083 11.235C18.9647 11.0825 18.9252 10.8918 18.7674 10.7774C18.6885 10.7011 18.6885 10.6248 18.6096 10.5485C18.5702 10.4722 18.4913 10.396 18.373 10.396C18.2941 10.3578 18.2546 10.2816 18.2152 10.2053C18.1757 10.129 18.0968 10.0909 18.018 10.0909C17.9391 10.0909 17.8602 10.0527 17.8207 9.97645C17.7813 9.93831 17.7024 9.86203 17.6629 9.82389C17.5841 9.78576 17.5446 9.74762 17.4657 9.70948C17.3868 9.67134 17.3474 9.6332 17.2685 9.59506C16.9924 9.44251 16.7162 9.36623 16.4796 9.28996C16.2429 9.21368 16.0457 9.17554 15.8879 9.1374C15.7301 9.09926 15.5723 9.09926 15.4934 9.06112C15.6118 9.02299 15.5723 8.98485 15.5723 8.98485C15.5723 8.94671 15.809 8.90857 16.2429 8.94671C16.4401 8.94671 16.7162 8.98485 17.0318 9.06112C17.3474 9.1374 17.6629 9.25182 18.0574 9.44251C18.1363 9.48065 18.2152 9.51879 18.2941 9.55692C18.373 9.59506 18.4519 9.6332 18.4913 9.70948C18.5702 9.74762 18.6491 9.78576 18.728 9.86203C18.8069 9.90017 18.8858 9.97645 18.9252 10.0527C19.1224 10.0909 19.2408 10.3197 19.3591 10.4722C19.5169 10.6248 19.5958 10.8155 19.7536 10.9299C19.8325 11.0062 19.9114 11.0825 19.9508 11.1969C19.9902 11.3113 20.0297 11.3876 20.1086 11.502C20.148 11.7308 20.2664 11.9215 20.3847 12.1122C20.3847 12.341 20.5425 12.5699 20.5819 12.7987C20.503 13.0657 20.6214 13.2945 20.6608 13.5233C20.7003 13.7903 20.6214 14.0191 20.6214 14.2861C20.5819 14.5531 20.5425 14.82 20.4636 15.0489C20.4241 15.3158 20.3453 15.5828 20.148 15.8116C20.0297 16.0786 19.8719 16.3074 19.6747 16.5363C19.5169 16.8032 19.2802 16.9939 19.083 17.1846C18.9647 17.299 18.8463 17.3753 18.728 17.4516C18.6491 17.4897 18.6096 17.5279 18.5308 17.566C18.4913 17.6042 18.4124 17.6804 18.373 17.7186C18.1363 17.9093 17.8207 17.9855 17.5446 18.1381C17.229 18.2525 16.9529 18.3288 16.6374 18.4051C16.3218 18.3669 16.0062 18.4432 15.6907 18.4813C15.3751 18.5195 15.0201 18.4813 14.7045 18.4051C14.3889 18.3669 14.0734 18.2525 13.7973 18.1381C13.4817 18.0618 13.245 17.833 12.9689 17.7186C12.89 17.6804 12.8111 17.6423 12.7717 17.6042C12.6928 17.566 12.6533 17.5279 12.6139 17.4516C12.4955 17.3372 12.3772 17.2609 12.2589 17.1465C12.0222 16.9558 11.7855 16.7651 11.6672 16.4981C11.5883 16.3837 11.5094 16.2693 11.4305 16.1168C11.3911 16.0405 11.3516 16.0023 11.3122 15.9261C11.2727 15.8498 11.2333 15.8116 11.1938 15.7735C11.1149 15.6591 11.0361 15.5447 10.9572 15.4303C10.9177 15.354 10.8783 15.3158 10.8783 15.2396C10.8783 15.1633 10.8783 15.087 10.8783 15.0107C10.8388 14.8963 10.7994 14.7438 10.7994 14.6294C10.7994 14.5912 10.7994 14.5531 10.7994 14.5149C10.7994 14.4768 10.7994 14.4387 10.7994 14.4005C10.7994 14.3242 10.7599 14.2861 10.7599 14.2098C10.7599 14.1335 10.7994 14.0573 10.7994 14.0191C10.7994 13.9429 10.7994 13.9047 10.7994 13.8284C10.7994 13.7522 10.7599 13.714 10.7599 13.6377C10.7599 13.5615 10.7599 13.5233 10.7599 13.4471C10.7994 13.1801 10.8388 12.9513 10.8388 12.7224C10.8388 12.4555 10.9572 12.2648 11.0361 12.0359C11.0361 11.9597 11.0755 11.9215 11.0755 11.8834C11.1149 11.8452 11.1149 11.769 11.1544 11.7308C11.1938 11.6927 11.2333 11.6164 11.2333 11.5783C11.2727 11.5401 11.2727 11.4639 11.2727 11.4257C11.3911 11.235 11.47 11.0443 11.6277 10.8918C11.6277 10.7774 11.7066 10.6629 11.7855 10.6248C11.8644 10.5485 11.9433 10.5104 12.0222 10.4341C12.18 10.2816 12.2194 10.0909 12.4561 10.0146C12.4955 9.90017 12.5744 9.86203 12.6533 9.78576C12.7322 9.74762 12.8111 9.70948 12.89 9.67134C12.9689 9.6332 13.0478 9.55692 13.0872 9.51879C13.1661 9.48065 13.2056 9.40437 13.3239 9.40437C13.3634 9.32809 13.4422 9.28996 13.5211 9.28996C13.6 9.25182 13.6789 9.25182 13.7578 9.21368C13.9156 9.21368 14.0339 9.09926 14.1523 9.06112C14.2312 9.02299 14.2706 9.02299 14.3495 8.98485C14.4284 8.98485 14.4678 8.94671 14.5467 8.94671C14.5862 8.94671 14.6651 8.90857 14.7045 8.90857C14.744 8.90857 14.8228 8.87043 14.8623 8.87043C15.2173 8.87043 15.5723 8.94671 15.5723 8.98485Z" fill="#73523F"/>
<path d="M15.5723 10.9681C15.5723 11.0062 15.5329 11.0062 15.454 11.0443C15.4145 11.0443 15.3751 11.0825 15.2962 11.0825C15.2173 11.0825 15.1779 11.1206 15.099 11.1587C15.0595 11.1587 14.9806 11.1969 14.9412 11.235C14.9017 11.235 14.9017 11.2732 14.8623 11.2732C14.8228 11.2732 14.7834 11.3113 14.7834 11.3113C14.7045 11.2732 14.7045 11.4639 14.5862 11.3876C14.5073 11.3876 14.4284 11.4639 14.3889 11.502C14.3495 11.5783 14.2312 11.5401 14.1917 11.6545C14.1917 11.7308 14.1523 11.7308 14.0734 11.7308C14.0339 11.7308 13.955 11.769 13.9945 11.8452C13.955 11.8834 13.955 11.9215 13.9156 11.9597C13.8761 11.9978 13.8367 12.0359 13.7973 12.0741C13.7184 12.0741 13.7184 12.1122 13.6789 12.1885C13.6395 12.2266 13.6395 12.3029 13.6395 12.341C13.5211 12.3792 13.4817 12.4936 13.4817 12.608C13.4028 12.6461 13.3239 12.6843 13.3239 12.7224C13.3239 12.7606 13.3239 12.8368 13.3634 12.9131C13.3634 12.9513 13.3239 13.0275 13.2845 13.0657C13.2845 13.1038 13.2845 13.1038 13.245 13.1419C13.245 13.1801 13.245 13.2182 13.245 13.2182C13.245 13.2945 13.245 13.3326 13.245 13.4089C13.245 13.4852 13.245 13.5233 13.245 13.5996C13.2845 13.6759 13.3239 13.714 13.3239 13.7903C13.3239 13.8284 13.3239 13.8666 13.3239 13.8666C13.3239 13.9047 13.3239 13.9429 13.2845 13.9429C13.3239 13.981 13.3239 13.981 13.3634 14.0191V14.0954C13.3634 14.1717 13.3634 14.2098 13.3634 14.2861C13.3634 14.3624 13.4028 14.4005 13.4422 14.4768C13.4817 14.5149 13.5211 14.5912 13.5211 14.6675C13.5211 14.6675 13.5211 14.7056 13.5606 14.7056C13.5606 14.7056 13.5606 14.7438 13.6 14.7438L13.6395 14.82C13.6789 14.8582 13.7184 14.9345 13.7578 14.9726C13.7578 15.0107 13.7973 15.0489 13.7973 15.087C13.7973 15.1252 13.8367 15.1633 13.8367 15.1633C13.8761 15.2014 13.8761 15.2014 13.9156 15.2396C13.955 15.2777 13.9945 15.2777 14.0339 15.2777C14.1128 15.3158 14.1523 15.354 14.2312 15.3921C14.3101 15.4303 14.3495 15.4684 14.3889 15.5447C14.5467 15.5447 14.6651 15.621 14.7834 15.7354C14.8623 15.7354 14.9017 15.7735 14.9806 15.8116C15.0595 15.8498 15.1384 15.8498 15.2173 15.8498C15.2962 15.8498 15.3751 15.8879 15.454 15.8879C15.5329 15.8879 15.6118 15.8879 15.6907 15.9261C15.7695 15.9261 15.8484 15.9642 15.9273 15.9642C16.0062 15.9642 16.0851 15.9261 16.1246 15.8879C16.2034 15.8498 16.2429 15.8116 16.3218 15.8116C16.4007 15.8116 16.4796 15.7735 16.519 15.7735C16.5585 15.7735 16.5979 15.7735 16.6374 15.7735C16.6768 15.7735 16.7162 15.7354 16.7162 15.7354L16.6768 15.5828L16.7162 15.5447C16.7557 15.5065 16.7557 15.5065 16.7951 15.5065C16.874 15.4684 16.9135 15.4303 16.9924 15.3921C17.0713 15.354 17.1107 15.3158 17.1501 15.2396C17.1896 15.2014 17.1896 15.2014 17.229 15.1633C17.2685 15.1252 17.2685 15.1252 17.3079 15.087C17.3474 15.0489 17.3474 15.0489 17.3868 15.0107C17.4263 14.9726 17.4263 14.9726 17.4657 14.9345C17.4657 14.82 17.5052 14.7819 17.5446 14.7438C17.5841 14.7056 17.5841 14.7056 17.6235 14.6675L17.6629 14.6294V14.5912C17.7024 14.5531 17.7418 14.4768 17.7813 14.4387C17.7813 14.3624 17.8207 14.3242 17.8207 14.248C17.8207 14.1717 17.8602 14.1335 17.8996 14.0573C17.8996 14.0573 17.8996 14.0191 17.9391 14.0191V13.981C17.9391 13.9429 17.9391 13.9047 17.9391 13.9047C17.9391 13.8666 17.9391 13.8284 17.9391 13.8284C17.9391 13.7903 17.9391 13.7522 17.9391 13.7522C17.9391 13.6759 17.9391 13.6377 17.9785 13.5615C17.9391 13.4852 17.9391 13.4471 17.9785 13.3708C17.9785 13.2945 18.018 13.2564 17.9785 13.1801C17.9785 13.1419 17.9785 13.1419 17.9785 13.1038C17.9785 13.0657 17.9785 13.0657 17.9391 13.0275C17.9391 12.9894 17.8996 12.9131 17.8996 12.875C17.9391 12.7987 17.8996 12.7606 17.8996 12.6843C17.8602 12.6461 17.8207 12.608 17.7813 12.5699C17.7418 12.4555 17.6235 12.4173 17.6235 12.3029C17.5841 12.2648 17.5841 12.2266 17.5446 12.1503C17.5052 12.1122 17.5052 12.0741 17.4263 12.0359C17.3868 11.9978 17.3868 11.9597 17.3868 11.8834C17.3868 11.8452 17.3474 11.8071 17.2685 11.8071C17.229 11.769 17.229 11.7308 17.1896 11.6927C17.1501 11.6545 17.1501 11.6164 17.0713 11.6164C16.9529 11.6545 16.9529 11.502 16.874 11.4639C16.7951 11.4257 16.7557 11.3876 16.6768 11.3494C16.3612 11.1969 16.1246 11.1206 15.9273 11.0825C15.6512 11.0443 15.5723 11.0062 15.5723 10.9681C15.5723 10.9681 15.6118 10.9299 15.6512 10.9299C15.6907 10.9299 15.7301 10.9299 15.7695 10.9299C15.809 10.9299 15.809 10.9299 15.8484 10.9299C15.8879 10.9299 15.8879 10.9299 15.9273 10.9299C16.164 10.9299 16.5585 10.9681 16.9924 11.1969C17.0713 11.235 17.229 11.235 17.2685 11.3494C17.3079 11.3876 17.3474 11.3876 17.4263 11.4257C17.4657 11.4639 17.5052 11.502 17.5446 11.5401C17.6235 11.5401 17.6629 11.5783 17.7024 11.6164C17.7418 11.6545 17.7418 11.7308 17.7813 11.769C17.8207 11.8071 17.8602 11.8452 17.8996 11.9215C17.9391 11.9597 17.9785 11.9978 18.018 12.0741C18.1363 12.1503 18.1363 12.3029 18.2152 12.3792C18.2152 12.4555 18.2546 12.4936 18.2546 12.5699C18.2941 12.6461 18.3335 12.6843 18.373 12.7224C18.373 12.7987 18.373 12.875 18.4124 12.9131C18.4124 12.9513 18.4519 12.9894 18.4519 13.0275C18.4519 13.0657 18.4913 13.1038 18.4913 13.1419C18.4519 13.2182 18.4519 13.2945 18.4913 13.3708C18.4913 13.4471 18.5308 13.5233 18.5702 13.5996C18.6096 13.6759 18.5702 13.7522 18.5702 13.8284C18.5702 13.8666 18.5702 13.9047 18.5702 13.9429C18.5702 13.981 18.5702 14.0191 18.5702 14.0573C18.5702 14.0954 18.5702 14.1335 18.5308 14.1717V14.3242C18.5308 14.4005 18.4913 14.4768 18.4913 14.5531C18.4913 14.6294 18.4519 14.7056 18.4519 14.7819C18.4124 14.8582 18.373 14.9345 18.2941 14.9726C18.2941 15.0107 18.2941 15.0107 18.2546 15.0489C18.2546 15.0489 18.2546 15.087 18.2152 15.087C18.1757 15.1252 18.1757 15.1633 18.1363 15.2014C18.0968 15.2777 18.018 15.354 17.9785 15.3921C17.9785 15.4303 17.9391 15.4684 17.8996 15.5065C17.8602 15.5447 17.8207 15.5828 17.8207 15.5828L17.7418 15.6591C17.7024 15.6972 17.6629 15.6972 17.6629 15.7354C17.6235 15.8116 17.5052 15.8498 17.4263 15.8879C17.3474 15.9261 17.2685 15.9642 17.229 16.0786C17.0713 16.193 16.9135 16.2312 16.7162 16.3456C16.6374 16.3837 16.519 16.3837 16.4401 16.4219C16.3612 16.46 16.2429 16.46 16.164 16.4981C16.0457 16.46 15.9668 16.46 15.8879 16.4981C15.809 16.4981 15.6907 16.5363 15.6118 16.5744C15.5329 16.5744 15.4145 16.5744 15.3356 16.5744C15.2568 16.5744 15.1384 16.5363 15.0595 16.5363C14.9806 16.5363 14.8623 16.4981 14.7834 16.46C14.7045 16.4219 14.5862 16.3837 14.5073 16.3456C14.4678 16.3456 14.4284 16.3074 14.3889 16.3074C14.3495 16.2693 14.3101 16.2693 14.2706 16.2312L14.1917 16.1549C14.1523 16.1168 14.1128 16.1168 14.0734 16.0786C13.9945 16.0405 13.9156 16.0023 13.8367 15.9261C13.7578 15.8498 13.7184 15.8116 13.6395 15.7735C13.6 15.7354 13.5606 15.7354 13.5211 15.6972C13.4817 15.6591 13.4422 15.621 13.4422 15.621C13.4028 15.5828 13.3634 15.5447 13.3634 15.5065C13.3239 15.4684 13.3239 15.4303 13.3239 15.3921C13.2845 15.3158 13.245 15.2396 13.2056 15.1633C13.2056 15.1252 13.1661 15.087 13.1267 15.0489L13.0478 14.9726C13.0083 14.8963 12.9295 14.8582 12.89 14.7819C12.8506 14.7056 12.8111 14.6294 12.8506 14.5149C12.8111 14.4387 12.8111 14.3624 12.8111 14.2861C12.8111 14.248 12.8111 14.248 12.8111 14.2098C12.8111 14.1717 12.8111 14.1717 12.8111 14.1335C12.8111 14.0954 12.8111 14.0573 12.7717 14.0191C12.8111 13.981 12.8111 13.9429 12.8111 13.9047C12.8111 13.8666 12.8111 13.8284 12.8111 13.7903C12.8111 13.714 12.7717 13.6377 12.7717 13.5615C12.7717 13.4852 12.8111 13.4089 12.8111 13.3326C12.8111 13.2564 12.8506 13.1801 12.8111 13.1038C12.8111 13.0657 12.8111 13.0275 12.8111 12.9894C12.8111 12.9513 12.8506 12.9131 12.8506 12.875C12.89 12.7987 12.9295 12.7606 12.9295 12.6843C12.9295 12.608 12.9689 12.5699 13.0083 12.4936C13.0478 12.4555 13.0872 12.3792 13.0872 12.3029C13.1661 12.1885 13.2056 12.0741 13.2845 11.9978C13.245 11.9215 13.2845 11.8452 13.3634 11.8071C13.4028 11.769 13.4817 11.7308 13.5211 11.6927C13.5606 11.6545 13.6 11.6164 13.6 11.5401C13.6395 11.502 13.6789 11.4639 13.7578 11.4639C13.7578 11.3876 13.7973 11.3494 13.8367 11.3113C13.8761 11.2732 13.955 11.2732 13.9945 11.2732C14.0734 11.235 14.1523 11.1206 14.2706 11.1206C14.3101 11.0443 14.3495 11.0443 14.3889 11.0443C14.4284 11.0443 14.5073 11.0443 14.5073 11.0062C14.5862 11.0062 14.6651 10.9299 14.744 10.9299C14.7834 10.8918 14.8228 10.8918 14.8623 10.8918C14.9017 10.8918 14.9412 10.8918 14.9806 10.8918C15.0595 10.8918 15.099 10.8536 15.1779 10.8536C15.2568 10.8536 15.3356 10.8536 15.4145 10.8536C15.4934 10.8536 15.5329 10.8536 15.5723 10.8536C15.5329 10.9299 15.5723 10.9681 15.5723 10.9681Z" fill="#73523F"/>
<path d="M24.921 7.00164C24.9604 7.00164 24.9999 7.26861 25.0393 7.72627C25.0393 7.80255 25.0393 7.87883 25.0393 7.99325C25.0393 8.06952 25.0787 8.18394 25.0393 8.29835C24.9999 8.41277 25.1576 8.52719 25.0393 8.60346C24.9999 8.71788 25.0393 8.83229 25.0393 8.94671C25.0393 9.06112 24.9999 9.21368 25.0393 9.32809C25.1576 9.48065 24.921 9.59506 25.0393 9.74762C25.0393 9.78576 25.0393 9.8239 25.0393 9.86203V9.90017C25.0393 9.90017 25.0393 9.90017 25.0393 9.93831C25.0393 9.97645 25.0393 10.0146 25.0393 10.0146C25.0393 10.0527 24.9999 10.0527 24.9999 10.0909C25.0393 10.0909 25.0788 10.0909 25.1182 10.0909C25.1182 10.0909 25.1576 10.0909 25.1576 10.0527H25.1971C25.3549 10.1671 25.5521 10.0909 25.7099 10.0527C25.8677 10.1671 26.0649 10.1671 26.2621 10.0527C26.4594 10.0527 26.6171 10.0909 26.8144 10.0527C27.0116 10.0527 27.2088 10.0146 27.406 10.0527C27.6033 9.97645 27.8005 9.97645 27.9977 10.0527C28.195 9.97645 28.4316 10.0146 28.6289 10.0527C28.8261 10.0909 29.0628 9.97645 29.26 10.0527C29.4967 10.0527 29.6939 10.0146 29.9306 10.0527C30.1673 10.0909 30.4039 10.129 30.6012 10.0527C30.8378 10.0146 31.0745 10.0146 31.3112 10.0527C31.5479 9.93831 31.7845 10.0146 32.0212 10.0527C32.2579 10.0527 32.4946 10.0909 32.7312 10.0527C32.8101 10.0527 32.8496 10.0527 32.9285 10.0527H33.0862C33.0862 10.0527 33.0862 10.0527 33.1257 10.0527L33.1651 10.0146V9.86203C33.1651 9.8239 33.1651 9.78576 33.1651 9.78576C33.1651 9.70948 33.1651 9.67134 33.1257 9.59506C33.0468 9.36623 33.1651 9.1374 33.1257 8.90857C33.2046 8.67974 33.0862 8.45091 33.1257 8.22208C33.1257 7.99325 33.1651 7.76441 33.1257 7.53558V7.42117C33.1257 7.42117 33.1257 7.42117 33.1257 7.38303C33.1257 7.38303 33.1257 7.38303 33.1257 7.34489C33.0468 7.42117 33.1257 7.42117 32.9679 7.38303C32.8496 7.34489 32.7312 7.30675 32.6523 7.34489C32.4157 7.26861 32.2184 7.34489 32.0212 7.34489C31.824 7.38303 31.5873 7.26861 31.3901 7.34489C31.1928 7.34489 30.9956 7.38303 30.7984 7.34489C30.6012 7.42117 30.4039 7.26861 30.2067 7.34489C30.0095 7.34489 29.8122 7.34489 29.6545 7.34489C29.4572 7.23047 29.2994 7.30675 29.1022 7.34489C28.9444 7.34489 28.7472 7.42117 28.5894 7.34489C28.4316 7.34489 28.2739 7.26861 28.1161 7.34489C27.9583 7.34489 27.8005 7.19234 27.6427 7.34489C27.4849 7.38303 27.3666 7.23047 27.2088 7.34489C27.051 7.42117 26.9327 7.34489 26.8144 7.34489C26.696 7.34489 26.5777 7.34489 26.4594 7.34489C25.5521 7.11606 24.9604 7.03978 24.921 7.00164C24.921 6.92537 25.6704 6.84909 26.9327 6.81095C27.051 6.81095 27.2088 6.73467 27.3272 6.81095C27.4849 6.81095 27.6033 6.73467 27.7611 6.81095C27.9188 6.69654 28.0766 6.77281 28.2344 6.81095C28.3922 6.81095 28.55 6.84909 28.7078 6.81095C28.8655 6.73467 29.0628 6.84909 29.2206 6.81095C29.3783 6.88723 29.5756 6.84909 29.7728 6.81095C29.97 6.88723 30.1278 6.81095 30.325 6.81095C30.5223 6.92537 30.7195 6.84909 30.9167 6.81095C31.114 6.77281 31.3112 6.81095 31.5084 6.81095C31.7056 6.81095 31.9423 6.77281 32.1395 6.81095C32.3368 6.77281 32.5734 6.73467 32.7707 6.81095C32.889 6.81095 33.0074 6.81095 33.0862 6.81095C33.1651 6.81095 33.244 6.81095 33.3229 6.81095C33.4413 6.81095 33.5201 6.81095 33.6385 6.81095C33.7568 6.81095 33.8357 6.81095 33.9541 6.81095C33.9541 6.9635 33.9541 7.11606 33.9541 7.26861C33.9541 7.34489 33.9541 7.42117 33.9541 7.49744C33.9541 7.53558 33.9541 7.57372 33.9541 7.61186C33.9935 7.84069 33.8357 8.06952 33.9541 8.29835C33.9541 8.52718 33.9541 8.75602 33.9541 8.98485C33.9541 9.21368 33.9146 9.44251 33.9541 9.67134C33.9146 9.74762 33.9146 9.78576 33.9146 9.86203C33.9146 9.90017 33.9146 9.93831 33.9146 9.93831V10.0527C33.9146 10.2434 33.9541 10.4722 33.9541 10.7392C33.7174 10.7392 33.4807 10.7392 33.244 10.7392H32.8496C32.6129 10.7392 32.3762 10.7392 32.1395 10.7392C31.9029 10.7774 31.6662 10.7011 31.4295 10.7392C31.1928 10.7774 30.9562 10.7011 30.7195 10.7392C30.4828 10.7774 30.2461 10.7774 30.0489 10.7392C29.8122 10.7392 29.615 10.6248 29.3783 10.7392C29.1417 10.7774 28.9444 10.8918 28.7472 10.7392C28.55 10.7774 28.3133 10.6629 28.1161 10.7392C27.9188 10.6248 27.7216 10.7392 27.5244 10.7392C27.3272 10.7011 27.1299 10.7011 26.9327 10.7392C26.7355 10.7774 26.5382 10.7011 26.3805 10.7392C26.1832 10.8155 26.0254 10.6629 25.8282 10.7392C25.6704 10.7392 25.4732 10.7392 25.3154 10.7392C25.3154 10.7392 25.276 10.7392 25.276 10.7774H25.2365C25.1971 10.7774 25.1576 10.7774 25.1576 10.8155C25.0787 10.8155 25.0393 10.8155 24.9604 10.8155C24.8421 10.8155 24.7632 10.7774 24.6448 10.7774C24.6448 10.7392 24.6448 10.6629 24.6448 10.6248C24.6448 10.5104 24.6448 10.396 24.6054 10.2816C24.6054 10.2434 24.6054 10.2053 24.6054 10.2053V10.1671C24.6054 10.1671 24.6054 10.1671 24.6054 10.129C24.6054 10.0909 24.6054 10.0527 24.6448 10.0146C24.5265 9.86203 24.6448 9.74762 24.6448 9.59506C24.6843 9.48065 24.6054 9.32809 24.6448 9.21368C24.566 9.09926 24.6843 8.98485 24.6448 8.87043C24.6843 8.75602 24.6448 8.6416 24.6448 8.56532C24.6448 8.45091 24.6448 8.37463 24.6448 8.26021C24.6448 8.18394 24.6448 8.06952 24.6448 7.99325C24.8421 7.26861 24.8815 7.00164 24.921 7.00164Z" fill="#73523F"/>
<path d="M24.921 16.8414C24.9604 16.8414 24.9999 17.1084 25.0393 17.566C25.0393 17.6423 25.0393 17.7186 25.0393 17.833C25.0393 17.9093 25.0787 18.0237 25.0393 18.1381C24.9999 18.2525 25.1576 18.3669 25.0393 18.4432C24.9999 18.5576 25.0393 18.672 25.0393 18.7864C25.0393 18.9009 24.9999 19.0534 25.0393 19.1678C25.1576 19.3204 24.921 19.4348 25.0393 19.5874C25.0393 19.6255 25.0393 19.6636 25.0393 19.7018V19.7399C25.0393 19.7399 25.0393 19.7399 25.0393 19.7781C25.0393 19.8162 25.0393 19.8543 25.0393 19.8543C25.0393 19.8925 24.9999 19.8925 24.9999 19.9306C25.0393 19.9306 25.0788 19.9306 25.1182 19.9306C25.1576 19.9306 25.1971 19.8925 25.1971 19.8925C25.3549 20.0069 25.5521 19.9306 25.7099 19.8925C25.8677 20.0069 26.0649 20.0069 26.2621 19.8925C26.4594 19.8925 26.6171 19.9306 26.8144 19.8925C27.0116 19.8925 27.2088 19.8543 27.406 19.8925C27.6033 19.8162 27.8005 19.8162 27.9977 19.8925C28.195 19.8162 28.4316 19.8543 28.6289 19.8925C28.8261 19.9306 29.0628 19.8162 29.26 19.8925C29.4967 19.8925 29.6939 19.8543 29.9306 19.8925C30.1673 19.9306 30.4039 19.9687 30.6012 19.8925C30.8378 19.8543 31.0745 19.8543 31.3112 19.8925C31.5479 19.7781 31.7845 19.8543 32.0212 19.8925C32.2579 19.8925 32.4946 19.9306 32.7312 19.8925C32.8101 19.8925 32.8496 19.8925 32.9285 19.8925H33.0862C33.0862 19.8925 33.0862 19.8925 33.1257 19.8925L33.1651 19.8543V19.7781C33.1651 19.7399 33.1651 19.7018 33.1651 19.7018C33.1651 19.6255 33.1651 19.5874 33.1257 19.5111C33.0468 19.2823 33.1651 19.0534 33.1257 18.8246C33.2046 18.5958 33.0862 18.3669 33.1257 18.1381C33.1257 17.9093 33.1651 17.6804 33.1257 17.4516V17.3372C33.1257 17.3372 33.1257 17.3372 33.1257 17.299C33.1257 17.299 33.1257 17.299 33.1257 17.2609C33.0862 17.299 33.0862 17.299 33.0862 17.299H33.0468C33.0074 17.299 33.0074 17.299 32.9679 17.299C32.8496 17.2609 32.7312 17.2228 32.6523 17.2609C32.4157 17.1846 32.2184 17.2609 32.0212 17.2609C31.824 17.299 31.5873 17.1846 31.3901 17.2609C31.1928 17.2609 30.9956 17.299 30.7984 17.2609C30.6012 17.3372 30.4039 17.1846 30.2067 17.2609C30.0095 17.2609 29.8122 17.2609 29.6545 17.2609C29.4572 17.1465 29.2994 17.2609 29.1022 17.2609C28.9444 17.2609 28.7472 17.3372 28.5894 17.2609C28.4316 17.2609 28.2739 17.1846 28.1161 17.2609C27.9583 17.2609 27.8005 17.1084 27.6427 17.2609C27.4849 17.299 27.3666 17.1465 27.2088 17.2609C27.051 17.3372 26.9327 17.2609 26.8144 17.2609C26.696 17.2609 26.5777 17.2609 26.4594 17.2609C25.5521 16.9558 24.9604 16.8795 24.921 16.8414C24.921 16.7651 25.6704 16.6888 26.9721 16.6507C27.0905 16.6507 27.2483 16.5744 27.3666 16.6507C27.5244 16.6507 27.6427 16.5744 27.8005 16.6507C27.9583 16.5363 28.1161 16.6126 28.2739 16.6507C28.4316 16.6507 28.5894 16.6888 28.7472 16.6507C28.905 16.5744 29.1022 16.6888 29.26 16.6507C29.4178 16.727 29.615 16.6888 29.8122 16.6507C30.0095 16.727 30.1673 16.6507 30.3645 16.6507C30.5617 16.7651 30.7589 16.6888 30.9562 16.6507C31.1534 16.6126 31.3506 16.6507 31.5479 16.6507C31.7451 16.6507 31.9818 16.6126 32.179 16.6507C32.3762 16.6126 32.6129 16.5744 32.8101 16.6507C32.9285 16.6507 33.0468 16.6507 33.1257 16.6507C33.2046 16.6507 33.2835 16.6507 33.3624 16.6507C33.4807 16.6507 33.5596 16.6507 33.6779 16.6507C33.7963 16.6507 33.8752 16.6507 33.9935 16.6507C33.9935 16.8032 33.9935 16.9558 33.9935 17.1084C33.9935 17.1846 33.9935 17.2609 33.9935 17.3372C33.9935 17.3753 33.9935 17.4135 33.9935 17.4516C34.0329 17.6804 33.8752 17.9093 33.9935 18.1381C33.9935 18.3669 33.9935 18.5958 33.9935 18.8246C33.9935 19.0534 33.9541 19.2823 33.9935 19.5111C33.9541 19.5874 33.9541 19.6255 33.9541 19.7018C33.9541 19.7399 33.9541 19.7781 33.9541 19.7781V19.8925C33.9541 20.0832 33.9935 20.312 33.9935 20.579C33.7568 20.579 33.5201 20.579 33.2835 20.579H32.889C32.6523 20.579 32.4157 20.579 32.179 20.579C31.9423 20.6171 31.7056 20.5408 31.469 20.579C31.2323 20.6171 30.9956 20.5408 30.7589 20.579C30.5223 20.6171 30.2856 20.6171 30.0884 20.579C29.8517 20.579 29.6545 20.4645 29.4178 20.579C29.1811 20.6171 28.9839 20.7315 28.7866 20.579C28.5894 20.6171 28.3527 20.5027 28.1555 20.579C27.9583 20.4645 27.7611 20.579 27.5638 20.579C27.3666 20.5408 27.1694 20.5408 26.9721 20.579C26.7749 20.6171 26.5777 20.5408 26.4199 20.579C26.2227 20.6552 26.0649 20.5027 25.8677 20.579C25.7099 20.579 25.5127 20.579 25.3549 20.579C25.3154 20.6171 25.2365 20.6171 25.1576 20.6171C25.0787 20.6171 25.0393 20.6171 24.9604 20.6171C24.8421 20.6171 24.7632 20.579 24.6448 20.579C24.6448 20.5027 24.6448 20.4645 24.6448 20.4264C24.6843 20.1976 24.5265 19.8925 24.6448 19.8162C24.5265 19.6636 24.6448 19.5492 24.6448 19.3967C24.6843 19.2441 24.6054 19.1297 24.6448 19.0153C24.566 18.9009 24.6843 18.7864 24.6448 18.672C24.6843 18.5576 24.6448 18.4432 24.6448 18.3669C24.6448 18.2525 24.6448 18.1762 24.6448 18.0618C24.6448 17.9855 24.6448 17.8711 24.6448 17.7948C24.8421 17.1084 24.8815 16.8414 24.921 16.8414Z" fill="#73523F"/>
<path d="M4.68528 26.91C4.72473 26.91 4.76417 27.0625 4.80362 27.2913C4.80362 27.3295 4.80362 27.3676 4.80362 27.4058C4.80362 27.4439 4.84306 27.5202 4.80362 27.5583C4.76417 27.5965 4.92196 27.6727 4.80362 27.7109C4.76417 27.7871 4.80362 27.8253 4.80362 27.9016C4.80362 27.9778 4.76417 28.016 4.80362 28.0923C4.92196 28.1685 4.68528 28.2448 4.80362 28.3211C4.84306 28.3974 4.84306 28.4736 4.80362 28.5499C4.72473 28.6262 4.80362 28.7025 4.80362 28.7787C4.68528 28.855 4.76417 28.9313 4.80362 29.0457L4.76417 29.0839C4.76417 29.0839 4.72473 29.122 4.76417 29.122C4.76417 29.1601 4.80362 29.1601 4.88251 29.1601C4.88251 29.1601 4.88251 29.1983 4.88251 29.2364C4.88251 29.2364 4.92196 29.2364 4.9614 29.1983H5.04029C5.15863 29.122 5.23752 29.122 5.35586 29.1983C5.4742 29.122 5.55309 29.1601 5.67143 29.1983C5.78976 29.2364 5.9081 29.122 6.02644 29.1983C6.14478 29.1983 6.26311 29.1601 6.38145 29.1983C6.49979 29.2364 6.61812 29.2745 6.73646 29.1983C6.8548 29.1601 6.97314 29.1601 7.09147 29.1983C7.20981 29.0839 7.32815 29.1601 7.44649 29.1983C7.52538 29.1983 7.56482 29.1983 7.64372 29.1983C7.68316 29.1983 7.72261 29.1983 7.72261 29.1983H7.76205C7.76205 29.1983 7.76205 29.1983 7.8015 29.1983C7.8015 29.1983 7.8015 29.1983 7.84094 29.1983C7.84094 29.1983 7.84094 29.1983 7.88039 29.1983H7.91984C7.91984 29.1983 7.91984 29.1601 7.88039 29.1601C7.88039 29.1601 7.88039 29.1601 7.88039 29.122V29.0839C7.88039 29.0457 7.88039 29.0076 7.88039 29.0076C7.88039 28.9313 7.91984 28.8932 7.88039 28.8169C7.95928 28.7025 7.84094 28.5881 7.88039 28.4736C7.88039 28.3592 7.91984 28.2448 7.88039 28.1304C7.88039 28.016 7.84094 27.9016 7.88039 27.7871C7.72261 27.6727 7.91984 27.5583 7.88039 27.4439C7.88039 27.4058 7.91984 27.4058 7.91984 27.3676C7.91984 27.3676 7.88039 27.3676 7.91984 27.3295V27.2913C7.91984 27.2913 7.91984 27.2532 7.88039 27.2913H7.84094C7.8015 27.2913 7.8015 27.2913 7.76205 27.2532C7.64372 27.3295 7.56482 27.1769 7.44649 27.2532C7.32815 27.2532 7.24926 27.2532 7.17037 27.2532C7.09147 27.1388 6.97314 27.2151 6.89425 27.2532C6.81535 27.2532 6.69702 27.3295 6.61812 27.2532C6.53923 27.2532 6.46034 27.1769 6.38145 27.2532C6.30256 27.2532 6.22367 27.1006 6.14478 27.2532C6.06588 27.2913 5.98699 27.1388 5.9081 27.2532C5.82921 27.3295 5.75032 27.2532 5.71087 27.2532C5.63198 27.2532 5.59253 27.2532 5.51364 27.2532C5.00085 27.0244 4.68528 26.9862 4.68528 26.91C4.68528 26.8337 5.07974 26.7574 5.75032 26.7193C5.82921 26.7193 5.86866 26.643 5.94755 26.7193C6.02644 26.7193 6.10533 26.643 6.18422 26.7193C6.26311 26.6048 6.342 26.6811 6.4209 26.7193C6.49979 26.7193 6.57868 26.7574 6.65757 26.7193C6.73646 26.643 6.81535 26.7574 6.93369 26.7193C7.01258 26.7955 7.13092 26.7574 7.20981 26.7193C7.2887 26.7955 7.40704 26.7193 7.48593 26.7193C7.60427 26.8337 7.68316 26.7574 7.8015 26.7193C7.84094 26.7193 7.84094 26.7193 7.88039 26.7193H8.03817C8.11706 26.7193 8.2354 26.7193 8.31429 26.7193C8.39318 26.7193 8.51152 26.7193 8.62986 26.7193C8.62986 26.7955 8.62986 26.8718 8.62986 26.9862C8.6693 27.0625 8.66931 27.1769 8.66931 27.2532C8.66931 27.2913 8.66931 27.2913 8.66931 27.3295V27.4058C8.66931 27.4439 8.6693 27.4439 8.62986 27.482C8.6693 27.5964 8.62986 27.7109 8.62986 27.8253C8.6693 27.9397 8.62986 28.0541 8.62986 28.1685C8.6693 28.2829 8.51152 28.3974 8.62986 28.5118C8.62986 28.6262 8.62986 28.7406 8.62986 28.855C8.62986 28.9313 8.62986 28.9694 8.62986 29.0457C8.62986 29.0839 8.62986 29.122 8.62986 29.122V29.2364C8.59041 29.3508 8.55097 29.4271 8.59041 29.5415C8.59041 29.6559 8.62986 29.7703 8.62986 29.9229C8.51152 29.9229 8.39319 29.9229 8.27485 29.9229C8.15651 29.9229 8.03817 29.9229 7.91984 29.9229H7.84094C7.8015 29.9229 7.76205 29.9229 7.76205 29.9229C7.68316 29.9229 7.64371 29.9229 7.56482 29.9229C7.44649 29.961 7.32815 29.8848 7.20981 29.9229C7.09147 29.961 6.97314 29.8848 6.8548 29.9229C6.73646 29.961 6.61813 29.961 6.49979 29.9229C6.38145 29.9229 6.26311 29.8085 6.14478 29.9229C6.02644 29.961 5.9081 30.0755 5.78976 29.9229C5.67143 29.961 5.55309 29.8466 5.4742 29.9229C5.35586 29.8085 5.27697 29.9229 5.15863 29.9229H5.04029C5.00085 29.9229 4.9614 29.9229 4.92196 29.9229C4.84306 29.9229 4.76417 29.9229 4.64584 29.961C4.56694 29.9992 4.48805 29.9992 4.40916 29.961C4.40916 29.8466 4.44861 29.7322 4.44861 29.6559C4.40916 29.5797 4.44861 29.5034 4.44861 29.4271C4.44861 29.389 4.48805 29.3508 4.48805 29.3127C4.48805 29.3127 4.48805 29.3127 4.48805 29.2745V29.2364C4.48805 29.1601 4.48805 29.0457 4.48805 28.9694C4.33027 28.8932 4.48805 28.8169 4.48805 28.7406C4.5275 28.6643 4.36972 28.5881 4.48805 28.5118C4.36972 28.4355 4.48805 28.3592 4.48805 28.2829C4.5275 28.2067 4.44861 28.1304 4.48805 28.0923C4.40916 28.016 4.5275 27.9778 4.48805 27.9016C4.5275 27.8253 4.48805 27.7871 4.48805 27.749C4.48805 27.7109 4.48805 27.6346 4.48805 27.5965C4.48805 27.5583 4.48805 27.5202 4.48805 27.482C4.60639 27.0625 4.64584 26.91 4.68528 26.91Z" fill="#73523F"/>
<path d="M22.8303 26.91C22.8698 26.91 22.9092 27.0625 22.9487 27.2913C22.9487 27.3295 22.9487 27.3676 22.9487 27.4058C22.9487 27.4439 22.9881 27.5202 22.9487 27.5583C22.9092 27.5965 23.067 27.6727 22.9487 27.7109C22.9092 27.7871 22.9487 27.8253 22.9487 27.9016C22.9487 27.9778 22.9092 28.016 22.9487 28.0923C23.067 28.1685 22.8303 28.2448 22.9487 28.3211C22.9881 28.3974 22.9881 28.4736 22.9487 28.5499C22.8698 28.6262 22.9487 28.7025 22.9487 28.7787C22.8303 28.855 22.9092 28.9313 22.9487 29.0457L22.9092 29.0839C22.9092 29.0839 22.8698 29.122 22.9092 29.122C22.9092 29.1601 22.9487 29.1601 23.0276 29.1601C23.0276 29.1601 23.0276 29.1983 23.0276 29.2364C23.0276 29.2364 23.067 29.2364 23.1065 29.1983H23.1854C23.3037 29.122 23.3826 29.122 23.5009 29.1983C23.6193 29.122 23.6981 29.1601 23.8165 29.1983C23.9348 29.2364 24.0532 29.122 24.1321 29.1983C24.2504 29.1983 24.3687 29.1601 24.4871 29.1983C24.6054 29.2364 24.7237 29.2745 24.8421 29.1983C24.9604 29.1601 25.0788 29.1601 25.1971 29.1983C25.3154 29.0839 25.4338 29.1601 25.5521 29.1983C25.631 29.1983 25.6704 29.1983 25.7493 29.1983C25.7888 29.1983 25.8282 29.1983 25.8282 29.1983H25.8677C25.8677 29.1983 25.8677 29.1983 25.9071 29.1983C25.9071 29.1983 25.9071 29.1983 25.9466 29.1983C25.9466 29.1983 25.9466 29.1983 25.986 29.1983H26.0254C26.0254 29.1983 26.0254 29.1601 25.986 29.1601C25.986 29.1601 25.986 29.1601 25.986 29.122V29.0839C25.986 29.0457 25.986 29.0076 25.986 29.0076C25.986 28.9313 26.0254 28.8932 25.986 28.8169C26.0649 28.7025 25.9466 28.5881 25.986 28.4736C25.986 28.3592 26.0254 28.2448 25.986 28.1304C25.986 28.016 25.9466 27.9016 25.986 27.7871C25.8282 27.6727 26.0254 27.5583 25.986 27.4439C25.986 27.4058 26.0254 27.4058 26.0254 27.3676C26.0254 27.3676 25.986 27.3676 26.0254 27.3295V27.2913C26.0254 27.2913 26.0254 27.2532 25.986 27.2913H25.9466C25.9071 27.2913 25.9071 27.2913 25.8677 27.2532C25.7493 27.3295 25.6704 27.1769 25.5521 27.2532C25.4338 27.2532 25.3549 27.2532 25.276 27.2532C25.1971 27.1388 25.0788 27.2151 24.9999 27.2532C24.921 27.2532 24.8026 27.3295 24.7237 27.2532C24.6448 27.2532 24.566 27.1769 24.4871 27.2532C24.4082 27.2532 24.3293 27.1006 24.2504 27.2532C24.1715 27.2913 24.0926 27.1388 24.0137 27.2532C23.9348 27.3295 23.8559 27.2532 23.8165 27.2532C23.7376 27.2532 23.6981 27.2532 23.6193 27.2532C23.1459 27.0244 22.8303 26.9862 22.8303 26.91C22.8303 26.8337 23.2248 26.7574 23.8954 26.7193C23.9743 26.7193 24.0137 26.643 24.0926 26.7193C24.1715 26.7193 24.2504 26.643 24.3293 26.7193C24.4082 26.6048 24.4871 26.6811 24.566 26.7193C24.6448 26.7193 24.7237 26.7574 24.8026 26.7193C24.8815 26.643 24.9604 26.7574 25.0788 26.7193C25.1576 26.7955 25.276 26.7574 25.3549 26.7193C25.4338 26.7955 25.5521 26.7193 25.631 26.7193C25.7493 26.8337 25.8282 26.7574 25.9466 26.7193C25.986 26.7193 25.986 26.7193 26.0254 26.7193H26.1832C26.2621 26.7193 26.3805 26.7193 26.4594 26.7193C26.5382 26.7193 26.6566 26.7193 26.7749 26.7193C26.7749 26.7955 26.7749 26.8718 26.7749 26.9862C26.8144 27.0625 26.8144 27.1769 26.8144 27.2532C26.8144 27.2913 26.8144 27.2913 26.8144 27.3295V27.4058C26.8144 27.4439 26.8144 27.4439 26.7749 27.482C26.8144 27.5964 26.7749 27.7109 26.7749 27.8253C26.8144 27.9397 26.7749 28.0541 26.7749 28.1685C26.8144 28.2829 26.6566 28.3974 26.7749 28.5118C26.7749 28.6262 26.7749 28.7406 26.7749 28.855C26.7749 28.9313 26.7749 28.9694 26.7749 29.0457C26.7749 29.0839 26.7749 29.122 26.7749 29.122V29.2364C26.7355 29.3508 26.696 29.4271 26.7355 29.5415C26.7355 29.6559 26.7749 29.7703 26.7749 29.9229C26.6566 29.9229 26.5382 29.9229 26.4199 29.9229C26.3016 29.9229 26.1832 29.9229 26.0649 29.9229H25.986C25.9466 29.9229 25.9071 29.9229 25.9071 29.9229C25.8282 29.9229 25.7888 29.9229 25.7099 29.9229C25.5915 29.961 25.4732 29.8848 25.3549 29.9229C25.2365 29.961 25.1182 29.8848 24.9999 29.9229C24.8815 29.961 24.7632 29.961 24.6448 29.9229C24.5265 29.9229 24.4082 29.8085 24.2898 29.9229C24.1715 29.961 24.0532 30.0755 23.9743 29.9229C23.8559 29.961 23.7376 29.8466 23.6587 29.9229C23.5404 29.8085 23.4615 29.9229 23.3431 29.9229H23.2248C23.1854 29.9229 23.1459 29.9229 23.1065 29.9229C23.0276 29.9229 22.9487 29.9229 22.8303 29.961C22.7514 29.9992 22.6726 29.9992 22.5937 29.961C22.5937 29.8466 22.6331 29.7322 22.6331 29.6559C22.5937 29.5797 22.6331 29.5034 22.6331 29.4271C22.6331 29.389 22.6331 29.3508 22.6726 29.3127C22.6726 29.3127 22.6726 29.3127 22.6726 29.2745V29.2364C22.6726 29.1601 22.6726 29.0457 22.6726 28.9694C22.5148 28.8932 22.6726 28.8169 22.6726 28.7406C22.712 28.6643 22.5542 28.5881 22.6726 28.5118C22.5542 28.4355 22.6726 28.3592 22.6726 28.2829C22.712 28.2067 22.6331 28.1304 22.6726 28.0923C22.5937 28.016 22.712 27.9778 22.6726 27.9016C22.712 27.8253 22.6726 27.7871 22.6726 27.749C22.6726 27.7109 22.6726 27.6346 22.6726 27.5965C22.6726 27.5583 22.6726 27.5202 22.6726 27.482C22.7515 27.0625 22.7909 26.91 22.8303 26.91Z" fill="#73523F"/>
<path d="M28.7867 29.5034C28.7867 29.5415 28.4711 29.5797 27.9583 29.6178C27.8794 29.6178 27.7611 29.6178 27.6822 29.6178C27.5638 29.6178 27.4849 29.6559 27.3666 29.6178C27.2483 29.5797 27.1299 29.7322 27.0116 29.6178C26.8933 29.5797 26.7355 29.6178 26.6171 29.6178C26.4594 29.6178 26.341 29.5797 26.1832 29.6178C26.0254 29.7322 25.8677 29.5034 25.7099 29.6178C25.5521 29.6559 25.3549 29.6559 25.1971 29.6178C25.0393 29.5415 24.8421 29.6178 24.6448 29.6178C24.4476 29.5034 24.2504 29.5797 24.0532 29.6178C23.8559 29.5034 23.6587 29.5034 23.4615 29.6178C23.2642 29.6178 23.067 29.5797 22.8303 29.6178C22.6331 29.6178 22.3964 29.6559 22.1598 29.6178C21.9231 29.6941 21.7259 29.6941 21.4892 29.6178C21.2525 29.6941 21.0158 29.6559 20.7792 29.6178C20.5425 29.5797 20.3058 29.6941 20.0691 29.6178C19.8325 29.6178 19.5958 29.6559 19.3197 29.6178C19.083 29.5797 18.8069 29.5415 18.5702 29.6178C18.2941 29.6559 18.0574 29.6559 17.7813 29.6178C17.5052 29.7322 17.2685 29.6559 16.9924 29.6178C16.7162 29.6178 16.4401 29.5797 16.2034 29.6178C15.9273 29.6178 15.6512 29.6559 15.3751 29.6178C15.099 29.5797 14.8228 29.5415 14.5467 29.6178C14.2706 29.6941 13.9945 29.5797 13.7578 29.6178C13.4817 29.5415 13.245 29.6559 12.9689 29.6178C12.6928 29.6178 12.4561 29.5797 12.18 29.6178C11.9433 29.6178 11.6672 29.6559 11.4305 29.6178C11.1938 29.7703 10.9177 29.5797 10.681 29.6178C10.4444 29.5415 10.2077 29.6178 9.97102 29.6178C9.73434 29.6559 9.49767 29.5415 9.26099 29.6178C9.02432 29.6178 8.78764 29.6559 8.59041 29.6178C8.35374 29.6941 8.15651 29.5415 7.91984 29.6178C7.72261 29.6178 7.48593 29.6178 7.2887 29.6178C7.09147 29.5034 6.89425 29.5797 6.69702 29.6178C6.49979 29.6178 6.30256 29.6941 6.14478 29.6178C5.94755 29.6178 5.78976 29.5415 5.59253 29.6178C5.43475 29.6178 5.23752 29.4652 5.07974 29.6178C4.92196 29.6559 4.76417 29.5034 4.60639 29.6178C4.44861 29.6941 4.29082 29.6178 4.17249 29.6178C4.0147 29.6178 3.89637 29.6178 3.77803 29.6178C2.59466 29.5797 1.92408 29.5034 1.92408 29.4652C1.92408 29.389 2.75244 29.3508 4.17249 29.2745C4.33027 29.2745 4.44861 29.1983 4.60639 29.2745C4.76417 29.2745 4.92196 29.1983 5.07974 29.2745C5.23752 29.1601 5.43475 29.2364 5.59253 29.2745C5.75032 29.2745 5.94755 29.3127 6.14478 29.2745C6.34201 29.1983 6.53923 29.3127 6.69702 29.2745C6.89425 29.3508 7.09147 29.3127 7.2887 29.2745C7.48593 29.3508 7.68316 29.2745 7.91984 29.2745C8.11706 29.389 8.35374 29.3127 8.59041 29.2745C8.82709 29.2364 9.02432 29.2745 9.26099 29.2745C9.49767 29.2745 9.73434 29.2364 9.97102 29.2745C10.2077 29.2364 10.4444 29.1983 10.681 29.2745C10.9177 29.2364 11.1544 29.2745 11.4305 29.2745C11.6672 29.2364 11.9433 29.2745 12.18 29.2745C12.4561 29.2364 12.6928 29.389 12.9689 29.2745C13.245 29.2745 13.4817 29.2745 13.7578 29.2745C14.0339 29.2745 14.3101 29.3127 14.5467 29.2745C14.8228 29.389 15.099 29.3127 15.3751 29.2745C15.6512 29.2364 15.9273 29.2745 16.2034 29.2745C16.4796 29.2745 16.7557 29.2745 16.9924 29.2745C17.2685 29.2364 17.5052 29.3127 17.7813 29.2745C18.0574 29.2364 18.2941 29.3127 18.5702 29.2745C18.8463 29.2364 19.083 29.2364 19.3197 29.2745C19.5563 29.2745 19.8325 29.389 20.0691 29.2745C20.3058 29.2364 20.5425 29.122 20.7792 29.2745C21.0158 29.2364 21.2525 29.3508 21.4892 29.2745C21.7259 29.389 21.9625 29.2745 22.1598 29.2745C22.3964 29.3127 22.5937 29.3127 22.8303 29.2745C23.0276 29.2364 23.2642 29.3127 23.4615 29.2745C23.6587 29.1983 23.8559 29.3508 24.0532 29.2745C24.2504 29.2745 24.4476 29.2745 24.6448 29.2745C24.8421 29.122 24.9999 29.2745 25.1971 29.2745C25.3549 29.3127 25.5521 29.1601 25.7099 29.2745C25.8677 29.1601 26.0254 29.2745 26.1832 29.2745C26.341 29.3127 26.4988 29.2364 26.6171 29.2745C26.7749 29.1983 26.8933 29.3127 27.0116 29.2745C27.1299 29.3127 27.2483 29.2745 27.3666 29.2745C27.4849 29.2745 27.6033 29.2745 27.6822 29.2745C27.8005 29.2745 27.8794 29.2745 27.9583 29.2745C28.4711 29.4271 28.7867 29.4652 28.7867 29.5034Z" fill="#73523F"/>
</svg>
