<svg width="35" height="34" viewBox="0 0 35 34" fill="none" xmlns="http://www.w3.org/2000/svg">
<path d="M3.62842 7.14198C3.62842 7.14198 3.54935 7.18099 3.43075 7.18099C3.39121 7.18099 3.35168 7.18099 3.31214 7.18099C3.27261 7.18099 3.23307 7.18099 3.15401 7.22C3.11447 7.22 3.0354 7.22 2.99587 7.25901C2.95633 7.25901 2.87726 7.29801 2.79819 7.29801C2.56098 7.41503 2.20517 7.57106 1.88889 7.8051C1.57261 8.03915 1.2168 8.39021 0.979587 8.81929C0.821447 9.13135 0.702842 9.48241 0.623773 9.87248C0.623773 9.91149 0.623773 9.9895 0.623773 10.0285C0.623773 10.0675 0.623773 10.1455 0.623773 10.1845C0.623773 10.2235 0.623773 10.3016 0.623773 10.3406C0.623773 10.3796 0.623773 10.4576 0.623773 10.4966C0.623773 10.7306 0.623773 10.9257 0.623773 11.1597C0.584238 11.6278 0.742377 12.0959 0.623773 12.603C0.584238 13.1101 0.623773 13.6562 0.623773 14.2023C0.623773 14.7484 0.584238 15.3335 0.623773 15.9576C0.742377 16.5427 0.505168 17.2058 0.623773 17.8299C0.663308 18.493 0.663308 19.1562 0.623773 19.8583C0.544703 20.5604 0.623773 21.2626 0.623773 22.0037C0.505168 22.7448 0.584238 23.486 0.623773 24.2661C0.505168 25.0462 0.505168 25.8264 0.623773 26.6455C0.623773 26.7626 0.623773 26.8406 0.623773 26.9576C0.623773 27.0356 0.623773 27.1526 0.623773 27.2306C0.623773 27.3087 0.663307 27.4257 0.663307 27.5037C0.702842 27.5817 0.702842 27.6987 0.742377 27.7767C0.860982 28.1278 1.05866 28.4789 1.3354 28.7519C1.57261 29.025 1.88889 29.298 2.2447 29.454C2.60052 29.6101 2.99587 29.7271 3.39121 29.7661H3.70749C3.8261 29.7661 3.9447 29.7661 4.02377 29.7271C4.26098 29.7271 4.45866 29.7271 4.69587 29.7271C5.13075 29.7271 5.60517 29.7271 6.04005 29.7661C6.94935 29.6881 7.89819 29.7271 8.84703 29.7661C9.79587 29.8051 10.7447 29.6881 11.7331 29.7661C12.7214 29.7661 13.7098 29.7271 14.6982 29.7661C15.6866 29.8051 16.7145 29.8441 17.7424 29.7661C18.7703 29.7271 19.7982 29.7271 20.8261 29.7661C21.854 29.6491 22.9214 29.7271 23.9889 29.7661C25.0563 29.7661 26.1238 29.8051 27.2307 29.7661C28.2982 29.7661 29.4052 29.7271 30.5121 29.7661C30.7494 29.7661 30.9866 29.7661 31.2633 29.6881C31.3819 29.6491 31.5005 29.6101 31.6191 29.5711C31.6587 29.5321 31.7377 29.5321 31.7773 29.493C31.8168 29.454 31.8959 29.454 31.9354 29.415L32.0935 29.337C32.1331 29.298 32.2121 29.259 32.2517 29.22C32.3703 29.142 32.4494 29.064 32.5284 28.986C32.6866 28.7909 32.8447 28.6349 32.9633 28.4009C33.2005 27.9718 33.3191 27.5037 33.3587 27.0356V26.6455C33.3587 26.5285 33.3587 26.3725 33.3587 26.2555C33.3587 25.9824 33.3587 25.7094 33.3587 25.4753C33.4377 24.4221 33.3191 23.3689 33.3587 22.3547C33.3587 21.3406 33.3982 20.2874 33.3587 19.3122C33.3587 18.298 33.3191 17.3228 33.3587 16.3087C33.2005 15.3335 33.3982 14.3583 33.3587 13.3831C33.4377 12.4079 33.3587 11.4718 33.3587 10.5356V10.0675L33.3191 9.91149V9.83347C33.3191 9.79447 33.3191 9.79447 33.3191 9.75546L33.3587 9.52142C33.3587 9.48241 33.3191 9.4044 33.3191 9.36539L33.2796 9.20936C33.1214 8.81929 32.8842 8.46822 32.568 8.19518C32.2517 7.92213 31.8959 7.72709 31.5005 7.61007C31.4214 7.57106 31.3028 7.57106 31.2238 7.53205C31.1052 7.53205 31.0261 7.49305 30.9075 7.49305C30.7889 7.49305 30.7098 7.49305 30.5912 7.45404C30.4726 7.45404 30.354 7.45404 30.2749 7.45404C29.4052 7.53206 28.5354 7.37603 27.6656 7.45404C26.7959 7.45404 25.9656 7.45404 25.1749 7.45404C24.3447 7.33702 23.554 7.41503 22.7633 7.45404C21.9726 7.45404 21.2214 7.53206 20.4703 7.45404C19.7191 7.45404 19.0075 7.37603 18.2959 7.45404C17.5842 7.45404 16.9121 7.29801 16.2401 7.45404C15.568 7.49305 14.9354 7.33702 14.3424 7.45404C13.7494 7.53206 13.1563 7.45404 12.5633 7.45404C12.0098 7.45404 11.4563 7.45404 10.9424 7.45404C8.60982 7.41503 6.79121 7.41503 5.5261 7.37603C4.89354 7.37603 4.41912 7.33702 4.10284 7.33702C3.8261 7.18099 3.62842 7.18099 3.62842 7.14198C3.62842 7.14198 3.8261 7.10298 4.22145 7.10298C4.6168 7.10298 5.20982 7.06397 5.96098 7.06397C7.50284 7.02496 9.75633 6.98596 12.5633 6.98596C13.1168 6.98596 13.7098 6.90794 14.3424 6.98596C14.9749 6.98596 15.6075 6.90794 16.2401 6.98596C16.9121 6.86893 17.5842 6.94695 18.2959 6.98596C19.0075 6.98596 19.7191 7.02496 20.4703 6.98596C21.2214 6.90794 21.9726 7.02496 22.7633 6.98596C23.554 7.06397 24.3447 7.02496 25.1749 6.98596C26.0052 7.06397 26.8354 6.98596 27.6656 6.98596C28.5354 7.10298 29.4052 7.02496 30.2749 6.98596C30.3935 6.98596 30.5121 6.98596 30.5912 6.98596C30.7098 6.98596 30.8284 6.98596 30.947 6.98596C31.0656 6.98596 31.1842 7.02496 31.3028 7.02496C31.4214 7.06397 31.5401 7.10298 31.6587 7.14198C32.1331 7.29801 32.568 7.57106 32.9238 7.88312C33.2796 8.23418 33.5959 8.62425 33.7935 9.09234L33.8726 9.28737C33.9121 9.36539 33.9121 9.4044 33.9517 9.48241L33.9912 9.67744C33.9912 9.71645 33.9912 9.75546 34.0308 9.75546V9.83347L34.0703 10.0285V10.3796C34.0703 10.4576 34.0703 10.4966 34.0703 10.5746C34.1098 11.5108 34.1494 12.4469 34.0703 13.4221C34.1098 14.3973 34.0703 15.3725 34.0703 16.3477C34.1098 17.3228 34.0703 18.337 34.0703 19.3512C34.1098 20.3654 33.9517 21.3796 34.0703 22.3938C34.0703 23.4079 34.0703 24.4611 34.0703 25.5143C34.0703 25.7874 34.0703 26.0214 34.0703 26.2945C34.0703 26.4115 34.0703 26.5675 34.0703 26.6845V27.1136C34.0308 27.6987 33.8726 28.2838 33.5959 28.7909C33.4377 29.025 33.2005 29.259 33.0028 29.454C32.8842 29.5321 32.7656 29.6491 32.647 29.7271C32.568 29.7661 32.5284 29.8051 32.4494 29.8441L32.2517 29.9611C32.1726 30.0001 32.1331 30.0391 32.054 30.0782C31.9749 30.1172 31.9354 30.1562 31.8563 30.1952C31.6982 30.2342 31.5796 30.3122 31.4214 30.3512C31.1447 30.4292 30.8284 30.4682 30.5121 30.5072C29.4052 30.5462 28.3377 30.5072 27.2307 30.5072C26.1633 30.5072 25.0563 30.5072 23.9889 30.5072C22.9214 30.5462 21.854 30.4682 20.8261 30.5072C19.7982 30.5462 18.7308 30.4682 17.7424 30.5072C16.7145 30.5462 15.7261 30.5462 14.6982 30.5072C13.7098 30.5072 12.7214 30.3902 11.7331 30.5072C10.7447 30.5462 9.79587 30.6633 8.84703 30.5072C7.89819 30.5462 6.98889 30.4292 6.04005 30.5072C5.56563 30.4682 5.13075 30.4682 4.69587 30.4682C4.45866 30.4682 4.26098 30.4682 4.02377 30.5072C3.90517 30.5072 3.78656 30.5072 3.70749 30.5072H3.35168C2.87726 30.4682 2.40284 30.3512 1.96796 30.1172C1.53307 29.8831 1.17726 29.6101 0.860982 29.298C0.544703 28.9469 0.307494 28.5569 0.188889 28.1278C0.149354 28.0108 0.149354 27.8938 0.109819 27.8157C0.109819 27.6987 0.0702842 27.5817 0.0702842 27.5037C0.0702842 27.3867 0.0702842 27.2696 0.0702842 27.1916C0.0702842 27.0746 0.0702842 26.9966 0.0702842 26.8796C-0.00878553 26.0604 0.149354 25.2803 0.0702842 24.5001C0.0702842 23.72 0.0702842 22.9789 0.0702842 22.2377C-0.0878553 21.4966 0.0702842 20.7945 0.0702842 20.0923C0.109819 19.3902 -0.0483204 18.7271 0.0702842 18.064C-0.0483204 17.4008 0.0702842 16.7767 0.0702842 16.1916C0.109819 15.5675 0.0307494 15.0214 0.0702842 14.4363C-0.00878553 13.8902 0.109819 13.3441 0.0702842 12.837C0.109819 12.3299 0.0702842 11.8228 0.0702842 11.3938C0.0702842 11.1597 0.0702842 10.9257 0.0702842 10.7306C0.0702842 10.6916 0.0702842 10.6136 0.0702842 10.5746C0.0702842 10.5356 0.0702842 10.4576 0.0702842 10.4186C0.0702842 10.3796 0.0702842 10.3016 0.0702842 10.2626C0.0702842 10.2235 0.109819 10.1455 0.109819 10.1065C0.188889 9.67745 0.347028 9.28737 0.505168 8.97532C0.781912 8.50723 1.17726 8.15617 1.53307 7.92213C1.88889 7.68808 2.2447 7.57106 2.52145 7.49305C2.60052 7.49305 2.64005 7.45404 2.71912 7.45404C2.79819 7.45404 2.83773 7.45404 2.87726 7.41503C2.9168 7.41503 2.99587 7.41503 3.0354 7.41503C3.07494 7.41503 3.11447 7.41503 3.15401 7.41503C3.58889 7.14198 3.62842 7.14198 3.62842 7.14198Z" fill="#73523F"/>
<path d="M5.68424 10.3016C5.68424 10.3016 5.6447 10.3406 5.5261 10.3406C5.48656 10.3406 5.48656 10.3406 5.44703 10.3406C5.40749 10.3406 5.36796 10.3406 5.32842 10.3796C5.28889 10.3796 5.24935 10.3796 5.20982 10.4186C5.17028 10.4186 5.13075 10.4576 5.09121 10.4576C4.89354 10.5356 4.69587 10.6136 4.45866 10.7696C4.41912 10.8087 4.34005 10.8477 4.30052 10.8867C4.26098 10.9257 4.18191 11.0037 4.14238 11.0427C4.02377 11.1597 3.9447 11.2767 3.8261 11.4328C3.70749 11.6278 3.58889 11.8618 3.54935 12.1349C3.54935 12.2129 3.54935 12.2519 3.50982 12.3299C3.50982 12.4079 3.50982 12.486 3.50982 12.525C3.50982 12.681 3.50982 12.837 3.50982 12.993C3.47028 13.3051 3.62842 13.6562 3.50982 14.0072C3.47028 14.3583 3.50982 14.7484 3.50982 15.1384C3.50982 15.5285 3.47028 15.9186 3.50982 16.3477C3.62842 16.7767 3.39121 17.2058 3.50982 17.6739C3.54935 18.142 3.54935 18.6101 3.50982 19.0782C3.43075 19.5462 3.50982 20.0533 3.50982 20.5604C3.39121 21.0675 3.47028 21.6136 3.50982 22.1207C3.39121 22.6668 3.39121 23.2129 3.50982 23.759C3.50982 23.915 3.50982 24.0321 3.50982 24.1881C3.50982 24.2661 3.50982 24.3441 3.50982 24.3831V24.5782C3.50982 24.8512 3.58889 25.0852 3.70749 25.3193C3.8261 25.5533 3.98424 25.7484 4.18191 25.9434C4.37959 26.0994 4.6168 26.2555 4.854 26.3725L4.97261 26.4115H5.80284C6.11912 26.4115 6.4354 26.4115 6.75168 26.4505C7.38424 26.3725 8.05633 26.4115 8.68889 26.4505C9.36098 26.4895 10.0331 26.3725 10.7052 26.4505C11.3773 26.4505 12.0889 26.4115 12.761 26.4505C13.4726 26.4895 14.1842 26.5285 14.8959 26.4505C15.6075 26.4115 16.3191 26.4115 17.0703 26.4505C17.7819 26.3335 18.5331 26.4115 19.2842 26.4505C20.0354 26.4505 20.7866 26.4895 21.5377 26.4505C22.2889 26.4505 23.0401 26.4115 23.8307 26.4505C24.147 26.4505 24.5028 26.4115 24.7796 26.2555C25.0563 26.0994 25.3331 25.8654 25.4912 25.5923C25.5307 25.5143 25.5703 25.4363 25.6098 25.3583C25.6098 25.3193 25.6494 25.2803 25.6494 25.2413C25.6494 25.2023 25.6889 25.1633 25.6889 25.1243L25.7284 25.0852V25.0462L25.768 24.9292C25.768 24.8902 25.768 24.8512 25.8075 24.8122C25.8075 24.7732 25.8075 24.7342 25.8075 24.6952V24.5782C25.8075 24.5391 25.8075 24.5391 25.8075 24.5001V24.4221C25.8075 24.3441 25.8075 24.2271 25.8075 24.1491C25.8075 23.954 25.8075 23.798 25.8075 23.603C25.8866 22.8618 25.768 22.1207 25.8075 21.4186C25.8075 20.7165 25.847 19.9753 25.8075 19.2732C25.8075 18.5711 25.768 17.8689 25.8075 17.1668C25.6494 16.4647 25.847 15.8016 25.8075 15.1384C25.8866 14.4753 25.8075 13.8122 25.8075 13.1491C25.8075 12.993 25.8075 12.837 25.8075 12.681V12.2519C25.768 11.9789 25.6889 11.7058 25.5307 11.4718C25.3726 11.2377 25.1749 11.0427 24.9773 10.8867C24.7401 10.7306 24.5028 10.6136 24.2261 10.5356C24.147 10.5356 24.1075 10.5356 24.0284 10.5356C23.9494 10.5356 23.9098 10.5356 23.8307 10.5356C23.6726 10.5356 23.5145 10.5356 23.3563 10.5356C23.0401 10.5356 22.7633 10.4966 22.447 10.5356C21.854 10.5356 21.261 10.5356 20.7075 10.5356C20.154 10.4186 19.561 10.4966 19.047 10.5356C18.4935 10.5356 17.9796 10.6136 17.4656 10.5356C16.9517 10.5356 16.4377 10.4576 15.9633 10.5356C15.4889 10.5356 15.0145 10.3796 14.5401 10.5356C14.0656 10.5746 13.6307 10.4186 13.1959 10.5356C12.761 10.6136 12.3656 10.5356 11.9703 10.5356C11.5749 10.5356 11.1796 10.5356 10.8238 10.5356C9.20284 10.4966 7.89819 10.4966 7.02842 10.4576C6.15866 10.3796 5.68424 10.3406 5.68424 10.3016C5.68424 10.2626 6.27726 10.2235 7.3447 10.1845C8.41214 10.1455 9.99354 10.1065 11.9703 10.1065C12.3656 10.1065 12.761 10.0285 13.1959 10.1065C13.6307 10.1065 14.0656 10.0285 14.5401 10.1065C15.0145 9.9895 15.4889 10.0675 15.9633 10.1065C16.4377 10.1065 16.9517 10.1455 17.4656 10.1065C17.9796 10.0285 18.5331 10.1455 19.047 10.1065C19.6005 10.1845 20.154 10.1455 20.7075 10.1065C21.261 10.1845 21.854 10.1065 22.447 10.1065C22.7633 10.1455 23.0401 10.1455 23.3563 10.1455C23.5145 10.1455 23.6726 10.1455 23.8307 10.1065C23.9098 10.1065 23.9889 10.1065 24.1075 10.1065C24.1866 10.1065 24.2656 10.1065 24.3842 10.1455C24.7401 10.1845 25.0563 10.3406 25.3726 10.5356C25.6494 10.7306 25.9261 11.0037 26.1238 11.3157C26.3214 11.6278 26.4401 11.9789 26.4796 12.3299V12.4079C26.4796 12.4469 26.4796 12.4469 26.4796 12.486V12.915C26.4796 13.0711 26.4796 13.2271 26.4796 13.3831C26.5191 14.0462 26.5587 14.7094 26.4796 15.3725C26.5191 16.0356 26.4796 16.7377 26.4796 17.4008C26.5191 18.103 26.4796 18.8051 26.4796 19.5072C26.5191 20.2094 26.361 20.9115 26.4796 21.6526C26.4796 22.3547 26.4796 23.0959 26.4796 23.837C26.4796 24.0321 26.4796 24.1881 26.4796 24.3831V24.7342C26.4796 24.7732 26.4796 24.7732 26.4796 24.8122V24.9682C26.4401 25.3973 26.2819 25.7874 26.0842 26.1774C25.8075 26.4895 25.4912 26.8016 25.0959 26.9966C24.7401 27.1916 24.3052 27.3477 23.8703 27.3477C23.1191 27.3867 22.3284 27.3477 21.5773 27.3477C20.8261 27.3477 20.0749 27.3477 19.3238 27.3477C18.5726 27.3867 17.8214 27.3087 17.1098 27.3477C16.3982 27.3867 15.647 27.3087 14.9354 27.3477C14.2238 27.3867 13.5121 27.3867 12.8005 27.3477C12.0889 27.3477 11.4168 27.2306 10.7447 27.3477C10.0726 27.3867 9.40052 27.5037 8.72842 27.3477C8.05633 27.3867 7.42377 27.2696 6.79121 27.3477C6.47494 27.3087 6.15866 27.3087 5.84238 27.3087H5.24935L5.13075 27.2696C5.09121 27.2696 5.05168 27.2696 5.01214 27.2306L4.89354 27.1916C4.57726 27.0746 4.30052 26.8796 4.02377 26.6455C3.78656 26.4115 3.58889 26.1384 3.43075 25.8654C3.27261 25.5923 3.19354 25.2413 3.19354 24.9292C3.19354 24.8902 3.19354 24.8512 3.19354 24.8122V24.6952C3.19354 24.6172 3.19354 24.5391 3.19354 24.5001C3.19354 24.3441 3.19354 24.2271 3.19354 24.0711C3.11447 23.525 3.27261 22.9399 3.19354 22.4328C3.19354 21.8867 3.19354 21.3796 3.19354 20.8725C3.0354 20.3654 3.19354 19.8583 3.19354 19.3902C3.23307 18.9221 3.07494 18.454 3.19354 17.986C3.07494 17.5179 3.19354 17.0888 3.19354 16.6597C3.23307 16.2306 3.15401 15.8406 3.19354 15.4505C3.11447 15.0604 3.23307 14.6704 3.19354 14.3193C3.23307 13.9682 3.19354 13.6172 3.19354 13.3051C3.19354 13.1491 3.19354 12.993 3.19354 12.837C3.19354 12.759 3.19354 12.681 3.23307 12.603C3.23307 12.525 3.27261 12.4469 3.27261 12.3689C3.35168 12.0569 3.47028 11.8228 3.58889 11.5888C3.70749 11.4328 3.8261 11.2767 3.9447 11.1597C4.02377 11.1207 4.06331 11.0427 4.14238 11.0037C4.22145 10.9647 4.26098 10.9257 4.34005 10.8867C4.6168 10.7306 4.854 10.6526 5.05168 10.6136C5.09121 10.6136 5.13075 10.6136 5.20982 10.5746C5.24935 10.5746 5.28889 10.5746 5.32842 10.5746C5.36796 10.5746 5.40749 10.5746 5.44703 10.5746C5.48656 10.5746 5.5261 10.5746 5.5261 10.5746C5.6447 10.3016 5.68424 10.3016 5.68424 10.3016Z" fill="#73523F"/>
<path d="M29.5238 11.8228C29.5238 11.8618 29.4842 11.8618 29.4447 11.9008C29.4052 11.9008 29.4052 11.9399 29.3656 11.9399C29.3261 11.9399 29.2866 11.9789 29.2866 11.9789C29.247 11.9789 29.247 12.0179 29.2075 12.0179C29.2075 12.0179 29.168 12.0179 29.168 12.0569H29.1284C29.0889 12.0179 29.0889 12.1739 29.0494 12.0959C29.0098 12.0959 28.9703 12.1349 28.9703 12.1739C28.9307 12.2129 28.8912 12.1739 28.8912 12.2519C28.8912 12.2909 28.8912 12.2909 28.8517 12.2909C28.8121 12.2909 28.7726 12.2909 28.8121 12.3299C28.8121 12.3689 28.7726 12.4079 28.7331 12.4469C28.6935 12.4469 28.654 12.4469 28.654 12.486C28.654 12.525 28.654 12.525 28.654 12.564C28.5354 12.564 28.5354 12.603 28.5749 12.681C28.4168 12.681 28.4168 12.72 28.5354 12.837C28.5354 12.876 28.4959 12.876 28.4959 12.915C28.4959 12.954 28.4959 12.954 28.4959 12.993C28.4959 13.0321 28.4959 13.0321 28.4959 13.0711C28.4959 13.1101 28.4959 13.1101 28.4959 13.1491C28.5354 13.1881 28.5749 13.1881 28.5749 13.2271V13.2661L28.5354 13.3051C28.654 13.3441 28.6145 13.3831 28.5749 13.4611C28.5749 13.5001 28.5749 13.5001 28.6145 13.5391C28.654 13.5782 28.654 13.5782 28.654 13.6172C28.654 13.6562 28.6935 13.6562 28.6935 13.6952C28.6935 13.7342 28.7331 13.7342 28.7331 13.7732V13.8512C28.7331 13.8902 28.7726 13.8902 28.8517 13.8902C28.8912 13.8902 28.9308 13.9292 28.9308 13.9292C28.9703 13.9292 28.9703 13.9682 28.9703 14.0072C29.0889 13.9682 29.0889 14.0072 29.1284 14.0852C29.168 14.0852 29.168 14.1243 29.2075 14.1243C29.247 14.1243 29.2866 14.1633 29.2866 14.1243C29.3261 14.1243 29.3656 14.1243 29.3656 14.1243C29.4052 14.1243 29.4447 14.1243 29.4447 14.1243C29.4842 14.1243 29.5238 14.1633 29.5633 14.1633C29.6028 14.1633 29.6424 14.1633 29.6424 14.1243C29.761 14.0462 29.761 14.0462 29.8005 14.0462C29.8401 14.0462 29.8796 14.0462 29.8796 14.0462C29.9191 14.0852 29.9587 14.0462 29.9587 14.0462C29.9982 14.0072 29.9982 13.9682 30.0377 13.9682C30.0773 13.9682 30.0773 13.9292 30.1168 13.9292C30.1563 13.9292 30.1563 13.8902 30.1959 13.8512C30.1959 13.8122 30.2354 13.8122 30.2354 13.7732C30.2354 13.7732 30.2354 13.7342 30.2749 13.7342C30.2749 13.7342 30.3145 13.7342 30.3145 13.6952C30.2749 13.6172 30.3145 13.6172 30.3145 13.6172C30.354 13.6172 30.3935 13.6172 30.3935 13.5782C30.4331 13.5782 30.4331 13.5391 30.4331 13.5001C30.4331 13.4611 30.4331 13.4221 30.4331 13.4221C30.4331 13.3831 30.4331 13.3831 30.4726 13.3441C30.5121 13.3051 30.5121 13.3051 30.4726 13.2661V13.1881C30.4726 13.1491 30.4726 13.1491 30.5121 13.1101C30.4726 13.0711 30.4726 13.0711 30.5121 13.0321C30.5121 12.993 30.5517 12.993 30.5121 12.954V12.876C30.5121 12.837 30.5121 12.837 30.5121 12.798C30.5517 12.759 30.5517 12.72 30.5517 12.72C30.5517 12.681 30.5121 12.681 30.4726 12.681C30.4726 12.642 30.354 12.642 30.3935 12.564C30.354 12.525 30.3935 12.4469 30.3145 12.4469C30.2749 12.4469 30.3145 12.4079 30.3145 12.3689C30.3145 12.3299 30.3145 12.3299 30.2354 12.3689C30.1959 12.3689 30.1959 12.3299 30.1959 12.2909C30.1959 12.2519 30.1959 12.2519 30.1168 12.2519C30.0377 12.2909 30.0773 12.2129 30.0377 12.1739C29.9982 12.1349 29.9587 12.1349 29.9587 12.0959C29.761 11.9008 29.5238 11.8618 29.5238 11.8228C29.5238 11.8228 29.5238 11.7838 29.5633 11.7838C29.6028 11.7838 29.6424 11.7448 29.7214 11.7448C29.8401 11.7448 30.0377 11.7448 30.2749 11.8618C30.3145 11.9008 30.4331 11.8228 30.4331 11.9399C30.4726 11.9399 30.4726 11.9789 30.5121 11.9789C30.5517 11.9789 30.5517 12.0179 30.5912 12.0569C30.6308 12.0569 30.6703 12.0569 30.7098 12.0959C30.7098 12.1349 30.7098 12.1739 30.7494 12.1739C30.7889 12.2129 30.7889 12.2909 30.868 12.3299C30.947 12.3689 30.9075 12.4469 30.9866 12.525C30.947 12.603 30.9866 12.681 31.0656 12.72C31.0656 12.759 31.0656 12.798 31.0656 12.837L31.1052 12.876V12.915C31.0656 12.954 31.0656 12.993 31.0656 13.0321C31.0656 13.0711 31.1052 13.1101 31.1447 13.1491C31.1842 13.1881 31.1447 13.2271 31.1447 13.2661C31.1447 13.3051 31.1447 13.3051 31.1447 13.3441C31.1447 13.3831 31.1447 13.3831 31.1447 13.4221C31.1052 13.5001 31.1447 13.6172 31.1052 13.6952C31.1052 13.7342 31.1052 13.8122 31.1052 13.8512C31.1052 13.8902 31.0656 13.9292 31.0261 13.9682C31.0261 14.0072 30.9866 14.0462 30.9866 14.0852C30.947 14.1243 30.9075 14.1633 30.9075 14.2023C30.9075 14.2413 30.9075 14.2413 30.868 14.2803L30.8284 14.3193C30.7889 14.3583 30.7494 14.3973 30.7098 14.4363C30.6703 14.4753 30.6308 14.4753 30.5912 14.5143C30.5517 14.5143 30.5121 14.5533 30.4726 14.6313C30.3935 14.7094 30.2749 14.7094 30.1959 14.7874C30.1563 14.7874 30.0773 14.8264 30.0377 14.8264C29.9982 14.8264 29.9191 14.8654 29.8796 14.8654C29.8005 14.8264 29.761 14.8264 29.7214 14.8264C29.6819 14.8264 29.6028 14.8654 29.5633 14.9044C29.5238 14.9044 29.4447 14.9044 29.4052 14.9044C29.3656 14.9044 29.2866 14.8654 29.247 14.8654C29.2075 14.8654 29.1284 14.8654 29.0889 14.8264C29.0494 14.8264 29.0098 14.7874 28.9308 14.7874C28.8912 14.7874 28.8517 14.7484 28.7726 14.7094C28.7331 14.6704 28.6935 14.6313 28.654 14.6313C28.6145 14.6313 28.5749 14.5923 28.5354 14.5533C28.4959 14.5143 28.4563 14.4753 28.4168 14.4363C28.3773 14.3973 28.3377 14.3973 28.2982 14.3583C28.2982 14.3583 28.2587 14.3193 28.2587 14.2803C28.2587 14.2413 28.2587 14.2413 28.2191 14.2023C28.1796 14.1633 28.1796 14.1243 28.1796 14.0462C28.1796 14.0072 28.1401 13.9682 28.1005 13.9292C28.061 13.8902 28.0214 13.8512 27.9819 13.8122C27.9424 13.7732 27.9424 13.7342 27.9819 13.6562C27.9424 13.6172 27.9424 13.5782 27.9424 13.5391C27.9424 13.5001 27.9424 13.4611 27.9028 13.4221C27.9424 13.3831 27.9424 13.3831 27.9424 13.3441C27.9424 13.3051 27.9424 13.3051 27.9424 13.2661C27.9424 13.2271 27.9028 13.1881 27.9028 13.1491C27.9028 13.1101 27.9424 13.0711 27.9424 13.0321C27.9424 12.993 27.9424 12.954 27.9424 12.915C27.9028 12.876 27.9424 12.837 27.9424 12.798C27.9819 12.759 27.9819 12.72 27.9819 12.681C27.9819 12.642 27.9819 12.603 28.0214 12.564C28.061 12.525 28.1005 12.525 28.061 12.4469C28.1005 12.3689 28.1401 12.3299 28.1796 12.2519C28.1401 12.1739 28.1796 12.1349 28.1796 12.1349C28.2191 12.1349 28.2587 12.1349 28.2982 12.0959C28.3377 12.0959 28.3377 12.0569 28.3377 12.0179C28.3377 11.9789 28.3773 11.9789 28.4168 11.9789C28.4168 11.9008 28.4168 11.9008 28.4563 11.9008C28.4959 11.9008 28.5354 11.9008 28.5749 11.9008C28.654 11.9008 28.654 11.7838 28.7331 11.8228C28.7331 11.7448 28.8517 11.8228 28.8517 11.7838C28.9307 11.8228 28.9307 11.7448 28.9703 11.7448L29.0098 11.7058C29.0098 11.7058 29.0494 11.7058 29.0889 11.7058C29.1284 11.7058 29.168 11.7058 29.2075 11.7058C29.247 11.7058 29.2866 11.7058 29.3261 11.7058C29.3656 11.7058 29.4052 11.7058 29.4052 11.7448C29.5238 11.7838 29.5238 11.7838 29.5238 11.8228Z" fill="#73523F"/>
<path d="M29.5238 17.2838C29.5238 17.3228 29.4842 17.3228 29.4447 17.3618C29.4052 17.3618 29.4052 17.4008 29.3656 17.4008C29.3261 17.4008 29.2866 17.4399 29.2866 17.4399C29.247 17.4399 29.247 17.4789 29.2075 17.4789C29.2075 17.4789 29.168 17.4789 29.168 17.5179H29.1284C29.0889 17.4789 29.0889 17.6349 29.0494 17.5569C29.0098 17.5569 28.9703 17.5959 28.9703 17.6349C28.9307 17.6739 28.8912 17.6349 28.8912 17.7129C28.8912 17.7519 28.8912 17.7519 28.8517 17.7519C28.8121 17.7519 28.7726 17.7519 28.8121 17.7909C28.8121 17.8299 28.7726 17.8689 28.7331 17.9079C28.6935 17.9079 28.654 17.9079 28.654 17.9469C28.654 17.986 28.654 17.986 28.654 18.025C28.5354 18.025 28.5354 18.064 28.5749 18.142C28.4168 18.142 28.4168 18.181 28.5354 18.298C28.5354 18.337 28.4959 18.337 28.4959 18.376V18.415C28.4959 18.415 28.4959 18.454 28.5354 18.454C28.5354 18.493 28.5354 18.493 28.5354 18.5321C28.5354 18.5711 28.5354 18.5711 28.5354 18.6101C28.5749 18.6491 28.6145 18.6491 28.6145 18.6881V18.7271L28.5749 18.7661C28.6935 18.8051 28.654 18.8441 28.6145 18.9221C28.6145 18.9611 28.6145 18.9611 28.654 19.0001C28.6935 19.0001 28.6935 19.0391 28.6935 19.0782C28.6935 19.1172 28.7331 19.1172 28.7331 19.1562C28.7331 19.1952 28.7726 19.1952 28.7726 19.2342V19.3122C28.7726 19.3512 28.8121 19.3512 28.8912 19.3512C28.9307 19.3512 28.9703 19.3902 28.9703 19.3902C29.0098 19.3902 29.0098 19.4292 29.0098 19.4682C29.1284 19.4292 29.1284 19.4682 29.168 19.5462C29.2075 19.5462 29.2075 19.5852 29.247 19.5852C29.2866 19.5852 29.3261 19.6243 29.3261 19.5852C29.3656 19.5852 29.4052 19.5852 29.4052 19.5852C29.4447 19.5852 29.4842 19.5852 29.4842 19.5852C29.5238 19.5852 29.5633 19.6243 29.6028 19.6243C29.6424 19.6243 29.6819 19.6243 29.6819 19.5852C29.7214 19.5462 29.7214 19.5462 29.761 19.5462C29.8005 19.5462 29.8401 19.5462 29.8401 19.5462C29.8796 19.5852 29.9191 19.5462 29.9191 19.5462C29.9587 19.5072 29.9587 19.4682 29.9982 19.4682C30.0377 19.4682 30.0377 19.4292 30.0773 19.4292C30.1168 19.4292 30.1168 19.3902 30.1563 19.3512C30.1563 19.3122 30.1959 19.3122 30.1959 19.2732L30.2354 19.2342C30.2354 19.2342 30.2749 19.2342 30.2749 19.1952C30.2354 19.1172 30.2749 19.1172 30.2749 19.1172C30.3145 19.1172 30.354 19.1172 30.354 19.0782C30.3935 19.0782 30.3935 19.0391 30.3935 19.0001C30.3935 18.9611 30.3935 18.9221 30.3935 18.9221C30.3935 18.8831 30.3935 18.8831 30.4331 18.8441C30.4726 18.8051 30.4726 18.8051 30.4331 18.7661V18.6881C30.4331 18.6491 30.4331 18.6491 30.4726 18.6101C30.4331 18.5711 30.4331 18.5711 30.4726 18.5321C30.4726 18.493 30.5121 18.493 30.4726 18.454V18.376C30.4726 18.337 30.4726 18.337 30.4726 18.298C30.5121 18.259 30.5121 18.22 30.5121 18.22C30.5121 18.181 30.4726 18.181 30.4331 18.181C30.4331 18.142 30.3145 18.142 30.354 18.064C30.354 18.025 30.354 17.9469 30.2749 17.9469C30.2354 17.9469 30.2749 17.9079 30.2749 17.8689C30.2749 17.8299 30.2749 17.8299 30.1959 17.8689C30.1563 17.8689 30.1959 17.8299 30.1563 17.7909C30.1563 17.7519 30.1563 17.7519 30.0773 17.7519C29.9982 17.7909 30.0377 17.7129 29.9982 17.6739C29.9587 17.6349 29.9191 17.6349 29.9191 17.5959C29.761 17.3618 29.5238 17.3228 29.5238 17.2838C29.5238 17.2838 29.5238 17.2448 29.5633 17.2448C29.6028 17.2448 29.6424 17.2058 29.7214 17.2058C29.8401 17.2058 30.0377 17.2058 30.2749 17.3228C30.3145 17.3618 30.4331 17.2838 30.4331 17.4008C30.4726 17.4008 30.4726 17.4399 30.5121 17.4399C30.5517 17.4399 30.5517 17.4789 30.5912 17.5179C30.7098 17.4789 30.7098 17.5959 30.7494 17.6349C30.7889 17.6739 30.7889 17.7519 30.868 17.7909C30.947 17.8299 30.9075 17.9079 30.9866 17.986C30.947 18.064 30.9866 18.142 31.0656 18.181C31.0656 18.22 31.0656 18.259 31.0656 18.298L31.1052 18.337V18.376C31.0656 18.415 31.0656 18.454 31.0656 18.493C31.0656 18.5321 31.1052 18.5711 31.1447 18.6101C31.1842 18.6491 31.1447 18.6881 31.1447 18.7271C31.1447 18.7661 31.1447 18.7661 31.1447 18.8051C31.1447 18.8441 31.1447 18.8441 31.1447 18.8831C31.1052 18.9611 31.1447 19.0782 31.1052 19.1562C31.1052 19.1952 31.1052 19.2732 31.1052 19.3122C31.1052 19.3512 31.0656 19.3902 31.0261 19.4292C31.0261 19.4682 30.9866 19.5072 30.9866 19.5462C30.947 19.5852 30.9075 19.6243 30.9075 19.6633C30.9075 19.7023 30.9075 19.7023 30.868 19.7413L30.8284 19.7803C30.7889 19.8193 30.7494 19.8583 30.7098 19.8973C30.6703 19.9363 30.6308 19.9363 30.5912 19.9753C30.5517 19.9753 30.5121 20.0143 30.4726 20.0923C30.3935 20.1704 30.2749 20.1704 30.1959 20.2484C30.1563 20.2484 30.0773 20.2874 30.0377 20.2874C29.9982 20.2874 29.9191 20.3264 29.8796 20.3264C29.8005 20.2874 29.761 20.2874 29.7214 20.2874C29.6819 20.2874 29.6028 20.3264 29.5633 20.3654C29.5238 20.3654 29.4447 20.3654 29.4052 20.3654C29.3656 20.3654 29.2866 20.3264 29.247 20.3264C29.2075 20.3264 29.1284 20.3264 29.0889 20.2874C29.0494 20.2874 29.0098 20.2484 28.9308 20.2484C28.8912 20.2484 28.8517 20.2094 28.7726 20.1704C28.7331 20.1313 28.6935 20.0923 28.654 20.0923C28.6145 20.0923 28.5749 20.0533 28.5354 20.0143C28.4959 19.9753 28.4563 19.9363 28.4168 19.8973C28.3773 19.8583 28.3377 19.8583 28.2982 19.8193C28.2982 19.8193 28.2587 19.7803 28.2587 19.7413C28.2587 19.7023 28.2587 19.7023 28.2191 19.6633C28.1796 19.6243 28.1796 19.5852 28.1796 19.5072C28.1796 19.4682 28.1401 19.4292 28.1005 19.3902C28.061 19.3512 28.0214 19.3122 27.9819 19.2732C27.9424 19.2342 27.9424 19.1952 27.9819 19.1172C27.9424 19.0782 27.9424 19.0391 27.9424 19.0001C27.9424 18.9611 27.9424 18.9221 27.9028 18.8831C27.9424 18.8441 27.9424 18.8441 27.9424 18.8051C27.9424 18.7661 27.9424 18.7661 27.9424 18.7271C27.9424 18.6881 27.9028 18.6491 27.9028 18.6101C27.9028 18.5711 27.9424 18.5321 27.9424 18.493C27.9424 18.454 27.9424 18.415 27.9424 18.376C27.9424 18.337 27.9424 18.337 27.9424 18.298C27.9424 18.298 27.9424 18.259 27.9819 18.259C28.0214 18.22 28.0214 18.181 28.0214 18.142C28.0214 18.103 28.0214 18.064 28.061 18.025C28.1005 17.986 28.1401 17.986 28.1005 17.9079C28.1401 17.8299 28.1796 17.7909 28.2191 17.7129C28.1796 17.6349 28.2191 17.5959 28.2191 17.5959C28.2587 17.5959 28.2982 17.5959 28.3377 17.5569C28.3773 17.5569 28.3773 17.5179 28.3773 17.4789C28.3773 17.4399 28.4168 17.4399 28.4563 17.4399C28.4563 17.3618 28.4563 17.3618 28.4959 17.3618C28.5354 17.3618 28.5749 17.3618 28.6145 17.3618C28.6935 17.3618 28.6935 17.2448 28.7726 17.2838C28.7726 17.2058 28.8912 17.2838 28.8912 17.2448C28.9703 17.2838 28.9703 17.2058 29.0098 17.2058L29.0494 17.1668C29.0494 17.1668 29.0889 17.1668 29.1284 17.1668C29.168 17.1668 29.2075 17.1668 29.247 17.1668C29.2866 17.1668 29.3261 17.1668 29.3656 17.1668C29.4052 17.1668 29.4447 17.1668 29.4447 17.2058C29.5238 17.2448 29.5238 17.2448 29.5238 17.2838Z" fill="#73523F"/>
<path d="M29.5238 22.7448C29.5238 22.7838 29.4842 22.7838 29.4447 22.8228C29.4052 22.8228 29.4052 22.8618 29.3656 22.8618C29.3261 22.8618 29.2866 22.9009 29.2866 22.9009C29.247 22.9009 29.247 22.9399 29.2075 22.9399C29.2075 22.9399 29.168 22.9399 29.168 22.9789H29.1284C29.0889 22.9399 29.0889 23.0959 29.0494 23.0179C29.0098 23.0179 28.9703 23.0569 28.9703 23.0959C28.9307 23.1349 28.8912 23.0959 28.8912 23.1739C28.8912 23.2129 28.8912 23.2129 28.8517 23.2129C28.8121 23.2129 28.7726 23.2129 28.8121 23.2519C28.8121 23.2909 28.7726 23.3299 28.7331 23.3689C28.6935 23.3689 28.654 23.3689 28.654 23.4079C28.654 23.4469 28.654 23.4469 28.654 23.486C28.5354 23.486 28.5354 23.525 28.5749 23.603C28.4168 23.603 28.4168 23.642 28.5354 23.759C28.5354 23.798 28.4959 23.798 28.4959 23.837V23.876C28.4959 23.876 28.4959 23.915 28.5354 23.915C28.5354 23.954 28.5354 23.954 28.5354 23.993C28.5354 24.0321 28.5354 24.0321 28.5354 24.0711C28.5749 24.1101 28.6145 24.1101 28.6145 24.1491V24.1881L28.5749 24.2271C28.6935 24.2661 28.654 24.3051 28.6145 24.3831C28.6145 24.4221 28.6145 24.4221 28.654 24.4611C28.6935 24.4611 28.6935 24.5001 28.6935 24.5391C28.6935 24.5782 28.7331 24.5782 28.7331 24.6172C28.7331 24.6562 28.7726 24.6562 28.7726 24.6952V24.7732C28.7726 24.8122 28.8121 24.8122 28.8912 24.8122C28.9307 24.8122 28.9703 24.8512 28.9703 24.8512C29.0098 24.8512 29.0098 24.8902 29.0098 24.9292C29.1284 24.8902 29.1284 24.9292 29.168 25.0072C29.2075 25.0072 29.2075 25.0462 29.247 25.0462C29.2866 25.0462 29.3261 25.0852 29.3261 25.0462C29.3656 25.0462 29.4052 25.0462 29.4052 25.0462C29.4447 25.0462 29.4842 25.0462 29.4842 25.0462C29.5238 25.0462 29.5633 25.0852 29.6028 25.0852C29.6424 25.0852 29.6819 25.0852 29.6819 25.0462C29.7214 25.0072 29.7214 25.0072 29.761 25.0072C29.8005 25.0072 29.8401 25.0072 29.8401 25.0072C29.8796 25.0462 29.9191 25.0072 29.9191 25.0072C29.9587 24.9682 29.9587 24.9292 29.9982 24.9292C30.0377 24.9292 30.0377 24.8902 30.0773 24.8902C30.1168 24.8902 30.1168 24.8512 30.1563 24.8122C30.1563 24.7732 30.1959 24.7732 30.1959 24.7342C30.1959 24.7342 30.1959 24.6952 30.2354 24.6952C30.2354 24.6952 30.2749 24.6952 30.2749 24.6562C30.2354 24.5782 30.2749 24.5782 30.2749 24.5782C30.3145 24.5782 30.354 24.5782 30.354 24.5391C30.3935 24.5391 30.3935 24.5001 30.3935 24.4611C30.3935 24.4221 30.3935 24.3831 30.3935 24.3831C30.3935 24.3441 30.3935 24.3441 30.4331 24.3051C30.4726 24.2661 30.4726 24.2661 30.4331 24.2271V24.1491C30.4331 24.1101 30.4331 24.1101 30.4726 24.0711C30.4331 24.0321 30.4331 24.0321 30.4726 23.993C30.4726 23.954 30.5121 23.954 30.4726 23.915V23.837C30.4726 23.798 30.4726 23.798 30.4726 23.759C30.5121 23.72 30.5121 23.681 30.5121 23.681C30.5121 23.642 30.4726 23.642 30.4331 23.642C30.4331 23.603 30.3145 23.603 30.354 23.525C30.354 23.486 30.354 23.4079 30.2749 23.4079C30.2354 23.4079 30.2749 23.3689 30.2749 23.3299C30.2749 23.2909 30.2749 23.2909 30.1959 23.3299C30.1563 23.3299 30.1563 23.2909 30.1563 23.2519C30.1563 23.2129 30.1563 23.2129 30.0773 23.2129C29.9982 23.2519 30.0377 23.1739 29.9982 23.1349C29.9587 23.0959 29.9191 23.0959 29.9191 23.0569C29.761 22.8228 29.5238 22.8228 29.5238 22.7448C29.5238 22.7448 29.5238 22.7058 29.5633 22.7058C29.6028 22.7058 29.6424 22.6668 29.7214 22.6668C29.8401 22.6668 30.0377 22.6668 30.2749 22.7838C30.3145 22.8228 30.4331 22.7448 30.4331 22.8618C30.4726 22.8618 30.4726 22.9009 30.5121 22.9009C30.5517 22.9009 30.5517 22.9399 30.5912 22.9789C30.7098 22.9399 30.7098 23.0569 30.7494 23.0959C30.7889 23.1349 30.7889 23.2129 30.868 23.2519C30.947 23.2909 30.9075 23.3689 30.9866 23.4469C30.947 23.525 30.9866 23.603 31.0656 23.642C31.0656 23.681 31.0656 23.72 31.0656 23.759L31.1052 23.798V23.837C31.0656 23.876 31.0656 23.915 31.0656 23.954C31.0656 23.993 31.1052 24.0321 31.1447 24.0711C31.1842 24.1101 31.1447 24.1491 31.1447 24.1881C31.1447 24.2271 31.1447 24.2271 31.1447 24.2661C31.1447 24.3051 31.1447 24.3051 31.1447 24.3441C31.1052 24.4221 31.1447 24.5391 31.1052 24.6172C31.1052 24.6562 31.1052 24.7342 31.1052 24.7732C31.1052 24.8122 31.0656 24.8512 31.0261 24.8902C31.0261 24.9292 30.9866 24.9682 30.9866 25.0072C30.947 25.0462 30.9075 25.0852 30.9075 25.1243C30.9075 25.1633 30.9075 25.1633 30.868 25.2023L30.8284 25.2413C30.7889 25.2803 30.7494 25.3193 30.7098 25.3583C30.6703 25.3973 30.6308 25.3973 30.5912 25.4363C30.5517 25.4363 30.5121 25.4753 30.4726 25.5533C30.3935 25.6313 30.2749 25.6313 30.1959 25.7094C30.1563 25.7094 30.0773 25.7484 30.0377 25.7484C29.9982 25.7484 29.9191 25.7874 29.8796 25.7874C29.8005 25.7484 29.761 25.7484 29.7214 25.7484C29.6819 25.7484 29.6028 25.7874 29.5633 25.8264C29.5238 25.8264 29.4447 25.8264 29.4052 25.8264C29.3656 25.8264 29.2866 25.7874 29.247 25.7874C29.2075 25.7874 29.1284 25.7874 29.0889 25.7484C29.0494 25.7484 28.9703 25.7094 28.9308 25.7094C28.8912 25.7094 28.8517 25.6704 28.7726 25.6313C28.7331 25.5923 28.6935 25.5533 28.654 25.5533C28.6145 25.5533 28.5749 25.5143 28.5354 25.4753C28.4959 25.4363 28.4563 25.3973 28.4168 25.3583C28.3773 25.3193 28.3377 25.3193 28.2982 25.2803C28.2982 25.2803 28.2587 25.2413 28.2587 25.2023C28.2587 25.1633 28.2587 25.1633 28.2191 25.1243C28.1796 25.0852 28.1796 25.0462 28.1796 24.9682C28.1796 24.9292 28.1401 24.8902 28.1005 24.8512C28.061 24.8122 28.0214 24.7732 27.9819 24.7342C27.9424 24.6952 27.9424 24.6562 27.9819 24.5782C27.9424 24.5391 27.9424 24.5001 27.9424 24.4611C27.9424 24.4221 27.9424 24.3831 27.9028 24.3441C27.9424 24.3051 27.9424 24.3051 27.9424 24.2661C27.9424 24.2271 27.9424 24.2271 27.9424 24.1881C27.9424 24.1491 27.9028 24.1101 27.9028 24.0711C27.9028 24.0321 27.9424 23.993 27.9424 23.954C27.9424 23.915 27.9424 23.876 27.9424 23.837C27.9424 23.798 27.9424 23.798 27.9424 23.759C27.9424 23.72 27.9424 23.72 27.9819 23.72C28.0214 23.681 28.0214 23.642 28.0214 23.603C28.0214 23.564 28.0214 23.525 28.061 23.486C28.1005 23.4469 28.1401 23.4469 28.1005 23.3689C28.1401 23.2909 28.1796 23.2519 28.2191 23.1739C28.1796 23.0959 28.1796 23.0569 28.2191 23.0569C28.2587 23.0569 28.2982 23.0569 28.3377 23.0179C28.3773 23.0179 28.3773 22.9789 28.3773 22.9399C28.3773 22.9008 28.4168 22.9009 28.4563 22.9009C28.4563 22.8228 28.4563 22.8228 28.4959 22.8228C28.5354 22.8228 28.5749 22.8228 28.6145 22.8228C28.6935 22.8228 28.6935 22.7058 28.7726 22.7448C28.7726 22.6668 28.8912 22.7448 28.8912 22.7058C28.9703 22.7448 28.9703 22.6668 29.0098 22.6668L29.0494 22.6278C29.0494 22.6278 29.0889 22.6278 29.1284 22.6278C29.168 22.6278 29.2075 22.6278 29.247 22.6278C29.2866 22.6278 29.3261 22.6278 29.3656 22.6278C29.4052 22.6278 29.4447 22.6278 29.4447 22.6668C29.5238 22.7058 29.5238 22.7058 29.5238 22.7448Z" fill="#73523F"/>
<path d="M13.0773 18.8831C13.0377 18.8441 13.0377 18.8051 13.1168 18.6881C13.1168 18.6881 13.1168 18.6491 13.1563 18.6491C13.1563 18.6101 13.1563 18.6101 13.1959 18.6101C13.2354 18.6491 13.1563 18.493 13.2354 18.5711C13.2749 18.5711 13.2749 18.5321 13.2749 18.493C13.2749 18.454 13.354 18.493 13.3145 18.415C13.2749 18.337 13.4331 18.454 13.354 18.337C13.354 18.298 13.3935 18.298 13.3935 18.259C13.4726 18.298 13.4331 18.22 13.4331 18.181C13.5121 18.22 13.5121 18.181 13.5121 18.103C13.6307 18.181 13.6307 18.142 13.5912 18.025C13.6307 17.986 13.6703 18.025 13.6703 17.9469C13.7098 17.9079 13.7098 17.8689 13.7494 17.8689C13.7098 17.7909 13.7494 17.7519 13.8284 17.7909C13.7889 17.7129 13.8284 17.6739 13.9075 17.7129C13.9866 17.7129 13.9075 17.5959 13.9866 17.6349C14.0261 17.5959 14.0261 17.5569 14.0656 17.5569C14.1447 17.5569 14.1842 17.5569 14.1447 17.4399C14.1447 17.4008 14.1842 17.3228 14.2238 17.3228C14.2238 17.1668 14.2633 17.1668 14.3424 17.1668C14.3819 17.1278 14.461 17.1278 14.461 17.0498C14.5005 17.0108 14.5005 16.9328 14.5796 16.9328C14.6191 16.9328 14.6982 16.8938 14.6982 16.8157C14.6982 16.7377 14.7773 16.7767 14.8168 16.6987C14.9354 16.7377 14.8563 16.6207 14.9354 16.6207C14.9749 16.5817 15.054 16.5817 15.054 16.5427C15.0935 16.5037 15.0935 16.4647 15.1726 16.4647C15.0935 16.3477 15.2517 16.4257 15.2517 16.3867C15.3308 16.3867 15.2912 16.3087 15.3308 16.3087C15.3308 16.2696 15.4494 16.3087 15.4098 16.2306C15.4494 16.1916 15.4494 16.1526 15.4889 16.1526C15.4494 16.0746 15.6075 16.1526 15.568 16.0746C15.6075 16.0356 15.6075 16.0356 15.647 15.9966C15.7656 16.0356 15.7261 15.9576 15.7261 15.9186C15.7656 15.9186 15.7261 15.8406 15.8052 15.8406C15.8447 15.8406 15.8842 15.8406 15.8842 15.8016C15.8842 15.7626 16.0424 15.8796 15.9633 15.7626C15.9633 15.7235 16.0819 15.8016 16.0424 15.7235C16.0028 15.6455 16.0819 15.6845 16.1214 15.6845C16.161 15.6845 16.161 15.6455 16.2005 15.6455C16.3982 15.5285 16.5168 15.4895 16.5563 15.5285C16.5959 15.5675 16.5563 15.7235 16.3982 15.9576C16.3982 15.9966 16.4377 16.0356 16.3587 16.0356C16.3587 16.0356 16.3587 16.1136 16.3191 16.1136C16.3587 16.1916 16.2796 16.1526 16.2796 16.1916C16.2796 16.2306 16.2005 16.2306 16.2401 16.2696C16.2796 16.3477 16.161 16.3087 16.161 16.3477C16.0819 16.3087 16.0819 16.3477 16.0819 16.4257C16.0028 16.3867 16.0424 16.5037 16.0028 16.5037C15.9238 16.4647 15.9238 16.5427 15.9238 16.5817C15.9238 16.6207 15.8447 16.6207 15.8447 16.6597C15.8052 16.6597 15.8052 16.7377 15.7656 16.7377C15.7656 16.8157 15.7656 16.8547 15.6866 16.8157C15.6866 16.8547 15.647 16.8938 15.6075 16.8938C15.6075 16.9718 15.5284 16.9718 15.5284 17.0108C15.5284 17.0498 15.3703 17.0108 15.4494 17.1278C15.4098 17.1668 15.3703 17.1668 15.3703 17.2448C15.3307 17.2838 15.2912 17.2838 15.2517 17.3618C15.1331 17.3228 15.1726 17.4008 15.1331 17.4789C15.1331 17.5179 15.0935 17.5569 15.0145 17.5959C14.9749 17.6349 14.9354 17.6739 14.8959 17.7129C14.8959 17.7519 14.7773 17.7519 14.7773 17.7909C14.7773 17.8689 14.6587 17.8299 14.6587 17.8689C14.6587 17.9079 14.6191 17.9469 14.5401 17.9469C14.5005 17.986 14.4214 17.9469 14.461 18.025C14.461 18.064 14.5005 18.181 14.3819 18.103C14.3819 18.142 14.2633 18.103 14.3028 18.181C14.1842 18.142 14.2238 18.22 14.2238 18.259C14.1842 18.259 14.1447 18.259 14.1447 18.337C14.1447 18.415 14.0656 18.376 14.0656 18.415C14.0656 18.493 13.947 18.415 13.9866 18.493C13.947 18.493 13.947 18.5321 13.9075 18.5711C13.9866 18.6881 13.868 18.6101 13.8284 18.6101C13.7889 18.6101 13.868 18.7271 13.7494 18.6491C13.7889 18.7661 13.7098 18.6881 13.6703 18.6881C13.6307 18.6881 13.6703 18.7661 13.5912 18.7271C13.6307 18.8051 13.5121 18.7271 13.5121 18.7661C13.4726 18.7271 13.4726 18.8051 13.4726 18.8051C13.4726 18.8441 13.4331 18.8441 13.4331 18.8441C13.4331 18.8441 13.3935 18.8441 13.3935 18.8831C13.1959 18.9221 13.1168 18.9221 13.0773 18.8831Z" fill="#73523F"/>
<path d="M13.1959 21.6526C13.1563 21.6136 13.1563 21.5746 13.2354 21.4576C13.2354 21.4576 13.2354 21.4186 13.2749 21.4186C13.2749 21.3796 13.2749 21.3796 13.3145 21.3796C13.354 21.4186 13.2749 21.2626 13.354 21.3406C13.3935 21.3406 13.3935 21.3016 13.3935 21.2626C13.3935 21.2235 13.4726 21.2626 13.4331 21.1845C13.3935 21.1065 13.5517 21.2235 13.4726 21.1065C13.4726 21.0675 13.5121 21.0675 13.5121 21.0285C13.5912 21.0675 13.5517 20.9895 13.5517 20.9505C13.6308 20.9895 13.6307 20.9505 13.6307 20.8725C13.7494 20.9505 13.7494 20.9115 13.7098 20.7945C13.7494 20.7555 13.7889 20.7945 13.7889 20.7165C13.8284 20.6774 13.8284 20.6384 13.868 20.6384C13.8284 20.5604 13.868 20.5214 13.947 20.5604C13.9075 20.4824 13.947 20.4434 14.0261 20.4824C14.1052 20.4824 14.0261 20.3654 14.1052 20.4044C14.1447 20.3654 14.1447 20.3264 14.1842 20.3264C14.2633 20.3264 14.3028 20.3264 14.2633 20.2094C14.2633 20.1704 14.3028 20.0923 14.3424 20.0923C14.3028 19.9753 14.3819 19.9753 14.4214 19.9753C14.461 19.9363 14.5401 19.9363 14.5401 19.8583C14.5796 19.8193 14.5796 19.7413 14.6587 19.7413C14.6982 19.7413 14.7773 19.7023 14.7773 19.6243C14.7773 19.5462 14.8563 19.5852 14.8959 19.5072C15.0145 19.5462 14.9354 19.4292 15.0145 19.4292C15.054 19.3902 15.1331 19.3902 15.1331 19.3512C15.1331 19.3122 15.1726 19.2732 15.2517 19.2732C15.1726 19.1562 15.3308 19.2342 15.3308 19.1952C15.4098 19.1952 15.3703 19.1172 15.4098 19.1172C15.4098 19.0782 15.5284 19.1172 15.4889 19.0391C15.5284 19.0001 15.5284 18.9611 15.568 18.9611C15.5284 18.8831 15.6866 18.9611 15.647 18.8831C15.6866 18.8441 15.6866 18.8441 15.7261 18.8051C15.8447 18.8441 15.8052 18.7661 15.8052 18.7271C15.8447 18.7271 15.8052 18.6491 15.8842 18.6491C15.9238 18.6491 15.9633 18.6491 15.9633 18.6101C15.9633 18.5711 16.1214 18.6881 16.0424 18.5711C16.0424 18.5321 16.161 18.6101 16.1214 18.5321C16.0819 18.454 16.161 18.493 16.2005 18.493C16.2401 18.493 16.2401 18.454 16.2796 18.454C16.4773 18.337 16.5959 18.298 16.6354 18.337C16.6749 18.376 16.6354 18.5321 16.4773 18.7661C16.4773 18.8051 16.5168 18.8441 16.4377 18.8441C16.4377 18.8441 16.4377 18.9221 16.3982 18.9221C16.4377 19.0001 16.3587 18.9611 16.3587 19.0001C16.3587 19.0391 16.2796 19.0391 16.3191 19.0782C16.3587 19.1562 16.2401 19.1172 16.2401 19.1562C16.161 19.1172 16.161 19.1562 16.161 19.2342C16.0819 19.1952 16.1214 19.3122 16.0819 19.3122C15.9633 19.1952 15.9633 19.2732 15.9633 19.3512C15.9633 19.3902 15.8842 19.3902 15.8842 19.4292C15.8447 19.4292 15.8447 19.5072 15.8052 19.5072C15.8052 19.5852 15.8052 19.6243 15.7261 19.5852C15.7261 19.6243 15.6866 19.6633 15.647 19.6633C15.647 19.7413 15.568 19.7413 15.568 19.7803C15.568 19.8193 15.4098 19.7803 15.4889 19.8973C15.4494 19.9363 15.4098 19.9363 15.4098 20.0143C15.3703 20.0533 15.3307 20.0533 15.2912 20.1313C15.1726 20.0923 15.2121 20.1704 15.1726 20.2484C15.1726 20.2874 15.1331 20.3264 15.054 20.3654C15.0145 20.4044 14.9749 20.4434 14.9354 20.4824C14.9354 20.5214 14.8168 20.5214 14.8168 20.5604C14.8168 20.6384 14.6982 20.5994 14.6982 20.6384C14.6982 20.6774 14.6587 20.7555 14.5796 20.7165C14.5401 20.7555 14.461 20.7165 14.5005 20.7945C14.5005 20.8335 14.5401 20.9505 14.4214 20.8725C14.4214 20.9115 14.3028 20.8725 14.3424 20.9505C14.2238 20.9115 14.2633 20.9895 14.2633 21.0285C14.2238 21.0285 14.1842 21.0285 14.1842 21.1065C14.1842 21.1845 14.1052 21.1455 14.1052 21.1845C14.1052 21.2626 13.9866 21.1845 14.0261 21.2626C13.9866 21.2626 13.9866 21.3016 13.947 21.3406C14.0261 21.4576 13.9075 21.3796 13.868 21.3796C13.8284 21.3796 13.9075 21.4966 13.7889 21.4186C13.8284 21.5356 13.7494 21.4576 13.7098 21.4576C13.6703 21.4576 13.7098 21.5356 13.6307 21.4966C13.6703 21.5746 13.5517 21.4966 13.5517 21.5356C13.5121 21.4966 13.5121 21.5746 13.5121 21.5746C13.5121 21.6136 13.4726 21.6136 13.4726 21.6136C13.4726 21.6136 13.4331 21.6136 13.4331 21.6526C13.3145 21.6916 13.2354 21.6916 13.1959 21.6526Z" fill="#73523F"/>
<path d="M5.44703 30.0391C5.48656 30.0391 5.56563 30.1562 5.72377 30.3902C5.76331 30.4292 5.76331 30.4682 5.80284 30.5072C5.84238 30.5462 5.88191 30.5852 5.88191 30.6633C5.84238 30.7413 6.00052 30.7413 5.96098 30.8193C5.96098 30.8973 6.00052 30.9363 6.04005 31.0143C6.07959 31.0533 6.04005 31.1704 6.11912 31.2094C6.23773 31.2484 6.07959 31.4044 6.19819 31.4044C6.23773 31.4824 6.27726 31.5604 6.3168 31.6384C6.27726 31.7555 6.39586 31.7945 6.4354 31.8725C6.35633 31.9895 6.4354 32.0675 6.55401 32.1065C6.51447 32.1845 6.51447 32.2235 6.51447 32.2626C6.51447 32.2626 6.51447 32.3016 6.55401 32.3016C6.59354 32.3016 6.59354 32.3016 6.63307 32.3016C6.63307 32.3016 6.63307 32.3406 6.63307 32.3796C6.63307 32.3796 6.67261 32.3796 6.67261 32.3406C6.67261 32.3406 6.67261 32.3406 6.71214 32.3406C6.71214 32.3406 6.71214 32.3406 6.75168 32.3406C6.79121 32.3406 6.87028 32.3406 6.90982 32.3406C7.02842 32.2626 7.14703 32.2626 7.2261 32.3406C7.3447 32.2626 7.46331 32.3016 7.58191 32.3406C7.70052 32.3796 7.81912 32.2626 7.93773 32.3406C8.05633 32.3406 8.17494 32.3016 8.29354 32.3406C8.41214 32.3796 8.53075 32.4186 8.64935 32.3406C8.72842 32.3406 8.76796 32.3016 8.84703 32.3016H8.9261C8.9261 32.3016 8.9261 32.3016 8.9261 32.3406C8.9261 32.3016 8.9261 32.2626 8.9261 32.2626L8.96563 32.3016C8.96563 32.3016 8.96563 32.2626 9.00517 32.2626C9.00517 32.2235 9.0447 32.2235 9.0447 32.1845C9.08424 32.1455 9.12377 32.0675 9.08424 31.9895C9.16331 31.8725 9.12377 31.7165 9.24238 31.6384C9.32145 31.5214 9.40052 31.4044 9.40052 31.2874C9.40052 31.1313 9.51912 31.0533 9.55866 30.9363C9.67726 30.8583 9.63773 30.7023 9.7168 30.5852C9.7168 30.5462 9.7168 30.5462 9.7168 30.5462C9.7168 30.5462 9.7168 30.5462 9.75633 30.5462C9.75633 30.5462 9.79587 30.5072 9.75633 30.5072C9.75633 30.5072 9.75633 30.5072 9.75633 30.4682C9.63773 30.4292 9.63773 30.3902 9.67726 30.3902C9.67726 30.3512 9.67726 30.3122 9.67726 30.3512C9.67726 30.3512 9.67726 30.3512 9.63773 30.3512C9.59819 30.3512 9.59819 30.3512 9.55866 30.3512C9.51912 30.3512 9.44005 30.3902 9.40052 30.3512C9.28191 30.3902 9.16331 30.2732 9.0447 30.3512C8.9261 30.3512 8.80749 30.3902 8.72842 30.3512C8.60982 30.4292 8.53075 30.2732 8.41214 30.3512C8.29354 30.3512 8.21447 30.3512 8.09587 30.3512C7.97726 30.2342 7.89819 30.3122 7.81912 30.3512C7.74005 30.3512 7.62145 30.4292 7.54238 30.3512C7.46331 30.3512 7.38424 30.2732 7.26563 30.3512C7.18656 30.3512 7.10749 30.1952 7.02842 30.3512C6.94935 30.3902 6.87028 30.2342 6.79121 30.3512C6.71214 30.4292 6.63307 30.3512 6.59354 30.3512C6.51447 30.3512 6.47494 30.3512 6.39587 30.3512C5.76331 30.1562 5.44703 30.0782 5.44703 30.0391C5.44703 29.9611 5.84238 29.8831 6.55401 29.8441C6.63307 29.8441 6.71214 29.7661 6.75168 29.8441C6.83075 29.8441 6.90982 29.7661 6.98889 29.8441C7.06796 29.7271 7.14703 29.8051 7.2261 29.8441C7.30517 29.8441 7.38424 29.8831 7.50284 29.8441C7.58191 29.7661 7.70052 29.8831 7.77959 29.8441C7.85866 29.9221 7.97726 29.8831 8.05633 29.8441C8.17494 29.9221 8.254 29.8441 8.37261 29.8441C8.49121 29.9611 8.57028 29.8831 8.68889 29.8441C8.80749 29.8051 8.9261 29.8441 9.00517 29.8441C9.12377 29.8441 9.24238 29.8051 9.36098 29.8441C9.40052 29.8051 9.47959 29.8051 9.51912 29.8051C9.55866 29.8051 9.55866 29.8051 9.59819 29.8051C9.59819 29.8051 9.63773 29.8051 9.67726 29.8051C9.7168 29.8051 9.7168 29.8051 9.75633 29.8051C9.87494 29.8051 9.99354 29.8051 10.1121 29.8051C10.2308 29.8051 10.3098 29.8051 10.4284 29.8051C10.547 29.8051 10.6261 29.8051 10.7052 29.8051C10.6656 29.9221 10.5866 30.0782 10.547 30.1952C10.5075 30.3122 10.4284 30.4292 10.3889 30.5072C10.3494 30.5462 10.3494 30.6243 10.3098 30.6633C10.3098 30.7023 10.2703 30.7803 10.3098 30.8193C10.2703 30.9363 10.1912 31.0533 10.1912 31.1704C10.1121 31.2874 10.0726 31.4044 10.0331 31.5214C9.87494 31.5994 9.91447 31.7555 9.87494 31.8725C9.87494 31.9895 9.79587 32.1065 9.7168 32.2235C9.7168 32.3016 9.67726 32.3406 9.63773 32.4186V32.4576L9.59819 32.5356C9.55866 32.6916 9.47959 32.8087 9.44005 32.9257C9.32145 32.9257 9.24238 32.9257 9.16331 32.9257C9.12377 32.9257 9.0447 32.9257 9.00517 32.9257H8.88656C8.80749 32.9257 8.76796 32.8867 8.68889 32.9257C8.57028 32.9647 8.45168 32.9647 8.33307 32.9257C8.21447 32.9257 8.09587 32.8087 7.97726 32.9257C7.85866 32.9647 7.74005 33.0817 7.62145 32.9257C7.50284 32.9647 7.38424 32.8477 7.26563 32.9257C7.14703 32.8087 7.02842 32.9257 6.94935 32.9257C6.90982 32.9257 6.83075 32.8867 6.79121 32.8867H6.75168C6.71214 32.8867 6.71214 32.8867 6.67261 32.8867C6.63307 32.8867 6.59354 32.8867 6.51447 32.9257C6.4354 32.9647 6.35633 32.9647 6.27726 32.9257C6.23773 32.8087 6.23773 32.6916 6.19819 32.6136C6.15866 32.5746 6.15866 32.5356 6.11912 32.4966V32.4186C6.11912 32.3796 6.11912 32.3016 6.07959 32.3016C6.04005 32.2235 6.00052 32.1455 6.00052 32.0285C5.84238 31.9895 5.92145 31.8725 5.92145 31.7945C5.92145 31.7165 5.76331 31.6774 5.84238 31.5604C5.72377 31.5214 5.76331 31.4044 5.76331 31.3264C5.76331 31.2484 5.68424 31.2094 5.68424 31.1313C5.56563 31.0923 5.68424 30.9753 5.6447 30.9363C5.68424 30.8583 5.60517 30.8193 5.60517 30.7803C5.56563 30.7413 5.56563 30.6633 5.56563 30.6243C5.56563 30.5852 5.5261 30.5462 5.5261 30.4682C5.40749 30.1952 5.40749 30.0391 5.44703 30.0391Z" fill="#73523F"/>
<path d="M24.0284 30.0391C24.068 30.0391 24.147 30.1562 24.3052 30.3902C24.3447 30.4292 24.3447 30.4682 24.3842 30.5072C24.4238 30.5462 24.4238 30.5852 24.4633 30.6633C24.4238 30.7413 24.5819 30.7413 24.5424 30.8193C24.5424 30.8973 24.5819 30.9363 24.6214 31.0143C24.661 31.0533 24.6214 31.1704 24.7005 31.2094C24.8191 31.2484 24.661 31.4044 24.7796 31.4044C24.8191 31.4824 24.8587 31.5604 24.8982 31.6384C24.8587 31.7555 24.9773 31.7945 25.0168 31.8725C24.9377 31.9895 25.0168 32.0675 25.1354 32.1065C25.0959 32.1845 25.0959 32.2235 25.0959 32.2626C25.0959 32.2626 25.0959 32.3016 25.1354 32.3016H25.1749C25.2145 32.3016 25.2145 32.3016 25.254 32.3016C25.254 32.3016 25.254 32.3406 25.254 32.3796C25.254 32.3796 25.2935 32.3796 25.2935 32.3406C25.2935 32.3406 25.2935 32.3406 25.3331 32.3406C25.3331 32.3406 25.3331 32.3406 25.3726 32.3406C25.4121 32.3406 25.4912 32.3406 25.5307 32.3406C25.6494 32.2626 25.768 32.2626 25.847 32.3406C25.9656 32.2626 26.0842 32.3016 26.2028 32.3406C26.3214 32.3796 26.4401 32.2626 26.5587 32.3406C26.6773 32.3406 26.7959 32.3016 26.9145 32.3406C27.0331 32.3796 27.1517 32.4186 27.2703 32.3406C27.3494 32.3406 27.3889 32.3016 27.468 32.3016H27.547C27.547 32.3016 27.547 32.3016 27.547 32.3406C27.547 32.3016 27.547 32.2626 27.547 32.2626C27.547 32.2626 27.547 32.3016 27.5866 32.3016C27.5866 32.3016 27.5866 32.2626 27.6261 32.2626C27.6261 32.2235 27.6656 32.2235 27.6656 32.1845C27.7052 32.1455 27.7052 32.0675 27.7052 31.9895C27.7842 31.8725 27.7447 31.7165 27.8633 31.6384C27.9424 31.5214 28.0214 31.4044 28.0214 31.2874C28.0214 31.1313 28.1401 31.0533 28.1796 30.9363C28.2982 30.8583 28.2587 30.7023 28.3377 30.5852C28.3377 30.5462 28.3377 30.5462 28.3377 30.5462C28.3377 30.5462 28.3377 30.5462 28.3773 30.5462C28.3773 30.5462 28.4168 30.5072 28.3773 30.5072C28.3773 30.5072 28.3773 30.5072 28.3773 30.4682C28.2982 30.5462 28.2982 30.5462 28.2982 30.5072C28.2982 30.4682 28.2982 30.4292 28.2982 30.4682C28.2982 30.4682 28.2982 30.4682 28.2587 30.4682C28.2191 30.4682 28.2191 30.4682 28.1796 30.4682C28.1401 30.4682 28.061 30.5072 28.0214 30.4682C27.9028 30.5072 27.7842 30.3902 27.6656 30.4682C27.547 30.4682 27.4284 30.5072 27.3494 30.4682C27.2307 30.5462 27.1517 30.3902 27.0331 30.4682C26.9145 30.4682 26.8354 30.4682 26.7168 30.4682C26.5982 30.3512 26.5191 30.4292 26.4401 30.4682C26.361 30.4682 26.2424 30.5462 26.1633 30.4682C26.0842 30.4682 25.9656 30.3902 25.8866 30.4682C25.8075 30.4682 25.7284 30.3122 25.6494 30.4682C25.5703 30.5072 25.4912 30.3512 25.4121 30.4682C25.3331 30.5462 25.254 30.4682 25.2145 30.4682C25.1354 30.4682 25.0959 30.4682 25.0168 30.4682C24.3842 30.1562 24.068 30.0782 24.0284 30.0391C24.0284 29.9611 24.4238 29.8831 25.1354 29.8441C25.2145 29.8441 25.2935 29.7661 25.3331 29.8441C25.4121 29.8441 25.4912 29.7661 25.5703 29.8441C25.6494 29.7271 25.7284 29.8051 25.8075 29.8441C25.8866 29.8441 25.9656 29.8831 26.0842 29.8441C26.1633 29.7661 26.2819 29.8831 26.361 29.8441C26.4401 29.9221 26.5587 29.8831 26.6377 29.8441C26.7563 29.9221 26.8354 29.8441 26.954 29.8441C27.0726 29.9611 27.1517 29.8831 27.2703 29.8441C27.3889 29.8051 27.5075 29.8441 27.5866 29.8441C27.7052 29.8441 27.8238 29.8051 27.9424 29.8441C27.9819 29.8051 28.061 29.8051 28.1005 29.8051C28.1401 29.8051 28.1401 29.8051 28.1796 29.8051H28.2191C28.2587 29.8051 28.2587 29.8051 28.2982 29.8051C28.4168 29.8051 28.5354 29.8051 28.654 29.8051C28.7726 29.8051 28.8517 29.8051 28.9703 29.8051C29.0889 29.8051 29.168 29.8051 29.247 29.8051C29.2075 29.9221 29.1284 30.0782 29.0889 30.1952C29.0494 30.3122 28.9703 30.4292 28.9307 30.5072C28.8912 30.5462 28.8912 30.6243 28.8517 30.6633C28.8517 30.7023 28.8121 30.7803 28.8517 30.8193C28.8121 30.9363 28.7331 31.0533 28.7331 31.1704C28.654 31.2874 28.6145 31.4044 28.5749 31.5214C28.4168 31.5994 28.4563 31.7555 28.4168 31.8725C28.4168 31.9895 28.3377 32.1065 28.2587 32.2235C28.2587 32.3016 28.2191 32.3406 28.1796 32.4186L28.1401 32.4966V32.5356L28.1005 32.6136C28.061 32.7696 27.9819 32.8867 27.9424 33.0037C27.8238 33.0037 27.7447 33.0037 27.6656 33.0037C27.6261 33.0037 27.547 33.0037 27.5075 33.0037H27.3889C27.3098 33.0037 27.2703 32.9647 27.1912 33.0037C27.0726 33.0427 26.954 33.0427 26.8354 33.0037C26.7168 33.0037 26.5982 32.8867 26.4796 33.0037C26.361 33.0427 26.2424 33.1597 26.1238 33.0037C26.0052 33.0427 25.8866 32.9257 25.768 33.0037C25.6494 32.8867 25.5307 33.0037 25.4517 33.0037C25.4121 33.0037 25.3331 32.9647 25.2935 32.9647H25.254C25.2145 32.9647 25.2145 32.9647 25.1749 32.9647C25.1354 32.9647 25.0959 32.9647 25.0168 33.0037C24.9377 33.0427 24.8587 33.0427 24.7796 33.0037C24.74 32.8867 24.7401 32.7696 24.7005 32.6916C24.661 32.6526 24.661 32.6136 24.6214 32.5746V32.4966C24.6214 32.4576 24.6214 32.3796 24.5819 32.3796C24.5424 32.3016 24.5028 32.2235 24.5028 32.1065C24.3447 32.0675 24.4238 31.9505 24.4238 31.8725C24.4238 31.7945 24.2656 31.7555 24.3447 31.6384C24.2261 31.5994 24.2656 31.4824 24.2656 31.4044C24.2656 31.3264 24.1866 31.2874 24.1866 31.2094C24.068 31.1704 24.1866 31.0533 24.147 31.0143C24.1866 30.9363 24.1075 30.8973 24.1075 30.8583C24.068 30.8193 24.068 30.7413 24.068 30.7023C24.068 30.6633 24.0284 30.6243 24.0284 30.5462C24.0284 30.1952 23.9889 30.0391 24.0284 30.0391Z" fill="#73523F"/>
<path d="M11.9307 2.96823C11.9703 2.92922 12.1284 3.04624 12.3656 3.20227C12.4052 3.24127 12.4447 3.28028 12.4842 3.31929C12.5238 3.3583 12.6028 3.3973 12.6424 3.43631C12.6424 3.51432 12.8005 3.47532 12.8005 3.55333C12.8401 3.63135 12.9191 3.67035 12.9982 3.70936C13.0773 3.74837 13.0773 3.86539 13.1959 3.86539C13.354 3.86539 13.2354 4.06042 13.3935 4.06042C13.4726 4.09943 13.5517 4.17744 13.6307 4.25546C13.6307 4.37248 13.7889 4.41149 13.868 4.45049C13.868 4.60652 13.9866 4.64553 14.1052 4.68454C14.1052 4.84057 14.1842 4.91858 14.3424 4.91858C14.4214 4.99659 14.461 5.11362 14.6191 5.15262C14.6982 5.23064 14.8168 5.30865 14.8959 5.38666C15.054 5.42567 15.1331 5.50369 15.1726 5.65971C15.3307 5.69872 15.4098 5.81574 15.4494 5.93276C15.5284 6.04979 15.6866 6.04979 15.7656 6.20581C15.8447 6.32283 16.0028 6.40085 16.0819 6.47886C16.1214 6.55688 16.161 6.59588 16.2005 6.6739C16.2005 6.6739 16.2401 6.71291 16.2796 6.6739C16.2796 6.6739 16.2796 6.6739 16.3191 6.6739C16.3191 6.6739 16.3191 6.6739 16.3587 6.6739C16.3587 6.63489 16.3587 6.63489 16.3191 6.63489C16.3191 6.63489 16.3191 6.63489 16.3191 6.59588C16.3587 6.55688 16.4377 6.51787 16.5168 6.43986C16.5959 6.32283 16.754 6.24482 16.7935 6.08879C16.9121 5.97177 16.9517 5.81574 17.1098 5.73773C17.2284 5.62071 17.347 5.54269 17.4261 5.38666C17.4656 5.23064 17.6633 5.15262 17.7424 5.0356C17.9005 4.99659 17.9005 4.80156 18.0191 4.68454C18.0982 4.56752 18.2563 4.4895 18.2959 4.33347C18.3749 4.21645 18.454 4.09943 18.5726 4.02142C18.5331 3.82638 18.7703 3.82638 18.8494 3.70936C18.968 3.63135 19.0075 3.47532 19.1261 3.3973C19.2052 3.28028 19.3633 3.24127 19.4028 3.08525C19.4819 2.92922 19.5214 2.8122 19.6401 2.73418C19.6796 2.57815 19.8377 2.57815 19.8773 2.46113C19.9563 2.38312 20.0354 2.2661 20.1145 2.18808C20.3121 2.18808 20.3121 2.03205 20.3517 1.95404C20.4307 1.87603 20.4307 1.75901 20.5889 1.72C20.668 1.64198 20.7866 1.60298 20.7866 1.48596C20.8261 1.40794 21.0633 1.44695 20.9842 1.29092C21.0238 1.1739 21.1819 1.1739 21.1819 1.05688C21.1819 0.939856 21.3005 0.939856 21.3401 0.861842C21.3796 0.783828 21.4587 0.744821 21.4982 0.705814C21.9726 0.237729 22.2494 -0.0353211 22.2889 0.003686C22.3284 0.0426931 22.0912 0.432764 21.6168 1.09588C21.5773 1.1739 21.6168 1.29092 21.4982 1.32993C21.4587 1.40794 21.4191 1.52496 21.3401 1.56397C21.3796 1.72 21.2214 1.72 21.1819 1.79801C21.1028 1.87603 21.0238 1.95404 20.9842 2.03205C20.9842 2.14908 20.8261 2.18808 20.7866 2.3051C20.668 2.34411 20.5889 2.46113 20.5889 2.57815C20.4703 2.61716 20.4307 2.77319 20.3517 2.8512C20.1935 2.89021 20.154 3.00723 20.1145 3.16326C20.0749 3.28028 19.9563 3.3583 19.8773 3.47532C19.7982 3.55333 19.7191 3.70936 19.6401 3.78737C19.6005 3.9044 19.5214 4.02142 19.3633 4.09943C19.2842 4.21645 19.2052 4.33347 19.0866 4.41149C19.0075 4.52851 18.8889 4.64553 18.8098 4.76255C18.7308 4.87957 18.5331 4.91858 18.5331 5.11362C18.454 5.23064 18.3354 5.34766 18.2563 5.46468C18.1377 5.5817 18.0191 5.69872 17.9796 5.81574C17.7819 5.85475 17.7424 6.01078 17.6633 6.16681C17.5842 6.32283 17.4656 6.40085 17.347 6.51787C17.268 6.63489 17.1494 6.75191 17.0308 6.86893C16.9912 6.94695 16.9517 6.98596 16.8726 7.02496H16.8331C16.8331 7.02496 16.8331 7.02496 16.7935 7.06397C16.754 7.10298 16.754 7.10298 16.7145 7.14198C16.6749 7.18099 16.6354 7.25901 16.5959 7.29801C16.5168 7.45404 16.3982 7.53205 16.3191 7.64908C16.2401 7.53205 16.161 7.45404 16.0424 7.37603C15.9238 7.29801 15.8447 7.22 15.7261 7.10298L15.6866 7.06397V7.02496L15.647 6.98596C15.6075 6.94695 15.6075 6.90794 15.6075 6.90794C15.4889 6.79092 15.4889 6.63489 15.2912 6.59588C15.1726 6.51787 14.9749 6.51787 15.0145 6.32283C14.8959 6.24482 14.8563 6.08879 14.7377 6.04979C14.7377 5.89376 14.5401 5.85475 14.461 5.77674C14.3819 5.65971 14.3028 5.54269 14.1842 5.50369C14.0656 5.46468 14.0261 5.30865 13.947 5.23064C13.8284 5.19163 13.8284 4.99659 13.7098 4.99659C13.6307 4.91858 13.5517 4.84057 13.4726 4.76255C13.2749 4.80156 13.3145 4.60652 13.2749 4.52851C13.2354 4.45049 13.0773 4.45049 13.0773 4.33347C12.9191 4.33347 12.9191 4.21645 12.8796 4.13844C12.8401 4.06042 12.7214 4.06042 12.7214 3.9434C12.6028 3.9434 12.6424 3.78737 12.5633 3.78737C12.5633 3.70936 12.4447 3.67035 12.4052 3.63135C12.3261 3.59234 12.2866 3.55333 12.2866 3.47532C12.247 3.43631 12.2075 3.3973 12.168 3.3583C12.0098 3.12425 11.9307 3.00723 11.9307 2.96823Z" fill="#73523F"/>
<path d="M29.9191 32.6136C29.9191 32.6526 29.6424 32.6916 29.1284 32.7306C29.0494 32.7306 28.9307 32.7306 28.8517 32.7306C28.7331 32.7306 28.654 32.7696 28.5354 32.7306C28.4168 32.6916 28.2982 32.8477 28.1796 32.7306C28.061 32.6916 27.9424 32.7306 27.7842 32.7306C27.6656 32.7306 27.5075 32.6916 27.3494 32.7306C27.1912 32.8477 27.0331 32.6136 26.9145 32.7306C26.7563 32.7696 26.5982 32.7696 26.4401 32.7306C26.2819 32.6526 26.0842 32.7306 25.9261 32.7306C25.768 32.6136 25.5703 32.6916 25.3726 32.7306C25.1749 32.6136 24.9773 32.6136 24.8191 32.7306C24.6215 32.7306 24.4238 32.6916 24.2261 32.7306C24.0284 32.7306 23.8308 32.7696 23.5935 32.7306C23.3959 32.8087 23.1587 32.8087 22.961 32.7306C22.7238 32.8087 22.5261 32.7696 22.2889 32.7306C22.0517 32.6916 21.854 32.8087 21.6168 32.7306C21.3796 32.7306 21.1424 32.7696 20.9052 32.7306C20.668 32.6916 20.4308 32.6526 20.1935 32.7306C19.9563 32.7696 19.7191 32.7696 19.4424 32.7306C19.2052 32.8477 18.9284 32.7696 18.6912 32.7306C18.454 32.7306 18.1773 32.6916 17.9401 32.7306C17.6633 32.7306 17.4261 32.7696 17.1494 32.7306C16.8726 32.6916 16.6354 32.6526 16.3587 32.7306C16.0819 32.8087 15.8447 32.6916 15.6075 32.7306C15.3703 32.6526 15.0935 32.7696 14.8563 32.7306C14.6191 32.7306 14.3819 32.6916 14.1052 32.7306C13.868 32.7306 13.6307 32.7696 13.3935 32.7306C13.1563 32.8867 12.9191 32.6916 12.6819 32.7306C12.4447 32.6526 12.2075 32.7306 12.0098 32.7306C11.7726 32.7696 11.5749 32.6526 11.3377 32.7306C11.1005 32.7306 10.9028 32.7696 10.7052 32.7306C10.5075 32.8087 10.2703 32.6526 10.0726 32.7306C9.87494 32.7306 9.67726 32.7306 9.47959 32.7306C9.28191 32.6136 9.08424 32.7306 8.9261 32.7306C8.72842 32.7306 8.57028 32.8087 8.37261 32.7306C8.21447 32.7306 8.0168 32.6526 7.85866 32.7306C7.70052 32.7306 7.54238 32.5746 7.38424 32.7306C7.2261 32.7696 7.06796 32.6136 6.94935 32.7306C6.79121 32.8087 6.67261 32.7306 6.51447 32.7306C6.39587 32.7306 6.23773 32.7306 6.11912 32.7306C5.01215 32.6916 4.37959 32.6136 4.37959 32.5746C4.37959 32.4966 5.17028 32.4576 6.51447 32.3796C6.63308 32.3796 6.79121 32.3016 6.94935 32.3796C7.10749 32.3796 7.26563 32.3016 7.38424 32.3796C7.54238 32.2626 7.70052 32.3406 7.85866 32.3796C8.0168 32.3796 8.21447 32.4186 8.37261 32.3796C8.53075 32.3016 8.72842 32.4186 8.9261 32.3796C9.12377 32.4576 9.28191 32.4186 9.47959 32.3796C9.67726 32.4576 9.87494 32.3796 10.0726 32.3796C10.2703 32.4966 10.468 32.4186 10.7052 32.3796C10.9028 32.3406 11.1401 32.3796 11.3377 32.3796C11.5749 32.3796 11.7726 32.3406 12.0098 32.3796C12.247 32.3406 12.4447 32.3016 12.6819 32.3796C12.9191 32.3406 13.1563 32.3796 13.3935 32.3796C13.6307 32.3406 13.868 32.3796 14.1052 32.3796C14.3424 32.3406 14.5796 32.4966 14.8563 32.3796C15.0935 32.3796 15.3703 32.3796 15.6075 32.3796C15.8447 32.3796 16.1214 32.4186 16.3587 32.3796C16.6354 32.4966 16.8726 32.4186 17.1494 32.3796C17.4261 32.3406 17.6633 32.3796 17.9401 32.3796C18.2168 32.3796 18.454 32.3796 18.6912 32.3796C18.9284 32.3406 19.2052 32.4186 19.4424 32.3796C19.6796 32.3406 19.9563 32.4186 20.1935 32.3796C20.4308 32.3406 20.668 32.3406 20.9052 32.3796C21.1424 32.3796 21.3796 32.4966 21.6168 32.3796C21.854 32.3406 22.0912 32.2235 22.2889 32.3796C22.5261 32.3406 22.7238 32.4576 22.961 32.3796C23.1982 32.4966 23.3959 32.3796 23.5935 32.3796C23.7912 32.4186 24.0284 32.4186 24.2261 32.3796C24.4238 32.3406 24.6215 32.4186 24.8191 32.3796C25.0168 32.3016 25.2145 32.4576 25.3726 32.3796C25.5703 32.3796 25.7284 32.3796 25.9261 32.3796C26.0842 32.2235 26.2819 32.3796 26.4401 32.3796C26.5982 32.4186 26.7563 32.2626 26.9145 32.3796C27.0726 32.2626 27.2308 32.3796 27.3494 32.3796C27.5075 32.4186 27.6261 32.3406 27.7842 32.3796C27.9028 32.3016 28.061 32.4186 28.1796 32.3796C28.2982 32.4186 28.4168 32.3796 28.5354 32.3796C28.654 32.3796 28.7331 32.3796 28.8517 32.3796C28.9307 32.3796 29.0494 32.3796 29.1284 32.3796C29.6424 32.5356 29.9191 32.5746 29.9191 32.6136Z" fill="#73523F"/>
</svg>
