<svg width="22" height="30" viewBox="0 0 22 30" fill="none" xmlns="http://www.w3.org/2000/svg">
<path d="M12.32 20.2786C12.2848 20.3139 11.968 19.7853 11.3696 18.8692C11.264 18.7283 11.1584 18.5521 11.0528 18.3759C10.9472 18.1997 10.8064 18.0235 10.7008 17.8121C10.6304 17.5655 10.384 17.4245 10.3136 17.1779C10.208 16.9312 10.032 16.7198 9.8912 16.4732C9.7152 16.2265 9.6096 15.9446 9.4336 15.698C9.1872 15.4865 9.2224 15.0989 8.9408 14.8523C8.7648 14.5704 8.5888 14.2885 8.4128 13.9714C8.3072 13.619 8.0608 13.3372 7.8496 13.02C7.744 12.6324 7.4976 12.3505 7.2512 12.0334C7.1808 11.6106 6.9344 11.2935 6.6176 10.9763C6.4064 10.624 6.2304 10.2364 5.984 9.88403C5.7728 9.53167 5.5264 9.14407 5.3152 8.75648C5.0336 8.40412 4.7872 8.01652 4.6112 7.55845C4.2944 7.20609 4.0832 6.78326 3.9072 6.3252C3.8016 6.11378 3.6608 5.90236 3.52 5.69095C3.4496 5.58524 3.3792 5.47953 3.3088 5.37382V5.30335L3.2384 5.19764C3.168 5.09194 3.1328 4.98623 3.0976 4.91576C2.9568 4.70434 2.8512 4.49293 2.7104 4.24627C3.0272 4.24627 3.344 4.24627 3.6608 4.24627C3.7664 4.24627 3.9072 4.24627 4.0128 4.24627C4.1184 4.24627 4.1888 4.24627 4.2944 4.24627C4.7872 4.28151 5.3152 4.31675 5.8432 4.24627C6.3712 4.21104 6.8992 4.1758 7.4272 4.24627C7.9552 4.14057 8.4832 4.1758 9.0464 4.24627C9.5744 4.24627 10.1376 4.28151 10.6656 4.24627C11.2288 4.24627 11.7568 4.21104 12.32 4.24627C12.8832 4.28151 13.4464 4.31675 13.9744 4.24627C14.5376 4.1758 15.0656 4.28151 15.5936 4.24627C16.1216 4.35198 16.6848 4.21104 17.2128 4.24627C17.7408 4.24627 18.2688 4.28151 18.7968 4.24627C19.3248 4.24627 19.8176 4.21104 20.3456 4.24627C20.4512 4.21104 20.5216 4.21104 20.6272 4.21104C20.6624 4.21104 20.7328 4.21104 20.768 4.21104H21.0144C21.3664 4.21104 21.6832 4.24627 22 4.24627C21.8592 4.49293 21.7184 4.70434 21.6128 4.91576C21.5424 5.02146 21.472 5.09194 21.4368 5.19764L21.296 5.30335L21.2608 5.37382C21.1904 5.47953 21.1552 5.58524 21.0848 5.69095C20.9792 5.90236 20.8736 6.11378 20.7328 6.3252C20.5216 6.74803 20.2048 7.10039 20.0288 7.55845C19.7824 7.94605 19.6064 8.36888 19.3248 8.75648C19.1488 9.17931 18.832 9.49643 18.656 9.88403C18.4448 10.2716 18.2336 10.624 18.0224 10.9763C17.7056 11.2935 17.6 11.6811 17.3888 12.0334C17.1776 12.3858 17.0368 12.7381 16.7904 13.02C16.5792 13.3372 16.368 13.619 16.2272 13.9714C16.0512 14.2885 15.7344 14.4999 15.6992 14.8523C15.5584 15.1694 15.2768 15.3808 15.2064 15.698C15.136 16.0151 14.8896 16.2265 14.7488 16.4732C14.608 16.7198 14.4672 16.9665 14.3264 17.1779C13.728 18.1997 13.2352 18.9749 12.8832 19.5034C12.5312 20.032 12.3552 20.3139 12.32 20.2786C12.2848 20.2786 12.4608 19.891 12.8128 19.1863C13.1648 18.4816 13.728 17.495 14.432 16.2265C14.5728 15.9798 14.6432 15.6627 14.8544 15.4513C14.9952 15.1694 15.136 14.8875 15.312 14.6056C15.3824 14.2533 15.6288 14.0066 15.8048 13.6895C15.9808 13.3724 16.192 13.0905 16.3328 12.7381C16.4736 12.3858 16.7552 12.1039 16.896 11.7163C17.1424 11.3992 17.3184 11.0468 17.4944 10.6592C17.7408 10.3421 17.9168 9.91926 18.128 9.5669C18.4096 9.24978 18.5856 8.82695 18.7968 8.40412C19.008 7.98128 19.2544 7.62892 19.4656 7.20609C19.712 6.8185 19.9232 6.39567 20.1696 5.97284C20.2752 5.76142 20.3808 5.55 20.4864 5.33859C20.5568 5.23288 20.592 5.12717 20.6624 5.02146L20.6976 4.95099L20.7328 4.91576C20.7328 4.91576 20.768 4.91576 20.768 4.88052C20.768 4.84528 20.768 4.84528 20.768 4.84528C20.7328 4.84528 20.7328 4.84528 20.6976 4.84528H20.5216C20.416 4.84528 20.3456 4.84528 20.24 4.84528C19.7472 4.88052 19.2192 4.84528 18.6912 4.84528C18.1632 4.88052 17.6352 4.73958 17.1072 4.84528C16.5792 4.84528 16.0512 4.84528 15.488 4.84528C14.96 4.84528 14.3968 4.81005 13.8688 4.84528C13.3056 4.73958 12.7776 4.81005 12.2144 4.84528C11.6512 4.88052 11.088 4.84528 10.56 4.84528C9.9968 4.84528 9.4688 4.84528 8.9408 4.84528C8.4128 4.88052 7.8496 4.81005 7.3216 4.84528C6.7936 4.88052 6.2656 4.81005 5.7376 4.84528C5.2096 4.88052 4.7168 4.88052 4.1888 4.84528C4.0832 4.84528 4.0128 4.84528 3.9072 4.84528H3.7312C3.696 4.84528 3.6256 4.81005 3.5904 4.81005C3.6256 4.84528 3.6608 4.88052 3.696 4.91576C3.696 4.91576 3.696 4.91576 3.7312 4.95099L3.8368 5.0567C3.9072 5.16241 3.9776 5.26812 4.048 5.37382C4.1888 5.58524 4.2944 5.79666 4.3648 6.04331C4.6464 6.4309 4.7872 6.88897 5.0688 7.27657C5.2096 7.73463 5.5264 8.08699 5.7376 8.47459C5.9488 8.86218 6.1248 9.28502 6.4064 9.63737C6.6528 9.98973 6.7936 10.3773 7.04 10.7297C7.2864 11.0468 7.392 11.4696 7.6384 11.7868C7.8144 12.1391 8.0256 12.4563 8.2016 12.8086C8.5184 13.0553 8.5888 13.4429 8.7296 13.76C8.9056 14.0771 9.152 14.3238 9.2224 14.6761C9.4688 14.9228 9.5744 15.2399 9.68 15.5218C9.8208 15.8037 10.032 16.0151 10.1024 16.297C10.3136 16.5084 10.3488 16.7903 10.4896 17.0369C10.5952 17.2836 10.736 17.495 10.8416 17.7064C10.9824 17.9178 11.088 18.094 11.1584 18.3054C11.264 18.4816 11.3696 18.6578 11.44 18.834C12.1088 19.7149 12.3552 20.2786 12.32 20.2786Z" fill="#73523F"/>
<path d="M18.656 9.32025C18.656 9.35549 18.5152 9.39072 18.2688 9.42596C18.2336 9.42596 18.1632 9.42596 18.128 9.42596C18.0928 9.42596 18.0224 9.46119 17.9872 9.42596C17.9168 9.39072 17.8816 9.53167 17.8112 9.42596C17.7408 9.39072 17.6704 9.42596 17.6352 9.42596C17.5648 9.46119 17.4944 9.39072 17.424 9.42596C17.3536 9.53167 17.2832 9.32025 17.2128 9.42596C17.1424 9.46119 17.072 9.46119 16.9664 9.42596C16.896 9.35549 16.7904 9.42596 16.72 9.42596C16.6496 9.32025 16.544 9.39072 16.4384 9.42596C16.3328 9.28502 16.2624 9.32025 16.1568 9.42596C16.0512 9.42596 15.9456 9.39072 15.8752 9.42596C15.7696 9.42596 15.664 9.46119 15.5584 9.42596C15.4528 9.49643 15.3472 9.49643 15.2416 9.42596C15.136 9.53167 15.0304 9.49643 14.9248 9.42596C14.8192 9.39072 14.7136 9.49643 14.5728 9.42596C14.4672 9.42596 14.3264 9.46119 14.2208 9.42596C14.1152 9.39072 13.9744 9.35549 13.8688 9.42596C13.7632 9.46119 13.6224 9.49643 13.5168 9.42596C13.376 9.53167 13.2704 9.49643 13.1296 9.42596C12.9888 9.42596 12.8832 9.39072 12.7424 9.42596C12.6016 9.42596 12.496 9.46119 12.3552 9.42596C12.2144 9.39072 12.1088 9.35549 11.968 9.42596C11.8272 9.49643 11.7216 9.39072 11.5808 9.42596C11.44 9.32025 11.3344 9.46119 11.1936 9.42596C11.088 9.42596 10.9472 9.39072 10.8416 9.42596C10.736 9.42596 10.5952 9.46119 10.4896 9.42596C10.384 9.5669 10.2432 9.39072 10.1376 9.42596C10.032 9.35549 9.9264 9.42596 9.7856 9.42596C9.68 9.46119 9.5744 9.35549 9.4688 9.42596C9.3632 9.42596 9.2576 9.46119 9.152 9.42596C9.0464 9.49643 8.9408 9.35549 8.8352 9.42596C8.7296 9.42596 8.624 9.42596 8.5536 9.42596C8.448 9.32025 8.3776 9.39072 8.272 9.42596C8.1664 9.42596 8.096 9.49643 7.9904 9.42596C7.92 9.42596 7.8144 9.35549 7.744 9.42596C7.6736 9.42596 7.568 9.24978 7.4976 9.42596C7.4272 9.46119 7.3568 9.32025 7.2864 9.42596C7.216 9.53167 7.1456 9.42596 7.0752 9.42596C7.0048 9.42596 6.9344 9.42596 6.8992 9.42596C6.336 9.39072 6.0192 9.32025 6.0192 9.24978C6.0192 9.17931 6.4064 9.10884 7.0752 9.0736C7.1456 9.0736 7.216 9.00313 7.2864 9.0736C7.3568 9.0736 7.4272 9.00313 7.4976 9.0736C7.568 8.96789 7.6384 9.03836 7.744 9.0736C7.8144 9.0736 7.92 9.10884 7.9904 9.0736C8.0608 9.00313 8.1664 9.10884 8.272 9.0736C8.3776 9.14407 8.448 9.10884 8.5536 9.0736C8.6592 9.14407 8.7648 9.0736 8.8352 9.0736C8.9408 9.17931 9.0464 9.10884 9.152 9.0736C9.2576 9.03836 9.3632 9.0736 9.4688 9.0736C9.5744 9.10884 9.68 9.03836 9.7856 9.0736C9.8912 9.03836 9.9968 9.00313 10.1376 9.0736C10.2432 9.03836 10.384 9.0736 10.4896 9.0736C10.5952 9.03836 10.736 9.0736 10.8416 9.0736C10.9472 9.03836 11.088 9.17931 11.1936 9.0736C11.2992 9.0736 11.44 9.0736 11.5808 9.0736C11.7216 9.0736 11.8272 9.10884 11.968 9.0736C12.1088 9.17931 12.2144 9.10884 12.3552 9.0736C12.496 9.03836 12.6016 9.0736 12.7424 9.0736C12.8832 9.0736 12.9888 9.0736 13.1296 9.0736C13.2704 9.03836 13.376 9.10884 13.5168 9.0736C13.6224 9.03836 13.7632 9.10884 13.8688 9.0736C13.9744 9.03836 14.1152 9.03836 14.2208 9.0736C14.3264 9.0736 14.4672 9.17931 14.5728 9.0736C14.6784 9.03836 14.784 8.93266 14.9248 9.0736C15.0304 9.03836 15.136 9.14407 15.2416 9.0736C15.3472 9.17931 15.4528 9.0736 15.5584 9.0736C15.664 9.10884 15.7696 9.14407 15.8752 9.0736C15.9808 9.03836 16.0864 9.10884 16.1568 9.0736C16.2624 9.00313 16.3328 9.14407 16.4384 9.0736C16.544 9.0736 16.6144 9.0736 16.72 9.0736C16.7904 8.93266 16.896 9.0736 16.9664 9.0736C17.0368 9.10884 17.1424 8.96789 17.2128 9.0736C17.2832 8.96789 17.3536 9.0736 17.424 9.0736C17.4944 9.10884 17.5648 9.03836 17.6352 9.0736C17.7056 9.00313 17.776 9.10884 17.8112 9.0736C17.8816 9.10884 17.9168 9.0736 17.9872 9.0736C18.0576 9.0736 18.0928 9.0736 18.128 9.0736C18.1632 9.0736 18.2336 9.0736 18.2688 9.0736C18.5152 9.24978 18.656 9.28502 18.656 9.32025Z" fill="#73523F"/>
<path d="M12.32 29.8276C12.2848 29.8276 12.2496 29.7219 12.2144 29.5457C12.2144 29.5105 12.2144 29.4752 12.2144 29.44C12.2144 29.4047 12.1792 29.3695 12.2144 29.3343C12.2496 29.299 12.1088 29.2638 12.2144 29.1933C12.2496 29.1581 12.2144 29.0876 12.2144 29.0524C12.1792 29.0172 12.2496 28.9467 12.2144 28.9114C12.1088 28.841 12.32 28.8057 12.2144 28.7353C12.1792 28.6648 12.1792 28.6296 12.2144 28.5591C12.2848 28.4886 12.2144 28.4181 12.2144 28.3829C12.32 28.3124 12.2496 28.242 12.2144 28.1715C12.3552 28.101 12.32 28.0305 12.2144 27.9601C12.2144 27.8896 12.2496 27.8191 12.2144 27.7487C12.2144 27.6782 12.1792 27.6077 12.2144 27.502C12.144 27.4315 12.144 27.3258 12.2144 27.2554C12.1088 27.1849 12.144 27.0792 12.2144 27.0087C12.2496 26.9382 12.144 26.8325 12.2144 26.762C12.2144 26.6916 12.1792 26.5859 12.2144 26.5154C12.2496 26.4097 12.2848 26.3392 12.2144 26.2335C12.1792 26.1278 12.144 26.0573 12.2144 25.9516C12.1088 25.8459 12.144 25.7754 12.2144 25.6697C12.2144 25.564 12.2496 25.4936 12.2144 25.3878C12.2144 25.2821 12.1792 25.2117 12.2144 25.106C12.2496 25.0002 12.2848 24.8945 12.2144 24.8241C12.144 24.7184 12.2496 24.6479 12.2144 24.5422C12.32 24.4365 12.1792 24.366 12.2144 24.2603C12.2144 24.1546 12.2848 24.0841 12.2144 23.9784C12.2144 23.8727 12.1792 23.8022 12.2144 23.6965C12.0736 23.5908 12.2496 23.5203 12.2144 23.4499C12.2848 23.3794 12.2144 23.2737 12.2144 23.2032C12.1792 23.1327 12.2848 23.027 12.2144 22.9566C12.2144 22.8861 12.1792 22.7804 12.2144 22.7099C12.144 22.6394 12.2848 22.569 12.2144 22.4633C12.2144 22.3928 12.2144 22.3223 12.2144 22.2518C12.32 22.1814 12.2496 22.1109 12.2144 22.0404C12.2144 21.97 12.144 21.8995 12.2144 21.829C12.2144 21.7585 12.2848 21.6881 12.2144 21.6528C12.2144 21.5824 12.3904 21.5471 12.2144 21.4767C12.1792 21.4062 12.32 21.3709 12.2144 21.3005C12.1088 21.23 12.2144 21.1948 12.2144 21.1595C12.2144 21.1243 12.2144 21.0538 12.2144 21.0186C12.2496 20.5958 12.32 20.3843 12.3904 20.3843C12.4608 20.3843 12.5312 20.6662 12.5664 21.1948C12.5664 21.23 12.6368 21.3005 12.5664 21.3357C12.5664 21.4062 12.6368 21.4414 12.5664 21.5119C12.672 21.5824 12.6016 21.6176 12.5664 21.6881C12.5664 21.7585 12.5312 21.829 12.5664 21.8643C12.6368 21.9347 12.5312 22.0052 12.5664 22.0757C12.496 22.1461 12.5312 22.2166 12.5664 22.2871C12.496 22.3576 12.5664 22.428 12.5664 22.4985C12.4608 22.569 12.5312 22.6394 12.5664 22.7451C12.6016 22.8156 12.5664 22.8861 12.5664 22.9918C12.5312 23.0623 12.6016 23.168 12.5664 23.2385C12.6016 23.3089 12.6368 23.4146 12.5664 23.4851C12.6016 23.5556 12.5664 23.6613 12.5664 23.7318C12.6016 23.8375 12.5664 23.9079 12.5664 24.0136C12.6016 24.1194 12.4608 24.1898 12.5664 24.2955C12.5664 24.4012 12.5664 24.4717 12.5664 24.5774C12.5664 24.6831 12.5312 24.7536 12.5664 24.8593C12.4608 24.965 12.5312 25.0355 12.5664 25.1412C12.6016 25.2469 12.5664 25.3526 12.5664 25.4231C12.5664 25.5288 12.5664 25.5993 12.5664 25.705C12.6016 25.8107 12.5312 25.8811 12.5664 25.9869C12.6016 26.0926 12.5312 26.163 12.5664 26.2687C12.6016 26.3745 12.6016 26.4449 12.5664 26.5506C12.5664 26.6563 12.4608 26.7268 12.5664 26.7973C12.6016 26.8678 12.7072 26.9735 12.5664 27.0439C12.6016 27.1144 12.496 27.2201 12.5664 27.2906C12.4608 27.3611 12.5664 27.4668 12.5664 27.5372C12.5312 27.6077 12.496 27.6782 12.5664 27.7839C12.6016 27.8544 12.5312 27.9248 12.5664 27.9953C12.6368 28.0658 12.496 28.1363 12.5664 28.2067C12.5664 28.2772 12.5664 28.3477 12.5664 28.4181C12.7072 28.4886 12.5664 28.5591 12.5664 28.5943C12.5312 28.6648 12.672 28.7 12.5664 28.7705C12.672 28.841 12.5664 28.8762 12.5664 28.9467C12.5312 29.0171 12.6016 29.0524 12.5664 29.0876C12.6368 29.1229 12.5312 29.1933 12.5664 29.2286C12.5312 29.2638 12.5664 29.3343 12.5664 29.3695C12.5664 29.4047 12.5664 29.44 12.5664 29.4752C12.5664 29.5105 12.5664 29.5457 12.5664 29.5809C12.3904 29.7219 12.3552 29.8276 12.32 29.8276Z" fill="#73523F"/>
<path d="M16.6848 29.8276C16.6848 29.8628 16.5792 29.898 16.4032 29.9333C16.368 29.9333 16.3328 29.9333 16.2976 29.9333C16.2624 29.9333 16.2272 29.9685 16.192 29.9333C16.1568 29.898 16.1216 30.039 16.0864 29.9333C16.0512 29.898 16.016 29.9333 15.9456 29.9333C15.9104 29.9685 15.84 29.898 15.8048 29.9333C15.7696 30.039 15.6992 29.8276 15.664 29.9333C15.5936 29.9685 15.5584 29.9685 15.488 29.9333C15.4176 29.8628 15.3824 29.9333 15.312 29.9333C15.2416 29.8276 15.2064 29.898 15.136 29.9333C15.0656 29.7923 14.9952 29.8276 14.9248 29.9333C14.8544 29.9333 14.784 29.898 14.7136 29.9333C14.6432 29.9333 14.5728 29.9685 14.5024 29.9333C14.432 30.0038 14.3616 30.0038 14.2912 29.9333C14.2208 30.039 14.1504 30.0038 14.08 29.9333C14.0096 29.898 13.9392 30.0038 13.8336 29.9333C13.7632 29.9333 13.6576 29.9685 13.5872 29.9333C13.5168 29.898 13.4112 29.8628 13.3408 29.9333C13.2704 29.9685 13.1648 30.0038 13.0944 29.9333C13.024 30.039 12.9184 30.0038 12.848 29.9333C12.7776 29.9333 12.672 29.898 12.6016 29.9333C12.5312 29.9333 12.4256 29.9685 12.32 29.9333C12.2144 29.898 12.144 29.8628 12.0384 29.9333C11.968 30.0038 11.8624 29.898 11.792 29.9333C11.7216 29.8276 11.616 29.9685 11.5456 29.9333C11.4752 29.9333 11.3696 29.898 11.2992 29.9333C11.2288 29.9333 11.1232 29.9685 11.0528 29.9333C10.9824 30.0742 10.8768 29.898 10.8064 29.9333C10.736 29.8628 10.6656 29.9333 10.56 29.9333C10.4896 29.9685 10.4192 29.8628 10.3488 29.9333C10.2784 29.9333 10.208 29.9685 10.1376 29.9333C10.0672 30.0038 9.9968 29.8628 9.9264 29.9333C9.856 29.9333 9.7856 29.9333 9.7152 29.9333C9.6448 29.8276 9.5744 29.898 9.5392 29.9333C9.4688 29.9333 9.3984 30.0038 9.3632 29.9333C9.2928 29.9333 9.2576 29.8628 9.1872 29.9333C9.1168 29.9333 9.0816 29.7571 9.0112 29.9333C8.976 29.9685 8.9056 29.8276 8.8704 29.9333C8.8352 30.039 8.7648 29.9333 8.7296 29.9333C8.6944 29.9333 8.624 29.9333 8.5888 29.9333C8.2016 29.898 7.9904 29.8276 7.9904 29.7571C7.9904 29.6866 8.272 29.6162 8.7296 29.5809C8.7648 29.5809 8.8352 29.5105 8.8704 29.5809C8.9056 29.5809 8.976 29.5105 9.0112 29.5809C9.0816 29.4752 9.1168 29.5457 9.1872 29.5809C9.2576 29.5809 9.2928 29.6162 9.3632 29.5809C9.4336 29.5105 9.4688 29.6162 9.5392 29.5809C9.6096 29.6514 9.68 29.6162 9.7152 29.5809C9.7856 29.6514 9.856 29.5809 9.9264 29.5809C9.9968 29.6866 10.0672 29.6162 10.1376 29.5809C10.208 29.5457 10.2784 29.5809 10.3488 29.5809C10.4192 29.6162 10.4896 29.5457 10.56 29.5809C10.6304 29.5457 10.7008 29.5105 10.8064 29.5809C10.8768 29.5457 10.9824 29.5809 11.0528 29.5809C11.1232 29.5457 11.2288 29.5809 11.2992 29.5809C11.3696 29.5457 11.4752 29.6866 11.5456 29.5809C11.616 29.5809 11.7216 29.5809 11.792 29.5809C11.8624 29.5809 11.968 29.6162 12.0384 29.5809C12.1088 29.6866 12.2144 29.6162 12.32 29.5809C12.4256 29.5457 12.496 29.5809 12.6016 29.5809C12.672 29.5809 12.7776 29.5809 12.848 29.5809C12.9184 29.5457 13.024 29.6162 13.0944 29.5809C13.1648 29.5457 13.2704 29.6162 13.3408 29.5809C13.4112 29.5457 13.5168 29.5457 13.5872 29.5809C13.6576 29.5809 13.7632 29.6866 13.8336 29.5809C13.904 29.5457 13.9744 29.44 14.08 29.5809C14.1504 29.5457 14.2208 29.6514 14.2912 29.5809C14.3616 29.6866 14.432 29.5809 14.5024 29.5809C14.5728 29.6162 14.6432 29.6514 14.7136 29.5809C14.784 29.5457 14.8544 29.6162 14.9248 29.5809C14.9952 29.5105 15.0656 29.6514 15.136 29.5809C15.2064 29.5809 15.2768 29.5809 15.312 29.5809C15.3824 29.44 15.4176 29.5809 15.488 29.5809C15.5584 29.6162 15.5936 29.4752 15.664 29.5809C15.7344 29.4752 15.7696 29.5809 15.8048 29.5809C15.84 29.6162 15.9104 29.5457 15.9456 29.5809C15.9808 29.5105 16.0512 29.6162 16.0864 29.5809C16.1216 29.6162 16.1568 29.5809 16.192 29.5809C16.2272 29.5809 16.2624 29.5809 16.2976 29.5809C16.3328 29.5809 16.368 29.5809 16.4032 29.5809C16.5792 29.7571 16.6848 29.7923 16.6848 29.8276Z" fill="#73523F"/>
<path d="M3.4496 0.863622C3.4496 0.898858 3.3792 0.898857 3.2736 0.934093C3.2032 0.934093 3.1328 0.969329 3.0624 0.969329C3.0272 0.969329 2.992 1.00457 2.9216 1.00457C2.8864 1.00457 2.816 1.0398 2.7808 1.0398C2.7104 1.07504 2.64 1.11027 2.5344 1.11027C2.464 1.14551 2.3936 1.21598 2.288 1.21598C2.2176 1.21598 2.2176 1.25122 2.1472 1.28645C2.1472 1.35692 2.112 1.39216 2.0416 1.35692C1.936 1.39216 1.8304 1.46263 1.76 1.56834C1.7248 1.60358 1.6544 1.63881 1.6192 1.63881C1.584 1.63881 1.584 1.67405 1.5488 1.67405C1.5136 1.74452 1.5136 1.74452 1.4784 1.77976C1.4784 1.85023 1.408 1.88546 1.3376 1.9207C1.3024 1.9207 1.232 1.95594 1.232 2.06164C1.232 2.09688 1.1968 2.13212 1.1968 2.13212C1.1616 2.16735 1.1264 2.20259 1.1264 2.23782C1.0912 2.27306 1.056 2.34353 0.9856 2.37877C0.9152 2.414 0.88 2.48448 0.88 2.55495C0.8448 2.62542 0.8448 2.69589 0.8096 2.76636C0.7744 2.8016 0.7392 2.8016 0.704 2.83684C0.6688 2.87207 0.6688 2.90731 0.6688 2.94254C0.6336 3.01302 0.6336 3.11872 0.6336 3.18919C0.5632 3.22443 0.528 3.2949 0.4928 3.40061C0.4928 3.47108 0.4928 3.57679 0.5632 3.64726C0.5632 3.71773 0.528 3.78821 0.528 3.89391C0.528 3.92915 0.528 3.96439 0.528 3.99962C0.528 4.03486 0.528 4.07009 0.5632 4.14057C0.5632 4.1758 0.5632 4.21104 0.5632 4.28151V4.42245C0.5984 4.49293 0.5984 4.59863 0.5984 4.66911C0.6688 4.73958 0.704 4.81005 0.7392 4.91576C0.7744 4.98623 0.7744 5.09194 0.7744 5.16241C0.8448 5.23288 0.9152 5.30335 0.9504 5.37382C0.9856 5.4443 1.0208 5.55 1.056 5.62048C1.056 5.65571 1.0912 5.69095 1.1264 5.72618C1.1616 5.76142 1.1968 5.79666 1.232 5.83189C1.2672 5.86713 1.3024 5.90236 1.3376 5.9376C1.3376 5.9376 1.3728 5.97284 1.408 6.00807C1.4432 6.04331 1.4784 6.07854 1.5136 6.11378C1.5488 6.14901 1.584 6.18425 1.6192 6.21949C1.6896 6.28996 1.76 6.32519 1.8304 6.39567C1.9008 6.46614 1.9712 6.53661 2.0416 6.57185C2.112 6.60708 2.2176 6.64232 2.3232 6.64232C2.4288 6.67755 2.4992 6.67755 2.6048 6.71279C2.7104 6.74803 2.7808 6.74803 2.8864 6.8185C2.9568 6.8185 2.992 6.78326 3.0272 6.78326C3.0624 6.78326 3.1328 6.78326 3.168 6.78326C3.2032 6.78326 3.2736 6.78326 3.3088 6.8185C3.344 6.8185 3.4144 6.85373 3.4496 6.85373C3.4848 6.85373 3.5552 6.85373 3.5904 6.85373C3.6256 6.85373 3.6256 6.85373 3.6608 6.85373H3.7312C3.7664 6.85373 3.8368 6.85373 3.872 6.85373C3.9072 6.85373 3.9072 6.85373 3.9424 6.8185H4.0128C4.0128 6.8185 4.048 6.8185 4.048 6.78326C4.048 6.78326 4.048 6.78326 4.048 6.74803V6.71279C4.048 6.67755 4.0128 6.67755 4.0128 6.64232C3.9424 6.53661 3.9072 6.4309 3.8016 6.36043C3.6256 6.18425 3.5904 5.9376 3.4496 5.76142C3.4496 5.65571 3.3792 5.55 3.3088 5.4443C3.2736 5.40906 3.2384 5.33859 3.2032 5.30335L3.168 5.23288C3.1328 5.19764 3.1328 5.12717 3.0976 5.09194C3.0272 4.95099 2.9568 4.81005 2.8864 4.70434C2.816 4.5634 2.7456 4.45769 2.6752 4.31675C2.7808 4.31675 2.8512 4.31675 2.9216 4.28151C3.0976 4.28151 3.3088 4.28151 3.52 4.24627C3.6256 4.24627 3.7312 4.24627 3.8016 4.24627C3.872 4.24627 3.9072 4.24627 3.9776 4.28151C4.1888 4.14057 4.4 4.31675 4.6112 4.28151C4.8224 4.35198 5.0336 4.28151 5.2096 4.28151C5.4208 4.24627 5.5968 4.35198 5.808 4.28151C5.9136 4.28151 5.984 4.28151 6.0896 4.28151C6.1248 4.28151 6.1248 4.28151 6.16 4.28151H6.1952C6.1952 4.28151 6.2304 4.28151 6.2304 4.31675C6.2304 4.28151 6.2304 4.28151 6.2304 4.28151C6.2304 4.28151 6.2304 4.28151 6.2656 4.28151C6.2656 4.28151 6.3008 4.28151 6.3008 4.24627C6.3008 4.24627 6.3008 4.24627 6.3008 4.21104C6.3008 4.21104 6.3008 4.1758 6.3008 4.14057C6.3008 4.10533 6.3008 4.07009 6.3008 3.99962C6.3008 3.96439 6.3008 3.92915 6.3008 3.89391C6.3008 3.82344 6.3008 3.71773 6.3008 3.64726C6.336 3.57679 6.336 3.47108 6.3008 3.40061C6.336 3.33014 6.2656 3.25967 6.2656 3.18919C6.2656 3.11872 6.1952 3.04825 6.16 2.97778C6.16 2.94254 6.1248 2.90731 6.1248 2.87207C6.1248 2.83684 6.0896 2.8016 6.0896 2.76636C6.0544 2.62542 5.984 2.48448 5.8784 2.37877C5.8432 2.34353 5.808 2.23782 5.808 2.16735C5.808 2.13212 5.7728 2.09688 5.7728 2.06164C5.7376 2.02641 5.7024 2.02641 5.6672 2.02641C5.5968 1.99117 5.5968 1.9207 5.5616 1.85023C5.5264 1.85023 5.4912 1.77976 5.4208 1.77976C5.3856 1.77976 5.3504 1.77976 5.3152 1.74452C5.28 1.74452 5.28 1.70928 5.2448 1.67405C5.2096 1.63881 5.1744 1.56834 5.1392 1.5331C5.0336 1.46263 4.9632 1.39216 4.8576 1.35692C4.8224 1.32169 4.752 1.28645 4.7168 1.28645C4.6816 1.25122 4.6112 1.21598 4.576 1.21598C4.5408 1.18075 4.4704 1.18075 4.4352 1.14551C4.4 1.11027 4.3296 1.11027 4.2944 1.11027C4.224 1.07504 4.1184 1.0398 4.048 1.00457C3.9776 0.969329 3.9072 0.969329 3.8368 0.969329C3.8016 0.969329 3.7664 0.969329 3.7312 0.934093C3.696 0.934093 3.6608 0.934093 3.6608 0.934093C3.6256 0.934093 3.5552 0.898858 3.52 0.898858C3.4848 0.898858 3.4496 0.863622 3.4496 0.863622C3.4496 0.863622 3.4848 0.828386 3.5904 0.828386C3.6256 0.828386 3.696 0.828386 3.7664 0.828386C3.8016 0.828386 3.8368 0.828386 3.872 0.828386C3.9072 0.828386 3.9424 0.828386 3.9776 0.828386C4.0128 0.828386 4.048 0.828386 4.1184 0.828386C4.1536 0.828386 4.224 0.828386 4.2592 0.863622C4.2944 0.863622 4.3648 0.898858 4.4352 0.898858C4.5056 0.898858 4.5408 0.934093 4.6112 0.934093C4.6816 0.969329 4.7168 0.969329 4.7872 1.00457C4.8576 1.0398 4.8928 1.0398 4.9632 1.07504C4.9984 1.07504 5.0336 1.11027 5.0688 1.11027C5.104 1.11027 5.1392 1.14551 5.1744 1.14551C5.2448 1.18075 5.3152 1.21598 5.3856 1.25122C5.4208 1.28645 5.4912 1.32169 5.5616 1.35692C5.5968 1.35692 5.632 1.39216 5.632 1.4274C5.632 1.4274 5.632 1.46263 5.6672 1.49787C5.7024 1.5331 5.7728 1.56834 5.8432 1.63881C5.8784 1.67405 5.9488 1.70928 5.984 1.77976C6.0192 1.77976 6.0544 1.81499 6.0896 1.85023C6.1248 1.88546 6.1248 1.9207 6.16 1.95594C6.1952 2.02641 6.2304 2.09688 6.2656 2.16735C6.336 2.3083 6.4064 2.44924 6.512 2.59018C6.5472 2.62542 6.5824 2.66066 6.5824 2.69589C6.6176 2.73113 6.6176 2.76636 6.6176 2.83684C6.6528 2.90731 6.6528 3.01302 6.688 3.08349C6.688 3.18919 6.688 3.25967 6.7232 3.36537C6.7584 3.43585 6.7584 3.54155 6.8288 3.61203C6.8288 3.71773 6.8288 3.78821 6.8288 3.89391C6.8288 3.92915 6.8288 3.99962 6.864 4.03486C6.864 4.07009 6.864 4.14057 6.864 4.1758C6.864 4.21104 6.8288 4.21104 6.8288 4.24627C6.8288 4.28151 6.8288 4.31675 6.7936 4.35198C6.7936 4.42245 6.7584 4.49293 6.7584 4.5634C6.7584 4.63387 6.7584 4.70434 6.7584 4.81005H6.5472C6.4768 4.81005 6.3712 4.81005 6.3008 4.81005H6.0896C5.984 4.81005 5.9136 4.81005 5.808 4.81005C5.5968 4.77481 5.4208 4.84528 5.2096 4.81005C4.9984 4.84528 4.8224 4.88052 4.6112 4.81005C4.4 4.84528 4.1888 4.81005 3.9776 4.81005C3.9424 4.81005 3.872 4.81005 3.8016 4.81005C3.8016 4.81005 3.8016 4.81005 3.7664 4.81005H3.7312C3.7312 4.81005 3.7312 4.81005 3.696 4.81005C3.696 4.81005 3.6608 4.81005 3.6608 4.84528C3.6608 4.84528 3.696 4.88052 3.7312 4.88052V4.91576C3.7664 4.95099 3.8016 5.02146 3.8016 5.0567C3.872 5.16241 3.9072 5.26812 3.9776 5.33859C4.0832 5.55 4.1888 5.76142 4.3296 5.9376C4.3296 6.07854 4.4 6.14901 4.4704 6.25472C4.4704 6.28996 4.5056 6.28996 4.5056 6.32519L4.5408 6.39567C4.6112 6.50137 4.6464 6.57185 4.7168 6.67755C4.7872 6.85373 5.104 7.10039 4.752 7.13562C4.6464 7.17086 4.5408 7.20609 4.4352 7.24133C4.3296 7.27657 4.224 7.3118 4.1184 7.3118H4.0832L4.224 7.41751H4.1888C4.1536 7.41751 4.1184 7.41751 4.0832 7.45275C4.0128 7.45275 3.9424 7.48798 3.9072 7.48798H3.8016C3.7664 7.48798 3.7312 7.48798 3.696 7.48798C3.6256 7.48798 3.5552 7.48798 3.52 7.48798C3.4496 7.48798 3.3792 7.48798 3.344 7.48798C3.2736 7.48798 3.2384 7.48798 3.168 7.45275C3.0976 7.45275 3.0624 7.41751 2.992 7.41751C2.9216 7.41751 2.8864 7.41751 2.816 7.41751C2.6752 7.41751 2.5696 7.38227 2.464 7.34704C2.3584 7.3118 2.2528 7.24133 2.112 7.20609C2.0064 7.17086 1.9008 7.13562 1.7952 7.06515C1.6896 6.99468 1.584 6.92421 1.5136 6.85373C1.408 6.78326 1.3376 6.71279 1.2672 6.60708C1.232 6.57185 1.1968 6.53661 1.1616 6.50137C1.1264 6.46614 1.056 6.4309 1.0208 6.39567C0.9856 6.36043 0.9504 6.32519 0.88 6.28996C0.8448 6.25472 0.7744 6.21949 0.7392 6.18425C0.704 6.14901 0.6688 6.11378 0.6336 6.04331C0.5984 6.00807 0.5984 5.9376 0.5984 5.86713C0.528 5.79666 0.4928 5.69095 0.4576 5.58524C0.4224 5.47953 0.3872 5.37382 0.3168 5.30335C0.3168 5.19764 0.2816 5.09194 0.2464 4.98623C0.2112 4.88052 0.176 4.81005 0.1408 4.70434C0.1408 4.59863 0.1408 4.49293 0.1056 4.38722V4.31675C0.1056 4.28151 0.1056 4.28151 0.1056 4.24627C0.1056 4.21104 0.1056 4.14057 0.0704 4.10533C0 4.10533 0 4.03486 0 3.99962C0 3.96439 0 3.89391 0 3.85868C0 3.75297 0.0352 3.6825 0.0352 3.57679C0.0352 3.47108 0.0352 3.40061 0.1056 3.2949C0.1408 3.22443 0.176 3.11872 0.176 3.04825C0.2112 2.97778 0.2464 2.87207 0.2816 2.8016C0.2816 2.76636 0.3168 2.73113 0.3168 2.69589C0.352 2.62542 0.352 2.59018 0.3872 2.55495C0.352 2.44924 0.3872 2.37877 0.4576 2.3083C0.528 2.27306 0.5984 2.20259 0.6336 2.13212C0.704 2.09688 0.704 1.99117 0.7392 1.95594C0.7744 1.9207 0.7744 1.88546 0.8096 1.85023C0.8448 1.81499 0.88 1.81499 0.9152 1.77976C0.9152 1.67405 0.9856 1.63881 1.0208 1.60358C1.0912 1.56834 1.1616 1.5331 1.232 1.49787C1.2672 1.49787 1.3024 1.46263 1.3024 1.4274C1.3376 1.4274 1.3728 1.39216 1.408 1.35692C1.4432 1.32169 1.5136 1.25122 1.584 1.25122C1.6192 1.18075 1.6896 1.14551 1.7248 1.14551C1.76 1.14551 1.8304 1.11027 1.8656 1.07504C2.0064 1.07504 2.0768 0.969329 2.1824 0.934093C2.288 0.898857 2.3584 0.863622 2.464 0.863622C2.5696 0.828386 2.64 0.828386 2.7104 0.828386C2.7808 0.828386 2.816 0.828386 2.8864 0.79315C2.9216 0.79315 2.992 0.79315 3.0272 0.79315C3.1328 0.79315 3.2032 0.79315 3.2736 0.79315C3.3792 0.828386 3.4496 0.828386 3.4496 0.863622Z" fill="#73523F"/>
<path d="M8.8704 9.32025C8.8352 9.28502 8.8704 9.14407 8.976 8.86218C9.0112 8.82695 9.0112 8.75648 9.0464 8.72124C9.0464 8.65077 9.0816 8.61553 9.1168 8.54506C9.1872 8.50982 9.0816 8.40412 9.1872 8.36888C9.2576 8.33364 9.2576 8.22794 9.2576 8.15746C9.2928 8.08699 9.3632 8.05176 9.3632 7.94605C9.328 7.84034 9.5392 7.84034 9.4688 7.6994C9.4688 7.59369 9.5392 7.52322 9.5744 7.45275C9.68 7.41751 9.68 7.27657 9.68 7.20609C9.856 7.17086 9.856 7.06515 9.856 6.95944C10.032 6.92421 10.032 6.8185 9.9968 6.67755C10.032 6.57185 10.1376 6.50137 10.1376 6.36043C10.1728 6.25472 10.208 6.14901 10.2784 6.04331C10.2432 5.90236 10.3136 5.79666 10.4544 5.72618C10.4192 5.58524 10.5248 5.47953 10.6304 5.40906C10.736 5.33859 10.6656 5.16241 10.8064 5.0567C10.8768 4.95099 10.912 4.81005 10.9824 4.70434C11.0528 4.63387 11.1232 4.5634 11.1936 4.38722C11.2288 4.35198 11.264 4.31675 11.2992 4.28151H11.3696L11.4048 4.24627C11.44 4.21104 11.4752 4.21104 11.4752 4.1758C11.5456 4.14057 11.5808 4.10533 11.6512 4.10533C11.7216 3.96439 11.8624 3.92915 12.0032 3.89391C12.1088 3.82344 12.2848 3.78821 12.3904 3.6825C12.5312 3.61203 12.6368 3.50632 12.7776 3.47108C12.9184 3.43585 13.0592 3.36537 13.1648 3.25967C13.2704 3.11872 13.4112 3.15396 13.552 3.04825C13.728 3.04825 13.7984 2.87207 13.904 2.83684C14.0096 2.76636 14.1856 2.73113 14.256 2.62542C14.3616 2.55495 14.4672 2.44924 14.608 2.414C14.6432 2.23782 14.8544 2.3083 14.96 2.20259C15.1008 2.20259 15.1712 2.06164 15.312 2.02641C15.4176 1.95594 15.5584 1.95594 15.6288 1.85023C15.7344 1.81499 15.8048 1.67405 15.9456 1.67405C16.016 1.56834 16.192 1.60358 16.2624 1.49787C16.368 1.4274 16.4384 1.39216 16.544 1.32169C16.6848 1.35693 16.7552 1.21598 16.8256 1.18075C16.896 1.07504 16.9312 0.934093 17.072 0.969329C17.1776 0.934093 17.2832 0.934093 17.3184 0.828386C17.3888 0.757914 17.5648 0.863622 17.5648 0.687442C17.6352 0.61697 17.776 0.687442 17.776 0.581734C17.8112 0.476026 17.9168 0.511262 17.9872 0.476026C18.0576 0.44079 18.128 0.405554 18.1984 0.370318C18.7616 0.0884306 19.0784 -0.0525133 19.1136 0.0179586C19.1488 0.0884306 18.7968 0.335082 18.1632 0.757914C18.0928 0.79315 18.0576 0.898858 17.952 0.898858C17.8816 0.934093 17.8464 1.0398 17.7408 1.0398C17.7056 1.18075 17.6 1.14551 17.5296 1.18075C17.4592 1.21598 17.3536 1.25122 17.2832 1.32169C17.248 1.46263 17.1072 1.4274 17.0368 1.5331C16.9312 1.5331 16.8256 1.60358 16.7552 1.70928C16.6144 1.70928 16.5792 1.81499 16.4736 1.88546C16.3328 1.85023 16.2624 1.99117 16.192 2.06164C16.1216 2.16735 15.9808 2.16735 15.8752 2.23782C15.7696 2.27306 15.664 2.37877 15.5584 2.44924C15.488 2.55495 15.3824 2.62542 15.2416 2.66066C15.136 2.76636 15.0304 2.8016 14.8896 2.87207C14.784 2.97778 14.6432 3.01302 14.5376 3.08349C14.432 3.15396 14.256 3.11872 14.1856 3.2949C14.08 3.36537 13.9392 3.43585 13.8336 3.50632C13.6928 3.57679 13.5872 3.61203 13.4464 3.71773C13.2704 3.71773 13.1648 3.82344 13.0592 3.92915C12.9536 4.03486 12.8128 4.10533 12.672 4.14057C12.5664 4.21104 12.4256 4.28151 12.2848 4.35198C12.1792 4.45769 12.0032 4.45769 11.9328 4.5634C11.8976 4.63387 11.8272 4.63387 11.7568 4.66911C11.7216 4.66911 11.6864 4.70434 11.6512 4.70434C11.6512 4.70434 11.616 4.70434 11.616 4.73958C11.616 4.73958 11.616 4.73958 11.5808 4.73958C11.5808 4.73958 11.5808 4.73958 11.5808 4.77481C11.616 4.73958 11.5456 4.88052 11.4752 4.95099C11.4048 5.0567 11.264 5.12717 11.2992 5.30335C11.264 5.4443 11.2992 5.58524 11.1232 5.65571C11.088 5.79666 10.9472 5.83189 10.9472 5.97284C10.8064 6.04331 10.8416 6.18425 10.7712 6.28996C10.7008 6.39567 10.6304 6.46614 10.5952 6.60708C10.5952 6.74803 10.4544 6.78326 10.4192 6.88897C10.4192 7.02991 10.2432 7.02991 10.2432 7.17086C10.1728 7.24133 10.1728 7.34704 10.1024 7.45275C10.1728 7.59369 9.9968 7.62892 9.9616 7.6994C9.8912 7.76987 9.9616 7.91081 9.8208 7.94605C9.8912 8.08699 9.7504 8.12223 9.68 8.15746C9.6096 8.22794 9.6448 8.33364 9.5744 8.36888C9.6096 8.47459 9.4688 8.47459 9.4688 8.54506C9.3984 8.5803 9.3984 8.65077 9.3632 8.72124C9.3632 8.79171 9.328 8.82695 9.2576 8.86218C9.2224 8.89742 9.1872 8.96789 9.1872 9.00313C9.0112 9.21454 8.9056 9.35549 8.8704 9.32025Z" fill="#73523F"/>
<path d="M11.3696 11.4696C11.3696 11.5049 11.2992 11.5401 11.2288 11.6106L11.1584 11.6811C11.1232 11.6458 11.1584 11.7868 11.1232 11.7163C11.088 11.7163 11.088 11.7163 11.088 11.7515C11.088 11.7868 11.0176 11.7515 11.0528 11.7868C11.088 11.822 11.0528 11.822 11.0176 11.7868C10.9824 11.7868 10.9824 11.7515 11.0176 11.822C11.0176 11.8572 11.0176 11.8572 10.9824 11.8925C10.912 11.8572 10.9472 11.9277 10.9472 11.9629C10.8416 11.9277 10.8768 11.9982 10.912 12.0334C10.7712 11.9982 10.8064 12.0334 10.912 12.1039C10.912 12.1039 10.912 12.1391 10.8768 12.1391V12.1744C10.8768 12.2096 10.912 12.2096 10.8768 12.2448C10.912 12.2448 10.9472 12.2801 10.9472 12.2801C10.9472 12.2801 10.9472 12.3153 10.912 12.3153C11.0176 12.3153 10.9824 12.3505 10.9472 12.3858C10.912 12.421 10.9472 12.421 10.9824 12.421C11.0176 12.421 11.0176 12.421 10.9824 12.4563C10.9824 12.4915 11.0176 12.4915 11.0176 12.5267C11.0176 12.562 11.0176 12.562 11.0176 12.5972C11.0176 12.5972 11.0528 12.6324 11.088 12.5972C11.1232 12.5972 11.1584 12.5972 11.1584 12.6324C11.2288 12.562 11.2288 12.5972 11.2288 12.6677C11.2288 12.6677 11.264 12.6677 11.264 12.7029C11.264 12.7029 11.2992 12.7381 11.2992 12.7029H11.3696L11.4048 12.7381C11.4048 12.7381 11.44 12.7381 11.44 12.7029C11.44 12.6677 11.4752 12.6677 11.4752 12.6677H11.5104C11.5456 12.7029 11.5456 12.7029 11.5456 12.6677C11.5456 12.6324 11.5456 12.6324 11.5808 12.6324H11.616C11.616 12.6324 11.6512 12.6324 11.6512 12.5972V12.562H11.6864C11.6512 12.5267 11.6512 12.4915 11.6864 12.4915C11.7216 12.4915 11.7568 12.4915 11.7568 12.4915C11.792 12.4915 11.792 12.4915 11.792 12.4563V12.421C11.792 12.421 11.792 12.3858 11.8272 12.3858C11.8272 12.3858 11.8624 12.3505 11.8272 12.3505V12.3153C11.8272 12.3153 11.8272 12.2801 11.8624 12.2801C11.8272 12.2801 11.8272 12.2448 11.8624 12.2448C11.8624 12.2448 11.8976 12.2096 11.8624 12.2096C11.8624 12.1744 11.8624 12.1744 11.8624 12.1391C11.8976 12.1039 11.8976 12.1039 11.8976 12.1039C11.8976 12.1039 11.8624 12.1039 11.8624 12.0687C11.8624 12.0334 11.792 12.0687 11.8272 11.9982C11.8272 11.9629 11.8624 11.9277 11.792 11.9277C11.792 11.9277 11.792 11.8925 11.792 11.8572C11.792 11.822 11.792 11.822 11.7216 11.8572V11.822C11.7216 11.7868 11.7216 11.7868 11.6864 11.822C11.616 11.8925 11.6512 11.7868 11.6512 11.7868L11.616 11.7515C11.4752 11.5754 11.3696 11.5401 11.3696 11.4696C11.3696 11.4344 11.4048 11.3992 11.4752 11.3992C11.5456 11.3639 11.6864 11.3639 11.8272 11.4344C11.8624 11.4344 11.9328 11.3992 11.9328 11.4696C11.968 11.5049 12.0384 11.4696 12.0384 11.5401C12.144 11.5049 12.1088 11.5754 12.144 11.6106C12.1792 11.6458 12.1792 11.6811 12.2144 11.7163C12.2848 11.7163 12.2496 11.822 12.2848 11.822C12.2496 11.8925 12.2848 11.9277 12.3552 11.9629C12.32 11.9982 12.3552 12.0334 12.3552 12.0334C12.3552 12.0687 12.3904 12.0687 12.3904 12.1039C12.3552 12.1391 12.3552 12.1744 12.3552 12.1744C12.3552 12.2096 12.3904 12.2096 12.4256 12.2448C12.4608 12.2801 12.4256 12.3153 12.4256 12.3153C12.4256 12.3505 12.4256 12.3858 12.4256 12.3858C12.3904 12.421 12.4256 12.4915 12.3904 12.562C12.3904 12.5972 12.3904 12.6324 12.3904 12.6677C12.3904 12.7029 12.3552 12.7381 12.32 12.7381C12.32 12.8086 12.2496 12.8438 12.2144 12.9143C12.2144 12.9496 12.1792 12.9848 12.1792 12.9848C12.144 13.02 12.144 13.02 12.1088 13.0553C12.1088 13.0905 12.0384 13.0905 12.0032 13.0905C11.968 13.0905 11.9328 13.1257 11.9328 13.161C11.8976 13.1962 11.8272 13.1962 11.7568 13.2667C11.6864 13.2667 11.616 13.2667 11.5456 13.3372C11.5104 13.3019 11.4752 13.3019 11.44 13.3019C11.4048 13.3019 11.3696 13.3372 11.3344 13.3724C11.2992 13.3724 11.264 13.3724 11.2288 13.3724C11.1936 13.3724 11.1584 13.3372 11.1232 13.3372C11.0528 13.3372 10.9824 13.3019 10.912 13.2667C10.8768 13.2667 10.8416 13.2314 10.8064 13.2314C10.7712 13.1962 10.7712 13.1962 10.736 13.1962C10.7008 13.1962 10.6656 13.161 10.6656 13.1257C10.6304 13.0905 10.6304 13.0553 10.5952 13.0553C10.56 13.0553 10.5248 13.02 10.5248 13.02C10.4896 12.9848 10.4896 12.9496 10.4896 12.9143C10.4544 12.8791 10.4544 12.8438 10.4544 12.8086C10.4544 12.7734 10.4192 12.7381 10.384 12.7381C10.3488 12.7029 10.3136 12.7029 10.2784 12.6677C10.2432 12.6324 10.2432 12.5972 10.3136 12.562C10.2784 12.5267 10.3136 12.4915 10.3136 12.4915C10.3136 12.4563 10.3136 12.421 10.2784 12.421C10.3136 12.3858 10.3136 12.3505 10.3136 12.3505C10.3136 12.3153 10.2784 12.3153 10.2784 12.2801C10.3136 12.2096 10.3488 12.1744 10.3136 12.1391C10.2784 12.1039 10.3136 12.0687 10.3136 12.0687C10.3136 12.0334 10.3488 12.0334 10.3488 11.9982C10.3136 11.9629 10.3488 11.9629 10.384 11.9277C10.4192 11.9277 10.4192 11.8925 10.4192 11.8572C10.4544 11.822 10.4544 11.7868 10.4896 11.7515C10.4544 11.6811 10.4544 11.6811 10.4896 11.6811C10.5248 11.6811 10.56 11.6811 10.5952 11.6811C10.6304 11.6811 10.5952 11.6458 10.6304 11.6106C10.6304 11.5754 10.6656 11.5754 10.7008 11.6106C10.6656 11.5049 10.736 11.5401 10.8064 11.5401C10.8416 11.5401 10.8416 11.4696 10.912 11.5049C10.912 11.4344 10.9824 11.5049 10.9824 11.4696C11.0176 11.5049 11.0176 11.4344 11.0528 11.4696C11.088 11.4344 11.088 11.4344 11.1232 11.4696C11.1584 11.4696 11.1584 11.4696 11.1936 11.4696C11.264 11.4696 11.2992 11.5049 11.3344 11.5049C11.3696 11.4344 11.3696 11.4696 11.3696 11.4696Z" fill="#73523F"/>
<path d="M14.96 10.5887C14.96 10.624 14.9248 10.6592 14.8192 10.7297L14.7488 10.8002C14.7136 10.7649 14.7488 10.9059 14.7136 10.8354C14.6784 10.8354 14.6784 10.8354 14.6784 10.8706C14.6784 10.9059 14.608 10.8706 14.6432 10.9059C14.6784 10.9411 14.6432 10.9411 14.608 10.9059C14.5728 10.9059 14.5728 10.8706 14.608 10.9411C14.608 10.9763 14.608 10.9763 14.5728 11.0116C14.5024 10.9763 14.5376 11.0468 14.5376 11.082C14.432 11.0468 14.4672 11.082 14.5024 11.1525C14.3616 11.1173 14.3968 11.1525 14.5024 11.223C14.5024 11.223 14.5024 11.2582 14.4672 11.2582V11.2935C14.4672 11.3287 14.5024 11.3287 14.4672 11.3639C14.5024 11.3639 14.5376 11.3992 14.5376 11.3992C14.5376 11.3992 14.5376 11.4344 14.5024 11.4344C14.608 11.4344 14.5728 11.4696 14.5376 11.5049C14.5024 11.5401 14.5376 11.5401 14.5728 11.5401C14.608 11.5401 14.608 11.5401 14.5728 11.5754C14.5728 11.6106 14.608 11.6106 14.608 11.6458C14.608 11.6811 14.608 11.6811 14.608 11.7163C14.608 11.7163 14.6432 11.7515 14.6784 11.7163C14.7136 11.7163 14.7488 11.7163 14.7488 11.7515C14.784 11.6458 14.784 11.7163 14.784 11.7515C14.784 11.7515 14.8192 11.7515 14.8192 11.7868C14.8192 11.7868 14.8544 11.822 14.8544 11.7868H14.9248L14.96 11.822C14.96 11.822 14.9952 11.822 14.9952 11.7868C14.9952 11.7515 15.0304 11.7515 15.0304 11.7515H15.0656C15.1008 11.7868 15.1008 11.7868 15.1008 11.7515C15.1008 11.7163 15.1008 11.7163 15.136 11.7163H15.1712C15.1712 11.7163 15.2064 11.7163 15.2064 11.6811V11.6458H15.2416C15.2064 11.5754 15.2064 11.5754 15.2416 11.5754C15.2768 11.5754 15.312 11.5754 15.312 11.5754C15.3472 11.5754 15.3472 11.5754 15.3472 11.5401V11.5049C15.3472 11.5049 15.3472 11.4696 15.3824 11.4696C15.3824 11.4696 15.4176 11.4344 15.3824 11.4344V11.3992C15.3824 11.3992 15.3824 11.3639 15.4176 11.3639C15.3824 11.3639 15.3824 11.3287 15.4176 11.3287C15.4176 11.3287 15.4528 11.2935 15.4176 11.2935C15.4176 11.2582 15.4176 11.2582 15.4176 11.223C15.4528 11.1878 15.4528 11.1878 15.4528 11.1878C15.4528 11.1878 15.4176 11.1878 15.4176 11.1525C15.4176 11.1173 15.3472 11.1525 15.3824 11.082C15.3824 11.0468 15.4176 11.0116 15.3472 11.0116C15.3472 11.0116 15.3472 10.9763 15.3472 10.9411C15.3472 10.9059 15.3472 10.9059 15.2768 10.9411V10.9059C15.2768 10.8706 15.2768 10.8706 15.2416 10.9059C15.1712 10.9763 15.2064 10.8706 15.2064 10.8706L15.1712 10.8354C15.0656 10.6945 14.96 10.6592 14.96 10.5887C14.96 10.5535 14.9952 10.5183 15.0656 10.5183C15.136 10.483 15.2768 10.483 15.4176 10.5535C15.4528 10.5535 15.5232 10.5183 15.5232 10.5887C15.5584 10.624 15.6288 10.5887 15.6288 10.6592C15.7344 10.624 15.6992 10.6945 15.7344 10.7297C15.7696 10.7649 15.7696 10.8002 15.8048 10.8354C15.8752 10.8354 15.84 10.9411 15.8752 10.9411C15.84 11.0116 15.8752 11.0468 15.9456 11.082C15.9104 11.1173 15.9456 11.1525 15.9456 11.1525C15.9456 11.1878 15.9808 11.1878 15.9808 11.223C15.9456 11.2582 15.9456 11.2935 15.9456 11.2935C15.9456 11.3287 15.9808 11.3287 16.016 11.3639C16.0512 11.3992 16.016 11.4344 16.016 11.4344C16.016 11.4696 16.016 11.5049 16.016 11.5049C15.9808 11.5401 16.016 11.6106 15.9808 11.6811C15.9808 11.7163 15.9808 11.7515 15.9808 11.7868C15.9808 11.822 15.9456 11.8572 15.9104 11.8572C15.9104 11.9277 15.84 11.9629 15.8048 11.9982C15.8048 12.0334 15.7696 12.0687 15.7696 12.0687C15.7344 12.1039 15.7344 12.1039 15.6992 12.1391C15.6992 12.1744 15.6288 12.1744 15.5936 12.1744C15.5584 12.1744 15.5232 12.2096 15.5232 12.2448C15.488 12.2801 15.4176 12.2801 15.3472 12.3505C15.2768 12.3505 15.2064 12.3505 15.136 12.421C15.1008 12.3858 15.0656 12.3858 15.0304 12.3858C14.9952 12.3858 14.96 12.421 14.9248 12.4563C14.8896 12.4563 14.8544 12.4563 14.8192 12.4563C14.784 12.4563 14.7488 12.421 14.7136 12.421C14.6432 12.421 14.5728 12.3858 14.5024 12.3505C14.4672 12.3505 14.432 12.3153 14.3968 12.3153C14.3616 12.2801 14.3616 12.2801 14.3264 12.2801C14.2912 12.2801 14.256 12.2448 14.256 12.2096C14.2208 12.1744 14.2208 12.1391 14.1856 12.1391C14.1504 12.1391 14.1152 12.1039 14.1152 12.1039C14.1152 12.0687 14.08 12.0334 14.08 11.9982C14.08 11.9629 14.08 11.9277 14.08 11.8925C14.08 11.8572 14.0448 11.822 14.0096 11.822C13.9744 11.7868 13.9392 11.7868 13.904 11.7515C13.8688 11.7163 13.8688 11.6811 13.9392 11.6458C13.904 11.6106 13.9392 11.5754 13.9392 11.5754C13.9392 11.5401 13.9392 11.5049 13.904 11.5049C13.9392 11.4696 13.9392 11.4344 13.9392 11.4344C13.9392 11.3992 13.904 11.3992 13.904 11.3639C13.9392 11.2935 13.9744 11.2582 13.9392 11.223C13.904 11.1878 13.9392 11.1525 13.9392 11.1525C13.9392 11.1173 13.9744 11.1173 13.9744 11.082C13.9392 11.0468 13.9744 11.0468 14.0096 11.0116C14.0448 11.0116 14.0448 10.9763 14.0448 10.9411C14.08 10.9059 14.08 10.8706 14.1152 10.8354C14.08 10.7649 14.08 10.7649 14.1152 10.7649C14.1504 10.7649 14.1856 10.7649 14.2208 10.7649C14.256 10.7649 14.2208 10.7297 14.256 10.6945C14.256 10.6592 14.2912 10.6592 14.3264 10.6945C14.2912 10.5887 14.3616 10.624 14.432 10.624C14.4672 10.624 14.4672 10.5535 14.5376 10.5887C14.5376 10.5183 14.608 10.5887 14.608 10.5535C14.6432 10.5887 14.6432 10.5183 14.6784 10.5535C14.6784 10.5183 14.7136 10.5183 14.7488 10.5535C14.784 10.5535 14.784 10.5535 14.8192 10.5535C14.8896 10.5535 14.9248 10.5887 14.96 10.5887C14.96 10.5535 14.9248 10.5535 14.96 10.5887Z" fill="#73523F"/>
<path d="M13.0944 14.0419C13.0944 14.0771 13.024 14.1123 12.9536 14.1828L12.8832 14.2533C12.848 14.2181 12.8832 14.359 12.848 14.2885C12.8128 14.2885 12.8128 14.2885 12.8128 14.3238C12.8128 14.359 12.7424 14.3238 12.7776 14.359C12.8128 14.3942 12.7776 14.3942 12.7424 14.359C12.7072 14.359 12.7072 14.3238 12.7424 14.3942C12.7424 14.4295 12.7424 14.4295 12.7072 14.4647C12.6368 14.4295 12.672 14.4999 12.672 14.5352C12.5664 14.4999 12.6016 14.5704 12.6368 14.6056C12.496 14.5704 12.5312 14.6056 12.6368 14.6761C12.6368 14.6761 12.6368 14.7114 12.6016 14.7114V14.7466C12.6016 14.7818 12.6368 14.7818 12.6016 14.8171C12.6368 14.8171 12.672 14.8523 12.672 14.8523C12.672 14.8523 12.672 14.8875 12.6368 14.8875C12.7424 14.8875 12.7072 14.9228 12.672 14.958C12.6368 14.9932 12.672 14.9932 12.7072 14.9932C12.7424 14.9932 12.7424 14.9932 12.7072 15.0285C12.7072 15.0637 12.7424 15.0637 12.7424 15.0989C12.7424 15.1342 12.7424 15.1342 12.7424 15.1694C12.7424 15.1694 12.7776 15.2047 12.8128 15.1694C12.848 15.1694 12.8832 15.1694 12.8832 15.2047C12.9536 15.1342 12.9536 15.1694 12.9536 15.2399C12.9536 15.2399 12.9888 15.2399 12.9888 15.2751C12.9888 15.2751 13.024 15.3104 13.024 15.2751H13.0944L13.1296 15.3104C13.1296 15.3104 13.1648 15.3104 13.1648 15.2751C13.1648 15.2399 13.2 15.2399 13.2 15.2399H13.2352C13.2704 15.2751 13.2704 15.2751 13.2704 15.2399C13.2704 15.2047 13.2704 15.2047 13.3056 15.2047C13.3056 15.1694 13.376 15.2047 13.376 15.1694V15.1342H13.4112C13.376 15.0989 13.376 15.0637 13.4112 15.0637C13.4464 15.0637 13.4816 15.0637 13.4816 15.0637C13.5168 15.0637 13.5168 15.0637 13.5168 15.0285V14.9932C13.5168 14.9932 13.5168 14.958 13.552 14.958C13.552 14.958 13.5872 14.9228 13.552 14.9228V14.8875C13.552 14.8875 13.552 14.8523 13.5872 14.8523C13.552 14.8523 13.552 14.8171 13.5872 14.8171C13.5872 14.8171 13.6224 14.7818 13.5872 14.7818C13.5872 14.7466 13.5872 14.7466 13.5872 14.7114C13.6224 14.6761 13.6224 14.6761 13.6224 14.6761C13.6224 14.6761 13.5872 14.6761 13.5872 14.6409C13.5872 14.6056 13.5168 14.6409 13.552 14.5704C13.552 14.5352 13.5872 14.4999 13.5168 14.4999C13.5168 14.4999 13.5168 14.4647 13.5168 14.4295C13.5168 14.3942 13.5168 14.3942 13.4464 14.4295V14.3942C13.4464 14.359 13.4464 14.359 13.4112 14.3942C13.3408 14.4647 13.376 14.359 13.376 14.359L13.3408 14.3238C13.2352 14.1476 13.0944 14.1123 13.0944 14.0419C13.0944 14.0066 13.1296 13.9714 13.2 13.9714C13.2704 13.9362 13.4112 13.9362 13.552 14.0066C13.5872 14.0066 13.6576 13.9714 13.6576 14.0419C13.6928 14.0771 13.7632 14.0419 13.7632 14.1123C13.8688 14.0771 13.8336 14.1476 13.8688 14.1828C13.904 14.2181 13.904 14.2533 13.9392 14.2885C14.0096 14.2885 13.9744 14.3942 14.0096 14.3942C13.9744 14.4647 14.0096 14.4999 14.08 14.5352C14.0448 14.5704 14.08 14.6056 14.08 14.6056C14.08 14.6409 14.1152 14.6409 14.1152 14.6761C14.08 14.6761 14.08 14.7114 14.08 14.7114C14.08 14.7466 14.1152 14.7466 14.1504 14.7818C14.1856 14.8171 14.1504 14.8523 14.1504 14.8523C14.1504 14.8875 14.1504 14.9228 14.1504 14.9228C14.1152 14.958 14.1504 15.0285 14.1152 15.0989C14.1152 15.1342 14.1152 15.1694 14.1152 15.2047C14.1152 15.2399 14.08 15.2751 14.0448 15.2751C14.0448 15.3456 13.9744 15.3808 13.9392 15.4513C13.9392 15.4865 13.904 15.5218 13.904 15.5218C13.8688 15.557 13.8688 15.557 13.8336 15.5923C13.8336 15.6275 13.7632 15.6275 13.728 15.6275C13.6928 15.6275 13.6576 15.6627 13.6576 15.698C13.6224 15.7332 13.552 15.7332 13.4816 15.8037C13.4112 15.8037 13.3408 15.8037 13.2704 15.8741C13.2352 15.8389 13.2 15.8389 13.1648 15.8389C13.1296 15.8389 13.0944 15.8741 13.0592 15.9094C13.024 15.9094 12.9888 15.9094 12.9536 15.9094C12.9184 15.9094 12.8832 15.8741 12.848 15.8741C12.7776 15.8741 12.7072 15.8389 12.6368 15.8037C12.6016 15.8037 12.5664 15.7684 12.5312 15.7684C12.496 15.7332 12.496 15.7332 12.4608 15.7332C12.4256 15.7332 12.3904 15.698 12.3904 15.6627C12.3552 15.6275 12.3552 15.5923 12.32 15.5923C12.2848 15.5923 12.2496 15.557 12.2496 15.557C12.2144 15.5218 12.2144 15.4865 12.2144 15.4513C12.1792 15.4161 12.1792 15.3808 12.1792 15.3456C12.1792 15.3104 12.144 15.2751 12.1088 15.2751C12.0736 15.2399 12.0384 15.2399 12.0032 15.2047C11.968 15.1694 11.968 15.1342 12.0384 15.0989C12.0032 15.0637 12.0384 15.0285 12.0384 15.0285C12.0384 14.9932 12.0384 14.958 12.0032 14.958C12.0384 14.9228 12.0384 14.8875 12.0384 14.8875C12.0384 14.8523 12.0032 14.8523 12.0032 14.8171C12.0384 14.7466 12.0736 14.7114 12.0384 14.6761C12.0032 14.6409 12.0384 14.6056 12.0384 14.6056C12.0384 14.5704 12.0736 14.5704 12.0736 14.5352C12.0384 14.4999 12.0736 14.4999 12.1088 14.4647C12.144 14.4647 12.144 14.4295 12.144 14.3942C12.1792 14.359 12.1792 14.3238 12.2144 14.2885C12.1792 14.218 12.1792 14.218 12.2144 14.218C12.2496 14.218 12.2848 14.218 12.32 14.218C12.3552 14.218 12.32 14.1828 12.3552 14.1476C12.3552 14.1123 12.3904 14.1123 12.4256 14.1476C12.3904 14.0419 12.4608 14.0771 12.5312 14.0771C12.5664 14.0771 12.5664 14.0066 12.6368 14.0419C12.6368 13.9714 12.7072 14.0419 12.7072 14.0066C12.7424 14.0419 12.7424 13.9714 12.7776 14.0066C12.8128 13.9714 12.8128 13.9714 12.848 14.0066C12.8832 14.0066 12.8832 14.0066 12.9184 14.0066C12.9888 14.0066 13.024 14.0419 13.0592 14.0419C13.0944 14.0066 13.0944 14.0419 13.0944 14.0419Z" fill="#73523F"/>
</svg>
