<svg width="32" height="30" viewBox="0 0 32 30" fill="none" xmlns="http://www.w3.org/2000/svg">
<path d="M24.0187 12.0808C23.9813 12.0808 23.9438 12.0808 23.9438 12.0808C23.9438 12.0808 23.9063 12.0808 23.8689 12.0808C23.7939 12.0808 23.644 12.0073 23.4941 11.8972C23.1944 11.6769 22.8946 11.1995 22.6698 10.5753C22.5948 10.355 22.5199 10.1346 22.4824 9.8776C22.4075 9.62056 22.37 9.36353 22.3326 9.06977C22.3326 8.77601 22.1827 8.48225 22.2576 8.15178C22.2576 7.8213 22.2576 7.49082 22.2576 7.16034C22.2576 6.79315 22.3326 6.46267 22.3326 6.05875C22.2951 5.87515 22.37 5.69155 22.445 5.47124C22.5199 5.28764 22.5948 5.10404 22.5948 4.88372C22.6323 4.70012 22.7073 4.4798 22.7822 4.29621C22.8197 4.18605 22.8946 4.11261 22.9321 4.00245C22.9696 3.96573 23.007 3.89229 23.007 3.85557L23.1194 3.74541C23.1569 3.70869 23.2318 3.67197 23.2693 3.63525C23.3068 3.59853 23.3817 3.59853 23.4192 3.59853C23.3068 3.59853 23.2318 3.63525 23.1569 3.63525C23.1194 3.63525 23.082 3.59853 23.0445 3.59853C23.007 3.59853 23.007 3.59853 22.9696 3.59853H22.8197C22.5948 3.59853 22.37 3.63525 22.1452 3.63525C21.6581 3.48837 21.171 3.48837 20.6464 3.52509C20.1218 3.48837 19.6347 3.37821 19.0726 3.34149C18.9227 3.34149 18.8103 3.30477 18.6604 3.30477C18.5105 3.26805 18.3981 3.26805 18.2482 3.23133C17.9859 3.19461 17.7237 3.15789 17.4239 3.08446C16.8618 3.04774 16.2998 2.93758 15.7752 2.71726C15.2131 2.68054 14.6511 2.46022 14.089 2.2399C13.5269 2.01958 12.9274 1.94614 12.3653 1.68911C11.8033 1.50551 11.2037 1.32191 10.6417 1.10159C10.3419 0.991432 10.0796 0.881273 9.77986 0.807834C9.48009 0.734394 9.18033 0.660955 8.88056 0.660955C8.5808 0.624235 8.28103 0.587515 7.98126 0.624235C7.90632 0.624235 7.83138 0.624235 7.75644 0.624235C7.6815 0.624235 7.60656 0.624235 7.53162 0.624235C7.38173 0.624235 7.23185 0.624235 7.08197 0.624235C6.96955 0.697674 6.89461 0.734394 6.81967 0.734394C6.74473 0.771114 6.66979 0.771114 6.59485 0.807834L6.48244 0.844553H6.37002C6.29508 0.881273 6.22014 0.881273 6.1452 0.881273C5.84543 0.954712 5.54567 1.02815 5.2459 1.10159C5.09602 1.17503 4.94614 1.21175 4.79625 1.28519L4.57143 1.39535L4.3466 1.54223L4.12178 1.65239C4.04684 1.68911 3.9719 1.72583 3.93443 1.76255C3.89696 1.79927 3.85948 1.79927 3.82201 1.83599L3.74707 1.90942C3.67213 1.94614 3.59719 2.01958 3.55972 2.0563C3.29742 2.2399 3.03513 2.46022 2.8103 2.68054C2.58548 2.93758 2.36066 3.1579 2.1733 3.41493L2.09836 3.48837L2.02342 3.59853C1.94848 3.63525 1.91101 3.70869 1.87354 3.78213C1.79859 3.92901 1.68618 4.03917 1.61124 4.18605C1.42389 4.44308 1.31148 4.73684 1.19906 5.06732C1.16159 5.14076 1.12412 5.2142 1.12412 5.28764C1.08665 5.36108 1.08665 5.43452 1.04918 5.50796C1.01171 5.65483 0.936768 5.80171 0.899297 5.94859C0.824356 6.24235 0.711944 6.53611 0.711944 6.86659C0.637002 7.16034 0.599532 7.49082 0.637002 7.78458V8.22521C0.637002 8.29865 0.637002 8.37209 0.674473 8.44553C0.674473 8.51897 0.674473 8.59241 0.711944 8.66585C0.711944 8.81273 0.749414 8.95961 0.786885 9.10649C0.786885 9.17993 0.824356 9.25337 0.824356 9.32681C0.824356 9.40024 0.861827 9.47369 0.861827 9.54712C0.899297 9.694 0.936768 9.84088 0.974239 9.98776C1.01171 10.0612 1.01171 10.1346 1.04918 10.2081C1.08665 10.2815 1.12412 10.355 1.16159 10.4284C1.19906 10.5018 1.23653 10.5753 1.274 10.6487L1.49883 11.0159L1.5363 11.1261L1.61124 11.2362L1.83607 11.6034C1.91101 11.7136 1.98595 11.8605 2.06089 11.9706C2.13583 12.0073 2.1733 12.0808 2.21077 12.1175C2.24824 12.1542 2.32318 12.2277 2.36066 12.2644C2.47307 12.3745 2.54801 12.4847 2.66042 12.5949L2.8103 12.7785C2.84778 12.8152 2.92272 12.8886 2.96019 12.9253C3.0726 13.0355 3.18501 13.1089 3.29742 13.2191C3.33489 13.2558 3.40984 13.3293 3.44731 13.366C3.48478 13.4027 3.55972 13.4761 3.59719 13.5129C3.7096 13.5863 3.82201 13.6965 3.9719 13.7332L4.15925 13.8433C4.23419 13.88 4.27166 13.9168 4.3466 13.9535C4.45902 14.0269 4.6089 14.0636 4.72131 14.1371C4.83372 14.2105 4.98361 14.2472 5.09602 14.3207C5.20843 14.3574 5.35831 14.4308 5.47073 14.4676C5.58314 14.5043 5.73302 14.5777 5.84543 14.6144C5.92037 14.6512 5.99532 14.6512 6.03279 14.6512C6.10773 14.6512 6.18267 14.6879 6.22014 14.6879C6.74473 14.8348 7.30679 14.8348 7.83138 14.8715C7.90632 14.8715 7.94379 14.8715 8.01873 14.8348C8.09368 14.8348 8.13115 14.8348 8.20609 14.8348C8.3185 14.8348 8.46838 14.8348 8.5808 14.798C8.65574 14.798 8.69321 14.798 8.76815 14.798C8.84309 14.798 8.88056 14.798 8.9555 14.7613C9.06791 14.7613 9.2178 14.7246 9.33021 14.6879C9.81733 14.5777 10.3044 14.4308 10.7916 14.284C11.3162 14.2472 11.7283 13.9902 12.2155 13.8066C12.6651 13.6597 13.1148 13.4394 13.5644 13.366C14.0141 13.2191 14.4637 13.1457 14.8759 12.9988C15.2881 12.8519 15.7377 12.9253 16.1124 12.705C16.2998 12.6316 16.5246 12.6316 16.7119 12.5949C16.8993 12.5581 17.0866 12.5581 17.274 12.448C17.6487 12.3011 18.0234 12.3011 18.3607 12.2644C18.4356 12.2644 18.548 12.2277 18.6229 12.2277C18.6979 12.2277 18.8103 12.1909 18.8852 12.1909C19.0351 12.1542 19.2225 12.1542 19.3724 12.1175C20.8337 11.9706 21.9578 11.9339 22.7447 11.9339C23.1194 11.9339 23.4192 11.9339 23.644 11.9706C23.9063 12.0808 24.0187 12.0808 24.0187 12.0808C24.0187 12.1175 23.9063 12.1175 23.644 12.1542C23.5316 12.1542 23.3817 12.1542 23.1944 12.1909C23.007 12.1909 22.8197 12.2277 22.5574 12.2277C22.0703 12.2644 21.5082 12.3011 20.8337 12.3745C20.1593 12.448 19.3724 12.5581 18.5105 12.705C18.1733 12.7785 17.8361 12.8886 17.4239 12.9253C17.2365 12.9621 17.0492 12.9988 16.8618 13.0722C16.6745 13.1089 16.4871 13.1824 16.2623 13.1824C15.8876 13.366 15.4754 13.4027 15.0632 13.5129C14.6511 13.623 14.2014 13.7332 13.7892 13.9168C13.377 14.1004 12.8899 14.1738 12.4403 14.3574C11.9532 14.4676 11.5035 14.6512 11.0164 14.8348C10.5293 14.9449 10.0422 15.1652 9.51756 15.2754C9.36768 15.2754 9.25527 15.3121 9.10539 15.3121C9.03044 15.3121 8.9555 15.3488 8.91803 15.3488C8.84309 15.3488 8.76815 15.3856 8.69321 15.3856C8.54333 15.4223 8.43091 15.4223 8.28103 15.459C8.20609 15.459 8.13115 15.459 8.05621 15.4957C7.98126 15.4957 7.90632 15.4957 7.83138 15.4957C7.26932 15.5324 6.66979 15.4223 6.10773 15.3121C5.54567 15.1652 4.94614 15.0184 4.42155 14.7246C3.85948 14.5043 3.29742 14.1738 2.84777 13.7332C2.36066 13.366 1.91101 12.8886 1.5363 12.3745C1.42389 12.2644 1.34895 12.1175 1.23653 12.0073C1.19906 11.9339 1.16159 11.8605 1.08665 11.787C1.04918 11.7136 1.01171 11.6401 0.974239 11.5667L0.899297 11.4565L0.861827 11.3464L0.637002 10.9058C0.599532 10.8323 0.562061 10.7589 0.52459 10.6854C0.487119 10.612 0.449649 10.5386 0.449649 10.4651C0.412178 10.3917 0.412178 10.3182 0.374707 10.2448C0.374707 10.0612 0.337237 9.91432 0.299766 9.76744C0.262295 9.694 0.262295 9.62056 0.262295 9.5104C0.262295 9.43696 0.224824 9.36353 0.224824 9.25337C0.187354 9.10649 0.149883 8.92289 0.112412 8.77601C0.112412 8.70257 0.0749415 8.62913 0.0749415 8.51897L0 8.29865V7.8213C0 7.49082 0.0374707 7.16034 0.0749415 6.82987C0.112412 6.49939 0.187354 6.16891 0.299766 5.83843C0.337237 5.69156 0.374707 5.50796 0.449649 5.36108C0.487119 5.28764 0.487119 5.2142 0.52459 5.10404L0.599532 4.847C0.786885 4.55324 0.936768 4.25949 1.12412 3.92901C1.19906 3.78213 1.31148 3.63525 1.38642 3.48837C1.42389 3.37821 1.46136 3.30477 1.49883 3.23133L1.64871 3.01102C1.83607 2.71726 2.09836 2.46022 2.36066 2.20318C2.62295 1.94614 2.88525 1.72583 3.18501 1.54223C3.22248 1.50551 3.29742 1.46879 3.37237 1.39535L3.48478 1.32191C3.52225 1.28519 3.55972 1.28519 3.59719 1.24847L3.82201 1.10159L4.04684 0.991432L4.27166 0.844553C4.3466 0.807834 4.42155 0.771114 4.49649 0.734394C4.64637 0.660955 4.79625 0.587515 4.98361 0.550796C5.28337 0.403917 5.62061 0.330477 5.95785 0.257038L6.22014 0.220318L6.44496 0.146879C6.51991 0.146879 6.59485 0.110159 6.70726 0.110159C6.7822 0.110159 6.85714 0.0734394 6.96955 0.0734394C7.11944 0.0367197 7.30679 0 7.45667 0C7.53162 0 7.60656 0 7.71897 0C7.79391 0 7.86885 0 7.98126 0C8.3185 0 8.65574 0.0734394 8.99297 0.0734394C9.33021 0.110159 9.62998 0.183599 9.96721 0.257038C10.267 0.330477 10.5667 0.440636 10.8665 0.550796C11.466 0.734394 12.0281 1.02815 12.6276 1.13831C13.1897 1.32191 13.7892 1.39535 14.3138 1.68911C14.8384 1.87271 15.363 2.12974 15.9251 2.20318C16.4496 2.46022 17.0117 2.46022 17.5363 2.57038C17.7986 2.64382 18.0609 2.68054 18.3232 2.75398C18.4731 2.7907 18.5855 2.7907 18.7354 2.82742C18.8852 2.82742 18.9977 2.86414 19.1475 2.86414C19.6721 2.90086 20.1593 3.01102 20.6838 3.04774C21.171 3.04774 21.6581 3.19461 22.1452 3.1579C22.37 3.19461 22.5948 3.19461 22.8197 3.19461C23.1569 3.19461 23.4941 3.19461 23.8314 3.23133C23.8314 3.23133 23.8314 3.26805 23.8689 3.26805C23.9813 3.30477 24.0187 3.37821 24.0187 3.45165C23.9813 3.41493 23.9813 3.41493 23.9063 3.48837C23.8689 3.56181 23.8314 3.67197 23.7564 3.81885L23.644 3.89229C23.6066 3.92901 23.5691 3.92901 23.5316 3.96573L23.3817 4.11261C23.3443 4.14933 23.3443 4.18605 23.3068 4.22277C23.2693 4.29621 23.2318 4.40636 23.1944 4.4798C23.1194 4.6634 23.0445 4.847 22.9696 5.0306C22.9696 5.2142 22.9321 5.3978 22.8571 5.5814C22.8197 5.76499 22.7447 5.94859 22.7073 6.13219C22.6323 6.49939 22.6698 6.86659 22.5948 7.19706C22.6698 7.52754 22.5199 7.85802 22.5574 8.18849C22.5199 8.51897 22.5948 8.81273 22.5948 9.06977C22.6323 9.36353 22.6698 9.62056 22.7073 9.84088C22.7447 10.0979 22.8197 10.3182 22.8571 10.5386C23.0445 11.1628 23.2693 11.6034 23.5316 11.8605C23.644 11.9706 23.7564 12.0441 23.8314 12.0441C23.8689 12.0441 23.8689 12.0441 23.8689 12.0441C23.9438 12.0808 23.9438 12.0808 24.0187 12.0808Z" fill="#73523F"/>
<path d="M24.0187 3.41493C24.0187 3.41493 24.0187 3.45165 23.9813 3.45165C23.9813 3.45165 23.9438 3.45165 23.9438 3.48837C23.9438 3.48837 23.9063 3.48837 23.8689 3.52509C23.7939 3.56181 23.644 3.63525 23.5316 3.78213C23.4941 3.81885 23.4941 3.81885 23.4567 3.85557C23.4192 3.89229 23.4192 3.92901 23.3817 3.92901C23.3817 3.96573 23.3443 4.00245 23.3443 4.03917C23.3068 4.07589 23.3068 4.11261 23.2693 4.14933C23.2318 4.18605 23.2318 4.22277 23.2318 4.25949C23.2318 4.29621 23.2318 4.36965 23.1569 4.36965C23.1194 4.40637 23.1194 4.44308 23.082 4.4798C23.082 4.51652 23.0445 4.58996 23.0445 4.62668C23.0445 4.6634 23.007 4.73684 22.9696 4.77356C22.9321 4.81028 22.9321 4.88372 22.9321 4.92044C22.9696 4.99388 22.9321 5.0306 22.8946 5.06732C22.8571 5.10404 22.8197 5.17748 22.8571 5.25092C22.8571 5.36108 22.8197 5.47124 22.7822 5.61812C22.6698 5.72827 22.7447 5.87515 22.7073 5.98531C22.5948 6.09547 22.5948 6.24235 22.6698 6.38923C22.5199 6.49939 22.5199 6.64627 22.6323 6.82987C22.6323 6.97675 22.5574 7.12362 22.6323 7.2705C22.6323 7.41738 22.6698 7.56426 22.6323 7.74786C22.7073 7.89474 22.7073 8.07834 22.6323 8.22521C22.7447 8.37209 22.7073 8.55569 22.6698 8.70257C22.6323 8.88617 22.7822 9.03305 22.7447 9.21665C22.7822 9.40025 22.8197 9.54712 22.8197 9.73072C22.8197 9.91432 22.8197 10.0979 22.9321 10.2448C23.007 10.4284 23.082 10.5753 23.082 10.7589C23.2318 10.9058 23.2693 11.0526 23.3068 11.2362C23.3443 11.3097 23.3817 11.3831 23.4192 11.4565C23.4567 11.53 23.5316 11.6034 23.6066 11.6401C23.644 11.7136 23.719 11.7136 23.7939 11.7503C23.8689 11.787 23.9063 11.787 23.9438 11.787C23.9813 11.787 24.0562 11.787 24.0937 11.787C24.1686 11.7503 24.2061 11.7136 24.2436 11.6401C24.281 11.5667 24.3185 11.53 24.3934 11.4565C24.4684 11.3831 24.5059 11.3464 24.5433 11.2362C24.6183 11.1995 24.6557 11.0894 24.6932 11.0159C24.7307 10.9425 24.7307 10.8323 24.7681 10.7589C24.8056 10.5753 24.918 10.4284 24.918 10.2448C24.9555 10.0612 24.9555 9.8776 25.0304 9.73072C24.918 9.54712 25.1429 9.40025 25.1054 9.21665C25.1803 9.06977 25.1429 8.88617 25.1803 8.70257C25.1803 8.51897 25.2553 8.37209 25.2178 8.22521C25.2178 8.07834 25.1803 7.89474 25.2178 7.74786C25.1429 7.60098 25.2553 7.41738 25.2178 7.2705C25.2178 7.12362 25.1803 6.97675 25.2178 6.82987C25.3302 6.68299 25.2178 6.53611 25.1803 6.38923C25.1803 6.24235 25.0679 6.13219 25.1429 5.98531C25.1429 5.83843 25.1429 5.72827 25.0679 5.61812C25.0304 5.50796 25.1803 5.32436 24.993 5.25092C24.918 5.14076 25.0304 4.99388 24.918 4.92044C24.8431 4.88372 24.8431 4.847 24.8431 4.77356C24.8431 4.73684 24.8431 4.6634 24.8431 4.62668C24.8431 4.58996 24.8056 4.51652 24.8056 4.4798C24.8056 4.44308 24.7681 4.40637 24.7681 4.33293C24.6183 3.96573 24.4309 3.70869 24.2436 3.56181C24.1311 3.45165 24.0187 3.45165 24.0187 3.41493C24.0562 3.37821 24.0937 3.37821 24.1311 3.37821C24.2061 3.37821 24.356 3.41493 24.4684 3.48837C24.6183 3.56181 24.7307 3.70869 24.8806 3.85557C25.0304 4.03917 25.1429 4.22277 25.2553 4.4798C25.2927 4.51652 25.3302 4.58996 25.3302 4.62668C25.3677 4.6634 25.3677 4.73684 25.3677 4.81028C25.4052 4.92044 25.4801 5.0306 25.4801 5.14076C25.63 5.25092 25.555 5.3978 25.5925 5.50796C25.63 5.61812 25.63 5.765 25.6674 5.91187C25.7424 6.02203 25.6674 6.20563 25.7424 6.31579C25.7049 6.46267 25.7424 6.60955 25.8173 6.75643C25.7799 6.90331 25.8548 7.05018 25.8548 7.23378C25.7799 7.38066 25.8548 7.56426 25.8923 7.71114C25.9297 7.89474 25.8923 8.04162 25.8923 8.22521C25.8548 8.40881 25.8923 8.55569 25.8548 8.73929C25.8923 8.92289 25.8923 9.10649 25.8173 9.29009C25.8173 9.47368 25.7799 9.65728 25.7424 9.84088C25.7424 10.0245 25.6674 10.2081 25.63 10.3917C25.5925 10.5753 25.4052 10.7222 25.4426 10.9425C25.3677 11.1261 25.2553 11.3097 25.1803 11.53C25.0679 11.7136 24.918 11.8972 24.7681 12.0808C24.6557 12.1175 24.5433 12.1909 24.4309 12.2644C24.3185 12.3378 24.1686 12.4113 24.0187 12.4113C23.8689 12.4113 23.6815 12.3745 23.5691 12.3011C23.4567 12.2277 23.3443 12.1542 23.2693 12.0441C23.082 11.8605 22.9696 11.6769 22.8571 11.4933C22.7073 11.3097 22.7073 11.0894 22.5948 10.9058C22.4824 10.7222 22.5199 10.5018 22.4075 10.355C22.3326 10.1714 22.2576 9.98776 22.2951 9.80416C22.2576 9.62056 22.3326 9.43697 22.2201 9.25337C22.1827 9.06977 22.0328 8.92289 22.1827 8.70257C22.1452 8.51897 22.2201 8.33537 22.1452 8.18849C22.2576 8.0049 22.1452 7.85802 22.1452 7.67442C22.1827 7.52754 22.2201 7.34394 22.1827 7.19706C22.1452 7.05018 22.2201 6.86659 22.2201 6.71971C22.1827 6.57283 22.3326 6.42595 22.2951 6.27907C22.3326 6.13219 22.3326 5.98531 22.37 5.87515C22.2576 5.72827 22.4075 5.61812 22.445 5.47124C22.4824 5.36108 22.4075 5.2142 22.5574 5.10404C22.4824 4.95716 22.5948 4.847 22.6698 4.77356C22.7073 4.73684 22.7073 4.6634 22.7073 4.62668C22.7073 4.55324 22.7447 4.51652 22.7822 4.4798C22.7822 4.40637 22.7822 4.36965 22.8197 4.33293C22.8571 4.29621 22.8946 4.25949 22.8946 4.22277C22.9321 4.18605 22.9696 4.14933 22.9696 4.11261C23.007 4.07589 23.007 4.03917 23.0445 4.00245C23.0445 3.96573 23.082 3.92901 23.1194 3.89229C23.1569 3.85557 23.1944 3.81885 23.2318 3.81885C23.2693 3.78213 23.2693 3.74541 23.3068 3.74541C23.3443 3.70869 23.3443 3.70869 23.3817 3.67197C23.5691 3.52509 23.719 3.45165 23.8314 3.45165C23.8689 3.45165 23.8689 3.45165 23.9063 3.45165C23.9438 3.45165 23.9438 3.45165 23.9438 3.45165C23.9813 3.41493 24.0187 3.41493 24.0187 3.41493Z" fill="#73523F"/>
<path d="M7.49414 3.1579C7.49414 3.19461 7.15691 3.23133 6.59485 3.34149C6.55738 3.34149 6.48244 3.37821 6.44496 3.37821C6.40749 3.37821 6.33255 3.41493 6.29508 3.41493C6.25761 3.45165 6.18267 3.45165 6.1452 3.48837C6.10773 3.52509 6.03279 3.52509 5.95785 3.56181C5.8829 3.56181 5.84543 3.59853 5.77049 3.63525C5.73302 3.67197 5.65808 3.70869 5.58314 3.70869C5.5082 3.70869 5.43326 3.74541 5.39578 3.78213C5.32084 3.81885 5.28337 3.85557 5.20843 3.89229C5.13349 3.92901 5.09602 3.96573 5.02108 4.00245C4.94614 4.03917 4.87119 4.07589 4.83372 4.14933C4.79625 4.22277 4.72131 4.25949 4.64637 4.29621C4.57143 4.33293 4.49649 4.36965 4.45902 4.4798C4.3466 4.62668 4.23419 4.73684 4.08431 4.88372C3.89696 4.95716 3.85948 5.17748 3.74707 5.32436C3.55972 5.43452 3.48478 5.61812 3.44731 5.83843C3.25995 5.94859 3.18501 6.16891 3.22248 6.42595C3.14754 6.60955 3.0726 6.82987 3.0726 7.05018C3.03513 7.2705 3.03513 7.49082 3.03513 7.71114C3.11007 7.93146 3.11007 8.15178 3.0726 8.40881C3.18501 8.62913 3.22248 8.84945 3.22248 9.10649C3.22248 9.17993 3.25995 9.21665 3.25995 9.29009C3.29742 9.36353 3.33489 9.40025 3.33489 9.43697C3.40984 9.54713 3.44731 9.65728 3.48478 9.76744C3.59719 9.98776 3.74707 10.1714 3.89696 10.3917C4.00937 10.612 4.15925 10.8323 4.42155 10.9425C4.64637 11.0894 4.87119 11.2362 5.05855 11.4198C5.32084 11.4933 5.54567 11.6401 5.77049 11.787C6.03279 11.8605 6.25761 12.0073 6.55738 12.0073C6.81967 12.0808 7.11944 12.0441 7.38173 12.0808C7.6815 12.1175 7.94379 12.1175 8.20609 12.0073C8.3185 11.9339 8.46838 11.9339 8.61827 11.8972C8.69321 11.8972 8.76815 11.8605 8.80562 11.8605C8.88056 11.8605 8.91803 11.8237 8.99297 11.787C9.06791 11.787 9.14286 11.7503 9.18033 11.7503C9.2178 11.7503 9.25527 11.7136 9.25527 11.7136C9.29274 11.7136 9.33021 11.6769 9.33021 11.6769L9.48009 11.53C9.51756 11.4933 9.59251 11.4565 9.66745 11.4198C9.89227 11.273 10.1546 11.1628 10.3045 10.9425C10.4918 10.7589 10.6417 10.5753 10.829 10.3917C10.8665 10.2448 10.9415 10.1714 11.0164 10.0612C11.0539 10.0245 11.0913 9.98776 11.1288 9.91432C11.1663 9.8776 11.1663 9.8776 11.2037 9.84088C11.2037 9.80416 11.2412 9.80416 11.2412 9.76744C11.4286 9.58384 11.4286 9.32681 11.541 9.10649C11.5785 8.99633 11.6159 8.88617 11.6534 8.77601L11.6909 8.70257C11.6909 8.66585 11.6909 8.62913 11.6909 8.62913C11.6909 8.55569 11.7283 8.51897 11.6909 8.44553C11.7283 8.22521 11.6909 7.96818 11.7283 7.74786C11.6909 7.67442 11.6909 7.6377 11.6909 7.56426C11.6909 7.49082 11.6909 7.4541 11.6909 7.38066C11.6909 7.30722 11.6909 7.2705 11.6909 7.19706C11.6909 7.16034 11.6909 7.0869 11.6534 7.05018C11.6159 6.82987 11.541 6.64627 11.5035 6.42595C11.5035 6.35251 11.5035 6.31579 11.5035 6.27907C11.5035 6.24235 11.466 6.16891 11.4286 6.13219C11.3911 6.09547 11.3911 6.05875 11.3536 5.98531C11.3162 5.94859 11.3162 5.91187 11.2787 5.83843C11.2037 5.65484 11.0539 5.50796 10.9789 5.32436C10.8665 5.17748 10.7916 4.99388 10.6417 4.88372C10.5667 4.81028 10.5293 4.73684 10.4918 4.6634C10.4543 4.58996 10.3794 4.51652 10.267 4.51652C10.192 4.4798 10.1546 4.40637 10.0796 4.33293C10.0422 4.25949 9.96721 4.22277 9.8548 4.18605C9.77986 4.18605 9.70492 4.11261 9.62998 4.07589C9.55504 4.03917 9.51756 3.96573 9.44262 3.92901C9.36768 3.89229 9.33021 3.85557 9.25527 3.81885C9.18033 3.78213 9.14286 3.74541 9.06792 3.70869C8.80562 3.56181 8.54333 3.48837 8.28103 3.41493C8.05621 3.34149 7.83138 3.30477 7.6815 3.26805C7.53162 3.23133 7.38173 3.23133 7.30679 3.19461C7.53162 3.19461 7.49414 3.1579 7.49414 3.1579C7.49414 3.12118 7.71897 3.08446 8.16862 3.12118C8.39344 3.12118 8.65574 3.1579 8.9555 3.23133C9.25527 3.30477 9.5925 3.41493 9.96721 3.63525C10.0422 3.67197 10.1171 3.70869 10.192 3.74541C10.267 3.78213 10.3419 3.81885 10.3794 3.89229C10.4543 3.92901 10.5293 4.00245 10.6042 4.03917C10.6792 4.07589 10.7541 4.14933 10.7916 4.22277C11.0164 4.25949 11.0913 4.4798 11.2037 4.62668C11.3536 4.77356 11.4286 4.95716 11.5785 5.10404C11.6534 5.17748 11.7283 5.28764 11.7658 5.36108C11.8033 5.47124 11.8407 5.54468 11.9157 5.65484C11.9532 5.87515 12.0656 6.05875 12.178 6.27907C12.178 6.49939 12.3279 6.71971 12.3653 6.97675C12.3279 7.23378 12.4028 7.4541 12.4403 7.71114C12.4778 7.96818 12.4028 8.22521 12.4028 8.48225C12.3279 8.73929 12.3279 8.99633 12.2155 9.25337C12.178 9.51041 12.0656 9.80416 11.9157 10.0245C11.8033 10.2815 11.6534 10.5018 11.466 10.7589C11.3162 11.0159 11.0913 11.1995 10.8665 11.4198C10.7541 11.53 10.6417 11.6034 10.4918 11.6769C10.4169 11.7136 10.3794 11.7503 10.3045 11.787C10.2295 11.8237 10.192 11.8972 10.1546 11.9339C9.89227 12.1175 9.62998 12.2277 9.33021 12.3378C9.03044 12.448 8.73068 12.5214 8.43091 12.5949C8.09368 12.5581 7.79391 12.6316 7.45667 12.6683C7.11944 12.705 6.81967 12.6683 6.48244 12.5949C6.18267 12.5581 5.84543 12.448 5.58314 12.3378C5.28337 12.2644 5.02108 12.0441 4.75878 11.9339C4.68384 11.8972 4.6089 11.8605 4.57143 11.8237C4.49649 11.787 4.45902 11.7503 4.38407 11.6769C4.27166 11.5667 4.15925 11.4565 4.04684 11.3831C3.82201 11.1995 3.59719 10.9792 3.44731 10.7222C3.37237 10.612 3.29742 10.4651 3.22248 10.355C3.18501 10.2815 3.14754 10.2448 3.11007 10.1714C3.0726 10.1346 3.0726 10.0979 3.03513 10.0979C2.99766 10.0612 2.99766 10.0245 2.96019 10.0245C2.88525 9.91432 2.8103 9.80416 2.73536 9.65728C2.69789 9.58384 2.66042 9.54712 2.66042 9.47369C2.66042 9.40025 2.66042 9.32681 2.66042 9.25337C2.58548 9.14321 2.58548 8.99633 2.58548 8.84945C2.58548 8.81273 2.58548 8.77601 2.58548 8.73929C2.58548 8.70257 2.58548 8.66585 2.58548 8.62913C2.58548 8.55569 2.54801 8.51897 2.54801 8.44553C2.54801 8.37209 2.58548 8.29865 2.58548 8.26193C2.58548 8.18849 2.58548 8.15178 2.58548 8.07834C2.58548 8.0049 2.54801 7.96818 2.54801 7.89474C2.54801 7.8213 2.54801 7.78458 2.54801 7.71114C2.58548 7.4541 2.62295 7.23378 2.62295 6.97675C2.62295 6.71971 2.73536 6.49939 2.8103 6.27907C2.8103 6.20563 2.84777 6.16891 2.84777 6.09547C2.88525 6.05875 2.88525 5.98531 2.92272 5.94859C2.96019 5.91187 2.99766 5.83843 2.99766 5.80171C3.03513 5.76499 3.03513 5.69156 3.03513 5.65484C3.14754 5.47124 3.22248 5.25092 3.37237 5.10404C3.37237 4.99388 3.44731 4.88372 3.52225 4.81028C3.59719 4.73684 3.7096 4.70012 3.78454 4.62668C3.93443 4.4798 3.9719 4.25949 4.19672 4.22277C4.23419 4.11261 4.30913 4.07589 4.38407 4.00245C4.45902 3.96573 4.57143 3.92901 4.64637 3.89229C4.72131 3.85557 4.79625 3.78213 4.87119 3.74541C4.94614 3.70869 5.02108 3.63525 5.09602 3.63525C5.13349 3.56181 5.20843 3.52509 5.28337 3.52509C5.35831 3.48837 5.43325 3.48837 5.5082 3.45165C5.65808 3.45165 5.77049 3.34149 5.92037 3.30477C5.99532 3.26805 6.03279 3.26805 6.10773 3.23133C6.18267 3.23133 6.22014 3.19461 6.29508 3.19461C6.37002 3.19461 6.40749 3.1579 6.44496 3.1579C6.48244 3.1579 6.55738 3.12118 6.59485 3.12118C7.15691 3.04774 7.49414 3.12118 7.49414 3.1579Z" fill="#73523F"/>
<path d="M12.4778 14.0636C12.4778 14.1004 12.0656 14.284 11.2787 14.5777C11.1288 14.6144 11.0164 14.6879 10.829 14.7246C10.6792 14.798 10.5293 14.8348 10.3419 14.9082C10.2295 14.9082 10.1546 14.9449 10.0796 15.0184C10.0047 15.0551 9.89227 15.0918 9.77986 15.0918C9.55503 15.1285 9.36768 15.202 9.14286 15.2387C8.91803 15.3121 8.69321 15.2754 8.43091 15.3488C8.3185 15.4223 8.16862 15.3856 8.05621 15.3488C7.94379 15.3121 7.79391 15.3121 7.64403 15.3488C7.56909 15.3488 7.49414 15.3488 7.45667 15.3488C7.38173 15.3488 7.30679 15.3488 7.26932 15.3488C7.11944 15.3488 7.00703 15.3121 6.85714 15.3121C6.7822 15.2754 6.70726 15.2754 6.63232 15.2387C6.55738 15.2387 6.48244 15.202 6.44497 15.202C6.40749 15.202 6.37002 15.202 6.33255 15.202H6.25761C6.22014 15.202 6.22014 15.2387 6.22014 15.2754V15.3856C6.22014 15.5324 6.22014 15.6793 6.25761 15.8262C6.18267 15.9731 6.1452 16.12 6.1452 16.2668C6.1452 16.4137 6.1452 16.5973 6.22014 16.7442C6.18267 17.0747 6.10773 17.3684 6.1452 17.6989C6.10773 18.0294 6.10773 18.3599 6.03279 18.6903C6.07026 19.0575 6.03279 19.388 5.92037 19.7185C5.95785 20.0857 5.8829 20.4529 5.80796 20.7834C5.69555 21.1506 5.80796 21.5177 5.69555 21.8849C5.65808 22.2521 5.62061 22.6561 5.58314 23.0233C5.54567 23.1334 5.54567 23.2069 5.5082 23.317C5.5082 23.4272 5.47073 23.5006 5.47073 23.6108C5.43326 23.7944 5.43326 24.0147 5.47073 24.1983C5.47073 24.3084 5.47073 24.3819 5.47073 24.492C5.47073 24.6022 5.47073 24.6756 5.47073 24.7858C5.47073 24.9694 5.47073 25.1897 5.43326 25.3733C5.43326 25.4835 5.47073 25.5569 5.47073 25.6671C5.47073 25.7772 5.5082 25.8507 5.5082 25.9608C5.5082 26.1444 5.54567 26.328 5.58314 26.5116C5.65808 26.6952 5.69555 26.8788 5.77049 27.0624C5.84543 27.246 5.92037 27.4296 6.07026 27.5765C6.18267 27.7601 6.29508 27.907 6.44497 28.0171C6.59485 28.164 6.74473 28.2742 6.85714 28.4211C7.00703 28.5679 7.15691 28.6781 7.34426 28.7883C7.4192 28.825 7.53162 28.8984 7.60656 28.9351C7.6815 28.9719 7.79391 29.0086 7.90632 29.0086C8.09368 29.0453 8.28103 29.1187 8.46838 29.1554C8.65574 29.1922 8.84309 29.2656 9.03045 29.2656C9.2178 29.339 9.40515 29.3023 9.62998 29.2656C9.81733 29.2289 10.0047 29.1922 10.192 29.1554C10.3794 29.1187 10.5667 29.082 10.7541 29.0086C10.9415 28.9351 11.0913 28.8617 11.2412 28.7515C11.3911 28.6414 11.541 28.5312 11.6909 28.4211C11.8407 28.3109 11.9906 28.2007 12.103 28.0906C12.178 27.907 12.2904 27.7968 12.4028 27.6499C12.4778 27.5765 12.5152 27.5031 12.5902 27.4663C12.6276 27.3929 12.7026 27.3195 12.74 27.246C12.8525 27.0991 12.9274 26.9523 12.9649 26.7687C13.0023 26.5851 13.0398 26.4382 13.0773 26.2546C13.0773 26.071 13.1522 25.9241 13.1522 25.7405C13.1522 25.6671 13.1522 25.5569 13.1897 25.4835C13.1897 25.41 13.1897 25.2999 13.1522 25.2264C13.1522 25.153 13.1522 25.0428 13.1522 24.9694C13.1522 24.896 13.1522 24.7858 13.1148 24.7124C13.1148 24.5288 13.0773 24.3819 13.1148 24.1983C13.0773 24.0147 13.0773 23.8678 13.0773 23.6842C13.0773 23.5006 13.0773 23.3537 13.0398 23.2069C13.0023 22.8764 12.9649 22.5459 12.9649 22.2521C13.0398 21.9217 12.9274 21.6279 12.8525 21.3342C12.815 21.0404 12.7026 20.7466 12.7775 20.4529C12.74 20.1591 12.7775 19.9021 12.7026 19.6083C12.6651 19.3513 12.815 19.0575 12.6276 18.8372C12.5902 18.5802 12.7026 18.3231 12.5527 18.1028C12.4403 17.8825 12.5152 17.6255 12.5152 17.4051C12.5152 17.1848 12.4778 16.9645 12.4778 16.7809C12.4403 16.3403 12.4403 15.9364 12.4403 15.5692C12.4403 15.202 12.4403 14.9082 12.4403 14.6879C12.4403 14.3207 12.4403 14.0636 12.4778 14.0636C12.5152 14.0636 12.5527 14.3941 12.5902 14.9816C12.6276 15.5692 12.7026 16.4504 12.8525 17.5153C12.8899 17.7356 12.9649 17.9559 12.9274 18.1763C12.9649 18.3966 13.0398 18.6536 13.0023 18.9107C13.1148 19.1677 13.0773 19.4247 13.1148 19.6818C13.1522 19.9388 13.1522 20.2326 13.2272 20.5263C13.3021 20.8201 13.2646 21.1138 13.3396 21.4076C13.3021 21.7013 13.377 22.0318 13.452 22.3256C13.4145 22.6561 13.5269 22.9498 13.5644 23.2803C13.5269 23.4639 13.5269 23.6108 13.5644 23.7944C13.6019 23.978 13.6393 24.1248 13.6768 24.3084C13.7143 24.492 13.7143 24.6389 13.7143 24.8225C13.7143 24.896 13.7143 25.0061 13.7143 25.0796C13.7143 25.153 13.7143 25.2632 13.7143 25.3366C13.7143 25.41 13.7143 25.5202 13.7143 25.5936C13.7143 25.7038 13.7143 25.7772 13.7143 25.8874C13.7143 26.071 13.6768 26.2913 13.6393 26.4749C13.6019 26.8788 13.4895 27.2827 13.2272 27.6132C13.1897 27.7234 13.1522 27.7968 13.0773 27.8703C13.0398 27.9437 12.9649 28.0539 12.8899 28.1273C12.7775 28.3109 12.6276 28.4578 12.4778 28.6047C12.3653 28.7883 12.178 28.8984 12.0281 29.0453C11.8407 29.1922 11.6909 29.3023 11.5035 29.4125C11.3162 29.5226 11.1288 29.5961 10.904 29.6695C10.6792 29.743 10.4918 29.7797 10.267 29.8898C10.0422 29.9633 9.81733 29.9633 9.59251 30C9.36768 30 9.14286 30 8.91803 30C8.46838 29.9633 8.01874 29.8531 7.56909 29.7062C7.38173 29.5961 7.15691 29.4859 6.96955 29.3758C6.7822 29.2656 6.55738 29.1554 6.37002 29.0453C6.18267 28.8984 5.99532 28.7515 5.84543 28.5679C5.69555 28.3843 5.54567 28.2007 5.43326 28.0171C5.28337 27.8335 5.20843 27.6499 5.09602 27.4296C4.98361 27.2093 4.90867 27.0257 4.87119 26.8054C4.79625 26.5851 4.75878 26.3647 4.75878 26.1444C4.75878 26.0343 4.75878 25.9241 4.72131 25.814C4.72131 25.7038 4.72131 25.5936 4.72131 25.4835C4.72131 25.2632 4.72131 25.0796 4.75878 24.8592C4.75878 24.7491 4.79625 24.6389 4.79625 24.5655C4.79625 24.4553 4.79625 24.3819 4.79625 24.2717C4.79625 24.0881 4.79625 23.8678 4.83372 23.6842C4.83372 23.5741 4.83372 23.5006 4.87119 23.3905C4.87119 23.2803 4.90867 23.2069 4.94614 23.0967C4.98361 22.6928 5.13349 22.3256 5.05855 21.9584C5.09602 21.5912 5.02108 21.1873 5.20843 20.8568C5.20843 20.4896 5.35831 20.1591 5.35831 19.7919C5.5082 19.4614 5.43326 19.0942 5.47073 18.7638C5.5082 18.4333 5.58314 18.1028 5.58314 17.7723C5.54567 17.4419 5.65808 17.1114 5.65808 16.8176C5.65808 16.6707 5.65808 16.4872 5.69555 16.3403C5.73302 16.1934 5.73302 16.0465 5.73302 15.8996C5.73302 15.7528 5.77049 15.6059 5.77049 15.459C5.77049 15.3488 5.77049 15.2387 5.77049 15.1285C5.77049 15.0184 5.77049 14.8715 5.80796 14.7613C5.80796 14.7246 5.80796 14.7246 5.80796 14.6879V14.6512C5.84543 14.6512 5.84543 14.6512 5.8829 14.6512C5.92037 14.6512 5.99532 14.6512 6.07026 14.6512C6.18267 14.6879 6.33255 14.6879 6.44497 14.7246C6.59485 14.7613 6.63232 14.798 6.70726 14.798C6.7822 14.8348 6.81967 14.8348 6.89461 14.8715C7.00703 14.9082 7.15691 14.8715 7.30679 14.8715C7.38173 14.8715 7.4192 14.8715 7.49414 14.8715C7.56909 14.8715 7.60656 14.9082 7.6815 14.9082C7.94379 14.798 8.16862 14.9082 8.39344 14.9082C8.61827 14.9082 8.84309 14.798 9.06792 14.8348C9.25527 14.7246 9.48009 14.798 9.70492 14.7246C9.92974 14.7246 10.0796 14.6144 10.267 14.5777C10.4543 14.5043 10.6042 14.4676 10.7541 14.4308C10.904 14.3941 11.0539 14.3574 11.2037 14.3207C11.9906 14.1371 12.4778 14.0269 12.4778 14.0636Z" fill="#73523F"/>
<path d="M9.29274 23.7577C9.29274 23.7944 9.25527 23.7944 9.18033 23.8311C9.14286 23.8311 9.10539 23.8678 9.03045 23.8678C8.99297 23.8678 8.91803 23.9045 8.84309 23.9045C8.80562 23.9045 8.76815 23.9412 8.69321 23.9412C8.65574 23.9412 8.65574 23.978 8.61827 23.978C8.5808 23.978 8.5808 24.0147 8.54333 24.0147C8.46838 23.978 8.46838 24.1248 8.35597 24.0881C8.28103 24.0881 8.24356 24.1249 8.16862 24.1983C8.13115 24.235 8.01873 24.235 7.98126 24.3452C7.98126 24.4186 7.94379 24.4186 7.86885 24.4186C7.83138 24.4186 7.79391 24.4553 7.79391 24.492C7.75644 24.5288 7.75644 24.5655 7.71897 24.6022C7.6815 24.6389 7.64403 24.6756 7.64403 24.6756C7.56909 24.6756 7.56909 24.7124 7.53162 24.7491C7.53162 24.7858 7.49414 24.8225 7.49414 24.896C7.38173 24.9327 7.34426 25.0428 7.38173 25.153C7.30679 25.153 7.26932 25.1897 7.23185 25.2632C7.23185 25.2999 7.23185 25.3733 7.26932 25.4468C7.26932 25.4835 7.23185 25.5202 7.23185 25.5936C7.23185 25.6304 7.23185 25.6304 7.19438 25.6671C7.19438 25.7038 7.19438 25.7038 7.19438 25.7405C7.19438 25.7772 7.19438 25.8507 7.19438 25.8874C7.19438 25.9241 7.19438 25.9976 7.19438 26.0343C7.23185 26.071 7.26932 26.1444 7.26932 26.1812C7.26932 26.2179 7.26932 26.2179 7.26932 26.2546C7.26932 26.2913 7.26932 26.2913 7.23185 26.328C7.34426 26.4382 7.34426 26.5116 7.30679 26.6585C7.30679 26.7319 7.34426 26.7687 7.38173 26.8054C7.4192 26.8421 7.45667 26.8788 7.45667 26.9523C7.49414 26.989 7.53162 27.0624 7.53162 27.0991C7.56909 27.1359 7.60656 27.1726 7.64403 27.246C7.64403 27.2827 7.6815 27.3195 7.6815 27.3195C7.6815 27.3562 7.71897 27.3562 7.71897 27.3929C7.75644 27.4296 7.75644 27.4296 7.79391 27.4663C7.83138 27.4663 7.86885 27.5031 7.90632 27.5031C7.94379 27.5398 8.01873 27.5765 8.05621 27.6132C8.09368 27.6499 8.16862 27.6867 8.20609 27.7234C8.35597 27.7234 8.43091 27.7968 8.54333 27.8703C8.61827 27.8703 8.65574 27.907 8.73068 27.9437C8.80562 27.9804 8.84309 27.9804 8.91803 27.9804C8.99297 27.9804 9.03045 27.9804 9.10539 27.9804C9.18033 27.9804 9.2178 27.9804 9.29274 28.0171C9.36768 28.0171 9.40515 28.0539 9.48009 28.0539C9.55503 28.0539 9.59251 28.0171 9.66745 27.9804C9.74239 27.9437 9.77986 27.9437 9.8548 27.907C9.92974 27.907 9.96721 27.907 10.0422 27.8703C10.0796 27.8703 10.1171 27.8703 10.1546 27.8703C10.192 27.8703 10.192 27.8335 10.2295 27.8335L10.3045 27.7601C10.3419 27.7234 10.3419 27.7234 10.3794 27.7234C10.4169 27.6867 10.4918 27.6499 10.5293 27.6499C10.5667 27.6132 10.6417 27.5765 10.6792 27.5398C10.7166 27.5031 10.7166 27.5031 10.7541 27.4663C10.7541 27.4296 10.7916 27.4296 10.7916 27.3929C10.829 27.3562 10.829 27.3562 10.8665 27.3195C10.904 27.2827 10.904 27.2827 10.9415 27.246C10.904 27.1726 10.9789 27.1359 11.0164 27.0991C11.0539 27.0991 11.0539 27.0624 11.0913 27.0624L11.1288 27.0257V26.989C11.1663 26.9523 11.2037 26.9155 11.2037 26.8421C11.2037 26.7687 11.2412 26.7319 11.2412 26.6952C11.2412 26.6218 11.2787 26.5851 11.3162 26.5484V26.4749C11.3162 26.4382 11.3162 26.4382 11.3162 26.4015C11.3162 26.3648 11.3162 26.3647 11.3162 26.328C11.3162 26.2913 11.3162 26.2913 11.3162 26.2546C11.3162 26.2179 11.3162 26.1444 11.3536 26.1077C11.3162 26.071 11.3162 25.9976 11.3536 25.9608C11.3536 25.9241 11.3911 25.8507 11.3536 25.814C11.3536 25.7772 11.3536 25.7772 11.3536 25.7405C11.3536 25.7038 11.3536 25.7038 11.3162 25.6671C11.3162 25.6304 11.2787 25.5569 11.2787 25.5202C11.3162 25.4468 11.3162 25.41 11.2787 25.3733C11.2412 25.3366 11.2037 25.2999 11.1663 25.2632C11.1288 25.153 11.0164 25.153 11.0539 25.0061C11.0164 24.9694 11.0164 24.9327 10.9789 24.896C10.9415 24.8592 10.9415 24.8225 10.904 24.7858C10.8665 24.7491 10.8665 24.7124 10.8665 24.6389C10.8665 24.6022 10.829 24.5655 10.7541 24.6022C10.7166 24.6022 10.7166 24.5288 10.6792 24.492C10.6417 24.4553 10.6417 24.4186 10.5667 24.4553C10.4543 24.492 10.4543 24.3819 10.3794 24.3084C10.3045 24.2717 10.267 24.235 10.192 24.1983C9.92974 24.0514 9.70492 23.978 9.55503 23.9412C9.36768 23.7944 9.29274 23.7577 9.29274 23.7577C9.29274 23.7577 9.33021 23.7209 9.36768 23.7209C9.40515 23.7209 9.44262 23.7209 9.48009 23.7209C9.51756 23.7209 9.51756 23.7209 9.55503 23.7209C9.59251 23.7209 9.59251 23.7209 9.62998 23.7209C9.8548 23.7209 10.192 23.7577 10.5667 23.9412C10.6417 23.978 10.7541 23.9412 10.7916 24.0514C10.829 24.0881 10.8665 24.0881 10.904 24.1248C10.9415 24.1616 10.9789 24.1616 11.0164 24.235C11.0913 24.235 11.1288 24.2717 11.1663 24.3084C11.2037 24.3452 11.2037 24.4186 11.2412 24.4553C11.2787 24.492 11.3162 24.5288 11.3536 24.5655C11.3911 24.6022 11.4286 24.6389 11.466 24.6756C11.5785 24.7491 11.5785 24.8592 11.6534 24.9694C11.6534 25.0428 11.6534 25.0796 11.6909 25.153C11.7283 25.1897 11.7658 25.2632 11.8033 25.2999C11.8033 25.3733 11.8033 25.41 11.8407 25.4835C11.8407 25.5202 11.8782 25.5569 11.8782 25.5569C11.8782 25.5936 11.9157 25.6304 11.9157 25.6304C11.8782 25.7038 11.8782 25.7772 11.9157 25.814C11.9157 25.8874 11.9532 25.9241 11.9906 25.9976C12.0281 26.071 11.9906 26.1444 11.9906 26.1812C11.9906 26.2179 11.9906 26.2546 11.9906 26.2913C11.9906 26.328 11.9906 26.3648 11.9906 26.4015C11.9532 26.5483 11.9532 26.6952 11.9157 26.8054C11.9157 26.8788 11.9157 26.9523 11.8782 27.0257C11.8407 27.0991 11.8033 27.1726 11.7658 27.2093C11.7658 27.246 11.7658 27.246 11.7658 27.246C11.7658 27.246 11.7658 27.2827 11.7283 27.2827C11.7283 27.3195 11.6909 27.3562 11.6534 27.3929C11.6159 27.4663 11.5785 27.5031 11.5035 27.5765C11.5035 27.6132 11.466 27.6499 11.4286 27.6867C11.3911 27.7234 11.3911 27.7601 11.3536 27.7601L11.2787 27.8335C11.2412 27.8703 11.2037 27.8703 11.2037 27.907C11.1663 27.9804 11.0913 28.0171 11.0164 28.0171C10.9415 28.0539 10.8665 28.0906 10.829 28.164C10.7166 28.2742 10.5293 28.3109 10.3794 28.3843C10.3045 28.4211 10.2295 28.4211 10.1546 28.4578C10.0796 28.4578 10.0047 28.4945 9.92974 28.5312C9.8548 28.4945 9.74239 28.4945 9.66745 28.5312C9.59251 28.5312 9.51756 28.5679 9.40515 28.6047C9.33021 28.6047 9.2178 28.6047 9.14286 28.6047C9.06791 28.6047 8.99297 28.5679 8.88056 28.5679C8.80562 28.5679 8.73068 28.5312 8.61827 28.5312C8.54333 28.4945 8.46838 28.4578 8.39344 28.4578C8.35597 28.4578 8.3185 28.4211 8.28103 28.4211C8.24356 28.3843 8.20609 28.3843 8.16862 28.3476L8.09368 28.2742C8.05621 28.2375 8.01873 28.2375 7.98126 28.2375C7.90632 28.2007 7.83138 28.164 7.79391 28.0906C7.71897 28.0539 7.6815 27.9804 7.60656 27.9437C7.56909 27.907 7.53162 27.907 7.49414 27.8703C7.45667 27.8335 7.4192 27.8335 7.4192 27.7968C7.38173 27.7601 7.38173 27.7234 7.34426 27.7234C7.30679 27.6867 7.30679 27.6499 7.30679 27.6132C7.26932 27.5398 7.23185 27.4663 7.19438 27.3929C7.15691 27.3195 7.11944 27.246 7.0445 27.2093C7.00703 27.1359 6.93208 27.0991 6.89461 27.0257C6.85714 26.9523 6.81967 26.8788 6.89461 26.8054C6.85714 26.732 6.85714 26.6585 6.85714 26.5851V26.5116C6.85714 26.4749 6.85714 26.4382 6.81967 26.4015C6.85714 26.3648 6.85714 26.328 6.85714 26.2913C6.85714 26.2546 6.85714 26.2179 6.85714 26.1812C6.85714 26.1077 6.81967 26.0343 6.81967 25.9976C6.81967 25.9241 6.85714 25.8507 6.85714 25.814C6.85714 25.7405 6.89461 25.7038 6.85714 25.6304C6.85714 25.5936 6.85714 25.5569 6.85714 25.5202C6.85714 25.4835 6.89461 25.4468 6.89461 25.4468C6.93208 25.3733 6.93208 25.3366 6.96955 25.2632C6.96955 25.1897 7.00703 25.153 7.0445 25.0796C7.08197 25.0428 7.11944 25.0061 7.11944 24.9327C7.19438 24.8225 7.23185 24.7124 7.30679 24.6389C7.26932 24.5655 7.30679 24.492 7.38173 24.492C7.4192 24.4553 7.49415 24.4553 7.53162 24.4186C7.56909 24.3819 7.60656 24.3452 7.60656 24.2717C7.64403 24.235 7.6815 24.1983 7.75644 24.1983C7.75644 24.1249 7.79391 24.0881 7.83138 24.0881C7.86885 24.0881 7.94379 24.0514 7.98126 24.0514C8.05621 24.0147 8.09368 23.9045 8.20609 23.9412C8.20609 23.9045 8.28103 23.8678 8.3185 23.8678C8.35597 23.8678 8.39344 23.8678 8.43091 23.8311C8.50585 23.8311 8.5808 23.7944 8.61827 23.7577C8.65574 23.7209 8.69321 23.7209 8.69321 23.7209C8.73068 23.7209 8.76815 23.7209 8.80562 23.7209C8.88056 23.7209 8.91803 23.6842 8.9555 23.6842C9.03045 23.6842 9.10539 23.6842 9.18033 23.6842C9.25527 23.6842 9.29274 23.6842 9.33021 23.6842C9.2178 23.7209 9.29274 23.7209 9.29274 23.7577Z" fill="#73523F"/>
<path d="M27.3911 6.82987C27.3536 6.79315 27.3536 6.71971 27.3911 6.60955C27.3911 6.60955 27.3911 6.57283 27.4286 6.53611C27.4286 6.49939 27.4286 6.49939 27.466 6.46267C27.541 6.46267 27.4286 6.35251 27.5035 6.38923C27.541 6.38923 27.541 6.35251 27.541 6.31579C27.541 6.27907 27.6159 6.27907 27.6159 6.24235C27.5785 6.13219 27.7283 6.27907 27.6909 6.16891C27.6909 6.13219 27.7283 6.09547 27.7658 6.09547C27.8407 6.13219 27.8407 6.05875 27.8782 6.02203C27.9532 6.05875 27.9906 6.02203 27.9906 5.94859C28.103 6.05875 28.103 6.02203 28.1405 5.87515C28.178 5.83843 28.2529 5.87515 28.2904 5.80171C28.3279 5.76499 28.4028 5.72827 28.4403 5.76499C28.4778 5.65484 28.5527 5.65484 28.5902 5.72827C28.6276 5.69156 28.6276 5.65484 28.6651 5.65484H28.7026C28.7026 5.65484 28.7026 5.65484 28.74 5.65484H28.8525C28.8899 5.65484 28.8899 5.65484 28.9274 5.65484C28.9649 5.65484 29.0398 5.65484 29.0398 5.69156C29.0773 5.72827 29.1522 5.72827 29.1897 5.76499C29.2272 5.80171 29.2646 5.87515 29.3396 5.83843C29.3771 5.83843 29.452 5.83843 29.4895 5.87515C29.5644 5.80171 29.6019 5.87515 29.6393 5.91187C29.6768 5.91187 29.7143 5.98531 29.7892 5.94859C29.8267 5.98531 29.9016 5.94859 29.9391 5.98531C29.9766 6.02203 30.0141 6.05875 30.089 6.02203C30.1639 5.94859 30.1639 6.05875 30.2389 6.02203C30.2763 6.05875 30.2763 6.05875 30.3138 6.05875C30.3513 6.05875 30.3513 6.02203 30.3888 6.02203C30.4262 6.02203 30.4637 6.05875 30.5386 6.02203C30.5761 5.98531 30.6136 5.98531 30.6511 6.02203C30.6511 5.94859 30.6885 5.94859 30.6885 5.98531C30.726 5.98531 30.726 6.02203 30.7635 6.02203C30.8009 6.05875 30.8009 6.02203 30.8384 6.02203L30.8759 5.98531C30.8759 5.94859 30.9133 5.98531 30.9508 5.98531C30.9883 5.98531 30.9883 5.98531 30.9883 5.94859C31.0258 5.94859 31.0258 5.87515 31.1007 5.87515C31.1007 5.83843 31.1007 5.83843 31.1382 5.83843C31.1756 5.83843 31.1756 5.83843 31.1756 5.80171L31.2506 5.72827C31.363 5.76499 31.3255 5.69156 31.3255 5.65484C31.363 5.61812 31.3255 5.54468 31.4005 5.5814C31.4379 5.54468 31.4754 5.54468 31.4754 5.50796C31.4754 5.47124 31.6628 5.54468 31.5504 5.43452C31.5504 5.3978 31.6628 5.43452 31.5878 5.36108C31.5129 5.28764 31.6253 5.32436 31.6253 5.28764C31.6253 5.25092 31.6628 5.25092 31.6628 5.2142C31.7002 5.17748 31.7377 5.14076 31.7752 5.10404C31.8126 5.06732 31.8126 5.0306 31.8501 4.99388C31.8876 4.95716 31.9251 4.92044 31.9625 4.92044C32 4.92044 32 4.99388 32 5.06732C32 5.14076 31.9625 5.28764 31.9251 5.43452C31.9251 5.47124 31.9625 5.54468 31.8876 5.54468C31.8876 5.5814 31.9251 5.61812 31.8501 5.65484C31.9251 5.72827 31.8126 5.72827 31.8126 5.76499C31.8126 5.80171 31.7377 5.80171 31.7377 5.87515C31.7752 5.94859 31.6628 5.91187 31.6628 5.98531C31.5878 5.98531 31.5504 6.02203 31.5878 6.09547C31.5504 6.09547 31.5504 6.09547 31.5129 6.13219C31.5129 6.16891 31.5129 6.16891 31.4754 6.20563C31.363 6.16891 31.4005 6.24235 31.363 6.31579C31.3255 6.38923 31.2506 6.38923 31.2131 6.42595C31.1382 6.42595 31.1382 6.49939 31.0632 6.49939C31.0632 6.53611 31.0258 6.57283 30.9883 6.57283C30.9508 6.57283 30.9133 6.57283 30.8759 6.57283C30.8384 6.60955 30.7635 6.60955 30.6885 6.64627C30.6511 6.68299 30.5761 6.68299 30.5012 6.68299C30.4262 6.71971 30.3513 6.60955 30.3138 6.68299C30.2763 6.68299 30.2389 6.68299 30.2014 6.68299C30.1639 6.68299 30.1265 6.68299 30.089 6.68299C30.0141 6.68299 29.9766 6.64627 29.9016 6.64627C29.8642 6.53611 29.7892 6.57283 29.7143 6.60955C29.6393 6.60955 29.6019 6.60955 29.5269 6.57283C29.452 6.57283 29.4145 6.53611 29.3396 6.49939C29.2646 6.49939 29.2272 6.42595 29.1897 6.42595C29.1148 6.46267 29.1148 6.35251 29.0398 6.35251C28.9649 6.35251 28.9274 6.35251 28.8899 6.27907C28.8525 6.35251 28.8525 6.24235 28.7775 6.31579C28.74 6.31579 28.74 6.42595 28.74 6.31579H28.7026C28.6651 6.31579 28.6651 6.27907 28.6276 6.31579C28.5902 6.20563 28.5527 6.31579 28.5152 6.31579C28.4778 6.31579 28.4403 6.27907 28.4028 6.31579C28.3653 6.38923 28.3279 6.31579 28.2904 6.35251C28.2904 6.38923 28.2529 6.38923 28.2529 6.35251C28.2155 6.35251 28.2155 6.31579 28.2155 6.35251C28.178 6.35251 28.178 6.38923 28.1405 6.38923C28.178 6.53611 28.103 6.42595 28.0656 6.42595C28.0281 6.42595 28.0656 6.53611 27.9906 6.46267C28.0281 6.57283 27.9532 6.49939 27.9157 6.49939C27.8782 6.49939 27.9157 6.57283 27.8407 6.53611C27.8782 6.60955 27.7658 6.53611 27.7658 6.57283C27.7283 6.57283 27.7283 6.60955 27.6909 6.60955C27.6909 6.64627 27.6534 6.64627 27.6159 6.64627L27.5785 6.68299C27.466 6.82987 27.4286 6.82987 27.3911 6.82987Z" fill="#73523F"/>
<path d="M27.3911 9.06977C27.3536 9.03305 27.3536 8.95961 27.4286 8.84945C27.4286 8.84945 27.4286 8.81273 27.466 8.77601C27.466 8.73929 27.466 8.73929 27.5035 8.70257C27.541 8.70257 27.466 8.59241 27.541 8.62913C27.5785 8.62913 27.5785 8.59241 27.5785 8.55569C27.5785 8.51897 27.6534 8.51897 27.6534 8.48225C27.6159 8.37209 27.7658 8.51897 27.7283 8.40881C27.7283 8.37209 27.7658 8.33537 27.8033 8.33537C27.8782 8.37209 27.8782 8.29865 27.9157 8.26194C27.9906 8.29865 28.0281 8.26193 28.0281 8.18849C28.1405 8.29865 28.1405 8.26193 28.178 8.11506C28.2155 8.07834 28.2904 8.11506 28.3279 8.04162C28.3653 8.0049 28.4403 7.96818 28.4777 8.0049C28.5152 7.89474 28.5902 7.89474 28.6276 7.96818C28.6651 7.93146 28.6651 7.89474 28.7026 7.89474H28.815C28.8525 7.89474 28.8525 7.89474 28.8899 7.89474C28.9274 7.89474 28.9274 7.89474 28.9649 7.89474C29.0023 7.89474 29.0023 7.93146 29.0023 7.93146C29.0398 7.96818 29.1148 7.96818 29.1522 8.0049C29.1897 8.04162 29.2272 8.11506 29.3021 8.07834C29.377 8.07834 29.4145 8.07834 29.452 8.11506C29.5269 8.04162 29.5644 8.11506 29.6019 8.15178C29.6393 8.15178 29.6768 8.22521 29.7518 8.18849C29.7892 8.22521 29.8642 8.18849 29.9016 8.22521C29.9391 8.26193 29.9766 8.29865 30.0515 8.26194C30.089 8.22522 30.1265 8.29865 30.2014 8.26194C30.2389 8.29865 30.2389 8.29865 30.2763 8.29865C30.3138 8.29865 30.3138 8.26194 30.3513 8.26194C30.3888 8.26194 30.4262 8.29865 30.5012 8.26194C30.5386 8.22522 30.5761 8.22522 30.6136 8.26194C30.6136 8.1885 30.6511 8.18849 30.6511 8.22521C30.6885 8.22521 30.6885 8.26194 30.726 8.26194C30.7635 8.29865 30.7635 8.26194 30.8009 8.26194L30.8384 8.22521C30.8384 8.18849 30.8759 8.22521 30.9133 8.22521C30.9508 8.22521 30.9508 8.22521 30.9508 8.18849C30.9883 8.18849 30.9883 8.11506 31.0632 8.11506C31.0632 8.07834 31.0632 8.07834 31.1007 8.07834C31.1382 8.07834 31.1382 8.07834 31.1382 8.04162L31.2131 7.96818C31.3255 8.0049 31.2881 7.93146 31.2881 7.89474C31.3255 7.85802 31.2881 7.78458 31.363 7.8213C31.4005 7.78458 31.4379 7.78458 31.4379 7.74786C31.4379 7.71114 31.6253 7.78458 31.5129 7.67442C31.5129 7.6377 31.6253 7.67442 31.5503 7.60098C31.4754 7.52754 31.5878 7.56426 31.5878 7.52754C31.5878 7.49082 31.6253 7.49082 31.6253 7.4541C31.6628 7.41738 31.7002 7.38066 31.7377 7.34394C31.7752 7.30722 31.7752 7.2705 31.8126 7.23378C31.8501 7.19706 31.8876 7.16034 31.9251 7.16034C31.9625 7.16034 31.9625 7.23378 31.9625 7.30722C31.9625 7.38066 31.9251 7.52754 31.8876 7.67442C31.8876 7.71114 31.9251 7.78458 31.8501 7.78458C31.8501 7.8213 31.8876 7.85802 31.8126 7.89474C31.8876 7.96818 31.7752 7.96818 31.7752 8.0049C31.7752 8.04162 31.7002 8.04162 31.7002 8.11506C31.7377 8.1885 31.6253 8.15178 31.6253 8.22521C31.5503 8.22521 31.5129 8.26194 31.5503 8.33537C31.5129 8.33537 31.5129 8.33537 31.4754 8.37209C31.4754 8.40881 31.4754 8.40881 31.4379 8.44553C31.3255 8.40881 31.363 8.48225 31.3255 8.55569C31.2881 8.62913 31.2131 8.62913 31.1756 8.66585C31.1007 8.66585 31.1007 8.73929 31.0258 8.73929C31.0258 8.77601 30.9883 8.81273 30.9508 8.81273C30.9133 8.81273 30.8759 8.81273 30.8384 8.81273C30.8009 8.84945 30.726 8.84945 30.6511 8.88617C30.6136 8.92289 30.5386 8.92289 30.4637 8.92289C30.3888 8.95961 30.3138 8.84945 30.2763 8.92289C30.2389 8.92289 30.2014 8.92289 30.1639 8.92289C30.1265 8.92289 30.089 8.92289 30.0515 8.92289C29.9766 8.92289 29.9391 8.88617 29.8642 8.88617C29.8267 8.77601 29.7518 8.81273 29.6768 8.84945C29.6019 8.84945 29.5644 8.84945 29.4895 8.81273C29.4145 8.81273 29.377 8.77601 29.3021 8.73929C29.2272 8.73929 29.1897 8.66585 29.1522 8.66585C29.0773 8.66585 29.0773 8.59241 29.0023 8.59241C28.9274 8.59241 28.8899 8.59241 28.8525 8.51897C28.815 8.48225 28.7775 8.40881 28.74 8.44553C28.7026 8.44553 28.7026 8.55569 28.7026 8.44553H28.6651C28.6276 8.44553 28.6276 8.40881 28.5902 8.44553C28.5527 8.33537 28.5152 8.44553 28.4777 8.44553C28.4403 8.44553 28.4028 8.40881 28.3653 8.44553C28.3279 8.51897 28.2904 8.44553 28.2529 8.48225C28.2529 8.51897 28.2155 8.51897 28.2155 8.48225C28.178 8.48225 28.178 8.44553 28.178 8.48225C28.1405 8.48225 28.1405 8.51897 28.103 8.51897C28.1405 8.59241 28.103 8.59241 28.103 8.59241C28.0656 8.59241 28.0281 8.55569 28.0281 8.55569C27.9906 8.55569 28.0281 8.66585 27.9532 8.59241C27.9906 8.70257 27.9157 8.62913 27.8782 8.62913C27.8407 8.62913 27.8782 8.70257 27.8033 8.66585C27.8407 8.73929 27.7283 8.66585 27.7283 8.70257C27.6909 8.70257 27.6909 8.73929 27.6534 8.73929C27.6534 8.77601 27.6159 8.77601 27.5785 8.77601L27.541 8.81273C27.466 9.06977 27.4286 9.10649 27.3911 9.06977Z" fill="#73523F"/>
<path d="M27.3911 11.3097C27.3536 11.273 27.3536 11.1995 27.4286 11.0894C27.4286 11.0894 27.4286 11.0526 27.466 11.0159C27.466 10.9792 27.466 10.9792 27.5035 10.9425C27.541 10.9425 27.466 10.8323 27.541 10.869C27.5785 10.869 27.5785 10.8323 27.5785 10.7956C27.5785 10.7589 27.6534 10.7589 27.6534 10.7222C27.6159 10.612 27.7658 10.7589 27.7283 10.6487C27.7283 10.612 27.7658 10.5753 27.8033 10.5753C27.8782 10.612 27.8782 10.5386 27.9157 10.5018C27.9906 10.5386 28.0281 10.5018 28.0281 10.4284C28.1405 10.5386 28.1405 10.5018 28.178 10.355C28.2155 10.3182 28.2904 10.355 28.3279 10.2815C28.3653 10.2448 28.4403 10.2081 28.4777 10.2448C28.5152 10.1346 28.5902 10.1346 28.6276 10.2081C28.6651 10.1714 28.6651 10.1346 28.7026 10.1346H28.74C28.74 10.1346 28.74 10.1346 28.7775 10.1346H28.8525C28.8899 10.1346 28.8899 10.1346 28.9274 10.1346C28.9649 10.1346 29.0398 10.1346 29.0398 10.1714C29.0773 10.2081 29.1522 10.2081 29.1897 10.2448C29.2272 10.2815 29.2646 10.355 29.3396 10.3182C29.377 10.3182 29.452 10.3182 29.4895 10.355C29.5644 10.2815 29.6019 10.355 29.6393 10.3917C29.6768 10.3917 29.7143 10.4651 29.7892 10.4284C29.8267 10.4651 29.9016 10.4284 29.9391 10.4651C29.9766 10.5018 30.014 10.5386 30.089 10.5018C30.1265 10.4651 30.1639 10.5386 30.2389 10.5018C30.2763 10.5386 30.2763 10.5386 30.3138 10.5386C30.3513 10.5386 30.3513 10.5018 30.3888 10.5018C30.4262 10.5018 30.4637 10.5386 30.5386 10.5018C30.5761 10.4651 30.6136 10.4651 30.6511 10.5018C30.6511 10.4284 30.6885 10.4284 30.6885 10.4651C30.726 10.4651 30.726 10.5018 30.7635 10.5018C30.8009 10.5386 30.8009 10.5018 30.8384 10.5018L30.8759 10.4651C30.8759 10.4284 30.9133 10.4651 30.9508 10.4651C30.9883 10.4651 30.9883 10.4651 30.9883 10.4284C31.0258 10.4284 31.0258 10.355 31.1007 10.355C31.1007 10.3182 31.1007 10.3182 31.1382 10.3182C31.1756 10.3182 31.1756 10.3182 31.1756 10.2815L31.2506 10.2081C31.363 10.2448 31.3255 10.1714 31.3255 10.1346C31.363 10.0979 31.3255 10.0245 31.4005 10.0612C31.4379 10.0245 31.4754 10.0245 31.4754 9.98776C31.4754 9.95104 31.6628 10.0245 31.5503 9.91432C31.5503 9.8776 31.6628 9.91432 31.5878 9.84088C31.5129 9.76744 31.6253 9.80416 31.6253 9.76744C31.6253 9.73072 31.6628 9.73072 31.6628 9.694C31.7002 9.65728 31.7377 9.62056 31.7752 9.58384C31.8126 9.54712 31.8126 9.5104 31.8501 9.47369C31.8876 9.43696 31.9251 9.40025 31.9625 9.40025C32 9.40025 32 9.47369 32 9.54712C32 9.62056 31.9625 9.76744 31.9251 9.91432C31.9251 9.95104 31.9625 10.0245 31.8876 10.0245C31.8876 10.0612 31.9251 10.0979 31.8501 10.1346C31.9251 10.2081 31.8126 10.2081 31.8126 10.2448C31.8126 10.2815 31.7377 10.2815 31.7377 10.355C31.7752 10.4284 31.6628 10.3917 31.6628 10.4651C31.5878 10.4651 31.5504 10.5018 31.5878 10.5753C31.5504 10.5753 31.5503 10.5753 31.5129 10.612C31.5129 10.6487 31.5129 10.6487 31.4754 10.6854C31.363 10.6487 31.4005 10.7222 31.363 10.7956C31.3255 10.869 31.2506 10.869 31.2131 10.9058C31.1382 10.9058 31.1382 10.9792 31.0632 10.9792C31.0632 11.0159 31.0258 11.0526 30.9883 11.0526C30.9508 11.0526 30.9133 11.0526 30.8759 11.0526C30.8384 11.0894 30.7635 11.0894 30.6885 11.1261C30.6511 11.1628 30.5761 11.1628 30.5012 11.1628C30.4262 11.1995 30.3513 11.0894 30.3138 11.1628C30.2763 11.1628 30.2389 11.1628 30.2014 11.1628C30.1639 11.1628 30.1265 11.1628 30.089 11.1628C30.014 11.1628 29.9766 11.1261 29.9016 11.1261C29.8642 11.0159 29.7892 11.0526 29.7143 11.0894C29.6393 11.0894 29.6019 11.0894 29.5269 11.0526C29.452 11.0526 29.4145 11.0159 29.3396 10.9792C29.2646 10.9792 29.2272 10.9058 29.1897 10.9058C29.1148 10.9058 29.1148 10.8323 29.0398 10.8323C28.9649 10.8323 28.9274 10.8323 28.8899 10.7589C28.8525 10.7222 28.815 10.6487 28.7775 10.6854C28.74 10.6854 28.74 10.7956 28.74 10.6854H28.7026C28.6651 10.6854 28.6651 10.6487 28.6276 10.6854C28.5902 10.5753 28.5527 10.6854 28.5152 10.6854C28.4777 10.6854 28.4403 10.6487 28.4028 10.6854C28.3653 10.7589 28.3279 10.6854 28.2904 10.7222C28.2904 10.7589 28.2529 10.7589 28.2529 10.7222C28.2155 10.7222 28.2155 10.6854 28.2155 10.7222C28.178 10.7222 28.178 10.7589 28.1405 10.7589C28.178 10.8323 28.1405 10.8323 28.1405 10.8323C28.103 10.8323 28.0656 10.7956 28.0656 10.7956C28.0281 10.7956 28.0656 10.9058 27.9906 10.8323C28.0281 10.9425 27.9532 10.869 27.9157 10.869C27.8782 10.869 27.9157 10.9425 27.8407 10.9058C27.8782 10.9792 27.7658 10.9058 27.7658 10.9425C27.7283 10.9425 27.7283 10.9792 27.6909 10.9792C27.6909 11.0159 27.6534 11.0159 27.6159 11.0159L27.5785 11.0526C27.466 11.3097 27.4286 11.3464 27.3911 11.3097Z" fill="#73523F"/>
</svg>
