<svg width="32" height="30" viewBox="0 0 32 30" fill="none" xmlns="http://www.w3.org/2000/svg">
<path d="M10.939 3.3841C10.9759 3.3841 10.9759 3.63881 11.0128 4.07547C11.0497 4.54852 11.0497 5.2035 11.0497 6.11321C11.0497 6.40431 11.0497 6.73181 11.0497 7.0593C11.0497 7.38679 11.0865 7.75067 11.0497 8.15094C11.0128 8.51482 11.1603 8.91509 11.0497 9.35175C11.0128 9.78841 11.0497 10.2251 11.0497 10.6617C11.0497 11.1348 11.0128 11.6078 11.0497 12.0809C11.1603 12.5903 10.939 13.0997 11.0497 13.6092C11.0865 14.155 11.0865 14.7008 11.0497 15.2466C10.9759 15.8288 11.0497 16.4111 11.0497 16.9933C10.939 17.6119 11.0128 18.1941 11.0497 18.8491C10.939 19.4677 10.939 20.1226 11.0497 20.7776C11.0497 21.4326 11.0128 22.124 11.0497 22.8154C11.0497 23.5067 11.0865 24.1981 11.0497 24.9259C11.0865 25.1806 11.0865 25.4353 11.1234 25.69C11.1234 25.8356 11.1234 25.9447 11.1234 26.0903V26.1631C11.1234 26.1631 11.1234 26.1631 11.1603 26.1631H11.4185C12.1562 26.0903 12.9308 26.1267 13.7053 26.1631C14.4799 26.1995 15.2545 26.0903 16.0659 26.1631C16.8774 26.1631 17.6889 26.1267 18.5003 26.1631C19.3118 26.1995 20.1601 26.2358 21.0084 26.1631C21.8568 26.1267 22.7051 26.1267 23.5535 26.1631C24.4018 26.0539 25.287 26.1267 26.1723 26.1631C27.0575 26.1631 27.9427 26.1995 28.8279 26.1631C29.2706 26.1631 29.7132 26.1631 30.1558 26.1631C30.3771 26.1631 30.5984 26.1631 30.8197 26.1631H31.0779C31.1148 26.1631 31.1517 26.1631 31.1517 26.1631H31.1885V26.1267C31.1885 26.1267 31.1885 26.0903 31.1885 26.0539V25.7992C31.1885 25.5809 31.1885 25.3625 31.1885 25.1442C31.1885 24.7075 31.1885 24.2709 31.1517 23.8342C31.0779 22.9609 31.1885 22.0876 31.1517 21.2143C31.2254 20.341 31.1148 19.504 31.1517 18.6307C31.1517 17.7938 31.1885 16.9569 31.1517 16.1199C31.1517 15.283 31.1148 14.4825 31.1517 13.6456C31.0041 12.845 31.1885 12.0445 31.1517 11.2439C31.2254 10.4434 31.1517 9.67924 31.1517 8.91509C31.1148 8.15094 31.2254 7.38679 31.1517 6.65903C31.1517 5.93127 31.1148 5.2035 31.1517 4.47574C31.1517 4.2938 31.1148 4.07547 31.1148 3.89353V3.60243C31.1148 3.60243 31.0779 3.60243 31.041 3.60243H30.8935C30.7459 3.60243 30.5615 3.60243 30.414 3.60243C29.7132 3.60243 29.0124 3.60243 28.3484 3.60243C27.6845 3.49326 27.0206 3.56604 26.3936 3.60243C25.7665 3.60243 25.1395 3.6752 24.5125 3.60243C23.8854 3.60243 23.2953 3.52965 22.742 3.60243C22.1519 3.60243 21.5986 3.45687 21.0822 3.60243C20.529 3.63881 20.0126 3.49326 19.5331 3.60243C19.0167 3.6752 18.5372 3.60243 18.0946 3.60243C17.6151 3.60243 17.1725 3.60243 16.7667 3.60243C14.8488 3.56604 13.3365 3.56604 12.3037 3.52965C11.7873 3.52965 11.3816 3.49326 11.1234 3.49326C11.0865 3.42049 10.9759 3.3841 10.939 3.3841C10.939 3.34771 11.1234 3.34771 11.4554 3.34771C11.7873 3.34771 12.2668 3.31132 12.8939 3.31132C14.1479 3.27493 15.9922 3.23854 18.3159 3.23854C18.7954 3.23854 19.2749 3.16577 19.7544 3.23854C20.2708 3.23854 20.7871 3.16577 21.3035 3.23854C21.8568 3.12938 22.4101 3.20216 22.9633 3.23854C23.5535 3.23854 24.1436 3.27493 24.7338 3.23854C25.3608 3.16577 25.951 3.27493 26.6149 3.23854C27.2419 3.31132 27.9058 3.27493 28.5698 3.23854C29.2337 3.31132 29.9345 3.23854 30.6353 3.23854C30.7828 3.27493 30.9672 3.27493 31.1148 3.27493H31.4099C31.5574 3.27493 31.668 3.27493 31.8156 3.27493C31.8156 3.42049 31.8156 3.56604 31.8156 3.71159V4.03908C31.8156 4.22102 31.8525 4.40297 31.8525 4.62129C31.8893 5.34906 31.8525 6.07682 31.8525 6.80458C31.8525 7.53235 31.8893 8.2965 31.8525 9.06065C31.8893 9.8248 31.9262 10.5889 31.8525 11.3895C31.8893 12.19 31.8525 12.9906 31.8525 13.7911C31.8893 14.5916 31.8525 15.4286 31.8525 16.2655C31.8893 17.1024 31.7418 17.9394 31.8525 18.7763C31.8525 19.6132 31.8525 20.4865 31.8525 21.3598C31.8525 22.2332 31.8156 23.1065 31.8525 23.9798C31.9631 24.3073 31.9631 24.7439 31.9631 25.1806C31.9631 25.3989 31.9631 25.6173 32 25.8356C32 25.9447 32 26.0903 32 26.1995C32 26.4178 32 26.6361 32 26.8181C31.668 26.8181 31.3361 26.8181 31.0041 26.8181C30.7828 26.8181 30.5615 26.8181 30.3402 26.8181C29.8976 26.8181 29.455 26.8181 29.0124 26.8181C28.1271 26.8181 27.2419 26.8181 26.3567 26.8181C25.4715 26.8544 24.6231 26.7817 23.7379 26.8181C22.8896 26.8544 22.0412 26.7817 21.1929 26.8181C20.3445 26.8544 19.5331 26.8544 18.6847 26.8181C17.8733 26.8181 17.0618 26.7089 16.2504 26.8181C15.4389 26.8544 14.6643 26.9636 13.8898 26.8181C13.1152 26.8544 12.3406 26.7453 11.6029 26.8181C11.566 26.8181 11.4923 26.8181 11.4554 26.7817H11.271C11.0865 26.7817 10.9021 26.7817 10.7177 26.7817C10.7177 26.6725 10.7177 26.5633 10.7177 26.4542C10.7177 26.345 10.7177 26.2358 10.7177 26.1631C10.7177 26.0175 10.7177 25.9084 10.7177 25.7628C10.7177 25.5081 10.6808 25.2534 10.6808 24.9987C10.7177 24.2709 10.7177 23.5795 10.6808 22.8881C10.6439 22.1968 10.7177 21.5054 10.6808 20.8504C10.607 20.1954 10.7546 19.5404 10.6808 18.9218C10.6808 18.3032 10.6808 17.6846 10.6808 17.066C10.5333 16.4838 10.6808 15.8652 10.6808 15.3194C10.7177 14.7372 10.5702 14.1914 10.6808 13.6819C10.5702 13.1361 10.6808 12.6267 10.6808 12.1536C10.7177 11.6442 10.6439 11.1712 10.6808 10.7345C10.607 10.2615 10.7177 9.8248 10.6808 9.42453C10.7177 8.98787 10.6808 8.5876 10.6808 8.22372C10.6808 7.85984 10.6808 7.49596 10.6808 7.13208C10.6808 6.80458 10.6808 6.47709 10.6808 6.18598C10.6808 5.31267 10.7177 4.62129 10.7177 4.14825C10.9021 3.63881 10.939 3.3841 10.939 3.3841Z" fill="#73523F"/>
<path d="M14.0742 4.98518C14.1111 4.98518 14.148 5.42183 14.1848 6.22237C14.1848 6.36792 14.1848 6.51348 14.1848 6.65903C14.1848 6.80458 14.2217 6.98652 14.1848 7.13208C14.148 7.31402 14.2955 7.49596 14.1848 7.6779C14.148 7.85984 14.1848 8.07817 14.1848 8.26011C14.1848 8.47844 14.148 8.69677 14.1848 8.91509C14.2955 9.13342 14.0742 9.35175 14.1848 9.60647C14.1848 9.71563 14.2217 9.86119 14.2217 9.97035V10.0431C14.2217 10.0795 14.2217 10.0795 14.2217 10.1159C14.2217 10.1523 14.2586 10.1523 14.2955 10.1523H14.3324C14.3693 10.1523 14.3693 10.1523 14.4061 10.1523C14.5537 10.1523 14.6643 10.1159 14.8119 10.1159C15.0701 10.2251 15.3651 10.1523 15.6602 10.1159C15.9553 10.2251 16.2504 10.2251 16.5454 10.1159C16.8405 10.1159 17.1725 10.1523 17.4675 10.1159C17.7995 10.1159 18.0946 10.0795 18.4265 10.1159C18.7585 10.0431 19.0905 10.0431 19.4224 10.1159C19.7544 10.0431 20.0863 10.0795 20.4552 10.1159C20.7871 10.1523 21.156 10.0431 21.5248 10.1159C21.8937 10.1159 22.2625 10.0795 22.6314 10.1159C23.0002 10.1523 23.3691 10.1887 23.7379 10.1159C24.1067 10.0795 24.5125 10.0795 24.8813 10.1159C25.2502 10.0067 25.6559 10.0795 26.0616 10.1159C26.4673 10.1159 26.8362 10.1523 27.2419 10.1159C27.4263 10.1159 27.6476 10.1159 27.8321 10.1159H28.1271C28.1271 10.1159 28.1271 10.0795 28.164 10.0795V9.86119C28.164 9.67925 28.164 9.46092 28.1271 9.27898C28.0534 8.87871 28.164 8.47844 28.1271 8.11456C28.2009 7.71429 28.0903 7.3504 28.1271 6.95014C28.1271 6.58625 28.164 6.18598 28.1271 5.8221C28.1271 5.71294 28.1271 5.60377 28.1271 5.49461V5.45822C28.1271 5.45822 28.1271 5.45822 28.0903 5.45822H28.0534C27.6845 5.60377 27.3157 5.42183 26.9468 5.45822C26.578 5.38544 26.246 5.45822 25.8772 5.45822C25.5452 5.49461 25.1764 5.38544 24.8444 5.45822C24.5125 5.45822 24.1805 5.49461 23.8485 5.45822C23.5166 5.531 23.1846 5.38544 22.8896 5.45822C22.5576 5.45822 22.2625 5.45822 21.9674 5.45822C21.6724 5.34906 21.3773 5.42183 21.0822 5.45822C20.7871 5.45822 20.529 5.531 20.2339 5.45822C19.9757 5.45822 19.6806 5.38544 19.4224 5.45822C19.1642 5.45822 18.906 5.31267 18.6847 5.45822C18.4265 5.49461 18.2052 5.34906 17.9839 5.45822C17.7626 5.531 17.5413 5.45822 17.32 5.45822C17.0987 5.45822 16.9143 5.45822 16.7299 5.45822C15.0701 5.09434 14.0742 5.05795 14.0742 4.98518C14.0742 4.94879 14.3693 4.9124 14.9594 4.87601C15.5127 4.83962 16.361 4.80324 17.3938 4.80324C17.6151 4.80324 17.8364 4.73046 18.0577 4.80324C18.279 4.80324 18.5003 4.73046 18.7585 4.80324C19.0167 4.69407 19.238 4.76685 19.4962 4.80324C19.7544 4.80324 20.0126 4.83962 20.3076 4.80324C20.5658 4.73046 20.8609 4.83962 21.156 4.80324C21.4511 4.87601 21.7461 4.83962 22.0412 4.80324C22.3363 4.87601 22.6682 4.80324 22.9633 4.80324C23.2953 4.9124 23.5904 4.83962 23.9223 4.80324C24.2543 4.76685 24.5862 4.80324 24.9182 4.80324C25.2502 4.80324 25.5821 4.76685 25.951 4.80324C26.2829 4.76685 26.6518 4.73046 27.0206 4.80324C27.3895 4.76685 27.7583 4.80324 28.1271 4.80324H28.4591C28.6066 4.80324 28.7173 4.80324 28.8648 4.80324C28.8648 5.02156 28.8648 5.23989 28.8648 5.45822C28.8648 5.531 28.8648 5.56739 28.8648 5.64016C28.8648 5.71294 28.8648 5.74933 28.8648 5.8221C28.9017 6.18598 28.7542 6.58625 28.8648 6.95014C28.8648 7.31402 28.8648 7.71429 28.8648 8.11456C28.8648 8.51483 28.8279 8.87871 28.8648 9.27898C28.8279 9.46092 28.7911 9.67925 28.8279 9.86119C28.8279 9.89757 28.8279 9.97035 28.8279 10.0067V10.0795C28.8279 10.0795 28.8279 10.1159 28.8279 10.1523V10.2251C28.8279 10.407 28.8648 10.5889 28.8648 10.8073C28.6804 10.8073 28.496 10.8073 28.3116 10.8073H27.9427C27.7583 10.8073 27.537 10.8073 27.3526 10.8073C26.9468 10.8073 26.5411 10.8073 26.1723 10.8073C25.7665 10.8437 25.3977 10.7709 24.992 10.8073C24.6231 10.8437 24.2174 10.7709 23.8485 10.8073C23.4797 10.8437 23.1109 10.8437 22.742 10.8073C22.3732 10.8073 22.0043 10.6981 21.6355 10.8073C21.2666 10.8437 20.9347 10.9528 20.5658 10.8073C20.2339 10.8437 19.865 10.7345 19.5331 10.8073C19.2011 10.6981 18.8692 10.8073 18.5372 10.8073C18.2052 10.7709 17.8733 10.7709 17.5782 10.8073C17.2462 10.8437 16.9512 10.7709 16.6561 10.8073C16.361 10.8801 16.0659 10.7345 15.7709 10.8073C15.4758 10.8073 15.2176 10.8073 14.9225 10.8073C14.775 10.8801 14.6643 10.8801 14.5168 10.8437C14.4061 10.8437 14.2955 10.8073 14.2217 10.8073C14.1111 10.8073 14.0373 10.7709 13.9266 10.7709C13.9266 10.6617 13.9266 10.5526 13.9266 10.4798C13.9266 10.3706 13.9266 10.2978 13.8898 10.1887C13.8898 10.0795 13.8898 9.93396 13.9266 9.8248C13.816 9.57008 13.9266 9.35175 13.9266 9.13342C13.9635 8.91509 13.8898 8.69677 13.9266 8.47844C13.8529 8.26011 13.9635 8.07817 13.9266 7.89623C13.9635 7.71429 13.9266 7.53235 13.9266 7.3504C13.9266 7.16846 13.9266 7.02291 13.9266 6.87736C13.9266 6.73181 13.9266 6.58625 13.9266 6.4407C14.0004 5.42183 14.0373 4.98518 14.0742 4.98518Z" fill="#73523F"/>
<path d="M14.4799 12.5903C14.5168 12.5903 14.5537 12.7722 14.5906 13.1361C14.5906 13.2089 14.5906 13.2453 14.5906 13.3181C14.5906 13.3908 14.6274 13.4636 14.5906 13.5364C14.5537 13.6092 14.7012 13.6819 14.5906 13.7547C14.5537 13.8275 14.5906 13.9367 14.5906 14.0094C14.5906 14.0822 14.5537 14.1914 14.5906 14.3005C14.7012 14.4097 14.4799 14.4825 14.5906 14.5916C14.6274 14.7008 14.6274 14.81 14.5906 14.9191C14.5168 15.0283 14.5906 15.1375 14.5906 15.2466C14.4799 15.3558 14.5537 15.5013 14.5906 15.6105C14.4799 15.7197 14.4799 15.8652 14.5906 16.0108C14.5906 16.0836 14.5906 16.1563 14.5906 16.1927C14.5906 16.2291 14.5906 16.2655 14.5906 16.3019C14.5906 16.3383 14.5906 16.3383 14.6274 16.3747H14.6643C14.7012 16.3383 14.7012 16.3019 14.7381 16.3019H14.8488C14.8856 16.3019 14.9225 16.3383 14.9594 16.3383C15.1069 16.2655 15.2545 16.3019 15.402 16.3383C15.5496 16.3747 15.6971 16.2655 15.8815 16.3383C16.0291 16.3383 16.2135 16.3019 16.361 16.3383C16.5086 16.3747 16.693 16.411 16.8405 16.3383C16.9881 16.3019 17.1725 16.3019 17.3569 16.3383C17.5413 16.2291 17.6889 16.3019 17.8733 16.3383C18.0577 16.3383 18.2052 16.3747 18.3897 16.3383C18.4265 16.3383 18.4634 16.3383 18.5372 16.3383H18.5741C18.5741 16.3383 18.5741 16.3383 18.611 16.3383C18.611 16.3383 18.6479 16.3383 18.6479 16.3019V16.2655C18.6479 16.2291 18.6479 16.1927 18.611 16.1199C18.5372 15.938 18.6479 15.7925 18.611 15.6105C18.6847 15.4286 18.5741 15.283 18.611 15.1011C18.611 14.9191 18.6479 14.7736 18.611 14.5916C18.611 14.4461 18.5741 14.2641 18.611 14.1186C18.4634 13.973 18.6479 13.7911 18.611 13.6456C18.6847 13.5 18.611 13.3544 18.611 13.1725C18.611 13.0997 18.611 13.027 18.611 12.9542C18.611 12.9178 18.611 12.9178 18.611 12.8814C18.611 12.8814 18.611 12.845 18.5741 12.845C18.5741 12.8086 18.5741 12.8086 18.5741 12.8086C18.5372 12.8086 18.5372 12.8086 18.5372 12.7722C18.5372 12.845 18.3528 12.6995 18.2052 12.7722C18.0577 12.7722 17.947 12.7722 17.7995 12.7722C17.652 12.6631 17.5413 12.7358 17.3938 12.7722C17.2831 12.7722 17.1356 12.845 17.0249 12.7722C16.9143 12.7722 16.8036 12.6995 16.6561 12.7722C16.5454 12.7722 16.4348 12.6267 16.3241 12.7722C16.2135 12.8086 16.1028 12.6631 16.0291 12.7722C15.9184 12.845 15.8446 12.7722 15.734 12.7722C15.6602 12.7722 15.5496 12.7722 15.4758 12.7722C14.9225 12.6995 14.4799 12.6267 14.4799 12.5903C14.4799 12.5175 15.0332 12.4447 15.9553 12.4084C16.0291 12.4084 16.1397 12.3356 16.2504 12.4084C16.361 12.4084 16.4348 12.3356 16.5454 12.4084C16.6561 12.2992 16.7667 12.4084 16.8774 12.4084C16.988 12.4084 17.0987 12.4447 17.2094 12.4084C17.32 12.3356 17.4675 12.4447 17.5782 12.4084C17.6889 12.4811 17.8364 12.4447 17.9839 12.4084C18.1315 12.4811 18.2421 12.4084 18.3897 12.4084C18.4634 12.4447 18.5372 12.4447 18.611 12.4447C18.6479 12.4447 18.6847 12.4447 18.7585 12.4084C18.8323 12.4084 18.8692 12.372 18.9429 12.372C19.0905 12.372 19.238 12.372 19.3487 12.372C19.3487 12.5175 19.3487 12.6267 19.3487 12.7358C19.3487 12.8086 19.3487 12.8814 19.3487 12.9178V13.0633C19.3487 13.1361 19.3487 13.2089 19.3487 13.2817C19.3855 13.4272 19.4224 13.5728 19.3487 13.7547C19.3855 13.9003 19.3487 14.0822 19.3487 14.2278C19.3855 14.3733 19.3487 14.5553 19.3487 14.7008C19.3855 14.8464 19.238 15.0283 19.3487 15.2102C19.3487 15.3922 19.3487 15.5377 19.3487 15.7197C19.3487 15.9016 19.3118 16.0472 19.3487 16.2291C19.3118 16.2655 19.3118 16.3019 19.3118 16.3747V16.4838C19.3118 16.5202 19.3118 16.5566 19.3118 16.593C19.3118 16.7385 19.3487 16.9205 19.3487 17.1024C19.2011 17.1024 19.0167 17.1024 18.8692 17.1024H18.7585H18.6847H18.5003C18.3159 17.1024 18.1684 17.1024 17.9839 17.1024C17.7995 17.1388 17.652 17.066 17.4675 17.1024C17.2831 17.1388 17.1356 17.066 16.9512 17.1024C16.7667 17.1388 16.6192 17.1388 16.4717 17.1024C16.3241 17.1024 16.1397 16.9933 15.9922 17.1024C15.8446 17.1388 15.6602 17.248 15.5127 17.1024C15.3651 17.1388 15.2176 17.0296 15.0701 17.1024C15.0332 17.066 14.9963 17.066 14.9594 17.066C14.9225 17.066 14.9225 17.066 14.9225 17.066C14.9225 17.066 14.9225 17.066 14.8856 17.066C14.775 17.066 14.6274 17.1024 14.5168 17.1024C14.443 17.1024 14.3693 17.1024 14.2955 17.066C14.2955 16.8841 14.2955 16.7385 14.2955 16.593C14.2955 16.5566 14.2955 16.5202 14.2955 16.5202V16.4474C14.2955 16.4111 14.2955 16.3747 14.2955 16.3383C14.2955 16.2655 14.3324 16.1927 14.2955 16.1563C14.2217 16.0108 14.3693 15.9016 14.2955 15.7561C14.2955 15.6469 14.2955 15.5013 14.2955 15.3922C14.148 15.283 14.2955 15.1739 14.2955 15.0647C14.3324 14.9555 14.1848 14.8464 14.2955 14.7372C14.1848 14.628 14.2955 14.5189 14.2955 14.4461C14.3324 14.3369 14.2586 14.2641 14.2955 14.155C14.2217 14.0822 14.3324 13.973 14.2955 13.9003C14.3324 13.8275 14.2955 13.7547 14.2955 13.6819C14.2955 13.6092 14.2955 13.5364 14.2955 13.4636C14.2955 13.3908 14.2955 13.3181 14.2955 13.2817C14.4061 12.7722 14.443 12.5903 14.4799 12.5903Z" fill="#73523F"/>
<path d="M23.5535 12.5903C23.5904 12.5903 23.6272 12.7722 23.6641 13.1361C23.6641 13.2089 23.6641 13.2453 23.6641 13.3181C23.6641 13.3908 23.701 13.4636 23.6641 13.5364C23.6272 13.6092 23.7748 13.6819 23.6641 13.7547C23.6272 13.8275 23.6641 13.9367 23.6641 14.0094C23.6641 14.0822 23.6272 14.1914 23.6641 14.3005C23.7748 14.4097 23.5535 14.4825 23.6641 14.5916C23.701 14.7008 23.701 14.81 23.6641 14.9191C23.5904 15.0283 23.6641 15.1375 23.6641 15.2466C23.5535 15.3558 23.6272 15.5013 23.6641 15.6105C23.5535 15.7197 23.5535 15.8652 23.6641 16.0108C23.6641 16.0836 23.6641 16.1563 23.6641 16.1927C23.6641 16.2291 23.6641 16.2655 23.6641 16.3019C23.6641 16.3019 23.6641 16.3383 23.6641 16.3747C23.6641 16.4111 23.6641 16.4474 23.6641 16.4474C23.6641 16.593 23.6641 16.7749 23.701 16.9205C23.6272 16.9205 23.5166 16.9205 23.4428 16.9205C23.3322 16.9569 23.2215 16.9933 23.074 16.9933H23.0371C23.0371 16.9933 23.0371 16.9933 23.0002 16.9933H22.9633C22.9264 16.9933 22.8896 16.9569 22.8527 16.9569C22.7051 17.0296 22.5576 16.9933 22.4101 16.9569C22.2625 16.9205 22.115 17.0296 21.9306 16.9569C21.783 16.9569 21.5986 16.9933 21.4511 16.9569C21.3035 16.9205 21.1191 16.8841 20.9716 16.9569C20.824 16.9933 20.6396 16.9933 20.4552 16.9569C20.2708 17.066 20.1232 16.9933 19.9388 16.9569C19.7544 16.9569 19.6068 16.9205 19.4224 16.9569C19.3855 16.9569 19.3487 16.9569 19.2749 16.9569H19.0536C18.8692 16.9569 18.7216 16.9569 18.5741 16.9569C18.5741 16.7749 18.611 16.6294 18.611 16.4474C18.611 16.4111 18.611 16.3747 18.611 16.3383L18.611 16.2291C18.611 16.1927 18.611 16.1563 18.5741 16.0836C18.5003 15.9016 18.611 15.7561 18.5741 15.5741C18.6478 15.3922 18.5372 15.2466 18.5741 15.0647C18.5741 14.8827 18.611 14.7372 18.5741 14.5553C18.5741 14.4097 18.5372 14.2278 18.5741 14.0822C18.4265 13.9367 18.611 13.7547 18.5741 13.6092C18.6478 13.4636 18.5741 13.3181 18.5741 13.1361C18.5372 12.9906 18.6478 12.8814 18.5741 12.5903C18.5741 12.4811 18.5741 12.3356 18.5741 12.2264C18.6847 12.2264 18.8323 12.2264 18.9798 12.2628C19.0536 12.2628 19.0905 12.2264 19.1642 12.2264C19.238 12.2264 19.2749 12.2264 19.3118 12.2264C19.3855 12.2264 19.4593 12.2628 19.5331 12.2264C19.6806 12.2264 19.7913 12.2264 19.9388 12.2264C20.0863 12.3356 20.197 12.2628 20.3445 12.2264C20.4552 12.2264 20.6027 12.1536 20.7134 12.2264C20.824 12.2264 20.9347 12.2992 21.0453 12.2264C21.156 12.2264 21.2666 12.372 21.3773 12.2264C21.4879 12.19 21.5986 12.3356 21.6724 12.2264C21.783 12.1536 21.8568 12.2264 21.9674 12.2264C22.0412 12.2264 22.1519 12.2264 22.2256 12.2264C23.1109 12.4811 23.5535 12.5175 23.5535 12.5903C23.5535 12.6631 23.0371 12.7358 22.115 12.7722C22.0412 12.7722 21.9306 12.845 21.8199 12.7722C21.7093 12.7722 21.6355 12.845 21.5248 12.7722C21.4142 12.8814 21.3035 12.8086 21.1929 12.7722C21.0822 12.7722 20.9716 12.7358 20.8609 12.7722C20.7503 12.845 20.6027 12.7358 20.4921 12.7722C20.3814 12.6995 20.2339 12.7358 20.0863 12.7722C19.9388 12.6995 19.8281 12.7722 19.6806 12.7722C19.6068 12.7358 19.5331 12.7358 19.4593 12.7358C19.4224 12.7358 19.3855 12.7358 19.3855 12.7722C19.3855 12.7722 19.3855 12.8086 19.3487 12.8086H19.3118V12.845C19.3118 12.845 19.3118 12.845 19.3118 12.8814V12.9542C19.3118 13.027 19.3118 13.0997 19.3118 13.1725C19.3487 13.3181 19.3855 13.4636 19.3118 13.6456C19.3487 13.7911 19.3118 13.973 19.3118 14.1186C19.3487 14.2642 19.3118 14.4461 19.3118 14.5916C19.3487 14.7372 19.2011 14.9191 19.3118 15.1011C19.3118 15.283 19.3118 15.4286 19.3118 15.6105C19.3118 15.7925 19.2749 15.938 19.3118 16.1199C19.2749 16.1563 19.2749 16.1927 19.2749 16.2655V16.3019C19.2749 16.3383 19.3118 16.3383 19.3118 16.3019C19.3487 16.3019 19.3487 16.3019 19.3487 16.3019H19.3855H19.5331C19.7175 16.3019 19.865 16.3019 20.0495 16.3019C20.2339 16.2655 20.3814 16.3383 20.5658 16.3019C20.7503 16.2655 20.8978 16.3383 21.0822 16.3019C21.2298 16.2655 21.4142 16.2655 21.5617 16.3019C21.7093 16.3019 21.8937 16.4111 22.0412 16.3019C22.1887 16.2655 22.3363 16.1563 22.5207 16.3019C22.6682 16.2655 22.8158 16.3747 22.9633 16.3019C23.0002 16.3383 23.0371 16.3383 23.074 16.3383H23.1109C23.1109 16.3383 23.1109 16.3383 23.1477 16.3383C23.1846 16.3383 23.1846 16.3019 23.1846 16.3019C23.1846 16.3019 23.2215 16.3019 23.2584 16.3383C23.2584 16.3383 23.2953 16.3019 23.2584 16.2655C23.2584 16.2291 23.2584 16.1927 23.2584 16.1563C23.2584 16.0836 23.2953 16.0108 23.2584 15.9744C23.1846 15.8288 23.3322 15.7197 23.2584 15.5741C23.2584 15.465 23.2584 15.3194 23.2584 15.2102C23.1109 15.1011 23.2584 14.9919 23.2584 14.8827C23.2953 14.7736 23.1477 14.6644 23.2584 14.5553C23.1477 14.4461 23.2584 14.3369 23.2584 14.2641C23.2953 14.155 23.2215 14.0822 23.2584 13.973C23.1846 13.9003 23.2953 13.7911 23.2584 13.7183C23.2953 13.6456 23.2584 13.5728 23.2584 13.5C23.2584 13.4272 23.2584 13.3544 23.2584 13.2817C23.2584 13.2089 23.2584 13.1361 23.2584 13.0997C23.4797 12.7722 23.5166 12.5903 23.5535 12.5903Z" fill="#73523F"/>
<path d="M23.5535 12.5903C23.5904 12.5903 23.6272 12.7722 23.6641 13.1361C23.6641 13.2089 23.6641 13.2453 23.6641 13.3181C23.6641 13.3908 23.701 13.4636 23.6641 13.5364C23.6272 13.6092 23.7748 13.6819 23.6641 13.7547C23.6272 13.8275 23.6641 13.9367 23.6641 14.0094C23.6641 14.0822 23.6272 14.1914 23.6641 14.3005C23.7748 14.4097 23.5535 14.4825 23.6641 14.5916C23.701 14.7008 23.701 14.81 23.6641 14.9191C23.5904 15.0283 23.6641 15.1375 23.6641 15.2466C23.5535 15.3558 23.6272 15.5013 23.6641 15.6105C23.5535 15.7197 23.5535 15.8652 23.6641 16.0108C23.6641 16.0836 23.6641 16.1563 23.6641 16.1927C23.6641 16.2291 23.6641 16.2655 23.6641 16.3019C23.6641 16.3383 23.6641 16.3383 23.6641 16.3383C23.6641 16.3747 23.6641 16.3747 23.701 16.4111H23.7379C23.7748 16.3747 23.7748 16.3383 23.8117 16.3383H23.9223C23.9592 16.3383 23.9961 16.3747 24.033 16.3747C24.1805 16.3019 24.328 16.3383 24.4756 16.3747C24.6231 16.4111 24.7707 16.3019 24.9551 16.3747C25.1026 16.3747 25.287 16.3383 25.4346 16.3747C25.5821 16.4111 25.7665 16.4474 25.9141 16.3747C26.0616 16.3383 26.246 16.3383 26.4305 16.3747C26.6149 16.2655 26.7624 16.3383 26.9468 16.3747C27.1313 16.3747 27.2788 16.4111 27.4632 16.3747C27.5001 16.3747 27.537 16.3747 27.6108 16.3747H27.6476C27.6476 16.3747 27.6476 16.3747 27.6845 16.3747C27.6845 16.3747 27.7214 16.3747 27.7214 16.3383V16.3019C27.7214 16.2655 27.7214 16.2291 27.6845 16.1563C27.6108 15.9744 27.7214 15.8288 27.6845 15.6469C27.7583 15.465 27.6476 15.3194 27.6845 15.1375C27.6845 14.9555 27.7214 14.81 27.6845 14.628C27.6845 14.4825 27.6476 14.3005 27.6845 14.155C27.537 14.0094 27.7214 13.8275 27.6845 13.6819C27.7583 13.5364 27.6845 13.3908 27.6845 13.2089C27.6476 13.0633 27.7583 12.845 27.6845 12.8814C27.6845 12.845 27.6845 12.845 27.6845 12.845C27.6476 12.845 27.6476 12.845 27.6476 12.8086L27.6108 12.845C27.6108 12.845 27.5739 12.845 27.537 12.845C27.4632 12.845 27.3895 12.8086 27.3157 12.845C27.1681 12.845 27.0575 12.845 26.91 12.845C26.7624 12.7358 26.6518 12.8086 26.5042 12.845C26.3936 12.845 26.246 12.9178 26.1354 12.845C26.0247 12.845 25.9141 12.7722 25.8034 12.845C25.6928 12.845 25.5821 12.6995 25.4715 12.845C25.3608 12.8814 25.2502 12.7358 25.1764 12.845C25.0657 12.9178 24.992 12.845 24.8813 12.845C24.8075 12.845 24.6969 12.845 24.6231 12.845C23.9961 12.6995 23.5535 12.6267 23.5535 12.5903C23.5535 12.5175 24.1067 12.4447 25.0289 12.4084C25.1026 12.4084 25.2133 12.3356 25.3239 12.4084C25.4346 12.4084 25.5084 12.3356 25.619 12.4084C25.7297 12.2992 25.8403 12.4084 25.951 12.4084C26.0616 12.4084 26.1723 12.4447 26.2829 12.4084C26.3936 12.3356 26.5411 12.4447 26.6518 12.4084C26.7624 12.4811 26.91 12.4447 27.0575 12.4084C27.205 12.4811 27.3157 12.4084 27.4632 12.4084C27.537 12.4447 27.6108 12.4447 27.6845 12.4447C27.7214 12.4447 27.7583 12.4447 27.8321 12.4084C27.9058 12.4084 27.9427 12.372 28.0165 12.372C28.164 12.372 28.2747 12.372 28.4222 12.372C28.4222 12.5175 28.4222 12.6267 28.4222 12.7358C28.4222 12.8086 28.4222 12.8814 28.4222 12.9178V13.0633C28.4222 13.1361 28.4222 13.2089 28.4222 13.2817C28.4591 13.4272 28.496 13.5728 28.4222 13.7547C28.4591 13.9003 28.4222 14.0822 28.4222 14.2278C28.4591 14.3733 28.4222 14.5553 28.4222 14.7008C28.4591 14.8464 28.3116 15.0283 28.4222 15.2102C28.4222 15.3922 28.4222 15.5377 28.4222 15.7197C28.4222 15.9016 28.3853 16.0472 28.4222 16.2291C28.3853 16.2655 28.3853 16.3019 28.3853 16.3747V16.4838C28.3853 16.5202 28.3853 16.5566 28.3853 16.593C28.3853 16.7385 28.4222 16.9205 28.4222 17.1024C28.2747 17.1024 28.0903 17.1024 27.9427 17.1024H27.5739C27.3895 17.1024 27.2419 17.1024 27.0575 17.1024C26.8731 17.1388 26.7255 17.066 26.5411 17.1024C26.3567 17.1388 26.2092 17.066 26.0247 17.1024C25.8772 17.1388 25.6928 17.1388 25.5452 17.1024C25.3977 17.1024 25.2133 16.9933 25.0657 17.1024C24.9182 17.1388 24.7707 17.248 24.5862 17.1024C24.4387 17.1388 24.2912 17.0296 24.1436 17.1024C24.1067 17.066 24.0699 17.066 24.033 17.066H23.9961C23.9961 17.066 23.9961 17.066 23.9592 17.066C23.8486 17.066 23.701 17.1024 23.5904 17.1024C23.5166 17.1024 23.4428 17.1024 23.3691 17.066C23.3691 16.8841 23.4059 16.7385 23.3691 16.593C23.3691 16.5566 23.3691 16.5202 23.3691 16.5202V16.4474C23.3691 16.4111 23.3691 16.3747 23.3691 16.3383C23.3691 16.2655 23.4059 16.1927 23.3691 16.1563C23.2953 16.0108 23.4428 15.9016 23.3691 15.7561C23.3691 15.6469 23.3691 15.5013 23.3691 15.3922C23.2215 15.283 23.3691 15.1739 23.3691 15.0647C23.4059 14.9555 23.2584 14.8464 23.3691 14.7372C23.2584 14.628 23.3691 14.5189 23.3691 14.4461C23.4059 14.3369 23.3322 14.2641 23.3691 14.155C23.2953 14.0822 23.4059 13.973 23.3691 13.9003C23.4059 13.8275 23.3691 13.7547 23.3691 13.6819C23.3691 13.6092 23.3691 13.5364 23.3691 13.4636C23.3691 13.3908 23.3691 13.3181 23.3691 13.2817C23.4797 12.7722 23.5166 12.5903 23.5535 12.5903Z" fill="#73523F"/>
<path d="M14.4799 20.814C14.443 20.814 14.4061 20.6321 14.3693 20.2682C14.3693 20.1954 14.3693 20.159 14.3693 20.0863C14.3693 20.0135 14.3324 19.9407 14.3693 19.8679C14.4061 19.7951 14.2586 19.7224 14.3693 19.6132C14.4061 19.5404 14.3693 19.4313 14.3693 19.3585C14.3693 19.2857 14.4061 19.1765 14.3693 19.0674C14.2586 18.9582 14.4799 18.8854 14.3693 18.7763C14.3324 18.6671 14.3324 18.558 14.3693 18.4488C14.443 18.3396 14.3693 18.2305 14.3693 18.1213C14.4799 18.0121 14.4061 17.8666 14.3693 17.7574C14.4799 17.6482 14.4799 17.5027 14.3693 17.3571C14.3693 17.2844 14.3693 17.2116 14.3693 17.1752C14.3693 17.1388 14.3693 17.1024 14.3693 17.066V16.9933C14.3693 16.9569 14.3693 16.9205 14.3693 16.9205C14.3693 16.7749 14.3693 16.593 14.3324 16.4474C14.4061 16.4474 14.5168 16.4474 14.5906 16.4474C14.7012 16.4111 14.8119 16.3747 14.9594 16.3747H15.0701C15.1069 16.3747 15.1438 16.4111 15.1807 16.4111C15.3283 16.3383 15.4758 16.3747 15.6233 16.4111C15.7709 16.4474 15.9184 16.3383 16.1028 16.4111C16.2504 16.4111 16.4348 16.3747 16.5823 16.4111C16.7299 16.4474 16.9143 16.4838 17.0618 16.4111C17.2094 16.3747 17.3938 16.3747 17.5782 16.4111C17.7626 16.3019 17.9102 16.3747 18.0946 16.4111C18.279 16.4111 18.4265 16.4474 18.611 16.4111C18.6478 16.4111 18.6847 16.4111 18.7585 16.4111H18.9798C19.1642 16.4111 19.3118 16.4111 19.4593 16.4111C19.4593 16.593 19.4224 16.7385 19.4224 16.9205C19.4224 16.9569 19.4224 16.9933 19.4224 17.0296V17.1388C19.4224 17.1752 19.4224 17.2116 19.4593 17.2844C19.5331 17.4663 19.4224 17.6119 19.4593 17.7938C19.3855 17.9757 19.4962 18.1213 19.4593 18.3032C19.4593 18.4852 19.4224 18.6307 19.4593 18.8127C19.4593 18.9582 19.4962 19.1402 19.4593 19.2857C19.6068 19.4313 19.4224 19.6132 19.4593 19.7588C19.3855 19.9043 19.4593 20.0499 19.4593 20.2318C19.4593 20.3046 19.4593 20.3774 19.4593 20.4501C19.4593 20.4865 19.4593 20.4865 19.4593 20.5229V20.5593V20.5957C19.4593 20.6685 19.4593 20.7049 19.4962 20.7776C19.4962 20.8868 19.4962 21.0323 19.4962 21.1415C19.3855 21.1415 19.238 21.1415 19.0905 21.1051C18.7954 21.1779 18.7216 21.0323 18.5741 21.1051C18.4265 21.1051 18.3159 21.1051 18.1684 21.1051C18.0208 20.996 17.9102 21.0687 17.7626 21.1051C17.652 21.1051 17.5044 21.1779 17.3938 21.1051C17.2831 21.1051 17.1725 21.0323 17.0249 21.1051C16.9143 21.1051 16.8036 20.9596 16.693 21.1051C16.5823 21.1415 16.4717 20.996 16.3979 21.1051C16.2872 21.1779 16.2135 21.1051 16.1028 21.1051C16.0291 21.1051 15.9184 21.1051 15.8446 21.1051C14.9225 20.9232 14.4799 20.8504 14.4799 20.814C14.4799 20.7412 14.9963 20.6685 15.9184 20.6321C15.9922 20.6321 16.1028 20.5593 16.2135 20.6321C16.3241 20.6321 16.3979 20.5593 16.5086 20.6321C16.6192 20.5229 16.7299 20.5957 16.8405 20.6321C16.9512 20.6321 17.0618 20.6685 17.2094 20.6321C17.32 20.5593 17.4675 20.6685 17.5782 20.6321C17.6889 20.7049 17.8364 20.6685 17.9839 20.6321C18.1315 20.7049 18.2421 20.6321 18.3897 20.6321C18.4634 20.6685 18.5372 20.6685 18.611 20.6685C18.6478 20.6685 18.6847 20.6685 18.6847 20.6321C18.6847 20.6321 18.6847 20.5957 18.7216 20.5957H18.7585V20.5593C18.7585 20.5593 18.7585 20.5593 18.7585 20.5229V20.4501C18.7585 20.3774 18.7585 20.3046 18.7585 20.2318C18.7216 20.0863 18.6847 19.9407 18.7585 19.7588C18.7216 19.6132 18.7585 19.4313 18.7585 19.2857C18.7216 19.1402 18.7585 18.9582 18.7585 18.8127C18.7216 18.6671 18.8692 18.4852 18.7585 18.3032C18.7585 18.1213 18.7585 17.9757 18.7585 17.7938C18.7585 17.6119 18.7954 17.4663 18.7585 17.2844C18.7954 17.248 18.7954 17.2116 18.7954 17.1388V17.1024C18.7954 17.066 18.7585 17.066 18.7585 17.1024C18.7216 17.1024 18.7216 17.1024 18.7216 17.1024H18.6847H18.5372C18.3528 17.1024 18.2052 17.1024 18.0208 17.1024C17.8364 17.1388 17.6889 17.066 17.5044 17.1024C17.32 17.1388 17.1725 17.066 16.9881 17.1024C16.8036 17.1388 16.6561 17.1388 16.5086 17.1024C16.361 17.1024 16.1766 16.9933 16.0291 17.1024C15.8815 17.1388 15.6971 17.248 15.5496 17.1024C15.402 17.1388 15.2545 17.0296 15.1069 17.1024C15.0701 17.066 15.0332 17.066 14.9963 17.066C14.9594 17.066 14.9594 17.066 14.9594 17.066C14.9594 17.066 14.9594 17.066 14.9225 17.066C14.8856 17.066 14.8856 17.1024 14.8856 17.1024C14.8856 17.1024 14.8488 17.1024 14.8488 17.066C14.8488 17.066 14.8488 17.1024 14.8488 17.1388C14.8488 17.1752 14.8488 17.2116 14.8488 17.248C14.8488 17.3208 14.8119 17.3935 14.8488 17.4299C14.9225 17.5755 14.775 17.6846 14.8488 17.8302C14.8488 17.9394 14.8488 18.0849 14.8488 18.1941C14.9963 18.3032 14.8488 18.4124 14.8488 18.5216C14.8119 18.6307 14.9594 18.7399 14.8488 18.8491C14.9594 18.9582 14.8488 19.0674 14.8488 19.1402C14.8119 19.2493 14.8856 19.3221 14.8488 19.4313C14.9225 19.504 14.8119 19.6132 14.8488 19.686C14.8119 19.7588 14.8488 19.8315 14.8488 19.9407C14.8488 20.0135 14.8488 20.0863 14.8488 20.159C14.8488 20.2318 14.8488 20.3046 14.8488 20.341C14.5537 20.5957 14.5168 20.814 14.4799 20.814Z" fill="#73523F"/>
<path d="M23.5535 20.814C23.5166 20.814 23.4797 20.6321 23.4428 20.2682C23.4428 20.1954 23.4428 20.159 23.4428 20.0863C23.4428 20.0135 23.4059 19.9407 23.4428 19.8679C23.4797 19.7951 23.3322 19.7224 23.4428 19.6132C23.4797 19.5404 23.4428 19.4313 23.4428 19.3585C23.4428 19.2857 23.4797 19.1765 23.4428 19.0674C23.3322 18.9582 23.5535 18.8854 23.4428 18.7763C23.4059 18.6671 23.4059 18.558 23.4428 18.4488C23.5166 18.3396 23.4428 18.2305 23.4428 18.1213C23.5535 18.0121 23.4797 17.8666 23.4428 17.7574C23.5535 17.6482 23.5535 17.5027 23.4428 17.3571C23.4428 17.2844 23.4428 17.2116 23.4428 17.1752C23.4428 17.1388 23.4428 17.1024 23.4428 17.066C23.4428 17.0296 23.4428 17.0296 23.4428 17.0296C23.4428 16.9933 23.4428 16.9933 23.4059 16.9569H23.3691C23.3322 16.9933 23.3322 17.0296 23.2953 17.0296H23.2584C23.2584 17.0296 23.2584 17.0296 23.2215 17.0296H23.1846C23.1477 17.0296 23.1109 16.9933 23.074 16.9933C22.9264 17.066 22.7789 17.0296 22.6314 16.9933C22.4838 16.9569 22.3363 17.066 22.1519 16.9933C22.0043 16.9933 21.8199 17.0296 21.6724 16.9933C21.5248 16.9569 21.3404 16.9205 21.1929 16.9933C21.0453 17.0296 20.8609 17.0296 20.6765 16.9933C20.4921 17.1024 20.3445 17.0296 20.1601 16.9933C19.9757 16.9933 19.8281 16.9569 19.6437 16.9933C19.6068 16.9933 19.57 16.9933 19.4962 16.9933H19.4593C19.4593 16.9933 19.4593 16.9933 19.4224 16.9933C19.4224 16.9933 19.3855 16.9933 19.3855 17.0296V17.066C19.3855 17.1024 19.3855 17.1388 19.4224 17.2116C19.4962 17.3935 19.3855 17.5391 19.4224 17.721C19.3487 17.903 19.4593 18.0485 19.4224 18.2305C19.4224 18.4124 19.3855 18.558 19.4224 18.7399C19.4224 18.8854 19.4593 19.0674 19.4224 19.2129C19.57 19.3585 19.3855 19.5404 19.4224 19.686C19.3487 19.8315 19.4224 19.9771 19.4224 20.159C19.4593 20.3046 19.3487 20.5229 19.4224 20.4865C19.4224 20.5229 19.4224 20.5229 19.4224 20.5229C19.4593 20.5229 19.4593 20.5229 19.4593 20.5593L19.4962 20.5229C19.4962 20.5229 19.5331 20.5229 19.57 20.5229C19.6437 20.5229 19.7175 20.5593 19.7913 20.5229C19.9388 20.5229 20.0495 20.5229 20.197 20.5229C20.3445 20.6321 20.4552 20.5229 20.6027 20.5229C20.7134 20.5229 20.8609 20.4501 20.9716 20.5229C21.0822 20.5229 21.1929 20.5957 21.3035 20.5229C21.4142 20.5229 21.5248 20.6685 21.6355 20.5229C21.7461 20.4865 21.8568 20.6321 21.9306 20.5229C22.0412 20.4501 22.115 20.5229 22.2256 20.5229C22.2994 20.5229 22.4101 20.5229 22.4838 20.5229C23.1109 20.7049 23.5535 20.7412 23.5535 20.814C23.5535 20.8868 23.0002 20.9596 22.0781 20.996C22.0043 20.996 21.8937 21.0687 21.783 20.996C21.6724 20.996 21.5986 21.0687 21.4879 20.996C21.3773 21.1051 21.2666 21.0323 21.156 20.996C21.0453 20.996 20.9347 20.9596 20.824 20.996C20.7134 21.0687 20.5658 20.9596 20.4552 20.996C20.3445 20.9232 20.197 20.9596 20.0495 20.996C19.9019 20.9232 19.7913 20.996 19.6437 20.996C19.57 20.9596 19.4962 20.9596 19.4224 20.9596C19.3855 20.9596 19.3487 20.9596 19.3118 20.996C19.238 20.996 19.2011 21.0323 19.1273 21.0323C18.9798 21.0323 18.8692 21.0323 18.7216 21.0323C18.7216 20.8868 18.7216 20.7776 18.7216 20.6685C18.7216 20.5957 18.7216 20.5229 18.7216 20.4865V20.341C18.7216 20.2682 18.7216 20.1954 18.7216 20.1226C18.6847 19.9771 18.6478 19.8315 18.7216 19.6496C18.6847 19.504 18.7216 19.3221 18.7216 19.1765C18.6847 19.031 18.7216 18.8491 18.7216 18.7035C18.6847 18.558 18.8323 18.376 18.7216 18.1941C18.7216 18.0121 18.7216 17.8666 18.7216 17.6846C18.7216 17.5027 18.7585 17.3571 18.7216 17.1752C18.7585 17.1388 18.7585 17.1024 18.7585 17.0296V16.9205C18.7585 16.8841 18.7585 16.8477 18.7585 16.8113C18.7585 16.6658 18.7216 16.4838 18.7216 16.3019C18.8692 16.3019 19.0536 16.3019 19.2011 16.3019H19.3118H19.3855H19.57C19.7544 16.3019 19.9019 16.3019 20.0863 16.3019C20.2708 16.2655 20.4183 16.3383 20.6027 16.3019C20.7871 16.2655 20.9347 16.3383 21.1191 16.3019C21.2666 16.2655 21.4511 16.2655 21.5986 16.3019C21.7461 16.3019 21.9306 16.4111 22.0781 16.3019C22.2256 16.2655 22.3732 16.1563 22.5576 16.3019C22.7051 16.2655 22.8527 16.3747 23.0002 16.3019C23.0371 16.3383 23.074 16.3383 23.1109 16.3383H23.1477C23.1477 16.3383 23.1477 16.3383 23.1846 16.3383C23.2953 16.3383 23.4428 16.3019 23.5535 16.3019C23.6272 16.3019 23.701 16.3019 23.7748 16.3383C23.7748 16.5202 23.7379 16.6658 23.7748 16.8113C23.7748 16.8477 23.7748 16.8841 23.7748 16.8841V16.9569C23.7748 16.9933 23.7748 17.0296 23.7748 17.066C23.7748 17.1388 23.7379 17.2116 23.7748 17.248C23.8485 17.3935 23.701 17.5027 23.7748 17.6482C23.7748 17.7574 23.7748 17.903 23.7748 18.0121C23.9223 18.1213 23.7748 18.2305 23.7748 18.3396C23.7379 18.4488 23.8854 18.558 23.7748 18.6671C23.8854 18.7763 23.7748 18.8854 23.7748 18.9582C23.7379 19.0674 23.8117 19.1402 23.7748 19.2493C23.8485 19.3221 23.7379 19.4313 23.7748 19.504C23.7379 19.5768 23.7748 19.6496 23.7748 19.7588C23.7748 19.8315 23.7748 19.9043 23.7748 19.9771C23.7748 20.0499 23.7748 20.1226 23.7748 20.159C23.6272 20.5957 23.5904 20.814 23.5535 20.814Z" fill="#73523F"/>
<path d="M14.4799 20.814C14.5168 20.814 14.5537 20.996 14.5906 21.3598C14.5906 21.4326 14.5906 21.469 14.5906 21.5418C14.5906 21.6146 14.6274 21.6873 14.5906 21.7601C14.5537 21.8329 14.7012 21.9057 14.5906 21.9784C14.5537 22.0512 14.5906 22.1604 14.5906 22.2332C14.5906 22.3059 14.5537 22.4151 14.5906 22.5243C14.7012 22.6334 14.4799 22.7062 14.5906 22.8154C14.6274 22.9245 14.6274 23.0337 14.5906 23.1429C14.5168 23.252 14.5906 23.3612 14.5906 23.4704C14.4799 23.5795 14.5537 23.7251 14.5906 23.8342C14.4799 23.9434 14.4799 24.0889 14.5906 24.2345C14.5906 24.3073 14.5906 24.3801 14.5906 24.4164C14.5906 24.4528 14.5906 24.4892 14.5906 24.5256C14.5906 24.562 14.5906 24.562 14.6274 24.5984H14.6643C14.7012 24.562 14.7012 24.5256 14.7381 24.5256H14.8488C14.8856 24.5256 14.9225 24.562 14.9594 24.562C15.1069 24.4892 15.2545 24.5256 15.402 24.562C15.5496 24.5984 15.6971 24.4892 15.8815 24.562C16.0291 24.562 16.2135 24.5256 16.361 24.562C16.5086 24.5984 16.693 24.6348 16.8405 24.562C16.9881 24.5256 17.1725 24.5256 17.3569 24.562C17.5413 24.4528 17.6889 24.5256 17.8733 24.562C18.0577 24.562 18.2052 24.5984 18.3897 24.562C18.4265 24.562 18.4634 24.562 18.5372 24.562H18.5741C18.5741 24.562 18.5741 24.562 18.611 24.562C18.611 24.562 18.6479 24.562 18.6479 24.5256V24.4892C18.6479 24.4528 18.6479 24.4164 18.611 24.3437C18.5372 24.1617 18.6479 24.0162 18.611 23.8342C18.6847 23.6523 18.5741 23.5067 18.611 23.3248C18.611 23.1429 18.6479 22.9973 18.611 22.8154C18.611 22.6698 18.5741 22.4879 18.611 22.3423C18.4634 22.1968 18.6479 22.0148 18.611 21.8693C18.6847 21.7237 18.611 21.5782 18.611 21.3962C18.611 21.3235 18.611 21.2507 18.611 21.1779C18.611 21.1415 18.611 21.1415 18.611 21.1051C18.611 21.1051 18.611 21.0687 18.5741 21.0687C18.5741 21.0323 18.5741 21.0323 18.5741 21.0323C18.5372 21.0323 18.5372 21.0323 18.5372 20.996C18.5372 21.0687 18.3528 20.9232 18.2052 20.996C18.0577 20.996 17.947 20.996 17.7995 20.996C17.652 20.8868 17.5413 20.9596 17.3938 20.996C17.2831 20.996 17.1356 21.0687 17.0249 20.996C16.9143 20.996 16.8036 20.9232 16.6561 20.996C16.5454 20.996 16.4348 20.8504 16.3241 20.996C16.2135 21.0323 16.1028 20.8868 16.0291 20.996C15.9184 21.0687 15.8446 20.996 15.734 20.996C15.6602 20.996 15.5496 20.996 15.4758 20.996C14.9225 20.9232 14.4799 20.8504 14.4799 20.814C14.4799 20.7412 15.0332 20.6685 15.9553 20.6321C16.0291 20.6321 16.1397 20.5593 16.2504 20.6321C16.361 20.6321 16.4348 20.5593 16.5454 20.6321C16.6561 20.5229 16.7667 20.5957 16.8774 20.6321C16.988 20.6321 17.0987 20.6685 17.2462 20.6321C17.3569 20.5593 17.5044 20.6685 17.6151 20.6321C17.7257 20.7049 17.8733 20.6685 18.0208 20.6321C18.1684 20.7049 18.279 20.6321 18.4265 20.6321C18.5003 20.6685 18.5741 20.6685 18.6479 20.6685C18.6847 20.6685 18.7216 20.6685 18.7954 20.6321C18.8692 20.6321 18.906 20.5957 18.9798 20.5957C19.1273 20.5957 19.2749 20.5957 19.3855 20.5957C19.3855 20.7412 19.3855 20.8504 19.3855 20.9596C19.3855 21.0323 19.3855 21.1051 19.3855 21.1415V21.2871C19.3855 21.3598 19.3855 21.4326 19.3855 21.5054C19.4224 21.6509 19.4593 21.7965 19.3855 21.9784C19.4224 22.124 19.3855 22.3059 19.3855 22.4515C19.4224 22.597 19.3855 22.779 19.3855 22.9245C19.4224 23.0701 19.2749 23.252 19.3855 23.434C19.3855 23.6159 19.3855 23.7615 19.3855 23.9434C19.3855 24.1253 19.3487 24.2709 19.3855 24.4528C19.3487 24.4892 19.3487 24.5256 19.3487 24.5984V24.7075C19.3487 24.7439 19.3487 24.7803 19.3487 24.8167C19.3487 24.9623 19.3855 25.1442 19.3855 25.3261C19.238 25.3261 19.0536 25.3261 18.906 25.3261H18.5372C18.3528 25.3261 18.2052 25.3261 18.0208 25.3261C17.8364 25.3625 17.6889 25.2898 17.5044 25.3261C17.32 25.3625 17.1725 25.2898 16.9881 25.3261C16.8036 25.3625 16.6561 25.3625 16.5086 25.3261C16.361 25.3261 16.1766 25.217 16.0291 25.3261C15.8815 25.3625 15.6971 25.4717 15.5496 25.3261C15.402 25.3625 15.2545 25.2534 15.1069 25.3261C15.0332 25.1806 14.9963 25.1442 14.9594 25.1442C14.9225 25.1442 14.9225 25.1442 14.9225 25.1442C14.9225 25.1442 14.9225 25.1442 14.8856 25.1442C14.775 25.1442 14.6274 25.1806 14.5168 25.1806C14.443 25.1806 14.3693 25.1806 14.2955 25.1442C14.2955 24.9623 14.2955 24.8167 14.2955 24.6712C14.2955 24.6348 14.2955 24.5984 14.2955 24.5984V24.5256C14.2955 24.4892 14.2955 24.4528 14.2955 24.4164C14.2955 24.3437 14.3324 24.2709 14.2955 24.2345C14.2217 24.0889 14.3693 23.9798 14.2955 23.8342C14.2955 23.7251 14.2955 23.5795 14.2955 23.4704C14.148 23.3612 14.2955 23.252 14.2955 23.1429C14.3324 23.0337 14.1848 22.9245 14.2955 22.8154C14.1848 22.7062 14.2955 22.597 14.2955 22.5243C14.3324 22.4151 14.2586 22.3423 14.2955 22.2332C14.2217 22.1604 14.3324 22.0512 14.2955 21.9784C14.3324 21.9057 14.2955 21.8329 14.2955 21.7601C14.2955 21.6873 14.2955 21.6146 14.2955 21.5418C14.2955 21.469 14.2955 21.3962 14.2955 21.3598C14.4061 20.996 14.443 20.814 14.4799 20.814Z" fill="#73523F"/>
<path d="M23.5535 20.814C23.5904 20.814 23.6272 20.996 23.6641 21.3598C23.6641 21.4326 23.6641 21.469 23.6641 21.5418C23.6641 21.6146 23.701 21.6873 23.6641 21.7601C23.6272 21.8329 23.7748 21.9057 23.6641 22.0148C23.6272 22.0876 23.6641 22.1968 23.6641 22.2695C23.6641 22.3423 23.6272 22.4515 23.6641 22.5606C23.7748 22.6698 23.5535 22.7426 23.6641 22.8518C23.701 22.9609 23.701 23.0701 23.6641 23.1792C23.5904 23.2884 23.6641 23.3976 23.6641 23.5067C23.5535 23.6159 23.6272 23.7615 23.6641 23.8706C23.5535 23.9798 23.5535 24.1253 23.6641 24.2709C23.6641 24.3437 23.6641 24.4164 23.6641 24.4528C23.6641 24.4892 23.6641 24.5256 23.6641 24.562C23.6641 24.562 23.6641 24.5984 23.6641 24.6348C23.6641 24.6712 23.6641 24.7075 23.6641 24.7075C23.6641 24.8531 23.6641 25.035 23.701 25.1806C23.6272 25.1806 23.5166 25.1806 23.4428 25.1806C23.3322 25.217 23.2215 25.2534 23.074 25.2534H23.0371C23.0371 25.2534 23.0371 25.2534 23.0002 25.2534H22.9633C22.9264 25.2534 22.8896 25.217 22.8527 25.217C22.7051 25.2898 22.5576 25.2534 22.4101 25.217C22.2625 25.1806 22.115 25.2898 21.9306 25.217C21.783 25.217 21.5986 25.2534 21.4511 25.217C21.3035 25.1806 21.1191 25.1442 20.9716 25.217C20.824 25.2534 20.6396 25.2534 20.4552 25.217C20.2708 25.3261 20.1232 25.2534 19.9388 25.217C19.7544 25.217 19.6068 25.1806 19.4224 25.217C19.3855 25.217 19.3487 25.217 19.2749 25.217H19.0536C18.8692 25.217 18.7216 25.217 18.5741 25.217C18.5741 25.035 18.611 24.8895 18.611 24.7075C18.611 24.6712 18.611 24.6348 18.611 24.5984V24.4892C18.611 24.4528 18.611 24.4164 18.5741 24.3437C18.5003 24.1617 18.611 24.0162 18.5741 23.8342C18.6478 23.6523 18.5372 23.5067 18.5741 23.3248C18.5741 23.1429 18.611 22.9973 18.5741 22.8154C18.5741 22.6698 18.5372 22.4879 18.5741 22.3423C18.4265 22.1968 18.611 22.0148 18.5741 21.8693C18.6478 21.7237 18.5741 21.5782 18.5741 21.3962C18.5372 21.2507 18.6478 21.1415 18.5741 20.8504C18.5741 20.7412 18.5741 20.5957 18.5741 20.4865C18.6847 20.4865 18.8323 20.4865 18.9798 20.5229C19.0536 20.5229 19.0905 20.4865 19.1642 20.4865C19.238 20.4865 19.2749 20.4865 19.3118 20.4865C19.3855 20.4865 19.4593 20.5229 19.5331 20.4865C19.6806 20.4865 19.7913 20.4865 19.9388 20.4865C20.0863 20.5957 20.197 20.4865 20.3445 20.4865C20.4552 20.4865 20.6027 20.4137 20.7134 20.4865C20.824 20.4865 20.9347 20.5593 21.0453 20.4865C21.156 20.4865 21.2666 20.6321 21.3773 20.4865C21.4879 20.4501 21.5986 20.5957 21.6724 20.4865C21.783 20.4137 21.8568 20.4865 21.9674 20.4865C22.0412 20.4865 22.1519 20.4865 22.2256 20.4865C23.1109 20.7049 23.5535 20.7412 23.5535 20.814C23.5535 20.8868 23.0371 20.9596 22.115 20.996C22.0412 20.996 21.9306 21.0687 21.8199 20.996C21.7093 20.996 21.6355 21.0687 21.5248 20.996C21.4142 21.1051 21.3035 21.0323 21.1929 20.996C21.0822 20.996 20.9716 20.9596 20.8609 20.996C20.7503 21.0687 20.6027 20.9596 20.4921 20.996C20.3814 20.9232 20.2339 20.9596 20.0863 20.996C19.9388 20.9232 19.8281 20.996 19.6806 20.996C19.6068 20.9596 19.5331 20.9596 19.4593 20.9596C19.4224 20.9596 19.3855 20.9596 19.3855 20.996C19.3855 20.996 19.3855 21.0323 19.3487 21.0323H19.3118V21.0687C19.3118 21.0687 19.3118 21.0687 19.3118 21.1051V21.1779C19.3118 21.2507 19.3118 21.3235 19.3118 21.3962C19.3487 21.5418 19.3855 21.6873 19.3118 21.8693C19.3487 22.0148 19.3118 22.1968 19.3118 22.3423C19.3487 22.4879 19.3118 22.6698 19.3118 22.8154C19.3487 22.9609 19.2011 23.1429 19.3118 23.3248C19.3118 23.5067 19.3118 23.6523 19.3118 23.8342C19.3118 24.0162 19.2749 24.1617 19.3118 24.3437C19.2749 24.3801 19.2749 24.4164 19.2749 24.4892V24.5256C19.2749 24.562 19.3118 24.562 19.3118 24.5256C19.3487 24.5256 19.3487 24.5256 19.3487 24.5256H19.5331C19.7175 24.5256 19.865 24.5256 20.0495 24.5256C20.2339 24.4892 20.3814 24.562 20.5658 24.5256C20.7503 24.4892 20.8978 24.562 21.0822 24.5256C21.2298 24.4892 21.4142 24.4892 21.5617 24.5256C21.7093 24.5256 21.8937 24.6348 22.0412 24.5256C22.1887 24.4892 22.3363 24.3801 22.5207 24.5256C22.6682 24.4892 22.8158 24.5984 22.9633 24.5256C23.0002 24.562 23.0371 24.562 23.074 24.562H23.1109C23.1109 24.562 23.1109 24.562 23.1477 24.562C23.1846 24.562 23.1846 24.5256 23.1846 24.5256C23.1846 24.5256 23.2215 24.5256 23.2584 24.562C23.2584 24.562 23.2953 24.5256 23.2584 24.4892C23.2584 24.4528 23.2584 24.4164 23.2584 24.3801C23.2584 24.3073 23.2953 24.2345 23.2584 24.1981C23.1846 24.0526 23.3322 23.9434 23.2584 23.7978C23.2584 23.6887 23.2584 23.5431 23.2584 23.434C23.1109 23.3248 23.2584 23.2156 23.2584 23.1065C23.2953 22.9973 23.1477 22.8881 23.2584 22.779C23.1477 22.6698 23.2584 22.5606 23.2584 22.4879C23.2953 22.3787 23.2215 22.3059 23.2584 22.1968C23.1846 22.124 23.2953 22.0148 23.2584 21.942C23.2953 21.8693 23.2584 21.7965 23.2584 21.6873C23.2584 21.6146 23.2584 21.5418 23.2584 21.469C23.2584 21.3962 23.2584 21.3235 23.2584 21.2871C23.4797 20.996 23.5166 20.814 23.5535 20.814Z" fill="#73523F"/>
<path d="M28.0903 20.814C28.0534 20.814 28.0165 20.5229 27.9796 20.0135C27.9796 19.9407 27.9796 19.8315 27.9796 19.7224C27.9796 19.6132 27.9427 19.504 27.9796 19.3949C28.0165 19.2857 27.8689 19.1765 27.9796 19.031C28.0165 18.9218 27.9796 18.7763 27.9796 18.6307C27.9796 18.4852 28.0165 18.3396 27.9796 18.2305C27.8689 18.0849 28.0903 17.9394 27.9796 17.7938C27.9427 17.6482 27.9427 17.4663 27.9796 17.3208C28.0165 17.248 28.0165 17.1388 28.0165 17.066V16.9933C28.0165 16.9933 28.0165 16.9569 27.9796 16.9569C28.0165 16.9205 28.0165 16.8841 28.0165 16.8477C27.9796 16.8477 27.9427 16.8477 27.9058 16.8477C27.8689 16.8477 27.8689 16.8477 27.8321 16.8841C27.8321 16.8841 27.8321 16.8841 27.7952 16.8841C27.7952 16.8841 27.7952 16.8841 27.7583 16.8841H27.7214C27.537 16.7749 27.3526 16.7749 27.1313 16.8841C26.9468 16.8841 26.7255 16.8477 26.5411 16.8841C26.3198 16.8841 26.1354 16.9205 25.9141 16.8841C25.6928 16.9569 25.4715 16.9569 25.2502 16.8841C25.0288 16.9569 24.8075 16.9205 24.5862 16.8841C24.4756 16.8477 24.3649 16.8841 24.2543 16.8841C24.1805 16.8841 24.1436 16.8841 24.0699 16.8841C24.033 16.8841 23.9961 16.8841 23.9961 16.8841H23.9592C23.9223 16.8841 23.9223 16.8841 23.8854 16.8841V16.9205C23.8485 17.1388 23.8117 17.3935 23.8854 17.6482C23.9223 17.903 23.9223 18.1213 23.8854 18.376C23.9961 18.6307 23.9223 18.8854 23.8854 19.1402C23.8854 19.3949 23.8485 19.6496 23.8854 19.9043C23.8854 20.159 23.9223 20.4137 23.8854 20.6685C23.8485 20.9232 23.8117 21.1779 23.8854 21.4326C23.9592 21.6873 23.8485 21.942 23.8854 22.1968C23.8117 22.4515 23.9223 22.7062 23.8854 22.9609C23.8854 23.2156 23.8485 23.434 23.8854 23.6887C23.8854 23.9434 23.9223 24.1617 23.8854 24.4164C23.8854 24.4164 23.8854 24.4164 23.8485 24.4528V24.4892C23.8485 24.4892 23.8485 24.4892 23.8854 24.4892H23.9223C23.9592 24.4892 23.9961 24.4892 23.9961 24.4892C24.0699 24.4892 24.1067 24.4892 24.1805 24.4892C24.2912 24.4892 24.4018 24.4528 24.5125 24.4892C24.7338 24.4528 24.9551 24.562 25.1764 24.4892C25.3977 24.4892 25.619 24.4528 25.8403 24.4892C26.0616 24.4164 26.246 24.562 26.4673 24.4892C26.6886 24.4892 26.8731 24.4892 27.0575 24.4892C27.2419 24.5984 27.4263 24.5256 27.6476 24.4892H27.7583C27.7952 24.4892 27.7952 24.4892 27.8321 24.4892C27.8321 24.4892 27.8321 24.4892 27.8689 24.4528V24.3437C27.8689 24.2709 27.8689 24.1617 27.8689 24.0889C27.8689 23.907 28.0165 23.7615 27.8689 23.6159C27.8321 23.4704 27.9796 23.3248 27.8689 23.1792C27.7952 23.0337 27.8689 22.8881 27.8689 22.779C27.8689 22.6334 27.8689 22.5243 27.8689 22.3787C27.9796 21.4326 28.0165 20.814 28.0903 20.814C28.164 20.814 28.2009 21.5782 28.2747 22.9245C28.2747 23.0701 28.3484 23.2156 28.2747 23.3248C28.2747 23.4704 28.3484 23.6159 28.2747 23.7615C28.3853 23.907 28.3116 24.0889 28.2747 24.2345C28.2747 24.3073 28.2747 24.4164 28.2747 24.4892V24.562C28.2747 24.5984 28.2747 24.6348 28.2747 24.6712C28.2747 24.7439 28.2747 24.8167 28.2747 24.8895C28.2747 24.9623 28.3116 25.035 28.3116 25.1442C28.2009 25.1442 28.0903 25.1442 27.9427 25.1442C27.8689 25.1442 27.8321 25.1442 27.7583 25.1442C27.7214 25.1442 27.6845 25.1442 27.6845 25.1442H27.6108C27.4263 25.0714 27.2419 25.1078 27.0206 25.1442C26.8362 25.0714 26.6149 25.1442 26.4305 25.1442C26.2091 25.035 26.0247 25.1078 25.8034 25.1442C25.5821 25.1806 25.3608 25.1442 25.1395 25.1442C24.9182 25.1442 24.6969 25.1806 24.4756 25.1442C24.3649 25.1806 24.2543 25.1806 24.1436 25.1806C24.0699 25.1806 24.033 25.1806 23.9592 25.1806C23.9223 25.1806 23.8854 25.1806 23.8854 25.1806H23.8485C23.8117 25.1806 23.8117 25.1806 23.7748 25.1806C23.5904 25.1806 23.3691 25.1806 23.1846 25.1806C23.1846 25.0714 23.1846 24.9259 23.1846 24.8167C23.1846 24.7075 23.1846 24.5984 23.1846 24.4892C23.1477 24.2709 23.1846 24.0162 23.1846 23.7615C23.1477 23.5067 23.2953 23.2884 23.1846 23.0337C23.1846 22.779 23.1846 22.5243 23.1846 22.2695C23.1846 22.0148 23.2215 21.7601 23.1846 21.5054C23.2953 21.2507 23.2215 20.996 23.1846 20.7412C23.1477 20.4865 23.1846 20.2318 23.1846 19.9771C23.1846 19.7224 23.1846 19.4677 23.1846 19.2129C23.1477 18.9582 23.2215 18.7035 23.1846 18.4488C23.1477 18.1941 23.2215 17.9757 23.1846 17.721C23.1477 17.4663 23.1477 17.248 23.1846 16.9933V16.8477C23.1846 16.7749 23.1846 16.7385 23.1846 16.6658C23.1846 16.5566 23.1846 16.4474 23.2215 16.3383C23.4059 16.3383 23.5904 16.3383 23.7748 16.3019H23.9592C24.033 16.3019 24.0699 16.2655 24.1436 16.2655C24.2543 16.2655 24.3649 16.2655 24.4756 16.3383C24.6969 16.3019 24.9182 16.4111 25.1395 16.3383C25.3608 16.4474 25.5821 16.3383 25.8034 16.3383C26.0247 16.3747 26.2091 16.3747 26.4305 16.3383C26.6518 16.3019 26.8362 16.3747 27.0206 16.3383C27.205 16.2655 27.3894 16.4111 27.6108 16.3383H27.7583C27.8321 16.3383 27.8689 16.3383 27.9427 16.3383C28.0534 16.3383 28.164 16.3383 28.2747 16.3383C28.2747 16.4111 28.2747 16.4838 28.2747 16.5566C28.3116 16.593 28.3116 16.6658 28.3484 16.7385C28.3484 16.7749 28.3484 16.8113 28.3484 16.8477C28.3484 16.8841 28.3484 16.8841 28.3484 16.9205V16.9569C28.3116 17.0296 28.2747 17.1388 28.2747 17.2116C28.2378 17.3935 28.3853 17.5391 28.2747 17.6846C28.3853 17.8302 28.2747 17.9757 28.2747 18.1213C28.2378 18.2668 28.3116 18.4124 28.2747 18.5216C28.3484 18.6671 28.2378 18.7763 28.2747 18.9218C28.2378 19.031 28.2747 19.1765 28.2747 19.2857C28.2747 19.3949 28.2747 19.504 28.2747 19.6132C28.2747 19.7224 28.2747 19.7951 28.2747 19.9043C28.164 20.5229 28.1271 20.814 28.0903 20.814Z" fill="#73523F"/>
<path d="M6.43911 0.145553C6.43911 0.145553 6.40223 0.181941 6.29157 0.181941C6.25469 0.181941 6.18092 0.218329 6.10715 0.218329C6.07027 0.218329 6.03338 0.254717 5.9965 0.254717C5.95961 0.254717 5.92273 0.291105 5.88584 0.291105C5.73831 0.363881 5.517 0.473046 5.33258 0.654987C5.14816 0.836927 4.96373 1.09164 4.88997 1.38275C4.88997 1.41914 4.85308 1.49191 4.85308 1.5283C4.85308 1.56469 4.85308 1.60108 4.85308 1.60108C4.85308 1.63747 4.85308 1.67385 4.85308 1.67385C4.85308 1.71024 4.85308 1.74663 4.85308 1.74663C4.85308 1.78302 4.85308 1.81941 4.85308 1.8558C4.85308 1.92857 4.85308 2.00135 4.85308 2.03774C4.85308 2.29245 4.88997 2.58356 4.85308 2.87466C4.8162 3.16577 4.96373 3.49326 4.85308 3.82075C4.8162 4.14825 4.85308 4.51213 4.85308 4.87601C4.85308 5.23989 4.8162 5.60377 4.85308 6.00404C4.96373 6.40431 4.74243 6.80458 4.85308 7.20485C4.88997 7.64151 4.88997 8.04178 4.85308 8.51482C4.77931 8.95148 4.85308 9.42453 4.85308 9.89757C4.74243 10.3706 4.8162 10.8437 4.85308 11.3531C4.74243 11.8625 4.74243 12.372 4.85308 12.8814C4.85308 13.3908 4.8162 13.9367 4.85308 14.4825C4.85308 15.0283 4.88997 15.5741 4.85308 16.1563C4.92685 16.7385 4.92685 17.2844 4.85308 17.8666C4.92685 18.4488 4.88997 19.031 4.85308 19.6496C4.8162 20.2682 4.92685 20.8504 4.85308 21.469C4.85308 22.0876 4.88997 22.7062 4.85308 23.3612C4.8162 24.0162 4.77931 24.6348 4.85308 25.2898C4.88997 25.9447 4.88997 26.5997 4.85308 27.2547C4.88997 27.4367 4.88997 27.5822 4.88997 27.7642C4.88997 27.8369 4.88997 27.9461 4.88997 28.0189C4.88997 28.0916 4.88997 28.1644 4.88997 28.2008C4.88997 28.3464 4.92685 28.4555 5.00062 28.6011C5.0375 28.7102 5.11127 28.8558 5.22192 28.965C5.33258 29.0741 5.44323 29.1469 5.55388 29.2197C5.66454 29.2925 5.81208 29.3288 5.95961 29.3652L6.07027 29.4016H6.18092C6.2178 29.4016 6.25469 29.4016 6.29157 29.4016H6.43911C6.62353 29.4016 6.77107 29.4016 6.95549 29.3652C7.6563 29.3652 8.3571 29.3288 9.0579 29.3652C9.20544 29.3652 9.35298 29.3652 9.50052 29.3288C9.64805 29.2925 9.75871 29.2197 9.90624 29.1469C10.1644 28.965 10.312 28.7102 10.3857 28.4555C10.4226 28.31 10.4226 28.1644 10.4226 28.0553C10.4226 27.8733 10.4226 27.7278 10.4226 27.5458C10.4226 27.2183 10.4595 26.8544 10.4226 26.527C10.4964 25.8356 10.3857 25.1806 10.4226 24.5256C10.4226 23.8706 10.4595 23.2156 10.4226 22.5606C10.4226 21.9057 10.3857 21.2507 10.4226 20.6321C10.2751 19.9771 10.4595 19.3585 10.4226 18.7399C10.4964 18.1213 10.4226 17.5027 10.4226 16.9205C10.3857 16.3019 10.4964 15.7197 10.4226 15.1375C10.4226 14.5553 10.3857 13.973 10.4226 13.4272C10.3489 12.845 10.4964 12.2992 10.4226 11.7534C10.4226 11.2075 10.4226 10.6617 10.4226 10.1523C10.5333 9.64286 10.4595 9.13342 10.4226 8.62399C10.4226 8.11456 10.3489 7.64151 10.4226 7.16846C10.4226 6.69542 10.4964 6.22237 10.4226 5.78571C10.4226 5.34906 10.5702 4.9124 10.4226 4.47574C10.3857 4.03908 10.5333 3.63881 10.4226 3.27493C10.3489 2.87466 10.4226 2.51078 10.4226 2.1469C10.4226 2.07412 10.4226 1.96496 10.4226 1.89218C10.4226 1.8558 10.4226 1.81941 10.4226 1.78302V1.63747C10.4226 1.60108 10.4226 1.56469 10.4226 1.5283C10.4226 1.49191 10.4226 1.45553 10.3857 1.41914C10.3489 1.34636 10.3489 1.27358 10.312 1.20081C10.5702 1.01887 10.4964 0.873315 10.3857 0.764151C10.2751 0.654987 10.1276 0.545822 10.0169 0.473046C9.86936 0.40027 9.72182 0.363881 9.61117 0.327493C9.5374 0.327493 9.46363 0.291105 9.38986 0.291105C9.35298 0.291105 9.31609 0.291105 9.27921 0.291105C9.24232 0.291105 9.20544 0.291105 9.16856 0.291105C8.57841 0.291105 8.09891 0.254717 7.69318 0.254717C6.84484 0.218329 6.43911 0.181941 6.43911 0.145553C6.43911 0.109164 6.95549 0.0727763 7.95137 0.0363881C8.20956 0.0363881 8.46775 0.0363881 8.76283 0C8.91037 0 9.0579 0 9.24232 0C9.42675 0 9.61117 0 9.79559 0.0727763C10.1644 0.181941 10.5333 0.40027 10.7915 0.764151C10.9021 0.946092 11.0128 1.16442 11.0865 1.38275C11.0865 1.45553 11.1234 1.49191 11.1234 1.56469C11.1234 1.63747 11.1234 1.67385 11.1234 1.74663C11.1234 1.78302 11.1234 1.81941 11.1234 1.81941V1.89218C11.1234 1.96496 11.1234 2.00135 11.1234 2.07412C11.1234 2.43801 11.1972 2.80189 11.1234 3.20216C11.1234 3.60243 11.1972 4.0027 11.1234 4.40297C11.2341 4.83962 11.1603 5.23989 11.1234 5.71294C11.1234 6.1496 11.0865 6.62264 11.1234 7.09569C11.1972 7.56873 11.0865 8.04178 11.1234 8.55121C11.0497 9.06065 11.0865 9.57008 11.1234 10.0795C11.0497 10.5889 11.1234 11.1348 11.1234 11.6806C11.0128 12.2264 11.0865 12.7722 11.1234 13.3544C11.1603 13.9367 11.1234 14.4825 11.1234 15.0647C11.1234 15.6469 11.1603 16.2291 11.1234 16.8477C11.1603 17.4663 11.1972 18.0485 11.1234 18.6671C11.1603 19.2857 11.1234 19.9043 11.1234 20.5593C11.1603 21.2143 11.1234 21.8329 11.1234 22.4879C11.1603 23.1429 11.0128 23.7978 11.1234 24.4528C11.1234 25.1078 11.1234 25.7992 11.1234 26.4542C11.1234 26.7817 11.1234 27.1456 11.1234 27.473C11.1234 27.655 11.1234 27.8005 11.1234 27.9825C11.1234 28.2008 11.0865 28.3827 11.0497 28.6011C10.9759 28.783 10.8652 28.965 10.7177 29.1105C10.607 29.2561 10.4595 29.4016 10.2751 29.5472C10.1276 29.6563 9.94313 29.7655 9.72182 29.8383C9.5374 29.9111 9.31609 29.9474 9.09479 29.9838C8.39398 30.0202 7.69318 29.9838 6.99238 29.9838C6.80795 29.9838 6.66042 29.9838 6.47599 29.9838H6.32846C6.29157 29.9838 6.25469 29.9838 6.18092 29.9838H6.03338L5.88584 29.9474C5.66454 29.9111 5.48012 29.8383 5.29569 29.7291C5.11127 29.6199 4.96373 29.5108 4.8162 29.3652C4.52112 29.0741 4.3367 28.7102 4.26293 28.31C4.26293 28.2008 4.26293 28.128 4.22605 28.0189C4.22605 27.9461 4.22605 27.8369 4.22605 27.7642C4.22605 27.5822 4.22605 27.4367 4.22605 27.2547C4.18916 26.5997 4.26293 25.9447 4.22605 25.2898C4.18916 24.6348 4.18916 23.9798 4.22605 23.3612C4.22605 22.7062 4.3367 22.0876 4.22605 21.469C4.18916 20.8504 4.07851 20.2318 4.22605 19.6496C4.18916 19.031 4.29981 18.4488 4.22605 17.8666C4.3367 17.2844 4.22605 16.7022 4.22605 16.1563C4.26293 15.5741 4.26293 15.0283 4.22605 14.4825C4.18916 13.9367 4.26293 13.3908 4.22605 12.8814C4.15228 12.372 4.29981 11.8625 4.22605 11.3531C4.22605 10.8437 4.22605 10.3706 4.22605 9.89757C4.07851 9.42453 4.22605 8.95148 4.22605 8.51482C4.26293 8.07817 4.11539 7.64151 4.22605 7.20485C4.11539 6.76819 4.22605 6.36792 4.22605 6.00404C4.26293 5.60377 4.18916 5.23989 4.22605 4.87601C4.15228 4.51213 4.26293 4.18464 4.22605 3.82075C4.26293 3.49326 4.22605 3.16577 4.22605 2.87466C4.22605 2.58356 4.22605 2.29245 4.22605 2.03774C4.22605 1.96496 4.22605 1.89218 4.22605 1.8558C4.22605 1.81941 4.22605 1.78302 4.22605 1.74663C4.22605 1.71024 4.22605 1.67385 4.22605 1.63747C4.22605 1.60108 4.22605 1.56469 4.22605 1.5283C4.22605 1.49191 4.22605 1.45553 4.22605 1.41914C4.22605 1.34636 4.26293 1.30997 4.26293 1.2372C4.37358 0.873315 4.59489 0.618598 4.77931 0.436658C5.00062 0.254717 5.22192 0.145553 5.40635 0.109164C5.44323 0.109164 5.48012 0.0727763 5.55388 0.0727763C5.59077 0.0727763 5.62765 0.0727763 5.66454 0.0363881C5.73831 0.0363881 5.81208 0.0363881 5.84896 0.0363881C6.36534 0.145553 6.43911 0.145553 6.43911 0.145553Z" fill="#73523F"/>
<path d="M4.74243 3.3841C4.77931 3.3841 4.8162 4.0027 4.85308 5.09434C4.85308 5.27628 4.85308 5.45822 4.85308 5.67655C4.85308 5.89488 4.88997 6.11321 4.85308 6.33154C4.8162 6.58625 4.96373 6.80458 4.85308 7.09569C4.8162 7.3504 4.85308 7.64151 4.85308 7.93262C4.85308 8.22372 4.8162 8.51483 4.85308 8.84232C4.96373 9.16981 4.74243 9.46092 4.85308 9.8248C4.88997 10.1523 4.88997 10.5162 4.85308 10.8437C4.77931 11.2075 4.85308 11.5714 4.85308 11.9353C4.74243 12.2992 4.8162 12.6995 4.85308 13.0997C4.74243 13.5 4.74243 13.9003 4.85308 14.3005C4.85308 14.7008 4.8162 15.1375 4.85308 15.5741C4.85308 16.0108 4.88997 16.4474 4.85308 16.8841C4.92685 17.3208 4.92685 17.7938 4.85308 18.2668C4.92685 18.7399 4.88997 19.2129 4.85308 19.686C4.8162 20.159 4.92685 20.6685 4.85308 21.1415C4.85308 21.6509 4.88997 22.124 4.85308 22.6334C4.8162 23.1429 4.77931 23.6523 4.85308 24.1617C4.88997 24.6712 4.88997 25.217 4.85308 25.7264C4.88997 25.872 4.88997 25.9811 4.88997 26.1267V26.527C4.88997 26.6725 4.88997 26.7817 4.88997 26.9272C4.74243 26.9272 4.63177 26.9272 4.48424 26.9272H4.11539C3.96785 26.9272 3.8572 26.8908 3.70966 26.8908C3.1564 26.8908 2.60313 26.8544 2.04987 26.8908C1.75479 26.8908 1.4966 26.8908 1.20152 26.8908C1.05399 26.8908 0.906449 26.8908 0.795796 26.8908C0.685143 26.8908 0.57449 26.8908 0.463837 26.8908C0.316299 26.8908 0.205646 26.8908 0.0581082 26.8908C0.0581082 26.6361 0.0581082 26.4178 0.0949926 26.1631C0.0949926 26.0175 0.0949926 25.872 0.0949926 25.7628C0.0949926 25.4717 0.0949926 25.217 0.0581082 24.9259C-0.0156606 24.3801 0.0949926 23.8342 0.0581082 23.2884C0.131877 22.7426 0.0212238 22.1968 0.0581082 21.6873C0.0581082 21.1415 0.0949926 20.6321 0.0581082 20.1226C0.0581082 19.6132 0.0212238 19.1038 0.0581082 18.5943C-0.0894294 18.0849 0.0949926 17.5755 0.0581082 17.1024C0.131877 16.593 0.0581082 16.1199 0.0581082 15.6469C0.0212238 15.1739 0.131877 14.7008 0.0581082 14.2278C0.0581082 13.7547 0.0212238 13.3181 0.0581082 12.845C-0.0156606 12.4084 0.131877 11.9717 0.0581082 11.535C0.0581082 11.0984 0.0581082 10.6981 0.0581082 10.2615C0.168761 9.86119 0.0581082 9.46092 0.0581082 9.06065C0.0581082 8.66038 -0.0156606 8.2965 0.0581082 7.89623C0.0581082 7.53235 0.131877 7.16846 0.0581082 6.80458C0.0581082 6.4407 0.205646 6.11321 0.0581082 5.78572C0.0212238 5.45822 0.168761 5.13073 0.0581082 4.80324C-0.0156606 4.47574 0.0581082 4.18464 0.0581082 3.89353C0.0581082 3.6752 0.0581082 3.49326 0.0581082 3.27493H0.611374C2.16052 3.23854 3.11951 3.27493 3.74655 3.31132C4.41047 3.34771 4.74243 3.34771 4.74243 3.3841C4.74243 3.42049 4.37358 3.45687 3.67278 3.49326C3.30394 3.49326 2.89821 3.52965 2.38183 3.52965C2.12363 3.52965 1.86544 3.52965 1.57037 3.56604C1.42283 3.56604 1.27529 3.56604 1.12776 3.56604C1.09087 3.56604 1.05399 3.56604 1.0171 3.56604C0.980218 3.56604 0.980218 3.56604 0.943334 3.56604C0.906449 3.56604 0.869565 3.56604 0.832681 3.56604C0.832681 3.60243 0.832681 3.63881 0.832681 3.6752C0.832681 3.71159 0.832681 3.71159 0.832681 3.74798C0.832681 3.78437 0.832681 3.82076 0.832681 3.85714C0.832681 4.14825 0.906449 4.43935 0.832681 4.76685C0.832681 5.09434 0.906449 5.38545 0.832681 5.74933C0.943334 6.07682 0.832681 6.4407 0.832681 6.76819C0.832681 7.13208 0.795796 7.49596 0.832681 7.85984C0.906449 8.22372 0.795796 8.62399 0.832681 9.02426C0.758912 9.42453 0.795796 9.8248 0.832681 10.2251C0.758912 10.6253 0.832681 11.062 0.832681 11.4987C0.722027 11.9353 0.795796 12.372 0.832681 12.8086C0.869565 13.2453 0.832681 13.7183 0.832681 14.1914C0.832681 14.6644 0.869565 15.1375 0.832681 15.6105C0.869565 16.0836 0.906449 16.593 0.832681 17.066C0.869565 17.5755 0.832681 18.0485 0.832681 18.558C0.869565 19.0674 0.832681 19.5768 0.832681 20.0863C0.869565 20.5957 0.722027 21.1415 0.832681 21.6509C0.832681 22.1968 0.832681 22.7062 0.832681 23.252C0.832681 23.7978 0.795796 24.3437 0.832681 24.8895C0.795796 25.1806 0.758912 25.4353 0.795796 25.7264C0.795796 25.872 0.795796 26.0175 0.832681 26.1267V26.1631H0.906449C1.05399 26.1631 1.20152 26.1631 1.31218 26.1631C1.60725 26.1631 1.86544 26.1631 2.16052 26.1631C2.71379 26.1631 3.26705 26.1631 3.82032 26.1631C3.96785 26.1631 4.07851 26.1631 4.22605 26.1631H4.29981C4.29981 26.1631 4.29981 26.1631 4.29981 26.1267V26.0903C4.29981 25.9447 4.29981 25.8356 4.29981 25.69C4.26293 25.1442 4.3367 24.6348 4.29981 24.1253C4.26293 23.6159 4.26293 23.1065 4.29981 22.597C4.29981 22.0876 4.41047 21.5782 4.29981 21.1051C4.26293 20.5957 4.15228 20.1226 4.29981 19.6496C4.26293 19.1766 4.37358 18.7035 4.29981 18.2305C4.41047 17.7574 4.29981 17.3208 4.29981 16.8477C4.3367 16.4111 4.3367 15.9744 4.29981 15.5377C4.26293 15.1011 4.3367 14.7008 4.29981 14.2642C4.22605 13.8639 4.37358 13.4636 4.29981 13.0633C4.29981 12.6631 4.29981 12.2992 4.29981 11.8989C4.15228 11.535 4.29981 11.1712 4.29981 10.8073C4.3367 10.4434 4.18916 10.1159 4.29981 9.78841C4.18916 9.46092 4.29981 9.13342 4.29981 8.80593C4.3367 8.47844 4.26293 8.18733 4.29981 7.89623C4.22605 7.60512 4.3367 7.3504 4.29981 7.0593C4.3367 6.80458 4.29981 6.54987 4.29981 6.29515C4.29981 6.04043 4.29981 5.8221 4.29981 5.64016C4.29981 5.42183 4.29981 5.23989 4.29981 5.05795C4.66866 4.0027 4.70554 3.3841 4.74243 3.3841Z" fill="#73523F"/>
<path d="M7.21368 23.0337C7.1768 23.0337 7.13991 22.8518 7.10303 22.5243C7.10303 22.4879 7.10303 22.4151 7.10303 22.3423C7.10303 22.2695 7.06614 22.1968 7.10303 22.1604C7.13991 22.0876 6.99238 22.0148 7.10303 21.9421C7.13991 21.8693 7.10303 21.7965 7.10303 21.6873C7.10303 21.6146 7.13991 21.5054 7.10303 21.4326C6.99238 21.3235 7.21368 21.2507 7.10303 21.1415C7.06614 21.0323 7.06614 20.9232 7.10303 20.8504C7.1768 20.7412 7.10303 20.6321 7.10303 20.5229C7.21368 20.4137 7.13991 20.3046 7.10303 20.1954C7.21368 20.0863 7.21368 19.9407 7.10303 19.8315C7.10303 19.7224 7.13991 19.5768 7.10303 19.4677C7.10303 19.3221 7.06614 19.2129 7.10303 19.0674C7.02926 18.9218 7.02926 18.8127 7.10303 18.6671C7.02926 18.5216 7.06614 18.376 7.10303 18.2305C7.13991 18.0849 7.02926 17.9394 7.10303 17.7938C7.10303 17.6482 7.06614 17.5027 7.10303 17.3571C7.13991 17.2116 7.1768 17.066 7.10303 16.8841C7.06614 16.7385 7.06614 16.5566 7.10303 16.4111C6.99238 16.2655 7.06614 16.0836 7.10303 15.938C7.10303 15.7925 7.13991 15.6105 7.10303 15.465C7.10303 15.3194 7.06614 15.1375 7.10303 14.9555C7.13991 14.7736 7.1768 14.628 7.10303 14.4461C7.02926 14.3005 7.13991 14.1186 7.10303 13.973C7.1768 13.8275 7.06614 13.6456 7.10303 13.5C7.10303 13.3544 7.13991 13.1725 7.10303 13.027C7.10303 12.8814 7.06614 12.7358 7.10303 12.5539C6.95549 12.4084 7.13991 12.2628 7.10303 12.1173C7.1768 11.9717 7.10303 11.8261 7.10303 11.6806C7.06614 11.535 7.1768 11.3895 7.10303 11.2439C7.10303 11.0984 7.06614 10.9528 7.10303 10.8437C7.02926 10.6981 7.1768 10.5889 7.10303 10.4434C7.10303 10.2978 7.10303 10.1887 7.10303 10.0795C7.21368 9.97035 7.13991 9.8248 7.10303 9.71563C7.10303 9.60647 7.02926 9.4973 7.10303 9.38814C7.10303 9.27898 7.1768 9.16981 7.10303 9.06065C7.10303 8.95148 7.25057 8.84232 7.10303 8.76954C7.06614 8.66038 7.21368 8.5876 7.10303 8.47844C7.02926 8.36927 7.10303 8.2965 7.10303 8.22372C7.10303 8.15094 7.10303 8.04178 7.10303 7.969C7.13991 7.27763 7.21368 6.87736 7.25057 6.87736C7.32434 6.87736 7.36122 7.38679 7.43499 8.22372C7.43499 8.2965 7.50876 8.40566 7.43499 8.47844C7.43499 8.5876 7.50876 8.66038 7.43499 8.76954C7.54564 8.87871 7.47187 8.98787 7.43499 9.06065C7.43499 9.16981 7.3981 9.27898 7.43499 9.38814C7.50876 9.4973 7.3981 9.60647 7.43499 9.71563C7.36122 9.8248 7.3981 9.97035 7.43499 10.0795C7.36122 10.1887 7.43499 10.3342 7.43499 10.4434C7.32434 10.5889 7.3981 10.6981 7.43499 10.8437C7.47187 10.9892 7.43499 11.0984 7.43499 11.2439C7.43499 11.3895 7.47187 11.535 7.43499 11.6806C7.47187 11.8261 7.50876 11.9717 7.43499 12.1173C7.47187 12.2628 7.43499 12.4084 7.43499 12.5539C7.47187 12.6995 7.43499 12.845 7.43499 13.027C7.47187 13.1725 7.32434 13.3544 7.43499 13.5C7.43499 13.6456 7.43499 13.8275 7.43499 13.973C7.43499 14.1186 7.3981 14.3005 7.43499 14.4461C7.32434 14.5916 7.3981 14.7736 7.43499 14.9555C7.47187 15.1375 7.43499 15.283 7.43499 15.465C7.43499 15.6105 7.43499 15.7925 7.43499 15.938C7.47187 16.0836 7.3981 16.2655 7.43499 16.4111C7.47187 16.5566 7.3981 16.7385 7.43499 16.8841C7.47187 17.0296 7.47187 17.1752 7.43499 17.3571C7.43499 17.5027 7.32434 17.6482 7.43499 17.7938C7.47187 17.9394 7.58253 18.0849 7.43499 18.2305C7.47187 18.376 7.36122 18.5216 7.43499 18.6671C7.32434 18.8127 7.43499 18.9582 7.43499 19.0674C7.3981 19.2129 7.3981 19.3221 7.43499 19.4677C7.47187 19.6132 7.3981 19.7224 7.43499 19.8315C7.50876 19.9407 7.36122 20.0863 7.43499 20.1954C7.43499 20.3046 7.43499 20.4137 7.43499 20.5229C7.58253 20.6321 7.43499 20.7412 7.43499 20.8504C7.3981 20.9596 7.54564 21.0687 7.43499 21.1415C7.54564 21.2507 7.43499 21.3235 7.43499 21.4326C7.3981 21.5418 7.47187 21.6146 7.43499 21.6873C7.50876 21.7601 7.3981 21.8693 7.43499 21.9421C7.3981 22.0148 7.43499 22.0876 7.43499 22.1604C7.43499 22.2332 7.43499 22.3059 7.43499 22.3423C7.43499 22.4151 7.43499 22.4515 7.43499 22.5243C7.32434 22.8518 7.28745 23.0337 7.21368 23.0337Z" fill="#73523F"/>
</svg>
