<svg width="29" height="30" viewBox="0 0 29 30" fill="none" xmlns="http://www.w3.org/2000/svg">
<path d="M0.035109 15.7793C0.0702179 15.7793 0.0702179 15.9879 0.105327 16.3354C0.140436 16.7177 0.210654 17.2738 0.35109 17.9342C0.386199 18.0385 0.421308 18.1775 0.421308 18.2818C0.456416 18.4208 0.491525 18.5251 0.526634 18.6641C0.596852 18.9074 0.702179 19.1854 0.772397 19.4635C0.772397 19.533 0.807506 19.6025 0.842615 19.672C0.842615 19.7068 0.877724 19.7415 0.877724 19.7763C0.912833 19.811 0.912833 19.8458 0.947942 19.8806C1.01816 20.0196 1.08838 20.1586 1.12349 20.3324C1.1937 20.4714 1.26392 20.6452 1.33414 20.7842C1.36925 20.8885 1.40436 20.9232 1.40436 20.958C1.43947 20.9928 1.43947 21.0275 1.47458 21.0623C1.50969 21.1318 1.5799 21.2013 1.61501 21.3056C1.65012 21.3751 1.72034 21.4793 1.75545 21.5489C1.79056 21.6184 1.86077 21.7226 1.89588 21.7922C1.93099 21.8617 2.00121 21.9659 2.03632 22.0354C2.10654 22.105 2.14165 22.1745 2.21186 22.244C2.28208 22.3135 2.3523 22.383 2.42252 22.4525C2.49274 22.522 2.52785 22.6263 2.59806 22.6958C2.66828 22.8001 2.7385 22.9044 2.80872 22.9739C2.87893 23.0434 2.94915 23.1129 3.05448 23.1824C3.1247 23.2519 3.19492 23.3214 3.26513 23.3909C3.33535 23.4604 3.40557 23.53 3.5109 23.5995C3.58111 23.669 3.65133 23.7385 3.75666 23.8428C3.82688 23.9123 3.9322 23.9818 4.00242 24.0513C4.28329 24.3989 4.7046 24.6422 5.12591 24.8855C5.19613 24.9897 5.30145 25.0592 5.40678 25.1287C5.51211 25.1983 5.61743 25.2678 5.72276 25.3373C5.82809 25.4068 5.93341 25.4416 6.03874 25.5111C6.10896 25.5458 6.14407 25.5458 6.21429 25.5806C6.2845 25.6153 6.31961 25.6153 6.38983 25.6501C6.49516 25.7196 6.60048 25.8239 6.70581 25.8934L6.77603 25.9281C6.81114 25.9281 6.84625 25.9629 6.84625 25.9629C6.91647 25.9977 6.95157 26.0324 7.02179 26.0324C7.12712 26.0672 7.26755 26.1367 7.37288 26.1714C7.51332 26.2062 7.61864 26.2409 7.75908 26.2757C7.8293 26.3105 7.86441 26.3105 7.93462 26.3452C8.00484 26.38 8.07506 26.38 8.11017 26.4147C8.25061 26.4495 8.35593 26.519 8.49637 26.5538C8.6368 26.5885 8.74213 26.6233 8.88257 26.6928C9.023 26.7275 9.12833 26.7623 9.26877 26.7971C9.4092 26.8318 9.54964 26.8666 9.65496 26.9013L9.86562 26.9708C9.93584 26.9708 10.0061 27.0056 10.0763 27.0056C10.2167 27.0403 10.3571 27.0751 10.4976 27.1099C10.638 27.1446 10.7785 27.1794 10.9189 27.2141C11.0593 27.2141 11.1998 27.2141 11.3402 27.2489C11.4806 27.2489 11.6211 27.2836 11.7615 27.2836C12.0424 27.3184 12.3232 27.3879 12.6392 27.4227C13.2361 27.3879 13.8329 27.4574 14.4298 27.4922C14.5702 27.4922 14.7458 27.4922 14.8862 27.4922C15.0266 27.4922 15.2022 27.4574 15.3426 27.4574C15.6586 27.4227 15.9746 27.3879 16.2906 27.3879C16.9225 27.3184 17.5545 27.2141 18.1864 27.0751C18.8184 26.9708 19.4855 26.8318 20.0823 26.5538C20.7143 26.3105 21.3111 26.0324 21.9431 25.7891C22.5048 25.4068 23.1017 25.094 23.6985 24.7464C23.7688 24.7117 23.839 24.6422 23.9092 24.6074C23.9794 24.5726 24.0496 24.5031 24.1199 24.4684C24.2603 24.3641 24.4007 24.2598 24.5412 24.1556C24.6816 24.0513 24.822 23.947 24.9274 23.808C24.9976 23.7385 25.0678 23.7037 25.1029 23.6342C25.1731 23.5647 25.2082 23.4952 25.2785 23.4605C25.77 22.9739 26.1913 22.4178 26.6126 21.8617C26.7179 21.7226 26.8232 21.5836 26.9286 21.4446C27.0339 21.3056 27.1041 21.1318 27.2094 20.9928C27.2446 20.9232 27.2797 20.8537 27.3148 20.7495L27.4201 20.5062C27.4903 20.3671 27.5605 20.1934 27.5956 20.0196C27.6308 19.9501 27.6659 19.8458 27.6659 19.7763C27.701 19.7068 27.701 19.6025 27.7361 19.533C27.7712 19.4635 27.8063 19.3592 27.8063 19.2897C27.8414 19.2202 27.8765 19.1159 27.8765 19.0464C27.9116 18.8726 27.9818 18.7336 28.017 18.5598C28.0521 18.386 28.0872 18.247 28.1223 18.0732C28.1574 18.0037 28.1925 17.8995 28.1925 17.8299C28.1925 17.7604 28.2276 17.6562 28.2276 17.5866C28.2276 17.5171 28.2627 17.4129 28.2627 17.3434V17.0653C28.2627 16.8915 28.2627 16.7177 28.2978 16.5787C28.2978 16.5092 28.2978 16.4049 28.2978 16.3354V16.0921H28.1223C28.0521 16.0921 27.9467 16.0921 27.8765 16.0921C27.5254 16.0921 27.2094 16.0921 26.8584 16.0921C26.1913 16.0921 25.5242 16.1269 24.8571 16.0921C24.1901 16.2312 23.5581 16.0574 22.9262 16.0921C22.2942 16.0226 21.6622 16.0921 21.0303 16.0921C20.3983 16.1269 19.8015 16.0226 19.2046 16.0921C18.6077 16.0921 18.0109 16.1269 17.414 16.0921C16.8172 16.1616 16.2554 16.0226 15.6937 16.0921C15.132 16.0921 14.5702 16.0921 14.0436 16.0921C13.5169 15.9879 12.9903 16.0574 12.4637 16.0921C11.937 16.0921 11.4455 16.1616 10.954 16.0921C10.4625 16.0921 10.0061 16.0226 9.54964 16.0921C9.09322 16.0921 8.6368 15.9531 8.2155 16.0921C7.79419 16.1269 7.37288 15.9879 6.95157 16.0921C6.56538 16.1616 6.14407 16.0921 5.79298 16.0921C5.40678 16.0921 5.05569 16.0921 4.73971 16.0921C3.19492 16.0574 2.00121 16.0574 1.1937 16.0226C0.491525 15.8488 0.035109 15.8141 0.035109 15.7793C0.035109 15.7446 0.596852 15.7098 1.5799 15.6751C2.59806 15.6403 4.07264 15.6055 5.93341 15.6055C6.31961 15.6055 6.70581 15.536 7.09201 15.6055C7.47821 15.6055 7.89952 15.536 8.35593 15.6055C8.77724 15.5013 9.23366 15.5708 9.69007 15.6055C10.1465 15.6055 10.638 15.6403 11.0944 15.6055C11.586 15.536 12.0775 15.6403 12.6041 15.6055C13.1308 15.6751 13.6574 15.6403 14.184 15.6055C14.7107 15.6751 15.2724 15.6055 15.8341 15.6055C16.3959 15.7098 16.9576 15.6403 17.5545 15.6055C18.1513 15.5708 18.7131 15.6055 19.345 15.6055C19.9419 15.6055 20.5739 15.5708 21.1707 15.6055C21.8027 15.5708 22.4346 15.536 23.0666 15.6055C23.6985 15.5708 24.3656 15.6055 24.9976 15.6055C25.6646 15.5708 26.3317 15.6055 26.9988 15.6055C27.3499 15.6055 27.6659 15.6055 28.017 15.6403C28.0872 15.6403 28.1925 15.6403 28.2627 15.6403H28.9649V15.7446C28.9649 15.8836 28.9649 16.0226 28.9649 16.1964C28.9649 16.3007 28.9649 16.4049 28.9649 16.5092C28.9649 16.6135 28.9649 16.683 28.9649 16.7873C28.9649 16.961 28.9298 17.1348 28.9298 17.3086V17.4476L28.8947 17.4129C28.8947 17.5171 28.8596 17.5866 28.8596 17.6909C28.8596 17.7952 28.8245 17.8647 28.8245 17.969C28.8245 18.0732 28.7893 18.1427 28.7893 18.247C28.6489 18.9421 28.4383 19.6373 28.1574 20.2976C28.0521 20.4714 27.9818 20.6104 27.9116 20.7842C27.8765 20.8537 27.8414 20.958 27.7712 21.0275C27.7361 21.097 27.701 21.2013 27.6659 21.2708C27.5956 21.4446 27.4903 21.5836 27.4201 21.7574C27.3148 21.9312 27.2446 22.0702 27.1392 22.244C26.753 22.8696 26.2615 23.4257 25.7349 23.9123L25.5242 24.1208C25.454 24.1903 25.3838 24.2598 25.3136 24.2946C25.1731 24.3989 25.0327 24.5379 24.8923 24.6422C24.7518 24.7464 24.6114 24.8507 24.4709 24.9897C24.4007 25.0592 24.3305 25.094 24.2603 25.1635L24.0496 25.3025C23.4879 25.7196 22.8208 26.0324 22.224 26.38C21.6271 26.7275 20.9249 26.9013 20.293 27.1794C19.661 27.4227 18.9939 27.5964 18.3269 27.7007C17.6598 27.8397 17.0278 27.8397 16.3608 28.0135C16.0448 28.0483 15.7288 28.1178 15.4128 28.1525C15.2373 28.1525 15.0969 28.1873 14.9213 28.1873C14.7458 28.1873 14.6053 28.1525 14.4298 28.1525C13.7978 28.1873 13.1659 28.083 12.569 28.083C12.253 28.0135 11.9722 27.9788 11.6562 27.944C11.5157 27.944 11.3753 27.9092 11.1998 27.9092C11.0593 27.8745 10.9189 27.8745 10.7433 27.8397C10.6029 27.805 10.4625 27.7702 10.322 27.7355C10.1816 27.7007 10.0412 27.666 9.90073 27.6312C9.83051 27.6312 9.76029 27.5964 9.69007 27.5964L9.47942 27.5269C9.33898 27.4922 9.19855 27.4574 9.05811 27.4227C8.91768 27.3879 8.77724 27.3531 8.6368 27.3184C8.49637 27.2836 8.35593 27.2141 8.25061 27.1794C8.11017 27.1446 8.00484 27.0751 7.86441 27.0403C7.79419 27.0056 7.72397 27.0056 7.68886 26.9708C7.61864 26.9361 7.54843 26.9361 7.51332 26.9013C7.37288 26.8666 7.26755 26.797 7.12712 26.7623C7.02179 26.6928 6.88136 26.6233 6.77603 26.5885C6.70581 26.5538 6.6707 26.519 6.60048 26.4842L6.46005 26.4147C6.35472 26.3452 6.21429 26.3105 6.10896 26.2409C6.03874 26.2062 6.00363 26.1714 5.93341 26.1367C5.8632 26.1019 5.82809 26.0672 5.75787 26.0324C5.65254 25.9629 5.54722 25.8934 5.44189 25.8586C5.33656 25.7891 5.23124 25.7196 5.12591 25.6501C5.02058 25.5806 4.91525 25.5111 4.80993 25.4416C4.3184 25.2678 4.00242 24.8855 3.68644 24.5726C3.61622 24.5031 3.5109 24.4336 3.40557 24.3641C3.30024 24.2946 3.23002 24.2251 3.15981 24.1556C3.08959 24.0861 2.98426 24.0166 2.91404 23.9123C2.84383 23.8428 2.77361 23.7385 2.70339 23.6342C2.59806 23.5647 2.52784 23.4952 2.45763 23.4257C2.38741 23.3562 2.31719 23.2519 2.24697 23.1824C2.17676 23.1129 2.14165 23.0086 2.07143 22.9391C2.00121 22.8348 1.9661 22.7653 1.89588 22.6611C1.82567 22.5915 1.79056 22.4873 1.72034 22.4178C1.65012 22.3483 1.61501 22.244 1.54479 22.1745C1.47458 22.105 1.43947 22.0007 1.36925 21.9312C1.33414 21.8617 1.26392 21.7574 1.22881 21.6879C1.1586 21.6184 1.12349 21.5489 1.05327 21.4446C1.01816 21.4098 1.01816 21.3751 0.983051 21.3403C0.983051 21.3056 0.947942 21.2708 0.947942 21.2013C0.877724 21.0275 0.842615 20.8537 0.737288 20.7147C0.702179 20.5409 0.631961 20.4019 0.561743 20.2281C0.561743 20.1934 0.526634 20.1586 0.526634 20.1239C0.526634 20.0891 0.491525 20.0543 0.491525 20.0196C0.456416 19.9501 0.456416 19.8806 0.421308 19.811C0.315981 19.533 0.245763 19.2549 0.175545 18.9769C0.140436 18.8379 0.105327 18.6988 0.105327 18.5946C0.0702179 18.4556 0.0702179 18.3513 0.035109 18.247C0.035109 17.2738 0 16.7177 0 16.3702C0 15.9879 0.035109 15.7793 0.035109 15.7793Z" fill="#73523F"/>
<path d="M0.035109 15.7793C0.0702179 15.7793 0.0702179 15.9531 0.105327 16.2659C0.105327 16.3354 0.105327 16.4397 0.140436 16.544C0.140436 16.6482 0.175545 16.7525 0.175545 16.8568C0.175545 16.9263 0.175545 16.961 0.210654 17.0306C0.210654 17.1001 0.210654 17.1696 0.245763 17.2391C0.280872 17.3781 0.280872 17.5171 0.315981 17.6562C0.315981 17.6909 0.315981 17.7604 0.35109 17.7952C0.35109 17.8995 0.35109 17.969 0.35109 18.0037C0.386199 18.108 0.386199 18.1775 0.421308 18.2818C0.421308 18.3165 0.421308 18.3165 0.421308 18.3513H0.456416C0.491525 18.3513 0.526634 18.3513 0.561743 18.3513C0.596852 18.3513 0.631961 18.3513 0.631961 18.3513C0.66707 18.3513 0.702179 18.3513 0.737288 18.3513C0.807506 18.3513 0.877724 18.3513 0.947942 18.3513C1.22881 18.386 1.50969 18.247 1.79056 18.3513C2.10654 18.386 2.38741 18.3513 2.7385 18.3513C3.05448 18.3513 3.40557 18.386 3.75666 18.3513C4.10775 18.247 4.49395 18.4556 4.84504 18.3513C5.23124 18.3165 5.61743 18.3165 6.03874 18.3513C6.46005 18.4208 6.84625 18.3513 7.30266 18.3513C7.72397 18.4556 8.18039 18.386 8.6368 18.3513C9.09322 18.4556 9.54964 18.4556 10.0061 18.3513C10.4625 18.3513 10.954 18.386 11.4455 18.3513C11.937 18.3513 12.4286 18.3165 12.9552 18.3513C13.4818 18.2818 13.9734 18.2818 14.5351 18.3513C15.0617 18.2818 15.5884 18.3165 16.1501 18.3513C16.7119 18.386 17.2385 18.2818 17.8002 18.3513C18.362 18.3513 18.9237 18.3165 19.5206 18.3513C20.0823 18.386 20.6792 18.4208 21.276 18.3513C21.8729 18.3165 22.4697 18.3165 23.0666 18.3513C23.6634 18.247 24.2954 18.3165 24.8923 18.3513C25.5242 18.3513 26.1211 18.386 26.753 18.3513C27.069 18.3513 27.385 18.3513 27.701 18.3513H28.0872L28.2276 17.9342C28.2627 17.7952 28.2627 17.6214 28.2978 17.4824C28.2978 17.4129 28.3329 17.3434 28.3329 17.2391C28.3329 17.1696 28.3329 17.1001 28.3329 16.9958C28.3329 16.8568 28.3329 16.683 28.3329 16.544V16.3702C28.3329 16.3702 28.3329 16.3702 28.3329 16.3354C28.3329 16.3354 28.3329 16.3354 28.2978 16.3354C27.9818 16.3354 27.6659 16.3007 27.385 16.3354C26.753 16.2659 26.1562 16.3702 25.5593 16.3354C24.9625 16.3354 24.3656 16.3007 23.7688 16.3354C23.1719 16.3354 22.5751 16.3702 22.0133 16.3354C21.4516 16.4744 20.8547 16.3007 20.293 16.3354C19.7312 16.2659 19.1695 16.3354 18.6429 16.3354C18.0811 16.3702 17.5545 16.2659 17.0278 16.3354C16.5012 16.3354 15.9746 16.3702 15.4479 16.3354C14.9213 16.4049 14.4298 16.2659 13.9383 16.3354C13.4467 16.3354 12.9552 16.3354 12.4988 16.3354C12.0424 16.2312 11.5508 16.3007 11.1295 16.3354C10.6731 16.3354 10.2518 16.4049 9.7954 16.3354C9.37409 16.3354 8.95278 16.2659 8.53148 16.3354C8.11017 16.3354 7.72397 16.1964 7.33777 16.3354C6.95157 16.3702 6.60048 16.2312 6.24939 16.3354C5.8983 16.4049 5.54722 16.3354 5.23123 16.3354C4.91525 16.3354 4.59927 16.3354 4.28329 16.3354C2.94915 16.3007 1.86077 16.3007 1.1586 16.2659C0.421308 15.8488 0.035109 15.8141 0.035109 15.7793C0.035109 15.7446 0.526634 15.7098 1.40436 15.6751C2.28208 15.6403 3.58111 15.6055 5.23123 15.6055C5.54722 15.6055 5.8983 15.536 6.24939 15.6055C6.60048 15.6055 6.98668 15.536 7.33777 15.6055C7.72397 15.5013 8.11017 15.5708 8.53148 15.6055C8.95278 15.6055 9.33898 15.6403 9.7954 15.6055C10.2167 15.536 10.6731 15.6403 11.1295 15.6055C11.586 15.6751 12.0424 15.6403 12.4988 15.6055C12.9552 15.6751 13.4467 15.6055 13.9383 15.6055C14.4298 15.7098 14.9213 15.6403 15.4479 15.6055C15.9746 15.5708 16.4661 15.6055 17.0278 15.6055C17.5545 15.6055 18.0811 15.5708 18.6429 15.6055C19.2046 15.5708 19.7312 15.536 20.293 15.6055C20.8547 15.5708 21.4165 15.6055 22.0133 15.6055C22.5751 15.5708 23.1719 15.6055 23.7688 15.6055C24.3656 15.5708 24.9625 15.7098 25.5593 15.6055C26.1562 15.6055 26.7881 15.6055 27.385 15.6055C27.701 15.6055 28.0169 15.6055 28.2978 15.6055C28.4383 15.6055 28.5787 15.6055 28.7191 15.6055H28.9298C28.9649 15.6055 28.9649 15.6055 29 15.6055V15.7793C29 15.9184 29 16.0574 29 16.1964V16.4744C28.9649 16.6482 28.9298 16.7873 28.9298 16.961C28.9298 17.0306 28.8947 17.1348 28.8947 17.2043C28.8947 17.2738 28.8947 17.3781 28.8596 17.4476C28.8245 17.6214 28.8245 17.7604 28.8245 17.9342V18.1427L28.7893 18.386C28.7542 18.5251 28.7542 18.6641 28.7191 18.8031H28.3329C28.2276 18.8031 28.1223 18.8031 27.9818 18.8031H27.7361C27.4201 18.8031 27.1041 18.8031 26.7881 18.8031C26.1562 18.8031 25.5242 18.8031 24.9274 18.8031C24.2954 18.8379 23.6985 18.7684 23.1017 18.8031C22.5048 18.8379 21.908 18.7684 21.3111 18.8031C20.7143 18.8379 20.1174 18.8379 19.5557 18.8031C18.9939 18.8031 18.3971 18.6988 17.8354 18.8031C17.2736 18.8379 16.7119 18.9421 16.1852 18.8031C15.6235 18.8379 15.0969 18.7336 14.5702 18.8031C14.0436 18.6988 13.5169 18.8031 12.9903 18.8031C12.4637 18.7684 11.9722 18.7684 11.4806 18.8031C10.9891 18.8379 10.4976 18.7684 10.0412 18.8031C9.58475 18.8726 9.09322 18.7336 8.67191 18.8031C8.2155 18.8031 7.79419 18.8031 7.33777 18.8031C6.91646 18.9421 6.49516 18.8031 6.07385 18.8031C5.65254 18.7684 5.26634 18.8726 4.88015 18.8031C4.49395 18.9074 4.14286 18.8031 3.79177 18.8031C3.44068 18.7684 3.08959 18.8379 2.77361 18.8031C2.45763 18.8726 2.14165 18.7684 1.82567 18.8031C1.50969 18.7684 1.22881 18.8031 0.983051 18.8031C0.912833 18.8031 0.842615 18.8031 0.772397 18.8031C0.737288 18.8031 0.702179 18.8031 0.66707 18.8031C0.631961 18.8031 0.596852 18.8031 0.561743 18.8031C0.456416 18.8031 0.386199 18.8031 0.280872 18.8031H0.210654V18.7684C0.210654 18.7336 0.210654 18.6988 0.210654 18.6293C0.175545 18.4903 0.175545 18.3513 0.140436 18.247C0.140436 18.1775 0.105327 18.1427 0.105327 18.0732C0.105327 18.0037 0.105327 17.969 0.0702179 17.8995C0.035109 17.7604 0.035109 17.5866 0.035109 17.4476C0.035109 17.3781 0.035109 17.3086 0.035109 17.2391C0.035109 17.1696 0.035109 17.1001 0.035109 17.0653C0.035109 16.961 0.035109 16.822 0.035109 16.7177C0.035109 16.6135 0.035109 16.5092 0.035109 16.4397C-3.48495e-09 15.9531 0.035109 15.7793 0.035109 15.7793Z" fill="#73523F"/>
<path d="M8.28572 26.7275C8.28572 26.7623 8.14528 26.7623 7.89952 26.6928C7.86441 26.6928 7.8293 26.658 7.75908 26.658C7.72397 26.658 7.65375 26.658 7.61864 26.6233C7.58354 26.5538 7.47821 26.658 7.4431 26.5538C7.40799 26.519 7.33777 26.519 7.26756 26.4842C7.19734 26.4842 7.16223 26.4147 7.0569 26.4147C6.95157 26.4842 6.95157 26.2757 6.84625 26.3452C6.77603 26.3452 6.70581 26.3105 6.63559 26.241C6.60048 26.1367 6.49516 26.1714 6.38983 26.1367C6.35472 26.0672 6.35472 26.0324 6.2845 26.0324C6.24939 26.0324 6.2494 26.0324 6.21429 26.0324C6.21429 26.0324 6.17918 26.0324 6.17918 26.0672C6.17918 25.9281 6.07385 25.8934 6.07385 26.0324C6.07385 26.0324 6.03874 25.9977 6.00363 25.9977C5.96852 25.9977 5.96852 25.9629 5.96852 25.9977V26.0324C5.96852 26.0672 5.96852 26.0672 5.96852 26.0672C6.03874 26.1714 6.03874 26.1367 5.96852 26.1367H6.00363V26.1714C6.00363 26.2062 6.00363 26.241 6.00363 26.241C6.00363 26.3105 5.96852 26.3452 5.96852 26.4147C5.93341 26.519 6.03874 26.6233 5.96852 26.7275C5.96852 26.8318 6.00363 26.9361 5.96852 27.0751C5.93341 27.1794 5.89831 27.3184 5.96852 27.4227C6.00363 27.5269 6.00363 27.666 5.96852 27.7702C6.07385 27.8745 6.00363 28.0135 5.96852 28.1178C5.96852 28.2568 5.93341 28.3611 5.96852 28.5001C5.96852 28.6391 6.00363 28.7434 5.96852 28.8824C5.93341 29.0214 5.89831 29.1257 5.96852 29.2647L5.93341 29.2995C5.89831 29.3343 5.93341 29.3343 5.96852 29.3343C5.96852 29.3343 5.96852 29.3343 6.00363 29.2995C6.00363 29.2995 6.00363 29.2995 6.03874 29.2995C6.14407 29.2995 6.2845 29.3343 6.38983 29.2995C6.49516 29.2995 6.63559 29.2647 6.74092 29.2995C6.84625 29.1605 6.98668 29.3343 7.09201 29.2995C7.19734 29.369 7.30266 29.2995 7.40799 29.2995C7.51332 29.2647 7.61864 29.369 7.72397 29.2995C7.75908 29.2995 7.79419 29.2995 7.79419 29.2995H7.8293C7.8293 29.2995 7.8293 29.2995 7.86441 29.3343C7.86441 29.2995 7.86441 29.3343 7.89952 29.3343C7.89952 29.3343 7.93463 29.3343 7.89952 29.2995V29.2647C7.89952 29.23 7.89952 29.23 7.89952 29.1952C8.00484 29.091 7.93463 29.0214 7.89952 28.9172C7.89952 28.8129 7.8293 28.7434 7.89952 28.6391C7.89952 28.5696 7.96973 28.4653 7.89952 28.3958C7.89952 28.3263 8.03995 28.2221 7.89952 28.1525C7.86441 28.083 8.00484 28.0135 7.89952 27.944C7.8293 27.8745 7.89952 27.805 7.89952 27.7355C7.89952 27.666 7.89952 27.5964 7.89952 27.5617C8.18039 27.0403 8.25061 26.7275 8.28572 26.7275C8.35593 26.7275 8.42615 27.1099 8.46126 27.7702C8.46126 27.8397 8.53148 27.9093 8.46126 27.9788C8.46126 28.0483 8.53148 28.1178 8.46126 28.1873C8.56659 28.2568 8.49637 28.3263 8.46126 28.4306C8.46126 28.5001 8.42615 28.6044 8.46126 28.6739C8.53148 28.7434 8.42615 28.8477 8.46126 28.9519C8.39104 29.0562 8.42615 29.1257 8.46126 29.23C8.46126 29.2647 8.42615 29.2647 8.42615 29.2995C8.42615 29.2995 8.42615 29.2995 8.42615 29.3343V29.369C8.42615 29.4038 8.42615 29.4038 8.42615 29.4385C8.42615 29.508 8.46126 29.6123 8.46126 29.6818C8.42615 29.7513 8.42615 29.7861 8.42615 29.8904C8.35593 29.8904 8.28572 29.9251 8.18039 29.9599C8.11017 29.9599 8.00484 29.9599 7.89952 29.9599H7.79419C7.75908 29.9599 7.75908 29.9599 7.72397 29.9599C7.61864 29.9599 7.51332 29.9946 7.40799 29.9599C7.30266 29.9946 7.19734 30.0294 7.09201 29.9599C6.98668 29.9946 6.88136 29.9599 6.74092 29.9599C6.63559 29.9946 6.49516 29.9599 6.38983 29.9599C6.2845 29.9946 6.14407 29.8556 6.03874 29.9599H5.96852C5.89831 29.9599 5.8632 29.9599 5.79298 29.9599C5.68765 29.9599 5.58232 29.9599 5.44189 29.9599H5.40678C5.40678 29.7166 5.44189 29.508 5.40678 29.2995C5.51211 29.1605 5.44189 29.0562 5.40678 28.9172C5.37167 28.7782 5.40678 28.6739 5.40678 28.5349C5.40678 28.3958 5.40678 28.2916 5.40678 28.1525C5.37167 28.0135 5.44189 27.9093 5.40678 27.805C5.37167 27.7007 5.44189 27.5617 5.40678 27.4574C5.37167 27.3532 5.37167 27.2141 5.40678 27.1099C5.40678 27.0056 5.51211 26.8666 5.40678 26.7623C5.37167 26.658 5.26634 26.5538 5.40678 26.4495C5.40678 26.38 5.40678 26.3452 5.40678 26.2757C5.40678 26.2409 5.40678 26.2062 5.40678 26.2062V26.1714C5.40678 26.1367 5.40678 26.1367 5.40678 26.1019C5.44189 26.0324 5.44189 25.9281 5.44189 25.8586C5.44189 25.7544 5.40678 25.6501 5.40678 25.5806C5.40678 25.5111 5.44189 25.4416 5.44189 25.372C5.44189 25.3373 5.44189 25.3025 5.44189 25.233V25.1983C5.44189 25.1983 5.44189 25.1983 5.477 25.1983H5.51211C5.54722 25.1983 5.65254 25.233 5.72276 25.3025C5.79298 25.372 5.8632 25.4068 5.93341 25.4416C6.00363 25.4416 6.07385 25.5111 6.14407 25.5458C6.21429 25.6153 6.24939 25.6501 6.31961 25.6501C6.35472 25.6849 6.38983 25.6849 6.42494 25.7196H6.46005C6.49516 25.7544 6.53027 25.7544 6.56538 25.7891C6.70581 25.7196 6.70581 25.8586 6.77603 25.8934C6.84625 25.9281 6.95157 25.8934 6.98668 25.9977C7.09201 25.9281 7.12712 26.0324 7.19734 26.1019C7.23245 26.1714 7.33777 26.1019 7.37288 26.2062C7.4431 26.1714 7.47821 26.2757 7.54843 26.3105C7.58354 26.38 7.65375 26.3452 7.68886 26.38C7.75908 26.38 7.79419 26.4147 7.8293 26.4495C7.86441 26.4842 7.89952 26.4842 7.93463 26.519C8.2155 26.6233 8.32082 26.6928 8.28572 26.7275Z" fill="#73523F"/>
<path d="M23.0315 25.5458C23.0666 25.5806 22.9613 25.6848 22.7506 25.8239C22.7155 25.8586 22.6804 25.8586 22.6453 25.8934C22.6102 25.9281 22.5751 25.9629 22.5048 25.9977C22.4346 25.9977 22.4346 26.1367 22.3644 26.1019C22.2942 26.1019 22.2591 26.1714 22.1889 26.2062C22.1538 26.241 22.0484 26.2409 22.0133 26.3105C21.9782 26.4147 21.8378 26.2757 21.8027 26.4147C21.7324 26.4842 21.6622 26.4842 21.592 26.519C21.4867 26.4842 21.4516 26.5885 21.3814 26.6233C21.276 26.5885 21.2058 26.658 21.1356 26.7275C20.9952 26.658 20.9249 26.6928 20.8898 26.8318C20.8547 26.8318 20.8547 26.8318 20.8196 26.8666H20.7845C20.7494 26.8666 20.7494 26.8666 20.7494 26.9013V26.9708C20.8196 27.0751 20.8196 27.1794 20.7494 27.2836C20.8196 27.3879 20.7845 27.4922 20.7494 27.5964C20.7143 27.7007 20.8196 27.805 20.7494 27.9092C20.7494 28.0135 20.7845 28.1178 20.7494 28.2568C20.7143 28.3611 20.6792 28.5001 20.7494 28.6044C20.7845 28.7086 20.7845 28.8477 20.7494 28.9519C20.7845 29.0214 20.8196 29.0562 20.8196 29.1257C20.8196 29.1952 20.7845 29.2647 20.7845 29.2647C20.7845 29.2647 20.7845 29.2647 20.7845 29.2995V29.3343C20.7845 29.3343 20.8196 29.3343 20.8196 29.2995H20.8898C20.9249 29.2995 20.96 29.2995 20.9952 29.2995C21.1356 29.3343 21.2409 29.369 21.3814 29.2995C21.5218 29.23 21.6271 29.3343 21.7676 29.2995C21.908 29.369 22.0133 29.2647 22.1186 29.2995C22.224 29.2995 22.3644 29.3343 22.4697 29.2995C22.54 29.2995 22.5751 29.2995 22.6453 29.2647C22.6804 29.2647 22.7155 29.2647 22.7506 29.2647C22.7506 29.1952 22.7506 29.1952 22.7506 29.23C22.7506 29.23 22.7857 29.2647 22.8208 29.2647C22.8559 29.2647 22.8559 29.2647 22.8559 29.23C22.8559 29.23 22.8559 29.23 22.8559 29.1952V29.1605C22.8208 29.0562 22.9261 28.9519 22.8559 28.8477C22.8559 28.7434 22.8208 28.6391 22.8559 28.5349C22.7857 28.4306 22.9261 28.3263 22.8559 28.2221C22.8559 28.1178 22.8559 28.0135 22.8559 27.944C22.9613 27.8397 22.8559 27.7702 22.8559 27.666C22.8559 27.5617 22.7857 27.4922 22.8559 27.3879C22.8559 27.3184 22.9261 27.2141 22.8559 27.1446C22.8559 27.0751 22.9964 26.9708 22.8559 26.9013C22.8208 26.8318 22.9613 26.7623 22.8559 26.6928C22.7857 26.6233 22.8559 26.5538 22.8559 26.4842C22.8559 26.4147 22.8559 26.3452 22.8559 26.3105C22.9261 25.8586 22.9613 25.5458 23.0315 25.5458C23.1017 25.5458 23.1719 25.9281 23.207 26.5885C23.207 26.658 23.2772 26.7275 23.207 26.7971C23.207 26.8666 23.2772 26.9361 23.207 27.0056C23.3123 27.0751 23.207 27.1446 23.207 27.2489C23.207 27.3184 23.1719 27.4227 23.207 27.4922C23.2772 27.5617 23.1719 27.666 23.207 27.7702C23.1368 27.8745 23.1719 27.944 23.207 28.0483C23.1368 28.1525 23.207 28.2221 23.207 28.3263C23.1017 28.4306 23.1719 28.5349 23.207 28.6391C23.2421 28.7434 23.207 28.8477 23.207 28.9519C23.207 29.0562 23.2421 29.1605 23.207 29.2647V29.369C23.207 29.4038 23.207 29.4733 23.207 29.5428C23.207 29.6471 23.207 29.7513 23.1719 29.8208C23.1719 29.8556 23.1719 29.8904 23.1719 29.9599C22.9964 29.9599 22.8208 29.9599 22.6453 29.9599C22.6102 29.9599 22.6102 29.9599 22.5751 29.9599C22.54 29.9599 22.54 29.9599 22.5048 29.9599C22.4697 29.9599 22.4346 29.9599 22.3995 29.9599C22.3293 29.9599 22.2942 29.9599 22.224 29.9599C22.1186 29.9946 21.9782 29.8556 21.8729 29.9599C21.7676 29.9599 21.6271 29.9599 21.5218 29.9599C21.4165 29.9599 21.276 29.9251 21.1356 29.9599C20.9952 29.8556 20.8898 29.9251 20.7494 29.9599C20.7143 29.9599 20.6792 29.9599 20.6441 29.9599C20.6441 29.9599 20.6441 29.9599 20.609 29.9599H20.4685C20.3632 29.9599 20.2228 29.9599 20.1174 29.9599C20.0472 29.9599 20.0121 29.9599 19.9419 29.9599C19.9419 29.7861 19.9419 29.6123 19.9419 29.4038C19.9419 29.2647 19.9419 29.23 19.9419 29.1605C19.9419 29.091 19.9419 29.0562 19.9419 28.9867C19.9068 28.8824 19.977 28.7434 19.9419 28.6391C19.9068 28.5349 19.9068 28.3958 19.9419 28.2916C19.9419 28.1873 20.0472 28.0483 19.9419 27.944C19.9068 27.8397 19.8015 27.7355 19.9419 27.6312C19.9068 27.5269 20.0121 27.4227 19.9419 27.3184C20.0472 27.2141 19.9419 27.1099 19.9419 27.0056C19.9419 26.9013 19.977 26.8318 19.977 26.7623C19.977 26.7275 19.977 26.6928 19.977 26.6233H20.0121L20.0472 26.5885C20.1174 26.5538 20.1877 26.519 20.293 26.4842C20.3281 26.4842 20.3281 26.4842 20.3632 26.4842H20.3983C20.4334 26.4842 20.4334 26.4842 20.4685 26.4495C20.5387 26.38 20.6792 26.4495 20.7143 26.38C20.8196 26.3452 20.8898 26.3105 20.9601 26.2757C20.9952 26.1367 21.1005 26.2062 21.2058 26.2062C21.276 26.2062 21.3111 26.0672 21.4165 26.1367C21.4516 26.0324 21.5569 26.0672 21.6271 26.0672C21.6973 26.0672 21.7324 25.9629 21.8027 25.9977C21.8378 25.8934 21.9431 25.9629 21.9782 25.9281C22.0484 25.9281 22.0835 25.8934 22.1538 25.8586C22.1889 25.8239 22.224 25.7891 22.2942 25.7891C22.3293 25.7544 22.3644 25.7544 22.4346 25.7544C22.8559 25.5458 22.9964 25.5111 23.0315 25.5458Z" fill="#73523F"/>
<path d="M25.5242 29.6123C25.5242 29.6471 25.2785 29.6818 24.822 29.7166C24.7518 29.7166 24.6816 29.7166 24.5763 29.7166C24.5061 29.7166 24.4007 29.7513 24.2954 29.7166C24.1901 29.6818 24.0847 29.8208 23.9794 29.7166C23.8741 29.6818 23.7688 29.7166 23.6283 29.7166C23.523 29.7166 23.3826 29.6818 23.2772 29.7166C23.1368 29.8208 23.0315 29.6123 22.891 29.7166C22.7506 29.7513 22.6102 29.7513 22.4697 29.7166C22.3293 29.6471 22.1889 29.7166 22.0133 29.7166C21.8729 29.6123 21.6973 29.6818 21.5569 29.7166C21.3814 29.6123 21.2409 29.6123 21.0654 29.7166C20.8898 29.7166 20.7143 29.6818 20.5387 29.7166C20.3632 29.7166 20.1877 29.7513 20.0121 29.7166C19.8366 29.7861 19.6259 29.7861 19.4504 29.7166C19.2748 29.7861 19.0642 29.7513 18.8535 29.7166C18.6429 29.6818 18.4673 29.7861 18.2567 29.7166C18.046 29.7166 17.8354 29.7513 17.6598 29.7166C17.4492 29.6818 17.2385 29.6471 17.0278 29.7166C16.8172 29.7513 16.6065 29.7513 16.3959 29.7166C16.1852 29.8208 15.9746 29.7513 15.7288 29.7166C15.5182 29.7166 15.2724 29.6818 15.0617 29.7166C14.8511 29.7166 14.6053 29.7513 14.3947 29.7166C14.184 29.6818 13.9383 29.6471 13.7276 29.7166C13.5169 29.7861 13.2712 29.6818 13.0605 29.7166C12.8499 29.6471 12.6041 29.7513 12.3935 29.7166C12.1828 29.7166 11.9722 29.6818 11.7615 29.7166C11.5508 29.7166 11.3402 29.7513 11.1295 29.7166C10.9189 29.8556 10.7082 29.6818 10.5327 29.7166C10.322 29.6471 10.1465 29.7166 9.93583 29.7166C9.72518 29.7513 9.54964 29.6471 9.33898 29.7166C9.16344 29.7166 8.95278 29.7513 8.77724 29.7166C8.6017 29.7861 8.42615 29.6471 8.25061 29.7166C8.07506 29.7166 7.89952 29.7166 7.72397 29.7166C7.54843 29.6123 7.37288 29.6818 7.23245 29.7166C7.0569 29.7166 6.91646 29.7861 6.77603 29.7166C6.63559 29.7166 6.46005 29.6471 6.31961 29.7166C6.17918 29.7166 6.03874 29.5775 5.8983 29.7166C5.75787 29.7513 5.61743 29.6123 5.51211 29.7166C5.37167 29.7861 5.26634 29.7166 5.16102 29.7166C5.05569 29.7166 4.91525 29.7166 4.80993 29.7166C3.82688 29.6818 3.30024 29.6123 3.30024 29.5775C3.30024 29.508 3.96731 29.4733 5.16102 29.4038C5.26634 29.4038 5.40678 29.3343 5.51211 29.4038C5.65254 29.4038 5.75787 29.3343 5.8983 29.4038C6.03874 29.2995 6.17918 29.4038 6.31961 29.4038C6.46005 29.4038 6.60048 29.4385 6.77603 29.4038C6.91646 29.3343 7.09201 29.4385 7.23245 29.4038C7.40799 29.4733 7.54843 29.4385 7.72397 29.4038C7.89952 29.4733 8.07506 29.4038 8.25061 29.4038C8.42615 29.508 8.6017 29.4385 8.77724 29.4038C8.95278 29.369 9.16344 29.4038 9.33898 29.4038C9.51453 29.4038 9.72518 29.369 9.93583 29.4038C10.1465 29.369 10.322 29.3343 10.5327 29.4038C10.7433 29.369 10.954 29.4038 11.1295 29.4038C11.3402 29.369 11.5508 29.4038 11.7615 29.4038C11.9722 29.369 12.1828 29.508 12.3935 29.4038C12.6041 29.4038 12.8148 29.4038 13.0605 29.4038C13.2712 29.4038 13.5169 29.4385 13.7276 29.4038C13.9383 29.508 14.184 29.4385 14.3947 29.4038C14.6053 29.369 14.8511 29.4038 15.0617 29.4038C15.2724 29.4038 15.5182 29.4038 15.7288 29.4038C15.9395 29.369 16.1852 29.4385 16.3959 29.4038C16.6065 29.369 16.8172 29.4385 17.0278 29.4038C17.2385 29.369 17.4492 29.369 17.6598 29.4038C17.8705 29.4038 18.0811 29.508 18.2567 29.4038C18.4673 29.369 18.6429 29.2647 18.8535 29.4038C19.0642 29.369 19.2397 29.4733 19.4504 29.4038C19.6259 29.508 19.8366 29.4038 20.0121 29.4038C20.1877 29.4385 20.3632 29.4385 20.5387 29.4038C20.7143 29.369 20.8898 29.4385 21.0654 29.4038C21.2409 29.3343 21.4165 29.4733 21.5569 29.4038C21.7324 29.4038 21.8729 29.4038 22.0133 29.4038C22.1538 29.2647 22.3293 29.4038 22.4697 29.4038C22.6102 29.4385 22.7506 29.2995 22.891 29.4038C23.0315 29.2995 23.1719 29.4038 23.2772 29.4038C23.4177 29.4385 23.523 29.369 23.6283 29.4038C23.7337 29.3343 23.8741 29.4385 23.9794 29.4038C24.0847 29.4385 24.1901 29.4038 24.2954 29.4038C24.4007 29.4038 24.4709 29.4038 24.5763 29.4038C24.6465 29.4038 24.7518 29.4038 24.822 29.4038C25.2785 29.5428 25.5242 29.5775 25.5242 29.6123Z" fill="#73523F"/>
<path d="M10.4625 3.99697C10.4274 3.99697 10.3923 3.75367 10.2518 3.30184C10.2167 3.23233 10.1816 3.16282 10.1816 3.05855C10.1465 3.02379 10.1465 2.98904 10.1114 2.91952C10.0763 2.88477 10.0763 2.81525 10.0412 2.7805C10.0412 2.67623 9.86562 2.64147 9.90073 2.50245C9.90073 2.43294 9.86562 2.39818 9.83051 2.36342C9.7954 2.32867 9.76029 2.25915 9.72518 2.2244C9.69007 2.18964 9.65496 2.12013 9.61986 2.08537C9.58475 2.01586 9.54964 1.9811 9.47942 1.94635C9.4092 1.91159 9.37409 1.87684 9.33898 1.80732C9.30387 1.73781 9.26877 1.6683 9.19855 1.6683C9.09322 1.59879 8.98789 1.49452 8.88257 1.39025C8.81235 1.25122 8.6368 1.21647 8.49637 1.14696C8.42615 1.00793 8.25061 0.938418 8.07506 0.938418C7.96973 0.764637 7.79419 0.695124 7.61864 0.764637C7.4431 0.729881 7.30266 0.625612 7.09201 0.660368C6.91647 0.625612 6.74092 0.660368 6.56538 0.625612C6.38983 0.695125 6.21429 0.695124 6.00363 0.660368C5.82809 0.764637 5.65254 0.764637 5.44189 0.799393C5.40678 0.799393 5.33656 0.799393 5.30145 0.834149C5.26634 0.868906 5.19613 0.868906 5.16102 0.903662C5.0908 0.938418 4.98547 1.00793 4.88015 1.00793C4.7046 1.07744 4.52906 1.21647 4.35351 1.32074C4.17797 1.42501 3.96731 1.52927 3.86199 1.73781C3.72155 1.91159 3.61622 2.08537 3.44068 2.2244C3.40557 2.36342 3.26513 2.5372 3.1247 2.71099C3.05448 2.88477 2.91404 3.0933 2.91404 3.30184C2.84383 3.51038 2.84383 3.75367 2.80872 3.96221V4.10123C2.80872 4.17075 2.80872 4.2055 2.80872 4.27502C2.80872 4.37928 2.80872 4.51831 2.84383 4.62258C2.91404 4.86587 2.80872 5.10917 2.84383 5.3177C2.77361 5.561 2.87894 5.76953 2.84383 6.01283C2.84383 6.25612 2.80872 6.46466 2.84383 6.70795C2.84383 6.91649 2.87894 7.15978 2.84383 7.36832C2.98426 7.57686 2.80872 7.82015 2.84383 8.02869C2.77361 8.23723 2.84383 8.44576 2.84383 8.6543C2.87894 8.86284 2.77361 9.07137 2.84383 9.27991C2.84383 9.48845 2.87894 9.69699 2.84383 9.87077C2.91404 10.0793 2.77361 10.2531 2.84383 10.4616C2.84383 10.6354 2.84383 10.8439 2.84383 11.0177C2.7385 11.1915 2.80872 11.3653 2.84383 11.5391C2.84383 11.7128 2.91404 11.8866 2.84383 12.0257C2.84383 12.1994 2.77361 12.3385 2.84383 12.5122C2.84383 12.6513 2.70339 12.825 2.84383 12.9641C2.87894 13.1031 2.7385 13.2421 2.84383 13.3811C2.91404 13.5202 2.84383 13.6592 2.84383 13.7635C2.84383 13.9025 2.84383 14.0068 2.84383 14.111C2.80872 15.1537 2.7385 15.7446 2.70339 15.7446C2.63317 15.7446 2.59806 15.0147 2.52785 13.7635C2.52785 13.6244 2.45763 13.5202 2.52785 13.3811C2.52785 13.2421 2.45763 13.1031 2.52785 12.9641C2.42252 12.825 2.52785 12.686 2.52785 12.5122C2.52785 12.3732 2.56295 12.1994 2.52785 12.0257C2.45763 11.8519 2.56295 11.6781 2.52785 11.5391C2.59806 11.3653 2.56295 11.1915 2.52785 11.0177C2.59806 10.8439 2.52785 10.6702 2.52785 10.4616C2.63317 10.2878 2.56295 10.0793 2.52785 9.87077C2.49274 9.66223 2.52785 9.48845 2.52785 9.27991C2.52785 9.07137 2.49274 8.86284 2.52785 8.6543C2.49274 8.44576 2.45763 8.23723 2.52785 8.02869C2.49274 7.82015 2.52785 7.61161 2.52785 7.36832C2.49274 7.15978 2.52785 6.91649 2.52785 6.70795C2.49274 6.49941 2.63317 6.25612 2.52785 6.01283C2.52785 5.76953 2.52785 5.561 2.52785 5.3177C2.52785 5.07441 2.56295 4.83112 2.52785 4.62258C2.56295 4.51831 2.59806 4.37928 2.56295 4.27502C2.56295 4.2055 2.56295 4.13599 2.52785 4.10123V3.8927C2.52785 3.61465 2.56295 3.37135 2.66828 3.12806C2.7385 2.88477 2.80872 2.64147 2.94915 2.39818C3.01937 2.15489 3.23002 1.9811 3.33535 1.73781C3.40557 1.63354 3.47579 1.52927 3.58111 1.45976C3.30024 1.42501 3.37046 1.35549 3.44068 1.25122C3.58111 1.07744 3.79177 0.903662 4.00242 0.799393C4.03753 0.799393 4.03753 0.764637 4.07264 0.764637C4.10775 0.764637 4.10775 0.729881 4.14286 0.729881C4.21308 0.695124 4.24818 0.695124 4.3184 0.660368C4.38862 0.625612 4.42373 0.625612 4.45884 0.590856C4.49395 0.5561 4.56417 0.521343 4.59927 0.486587C4.73971 0.382318 4.80993 0.312806 4.91525 0.243294C4.95036 0.208537 5.02058 0.208537 5.0908 0.173781C5.16102 0.173781 5.19613 0.173781 5.26634 0.173781C5.30145 0.139025 5.37167 0.139025 5.44189 0.139025C5.51211 0.139025 5.54722 0.139025 5.61743 0.104269C5.68765 0.104269 5.72276 0.104269 5.79298 0.0695124C5.8632 0.0695124 5.89831 0.0347562 5.96852 0.0347562C6.07385 0.0695124 6.17918 0.0695124 6.2845 0.0347562C6.31961 0.0347562 6.38983 0.0347562 6.42494 0C6.46005 0 6.53027 0 6.60048 0C6.81114 0.0347562 7.02179 0.0695124 7.19734 0.0695124C7.40799 0.0695124 7.58354 0.173781 7.75908 0.208537C7.79419 0.208537 7.86441 0.208537 7.89952 0.243294C7.93463 0.27805 7.96973 0.27805 8.03995 0.312806C8.07506 0.382318 8.18039 0.451831 8.25061 0.451831C8.42615 0.5561 8.6017 0.625612 8.74213 0.729881C8.84746 0.729881 8.91768 0.764637 8.98789 0.834149C9.05811 0.903662 9.09322 0.973174 9.16344 1.04269C9.26877 1.14696 9.47942 1.18171 9.51453 1.35549C9.61986 1.39025 9.65496 1.42501 9.69007 1.49452C9.72518 1.56403 9.76029 1.63354 9.7954 1.70306C9.7954 1.77257 9.83051 1.80732 9.90073 1.87684C9.93584 1.91159 9.97095 1.9811 10.0061 2.05062C10.0763 2.08537 10.1114 2.15489 10.1114 2.2244C10.1465 2.29391 10.1465 2.36342 10.1816 2.39818C10.1816 2.5372 10.2869 2.60672 10.322 2.71099C10.3571 2.74574 10.3571 2.81525 10.3923 2.85001C10.3923 2.88477 10.4274 2.95428 10.4274 2.98904C10.4625 3.0933 10.4625 3.16282 10.4976 3.23233C10.5327 3.71892 10.4976 3.99697 10.4625 3.99697Z" fill="#73523F"/>
<path d="M12.885 5.14392C12.885 5.17868 12.8148 5.24819 12.6392 5.3177C12.6041 5.3177 12.569 5.35246 12.5339 5.35246C12.4988 5.38722 12.4637 5.38722 12.4286 5.38722C12.3935 5.35246 12.3584 5.49148 12.3232 5.42197C12.2881 5.42197 12.2179 5.45673 12.1828 5.45673C12.1477 5.49148 12.0775 5.45673 12.0424 5.52624C12.0073 5.63051 11.9019 5.45673 11.9019 5.59575C11.8668 5.63051 11.7966 5.63051 11.7264 5.66527C11.6562 5.59575 11.6211 5.70002 11.5508 5.73478C11.4806 5.66526 11.4104 5.73478 11.3753 5.80429C11.27 5.70002 11.1998 5.73478 11.1646 5.8738C11.0944 5.90856 11.0242 5.8738 10.954 5.94332C10.8838 5.97807 10.8136 6.01283 10.7433 6.01283C10.6731 6.1171 10.6029 6.1171 10.5327 6.08234C10.4625 6.18661 10.3923 6.18661 10.2869 6.15185C10.1816 6.1171 10.1465 6.25612 10.0412 6.22136C10.0061 6.22136 9.97094 6.25612 9.93583 6.25612C9.90073 6.25612 9.90073 6.25612 9.86562 6.29088H9.83051C9.83051 6.29088 9.7954 6.29088 9.76029 6.29088C9.69007 6.29088 9.61985 6.29088 9.54964 6.29088C9.47942 6.29088 9.4092 6.32563 9.30387 6.39515C9.26877 6.39515 9.23366 6.4299 9.16344 6.4299L9.12833 6.46466V6.4299C9.09322 6.36039 9.09322 6.25612 9.09322 6.18661C9.023 6.15185 9.023 6.04758 9.023 5.97807C9.023 5.94332 9.023 5.8738 9.023 5.83905C9.023 5.80429 9.05811 5.73478 9.05811 5.70002V5.66527C9.05811 5.66527 9.05811 5.66527 9.05811 5.63051V5.59575C9.05811 5.561 9.05811 5.52624 9.05811 5.52624C9.05811 5.45673 9.09322 5.42197 9.05811 5.35246C9.09322 5.24819 9.05811 5.14392 9.12833 5.03965C9.12833 5.0049 9.16344 5.0049 9.16344 4.97014C9.16344 4.93538 9.19855 4.93538 9.19855 4.90063C9.23366 4.86587 9.23366 4.79636 9.23366 4.72685C9.23366 4.65733 9.26877 4.62258 9.30387 4.58782C9.33898 4.55307 9.37409 4.51831 9.4092 4.4488C9.47942 4.41404 9.51453 4.37928 9.51453 4.34453C9.51453 4.30977 9.54964 4.30977 9.54964 4.27502C9.54964 4.24026 9.58475 4.24026 9.61985 4.2055C9.69007 4.13599 9.7954 4.10123 9.86562 3.99697C9.93584 3.92745 10.0061 3.85794 10.1114 3.82318C10.1114 3.75367 10.1816 3.71892 10.2167 3.71892C10.2869 3.71892 10.322 3.71892 10.3571 3.68416C10.4274 3.68416 10.4625 3.68416 10.4976 3.6494C10.5327 3.61465 10.5678 3.61465 10.638 3.61465C10.6731 3.57989 10.7433 3.61465 10.7785 3.61465C10.8136 3.61465 10.8838 3.61465 10.9189 3.57989C11.0242 3.57989 11.0944 3.51038 11.1998 3.57989C11.2349 3.54514 11.3051 3.57989 11.3402 3.57989C11.3753 3.61465 11.4104 3.61465 11.4806 3.61465C11.5508 3.61465 11.6562 3.6494 11.7264 3.68416C11.7615 3.75367 11.7966 3.75367 11.8317 3.75367C11.8668 3.75367 11.9019 3.75367 11.937 3.75367C12.0073 3.78843 12.1126 3.75367 12.1477 3.85794L12.2179 3.92745C12.253 3.96221 12.2881 3.96221 12.3232 3.96221C12.3584 3.96221 12.3584 4.03172 12.3584 4.06648C12.3584 4.10123 12.3935 4.13599 12.4637 4.10123C12.4988 4.10123 12.4988 4.13599 12.4988 4.17075C12.4988 4.2055 12.5339 4.24026 12.569 4.2055C12.6041 4.2055 12.6392 4.2055 12.6392 4.24026C12.6392 4.27502 12.6392 4.30977 12.6743 4.34453C12.7094 4.37928 12.7446 4.41404 12.7446 4.48355C12.8148 4.58782 12.8499 4.65733 12.885 4.72685C12.9201 4.79636 12.9201 4.86587 12.9552 4.93538C12.9201 5.07441 12.9201 5.14392 12.885 5.14392C12.8499 5.14392 12.8148 5.10917 12.7446 5.0049C12.6743 4.90063 12.569 4.7616 12.3935 4.58782C12.3935 4.58782 12.3584 4.55307 12.3232 4.55307C12.2881 4.55307 12.2881 4.55307 12.2881 4.51831C12.253 4.48355 12.1828 4.48355 12.1828 4.41404C12.1477 4.4488 12.1126 4.41404 12.0775 4.41404C12.0775 4.37928 12.0424 4.34453 12.0424 4.34453C12.0073 4.34453 12.0073 4.30977 11.9722 4.30977C11.9722 4.30977 11.937 4.30977 11.937 4.27502H11.9019C11.8317 4.30977 11.7966 4.2055 11.7264 4.2055C11.7264 4.17075 11.6913 4.13599 11.6562 4.13599C11.6211 4.13599 11.586 4.13599 11.5508 4.17075C11.5157 4.10123 11.4104 4.17075 11.3753 4.13599C11.3402 4.10123 11.3051 4.06648 11.27 4.10123C11.2349 4.10123 11.1998 4.13599 11.1646 4.13599C11.0944 4.17075 11.0242 4.13599 10.954 4.17075C10.9189 4.17075 10.8838 4.17075 10.8487 4.17075C10.8136 4.17075 10.7785 4.2055 10.7433 4.2055C10.7082 4.24026 10.6731 4.24026 10.638 4.27502C10.6029 4.27502 10.5678 4.27502 10.5327 4.27502C10.4625 4.34453 10.3923 4.34453 10.3571 4.37928C10.322 4.4488 10.2167 4.4488 10.1816 4.51831C10.1465 4.55307 10.1114 4.55307 10.0763 4.55307C10.0412 4.55307 10.0061 4.58782 10.0061 4.65733L9.93583 4.72685C9.90073 4.7616 9.86562 4.79636 9.86562 4.83112C9.83051 4.86587 9.7954 4.90063 9.7954 4.93538C9.76029 4.97014 9.76029 5.0049 9.76029 5.03965C9.69007 5.03965 9.69007 5.07441 9.65496 5.14392C9.65496 5.17868 9.65496 5.17868 9.65496 5.21343C9.65496 5.24819 9.65496 5.24819 9.65496 5.28295C9.65496 5.35246 9.61985 5.42197 9.58475 5.52624C9.58475 5.561 9.58475 5.59575 9.58475 5.63051C9.58475 5.66527 9.58475 5.66526 9.58475 5.70002V5.73478C9.58475 5.73478 9.58475 5.73478 9.58475 5.76953C9.61985 5.76953 9.58475 5.76953 9.58475 5.80429C9.61985 5.76953 9.61985 5.76953 9.61985 5.80429H9.65496C9.69007 5.80429 9.69007 5.80429 9.72518 5.80429C9.76029 5.80429 9.7954 5.80429 9.83051 5.73478C9.90073 5.70002 9.97094 5.561 10.0763 5.66527C10.1465 5.59575 10.2518 5.70002 10.322 5.59575C10.4274 5.66527 10.4625 5.561 10.5678 5.561C10.638 5.561 10.7433 5.561 10.7785 5.52624C10.8487 5.45673 10.9189 5.52624 10.9891 5.49148C11.0593 5.42197 11.1295 5.52624 11.1998 5.45673C11.27 5.45673 11.3402 5.42197 11.4104 5.42197C11.4455 5.28295 11.5508 5.38722 11.586 5.38722C11.6562 5.38722 11.6913 5.28295 11.7615 5.35246C11.7966 5.24819 11.8668 5.3177 11.937 5.3177C12.0073 5.3177 12.0424 5.24819 12.0775 5.28295C12.1126 5.21343 12.1828 5.28295 12.2179 5.24819C12.2881 5.28295 12.2881 5.21343 12.3584 5.21343C12.3935 5.17868 12.4286 5.17868 12.4637 5.21343C12.4988 5.21343 12.5339 5.21343 12.569 5.21343C12.7797 5.10917 12.885 5.10917 12.885 5.14392Z" fill="#73523F"/>
<path d="M10.8487 7.95918C10.8136 7.99393 10.7785 7.99393 10.7433 7.99393C10.7433 7.99393 10.7433 7.99393 10.7082 7.99393H10.6731C10.7082 7.95918 10.6029 8.02869 10.638 7.99393C10.638 7.95918 10.638 7.99393 10.6029 7.99393C10.5678 7.99393 10.6029 7.95918 10.5678 7.99393C10.4976 8.02869 10.638 7.92442 10.5327 7.99393C10.4976 7.99393 10.4976 7.99393 10.4976 7.99393C10.5678 7.95918 10.4976 7.99393 10.4625 7.99393C10.5327 7.92442 10.4976 7.95918 10.4274 7.95918C10.5327 7.88966 10.4976 7.88966 10.3923 7.92442C10.3923 7.92442 10.4274 7.88966 10.3571 7.88966C10.3571 7.88966 10.322 7.88966 10.322 7.85491C10.2518 7.88966 10.2518 7.88966 10.2869 7.82015C10.2167 7.85491 10.2167 7.82015 10.2518 7.78539C10.2869 7.75064 10.1816 7.82015 10.2167 7.75064C10.2167 7.75064 10.1816 7.75064 10.1816 7.71588C10.2167 7.68113 10.2167 7.64637 10.1465 7.68113C10.1114 7.68113 10.0763 7.68113 10.1114 7.64637C10.0412 7.68113 10.0412 7.64637 10.0763 7.61161C10.0412 7.61161 10.1114 7.57686 10.0412 7.57686C10.0412 7.5421 10.0061 7.57686 10.0061 7.5421C10.0061 7.50734 10.0412 7.47259 9.97094 7.50735C9.90073 7.5421 9.97094 7.47259 9.93583 7.47259C10.0061 7.40308 9.90073 7.47259 9.90073 7.43783C9.90073 7.43783 9.93584 7.40308 9.86562 7.40308C9.83051 7.40308 9.83051 7.40308 9.83051 7.36832C9.72518 7.43783 9.83051 7.33356 9.83051 7.33356C9.86562 7.29881 9.7954 7.33356 9.83051 7.29881C9.7954 7.29881 9.86562 7.22929 9.83051 7.26405C9.83051 7.26405 9.7954 7.26405 9.83051 7.22929C9.76029 7.26405 9.86562 7.19454 9.83051 7.19454C9.83051 7.19454 9.83051 7.19454 9.83051 7.15978C9.90073 7.09027 9.83051 7.12503 9.83051 7.12503C9.83051 7.12503 9.76029 7.12503 9.83051 7.09027C9.83051 7.09027 9.86562 7.05551 9.83051 7.05551C9.7954 7.05551 9.93583 6.95125 9.83051 7.02076C9.7954 7.02076 9.90073 6.95124 9.83051 6.986C9.76029 7.02076 9.83051 6.95124 9.83051 6.95124C9.83051 6.95124 9.83051 6.95124 9.83051 6.91649C9.83051 6.84698 9.86562 6.77746 9.90073 6.74271C9.93584 6.70795 10.0412 6.70795 10.1114 6.74271C10.1114 6.74271 10.1816 6.70795 10.1465 6.74271C10.1465 6.74271 10.2167 6.70795 10.1816 6.74271C10.2518 6.70795 10.2167 6.74271 10.2167 6.74271C10.2167 6.74271 10.2167 6.77746 10.2518 6.74271C10.2869 6.70795 10.2518 6.77746 10.2869 6.77746C10.2518 6.81222 10.2518 6.81222 10.322 6.81222C10.2869 6.84698 10.3571 6.81222 10.3571 6.84698C10.2869 6.91649 10.3571 6.88173 10.3923 6.88173C10.4274 6.88173 10.3923 6.91649 10.4274 6.91649C10.4274 6.95124 10.4625 6.91649 10.4625 6.95124C10.4976 6.95124 10.5327 6.95124 10.4976 6.986C10.5327 6.986 10.5327 7.02076 10.5327 7.02076C10.5678 7.02076 10.5327 7.05551 10.5678 7.05551C10.6029 7.05551 10.4976 7.12503 10.6029 7.09027C10.638 7.09027 10.6029 7.12503 10.638 7.12503C10.638 7.15978 10.638 7.15978 10.6731 7.15978C10.6029 7.22929 10.6731 7.19454 10.7082 7.19454C10.7433 7.19454 10.7433 7.19454 10.7433 7.22929L10.7785 7.26405C10.8136 7.26405 10.7433 7.29881 10.8136 7.29881C10.8487 7.29881 10.7785 7.33356 10.8487 7.33356C10.8838 7.33356 10.8838 7.33356 10.8838 7.36832C10.8838 7.36832 10.8136 7.43783 10.8838 7.40308C10.9189 7.40308 10.9891 7.36832 10.8838 7.43783C10.9189 7.43783 10.8487 7.50734 10.8838 7.47259C10.8136 7.5421 10.8838 7.50735 10.8838 7.50735C10.8838 7.5421 10.8487 7.5421 10.8838 7.5421C10.9189 7.5421 10.8838 7.57686 10.8838 7.57686C10.9189 7.5421 10.8487 7.64637 10.8838 7.61161C10.8838 7.61161 10.9189 7.61161 10.8838 7.64637C10.9891 7.57686 10.8838 7.64637 10.8838 7.68113C10.8838 7.71588 10.954 7.64637 10.8838 7.71588C10.9891 7.68113 10.9189 7.71588 10.8838 7.75064C10.8487 7.78539 10.9189 7.75064 10.8838 7.78539C10.954 7.75064 10.8487 7.82015 10.8838 7.82015C10.8487 7.85491 10.8838 7.82015 10.8838 7.85491C10.8838 7.85491 10.8838 7.85491 10.8838 7.88966C10.8838 7.88966 10.8838 7.88966 10.8838 7.92442L10.8487 7.95918Z" fill="#73523F"/>
<path d="M12.253 8.34149C12.2179 8.37625 12.1828 8.37625 12.1477 8.37625C12.1477 8.37625 12.1477 8.37625 12.1126 8.37625H12.0775C12.1126 8.34149 12.0073 8.41101 12.0424 8.37625C12.0424 8.34149 12.0424 8.37625 12.0073 8.37625C11.9722 8.37625 12.0073 8.34149 11.9722 8.37625C11.9019 8.41101 12.0424 8.30674 11.937 8.37625C11.9019 8.37625 11.9019 8.37625 11.9019 8.37625C11.9722 8.34149 11.9019 8.37625 11.8668 8.37625C11.937 8.30674 11.9019 8.34149 11.8317 8.34149C11.937 8.27198 11.9019 8.27198 11.7966 8.30674C11.7966 8.30674 11.8317 8.27198 11.7615 8.27198C11.7615 8.27198 11.7264 8.27198 11.7264 8.23722C11.6562 8.27198 11.6562 8.27198 11.6913 8.20247C11.6211 8.23723 11.6211 8.20247 11.6562 8.16771C11.6913 8.13296 11.586 8.20247 11.6211 8.13296C11.6211 8.13296 11.586 8.13296 11.586 8.0982C11.6211 8.06345 11.6211 8.02869 11.5508 8.06344C11.5157 8.06344 11.4806 8.06344 11.5157 8.02869C11.4455 8.06344 11.4455 8.02869 11.4806 7.99393C11.4455 7.99393 11.5157 7.95918 11.4455 7.95918C11.4455 7.92442 11.4104 7.95918 11.4104 7.92442C11.4104 7.88966 11.4455 7.85491 11.3753 7.88966C11.3051 7.92442 11.3753 7.85491 11.3402 7.85491C11.4104 7.78539 11.3051 7.85491 11.3051 7.82015C11.3051 7.82015 11.3402 7.78539 11.27 7.78539C11.2349 7.78539 11.2349 7.78539 11.2349 7.75064C11.1295 7.82015 11.2349 7.71588 11.2349 7.71588C11.27 7.68113 11.1998 7.71588 11.2349 7.68113C11.1998 7.68113 11.27 7.61161 11.2349 7.64637C11.2349 7.64637 11.1998 7.64637 11.2349 7.61161C11.1646 7.64637 11.27 7.57686 11.2349 7.57686C11.2349 7.57686 11.2349 7.57686 11.2349 7.5421C11.3051 7.47259 11.2349 7.50734 11.2349 7.50734C11.2349 7.50734 11.1646 7.50734 11.2349 7.47259C11.2349 7.47259 11.27 7.43783 11.2349 7.43783C11.1998 7.43783 11.3402 7.33356 11.2349 7.40308C11.1998 7.40308 11.3051 7.33356 11.2349 7.36832C11.1646 7.40308 11.2349 7.33356 11.2349 7.33356C11.2349 7.33356 11.2349 7.33356 11.2349 7.29881C11.2349 7.22929 11.27 7.15978 11.3051 7.12503C11.3402 7.09027 11.4455 7.09027 11.5157 7.12503C11.5157 7.12503 11.586 7.09027 11.5508 7.12503C11.5508 7.12503 11.6211 7.09027 11.586 7.12503C11.6562 7.09027 11.6211 7.12503 11.6211 7.12503C11.6211 7.12503 11.6211 7.15978 11.6562 7.12503C11.6913 7.09027 11.6562 7.15978 11.6913 7.15978C11.6562 7.19454 11.6562 7.19454 11.7264 7.19454C11.6913 7.22929 11.7615 7.19454 11.7615 7.22929C11.6913 7.29881 11.7615 7.26405 11.7966 7.26405C11.8317 7.26405 11.7966 7.29881 11.8317 7.29881C11.8317 7.33356 11.8668 7.29881 11.8668 7.33356C11.9019 7.33356 11.937 7.33356 11.9019 7.36832C11.937 7.36832 11.937 7.40308 11.937 7.40308C11.9722 7.40308 11.937 7.43783 11.9722 7.43783C12.0073 7.43783 11.9019 7.50734 12.0073 7.47259C12.0424 7.47259 12.0073 7.50734 12.0424 7.50734C12.0424 7.5421 12.0424 7.5421 12.0775 7.5421C12.0073 7.61161 12.0775 7.57686 12.1126 7.57686C12.1477 7.57686 12.1477 7.57686 12.1477 7.61161L12.1828 7.64637C12.2179 7.64637 12.1477 7.68113 12.2179 7.68113C12.253 7.68113 12.1828 7.71588 12.253 7.71588C12.2881 7.71588 12.2881 7.71588 12.2881 7.75064C12.2881 7.75064 12.2179 7.82015 12.2881 7.78539C12.3232 7.78539 12.3935 7.75064 12.2881 7.82015C12.3232 7.82015 12.253 7.88966 12.2881 7.85491C12.2179 7.92442 12.2881 7.88966 12.2881 7.88966C12.2881 7.92442 12.253 7.92442 12.2881 7.92442C12.3232 7.92442 12.2881 7.95918 12.2881 7.95918C12.3232 7.92442 12.253 8.02869 12.2881 7.99393C12.2881 7.99393 12.3232 7.99393 12.2881 8.02869C12.3935 7.95918 12.2881 8.02869 12.2881 8.06344C12.2881 8.0982 12.3584 8.02869 12.2881 8.0982C12.3935 8.06345 12.3232 8.0982 12.2881 8.13296C12.253 8.16771 12.3232 8.13296 12.2881 8.16771C12.3584 8.13296 12.253 8.20247 12.2881 8.20247C12.253 8.23723 12.2881 8.20247 12.2881 8.23722C12.2881 8.23722 12.2881 8.23723 12.2881 8.27198C12.2881 8.27198 12.2881 8.27198 12.2881 8.30674C12.2881 8.30674 12.2881 8.34149 12.253 8.34149Z" fill="#73523F"/>
<path d="M14.1138 7.09027C14.0787 7.12503 14.0436 7.12503 14.0085 7.12503C14.0085 7.12503 14.0085 7.12503 13.9734 7.12503H13.9383C13.9734 7.09027 13.868 7.15978 13.9031 7.12503C13.9031 7.09027 13.9031 7.12503 13.868 7.12503C13.8329 7.12503 13.868 7.09027 13.8329 7.12503C13.7627 7.15978 13.9031 7.05551 13.7978 7.12503C13.7627 7.12503 13.7627 7.12503 13.7627 7.12503C13.8329 7.09027 13.7627 7.12503 13.7276 7.12503C13.7978 7.05551 13.7627 7.09027 13.6925 7.09027C13.7978 7.02076 13.7627 7.02076 13.6574 7.05551C13.6574 7.05551 13.6925 7.02076 13.6223 7.02076C13.6223 7.02076 13.5872 7.02076 13.5872 6.986C13.5169 7.02076 13.5169 7.02076 13.5521 6.95124C13.4818 6.986 13.4818 6.95124 13.5169 6.91649C13.5521 6.88173 13.4467 6.95125 13.4818 6.88173C13.4818 6.88173 13.4467 6.88173 13.4467 6.84698C13.4818 6.81222 13.4818 6.77746 13.4116 6.81222C13.3765 6.81222 13.3414 6.81222 13.3765 6.77746C13.3063 6.81222 13.3063 6.77746 13.3414 6.74271C13.3063 6.74271 13.3765 6.70795 13.3063 6.70795C13.3063 6.6732 13.2712 6.70795 13.2712 6.6732C13.2712 6.63844 13.3063 6.60368 13.2361 6.63844C13.1659 6.6732 13.2361 6.60368 13.201 6.60368C13.2712 6.53417 13.1659 6.60368 13.1659 6.56893C13.1659 6.56893 13.201 6.53417 13.1308 6.53417C13.0956 6.53417 13.0956 6.53417 13.0956 6.49941C12.9903 6.56893 13.0956 6.46466 13.0956 6.46466C13.1307 6.4299 13.0605 6.46466 13.0956 6.4299C13.0605 6.4299 13.1307 6.36039 13.0956 6.39515C13.0956 6.39515 13.0605 6.39515 13.0956 6.36039C13.0254 6.39515 13.1307 6.32563 13.0956 6.32563C13.0956 6.32563 13.0956 6.32563 13.0956 6.29088C13.1659 6.22136 13.0956 6.25612 13.0956 6.25612C13.0956 6.25612 13.0254 6.25612 13.0956 6.22136C13.0956 6.22136 13.1307 6.18661 13.0956 6.18661C13.0605 6.18661 13.201 6.08234 13.0956 6.15185C13.0605 6.15185 13.1659 6.08234 13.0956 6.1171C13.0254 6.15185 13.0956 6.08234 13.0956 6.08234C13.0956 6.08234 13.0956 6.08234 13.0956 6.04758C13.0956 5.97807 13.1308 5.90856 13.1659 5.8738C13.201 5.83905 13.3063 5.83905 13.3765 5.8738C13.3765 5.8738 13.4467 5.83905 13.4116 5.8738C13.4116 5.8738 13.4818 5.83905 13.4467 5.8738C13.5169 5.83905 13.4818 5.8738 13.4818 5.8738C13.4818 5.8738 13.4818 5.90856 13.5169 5.8738C13.5521 5.83905 13.5169 5.90856 13.5521 5.90856C13.5169 5.94331 13.5169 5.94332 13.5872 5.94332C13.5521 5.97807 13.6223 5.94332 13.6223 5.97807C13.5521 6.04758 13.6223 6.01283 13.6574 6.01283C13.6925 6.01283 13.6574 6.04758 13.6925 6.04758C13.6925 6.08234 13.7276 6.04758 13.7276 6.08234C13.7627 6.08234 13.7978 6.08234 13.7627 6.1171C13.7978 6.1171 13.7978 6.15185 13.7978 6.15185C13.8329 6.15185 13.7978 6.18661 13.8329 6.18661C13.868 6.18661 13.7627 6.25612 13.868 6.22136C13.9031 6.22136 13.868 6.25612 13.9031 6.25612C13.9031 6.29088 13.9031 6.29088 13.9383 6.29088C13.868 6.36039 13.9383 6.32563 13.9734 6.32563C14.0085 6.32563 14.0085 6.32563 14.0085 6.36039L14.0436 6.39515C14.0787 6.39515 14.0085 6.4299 14.0787 6.4299C14.1138 6.4299 14.0436 6.46466 14.1138 6.46466C14.1489 6.46466 14.1489 6.46466 14.1489 6.49941C14.1489 6.49941 14.0787 6.56893 14.1489 6.53417C14.184 6.53417 14.2542 6.49941 14.1489 6.56893C14.184 6.56893 14.1138 6.63844 14.1489 6.60368C14.0787 6.6732 14.1489 6.63844 14.1489 6.63844C14.1489 6.6732 14.1138 6.6732 14.1489 6.6732C14.184 6.6732 14.1489 6.70795 14.1489 6.70795C14.2191 6.6732 14.1138 6.77746 14.1489 6.74271C14.1489 6.74271 14.184 6.74271 14.1489 6.77746C14.2542 6.70795 14.1489 6.77746 14.1489 6.81222C14.1489 6.84698 14.2191 6.77746 14.1489 6.84698C14.2191 6.81222 14.184 6.84698 14.1489 6.88173C14.1138 6.91649 14.184 6.88173 14.1489 6.91649C14.2191 6.88173 14.1138 6.95124 14.1489 6.95124C14.1138 6.986 14.1489 6.95125 14.1489 6.986C14.1489 6.986 14.1489 6.986 14.1489 7.02076C14.1489 7.02076 14.1489 7.02076 14.1489 7.05551C14.1489 7.02076 14.1138 7.05551 14.1138 7.09027Z" fill="#73523F"/>
<path d="M13.5872 8.48052C13.5521 8.51528 13.5169 8.51528 13.4818 8.51528C13.4818 8.51528 13.4818 8.51528 13.4467 8.51528H13.4116C13.4467 8.48052 13.3414 8.55003 13.3765 8.51528C13.3765 8.48052 13.3765 8.51528 13.3414 8.51528C13.3063 8.51528 13.3414 8.48052 13.3063 8.51528C13.2361 8.55003 13.3765 8.44576 13.2712 8.51528C13.2361 8.51528 13.2361 8.51528 13.2361 8.51528C13.3063 8.48052 13.2361 8.51528 13.201 8.51528C13.2712 8.44576 13.2361 8.48052 13.1659 8.48052C13.2712 8.41101 13.2361 8.41101 13.1308 8.44576C13.1308 8.44576 13.1659 8.41101 13.0956 8.41101C13.0956 8.41101 13.0605 8.41101 13.0605 8.37625C12.9903 8.41101 12.9903 8.41101 13.0254 8.34149C12.9552 8.37625 12.9552 8.34149 12.9903 8.30674C13.0254 8.27198 12.9201 8.34149 12.9552 8.27198C12.9552 8.27198 12.9201 8.27198 12.9201 8.23723C12.9552 8.20247 12.9552 8.16771 12.885 8.20247C12.8499 8.20247 12.8148 8.20247 12.8499 8.16771C12.7797 8.20247 12.7797 8.16771 12.8148 8.13296C12.7797 8.13296 12.8499 8.0982 12.7797 8.0982C12.7797 8.06345 12.7446 8.0982 12.7446 8.06344C12.7446 8.02869 12.7797 7.99393 12.7094 8.02869C12.6392 8.06344 12.7094 7.99393 12.6743 7.99393C12.7446 7.92442 12.6392 7.99393 12.6392 7.95918C12.6392 7.95918 12.6743 7.92442 12.6041 7.92442C12.569 7.92442 12.569 7.92442 12.569 7.88966C12.4637 7.95918 12.569 7.85491 12.569 7.85491C12.6041 7.82015 12.5339 7.85491 12.569 7.82015C12.5339 7.82015 12.6041 7.75064 12.569 7.78539C12.569 7.78539 12.5339 7.78539 12.569 7.75064C12.4988 7.78539 12.6041 7.71588 12.569 7.71588C12.569 7.71588 12.569 7.71588 12.569 7.68113C12.6392 7.61161 12.569 7.64637 12.569 7.64637C12.569 7.64637 12.4988 7.64637 12.569 7.61161C12.569 7.61161 12.6041 7.57686 12.569 7.57686C12.5339 7.57686 12.6743 7.47259 12.569 7.5421C12.5339 7.5421 12.6392 7.47259 12.569 7.50735C12.4988 7.5421 12.569 7.47259 12.569 7.47259C12.569 7.47259 12.569 7.47259 12.569 7.43783C12.569 7.36832 12.6041 7.29881 12.6392 7.26405C12.6743 7.22929 12.7797 7.22929 12.8499 7.26405C12.8499 7.26405 12.9201 7.22929 12.885 7.26405C12.885 7.26405 12.9552 7.22929 12.9201 7.26405C12.9903 7.22929 12.9552 7.26405 12.9552 7.26405C12.9552 7.26405 12.9552 7.29881 12.9903 7.26405C13.0254 7.22929 12.9903 7.29881 13.0254 7.29881C12.9903 7.33356 12.9903 7.33356 13.0605 7.33356C13.0254 7.36832 13.0956 7.33356 13.0956 7.36832C13.0254 7.43783 13.0956 7.40308 13.1308 7.40308C13.1659 7.40308 13.1308 7.43783 13.1659 7.43783C13.1659 7.47259 13.201 7.43783 13.201 7.47259C13.2361 7.47259 13.2712 7.47259 13.2361 7.50735C13.2712 7.50735 13.2712 7.5421 13.2712 7.5421C13.3063 7.5421 13.2712 7.57686 13.3063 7.57686C13.3414 7.57686 13.2361 7.64637 13.3414 7.61161C13.3765 7.61161 13.3414 7.64637 13.3765 7.64637C13.3765 7.68113 13.3765 7.68113 13.4116 7.68113C13.3414 7.75064 13.4116 7.71588 13.4467 7.71588C13.4818 7.71588 13.4818 7.71588 13.4818 7.75064L13.5169 7.78539C13.5521 7.78539 13.4818 7.82015 13.5521 7.82015C13.5872 7.82015 13.5169 7.85491 13.5872 7.85491C13.6223 7.85491 13.6223 7.85491 13.6223 7.88966C13.6223 7.88966 13.5521 7.95918 13.6223 7.92442C13.6574 7.92442 13.7276 7.88966 13.6223 7.95918C13.6574 7.95918 13.5872 8.02869 13.6223 7.99393C13.5521 8.06344 13.6223 8.02869 13.6223 8.02869C13.6223 8.06344 13.5872 8.06344 13.6223 8.06344C13.6574 8.06344 13.6223 8.0982 13.6223 8.0982C13.6574 8.06345 13.5872 8.16771 13.6223 8.13296C13.6223 8.13296 13.6574 8.13296 13.6223 8.16771C13.7276 8.0982 13.6223 8.16771 13.6223 8.20247C13.6223 8.23723 13.6925 8.16771 13.6223 8.23723C13.6925 8.20247 13.6574 8.23723 13.6223 8.27198C13.5872 8.30674 13.6574 8.27198 13.6223 8.30674C13.6925 8.27198 13.5872 8.34149 13.6223 8.34149C13.5872 8.37625 13.6223 8.34149 13.6223 8.37625C13.6223 8.37625 13.6223 8.37625 13.6223 8.41101C13.6223 8.41101 13.6223 8.41101 13.6223 8.44576C13.6574 8.44576 13.6223 8.48052 13.5872 8.48052Z" fill="#73523F"/>
<path d="M12.2179 10.1141C12.1828 10.1488 12.1477 10.1488 12.1126 10.1488C12.1126 10.1488 12.1126 10.1488 12.0775 10.1488H12.0424C12.0775 10.1141 11.9722 10.1836 12.0073 10.1488C12.0073 10.1141 12.0073 10.1488 11.9722 10.1488C11.937 10.1488 12.0073 10.1141 11.937 10.1488C11.8668 10.1836 12.0073 10.0793 11.9019 10.1488C11.8668 10.1488 11.8668 10.1488 11.8668 10.1488C11.937 10.1141 11.8668 10.1488 11.8317 10.1488C11.9019 10.0793 11.8668 10.1141 11.7966 10.1141C11.9019 10.0445 11.8668 10.0445 11.7615 10.0793C11.7615 10.0793 11.7966 10.0445 11.7264 10.0445C11.7264 10.0445 11.6913 10.0445 11.6913 10.0098C11.6211 10.0445 11.6211 10.0445 11.6562 9.97504C11.586 10.0098 11.586 9.97504 11.6211 9.94028C11.6562 9.90553 11.5508 9.97504 11.586 9.90552C11.586 9.90552 11.5508 9.90552 11.5508 9.87077C11.586 9.83601 11.586 9.80126 11.5157 9.83601C11.4806 9.83601 11.4455 9.83601 11.4806 9.80126C11.4104 9.83601 11.4104 9.80126 11.4455 9.7665C11.4104 9.7665 11.4806 9.73174 11.4104 9.73174C11.4104 9.69699 11.3753 9.73174 11.3753 9.69699C11.3753 9.66223 11.4104 9.62747 11.3402 9.66223C11.27 9.69699 11.3402 9.62747 11.3051 9.62747C11.3753 9.55796 11.27 9.62747 11.27 9.59272C11.27 9.59272 11.3051 9.55796 11.2349 9.55796C11.1998 9.55796 11.1998 9.55796 11.1998 9.52321C11.0944 9.59272 11.1998 9.48845 11.1998 9.48845C11.2349 9.45369 11.1646 9.48845 11.1998 9.45369C11.1646 9.45369 11.2349 9.38418 11.1998 9.41894C11.1998 9.41894 11.1646 9.41894 11.1998 9.38418C11.1295 9.41894 11.2349 9.34942 11.1998 9.34942C11.1998 9.34942 11.1998 9.34943 11.1998 9.31467C11.27 9.24516 11.1998 9.27991 11.1998 9.27991C11.1998 9.27991 11.1295 9.27991 11.1998 9.24516C11.1998 9.24516 11.2349 9.2104 11.1998 9.2104C11.1646 9.2104 11.3051 9.10613 11.1998 9.17564C11.1646 9.17564 11.27 9.10613 11.1998 9.14089C11.1295 9.17564 11.1998 9.10613 11.1998 9.10613C11.1998 9.10613 11.1998 9.10613 11.1998 9.07137C11.1998 9.00186 11.2349 8.93235 11.27 8.89759C11.3051 8.86284 11.4104 8.86284 11.4806 8.89759C11.4806 8.89759 11.5508 8.86284 11.5157 8.89759C11.5157 8.89759 11.586 8.86284 11.5508 8.89759C11.6211 8.86284 11.586 8.89759 11.586 8.89759C11.586 8.89759 11.586 8.93235 11.6211 8.89759C11.6562 8.86284 11.6211 8.93235 11.6562 8.93235C11.7264 9.07137 11.7264 9.07137 11.7966 9.07137C11.7615 9.10613 11.8317 9.07138 11.8317 9.10613C11.7615 9.17564 11.8317 9.14089 11.8668 9.14089C11.9019 9.14089 11.8668 9.17564 11.9019 9.17564C11.9019 9.2104 11.937 9.17564 11.937 9.2104C11.9722 9.2104 12.0073 9.2104 11.9722 9.24516C12.0073 9.24516 12.0073 9.27991 12.0073 9.27991C12.0424 9.27991 12.0073 9.31467 12.0424 9.31467C12.0775 9.31467 11.9722 9.38418 12.0775 9.34942C12.1126 9.34942 12.0775 9.38418 12.1126 9.38418C12.1126 9.41894 12.1126 9.41894 12.1477 9.41894C12.0775 9.48845 12.1477 9.45369 12.1828 9.45369C12.2179 9.45369 12.2179 9.45369 12.2179 9.48845L12.253 9.52321C12.2881 9.52321 12.2179 9.55796 12.2881 9.55796C12.3232 9.55796 12.253 9.59272 12.3232 9.59272C12.3584 9.59272 12.3584 9.59272 12.3584 9.62747C12.3584 9.62747 12.2881 9.69699 12.3584 9.66223C12.3935 9.66223 12.4637 9.62747 12.3584 9.69699C12.3935 9.69699 12.3232 9.7665 12.3584 9.73174C12.2881 9.80126 12.3584 9.7665 12.3584 9.7665C12.3584 9.80126 12.3232 9.80126 12.3584 9.80126C12.3935 9.80126 12.3584 9.83601 12.3584 9.83601C12.3935 9.80126 12.3232 9.90552 12.3584 9.87077C12.3584 9.87077 12.3935 9.87077 12.3584 9.90552C12.4637 9.83601 12.3584 9.90553 12.3584 9.94028C12.3584 9.97504 12.4286 9.90552 12.3584 9.97504C12.4286 9.94028 12.3935 9.97504 12.3584 10.0098C12.3232 10.0445 12.3935 10.0098 12.3584 10.0445C12.4286 10.0098 12.3232 10.0793 12.3584 10.0793C12.3232 10.1141 12.3584 10.0793 12.3584 10.1141C12.3584 10.1141 12.3584 10.1141 12.3584 10.1488C12.3584 10.1488 12.3584 10.1488 12.3584 10.1836C12.2881 10.0445 12.253 10.0793 12.2179 10.1141Z" fill="#73523F"/>
<path d="M5.16102 23.0086C5.19613 22.9739 5.26634 23.0086 5.37167 23.0781C5.37167 23.0781 5.40678 23.1129 5.44189 23.1129C5.477 23.1129 5.477 23.1476 5.51211 23.1476C5.477 23.1824 5.61743 23.1476 5.58232 23.1824C5.58232 23.2172 5.61743 23.2172 5.65254 23.2519C5.68765 23.2519 5.68765 23.3214 5.72276 23.3214C5.82809 23.2867 5.68765 23.4604 5.79298 23.3909C5.82809 23.3909 5.8632 23.4257 5.8983 23.4605C5.8632 23.53 5.96852 23.53 6.00363 23.53C5.89831 23.669 5.96852 23.669 6.03874 23.669C6.00363 23.7733 6.03874 23.808 6.14407 23.7385C6.17918 23.7733 6.17918 23.8428 6.24939 23.808C6.2845 23.8428 6.35472 23.8428 6.35472 23.8775C6.46005 23.8428 6.49516 23.8775 6.46005 23.947C6.56538 23.9123 6.56537 23.9818 6.60048 24.0166C6.60048 24.0861 6.74092 24.0166 6.74092 24.0861C6.77603 24.1208 6.84625 24.1208 6.88136 24.1556C6.91647 24.2251 6.91647 24.2946 7.02179 24.2251C7.09201 24.2251 7.12712 24.2251 7.16223 24.2946C7.26755 24.2598 7.26755 24.2946 7.30266 24.3641C7.37288 24.3641 7.37288 24.4684 7.4431 24.4336C7.47821 24.4684 7.54843 24.4684 7.61864 24.5031C7.65375 24.5379 7.68886 24.6074 7.79419 24.5726C7.86441 24.5379 7.89952 24.6422 7.96973 24.6422C8.00484 24.7464 8.07506 24.6422 8.14528 24.7117C8.2155 24.7117 8.2155 24.8159 8.28572 24.7812C8.35593 24.7812 8.39104 24.7812 8.42615 24.8507C8.53148 24.7464 8.53148 24.9202 8.56659 24.9202C8.6017 24.9897 8.67191 24.955 8.70702 24.955C8.77724 24.955 8.77724 25.0592 8.84746 24.9897C8.88257 25.0245 8.95279 24.9897 8.98789 25.0245C9.05811 24.9897 9.05811 25.094 9.12833 25.0592C9.16344 25.0592 9.23366 25.094 9.26877 25.094C9.30387 25.1983 9.33898 25.1287 9.4092 25.1287C9.44431 25.1635 9.51453 25.094 9.51453 25.1635C9.54964 25.1635 9.58475 25.233 9.61985 25.1983C9.65496 25.1983 9.65496 25.372 9.72518 25.233C9.76029 25.1983 9.7954 25.3373 9.83051 25.2678C9.86562 25.1983 9.90073 25.3025 9.93583 25.3025C9.97094 25.3025 10.0061 25.3373 10.0061 25.3373C10.2518 25.4068 10.3923 25.4763 10.3923 25.5458C10.3923 25.5806 10.3571 25.6153 10.2518 25.6153C10.2167 25.6153 10.1465 25.6153 10.0763 25.6501C10.0412 25.6501 10.0061 25.6501 9.97094 25.6501C9.93584 25.6501 9.90073 25.6501 9.86562 25.6501C9.83051 25.6501 9.7954 25.7196 9.76029 25.6501C9.72518 25.6501 9.69007 25.6848 9.65496 25.6501C9.58475 25.7544 9.58475 25.6501 9.54964 25.6501C9.51453 25.6501 9.47942 25.6153 9.4092 25.6501C9.33898 25.6848 9.33898 25.6153 9.26877 25.6501C9.23366 25.5806 9.19855 25.5806 9.12833 25.6153C9.09322 25.5458 9.023 25.6153 8.98789 25.5806C8.95279 25.4763 8.88257 25.5458 8.84746 25.5458C8.77724 25.5806 8.74213 25.5111 8.70702 25.5111C8.67191 25.4763 8.6017 25.5111 8.53148 25.4763C8.46126 25.5111 8.39104 25.5111 8.35593 25.4416C8.28571 25.4416 8.2506 25.4068 8.18039 25.4068C8.11017 25.4068 8.07506 25.372 8.00484 25.3373C7.93463 25.3373 7.93462 25.1983 7.8293 25.2678C7.75908 25.2678 7.72397 25.1983 7.65375 25.1983C7.58353 25.1635 7.54843 25.1287 7.47821 25.1287C7.4431 25.0245 7.37288 25.0592 7.30266 25.0592C7.23245 25.0592 7.19734 25.0245 7.12712 24.9897C7.0569 24.955 7.02179 24.9202 6.95157 24.8855C6.88136 24.8855 6.84625 24.7812 6.77603 24.7812C6.70581 24.7812 6.70581 24.6769 6.63559 24.6769C6.56538 24.6769 6.49516 24.6422 6.49516 24.5726C6.46005 24.5379 6.46005 24.4336 6.35472 24.4684C6.2845 24.4684 6.17918 24.5031 6.21429 24.3641C6.14407 24.3641 6.17918 24.2598 6.07385 24.2598C6.07385 24.1556 6.00363 24.1903 5.96852 24.1556C5.93341 24.1208 5.93341 24.0513 5.8632 24.0513C5.79298 24.0513 5.79298 23.9818 5.75787 23.947C5.68765 23.947 5.72276 23.8428 5.65254 23.8428C5.61743 23.808 5.58232 23.7733 5.54722 23.7385C5.40678 23.808 5.477 23.669 5.477 23.6342C5.477 23.5995 5.37167 23.6342 5.40678 23.53C5.30145 23.5647 5.33656 23.4952 5.33656 23.4257C5.33656 23.3909 5.26634 23.3909 5.26634 23.3562C5.19613 23.3909 5.26634 23.2867 5.23123 23.2867C5.23123 23.2519 5.19613 23.2519 5.19613 23.2172C5.16102 23.2172 5.16102 23.1824 5.16102 23.1476C5.16102 23.1129 5.12591 23.1129 5.12591 23.0781C5.12591 23.1129 5.12591 23.0434 5.16102 23.0086Z" fill="#73523F"/>
</svg>
