<svg width="104" height="55" viewBox="0 0 104 55" fill="none" xmlns="http://www.w3.org/2000/svg">
<path d="M0 53.2C5.06667 52.9333 9.93333 52.2 14.6 51C19.4 49.8 23.6667 48 27.4 45.6C31.2667 43.2 34.5333 40.1333 37.2 36.4C39.8667 32.6667 41.6 28 42.4 22.4C41.3333 22.8 40.2 23.2667 39 23.8C37.8 24.2 36.4 24.4 34.8 24.4C32.4 24.4 30.2667 23.5333 28.4 21.8C26.5333 19.9333 25.6 17.3333 25.6 14C25.6 10.1333 26.8667 6.86666 29.4 4.19999C32.0667 1.4 35.7333 0 40.4 0C45.3333 0 49.1333 1.66667 51.8 5C54.6 8.33333 56 12.2 56 16.6C56 22.2 54.3333 27.6 51 32.8C47.8 38 43.1333 42.3333 37 45.8C31 49.1333 24.6 51.4667 17.8 52.8C11 54 5.06667 54.6667 0 54.8V53.2ZM48 53.2C53.0667 52.9333 57.9333 52.2 62.6 51C67.4 49.8 71.6667 48 75.4 45.6C79.2667 43.2 82.5333 40.1333 85.2 36.4C87.8667 32.6667 89.6 28 90.4 22.4C89.3333 22.8 88.2 23.2667 87 23.8C85.8 24.2 84.4 24.4 82.8 24.4C80.4 24.4 78.2667 23.5333 76.4 21.8C74.5333 19.9333 73.6 17.3333 73.6 14C73.6 10.1333 74.8667 6.86666 77.4 4.19999C80.0667 1.4 83.7333 0 88.4 0C93.3333 0 97.1333 1.66667 99.8 5C102.6 8.33333 104 12.2 104 16.6C104 22.2 102.333 27.6 99 32.8C95.8 38 91.1333 42.3333 85 45.8C79 49.1333 72.6 51.4667 65.8 52.8C59 54 53.0667 54.6667 48 54.8V53.2Z" fill="#1D9F96"/>
</svg>
