<svg width="104" height="55" viewBox="0 0 104 55" fill="none" xmlns="http://www.w3.org/2000/svg">
<path d="M56 1.60001C51.0667 1.86667 46.2 2.6 41.4 3.8C36.6 5 32.2667 6.8 28.4 9.2C24.6667 11.6 21.4667 14.6667 18.8 18.4C16.1333 22.1333 14.4 26.8 13.6 32.4C14.6667 32 15.8 31.6 17 31.2C18.2 30.6667 19.6 30.4 21.2 30.4C23.6 30.4 25.7333 31.3333 27.6 33.2C29.4667 34.9333 30.4 37.4667 30.4 40.8C30.4 44.6667 29.0667 48 26.4 50.8C23.8667 53.4667 20.2667 54.8 15.6 54.8C10.6667 54.8 6.8 53.1333 4 49.8C1.33333 46.4667 0 42.6 0 38.2C0 32.6 1.6 27.2 4.8 22C8.13333 16.8 12.8667 12.4667 19 9.00001C25 5.66667 31.4 3.4 38.2 2.2C45 0.866665 50.9333 0.133332 56 0V1.60001ZM104 1.60001C99.0667 1.86667 94.2 2.6 89.4 3.8C84.6 5 80.2667 6.8 76.4 9.2C72.6667 11.6 69.4667 14.6667 66.8 18.4C64.1333 22.1333 62.4 26.8 61.6 32.4C62.6667 32 63.8 31.6 65 31.2C66.2 30.6667 67.6 30.4 69.2 30.4C71.6 30.4 73.7333 31.3333 75.6 33.2C77.4667 34.9333 78.4 37.4667 78.4 40.8C78.4 44.6667 77.0667 48 74.4 50.8C71.8667 53.4667 68.2667 54.8 63.6 54.8C58.6667 54.8 54.8 53.1333 52 49.8C49.3333 46.4667 48 42.6 48 38.2C48 32.6 49.6 27.2 52.8 22C56.1333 16.8 60.8667 12.4667 67 9.00001C73 5.66667 79.4 3.4 86.2 2.2C93 0.866665 98.9333 0.133332 104 0V1.60001Z" fill="#1D9F96"/>
</svg>
